<?xml version="1.0" encoding="utf-8"?>
<!-- Generator: Adobe Illustrator 23.0.2, SVG Export Plug-In . SVG Version: 6.00 Build 0)  -->
<svg version="1.1" id="_x39_6306a94-3bea-4326-87c9-b4488db4c6c8"
	 xmlns="http://www.w3.org/2000/svg" xmlns:xlink="http://www.w3.org/1999/xlink" x="0px" y="0px" viewBox="0 0 684 320"
	 style="enable-background:new 0 0 684 320;" xml:space="preserve">
<style type="text/css">
	.st0{fill:#292929;}
	.st1{clip-path:url(#SVGID_2_);}
	.st2{clip-path:url(#SVGID_4_);fill:#3C139B;}
	.st3{clip-path:url(#SVGID_6_);fill:url(#SVGID_7_);}
	.st4{clip-path:url(#SVGID_9_);fill:url(#SVGID_10_);}
	.st5{clip-path:url(#SVGID_12_);fill:url(#SVGID_13_);}
	.st6{clip-path:url(#SVGID_15_);fill:url(#SVGID_16_);}
	.st7{clip-path:url(#SVGID_18_);fill:url(#SVGID_19_);}
	.st8{clip-path:url(#SVGID_21_);fill:url(#SVGID_22_);}
	.st9{clip-path:url(#SVGID_24_);fill:none;stroke:#FFFFFF;stroke-width:0.8825;stroke-miterlimit:10;}
	.st10{clip-path:url(#SVGID_26_);fill:none;stroke:url(#SVGID_27_);stroke-width:0.8825;stroke-miterlimit:10;}
	.st11{clip-path:url(#SVGID_29_);fill:none;stroke:url(#SVGID_30_);stroke-width:0.8825;stroke-miterlimit:10;}
	.st12{clip-path:url(#SVGID_32_);fill:none;stroke:url(#SVGID_33_);stroke-width:0.8825;stroke-miterlimit:10;}
	.st13{clip-path:url(#SVGID_35_);fill:url(#SVGID_36_);}
	.st14{clip-path:url(#SVGID_38_);fill:none;stroke:url(#SVGID_39_);stroke-width:0.8825;stroke-miterlimit:10;}
	.st15{clip-path:url(#SVGID_41_);fill:none;stroke:url(#SVGID_42_);stroke-width:0.8825;stroke-miterlimit:10;}
	.st16{clip-path:url(#SVGID_44_);fill:none;stroke:url(#SVGID_45_);stroke-width:0.8825;stroke-miterlimit:10;}
	.st17{clip-path:url(#SVGID_47_);fill:none;stroke:url(#SVGID_48_);stroke-width:0.8825;stroke-miterlimit:10;}
	.st18{clip-path:url(#SVGID_50_);fill:none;stroke:url(#SVGID_51_);stroke-width:0.8825;stroke-miterlimit:10;}
	.st19{clip-path:url(#SVGID_53_);fill:none;stroke:url(#SVGID_54_);stroke-width:0.8825;stroke-miterlimit:10;}
	.st20{clip-path:url(#SVGID_56_);fill:none;stroke:url(#SVGID_57_);stroke-width:0.8825;stroke-miterlimit:10;}
	.st21{clip-path:url(#SVGID_59_);fill:url(#SVGID_60_);}
	.st22{clip-path:url(#SVGID_62_);fill:url(#SVGID_63_);}
	.st23{clip-path:url(#SVGID_65_);fill:url(#SVGID_66_);}
	.st24{opacity:0.4;fill:none;stroke:#FFFFFF;stroke-width:0.8825;stroke-miterlimit:10;enable-background:new    ;}
</style>
<path class="st0" d="M6.3,267.8V52.2c0-28.5,23.1-51.6,51.6-51.6h568.3c28.5,0,51.6,23.1,51.6,51.6v215.6
	c0,28.5-23.1,51.6-51.6,51.6H57.9C29.5,319.4,6.3,296.2,6.3,267.8z"/>
<g>
	<g>
		<defs>
			<path id="SVGID_1_" d="M16.6,265.8V54.2c0-24,19.5-43.5,43.5-43.5h565.7c24,0,43.5,19.5,43.5,43.5v211.7
				c0,24-19.5,43.5-43.5,43.5H60.1C36.2,309.3,16.6,289.8,16.6,265.8z"/>
		</defs>
		<clipPath id="SVGID_2_">
			<use xlink:href="#SVGID_1_"  style="overflow:visible;"/>
		</clipPath>
		<g class="st1">
			<g>
				<g>
					<defs>
						<rect id="SVGID_3_" x="15.6" y="-51.1" width="661.9" height="441.3"/>
					</defs>
					<clipPath id="SVGID_4_">
						<use xlink:href="#SVGID_3_"  style="overflow:visible;"/>
					</clipPath>
					<rect x="15.6" y="-51.1" class="st2" width="661.9" height="441.3"/>
				</g>
				<g>
					<defs>
						<rect id="SVGID_5_" x="15.6" y="-51.1" width="661.9" height="441.3"/>
					</defs>
					<clipPath id="SVGID_6_">
						<use xlink:href="#SVGID_5_"  style="overflow:visible;"/>
					</clipPath>
					
						<linearGradient id="SVGID_7_" gradientUnits="userSpaceOnUse" x1="131.4529" y1="8.1026" x2="-202.4709" y2="867.9232" gradientTransform="matrix(1 0 0 -1 0 320)">
						<stop  offset="3.222830e-03" style="stop-color:#E7388B"/>
						<stop  offset="4.861193e-02" style="stop-color:#C83299;stop-opacity:0.9543"/>
						<stop  offset="0.1059" style="stop-color:#A92CA7;stop-opacity:0.8966"/>
						<stop  offset="0.1708" style="stop-color:#8D27B3;stop-opacity:0.8313"/>
						<stop  offset="0.2442" style="stop-color:#7723BD;stop-opacity:0.7574"/>
						<stop  offset="0.3299" style="stop-color:#6620C5;stop-opacity:0.6712"/>
						<stop  offset="0.4358" style="stop-color:#5B1ECA;stop-opacity:0.5646"/>
						<stop  offset="0.5843" style="stop-color:#541CCD;stop-opacity:0.4151"/>
						<stop  offset="0.9968" style="stop-color:#521CCE;stop-opacity:0"/>
					</linearGradient>
					<path class="st3" d="M-190.9,141.8c20.2,96.3,99.3,177.8,195.1,200.7c19,4.6,40.6,6.6,56.8-4.4c13.6-9.2,20.3-25.7,23.1-41.9
						c2.7-16.2,2.2-32.7,4.8-48.9c7-43.6,38.9-82.2,80.2-97.5c20.3-7.5,42.2-9.6,63.1-15.4c20.9-5.8,42-16.4,52.6-35.2
						c12.8-22.7,7.2-52.1-6.9-74c-14-21.9-35.1-38.2-55.3-54.7c-20.1-16.5-40.3-34.4-51.2-58.1c-8.8-19.1-12.3-42.8-29.9-54.4
						c-17.3-11.5-40.4-5.8-60,0.9c-33,11.1-65.4,23.9-97.2,38.2c-28.9,13-60.1,30.8-68.1,61.4c-4.1,15.7-1.5,33.5-10,47.3
						c-8.3,13.6-24.8,19.3-38.5,27.3c-30,17.7-49.9,51.2-51,86s16.6,69.6,45.4,89.1"/>
				</g>
				<g>
					<defs>
						<rect id="SVGID_8_" x="15.6" y="-51.1" width="661.9" height="441.3"/>
					</defs>
					<clipPath id="SVGID_9_">
						<use xlink:href="#SVGID_8_"  style="overflow:visible;"/>
					</clipPath>
					
						<linearGradient id="SVGID_10_" gradientUnits="userSpaceOnUse" x1="302.5022" y1="156.941" x2="670.2247" y2="515.2003" gradientTransform="matrix(1 0 0 -1 0 320)">
						<stop  offset="3.222150e-03" style="stop-color:#C4B0EE"/>
						<stop  offset="4.736898e-02" style="stop-color:#AD92E8;stop-opacity:0.9556"/>
						<stop  offset="0.1047" style="stop-color:#9573E1;stop-opacity:0.8979"/>
						<stop  offset="0.1698" style="stop-color:#8057DB;stop-opacity:0.8324"/>
						<stop  offset="0.2433" style="stop-color:#6F41D6;stop-opacity:0.7585"/>
						<stop  offset="0.3291" style="stop-color:#6230D2;stop-opacity:0.6721"/>
						<stop  offset="0.4352" style="stop-color:#5925D0;stop-opacity:0.5654"/>
						<stop  offset="0.584" style="stop-color:#531ECE;stop-opacity:0.4157"/>
						<stop  offset="0.9972" style="stop-color:#521CCE;stop-opacity:0"/>
					</linearGradient>
					<path class="st4" d="M376.1-31.6c25.1,9.5,46.5,34.3,42.8,60.9C415.3,55.1,390.5,73.1,383,98c-9.6,32,13.1,66.5,42.8,81.7
						c29.7,15.2,64.5,15.8,97.9,16s68.1,0.6,98,15.5c14.1,7,26.5,17,40.3,24.4c21.1,11.3,46.6,16.3,69.2,8.4
						c30.1-10.6,48.8-42.4,53.1-74c4.4-31.7-2.9-63.6-10.2-94.8c-4.7-20.1-9.3-40.2-14-60.3c-8.2-35.2-16.4-70.6-31.2-103.5
						C663.7-233.8,506.6-262,363.4-271.2c-106.4-6.8-236.1,18.8-203.6,156c9.7,41.2,37.1,72.2,80,79C284.9-29,331.9-48.3,376.1-31.6
						z"/>
				</g>
				<g>
					<defs>
						<rect id="SVGID_11_" x="15.6" y="-51.1" width="661.9" height="441.3"/>
					</defs>
					<clipPath id="SVGID_12_">
						<use xlink:href="#SVGID_11_"  style="overflow:visible;"/>
					</clipPath>
					
						<linearGradient id="SVGID_13_" gradientUnits="userSpaceOnUse" x1="393.2647" y1="99.027" x2="817.7665" y2="1421.2035" gradientTransform="matrix(1 0 0 -1 0 320)">
						<stop  offset="3.222690e-03" style="stop-color:#55F8E1"/>
						<stop  offset="2.421127e-02" style="stop-color:#55E2DF;stop-opacity:0.9789"/>
						<stop  offset="6.870525e-02" style="stop-color:#54B9DC;stop-opacity:0.9341"/>
						<stop  offset="0.1186" style="stop-color:#5493D8;stop-opacity:0.8839"/>
						<stop  offset="0.1729" style="stop-color:#5373D5;stop-opacity:0.8292"/>
						<stop  offset="0.233" style="stop-color:#5357D3;stop-opacity:0.7687"/>
						<stop  offset="0.3008" style="stop-color:#5341D1;stop-opacity:0.7005"/>
						<stop  offset="0.38" style="stop-color:#5230D0;stop-opacity:0.6208"/>
						<stop  offset="0.478" style="stop-color:#5225CF;stop-opacity:0.5221"/>
						<stop  offset="0.6154" style="stop-color:#521ECE;stop-opacity:0.3839"/>
						<stop  offset="0.9968" style="stop-color:#521CCE;stop-opacity:0"/>
					</linearGradient>
					<path class="st5" d="M406.7,4.4c18.2-7.5,42.2-4.9,53.5,11.3c11,15.7,6.7,37.7,15.1,54.9c10.9,22,40.4,29.2,64,22.4
						c23.6-6.7,42.6-23.8,60.6-40.5c18-16.6,36.9-33.8,60.4-40.8c11.1-3.3,22.7-4.2,33.9-7.1c17-4.5,33.2-14.6,41.4-30.1
						c10.9-20.8,5-47.2-8.6-66.4c-13.5-19.2-33.5-32.7-52.9-45.8c-12.6-8.4-25.1-16.9-37.7-25.3c-22-14.8-44.2-29.7-68.6-39.9
						c-107.9-45.3-206.4,18.3-287.9,85.1C219.3-68.3,162.5,10.5,248.6,67.9c25.9,17.2,56.1,20.2,82.5,2.4
						C359,51.4,374.6,17.5,406.7,4.4z"/>
				</g>
				<g>
					<defs>
						<rect id="SVGID_14_" x="15.6" y="-51.1" width="661.9" height="441.3"/>
					</defs>
					<clipPath id="SVGID_15_">
						<use xlink:href="#SVGID_14_"  style="overflow:visible;"/>
					</clipPath>
					
						<linearGradient id="SVGID_16_" gradientUnits="userSpaceOnUse" x1="416.8535" y1="219.883" x2="81.5764" y2="-412.8164" gradientTransform="matrix(1 0 0 -1 0 320)">
						<stop  offset="3.222150e-03" style="stop-color:#C4B0EE"/>
						<stop  offset="4.736898e-02" style="stop-color:#AD92E8;stop-opacity:0.9556"/>
						<stop  offset="0.1047" style="stop-color:#9573E1;stop-opacity:0.8979"/>
						<stop  offset="0.1698" style="stop-color:#8057DB;stop-opacity:0.8324"/>
						<stop  offset="0.2433" style="stop-color:#6F41D6;stop-opacity:0.7585"/>
						<stop  offset="0.3291" style="stop-color:#6230D2;stop-opacity:0.6721"/>
						<stop  offset="0.4352" style="stop-color:#5925D0;stop-opacity:0.5654"/>
						<stop  offset="0.584" style="stop-color:#531ECE;stop-opacity:0.4157"/>
						<stop  offset="0.9972" style="stop-color:#521CCE;stop-opacity:0"/>
					</linearGradient>
					<path class="st6" d="M404,570.3c30.1-16.9,52.8-46.7,60.9-80.2c8.2-33.6,1.7-70.4-17.3-99.2c-18-27.3-47.8-50.3-49.3-83
						c-0.9-19.8,9.2-38.4,12-58.1c5-35.3-17.2-72.6-50.6-85c-33.4-12.5-74.6,1.1-94,31.1c-11,17-17,39.5-35.4,47.8
						c-12.5,5.6-27.2,2.6-40-2.6c-12.7-5.2-24.7-12.4-38.2-15.3C120.9,219,88.4,238.2,71,265s-22.4,59.8-24,91.7
						c-2.2,43.5,1,87.3,9.5,130c7.8,39,22.9,80.7,57.7,99.8c28.9,15.9,64.2,12.1,96.9,7.9c64.6-8.3,129.2-16.7,193.8-25
						c4.8-4.8,9.6-9.7,14.5-14.5"/>
				</g>
				<g>
					<defs>
						<rect id="SVGID_17_" x="15.6" y="-51.1" width="661.9" height="441.3"/>
					</defs>
					<clipPath id="SVGID_18_">
						<use xlink:href="#SVGID_17_"  style="overflow:visible;"/>
					</clipPath>
					
						<linearGradient id="SVGID_19_" gradientUnits="userSpaceOnUse" x1="829.9325" y1="-338.8245" x2="442.3822" y2="164.0892" gradientTransform="matrix(1 0 0 -1 0 320)">
						<stop  offset="3.222960e-03" style="stop-color:#521CCE;stop-opacity:0"/>
						<stop  offset="0.1952" style="stop-color:#551DCE;stop-opacity:0.1932"/>
						<stop  offset="0.3485" style="stop-color:#5F20CE;stop-opacity:0.3475"/>
						<stop  offset="0.4885" style="stop-color:#7026CE;stop-opacity:0.4884"/>
						<stop  offset="0.6206" style="stop-color:#882ECE;stop-opacity:0.6214"/>
						<stop  offset="0.7472" style="stop-color:#A638CE;stop-opacity:0.7488"/>
						<stop  offset="0.8695" style="stop-color:#CC45CD;stop-opacity:0.8719"/>
						<stop  offset="0.9864" style="stop-color:#F854CD;stop-opacity:0.9895"/>
						<stop  offset="0.9968" style="stop-color:#FC55CD"/>
					</linearGradient>
					<path class="st7" d="M316.8,488.9c-38.4-44.7-56.5-109-37.6-164.9C298,268.2,358,226.4,416,236.7c30.5,5.4,61.1,23.6,90.4,13.6
						c26.7-9.1,40.5-38.1,49.3-64.9s16.7-56.3,39.1-73.4c21.7-16.6,52.5-17,78.4-8.2s48.3,25.5,70.6,41.4s45.8,31.4,72.5,37.4
						c10.7,2.4,22,3.2,31.6,8.5c14.3,7.8,22.3,24.5,22.6,40.8s-6.1,32.1-14.9,45.8c-54.7,85-187.6,89.7-243.2,174.1
						c-12.3,18.7-19.9,40.2-32.8,58.5C511.7,606.4,380.5,563.2,316.8,488.9z"/>
				</g>
				<g>
					<defs>
						<rect id="SVGID_20_" x="15.6" y="-51.1" width="661.9" height="441.3"/>
					</defs>
					<clipPath id="SVGID_21_">
						<use xlink:href="#SVGID_20_"  style="overflow:visible;"/>
					</clipPath>
					
						<linearGradient id="SVGID_22_" gradientUnits="userSpaceOnUse" x1="645.153" y1="-24.8549" x2="573.5012" y2="95.4662" gradientTransform="matrix(1 0 0 -1 0 320)">
						<stop  offset="0" style="stop-color:#521CCE;stop-opacity:0"/>
						<stop  offset="9.029302e-02" style="stop-color:#571CCB;stop-opacity:0.1311"/>
						<stop  offset="0.1965" style="stop-color:#651CC4;stop-opacity:0.2853"/>
						<stop  offset="0.3108" style="stop-color:#7D1CB8;stop-opacity:0.4512"/>
						<stop  offset="0.4307" style="stop-color:#9E1CA7;stop-opacity:0.6253"/>
						<stop  offset="0.5552" style="stop-color:#C91C92;stop-opacity:0.806"/>
						<stop  offset="0.6817" style="stop-color:#FC1C78;stop-opacity:0.9896"/>
						<stop  offset="0.6888" style="stop-color:#FF1C76"/>
						<stop  offset="0.9078" style="stop-color:#FF6CA7"/>
						<stop  offset="0.9834" style="stop-color:#FCEC1A"/>
					</linearGradient>
					<path class="st8" d="M642.3,289.3c-3.2,15-9.7,29.9-21.5,39.8s-29.4,13.6-42.9,6.4s-19.9-26.8-10.8-39.2
						c9.4-12.9,29.8-13.8,38.8-27c4.6-6.7,5.2-15.4,4.9-23.5s-1.4-16.4,0.5-24.3c1.5-6.4,7.8-18.9,16.1-14.7
						c6.5,3.3,10.3,19.1,12.3,25.6C645.2,250.7,646.3,270.4,642.3,289.3z"/>
				</g>
				<g>
					<defs>
						<rect id="SVGID_23_" x="15.6" y="-51.1" width="661.9" height="441.3"/>
					</defs>
					<clipPath id="SVGID_24_">
						<use xlink:href="#SVGID_23_"  style="overflow:visible;"/>
					</clipPath>
					<path class="st9" d="M107.9,331.9c0,2.3-1.9,4.2-4.2,4.2c-2.3,0-4.2-1.9-4.2-4.2c0-2.3,1.9-4.2,4.2-4.2
						C106,327.6,107.9,329.5,107.9,331.9z"/>
				</g>
				<g>
					<defs>
						<rect id="SVGID_25_" x="15.6" y="-51.1" width="661.9" height="441.3"/>
					</defs>
					<clipPath id="SVGID_26_">
						<use xlink:href="#SVGID_25_"  style="overflow:visible;"/>
					</clipPath>
					
						<linearGradient id="SVGID_27_" gradientUnits="userSpaceOnUse" x1="77.5856" y1="182.2767" x2="325.1568" y2="182.2767" gradientTransform="matrix(1 0 0 -1 0 320)">
						<stop  offset="3.221680e-03" style="stop-color:#E862FF;stop-opacity:0"/>
						<stop  offset="6.836068e-02" style="stop-color:#D66CFF;stop-opacity:0.111"/>
						<stop  offset="0.199" style="stop-color:#A785FF;stop-opacity:0.3335"/>
						<stop  offset="0.3831" style="stop-color:#5CAFFF;stop-opacity:0.6473"/>
						<stop  offset="0.5901" style="stop-color:#00E1FF"/>
						<stop  offset="1" style="stop-color:#E862FF;stop-opacity:0"/>
					</linearGradient>
					<path class="st10" d="M264.9-88.1c20.7,28.3,41.7,57.3,52.7,90.6s10.4,72.4-10,100.9c-20,27.9-54.5,40.8-87.5,50.2
						c-33,9.4-67.9,17.5-93.9,39.8c-23.2,19.9-36.6,49.2-42.7,79.1c-6.2,29.9-5.7,60.7-5.2,91.3"/>
				</g>
				<g>
					<defs>
						<rect id="SVGID_28_" x="15.6" y="-51.1" width="661.9" height="441.3"/>
					</defs>
					<clipPath id="SVGID_29_">
						<use xlink:href="#SVGID_28_"  style="overflow:visible;"/>
					</clipPath>
					
						<linearGradient id="SVGID_30_" gradientUnits="userSpaceOnUse" x1="68.9856" y1="181.8766" x2="316.5568" y2="181.8766" gradientTransform="matrix(1 0 0 -1 0 320)">
						<stop  offset="3.221680e-03" style="stop-color:#E862FF;stop-opacity:0"/>
						<stop  offset="6.836068e-02" style="stop-color:#D66CFF;stop-opacity:0.111"/>
						<stop  offset="0.199" style="stop-color:#A785FF;stop-opacity:0.3335"/>
						<stop  offset="0.3831" style="stop-color:#5CAFFF;stop-opacity:0.6473"/>
						<stop  offset="0.5901" style="stop-color:#00E1FF"/>
						<stop  offset="1" style="stop-color:#E862FF;stop-opacity:0"/>
					</linearGradient>
					<path class="st11" d="M256.3-87.7C277-59.4,298.1-30.4,309,2.9c11,33.3,10.4,72.4-10,100.9c-20,27.9-54.5,40.8-87.5,50.2
						s-67.9,17.5-93.9,39.8C94.4,213.7,81,243,74.9,272.9c-6.2,29.9-5.7,60.7-5.2,91.3"/>
				</g>
				<g>
					<defs>
						<rect id="SVGID_31_" x="15.6" y="-51.1" width="661.9" height="441.3"/>
					</defs>
					<clipPath id="SVGID_32_">
						<use xlink:href="#SVGID_31_"  style="overflow:visible;"/>
					</clipPath>
					
						<linearGradient id="SVGID_33_" gradientUnits="userSpaceOnUse" x1="61.8856" y1="181.8266" x2="309.4568" y2="181.8266" gradientTransform="matrix(1 0 0 -1 0 320)">
						<stop  offset="3.221680e-03" style="stop-color:#E862FF;stop-opacity:0"/>
						<stop  offset="6.836068e-02" style="stop-color:#D66CFF;stop-opacity:0.111"/>
						<stop  offset="0.199" style="stop-color:#A785FF;stop-opacity:0.3335"/>
						<stop  offset="0.3831" style="stop-color:#5CAFFF;stop-opacity:0.6473"/>
						<stop  offset="0.5901" style="stop-color:#00E1FF"/>
						<stop  offset="1" style="stop-color:#E862FF;stop-opacity:0"/>
					</linearGradient>
					<path class="st12" d="M249.2-87.7c20.7,28.3,41.7,57.3,52.7,90.6s10.4,72.4-10,100.9c-20,27.9-54.5,40.8-87.5,50.2
						s-67.9,17.5-93.9,39.8C87.4,213.7,74,243.1,67.8,273s-5.7,60.7-5.2,91.3"/>
				</g>
				<g>
					<defs>
						<rect id="SVGID_34_" x="15.6" y="-51.1" width="661.9" height="441.3"/>
					</defs>
					<clipPath id="SVGID_35_">
						<use xlink:href="#SVGID_34_"  style="overflow:visible;"/>
					</clipPath>
					
						<linearGradient id="SVGID_36_" gradientUnits="userSpaceOnUse" x1="41.6041" y1="-221.9397" x2="350.1231" y2="131.0973" gradientTransform="matrix(1 0 0 -1 0 320)">
						<stop  offset="0" style="stop-color:#521CCE;stop-opacity:0"/>
						<stop  offset="9.029302e-02" style="stop-color:#571CCB;stop-opacity:0.1311"/>
						<stop  offset="0.1965" style="stop-color:#651CC4;stop-opacity:0.2853"/>
						<stop  offset="0.3108" style="stop-color:#7D1CB8;stop-opacity:0.4512"/>
						<stop  offset="0.4307" style="stop-color:#9E1CA7;stop-opacity:0.6253"/>
						<stop  offset="0.5552" style="stop-color:#C91C92;stop-opacity:0.806"/>
						<stop  offset="0.6817" style="stop-color:#FC1C78;stop-opacity:0.9896"/>
						<stop  offset="0.6888" style="stop-color:#FF1C76"/>
						<stop  offset="0.8177" style="stop-color:#FF6CA7"/>
						<stop  offset="0.9834" style="stop-color:#FCEC1A"/>
					</linearGradient>
					<path class="st13" d="M-53,291.5c7.7-44.9,36.3-85.7,75.9-108.3c13.7-7.8,28.9-13.6,44.6-14.2c15.8-0.6,32.1,4.4,43.3,15.5
						c21.5,21.5,18.6,59,39.2,81.4c16.9,18.3,46,21.1,69.3,12.3c23.3-8.8,41.8-27,57.6-46.1c8.2-9.9,16.1-20.3,26.8-27.3
						c10.7-7,25.1-10.1,36.3-4c13.2,7.2,17.7,24.5,15.7,39.4c-2.1,14.9-9.1,28.6-13.6,43s-6.1,31,2.1,43.7
						c9.1,14.1,27.7,18.9,44.5,18s33-6.3,49.7-7.6c17.6-1.4,36.2,2,50.2,12.6c14,10.7,22.5,29.5,18,46.6
						c-3.7,14-15.4,24.9-28.8,30.5s-28.2,6.5-42.7,5.8c-25.7-1.3-51-7.4-76.7-9.8c-63.8-6.1-127.3,10.6-190.9,19.4
						c-55.5,7.7-115,8.6-166.6-16.2C-46.6,403.2-61.5,340.9-53,291.5z"/>
				</g>
				<g>
					<defs>
						<rect id="SVGID_37_" x="15.6" y="-51.1" width="661.9" height="441.3"/>
					</defs>
					<clipPath id="SVGID_38_">
						<use xlink:href="#SVGID_37_"  style="overflow:visible;"/>
					</clipPath>
					
						<linearGradient id="SVGID_39_" gradientUnits="userSpaceOnUse" x1="51.3856" y1="180.4766" x2="298.9568" y2="180.4766" gradientTransform="matrix(1 0 0 -1 0 320)">
						<stop  offset="3.221680e-03" style="stop-color:#E862FF;stop-opacity:0"/>
						<stop  offset="6.836068e-02" style="stop-color:#D66CFF;stop-opacity:0.111"/>
						<stop  offset="0.199" style="stop-color:#A785FF;stop-opacity:0.3335"/>
						<stop  offset="0.3831" style="stop-color:#5CAFFF;stop-opacity:0.6473"/>
						<stop  offset="0.5901" style="stop-color:#00E1FF"/>
						<stop  offset="1" style="stop-color:#E862FF;stop-opacity:0"/>
					</linearGradient>
					<path class="st14" d="M238.7-86.3C259.4-58,280.4-29,291.4,4.3s10.4,72.4-10,100.9c-20,27.9-54.5,40.8-87.5,50.2
						c-33,9.4-67.9,17.5-93.9,39.8c-23.2,19.9-36.6,49.2-42.7,79.1c-6.2,29.9-5.7,60.7-5.2,91.3"/>
				</g>
				<g>
					<defs>
						<rect id="SVGID_40_" x="15.6" y="-51.1" width="661.9" height="441.3"/>
					</defs>
					<clipPath id="SVGID_41_">
						<use xlink:href="#SVGID_40_"  style="overflow:visible;"/>
					</clipPath>
					
						<linearGradient id="SVGID_42_" gradientUnits="userSpaceOnUse" x1="292.1756" y1="140.7907" x2="718.3098" y2="140.7907" gradientTransform="matrix(1 0 0 -1 0 320)">
						<stop  offset="3.221680e-03" style="stop-color:#E862FF;stop-opacity:0"/>
						<stop  offset="0.1135" style="stop-color:#E663FF;stop-opacity:0.2858"/>
						<stop  offset="0.1679" style="stop-color:#DE67FF;stop-opacity:0.427"/>
						<stop  offset="0.2102" style="stop-color:#D16FFF;stop-opacity:0.5365"/>
						<stop  offset="0.2461" style="stop-color:#BE79FF;stop-opacity:0.6297"/>
						<stop  offset="0.2781" style="stop-color:#A686FF;stop-opacity:0.7126"/>
						<stop  offset="0.3072" style="stop-color:#8896FF;stop-opacity:0.7881"/>
						<stop  offset="0.3342" style="stop-color:#65AAFF;stop-opacity:0.8581"/>
						<stop  offset="0.3595" style="stop-color:#3BC1FF;stop-opacity:0.9236"/>
						<stop  offset="0.3826" style="stop-color:#0ED9FF;stop-opacity:0.9835"/>
						<stop  offset="0.389" style="stop-color:#00E1FF"/>
						<stop  offset="0.4542" style="stop-color:#32C5FF;stop-opacity:0.8932"/>
						<stop  offset="0.5257" style="stop-color:#62ABFF;stop-opacity:0.7762"/>
						<stop  offset="0.5995" style="stop-color:#8B95FF;stop-opacity:0.6554"/>
						<stop  offset="0.6744" style="stop-color:#AD82FF;stop-opacity:0.5329"/>
						<stop  offset="0.7507" style="stop-color:#C774FF;stop-opacity:0.408"/>
						<stop  offset="0.8289" style="stop-color:#D96AFF;stop-opacity:0.28"/>
						<stop  offset="0.9103" style="stop-color:#E464FF;stop-opacity:0.1468"/>
						<stop  offset="1" style="stop-color:#E862FF;stop-opacity:0"/>
					</linearGradient>
					<path class="st15" d="M718.1,78.4c-29.6-16-66.3-18.2-97.5-5.8s-56.5,39.1-67.1,71c-4.9,14.7-6.9,30.6-14.8,43.9
						c-10.9,18.4-31.6,29.2-52.5,33.2c-21,4.1-42.6,2.4-63.9,1.3c-21.3-1.1-43.1-1.7-63.6,4.6c-31.4,9.6-57.1,35.9-66.1,67.5"/>
				</g>
				<g>
					<defs>
						<rect id="SVGID_43_" x="15.6" y="-51.1" width="661.9" height="441.3"/>
					</defs>
					<clipPath id="SVGID_44_">
						<use xlink:href="#SVGID_43_"  style="overflow:visible;"/>
					</clipPath>
					
						<linearGradient id="SVGID_45_" gradientUnits="userSpaceOnUse" x1="292.5797" y1="137.276" x2="726.2231" y2="137.276" gradientTransform="matrix(1 0 0 -1 0 320)">
						<stop  offset="3.221680e-03" style="stop-color:#E862FF;stop-opacity:0"/>
						<stop  offset="0.1135" style="stop-color:#E663FF;stop-opacity:0.2858"/>
						<stop  offset="0.1679" style="stop-color:#DE67FF;stop-opacity:0.427"/>
						<stop  offset="0.2102" style="stop-color:#D16FFF;stop-opacity:0.5365"/>
						<stop  offset="0.2461" style="stop-color:#BE79FF;stop-opacity:0.6297"/>
						<stop  offset="0.2781" style="stop-color:#A686FF;stop-opacity:0.7126"/>
						<stop  offset="0.3072" style="stop-color:#8896FF;stop-opacity:0.7881"/>
						<stop  offset="0.3342" style="stop-color:#65AAFF;stop-opacity:0.8581"/>
						<stop  offset="0.3595" style="stop-color:#3BC1FF;stop-opacity:0.9236"/>
						<stop  offset="0.3826" style="stop-color:#0ED9FF;stop-opacity:0.9835"/>
						<stop  offset="0.389" style="stop-color:#00E1FF"/>
						<stop  offset="0.4542" style="stop-color:#32C5FF;stop-opacity:0.8932"/>
						<stop  offset="0.5257" style="stop-color:#62ABFF;stop-opacity:0.7762"/>
						<stop  offset="0.5995" style="stop-color:#8B95FF;stop-opacity:0.6554"/>
						<stop  offset="0.6744" style="stop-color:#AD82FF;stop-opacity:0.5329"/>
						<stop  offset="0.7507" style="stop-color:#C774FF;stop-opacity:0.408"/>
						<stop  offset="0.8289" style="stop-color:#D96AFF;stop-opacity:0.28"/>
						<stop  offset="0.9103" style="stop-color:#E464FF;stop-opacity:0.1468"/>
						<stop  offset="1" style="stop-color:#E862FF;stop-opacity:0"/>
					</linearGradient>
					<path class="st16" d="M726,90.5c-29-17-65.6-20.5-97.3-9.2s-57.9,37.1-69.6,68.6c-5.4,14.5-8,30.3-16.4,43.3
						c-11.5,18-32.6,28-53.7,31.4c-21.1,3.3-42.6,0.9-63.9-1s-43.1-3.2-63.7,2.3c-31.7,8.5-58.4,33.8-68.4,65.1"/>
				</g>
				<g>
					<defs>
						<rect id="SVGID_46_" x="15.6" y="-51.1" width="661.9" height="441.3"/>
					</defs>
					<clipPath id="SVGID_47_">
						<use xlink:href="#SVGID_46_"  style="overflow:visible;"/>
					</clipPath>
					
						<linearGradient id="SVGID_48_" gradientUnits="userSpaceOnUse" x1="288.2877" y1="134.9435" x2="731.8426" y2="134.9435" gradientTransform="matrix(1 0 0 -1 0 320)">
						<stop  offset="3.221680e-03" style="stop-color:#E862FF;stop-opacity:0"/>
						<stop  offset="0.1135" style="stop-color:#E663FF;stop-opacity:0.2858"/>
						<stop  offset="0.1679" style="stop-color:#DE67FF;stop-opacity:0.427"/>
						<stop  offset="0.2102" style="stop-color:#D16FFF;stop-opacity:0.5365"/>
						<stop  offset="0.2461" style="stop-color:#BE79FF;stop-opacity:0.6297"/>
						<stop  offset="0.2781" style="stop-color:#A686FF;stop-opacity:0.7126"/>
						<stop  offset="0.3072" style="stop-color:#8896FF;stop-opacity:0.7881"/>
						<stop  offset="0.3342" style="stop-color:#65AAFF;stop-opacity:0.8581"/>
						<stop  offset="0.3595" style="stop-color:#3BC1FF;stop-opacity:0.9236"/>
						<stop  offset="0.3826" style="stop-color:#0ED9FF;stop-opacity:0.9835"/>
						<stop  offset="0.389" style="stop-color:#00E1FF"/>
						<stop  offset="0.4542" style="stop-color:#32C5FF;stop-opacity:0.8932"/>
						<stop  offset="0.5257" style="stop-color:#62ABFF;stop-opacity:0.7762"/>
						<stop  offset="0.5995" style="stop-color:#8B95FF;stop-opacity:0.6554"/>
						<stop  offset="0.6744" style="stop-color:#AD82FF;stop-opacity:0.5329"/>
						<stop  offset="0.7507" style="stop-color:#C774FF;stop-opacity:0.408"/>
						<stop  offset="0.8289" style="stop-color:#D96AFF;stop-opacity:0.28"/>
						<stop  offset="0.9103" style="stop-color:#E464FF;stop-opacity:0.1468"/>
						<stop  offset="1" style="stop-color:#E862FF;stop-opacity:0"/>
					</linearGradient>
					<path class="st17" d="M731.6,106.1c-28.1-18.5-64.4-23.9-96.7-14.4c-32.2,9.6-59.7,34-73.1,64.8c-6.2,14.2-9.6,29.8-18.6,42.4
						c-12.5,17.3-34,26.3-55.3,28.5c-21.2,2.2-42.6-1.4-63.7-4.4s-42.8-5.5-63.7-1.1c-32.1,6.8-60.1,30.7-71.8,61.4"/>
				</g>
				<g>
					<defs>
						<rect id="SVGID_49_" x="15.6" y="-51.1" width="661.9" height="441.3"/>
					</defs>
					<clipPath id="SVGID_50_">
						<use xlink:href="#SVGID_49_"  style="overflow:visible;"/>
					</clipPath>
					
						<linearGradient id="SVGID_51_" gradientUnits="userSpaceOnUse" x1="-41.6622" y1="334.8688" x2="556.5515" y2="334.8688" gradientTransform="matrix(1 0 0 -1 0 320)">
						<stop  offset="3.221680e-03" style="stop-color:#E862FF;stop-opacity:0"/>
						<stop  offset="6.836068e-02" style="stop-color:#D66CFF;stop-opacity:0.111"/>
						<stop  offset="0.199" style="stop-color:#A785FF;stop-opacity:0.3335"/>
						<stop  offset="0.3831" style="stop-color:#5CAFFF;stop-opacity:0.6473"/>
						<stop  offset="0.5901" style="stop-color:#00E1FF"/>
						<stop  offset="1" style="stop-color:#E862FF;stop-opacity:0"/>
					</linearGradient>
					<path class="st18" d="M-41.3,43.9C-23,70.2,7.6,87.6,39.6,90c32,2.3,64.8-10.4,86.8-33.8c12-12.8,22-29.2,38.6-34.8
						c14.1-4.7,29.7-0.3,43.2,5.9s26.5,14.2,41.2,17c30.7,5.8,60.6-12.6,83.9-33.4s44.6-45.4,73.7-56.8c19-7.4,39.9-8.5,60.2-10.2
						c20.4-1.7,41.3-4.4,59.1-14.5s31.7-29.5,29.6-49.8"/>
				</g>
				<g>
					<defs>
						<rect id="SVGID_52_" x="15.6" y="-51.1" width="661.9" height="441.3"/>
					</defs>
					<clipPath id="SVGID_53_">
						<use xlink:href="#SVGID_52_"  style="overflow:visible;"/>
					</clipPath>
					
						<linearGradient id="SVGID_54_" gradientUnits="userSpaceOnUse" x1="-23.8878" y1="230.7827" x2="574.361" y2="230.7827" gradientTransform="matrix(0.9895 0.1445 0.1445 -0.9895 -45.9752 173.6906)">
						<stop  offset="3.221680e-03" style="stop-color:#E862FF;stop-opacity:0"/>
						<stop  offset="6.836068e-02" style="stop-color:#D66CFF;stop-opacity:0.111"/>
						<stop  offset="0.199" style="stop-color:#A785FF;stop-opacity:0.3335"/>
						<stop  offset="0.3831" style="stop-color:#5CAFFF;stop-opacity:0.6473"/>
						<stop  offset="0.5901" style="stop-color:#00E1FF"/>
						<stop  offset="1" style="stop-color:#E862FF;stop-opacity:0"/>
					</linearGradient>
					<path class="st19" d="M-44.4,0.1C-30.1,28.8-2.3,50.5,29,57.4s65.6-1,90.8-20.9c13.7-10.9,25.9-25.7,43.2-28.8
						c14.7-2.6,29.4,4,41.9,12.1s24.2,17.9,38.3,22.7c29.5,10.2,61.8-3.7,87.9-20.9s50.7-38.5,81.1-45.6c19.9-4.6,40.7-2.6,61.1-1.4
						c20.4,1.3,41.5,1.7,60.5-5.8c19-7.4,35.7-24.6,36.5-45"/>
				</g>
				<g>
					<defs>
						<rect id="SVGID_55_" x="15.6" y="-51.1" width="661.9" height="441.3"/>
					</defs>
					<clipPath id="SVGID_56_">
						<use xlink:href="#SVGID_55_"  style="overflow:visible;"/>
					</clipPath>
					
						<linearGradient id="SVGID_57_" gradientUnits="userSpaceOnUse" x1="-36.6091" y1="279.8351" x2="561.4637" y2="279.8351" gradientTransform="matrix(0.9971 7.650000e-02 7.650000e-02 -0.9971 -25.0738 243.6524)">
						<stop  offset="3.221680e-03" style="stop-color:#E862FF;stop-opacity:0"/>
						<stop  offset="6.836068e-02" style="stop-color:#D66CFF;stop-opacity:0.111"/>
						<stop  offset="0.199" style="stop-color:#A785FF;stop-opacity:0.3335"/>
						<stop  offset="0.3831" style="stop-color:#5CAFFF;stop-opacity:0.6473"/>
						<stop  offset="0.5901" style="stop-color:#00E1FF"/>
						<stop  offset="1" style="stop-color:#E862FF;stop-opacity:0"/>
					</linearGradient>
					<path class="st20" d="M-44.3,20.4C-28,48.1,1.1,67.8,32.8,72.6c31.7,4.8,65.4-5.4,89.1-27.1c13-11.8,24.1-27.4,41.1-31.7
						c14.4-3.6,29.6,2,42.6,9.2s25.4,16.2,39.8,20.1c30.1,8.1,61.4-7.9,86.2-26.9c24.8-18.9,48-41.9,77.8-51
						c19.6-6,40.4-5.4,60.8-5.6c20.4-0.1,41.5-1.2,60-9.9s33.9-26.9,33.4-47.4"/>
				</g>
				<g>
					<defs>
						<rect id="SVGID_58_" x="15.6" y="-51.1" width="661.9" height="441.3"/>
					</defs>
					<clipPath id="SVGID_59_">
						<use xlink:href="#SVGID_58_"  style="overflow:visible;"/>
					</clipPath>
					
						<linearGradient id="SVGID_60_" gradientUnits="userSpaceOnUse" x1="373.0753" y1="143.4833" x2="800.282" y2="613.9514" gradientTransform="matrix(1 0 0 -1 0 320)">
						<stop  offset="3.222150e-03" style="stop-color:#C4B0EE"/>
						<stop  offset="4.735005e-02" style="stop-color:#AD92E8"/>
						<stop  offset="0.1047" style="stop-color:#9573E1"/>
						<stop  offset="0.1697" style="stop-color:#8057DB"/>
						<stop  offset="0.2432" style="stop-color:#6F41D6"/>
						<stop  offset="0.329" style="stop-color:#6230D2"/>
						<stop  offset="0.435" style="stop-color:#5925D0"/>
						<stop  offset="0.5838" style="stop-color:#531ECE"/>
						<stop  offset="0.9968" style="stop-color:#521CCE"/>
					</linearGradient>
					<path class="st21" d="M413.1-150.7c-25.2-2.2-52,12.6-60.4,36.4c-9,25.4,4.1,54.8,25.7,70.8s49.7,20.7,76.6,20.2
						s53.5-5.8,80.3-7.6c22.4-1.5,46-0.2,65.6,10.9c19.5,11.1,33.6,34.3,28,56.1c-4.1,15.9-17.4,27.9-23,43.4
						c-8.1,22.4,2.9,49.5,23.4,61.6c20.5,12.2,48.1,9.7,67.4-4.3c19-13.7,29.8-36.6,33.8-59.6c4-23.1,2-46.8,0-70.1
						c-2.8-32.6-7.4-68.7-32.3-90c-17.2-14.7-40.7-19-63.1-22.1c-93.3-12.8-188.4-12.7-281.6,0.2"/>
				</g>
				<g>
					<defs>
						<rect id="SVGID_61_" x="15.6" y="-51.1" width="661.9" height="441.3"/>
					</defs>
					<clipPath id="SVGID_62_">
						<use xlink:href="#SVGID_61_"  style="overflow:visible;"/>
					</clipPath>
					
						<linearGradient id="SVGID_63_" gradientUnits="userSpaceOnUse" x1="-8.7237" y1="659.9215" x2="345.4583" y2="221.9261" gradientTransform="matrix(0.9974 -7.230000e-02 -7.230000e-02 -0.9974 32.0212 387.2587)">
						<stop  offset="3.222420e-03" style="stop-color:#521CCE"/>
						<stop  offset="0.1952" style="stop-color:#551DCE"/>
						<stop  offset="0.3485" style="stop-color:#5F20CE"/>
						<stop  offset="0.4885" style="stop-color:#7026CE"/>
						<stop  offset="0.6206" style="stop-color:#882ECE"/>
						<stop  offset="0.7472" style="stop-color:#A638CE"/>
						<stop  offset="0.8695" style="stop-color:#CC45CD"/>
						<stop  offset="0.9864" style="stop-color:#F854CD"/>
						<stop  offset="0.9968" style="stop-color:#FC55CD"/>
					</linearGradient>
					<path class="st22" d="M-60-64.8C-67.1-25.9-63.4,17-39.9,48.8S30.4,96.6,64.9,77.1C95.2,59.9,110,20.9,142.6,8.7
						c28.3-10.6,59.2,2.8,87.2,14.1s62.1,20.1,86.6,2.4c12.8-9.3,20.2-24.1,29.4-37c28.3-40,78.2-63.7,127.1-60.3
						c-13.8-23.8-38.1-40.1-64-49.2s-53.6-11.8-81-13.6c-120.6-7.9-242.3-0.5-361.1,21.9c-17.3,3.3-36,7.7-46.8,21.6
						C-90.4-78.2-90.6-58.9-84.7-43C-78.9-27-67.8-13.6-57-0.4"/>
				</g>
				<g>
					<defs>
						<rect id="SVGID_64_" x="15.6" y="-51.1" width="661.9" height="441.3"/>
					</defs>
					<clipPath id="SVGID_65_">
						<use xlink:href="#SVGID_64_"  style="overflow:visible;"/>
					</clipPath>
					
						<linearGradient id="SVGID_66_" gradientUnits="userSpaceOnUse" x1="-82.6939" y1="29.4573" x2="156.6034" y2="197.7769" gradientTransform="matrix(0.9845 0.1752 0.1752 -0.9845 -38.8551 183.2107)">
						<stop  offset="0" style="stop-color:#521CCE;stop-opacity:0"/>
						<stop  offset="9.029302e-02" style="stop-color:#571CCB;stop-opacity:0.1311"/>
						<stop  offset="0.1965" style="stop-color:#651CC4;stop-opacity:0.2853"/>
						<stop  offset="0.3108" style="stop-color:#7D1CB8;stop-opacity:0.4512"/>
						<stop  offset="0.4307" style="stop-color:#9E1CA7;stop-opacity:0.6253"/>
						<stop  offset="0.5552" style="stop-color:#C91C92;stop-opacity:0.806"/>
						<stop  offset="0.6817" style="stop-color:#FC1C78;stop-opacity:0.9896"/>
						<stop  offset="0.6888" style="stop-color:#FF1C76"/>
						<stop  offset="0.9078" style="stop-color:#FF6CA7"/>
						<stop  offset="0.9834" style="stop-color:#FCEC1A"/>
					</linearGradient>
					<path class="st23" d="M-24.6,102.4c-0.1,15.7,8.1,31.1,21,40c9.9,6.7,23.9,9.2,33.5,2.1c7.9-6,10.5-16.8,10.1-26.7
						s-3.2-19.6-3.6-29.5c-0.4-9.9,2.2-20.8,10.2-26.7c13-9.7,33.2-1.8,46.5-11c5.8-4,9.4-10.9,10-18s-1.6-14.2-5.3-20.2
						C88.6-2.3,70.2-9.8,53.1-8.1C35.9-6.5,20.2,3.3,8.9,16.4S-9.4,45.6-14.2,62.2c-4.7,16.2-7.4,33.1-5.6,49.8"/>
				</g>
			</g>
			<path class="st24" d="M183.6-26.2c0,2.3-1.9,4.2-4.2,4.2s-4.2-1.9-4.2-4.2s1.9-4.2,4.2-4.2C181.7-30.5,183.6-28.6,183.6-26.2z"/>
		</g>
	</g>
</g>
<path class="st0" d="M675.8,82.1l-12.9,1.3c-8.5,0.9-14.9,9-14.9,18.6v115.9c0,9.7,6.5,17.7,14.9,18.6l12.9,1.3V82.1z"/>
</svg>
