<?xml version="1.0" encoding="utf-8"?>
<!-- Generator: Adobe Illustrator 23.0.2, SVG Export Plug-In . SVG Version: 6.00 Build 0)  -->
<svg version="1.1" id="Layer_1" xmlns="http://www.w3.org/2000/svg" xmlns:xlink="http://www.w3.org/1999/xlink" x="0px" y="0px"
	 viewBox="0 0 1077.9 830.3" style="enable-background:new 0 0 1077.9 830.3;" xml:space="preserve">
<style type="text/css">
	.st0{fill:#F4F5F7;}
	.st1{fill:#E4E8EC;}
	.st2{fill:#FFFFFF;}
	.st3{fill:#5D62F5;}
	.st4{fill:#F8BF24;}
	.st5{fill:#AAB4C4;}
	.st6{fill:#4954DB;}
	.st7{fill:#EAAC0F;}
	.st8{fill:#A0CAF3;}
	.st9{fill:#70AEF5;}
	.st10{fill:#D0D8E2;}
	.st11{fill:#2F44AD;}
	.st12{fill:#F9D375;}
	.st13{opacity:0.6;fill:#3277BC;enable-background:new    ;}
	.st14{opacity:0.6;}
	.st15{fill:url(#SVGID_1_);}
	.st16{fill:url(#SVGID_2_);}
	.st17{fill:#F3F3F3;}
	.st18{fill:#E2E2E2;}
	.st19{fill:url(#SVGID_3_);fill-opacity:0.2;}
	.st20{opacity:5.000000e-02;enable-background:new    ;}
	.st21{fill:#CD151E;}
	.st22{fill:#FA5153;}
	.st23{fill:#ACACAC;}
	.st24{fill:#EEEEEE;}
	.st25{fill:#EF3F36;}
	.st26{fill:#FCD900;}
	.st27{fill:#61BC5B;}
	.st28{fill:#5AB055;}
	.st29{fill:url(#SVGID_4_);}
	.st30{fill:#EACA05;}
	.st31{fill:#DF3A32;}
</style>
<title>mobile browsers</title>
<circle class="st0" cx="550.8" cy="413.5" r="386.5"/>
<g>
	<path class="st1" d="M960.6,248H794.7c-11,0-20-8.9-20-20V101.3c0-11,8.9-20,20-20h165.9c11,0,20,8.9,20,20v126.8
		C980.5,239.1,971.6,248,960.6,248z"/>
	<path class="st2" d="M957.8,233.1H797.4c-4.2,0-7.7-3.5-7.7-7.7v-78c0-4.2,3.5-7.7,7.7-7.7h160.4c4.2,0,7.7,3.5,7.7,7.7v78
		C965.5,229.6,962,233.1,957.8,233.1z"/>
	<rect x="774.7" y="81.3" class="st3" width="205.8" height="46.2"/>
	<g>
		<path class="st2" d="M798.3,106c0,2.1-1.7,3.8-3.8,3.8s-3.8-1.7-3.8-3.8s1.7-3.8,3.8-3.8S798.3,103.9,798.3,106z"/>
		<path class="st2" d="M812.4,106c0,2.1-1.7,3.8-3.8,3.8s-3.8-1.7-3.8-3.8s1.7-3.8,3.8-3.8S812.4,103.9,812.4,106z"/>
		<path class="st2" d="M826.5,106c0,2.1-1.7,3.8-3.8,3.8c-2.1,0-3.8-1.7-3.8-3.8s1.7-3.8,3.8-3.8C824.8,102.2,826.5,103.9,826.5,106
			z"/>
	</g>
	<g>
		
			<ellipse transform="matrix(0.2298 -0.9732 0.9732 0.2298 494.5393 997.7223)" class="st4" cx="877.6" cy="186.4" rx="27.2" ry="27.2"/>
		<polygon class="st2" points="892.8,186.4 869.1,172.7 869.1,200.1 		"/>
	</g>
</g>
<g>
	<path class="st1" d="M464.2,542.9H298.4c-11,0-20-8.9-20-20V396.1c0-11,8.9-20,20-20h165.9c11,0,20,8.9,20,20v126.8
		C484.2,534,475.3,542.9,464.2,542.9z"/>
	<path class="st2" d="M461.5,527.9H301.1c-4.2,0-7.7-3.5-7.7-7.7v-78c0-4.2,3.5-7.7,7.7-7.7h160.4c4.2,0,7.7,3.5,7.7,7.7v78
		C469.2,524.5,465.7,527.9,461.5,527.9z"/>
	<rect x="278.4" y="376.2" class="st3" width="205.8" height="46.2"/>
	<g>
		<path class="st2" d="M302,400.9c0,2.1-1.7,3.8-3.8,3.8s-3.8-1.7-3.8-3.8s1.7-3.8,3.8-3.8S302,398.8,302,400.9z"/>
		<path class="st2" d="M316.1,400.9c0,2.1-1.7,3.8-3.8,3.8c-2.1,0-3.8-1.7-3.8-3.8s1.7-3.8,3.8-3.8
			C314.4,397,316.1,398.8,316.1,400.9z"/>
		<path class="st2" d="M330.2,400.9c0,2.1-1.7,3.8-3.8,3.8c-2.1,0-3.8-1.7-3.8-3.8s1.7-3.8,3.8-3.8
			C328.4,397,330.2,398.8,330.2,400.9z"/>
	</g>
	<g>
		
			<ellipse transform="matrix(0.2298 -0.9732 0.9732 0.2298 -174.7199 741.8081)" class="st4" cx="381.3" cy="481.3" rx="27.2" ry="27.2"/>
		<polygon class="st2" points="396.5,481.3 372.8,467.6 372.8,495 		"/>
	</g>
</g>
<g>
	<path class="st1" d="M681.6,246.3h-164c-10.9,0-19.7-8.8-19.7-19.7V101.2c0-10.9,8.8-19.7,19.7-19.7h164c10.9,0,19.7,8.8,19.7,19.7
		v125.4C701.3,237.5,692.5,246.3,681.6,246.3z"/>
	<rect x="497.8" y="81.4" class="st3" width="203.5" height="45.7"/>
	<g>
		<path class="st2" d="M521.2,105.9c0,2.1-1.7,3.8-3.8,3.8c-2.1,0-3.8-1.7-3.8-3.8s1.7-3.8,3.8-3.8
			C519.5,102.1,521.2,103.8,521.2,105.9z"/>
		<path class="st2" d="M535.1,105.9c0,2.1-1.7,3.8-3.8,3.8c-2.1,0-3.8-1.7-3.8-3.8s1.7-3.8,3.8-3.8
			C533.4,102.1,535.1,103.8,535.1,105.9z"/>
		<path class="st2" d="M549,105.9c0,2.1-1.7,3.8-3.8,3.8c-2.1,0-3.8-1.7-3.8-3.8s1.7-3.8,3.8-3.8C547.3,102.1,549,103.8,549,105.9z"
			/>
	</g>
	
		<ellipse transform="matrix(0.1602 -0.9871 0.9871 0.1602 294.9948 653.0461)" class="st4" cx="531.3" cy="153.2" rx="16.1" ry="16.1"/>
	<g>
		<rect x="568.6" y="141.1" class="st5" width="109.3" height="3.5"/>
		<rect x="568.6" y="151.1" class="st5" width="109.3" height="3.5"/>
		<rect x="568.6" y="161.2" class="st5" width="109.3" height="3.5"/>
	</g>
	<path class="st5" d="M528.9,231.2c0-3.5-2.8-6.3-6.3-6.3c-3.5,0-6.3,2.8-6.3,6.3s2.8,6.3,6.3,6.3c1.5,0,2.9-0.5,4-1.4
		c1.2,1.2,2.3,3.6,2.3,3.6V231.2z"/>
	<path class="st4" d="M551.2,226.6c-4.2-1.1-5.7,2.7-5.7,2.7s-1.5-3.8-5.7-2.7c-4.2,1.1-4.2,8.4,5.7,12
		C555.4,235,555.4,227.6,551.2,226.6z"/>
	<path class="st4" d="M604.9,183.8h-30c-3.5,0-6.3-2.8-6.3-6.3v0c0-3.5,2.8-6.3,6.3-6.3h30c3.5,0,6.3,2.8,6.3,6.3v0
		C611.1,181,608.3,183.8,604.9,183.8z"/>
</g>
<g>
	<path class="st1" d="M276.2,679.6h-164c-10.9,0-19.7-8.8-19.7-19.7V534.5c0-10.9,8.8-19.7,19.7-19.7h164c10.9,0,19.7,8.8,19.7,19.7
		v125.4C296,670.8,287.1,679.6,276.2,679.6z"/>
	<rect x="92.4" y="514.7" class="st3" width="203.5" height="45.7"/>
	<g>
		<path class="st2" d="M115.8,539.2c0,2.1-1.7,3.8-3.8,3.8c-2.1,0-3.8-1.7-3.8-3.8c0-2.1,1.7-3.8,3.8-3.8
			C114.1,535.4,115.8,537.1,115.8,539.2z"/>
		<circle class="st2" cx="125.9" cy="539.2" r="3.8"/>
		<circle class="st2" cx="139.8" cy="539.2" r="3.8"/>
	</g>
	<rect x="115.8" y="578" class="st2" width="150.2" height="82.9"/>
	<path class="st4" d="M115.8,638.9c0,0,13.8-21,26.2-21.6c27.7-1.4,29.1,29.8,52.1,21.6c16.6-5.9,28.5-44.5,45.3-45.8
		c16.7-1.3,26.6,26.3,26.6,26.3v41.4H115.8V638.9z"/>
	
		<ellipse transform="matrix(0.2298 -0.9732 0.9732 0.2298 -456.1037 631.8862)" class="st4" cx="171.2" cy="604.1" rx="13.4" ry="13.4"/>
	<g>
		<path class="st1" d="M295.2,665.4c0.5-1.7,0.8-3.6,0.8-5.5v-99.4h-0.2L295.2,665.4z"/>
		<path class="st3" d="M295.9,532.6c0.1,0.6,0.1,1.2,0.1,1.8v-19.7L295.9,532.6z"/>
		<path class="st3" d="M295.7,560.5h0.2v-26c0-0.6,0-1.2-0.1-1.8L295.7,560.5z"/>
		<path class="st6" d="M295.2,665.4L295.2,665.4C295.2,665.4,295.2,665.4,295.2,665.4C295.2,665.4,295.2,665.4,295.2,665.4z"/>
		<path class="st5" d="M243,560.5c-7.4,6.7-14,12.9-18.5,17.6h41.6v41.4v37.2c15.5,7.1,29,8.8,29.1,8.8c0,0,0,0,0,0l0.5-104.9H243z"
			/>
		<path class="st6" d="M289.6,520c-10.1,8.5-30.4,25.7-46.7,40.4h52.7l0.1-27.8l0.1-17.9C296,514.7,293.6,516.7,289.6,520z"/>
		<path class="st1" d="M216.7,614.3c7.2-10.6,14.3-20.6,22.7-21.2c16.7-1.3,26.6,26.3,26.6,26.3V578h-41.6c-2.2,2.3-3.8,4.1-4.8,5.5
			C211.9,594.4,212.4,605.2,216.7,614.3z"/>
		<path class="st7" d="M239.5,593.1c-8.4,0.6-15.6,10.6-22.7,21.2c0.8,1.8,1.8,3.5,2.9,5.1c3.8,5.7,15.3,13.7,15.3,13.7
			c9,11.2,20.5,18.6,31.1,23.5v-37.2C266.1,619.5,256.2,591.9,239.5,593.1z"/>
	</g>
</g>
<g>
	<path class="st8" d="M695.7,297.2c0,0-63.9,73.2-58.7,98.8c3.8,18.5,44.3,49.1,100.5,60.9l8.4-19c0,0-51-33.8-60.6-45.6
		c29.8-29,53-63.9,53-63.9s33.6-6.7,30.6-41.1C769,287.4,709.3,291.2,695.7,297.2z"/>
	<path class="st9" d="M726.4,454.3c3.7,1,7.4,1.9,11.2,2.7l8.4-19c0,0-16.1-10.7-31.9-22.1C719.9,428.1,723.9,442.8,726.4,454.3z
		 M695.7,297.2c0,0-63.9,73.2-58.7,98.8c1,5,4.7,10.8,10.6,16.9c0,0,4.5-15.2,37.7-20.5c29.8-29,53-63.9,53-63.9s33.6-6.7,30.6-41.1
		C769,287.4,709.3,291.2,695.7,297.2z"/>
	<g>
		<path class="st3" d="M779.4,576.6c0,0-3.9,22.1,1.6,26.3s23.4,4.7,27.5-2.8c4.1-7.5-3.5-37-1-44.4c2.5-7.4-2.3-20.2-12.1-25.2
			C785.5,525.5,779.4,576.6,779.4,576.6z"/>
		<path class="st8" d="M777.4,546.7c0,0-1.1,23.9,3.8,35.1c0,0,11.6,5.5,16.9-5c5.3-10.5-0.9-40.6-0.9-40.6L777.4,546.7z"/>
		<path class="st3" d="M777.7,564.4c0,0,13.6-5.5,25.6,1.4l-3.7-12.7c0,0-10.1-7-22.3,1.2C777.3,554.3,774.2,561.1,777.7,564.4z"/>
	</g>
	<g>
		<path class="st3" d="M778.8,479.9c0,0,10.9,19.6,17.8,19.5c6.8-0.2,21.1-11.1,19.6-19.5c-1.5-8.4-26-26.5-28.7-33.9
			c-2.7-7.4-14.5-14.3-25.2-12C751.4,436.3,778.8,479.9,778.8,479.9z"/>
		<path class="st8" d="M758.4,458c0,0,14.2,19.3,25,24.9c0,0,12.5-3,10-14.5c-2.5-11.5-26.3-31-26.3-31L758.4,458z"/>
		<path class="st3" d="M769.8,471.5c0,0,7.1-12.8,20.8-15l-10.9-7.5c0,0-12.3,0.9-16.6,15C763.1,463.9,765,471.1,769.8,471.5z"/>
	</g>
	<path class="st8" d="M719.8,300.3c0,0,1.7,19,5.3,25.8c0,0-10.8,71.6-3.4,96.5c4.4,14.8,55.6,124.1,55.6,124.1
		c15.4,4.1,19.7-10.5,19.7-10.5s-25.5-94.7-30.7-116.8c-5.3-22.1,7.2-69.7,20.4-83.9c13.1-14.1,10-39.2-3.1-62L719.8,300.3z"/>
	<path class="st3" d="M695.7,297.2c0,0-15.3,18.6-45.6,45.1c-31.9,27.9-32.5,54.4-6.7,65.7c0,0,15.6-23,42-15.6
		c26.4,7.3,42.4,35.1,80.9,27c38.5-8.1,4.7-27.7,21.8-57.5c17.1-29.8,24.7-57.2-4.5-88.4L695.7,297.2z"/>
	<g>
		<path class="st3" d="M722.1,140.8c0,0,12.2-8,32.4-6.7c20.2,1.3,28.8,29.8,28.8,29.8s-16-2.8-15.8,21.8
			c0.2,24.6,19.4,82.8,19.4,82.8c-5.1,21.3-58.5,39.2-91.5,28.5c0,0-4.8-37.2-13.6-83.7c-4.9-25.8-25.3-16.6-25.3-16.6
			s-2.3-40.6,29.8-48.6C708,142.7,722.1,140.8,722.1,140.8z"/>
		<path class="st6" d="M787.1,268.3c0,0-19.5-58.2-19.8-82.7C767,161,783,163.7,783,163.7c-5.6-3.3-26.4-6-29.5-2.5
			s-1.5,8.1-1.5,8.1c-4.5,8.5,1.1,55.6-0.6,57.9c-1.7,2.3-15.7,8.7-15.7,8.7l-21.6,42l54.3-21.4c0,0,6.8,22.7-15.9,31.6
			c-30,11.7-56.7,9.1-56.7,9.1C728.8,307.8,782.2,289.6,787.1,268.3z"/>
		<path class="st8" d="M752.5,167.2c-4.5,16.3,4.6,67.3,4.6,67.3l-71.3,40.4c0,0,0.6,1.1,1.8,2.4l-11.8,3.6c0,0,7,10.1,17.9,8
			c11-2.1,16.3-9.2,16.3-9.2c16.6-6.7,47.7-22.4,60.3-28.9c3.5-1.8,5.9-5.1,6.6-8.9c2.9-16.1,10.9-55.2,5.9-78.1
			C783,163.7,755.5,156.4,752.5,167.2z"/>
		<path class="st9" d="M685.9,274.9c0,0,0.6,1.1,1.8,2.4l-11.8,3.6c0,0,0.6,0.9,1.8,2.2c9.3-2.6,37-10.3,45.1-13.6
			c9.7-4,38.6-24.9,39.6-29.5c1-4.5-3.3-11-3.3-11l-2.7,0.8c0.5,3,0.8,4.7,0.8,4.7L685.9,274.9z"/>
		<path class="st9" d="M752.5,167.2c-0.2,0.7-0.3,1.4-0.5,2.1c0,0,5.7-7.4,31-5.6C783,163.7,755.5,156.4,752.5,167.2z"/>
		<path class="st6" d="M695.5,146.6l-3.6,7.6c0,0,1.8,7.8,9.7,12.9c7.9,5.1,23.7-4.4,28.4-23.5c0,0-4.9-4.4-6.6-3.5L695.5,146.6z"/>
	</g>
	<g>
		<polygon class="st1" points="759,229.1 716.4,241.7 722.7,257.7 		"/>
		<path class="st10" d="M722.7,257.7l-117.4,34.5l-26.4-67.6c-1.5-4,0.6-8.4,4.7-9.6L687,184.6c3.6-1.1,7.4,0.8,8.8,4.3L722.7,257.7
			z"/>
		<path class="st1" d="M719.4,258.7l-117.4,34.5l-26.4-67.6c-1.5-4,0.6-8.4,4.7-9.6l103.4-30.4c3.6-1.1,7.4,0.8,8.8,4.3L719.4,258.7
			z"/>
		<path class="st1" d="M721.9,257.9l-121.7,35.7c1.3,4.5,6.1,7.1,10.6,5.8l105.2-30.9c0,0,8.2-2.4,14.9-7.7L721.9,257.9z"/>
		<path class="st2" d="M606.6,293.7L725,258.9l-3.1-1l-121.7,35.7c1.3,4.5,6.1,7.1,10.6,5.8l0.8-0.2
			C609.3,298.3,607.4,296.3,606.6,293.7z"/>
		<path class="st10" d="M721.9,257.9c1.2,3.9,5.9,5.4,9.1,2.9l23.4-18.6c4.2-2.9,6-8.2,4.6-13.1l0,0L721.9,257.9L721.9,257.9z"/>
		<path class="st10" d="M596.5,279.2c0,0,24.3,2.9,57.7-7c33.4-9.8,60.4-25.6,60.4-25.6l4.7,12.1l-117.4,34.5L596.5,279.2z"/>
		
			<ellipse transform="matrix(0.9859 -0.167 0.167 0.9859 -30.8307 111.064)" class="st10" cx="644.8" cy="238.8" rx="13.4" ry="13.4"/>
		<g>
			<polygon class="st10" points="721.1,253.7 720.8,253.2 743.4,237.2 717.3,244.8 717.2,244.3 746.5,235.7 			"/>
			
				<rect x="717.9" y="244.2" transform="matrix(0.8335 -0.5525 0.5525 0.8335 -14.1862 441.8416)" class="st10" width="16.2" height="0.6"/>
			
				<rect x="718.4" y="244.3" transform="matrix(0.9594 -0.2819 0.2819 0.9594 -39.4098 215.1595)" class="st10" width="19.3" height="0.6"/>
		</g>
		<path class="st2" d="M584.2,229.8c-1.5-4,0.6-8.4,4.7-9.6l103.4-30.4c0,0,0.1,0,0.1,0c-1.4-3.4-5.2-5.2-8.7-4.2L580.3,216
			c-4.1,1.2-6.3,5.6-4.7,9.6l26.4,67.6l6.3-1.9L584.2,229.8z"/>
	</g>
	<g>
		<path class="st8" d="M691.3,130.2c0,0,6.9,6.9,3.7,22.3c0,0,4.2,12.6,13.7,12.2c10.5-0.5,21.7-19,17.1-22.6
			c-3.1-2.4-10.3-11.8-13.6-29.1C712.2,112.9,693.4,121.8,691.3,130.2z"/>
		<path class="st9" d="M716.2,125.1c-1.4-2.9-2.7-6.3-3.6-10.2c-0.6-0.5-1.2-1-1.8-1.4c-2.9,1.5-9.8,5.3-14.7,9.7
			c-1,2.8-2.3,6.5-2.8,10c1,1.9,2,4.7,2.4,8.5l0,0c0,0,3,3.9,7,2.7C706.6,143.3,715,134,716.2,125.1z"/>
		<path class="st11" d="M652,92.6c0,0,7.6,16.2,5.8,23.4c-2.9,11.8,1.2,24.3,10.8,30.5c0,0-0.7-8.6,4.4-11.2
			c5.1-2.6,7.5-9.2,7.1-11.6C679.8,121.5,663.5,87.7,652,92.6z"/>
		<path class="st8" d="M659.8,101.6c7.9,15.6,1,20.1,23.3,37c4.6,3.5,15.2-0.1,17.3-2.9c10.8-14.3,19.7-30.7,15.8-49.5
			C710.8,60,697,43.3,673.4,53.1C650.5,62.6,655,92,659.8,101.6z"/>
		<path class="st9" d="M657.8,96.2c0,0,17.2-10.3,42.1-8.2c0,0,9.9,12.4,10.9,31.4c0,0,3.3-13.8-1.3-24.4c-4.5-10.6-11.2-16-11.2-16
			l-41.6,12.2C656.6,91.2,657.1,94,657.8,96.2z"/>
		<path class="st11" d="M649.1,99.4c18.8-17,50.4-14.6,50.4-14.6c5.2,2.6,10.7,21.1,10.6,24.3c-0.1,9.9,1.5,20.6,8,26
			c0,0,0.1-10.7,9.4-16.6c6.7-4.3,14.6-15.2,7.8-22.9c-6.8-7.6-13.3-12.9-14.8-22.6c-1.5-9.7-9.1-39-43.1-26.2
			c0,0-13.2-4.2-25.9,8.3C630.3,75.9,649.1,99.4,649.1,99.4z"/>
	</g>
	<path class="st6" d="M663,348.3c0,0,24.2-6.3,51.1,6.2c0,0,13.4-29.1,28.8-39.2c15.4-10,4.7-19.3,4.7-19.3l-40.3,3.7
		c0,0,32.2,0.9,28.9,9.7C733,318.2,686,344.2,663,348.3z"/>
	<path class="st6" d="M791.8,340.6c-5.1,11.2-13.3,3.9-13.3,3.9c-5.2,19.9,5.5,47.2,5.5,47.2c-1.5-8.4-2.4-18.3,4.1-29.8
		c17.1-29.8,24.7-57.2-4.5-88.4C796.1,291.9,796.9,329.4,791.8,340.6z"/>
	<path class="st6" d="M788.1,361.9c14.8-25.9,25.6-44.8,8.2-71.2h-21.6c-3,113.2-15,129.7-15,129.7h0c2.1-0.2,4.4-0.6,6.7-1.1
		C804.9,411.3,771,391.7,788.1,361.9z"/>
	<path class="st2" d="M677.9,127.5c0,0,11.8-0.2,18.3-4.3C696.2,123.3,690.5,137.9,677.9,127.5z"/>
</g>
<g>
	<path class="st1" d="M960.6,457.5H794.7c-11,0-20-8.9-20-20V310.7c0-11,8.9-20,20-20h165.9c11,0,20,8.9,20,20v126.8
		C980.5,448.5,971.6,457.5,960.6,457.5z"/>
	<rect x="774.7" y="290.7" class="st3" width="205.8" height="46.2"/>
	<g>
		<path class="st2" d="M798.3,315.5c0,2.1-1.7,3.8-3.8,3.8s-3.8-1.7-3.8-3.8c0-2.1,1.7-3.8,3.8-3.8S798.3,313.3,798.3,315.5z"/>
		<path class="st2" d="M812.4,315.5c0,2.1-1.7,3.8-3.8,3.8s-3.8-1.7-3.8-3.8c0-2.1,1.7-3.8,3.8-3.8S812.4,313.3,812.4,315.5z"/>
		<path class="st2" d="M826.5,315.5c0,2.1-1.7,3.8-3.8,3.8c-2.1,0-3.8-1.7-3.8-3.8c0-2.1,1.7-3.8,3.8-3.8
			C824.8,311.6,826.5,313.3,826.5,315.5z"/>
	</g>
	<rect x="838" y="343.5" class="st5" width="1.3" height="100.4"/>
	<rect x="782" y="343.5" class="st5" width="14.9" height="14.9"/>
	<rect x="804.7" y="343.5" class="st5" width="25.8" height="3.4"/>
	<rect x="782" y="367.7" class="st5" width="14.9" height="14.9"/>
	<rect x="804.7" y="367.7" class="st5" width="25.8" height="3.4"/>
	<rect x="782" y="392" class="st5" width="14.9" height="14.9"/>
	<rect x="804.7" y="392" class="st5" width="25.8" height="3.4"/>
	<g>
		<rect x="864" y="346" class="st2" width="17.9" height="8.9"/>
		<path class="st4" d="M864.8,346.5L864.8,346.5c0-1.2-1-2.2-2.2-2.2h-7.8v33.2H882v-26.1c0-1.5-1.2-2.7-2.7-2.7H867
			C865.8,348.7,864.8,347.8,864.8,346.5z"/>
		<rect x="859.9" y="353.5" class="st2" width="17.5" height="4.9"/>
		<rect x="859.9" y="360.1" class="st2" width="17.5" height="1.3"/>
		<rect x="859.9" y="362.6" class="st2" width="17.5" height="1.3"/>
		<rect x="858.8" y="381.3" class="st5" width="19.2" height="2"/>
	</g>
	<g>
		<rect x="905.2" y="346" class="st2" width="17.9" height="8.9"/>
		<path class="st4" d="M906,346.5L906,346.5c0-1.2-1-2.2-2.2-2.2H896v33.2h27.3v-26.1c0-1.5-1.2-2.7-2.7-2.7h-12.3
			C907,348.7,906,347.8,906,346.5z"/>
		<rect x="901.1" y="353.5" class="st2" width="17.5" height="4.9"/>
		<rect x="901.1" y="360.1" class="st2" width="17.5" height="1.3"/>
		<rect x="901.1" y="362.6" class="st2" width="17.5" height="1.3"/>
		<rect x="900" y="381.3" class="st5" width="19.2" height="2"/>
	</g>
	<g>
		<rect x="946.5" y="346" class="st2" width="17.9" height="8.9"/>
		<path class="st4" d="M947.3,346.5L947.3,346.5c0-1.2-1-2.2-2.2-2.2h-7.8v33.2h27.3v-26.1c0-1.5-1.2-2.7-2.7-2.7h-12.3
			C948.2,348.7,947.3,347.8,947.3,346.5z"/>
		<rect x="942.3" y="353.5" class="st2" width="17.5" height="4.9"/>
		<rect x="942.3" y="360.1" class="st2" width="17.5" height="1.3"/>
		<rect x="942.3" y="362.6" class="st2" width="17.5" height="1.3"/>
		<rect x="941.3" y="381.3" class="st5" width="19.2" height="2"/>
	</g>
	<g>
		<rect x="864" y="399.4" class="st2" width="17.9" height="8.9"/>
		<path class="st4" d="M864.8,399.9L864.8,399.9c0-1.2-1-2.2-2.2-2.2h-7.8v33.2H882v-26.1c0-1.5-1.2-2.7-2.7-2.7H867
			C865.8,402.1,864.8,401.1,864.8,399.9z"/>
		<rect x="859.9" y="406.9" class="st2" width="17.5" height="4.9"/>
		<rect x="859.9" y="413.4" class="st2" width="17.5" height="1.3"/>
		<rect x="859.9" y="416" class="st2" width="17.5" height="1.3"/>
		<rect x="858.8" y="434.7" class="st5" width="19.2" height="2"/>
	</g>
	<g>
		<rect x="905.2" y="399.4" class="st2" width="17.9" height="8.9"/>
		<path class="st4" d="M906,399.9L906,399.9c0-1.2-1-2.2-2.2-2.2H896v33.2h27.3v-26.1c0-1.5-1.2-2.7-2.7-2.7h-12.3
			C907,402.1,906,401.1,906,399.9z"/>
		<rect x="901.1" y="406.9" class="st2" width="17.5" height="4.9"/>
		<rect x="901.1" y="413.4" class="st2" width="17.5" height="1.3"/>
		<rect x="901.1" y="416" class="st2" width="17.5" height="1.3"/>
		<rect x="900" y="434.7" class="st5" width="19.2" height="2"/>
	</g>
</g>
<g>
	<path class="st9" d="M283.9,459.8l24.3,13.8l-5.7-63.4l12.4-2.7c0,0,21,65.8,16.9,89.7c-4,23.9-56.2-10.6-56.2-10.6L283.9,459.8z"
		/>
	<path class="st3" d="M235.2,435.2c0,0,19-2.6,32.7,5.9c13.7,8.5,26.4,22.8,26.4,22.8s-12.4,11.6-21.3,12.7
		C263.9,477.7,235.2,435.2,235.2,435.2z"/>
	<path class="st11" d="M334.1,562.9c0,0,86.6,33.4,106.1,46.4c19.5,13,112.4,103.1,112.4,103.1l-17.1,17.3c0,0-77.9-47.6-106.4-74.2
		c0,0-66-33-110.2-17.9C319,637.6,310.5,573.5,334.1,562.9z"/>
	<path class="st6" d="M464.3,678.1c-20.5-13.2-40.2-42.6-40.2-42.6l-2.5,12.7c-12.2-2.7-92.4-27.2-92.4-27.2l-11.3,4.8
		c0.4,7.1,1.1,11.8,1.1,11.8c44.2-15.1,110.2,17.9,110.2,17.9c28.5,26.6,106.4,74.2,106.4,74.2S484.8,691.4,464.3,678.1z"/>
	<g>
		<path class="st11" d="M244.6,604.8c0,0,1.1,19.4,6.7,29.7c5.5,10.4,13.8,23.6,46.5,18.9l-9.8-70.6L244.6,604.8z"/>
		<path class="st3" d="M199,446c0,0-21.2,8.3-28.4,30c-9.6,29,11,31.8,29.3,51.9c18.3,20.1,41.3,75.2,41.3,75.2
			c13.8,9.2,47.2-1.7,71.4-19.1c2.5-1.8-3.5-16.5-3.5-16.5s10.8,10.7,13,8.5c5.1-5.1,11.6-9.8,14.8-18.6c0,0-22.4-16.5-51.9-78.1
			c-12.5-26.2-25.3-48.9-61.4-43.8C198.9,438.9,199,446,199,446z"/>
		<path class="st6" d="M298.8,505.9c0,0,6.8,28.8-0.7,37.2c-7.5,8.4-28.6,35-37.4,38.1c-8.8,3.1-50.9-43.6-58.1-57.5
			c-4.2-8-18.8-16.3-30.4-21.9c5.8,8.5,17.2,14.3,27.8,26c18.3,20.1,41.3,75.2,41.3,75.2c13.8,9.2,47.2-1.7,71.4-19.1
			c2.5-1.8-3.5-16.5-3.5-16.5s10.8,10.7,13,8.5c3.9-3.9,8.6-7.6,12.1-13.1l2.7-5.6C336.8,557.3,321.2,545.7,298.8,505.9z"/>
		<path class="st6" d="M196.9,484.5c0,0,34.7,4,41.3,4.7s10-30.4,10-30.4l5.9,41.7l-38.9-1.5L196.9,484.5z"/>
		<path class="st6" d="M223.5,435.4l8.6,3.4c0,0,4.4,7.7,1.8,17.8c-2.6,10-22.5,14.3-40.7,2.2c0,0,0.7-7.2,2.7-7.8L223.5,435.4z"/>
		<g>
			<path class="st11" d="M219.9,366.6c0,0,6.7,17.3,5.8,24.3c0,0-12.8-15.4-12.2-20.8C214,364.8,219.9,366.6,219.9,366.6z"/>
			<path class="st8" d="M217.9,419.6c0,0,6.5,12.4,14.8,20.1c0,0,1.7,13.5-6.3,20.2c-8.9,7.5-32,0.9-30.9-5.5
				c0.7-4.2-0.6-17.3-10.9-33.9C184.6,420.5,209.9,414.3,217.9,419.6z"/>
			<path class="st9" d="M224.6,430.3c-4.1-5.7-6.7-10.7-6.7-10.7c-6.6-4.3-24.8-0.9-31.1,0.4l1.5,3.8c0,0,16.8,15.1,26.7,12.7
				C221.3,435,223.6,432.2,224.6,430.3z"/>
			<path class="st8" d="M218.6,371.9c5.3,18.6,14.3,17.1,8.9,47.5c-1.1,6.3-12.4,11.4-16.2,10.7c-19.5-3.5-39.1-10.1-50.1-28.3
				c-15.3-25.3-8.1-32.6,16.2-47C199.4,342,215.3,360.6,218.6,371.9z"/>
			<path class="st9" d="M181,406.5c0,0,3.4-9.7,3.8-14.5c0,0,2.5,7.4,4.9,9.4c0,0,13.3-16.9,11.1-33.9c0,0,8,0.6,12.2,7.8
				c0,0-2.1-5.8-8.8-8.3c0,0,7.8,1.4,13.1,1.5c0,0-9.8-7.6-20-5.8C187.1,364.5,178.1,398.4,181,406.5z"/>
			<path class="st2" d="M206.4,414.6c0,0,10.7-6.9,15.6-6.9c0,0,1,5.6-0.7,7.4c-1.7,1.8-5.8,4.2-7.8,4.2
				C208.2,419.3,206.4,414.6,206.4,414.6z"/>
			<path class="st11" d="M199.4,365.4c0,0,0.7,19-9.8,34.2c0,0-4.5-6.8-4.5-14.2l-4.1,21.1c-9.3-5.5-13.5-3.4-13.5-3.4
				s1.7,14.8,17.1,17.4l3,5.1c0,0-14.8-7.9-24.3-12.1c-5.4-2.4-15.7-13.9-19.2-26.4c-4.3-15.8,7.4-37.2,23.7-37.8
				C179.6,349,191.4,349.9,199.4,365.4z"/>
			<path class="st11" d="M199.4,365.4c0,0,16.5-0.8,26,8.1c0,0-1.2-17.8-9.7-23.3c0,0,5,1.9,8.6,8.6c0,0-0.7-9.7-11.1-13
				c-10.3-3.3-35.5-10.8-45.4,3.6C167.8,349.4,193.4,363.4,199.4,365.4z"/>
		</g>
		<path class="st6" d="M213.8,451.8l12.6,8.2c0,0-3.8,6.2-15.3,3.1L213.8,451.8z"/>
		<path class="st11" d="M213.8,451.8c0,0-2.8,11,0.5,18c0,0-21.4-0.1-26.3-13.9c-5-13.8,4.9-18.3,4.9-18.3S198.3,458.8,213.8,451.8z
			"/>
		<path class="st6" d="M229.2,457.7l2.1-16.4l11.3,5.9C242.6,447.2,231.7,455.9,229.2,457.7z"/>
		<path class="st11" d="M238.8,433.2c-5.3-6.3-15.4-4.5-15.4-4.5c1,2.7,2.4,4.8,3.8,6.5c2.9,4.1,4.1,6.1,4.1,6.1l16.9,8.8
			C248.2,450,244.1,439.5,238.8,433.2z"/>
		<path class="st6" d="M214.5,534.7c0,0,12.4-1.5,10.6-19c-1.8-17.4-4.9-23.4-4.9-23.4S203.1,508.4,214.5,534.7z"/>
		<path class="st11" d="M259.9,614c0,0,42.7-88.2,83.7-101.3c40.9-13.2,59,126.6,64.2,163.1l-26.5,3.8c0,0-30.3-82.2-35.4-111.3
			c0,0-13.6,82.5-53.9,86.4C251.6,658.5,259.9,614,259.9,614z"/>
		<path class="st6" d="M345.1,549.3l-1.1,12.1c-7.2-4.7-12.7-17.6-12.7-17.6c0.8,8.7,10.6,22.2,10.6,22.2s-12.4,40.4-24.1,63.5
			c-11.7,23.1-43.3,23-43.3,23c4.5,1.9,10.1,2.8,17.4,2.1c40.4-3.9,53.9-86.4,53.9-86.4c5.1,29.1,35.4,111.3,35.4,111.3
			C373.7,655.9,345.1,549.3,345.1,549.3z"/>
	</g>
	<g>
		<path class="st7" d="M314.3,459.3l-15.1-0.1c-4.9,0-8.8-4.1-8.8-9l0,0l32.9,0.3l0,0C323.2,455.4,319.2,459.3,314.3,459.3z"/>
		<path class="st4" d="M370.7,302.4c0.3-34.5-27.3-62.7-61.8-63s-62.7,27.3-63,61.8c-0.2,16.9,6.4,34.2,17.2,47.4
			c6,7.4,9.4,16.7,9.3,26.3l0,2.2c-0.1,10.3,8.2,18.8,18.5,18.9l33.2,0.3c10.3,0.1,18.8-8.2,18.9-18.5l0-2.2
			c0.1-9.6,3.6-18.8,9.8-26.1C363.7,336.4,370.6,319.3,370.7,302.4z"/>
		<path class="st7" d="M364.5,274.6c1.2,5,1.9,10.2,1.8,15.6c-0.2,16.9-7.1,34-18.1,47.1c-6.2,7.3-9.7,16.5-9.8,26.1l0,2.2
			c-0.1,10.3-8.6,18.6-18.9,18.5l-33.2-0.3c-5.7-0.1-10.7-2.6-14.1-6.7c-0.1,10.3,8.2,18.7,18.5,18.8l33.2,0.3
			c10.3,0.1,18.8-8.2,18.9-18.5l0-2.2c0.1-9.6,3.6-18.8,9.8-26.1c11-13.1,17.9-30.2,18.1-47.1C370.8,292.4,368.6,283,364.5,274.6z"
			/>
		<path class="st12" d="M324.3,450.5l-35-0.3c-6.7-0.1-12.2-5.6-12.1-12.3l0.5-47.2l59.4,0.6l-0.5,47.2
			C336.6,445.2,331.1,450.6,324.3,450.5z"/>
		<path class="st7" d="M329.7,391.1l-0.5,47.2c-0.1,6.7-5.6,12.2-12.3,12.1l7.5,0.1c6.7,0.1,12.3-5.3,12.3-12.1l0.5-47.2
			L329.7,391.1z"/>
		<g>
			<path class="st4" d="M283.2,448.5l53.3-8.5c0.1-0.5,0.1-1,0.1-1.6l0-1.6l-56.6,9C281,446.9,282,447.8,283.2,448.5z"/>
			<polygon class="st4" points="277.3,432.5 336.8,423 336.8,419.8 277.3,429.3 			"/>
			<path class="st4" d="M277.2,437.8c0,1.1,0.1,2.1,0.4,3l59.1-9.4l0-3.2L277.2,437.8L277.2,437.8z"/>
			<polygon class="st4" points="277.4,424 336.9,414.5 336.9,411.3 277.4,420.8 			"/>
			<polygon class="st4" points="277.4,415.5 337,406 337,402.8 277.5,412.3 			"/>
			<polygon class="st4" points="277.5,405.4 337.1,395.9 337.1,392.8 277.6,402.3 			"/>
		</g>
		<path class="st12" d="M308.8,244.8c0,0,40.6,0.9,50.9,42.2c0,0,0.4,13.2-7.5,11.8C344.4,297.5,349.4,260.6,308.8,244.8z"/>
		<path class="st7" d="M307.4,389.3c-0.4,0-0.9-0.1-1.2-0.4c-0.3-0.2-8.2-6.2-8.2-14.2c0-0.5,0.1-1,0.2-1.5
			c-2.2-1.9-3.6-4.6-3.3-7.7c0.1-1.3,0.5-2.5,1.1-3.5c-2.9-2.3-4.5-5.2-4.4-8.2c0-1.8,0.7-3.3,1.7-4.7c-4.1-2.2-7.2-5.3-7.3-9.1
			c-0.5-11.6,27-13.8,32.6-14.1c1.2-0.1,2.2,0.8,2.2,2c0.1,1.2-0.8,2.2-2,2.2c-11.7,0.7-28.8,4.2-28.6,9.7c0.1,2.3,2.7,4.5,6.4,6.3
			c4.1-2.8,10.1-4.1,14.7-4c5.8,0.1,9.3,2.4,9.2,6.2c0,1.6-1,5.4-9,5.5c-3.8,0-9.4-0.9-14.3-2.8c-0.9,0.9-1.4,1.9-1.4,3
			c-0.1,2.1,1.4,3.8,3.1,5c2.8-1.9,6.6-2.8,10.2-2.6c4.9,0.3,8,2.5,7.9,5.8c0,1.5-0.8,2.8-2.3,3.7c-3.2,1.8-9.9,1-15.2-1.5
			c-0.3,0.5-0.5,1-0.5,1.6c-0.1,1.5,0.4,2.7,1.3,3.6c0.5-0.5,1.1-0.9,1.8-1.2c3.3-1.7,7.9-1.6,10.5,0.2c1.5,1.1,2.2,2.6,2,4.3
			c-0.4,2.9-3.5,4.5-7.9,4c-1.5-0.2-3-0.5-4.5-1.1c0.6,5.3,6.3,9.8,6.4,9.8c0.9,0.7,1.1,2,0.4,3
			C308.7,389.1,308.1,389.3,307.4,389.3z M304.3,371.9c3.2,1.2,5.8,0.7,6.2,0.3c0,0,0-0.1-0.3-0.3
			C309.1,371.1,306.4,371,304.3,371.9z M303.6,361.3c4.8,1.7,8.5,1.3,9.2,0.7c-0.1-0.5-1.5-1.3-3.9-1.5
			C307.3,360.5,305.4,360.7,303.6,361.3z M301.8,348c3.2,1,6.7,1.5,9.7,1.5c3.3,0,4.8-0.8,4.8-1.3c0-1-2.1-1.8-5.1-1.9
			C308.1,346.2,304.6,346.8,301.8,348z"/>
	</g>
	<g>
		<path class="st8" d="M217.3,494.1c0,0,10.3,4,28.9,8.7c0,0,31.4-38.3,31.3-60.1l17.6,0.8c0,0-2.3,23.7-7.5,41.5
			c-5.1,17.5-17.6,42.2-30.3,47.6c-12.7,5.3-53.9-7.5-53.9-7.5S206.1,509.9,217.3,494.1z"/>
		<path class="st8" d="M276.8,449.2c0,0-6.2-20.1-1.3-26.5c4.9-6.4,14.4-16.8,18.1-19.8c3.7-3,3.6,4.2-0.9,8.6c-2.8,2.7-3.4,7-4,9.6
			c0,0,10.6-8.9,13.8-10.9c3.2-2,10.8-6.3,13.3-6c2.5,0.4-7,8.8-7,8.8s8.2-8.9,10-7.4c1.9,1.5-6.5,13.3-8.2,15.4
			c0,0,7.1-5.3,9.6-4.3c2.5,1-11.4,12.3-11.4,12.3s7.6-5.5,8.9-4.6c1.3,0.9-10.4,10.6-11.8,12.1c-1.4,1.5-10.3,10-10.3,10l-1.3,4.3
			L276.8,449.2z"/>
		<path class="st3" d="M220.2,492.3c0,0-6.4,21.3-5.7,42.4c0,0-26.3-7.7-41.2-28.8c-15-21.1,7.4-37.4,7.4-37.4
			S197.4,487.5,220.2,492.3z"/>
		<g>
			<path class="st11" d="M275.4,453.8c0,0,8.4,3.2,18,3.9l-1.5,9.3c0,0-8.1,0.8-19.6-4L275.4,453.8z"/>
			
				<ellipse transform="matrix(9.079500e-03 -1 1 9.079500e-03 -179.9772 738.696)" class="st3" cx="282.7" cy="460.2" rx="7.2" ry="7.2"/>
			<path class="st11" d="M288,460.2c0,3-2.4,5.3-5.3,5.3c-2.9,0-5.3-2.4-5.3-5.4c0-3,2.4-5.3,5.3-5.3
				C285.7,454.8,288.1,457.3,288,460.2z"/>
		</g>
		<polygon class="st9" points="246.3,502.8 246.8,513.3 237.3,500.4 		"/>
	</g>
	<g>
		<path class="st3" d="M535.5,729.7l8.5-8.7c0,0,10.9-31.3,20.9-39.3c10-7.9,16.5-9.3,21.2,4c4.7,13.3-21.9,62.2-28.4,63.1
			C545.9,750.6,535.5,729.7,535.5,729.7z"/>
		<path class="st6" d="M557.8,748.9c0,0-11.6-0.5-14.7-7.9c0,0,10-11.9,13.5-20.3c3.5-8.4,8.6-40.6,18.7-44.7
			c10.2-4.1,13,5.8,11.6,13.9C585.5,697.9,578.7,732,557.8,748.9z"/>
	</g>
	<path class="st3" d="M380.2,675.9l9.2,2.5c0,0-3.1-9.3,3.9-12.8c7-3.5,9.5-1,13.3,1.6c3.8,2.6,6.9,10.9,6.9,10.9
		s33.1,23.4,27.9,35.6c-7.1,16.5-50.5-10.8-57.7-17.9L380.2,675.9z"/>
</g>
<g>
	<path class="st9" d="M856.4,637.2c-0.1-0.1-7.9-4.3-8.1-4.3c-16.5-2.4-18.9-2.7-27.9,7.4c-55.5,61.9-215.4,139.6-215.4,139.6
		c0.6,0.5,71.9,29.1,97.3,36.6c12,3.5,22.3-9.3,16.2-20.3c-0.1-0.2-0.2-0.3-0.3-0.5c-3.9-7-1.1-15.9,6.2-19.4
		c50.6-24.6,96.4-58.9,134.4-101.4C868.8,663.9,868,646.4,856.4,637.2z"/>
	<path class="st8" d="M713.9,793.4c-0.1-0.2-0.2-0.3-0.3-0.5c-3.9-7-1.1-15.9,6.2-19.4c50.6-24.6,96.4-58.9,134.4-101.4
		c9.9-11,8.5-28.1-3.1-37.2c-0.1-0.1-0.3-0.2-0.4-0.3c-10.6-8.4-25.9-7.1-34.9,3c-55.5,61.9-129.5,104.2-210.9,120.6
		c-10.1,2-11.8,15.8-2.5,20.2c33.3,15.9,69.9,27.9,95.3,35.4C709.8,817.2,720.1,804.4,713.9,793.4z"/>
</g>
<g>
	<path class="st9" d="M482.2,69.4l0-1.5c0-0.4,0-0.9,0-1.3l-0.1-7h-3.2c-0.9-0.9-2.1-1.7-3.4-2.2c-34.7-14.7-72.6-25.4-98.8-31.9
		c-7-1.7-13.2,1.8-16.1,7.1l-1.5-2.3l-0.3,8.1c-0.2,2.8,0.4,5.7,2.1,8.4c0.1,0.2,0.2,0.3,0.3,0.5c4.3,7,1.8,16.2-5.4,20.1
		c-50.6,27.3-95.8,64.4-132.7,109.4c-9.6,11.7-7.4,29,4.9,37.9c0.1,0.1,0.3,0.2,0.4,0.3c11.2,8.1,26.7,6.1,35.5-4.6
		c53.9-65.7,127.6-112.1,210-132.4c4.8-1.2,7.6-4.9,8.2-8.9L482.2,69.4z"/>
	<path class="st8" d="M361,40.6c0.1,0.2,0.2,0.3,0.3,0.5c4.3,7,1.8,16.2-5.4,20.1c-50.6,27.3-95.8,64.4-132.7,109.4
		c-9.6,11.7-7.4,29,4.9,37.9c0.1,0.1,0.3,0.2,0.4,0.3c11.2,8.1,26.7,6.1,35.5-4.6c53.9-65.7,127.6-112.1,210-132.4
		c10.2-2.5,11.3-16.6,1.6-20.7c-34.7-14.7-72.6-25.4-98.8-31.9C364.2,16.1,354.3,29.7,361,40.6z"/>
</g>
<g>
	<path class="st13" d="M342.5,758.4h38.2c0-13.6-5.9-22.8-22-22.8c-19.1,0-38.4,12.4-47.6,27.9c2.9-26.9,22.1-48.5,51.1-48.5
		c24.8,0,48.4,19,48.4,50.6v12h-67.8c0,16.3,14.2,22.8,29.2,22.8c18.2,0,29.4-8.2,29.4-8.2v22.9c0,0-12.7,7.7-32.9,7.7
		c-26.3,0-44.9-18.9-44.9-42.3c-0.2-17.3,10.4-32.9,26.5-39.2C342.5,749.6,342.5,758.4,342.5,758.4L342.5,758.4z"/>
</g>
<g class="st14">
	
		<linearGradient id="SVGID_1_" gradientUnits="userSpaceOnUse" x1="140.0187" y1="-85.8672" x2="140.0187" y2="-85.91" gradientTransform="matrix(2421.8799 0 0 2421.8799 -338945.1875 208277.8906)">
		<stop  offset="0.25" style="stop-color:#DBDBDA"/>
		<stop  offset="1" style="stop-color:#FFFFFF"/>
	</linearGradient>
	<circle class="st15" cx="163.4" cy="261.9" r="50.6"/>
	
		<radialGradient id="SVGID_2_" cx="139.9851" cy="-85.9294" r="2.853496e-02" gradientTransform="matrix(2240.23 0 0 2240.23 -313423.375 192755.1875)" gradientUnits="userSpaceOnUse">
		<stop  offset="0" style="stop-color:#2ABCE1"/>
		<stop  offset="0.11" style="stop-color:#2ABBE1"/>
		<stop  offset="1" style="stop-color:#3375F8"/>
	</radialGradient>
	<circle class="st16" cx="163.4" cy="261.9" r="46.8"/>
	<path class="st17" d="M163.5,226.5c-0.3,0-0.6-0.2-0.6-0.6v-8.3c0-0.3,0.3-0.6,0.6-0.6s0.6,0.3,0.6,0.6v8.3
		C164,226.3,163.8,226.5,163.5,226.5L163.5,226.5z"/>
	<path class="st2" d="M163.5,226.6c-0.3,0-0.6-0.3-0.6-0.6v-8.3c0-0.3,0.3-0.6,0.6-0.6c0.3,0,0.6,0.3,0.6,0.6v8.3
		C164.1,226.3,163.8,226.6,163.5,226.6z M163.5,217.2c-0.3,0-0.5,0.2-0.5,0.5v8.3c0,0.3,0.3,0.5,0.5,0.5c0,0,0,0,0,0
		c0.3,0,0.5-0.2,0.6-0.5v-8.3C164,217.4,163.8,217.2,163.5,217.2z"/>
	<path class="st17" d="M167.4,222.1c-0.3,0-0.5-0.3-0.5-0.6l0.3-3.7c0-0.3,0.3-0.5,0.6-0.5c0.3,0,0.6,0.3,0.6,0.6l-0.3,3.7
		C168,221.9,167.8,222.1,167.4,222.1C167.4,222.1,167.4,222.1,167.4,222.1z"/>
	<path class="st2" d="M167.4,222.1c-0.3,0-0.6-0.3-0.6-0.6l0.3-3.7c0-0.3,0.3-0.6,0.7-0.6c0.3,0,0.6,0.3,0.6,0.6l-0.3,3.7
		C168.1,221.9,167.8,222.2,167.4,222.1C167.5,222.2,167.4,222.2,167.4,222.1z M167.8,217.4c-0.3,0-0.5,0.2-0.5,0.5l-0.3,3.7
		c0,0.3,0.2,0.5,0.5,0.6c0.3,0,0.5-0.2,0.5-0.5l0.3-3.7C168.3,217.6,168.1,217.4,167.8,217.4z"/>
	<path class="st17" d="M170.4,227.2c-0.3-0.1-0.5-0.4-0.5-0.7l1.6-8.1c0-0.3,0.3-0.5,0.6-0.5c0,0,0.1,0,0.1,0
		c0.3,0.1,0.5,0.4,0.5,0.7l-1.7,8.1C171,227.1,170.7,227.3,170.4,227.2L170.4,227.2z"/>
	<path class="st2" d="M170.4,227.3c-0.3-0.1-0.6-0.4-0.5-0.7l1.6-8.1c0.1-0.3,0.4-0.5,0.7-0.5c0.3,0.1,0.6,0.4,0.5,0.7l-1.6,8.1
		C171,227.1,170.7,227.3,170.4,227.3z M172.2,218.1c-0.3,0-0.6,0.1-0.6,0.4l-1.6,8.1c0,0.3,0.1,0.6,0.4,0.6c0.3,0,0.6-0.1,0.6-0.4
		l1.6-8.1C172.7,218.4,172.5,218.1,172.2,218.1L172.2,218.1z"/>
	<path class="st17" d="M175.1,223.7c-0.3-0.1-0.5-0.4-0.4-0.7c0,0,0,0,0,0l0,0l1-3.6c0.1-0.3,0.4-0.5,0.7-0.4c0,0,0,0,0,0
		c0.3,0.1,0.5,0.4,0.4,0.7l-1,3.6C175.8,223.6,175.5,223.8,175.1,223.7C175.1,223.7,175.1,223.7,175.1,223.7z"/>
	<path class="st2" d="M175.1,223.7c-0.3-0.1-0.5-0.4-0.4-0.7c0,0,0,0,0,0l1-3.6c0.1-0.3,0.4-0.5,0.7-0.4c0.3,0.1,0.5,0.4,0.4,0.7
		c0,0,0,0,0,0l-1,3.6C175.8,223.6,175.4,223.8,175.1,223.7C175.1,223.7,175.1,223.7,175.1,223.7L175.1,223.7z M176.4,219.1
		c-0.3-0.1-0.6,0.1-0.7,0.4l-1,3.6c-0.1,0.3,0.1,0.5,0.3,0.6c0,0,0,0,0,0c0.3,0.1,0.6-0.1,0.7-0.4l1-3.6
		C176.9,219.4,176.7,219.2,176.4,219.1L176.4,219.1z"/>
	<path class="st17" d="M177.1,229.3c-0.3-0.1-0.4-0.4-0.3-0.7c0,0,0,0,0,0l3.2-7.6c0.1-0.3,0.4-0.4,0.7-0.3c0,0,0,0,0,0
		c0.3,0.1,0.4,0.4,0.3,0.7l-3.2,7.6C177.7,229.2,177.4,229.3,177.1,229.3L177.1,229.3z"/>
	<path class="st2" d="M177.1,229.3c-0.3-0.1-0.5-0.5-0.4-0.8l3.2-7.6c0.1-0.3,0.5-0.5,0.8-0.3c0.3,0.1,0.5,0.5,0.3,0.8l-3.2,7.6
		C177.8,229.3,177.4,229.4,177.1,229.3C177.1,229.3,177.1,229.3,177.1,229.3z M180.6,220.6c-0.3-0.1-0.6,0-0.7,0.3l-3.2,7.6
		c-0.1,0.3,0,0.6,0.3,0.7c0,0,0,0,0,0c0.3,0.1,0.6,0,0.7-0.3c0,0,0,0,0,0l3.2-7.6C181,221,180.9,220.8,180.6,220.6z"/>
	<path class="st17" d="M182.4,226.7c-0.3-0.1-0.4-0.5-0.3-0.7l1.7-3.3c0.2-0.3,0.5-0.4,0.8-0.2c0.3,0.1,0.4,0.5,0.3,0.7l-1.7,3.3
		C183,226.8,182.7,226.9,182.4,226.7C182.4,226.7,182.4,226.7,182.4,226.7z"/>
	<path class="st2" d="M182.4,226.8c-0.3-0.1-0.4-0.5-0.3-0.8c0,0,0,0,0,0l1.7-3.3c0.1-0.3,0.5-0.5,0.8-0.4s0.5,0.5,0.4,0.8
		c0,0,0,0.1-0.1,0.1l-1.7,3.3C183.1,226.8,182.7,226.9,182.4,226.8C182.4,226.8,182.4,226.8,182.4,226.8z M184.6,222.5
		c-0.3-0.1-0.6,0-0.7,0.2c0,0,0,0,0,0l-1.7,3.3c-0.1,0.3,0,0.6,0.2,0.7c0.3,0.1,0.6,0,0.7-0.2c0,0,0,0,0,0l1.7-3.3
		C184.9,222.9,184.9,222.6,184.6,222.5L184.6,222.5z"/>
	<path class="st17" d="M183.2,232.6c-0.3-0.2-0.3-0.5-0.2-0.7c0,0,0,0,0,0l4.6-6.8c0.2-0.3,0.5-0.3,0.8-0.2c0,0,0,0,0,0
		c0.3,0.2,0.3,0.5,0.2,0.7c0,0,0,0,0,0l-4.6,6.8C183.8,232.7,183.5,232.8,183.2,232.6C183.2,232.6,183.2,232.6,183.2,232.6z"/>
	<path class="st2" d="M183.2,232.6c-0.3-0.2-0.3-0.6-0.2-0.9l4.6-6.8c0.2-0.3,0.6-0.4,0.9-0.2c0,0,0,0,0,0c0.3,0.2,0.3,0.6,0.2,0.9
		l-4.6,6.8C183.8,232.7,183.5,232.8,183.2,232.6z M188.4,224.8c-0.2-0.2-0.6-0.1-0.7,0.1l-4.6,6.8c-0.2,0.2-0.1,0.6,0.2,0.7
		c0,0,0,0,0,0c0.2,0.2,0.6,0.1,0.7-0.1l4.6-6.8C188.7,225.4,188.6,225,188.4,224.8L188.4,224.8z"/>
	<path class="st17" d="M189,231.1c-0.2-0.2-0.3-0.5-0.1-0.8l2.3-2.9c0.2-0.2,0.6-0.3,0.8-0.1c0.2,0.2,0.3,0.5,0.1,0.8l-2.3,2.9
		C189.6,231.2,189.2,231.3,189,231.1L189,231.1z"/>
	<path class="st2" d="M188.9,231.2c-0.3-0.2-0.3-0.6-0.1-0.9l2.3-2.9c0.2-0.3,0.6-0.3,0.8-0.1c0,0,0,0,0.1,0
		c0.3,0.2,0.3,0.6,0.1,0.9c0,0,0,0,0,0l-2.3,2.9C189.6,231.4,189.2,231.4,188.9,231.2C189,231.2,188.9,231.2,188.9,231.2z
		 M191.9,227.4c-0.2-0.2-0.5-0.1-0.7,0.1c0,0,0,0,0,0l-2.3,2.9c-0.1,0.2-0.1,0.5,0.1,0.7c0.2,0.2,0.5,0.2,0.7-0.1c0,0,0,0,0,0
		l2.3-2.9C192.2,227.9,192.2,227.5,191.9,227.4L191.9,227.4z"/>
	<path class="st17" d="M188.6,237c-0.2-0.2-0.2-0.5,0-0.8c0,0,0,0,0,0l5.8-5.8c0.2-0.2,0.6-0.2,0.8,0c0.2,0.2,0.2,0.6,0,0.8
		l-5.8,5.8C189.2,237.3,188.8,237.3,188.6,237C188.6,237.1,188.6,237.1,188.6,237z"/>
	<path class="st2" d="M188.5,237.1c-0.2-0.2-0.2-0.6,0-0.9l5.8-5.8c0.2-0.3,0.6-0.3,0.9,0c0.3,0.2,0.3,0.6,0,0.9c0,0,0,0,0,0
		l-5.8,5.8C189.2,237.3,188.8,237.3,188.5,237.1L188.5,237.1z M195.2,230.4c-0.2-0.2-0.5-0.2-0.8,0l-5.8,5.8c-0.2,0.2-0.2,0.5,0,0.8
		c0.2,0.2,0.5,0.2,0.7,0l5.8-5.8C195.4,231,195.4,230.7,195.2,230.4L195.2,230.4z"/>
	<path class="st17" d="M194.5,236.7c-0.2-0.2-0.2-0.6,0-0.8c0,0,0,0,0,0l2.8-2.4c0.3-0.2,0.6-0.1,0.8,0.2c0.2,0.2,0.1,0.5-0.1,0.7
		l-2.8,2.4C195.1,237,194.7,237,194.5,236.7C194.5,236.7,194.5,236.7,194.5,236.7z"/>
	<path class="st2" d="M194.5,236.8c-0.2-0.3-0.2-0.6,0-0.9l2.8-2.4c0.2-0.2,0.6-0.2,0.8,0c0,0,0,0,0,0c0.2,0.2,0.2,0.6,0,0.9
		l-2.9,2.4C195.1,237.1,194.7,237,194.5,236.8C194.5,236.8,194.4,236.8,194.5,236.8L194.5,236.8z M198.1,233.6
		c-0.2-0.2-0.5-0.3-0.7-0.1l-2.8,2.3c-0.2,0.2-0.2,0.6,0,0.8c0.2,0.2,0.5,0.2,0.7,0.1l2.8-2.4C198.3,234.2,198.3,233.9,198.1,233.6
		C198.1,233.6,198.1,233.6,198.1,233.6L198.1,233.6z"/>
	<path class="st17" d="M192.9,242.4c-0.2-0.2-0.1-0.6,0.1-0.8c0,0,0,0,0.1,0l6.9-4.6c0.3-0.2,0.6-0.1,0.8,0.2
		c0.2,0.2,0.1,0.6-0.1,0.8c0,0,0,0-0.1,0l-6.9,4.6C193.4,242.7,193.1,242.7,192.9,242.4z"/>
	<path class="st2" d="M192.9,242.4c-0.2-0.3-0.1-0.7,0.2-0.9l6.9-4.6c0.3-0.2,0.7-0.1,0.9,0.2c0,0,0,0,0,0c0.2,0.3,0.1,0.7-0.2,0.9
		l-6.9,4.6C193.5,242.8,193.1,242.7,192.9,242.4C192.9,242.5,192.9,242.4,192.9,242.4L192.9,242.4z M200.7,237.2
		c-0.2-0.2-0.5-0.3-0.7-0.2l-6.9,4.6c-0.3,0.2-0.3,0.5-0.2,0.8c0.2,0.3,0.5,0.3,0.8,0.2l6.9-4.6
		C200.8,237.8,200.9,237.5,200.7,237.2L200.7,237.2z"/>
	<path class="st17" d="M198.8,243.3c-0.2-0.3-0.1-0.6,0.2-0.8l3.2-1.8c0.3-0.1,0.6,0,0.8,0.2c0.2,0.3,0.1,0.6-0.2,0.8c0,0,0,0,0,0
		l-3.2,1.8C199.3,243.6,199,243.5,198.8,243.3L198.8,243.3z"/>
	<path class="st2" d="M198.8,243.3c-0.2-0.3-0.1-0.7,0.2-0.8l3.2-1.8c0.3-0.1,0.7,0,0.8,0.2c0.2,0.3,0.1,0.7-0.2,0.8l-3.2,1.8
		C199.3,243.7,198.9,243.6,198.8,243.3L198.8,243.3z M203,240.9c-0.1-0.2-0.4-0.3-0.7-0.2c0,0,0,0-0.1,0l-3.2,1.8
		c-0.2,0.2-0.3,0.5-0.2,0.7c0.1,0.2,0.4,0.3,0.7,0.2c0,0,0,0,0,0l3.2-1.8C203,241.5,203.1,241.2,203,240.9L203,240.9z"/>
	<path class="st17" d="M196.2,248.5c-0.1-0.3,0-0.6,0.3-0.7c0,0,0,0,0,0l7.6-3.2c0.3-0.1,0.6,0,0.7,0.3c0.1,0.3,0,0.6-0.3,0.7
		c0,0,0,0,0,0l-7.6,3.2C196.6,249,196.3,248.8,196.2,248.5C196.2,248.5,196.2,248.5,196.2,248.5z"/>
	<path class="st2" d="M196.1,248.5c-0.1-0.3,0-0.7,0.3-0.8l7.6-3.2c0.3-0.1,0.7,0,0.8,0.4c0,0,0,0,0,0c0.1,0.3,0,0.7-0.3,0.8
		l-7.6,3.2C196.6,249,196.2,248.9,196.1,248.5C196.1,248.5,196.1,248.5,196.1,248.5z M204.8,245c-0.1-0.3-0.4-0.4-0.7-0.3l-7.6,3.2
		c-0.3,0.1-0.4,0.4-0.3,0.7c0.1,0.3,0.4,0.4,0.7,0.3l7.6-3.2C204.8,245.6,204.9,245.3,204.8,245C204.8,245,204.8,245,204.8,245
		L204.8,245z"/>
	<path class="st17" d="M201.7,250.5c-0.1-0.3,0-0.6,0.3-0.7c0,0,0,0,0,0l3.5-1.1c0.3-0.1,0.6,0.1,0.7,0.3c0,0,0,0,0,0
		c0.1,0.3,0,0.6-0.3,0.7c0,0,0,0,0,0l-3.5,1.1C202.2,250.9,201.9,250.8,201.7,250.5C201.7,250.5,201.7,250.5,201.7,250.5z"/>
	<path class="st2" d="M201.7,250.5c-0.1-0.3,0-0.7,0.4-0.8c0,0,0,0,0,0l3.5-1.1c0.3-0.1,0.7,0.1,0.8,0.4c0.1,0.3,0,0.7-0.4,0.8
		c0,0,0,0,0,0l-3.5,1.1C202.2,251,201.8,250.8,201.7,250.5z M206.3,249c-0.1-0.3-0.4-0.4-0.7-0.4l-3.5,1.1c-0.3,0.1-0.4,0.4-0.3,0.7
		c0,0,0,0,0,0c0.1,0.3,0.4,0.4,0.7,0.4l3.5-1.1C206.2,249.6,206.4,249.3,206.3,249z"/>
	<path class="st17" d="M198.2,255.2c-0.1-0.3,0.1-0.6,0.4-0.7c0,0,0,0,0.1,0l8.1-1.6c0.3-0.1,0.6,0.2,0.7,0.5c0,0,0,0,0,0
		c0.1,0.3-0.1,0.6-0.4,0.7c0,0,0,0-0.1,0l-8.1,1.6C198.6,255.7,198.2,255.5,198.2,255.2C198.2,255.2,198.2,255.2,198.2,255.2z"/>
	<path class="st2" d="M198.1,255.2c-0.1-0.3,0.1-0.7,0.5-0.7l8.1-1.6c0.3-0.1,0.7,0.2,0.7,0.5c0,0,0,0,0,0c0.1,0.3-0.1,0.7-0.5,0.7
		l-8.1,1.6C198.5,255.8,198.2,255.5,198.1,255.2C198.1,255.2,198.1,255.2,198.1,255.2z M207.3,253.4c0-0.3-0.3-0.5-0.6-0.4l-8.1,1.6
		c-0.3,0.1-0.5,0.3-0.4,0.6c0,0,0,0,0,0c0,0.3,0.3,0.5,0.6,0.4l8.1-1.6C207.2,254,207.4,253.7,207.3,253.4z"/>
	<path class="st17" d="M203.2,258.2c0-0.3,0.2-0.6,0.5-0.6c0,0,0,0,0,0l3.6-0.4c0.3,0,0.6,0.2,0.6,0.5c0,0.3-0.2,0.6-0.5,0.6
		c0,0,0,0,0,0l-3.6,0.4C203.6,258.8,203.3,258.5,203.2,258.2L203.2,258.2z"/>
	<path class="st2" d="M203.2,258.2c-0.1-0.3,0.2-0.7,0.5-0.7c0,0,0,0,0,0l3.6-0.4c0.3,0,0.6,0.2,0.7,0.6c0.1,0.3-0.2,0.7-0.5,0.7
		l-3.6,0.4C203.5,258.8,203.2,258.6,203.2,258.2L203.2,258.2z M208,257.7c0-0.3-0.3-0.5-0.6-0.5l-3.6,0.4c-0.3,0.1-0.5,0.3-0.4,0.6
		c0,0.3,0.3,0.5,0.6,0.5l3.6-0.4C207.8,258.2,208,258,208,257.7z"/>
	<path class="st17" d="M198.8,262.1c0-0.3,0.2-0.6,0.5-0.6c0,0,0,0,0,0h8.3c0.3,0,0.6,0.3,0.6,0.6c0,0.3-0.3,0.6-0.6,0.6h-8.3
		C199,262.6,198.8,262.4,198.8,262.1C198.8,262.1,198.8,262.1,198.8,262.1z"/>
	<path class="st2" d="M198.8,262.1c0-0.3,0.3-0.6,0.6-0.6h8.3c0.4,0,0.6,0.3,0.6,0.6c0,0.4-0.3,0.6-0.6,0.6h-8.3
		C199,262.7,198.8,262.4,198.8,262.1z M208.1,262.1c0-0.3-0.2-0.5-0.5-0.6h-8.3c-0.3,0-0.5,0.3-0.5,0.6c0,0,0,0,0,0
		c0,0.3,0.2,0.5,0.5,0.5h8.3C207.9,262.6,208.1,262.4,208.1,262.1z"/>
	<path class="st17" d="M203.2,266.1c0-0.3,0.3-0.5,0.6-0.5l3.7,0.3c0.3,0,0.5,0.3,0.5,0.6c0,0,0,0,0,0c0,0.3-0.3,0.6-0.6,0.6
		l-3.7-0.3C203.4,266.6,203.2,266.4,203.2,266.1z"/>
	<path class="st2" d="M203.2,266.1c0-0.3,0.3-0.6,0.6-0.6l3.7,0.3c0.3,0,0.6,0.3,0.6,0.7c0,0.3-0.3,0.6-0.6,0.6l-3.7-0.3
		C203.4,266.7,203.2,266.4,203.2,266.1z M208,266.4c0-0.3-0.2-0.5-0.4-0.5c0,0,0,0,0,0l-3.7-0.3c-0.3,0-0.5,0.2-0.5,0.5
		c0,0.3,0.2,0.5,0.4,0.6c0,0,0,0,0,0l3.7,0.3C207.7,266.9,207.9,266.7,208,266.4L208,266.4z"/>
	<path class="st17" d="M198.1,268.9c0.1-0.3,0.4-0.5,0.7-0.5l8.1,1.6c0.3,0.1,0.5,0.3,0.4,0.6c0,0,0,0,0,0c-0.1,0.3-0.4,0.5-0.7,0.5
		l-8.1-1.6C198.2,269.5,198,269.2,198.1,268.9z"/>
	<path class="st2" d="M198.1,268.9c0.1-0.3,0.4-0.6,0.7-0.5l8.1,1.6c0.3,0.1,0.6,0.4,0.5,0.7c-0.1,0.3-0.4,0.6-0.7,0.5l0,0l-8.1-1.6
		C198.2,269.6,198,269.3,198.1,268.9L198.1,268.9z M207.3,270.8c0-0.3-0.1-0.5-0.4-0.6l-8.1-1.6c-0.3,0-0.6,0.2-0.6,0.5
		c0,0.3,0.1,0.5,0.4,0.6l8.1,1.6C206.9,271.3,207.2,271.1,207.3,270.8z"/>
	<path class="st17" d="M201.7,273.7c0.1-0.3,0.4-0.5,0.7-0.4c0,0,0,0,0,0l0,0l3.6,1c0.3,0.1,0.5,0.4,0.4,0.7c0,0,0,0,0,0
		c-0.1,0.3-0.4,0.5-0.7,0.4c0,0,0,0,0,0l0,0l-3.6-1C201.7,274.3,201.6,274,201.7,273.7C201.6,273.7,201.6,273.7,201.7,273.7
		L201.7,273.7z"/>
	<path class="st2" d="M201.6,273.7c0.1-0.3,0.4-0.5,0.7-0.4l3.6,1c0.3,0.1,0.5,0.4,0.4,0.7c-0.1,0.3-0.4,0.5-0.7,0.4l-3.6-1
		C201.7,274.3,201.5,274,201.6,273.7z M206.2,275c0.1-0.3-0.1-0.6-0.4-0.7l-3.6-1c-0.3-0.1-0.5,0.1-0.6,0.4c0,0,0,0,0,0
		c-0.1,0.3,0.1,0.6,0.4,0.7l3.6,1C205.9,275.4,206.1,275.3,206.2,275z"/>
	<path class="st17" d="M196.1,275.6c0.1-0.3,0.4-0.4,0.7-0.3l7.6,3.2c0.3,0.1,0.4,0.5,0.3,0.8c-0.1,0.3-0.4,0.4-0.7,0.3l-7.6-3.2
		C196.1,276.2,196,275.9,196.1,275.6L196.1,275.6z"/>
	<path class="st2" d="M196,275.5c0.1-0.3,0.5-0.5,0.8-0.4c0,0,0,0,0,0l7.6,3.2c0.3,0.1,0.5,0.5,0.3,0.8c-0.1,0.3-0.5,0.5-0.8,0.4
		l-7.6-3.2C196,276.2,195.9,275.9,196,275.5z M204.7,279.1c0.1-0.3,0-0.6-0.3-0.7c0,0,0,0,0,0l-7.6-3.2c-0.3-0.1-0.6,0-0.7,0.3
		c0,0,0,0,0,0c-0.1,0.3,0,0.6,0.3,0.7c0,0,0,0,0,0l7.6,3.2C204.3,279.5,204.6,279.4,204.7,279.1L204.7,279.1z"/>
	<path class="st17" d="M198.6,280.9c0.1-0.3,0.4-0.4,0.7-0.3l3.3,1.7c0.3,0.1,0.4,0.5,0.2,0.8c0,0,0,0,0,0c-0.1,0.3-0.4,0.4-0.7,0.3
		l-3.3-1.7C198.6,281.5,198.5,281.2,198.6,280.9z"/>
	<path class="st2" d="M198.6,280.9c0.1-0.3,0.5-0.4,0.8-0.3c0,0,0,0,0,0l3.3,1.7c0.3,0.2,0.4,0.6,0.2,0.9c-0.2,0.2-0.5,0.4-0.7,0.2
		l-3.3-1.7C198.6,281.6,198.5,281.2,198.6,280.9C198.6,280.9,198.6,280.9,198.6,280.9z M202.9,283c0.1-0.2,0-0.6-0.2-0.7
		c0,0,0,0,0,0l-3.3-1.7c-0.3-0.1-0.6,0-0.7,0.2c-0.1,0.2,0,0.6,0.2,0.7c0,0,0,0,0,0l3.3,1.7C202.4,283.4,202.7,283.3,202.9,283
		C202.9,283,202.9,283,202.9,283z"/>
	<path class="st17" d="M192.8,281.7c0.2-0.3,0.5-0.3,0.7-0.2c0,0,0,0,0,0l6.9,4.6c0.3,0.2,0.3,0.5,0.2,0.8c0,0,0,0,0,0
		c-0.2,0.3-0.5,0.3-0.7,0.2c0,0,0,0,0,0l-6.9-4.6C192.7,282.3,192.7,282,192.8,281.7C192.8,281.7,192.8,281.7,192.8,281.7z"/>
	<path class="st2" d="M192.8,281.6c0.2-0.3,0.6-0.3,0.9-0.2l6.9,4.6c0.3,0.2,0.3,0.6,0.2,0.9c-0.2,0.3-0.6,0.3-0.9,0.2l-6.9-4.6
		C192.7,282.3,192.6,281.9,192.8,281.6C192.8,281.7,192.8,281.6,192.8,281.6z M200.6,286.8c0.2-0.2,0.1-0.6-0.1-0.7l-6.9-4.6
		c-0.2-0.2-0.5-0.1-0.7,0.1c0,0,0,0,0,0c-0.2,0.2-0.1,0.6,0.1,0.7l6.9,4.6C200.1,287.2,200.4,287.1,200.6,286.8
		C200.6,286.8,200.6,286.8,200.6,286.8L200.6,286.8z"/>
	<path class="st17" d="M194.3,287.4c0.2-0.2,0.5-0.3,0.8-0.1l2.9,2.3c0.2,0.2,0.3,0.5,0.1,0.8c-0.2,0.2-0.5,0.3-0.8,0.1l-2.9-2.3
		C194.1,288,194.1,287.6,194.3,287.4z"/>
	<path class="st2" d="M194.3,287.4c0.2-0.3,0.6-0.3,0.9-0.1l2.9,2.3c0.3,0.1,0.5,0.5,0.3,0.8s-0.5,0.5-0.8,0.3
		c-0.1,0-0.1-0.1-0.2-0.1l-2.9-2.3C194.1,288,194.1,287.6,194.3,287.4z M198.1,290.3c0.2-0.2,0.2-0.5-0.1-0.7c0,0,0,0,0,0l-2.9-2.3
		c-0.2-0.2-0.6-0.1-0.7,0.1c-0.2,0.2-0.2,0.5,0.1,0.7c0,0,0,0,0,0l2.9,2.3C197.5,290.6,197.9,290.5,198.1,290.3z"/>
	<path class="st17" d="M188.4,287c0.2-0.2,0.5-0.2,0.7-0.1c0,0,0,0,0.1,0.1l5.8,5.8c0.2,0.2,0.2,0.6,0,0.8c-0.2,0.2-0.5,0.2-0.8,0
		c0,0,0,0,0,0l-5.8-5.8C188.2,287.6,188.2,287.2,188.4,287z"/>
	<path class="st2" d="M188.4,287c0.2-0.2,0.6-0.2,0.9,0l5.8,5.8c0.2,0.2,0.2,0.6,0,0.9c-0.2,0.2-0.6,0.2-0.9,0l-5.8-5.8
		C188.2,287.6,188.1,287.3,188.4,287C188.3,287,188.4,287,188.4,287z M195.1,293.6c0.2-0.2,0.2-0.5,0-0.7l-5.8-5.8
		c-0.2-0.2-0.5-0.2-0.8,0c-0.2,0.2-0.2,0.5,0,0.7l5.8,5.8C194.5,293.8,194.8,293.8,195.1,293.6C195,293.6,195,293.6,195.1,293.6z"/>
	<path class="st17" d="M188.8,292.9c0.2-0.2,0.6-0.2,0.8,0c0,0,0,0,0,0l2.4,2.8c0.2,0.3,0.1,0.6-0.1,0.8c-0.2,0.2-0.5,0.1-0.7,0
		l-2.4-2.7C188.5,293.5,188.5,293.1,188.8,292.9C188.8,292.9,188.8,292.9,188.8,292.9z"/>
	<path class="st2" d="M188.7,292.9c0.3-0.2,0.6-0.2,0.9,0l2.4,2.8c0.2,0.2,0.2,0.6,0,0.8c0,0,0,0,0,0c-0.2,0.2-0.6,0.3-0.9,0
		c0,0,0,0,0,0l-2.4-2.8C188.4,293.5,188.4,293.1,188.7,292.9L188.7,292.9z M191.9,296.5c0.2-0.2,0.2-0.5,0.1-0.7l-2.4-2.8
		c-0.2-0.2-0.5-0.2-0.7,0c-0.2,0.2-0.3,0.5-0.1,0.7l2.4,2.8C191.3,296.7,191.7,296.7,191.9,296.5L191.9,296.5z"/>
	<path class="st17" d="M183.1,291.4c0.2-0.2,0.6-0.1,0.8,0.1c0,0,0,0.1,0.1,0.1l4.6,6.8c0.2,0.3,0.1,0.6-0.2,0.8
		c-0.2,0.2-0.6,0.1-0.8-0.1c0,0,0,0,0,0l-4.6-6.8C182.8,291.9,182.9,291.6,183.1,291.4L183.1,291.4z"/>
	<path class="st2" d="M183.1,291.3c0.3-0.2,0.7-0.1,0.9,0.2l4.6,6.8c0.2,0.3,0.1,0.6-0.1,0.8c0,0,0,0,0,0c-0.3,0.2-0.7,0.1-0.9-0.2
		l-4.6-6.8C182.7,291.9,182.8,291.6,183.1,291.3C183,291.4,183.1,291.4,183.1,291.3z M188.3,299.1c0.2-0.1,0.3-0.5,0.2-0.7
		c0,0,0,0,0,0l-4.6-6.9c-0.2-0.2-0.5-0.3-0.7-0.1c-0.2,0.1-0.3,0.5-0.2,0.7c0,0,0,0,0,0l4.6,6.8C187.8,299.2,188,299.2,188.3,299.1
		L188.3,299.1z"/>
	<path class="st17" d="M182.2,297.3c0.3-0.2,0.6-0.1,0.8,0.2c0,0,0,0,0,0l1.8,3.2c0.1,0.3,0,0.6-0.2,0.8c-0.3,0.2-0.6,0.1-0.8-0.2
		l-1.8-3.2C181.9,297.8,182,297.4,182.2,297.3z"/>
	<path class="st2" d="M182.2,297.2c0.3-0.2,0.6-0.1,0.8,0.2l1.8,3.2c0.2,0.3,0.1,0.7-0.2,0.8c0,0,0,0,0,0c-0.3,0.2-0.7,0.1-0.8-0.2
		L182,298C181.8,297.7,181.9,297.4,182.2,297.2C182.2,297.2,182.2,297.2,182.2,297.2z M184.6,301.4c0.3-0.1,0.3-0.5,0.2-0.7
		l-1.8-3.2c-0.2-0.2-0.5-0.3-0.7-0.2c-0.3,0.1-0.3,0.5-0.2,0.7l1.8,3.2C184,301.4,184.4,301.5,184.6,301.4
		C184.6,301.4,184.6,301.4,184.6,301.4z"/>
	<path class="st17" d="M177,294.6c0.3-0.1,0.6,0,0.7,0.3c0,0,0,0,0,0l3.2,7.6c0.1,0.3,0,0.6-0.3,0.7c-0.3,0.1-0.6,0-0.8-0.3
		l-3.2-7.6C176.6,295.1,176.7,294.8,177,294.6L177,294.6z"/>
	<path class="st2" d="M177,294.6c0.3-0.1,0.7,0,0.8,0.3l3.2,7.6c0.1,0.3,0,0.7-0.4,0.8c0,0,0,0,0,0c-0.3,0.1-0.7,0-0.8-0.3l-3.2-7.6
		C176.6,295.1,176.7,294.7,177,294.6L177,294.6z M180.6,303.2c0.3-0.1,0.4-0.4,0.3-0.7c0,0,0,0,0,0l-3.2-7.6
		c-0.1-0.3-0.4-0.4-0.7-0.3c-0.3,0.1-0.4,0.4-0.3,0.7c0,0,0,0,0,0l3.2,7.6C180,303.2,180.3,303.4,180.6,303.2
		C180.6,303.2,180.6,303.2,180.6,303.2L180.6,303.2z"/>
	<path class="st17" d="M175.1,300.2c0.3-0.1,0.6,0,0.8,0.3c0,0,0,0,0,0l1.1,3.5c0.1,0.3-0.1,0.6-0.3,0.7c0,0,0,0,0,0
		c-0.3,0.1-0.6-0.1-0.7-0.3l-1.1-3.5C174.6,300.7,174.8,300.4,175.1,300.2C175.1,300.3,175.1,300.2,175.1,300.2L175.1,300.2z"/>
	<path class="st2" d="M175,300.2c0.3-0.1,0.7,0,0.8,0.4c0,0,0,0,0,0l1.1,3.5c0.1,0.3-0.1,0.7-0.4,0.8c-0.3,0.1-0.7,0-0.8-0.4
		l-1.1-3.5C174.6,300.7,174.7,300.3,175,300.2L175,300.2z M176.6,304.7c0.3-0.1,0.4-0.4,0.4-0.7l-1.1-3.5c-0.1-0.3-0.4-0.4-0.7-0.3
		c0,0,0,0,0,0c-0.3,0.1-0.4,0.4-0.4,0.7l1.1,3.5C176,304.7,176.2,304.8,176.6,304.7C176.5,304.8,176.5,304.8,176.6,304.7
		L176.6,304.7L176.6,304.7z"/>
	<path class="st17" d="M170.4,296.6c0.3-0.1,0.6,0.1,0.7,0.4c0,0,0,0,0,0.1l1.7,8.1c0.1,0.3-0.2,0.6-0.5,0.7c0,0,0,0,0,0
		c-0.3,0.1-0.6-0.1-0.7-0.4c0,0,0,0,0-0.1l-1.7-8.1C169.9,297,170.1,296.7,170.4,296.6z"/>
	<path class="st2" d="M170.4,296.6c0.3-0.1,0.7,0.1,0.7,0.5l1.7,8.1c0.1,0.3-0.1,0.6-0.5,0.7c0,0,0,0,0,0c-0.3,0.1-0.7-0.1-0.7-0.5
		l-1.7-8.1C169.8,297,170,296.7,170.4,296.6C170.4,296.6,170.4,296.6,170.4,296.6L170.4,296.6z M172.2,305.8
		c0.3-0.1,0.5-0.3,0.4-0.6l-1.6-8.1c-0.1-0.3-0.3-0.5-0.6-0.4c0,0,0,0,0,0c-0.3,0.1-0.5,0.3-0.4,0.6l1.7,8.1
		C171.7,305.7,172,305.9,172.2,305.8L172.2,305.8z"/>
	<path class="st17" d="M167.4,301.8c0.3,0,0.6,0.2,0.7,0.5l0.5,3.6c0,0.3-0.2,0.6-0.5,0.6c0,0,0,0,0,0c-0.3,0-0.6-0.2-0.7-0.5
		l-0.5-3.6C166.8,302.1,167.1,301.8,167.4,301.8z"/>
	<path class="st2" d="M167.4,301.7c0.3-0.1,0.7,0.2,0.7,0.5c0,0,0,0,0,0l0.5,3.6c0,0.3-0.2,0.7-0.6,0.7c-0.3,0-0.7-0.2-0.7-0.6l0,0
		l-0.5-3.6C166.8,302.1,167.1,301.8,167.4,301.7z M168,306.5c0.3,0,0.5-0.3,0.5-0.6l-0.5-3.6c0-0.3-0.3-0.5-0.6-0.4
		c-0.3,0-0.5,0.3-0.5,0.6l0.5,3.6C167.4,306.3,167.7,306.5,168,306.5L168,306.5z"/>
	<path class="st17" d="M163.3,297.4c0.3,0,0.6,0.2,0.6,0.6v8.3c0,0.3-0.3,0.6-0.6,0.6c-0.3,0-0.6-0.3-0.6-0.6l0,0v-8.3
		C162.7,297.6,163,297.4,163.3,297.4z"/>
	<path class="st2" d="M163.3,297.3c0.3,0,0.6,0.3,0.6,0.6v8.3c0,0.4-0.3,0.6-0.6,0.6c-0.4,0-0.6-0.3-0.6-0.6v-8.3
		C162.7,297.6,163,297.3,163.3,297.3z M163.3,306.7c0.3,0,0.5-0.2,0.6-0.5v-8.3c0-0.3-0.3-0.5-0.6-0.5c-0.3,0-0.5,0.2-0.5,0.5v8.3
		C162.8,306.4,163,306.7,163.3,306.7z"/>
	<path class="st17" d="M159.4,301.8c0.3,0,0.6,0.3,0.6,0.6l-0.3,3.7c0,0.3-0.3,0.5-0.6,0.5c-0.3,0-0.5-0.3-0.5-0.6l0.3-3.7
		C158.8,302,159,301.7,159.4,301.8z"/>
	<path class="st2" d="M159.4,301.7c0.3,0,0.6,0.3,0.6,0.6l-0.3,3.7c0,0.3-0.3,0.6-0.7,0.5c-0.3,0-0.6-0.3-0.6-0.6l0.3-3.7
		C158.7,302,159,301.7,159.4,301.7C159.3,301.7,159.3,301.7,159.4,301.7z M159,306.5c0.3,0,0.5-0.2,0.6-0.5l0.3-3.7
		c0-0.3-0.2-0.5-0.5-0.5c-0.3,0-0.5,0.2-0.6,0.5l-0.3,3.7C158.5,306.3,158.7,306.5,159,306.5z"/>
	<path class="st17" d="M156.4,296.6c0.3,0.1,0.5,0.4,0.5,0.7l-1.6,8.1c-0.1,0.3-0.3,0.5-0.6,0.4c0,0,0,0,0,0
		c-0.3-0.1-0.5-0.4-0.5-0.7l1.6-8.1C155.8,296.8,156.1,296.6,156.4,296.6z"/>
	<path class="st2" d="M156.4,296.6c0.3,0.1,0.6,0.4,0.5,0.7l-1.6,8.1c-0.1,0.3-0.5,0.5-0.8,0.4c-0.3-0.1-0.5-0.4-0.5-0.7l1.6-8.1
		C155.8,296.8,156.1,296.6,156.4,296.6L156.4,296.6z M154.5,305.8c0.3,0,0.6-0.1,0.6-0.4l1.6-8.1c0.1-0.3-0.1-0.6-0.4-0.6
		c-0.3-0.1-0.6,0.1-0.6,0.4l0,0l-1.6,8.1C154,305.5,154.2,305.8,154.5,305.8z"/>
	<path class="st17" d="M151.7,300.2c0.3,0.1,0.5,0.4,0.4,0.7l-1,3.6c-0.1,0.3-0.4,0.5-0.7,0.4c0,0,0,0,0,0c-0.3-0.1-0.5-0.4-0.4-0.7
		l0,0l1-3.6C151,300.3,151.3,300.1,151.7,300.2C151.6,300.2,151.6,300.2,151.7,300.2L151.7,300.2z"/>
	<path class="st2" d="M151.7,300.2c0.3,0.1,0.5,0.4,0.4,0.7c0,0,0,0,0,0l-1,3.6c-0.1,0.3-0.4,0.5-0.7,0.4c-0.3-0.1-0.5-0.4-0.4-0.7
		c0,0,0,0,0,0l1-3.6C151,300.3,151.3,300.1,151.7,300.2L151.7,300.2z M150.4,304.8c0.3,0.1,0.6-0.1,0.7-0.3l1-3.6
		c0.1-0.3-0.1-0.5-0.4-0.6c0,0,0,0,0,0c-0.3-0.1-0.6,0.1-0.7,0.4l-1,3.6C149.9,304.4,150.1,304.7,150.4,304.8z"/>
	<path class="st17" d="M149.7,294.6c0.3,0.1,0.4,0.4,0.3,0.7c0,0,0,0,0,0l-3.2,7.6c-0.1,0.3-0.4,0.4-0.7,0.3c0,0,0,0,0,0
		c-0.3-0.1-0.4-0.5-0.3-0.7l3.1-7.6C149.1,294.6,149.4,294.5,149.7,294.6L149.7,294.6z"/>
	<path class="st2" d="M149.7,294.6c0.3,0.1,0.5,0.5,0.4,0.8c0,0,0,0,0,0l-3.2,7.6c-0.1,0.3-0.5,0.5-0.8,0.3c0,0,0,0,0,0
		c-0.3-0.1-0.5-0.5-0.4-0.8c0,0,0,0,0,0l3.2-7.6C149,294.6,149.4,294.4,149.7,294.6C149.7,294.6,149.7,294.6,149.7,294.6z
		 M146.2,303.2c0.3,0.1,0.6,0,0.7-0.3l3.2-7.6c0.1-0.3,0-0.6-0.3-0.7c0,0,0,0,0,0c-0.3-0.1-0.6,0-0.7,0.3l-3.2,7.6
		C145.8,302.8,145.9,303.1,146.2,303.2L146.2,303.2z"/>
	<path class="st17" d="M144.4,297.2c0.3,0.1,0.4,0.5,0.3,0.7l-1.7,3.3c-0.2,0.3-0.5,0.4-0.8,0.2c0,0,0,0,0,0
		c-0.3-0.1-0.4-0.5-0.3-0.8l1.7-3.3C143.7,297.1,144.1,297,144.4,297.2C144.4,297.1,144.4,297.2,144.4,297.2z"/>
	<path class="st2" d="M144.4,297.1c0.3,0.1,0.4,0.5,0.3,0.8c0,0,0,0.1,0,0.1l-1.7,3.3c-0.1,0.3-0.5,0.4-0.8,0.3c0,0,0,0,0,0
		c-0.3-0.1-0.4-0.5-0.3-0.8c0,0,0,0,0,0l1.7-3.3C143.7,297.1,144,297,144.4,297.1C144.4,297.1,144.4,297.1,144.4,297.1z
		 M142.2,301.4c0.3,0.1,0.6,0,0.7-0.2c0,0,0,0,0,0l1.7-3.3c0.1-0.3,0-0.6-0.2-0.7c-0.3-0.1-0.6,0-0.7,0.2c0,0,0,0,0,0l-1.7,3.3
		C141.9,300.9,142,301.2,142.2,301.4z"/>
	<path class="st17" d="M143.6,291.3c0.3,0.2,0.3,0.5,0.2,0.7c0,0,0,0,0,0l-4.6,6.8c-0.2,0.3-0.5,0.3-0.8,0.2c0,0,0,0,0,0
		c-0.3-0.2-0.3-0.5-0.2-0.8c0,0,0,0,0,0l4.6-6.8C143,291.2,143.3,291.1,143.6,291.3C143.6,291.3,143.6,291.3,143.6,291.3z"/>
	<path class="st2" d="M143.6,291.3c0.3,0.2,0.3,0.6,0.2,0.9l-4.6,6.8c-0.2,0.3-0.6,0.4-0.9,0.2c0,0,0,0,0,0
		c-0.3-0.2-0.3-0.6-0.2-0.9l4.6-6.8C142.9,291.1,143.3,291.1,143.6,291.3z M138.4,299.1c0.2,0.1,0.5,0.1,0.7-0.1l4.6-6.8
		c0.2-0.2,0.1-0.5-0.1-0.7c0,0,0,0,0,0c-0.2-0.1-0.5-0.1-0.7,0.1l-4.6,6.8C138.1,298.6,138.2,298.9,138.4,299.1L138.4,299.1z"/>
	<path class="st17" d="M137.8,292.8c0.2,0.2,0.3,0.5,0.1,0.8l-2.3,2.9c-0.2,0.2-0.6,0.3-0.8,0c-0.2-0.2-0.3-0.5-0.1-0.8l2.3-2.9
		C137.2,292.6,137.6,292.6,137.8,292.8z"/>
	<path class="st2" d="M137.9,292.7c0.3,0.2,0.3,0.6,0.1,0.9l-2.3,2.9c-0.2,0.3-0.6,0.3-0.8,0.1c0,0,0,0-0.1,0
		c-0.3-0.2-0.3-0.6-0.1-0.9l2.3-2.9C137.2,292.5,137.6,292.5,137.9,292.7C137.8,292.7,137.9,292.7,137.9,292.7z M134.9,296.5
		c0.2,0.2,0.5,0.2,0.7,0c0,0,0,0,0,0l2.3-2.9c0.2-0.2,0.1-0.6-0.1-0.8c-0.2-0.2-0.5-0.1-0.7,0.1l-2.3,2.9
		C134.7,296,134.7,296.3,134.9,296.5L134.9,296.5z"/>
	<path class="st17" d="M138.2,286.8c0.2,0.2,0.2,0.5,0.1,0.7c0,0,0,0-0.1,0.1l-5.8,5.8c-0.2,0.2-0.6,0.2-0.8,0c0,0,0,0,0,0
		c-0.2-0.2-0.2-0.6,0-0.8c0,0,0,0,0,0l5.8-5.8C137.6,286.6,138,286.6,138.2,286.8C138.2,286.8,138.2,286.8,138.2,286.8z"/>
	<path class="st2" d="M138.2,286.8c0.2,0.2,0.2,0.6,0,0.9l-5.8,5.8c-0.2,0.2-0.6,0.2-0.9,0c-0.2-0.2-0.2-0.6,0-0.9l5.8-5.8
		C137.6,286.6,138,286.6,138.2,286.8z M131.6,293.4c0.2,0.2,0.5,0.2,0.7,0l5.8-5.8c0.2-0.2,0.1-0.6-0.1-0.7c-0.2-0.1-0.4-0.1-0.6,0
		l-5.8,5.8C131.4,292.9,131.4,293.2,131.6,293.4z"/>
	<path class="st17" d="M132.3,287.2c0.2,0.2,0.2,0.6,0,0.8l-2.8,2.4c-0.2,0.2-0.6,0.2-0.8-0.1s-0.2-0.6,0.1-0.8l0,0l2.8-2.4
		C131.7,286.9,132.1,286.9,132.3,287.2C132.3,287.1,132.3,287.2,132.3,287.2z"/>
	<path class="st2" d="M132.3,287.1c0.2,0.3,0.2,0.6,0,0.9c0,0,0,0,0,0l-2.8,2.4c-0.2,0.2-0.6,0.2-0.8,0c0,0,0,0,0-0.1
		c-0.2-0.3-0.2-0.6,0-0.9l2.8-2.4C131.7,286.8,132.1,286.8,132.3,287.1C132.3,287.1,132.3,287.1,132.3,287.1z M128.7,290.2
		c0.2,0.2,0.5,0.3,0.8,0.1l2.8-2.4c0.2-0.2,0.2-0.6,0-0.8c-0.2-0.2-0.5-0.2-0.7-0.1l-2.8,2.4C128.5,289.7,128.5,290,128.7,290.2
		L128.7,290.2z"/>
	<path class="st17" d="M133.9,281.5c0.2,0.2,0.1,0.6-0.1,0.8c0,0,0,0-0.1,0l-6.9,4.6c-0.3,0.2-0.6,0.1-0.8-0.2
		c-0.2-0.2-0.1-0.6,0.1-0.8c0,0,0,0,0,0l6.9-4.6C133.3,281.2,133.7,281.2,133.9,281.5L133.9,281.5z"/>
	<path class="st2" d="M133.9,281.5c0.2,0.3,0.1,0.7-0.2,0.9l-6.9,4.6c-0.3,0.2-0.6,0.1-0.8-0.1c0,0,0,0,0,0
		c-0.2-0.3-0.1-0.7,0.2-0.9l6.9-4.6C133.3,281.1,133.7,281.2,133.9,281.5C133.9,281.4,133.9,281.5,133.9,281.5L133.9,281.5z
		 M126.1,286.6c0.2,0.2,0.5,0.3,0.7,0.2c0,0,0,0,0,0l6.9-4.6c0.2-0.2,0.3-0.5,0.1-0.7c0,0,0,0,0,0c-0.2-0.2-0.5-0.3-0.7-0.2
		l-6.9,4.6C126,286.1,125.9,286.4,126.1,286.6L126.1,286.6z"/>
	<path class="st17" d="M128,280.6c0.2,0.3,0.1,0.6-0.2,0.8c0,0,0,0,0,0l-3.2,1.8c-0.3,0.1-0.6,0-0.8-0.2c-0.2-0.3-0.1-0.6,0.2-0.8
		l3.2-1.8C127.5,280.2,127.8,280.4,128,280.6L128,280.6z"/>
	<path class="st2" d="M128,280.6c0.2,0.3,0.1,0.7-0.2,0.8l-3.2,1.8c-0.3,0.1-0.7,0-0.8-0.2c-0.2-0.3-0.1-0.7,0.2-0.8l3.2-1.8
		C127.5,280.2,127.9,280.3,128,280.6z M123.8,283c0.1,0.2,0.4,0.3,0.7,0.2c0,0,0,0,0,0l3.2-1.8c0.2-0.2,0.3-0.5,0.2-0.7
		c-0.1-0.2-0.4-0.3-0.7-0.2c0,0,0,0,0,0l-3.2,1.8C123.8,282.4,123.7,282.7,123.8,283z"/>
	<path class="st17" d="M130.6,275.4c0.1,0.3,0,0.6-0.3,0.7c0,0,0,0-0.1,0l-7.6,3.2c-0.3,0.1-0.6,0-0.7-0.3c-0.1-0.3,0-0.6,0.3-0.7
		c0,0,0,0,0,0l7.6-3.2C130.2,275,130.5,275.1,130.6,275.4z"/>
	<path class="st2" d="M130.7,275.3c0.1,0.3,0,0.7-0.3,0.8l-7.6,3.2c-0.3,0.1-0.7,0-0.8-0.4c0,0,0,0,0,0c-0.1-0.3,0-0.7,0.3-0.8
		l7.6-3.2C130.2,274.9,130.6,275,130.7,275.3z M122,278.9c0.1,0.3,0.4,0.4,0.7,0.3l7.6-3.2c0.3-0.1,0.4-0.4,0.3-0.7c0,0,0,0,0,0
		c-0.1-0.3-0.4-0.4-0.7-0.3l-7.6,3.2C122,278.3,121.9,278.6,122,278.9C122,278.9,122,278.9,122,278.9L122,278.9z"/>
	<path class="st17" d="M125.1,273.4c0.1,0.3,0,0.6-0.3,0.7c0,0,0,0,0,0l-3.5,1.1c-0.3,0.1-0.6-0.1-0.7-0.3c0,0,0,0,0,0
		c-0.1-0.3,0.1-0.6,0.3-0.7l3.5-1.1C124.6,273,124.9,273.1,125.1,273.4C125.1,273.4,125.1,273.4,125.1,273.4z"/>
	<path class="st2" d="M125.1,273.4c0.1,0.3,0,0.7-0.3,0.8c0,0,0,0-0.1,0l-3.5,1.1c-0.3,0.1-0.7-0.1-0.8-0.4c-0.1-0.3,0-0.7,0.4-0.8
		c0,0,0,0,0,0l3.5-1.1C124.6,272.9,125,273.1,125.1,273.4L125.1,273.4z M120.5,274.9c0.1,0.3,0.4,0.4,0.7,0.4l3.5-1.1
		c0.3-0.1,0.4-0.4,0.3-0.7c-0.1-0.3-0.4-0.5-0.7-0.4c0,0,0,0,0,0l-3.5,1.1C120.6,274.3,120.4,274.6,120.5,274.9L120.5,274.9z"/>
	<path class="st17" d="M128.6,268.7c0.1,0.3-0.1,0.6-0.4,0.7c0,0,0,0-0.1,0l-8.1,1.6c-0.3,0.1-0.6-0.1-0.7-0.4c0,0,0,0,0-0.1
		c-0.1-0.3,0.1-0.6,0.4-0.7c0,0,0,0,0.1,0l8.1-1.6C128.2,268.2,128.5,268.4,128.6,268.7L128.6,268.7z"/>
	<path class="st2" d="M128.7,268.7c0.1,0.3-0.1,0.6-0.4,0.7l-8.1,1.6c-0.3,0.1-0.7-0.2-0.7-0.5c0,0,0,0,0,0
		c-0.1-0.3,0.1-0.7,0.5-0.7l8.1-1.6C128.3,268.1,128.6,268.4,128.7,268.7C128.7,268.7,128.7,268.7,128.7,268.7z M119.5,270.5
		c0,0.3,0.3,0.5,0.6,0.4l8.1-1.6c0.3-0.1,0.5-0.3,0.4-0.6c0,0,0,0,0,0c0-0.3-0.3-0.5-0.6-0.4l-8.1,1.6
		C119.6,269.9,119.4,270.2,119.5,270.5z"/>
	<path class="st17" d="M123.6,265.7c0,0.3-0.2,0.6-0.5,0.6c0,0,0,0,0,0l-3.6,0.4c-0.3,0-0.6-0.2-0.6-0.5c0-0.3,0.2-0.6,0.5-0.6
		c0,0,0,0,0,0l3.6-0.4C123.2,265.1,123.5,265.3,123.6,265.7z"/>
	<path class="st2" d="M123.6,265.7c0,0.3-0.2,0.7-0.5,0.7l-3.6,0.4c-0.3,0-0.6-0.2-0.7-0.6c0-0.3,0.2-0.7,0.5-0.7l3.6-0.4
		C123.3,265.1,123.6,265.3,123.6,265.7L123.6,265.7z M118.8,266.2c0,0.3,0.3,0.5,0.6,0.5l3.6-0.4c0.3,0,0.5-0.3,0.4-0.6
		c0-0.3-0.3-0.5-0.6-0.5l-3.6,0.4C119,265.7,118.8,265.9,118.8,266.2z"/>
	<path class="st17" d="M128,261.8c0,0.3-0.2,0.6-0.6,0.6h-8.3c-0.3,0-0.6-0.3-0.6-0.6s0.3-0.6,0.6-0.6h8.3
		C127.7,261.2,128,261.5,128,261.8L128,261.8z"/>
	<path class="st2" d="M128,261.8c0,0.3-0.3,0.6-0.6,0.6h-8.3c-0.3,0-0.6-0.3-0.6-0.6c0-0.3,0.3-0.6,0.6-0.6h8.3
		C127.8,261.2,128,261.5,128,261.8z M118.7,261.8c0,0.3,0.2,0.5,0.5,0.6h8.3c0.3,0,0.5-0.2,0.5-0.5c0,0,0,0,0,0
		c0-0.3-0.2-0.5-0.5-0.5h-8.3C118.9,261.3,118.7,261.5,118.7,261.8z"/>
	<path class="st18" d="M123.6,257.8c0,0.3-0.3,0.6-0.6,0.6l-3.7-0.3c-0.3,0-0.5-0.3-0.5-0.6c0-0.3,0.3-0.5,0.6-0.5l3.7,0.3
		C123.4,257.3,123.6,257.5,123.6,257.8z"/>
	<path class="st2" d="M123.6,257.8c0,0.3-0.3,0.6-0.6,0.6l-3.7-0.3c-0.3,0-0.6-0.3-0.5-0.7c0-0.3,0.3-0.6,0.6-0.6l3.7,0.3
		C123.4,257.2,123.6,257.5,123.6,257.8z M118.8,257.5c0,0.3,0.2,0.5,0.5,0.6c0,0,0,0,0,0l3.7,0.3c0.3,0,0.5-0.2,0.6-0.5
		c0-0.3-0.2-0.5-0.5-0.6c0,0,0,0,0,0l-3.7-0.3C119.1,257,118.9,257.2,118.8,257.5z"/>
	<path class="st17" d="M128.7,254.9c-0.1,0.3-0.4,0.5-0.7,0.5l-8.1-1.7c-0.3-0.1-0.5-0.3-0.4-0.6c0,0,0,0,0,0
		c0.1-0.3,0.4-0.5,0.7-0.5l8.1,1.6C128.6,254.3,128.7,254.6,128.7,254.9L128.7,254.9z"/>
	<path class="st2" d="M128.7,254.9c-0.1,0.3-0.4,0.6-0.7,0.5l-8.1-1.6c-0.3-0.1-0.5-0.4-0.5-0.8c0.1-0.3,0.4-0.6,0.7-0.5l8.1,1.6
		C128.6,254.3,128.8,254.6,128.7,254.9L128.7,254.9z M119.5,253.1c0,0.3,0.1,0.5,0.4,0.6l8.1,1.6c0.3,0,0.6-0.1,0.6-0.4
		c0-0.3-0.1-0.5-0.4-0.6l-8.1-1.6C119.9,252.6,119.6,252.8,119.5,253.1L119.5,253.1z"/>
	<path class="st17" d="M125.1,250.2c-0.1,0.3-0.4,0.5-0.7,0.4l0,0l-3.6-1c-0.3-0.1-0.5-0.4-0.4-0.7c0,0,0,0,0,0
		c0.1-0.3,0.4-0.5,0.7-0.4c0,0,0,0,0,0l0,0l3.6,1C125.1,249.5,125.2,249.9,125.1,250.2C125.2,250.2,125.2,250.2,125.1,250.2
		L125.1,250.2z"/>
	<path class="st2" d="M125.2,250.2c-0.1,0.3-0.4,0.5-0.7,0.4l-3.6-1c-0.3-0.1-0.6-0.4-0.5-0.7c0.1-0.3,0.4-0.5,0.7-0.4c0,0,0,0,0,0
		l3.6,1C125,249.5,125.2,249.9,125.2,250.2L125.2,250.2z M120.6,248.9c-0.1,0.3,0.1,0.6,0.4,0.7l3.6,1c0.3,0.1,0.5-0.1,0.6-0.3
		c0,0,0,0,0-0.1c0.1-0.3-0.1-0.6-0.4-0.7l-3.6-1C120.9,248.4,120.6,248.6,120.6,248.9L120.6,248.9z"/>
	<path class="st17" d="M130.7,248.3c-0.1,0.3-0.4,0.4-0.7,0.3l-7.6-3.2c-0.3-0.1-0.4-0.5-0.3-0.7c0.1-0.3,0.4-0.4,0.7-0.3l7.6,3.2
		C130.7,247.7,130.8,248,130.7,248.3C130.7,248.3,130.7,248.3,130.7,248.3L130.7,248.3z"/>
	<path class="st2" d="M130.7,248.4c-0.1,0.3-0.5,0.5-0.8,0.4l-7.6-3.2c-0.3-0.2-0.4-0.6-0.3-0.9c0.1-0.3,0.5-0.4,0.7-0.3l7.6,3.2
		C130.7,247.7,130.9,248,130.7,248.4z M122.1,244.8c-0.1,0.3,0,0.6,0.3,0.7c0,0,0,0,0,0l7.6,3.2c0.3,0.1,0.6,0,0.7-0.3c0,0,0,0,0,0
		c0.1-0.3,0-0.6-0.3-0.7l-7.6-3.2C122.5,244.4,122.2,244.5,122.1,244.8L122.1,244.8z"/>
	<path class="st17" d="M128.1,243c-0.1,0.3-0.4,0.4-0.7,0.3l-3.3-1.6c-0.3-0.1-0.4-0.5-0.3-0.8c0,0,0,0,0,0c0.1-0.3,0.5-0.4,0.8-0.3
		l3.3,1.7C128.2,242.4,128.3,242.7,128.1,243L128.1,243z"/>
	<path class="st2" d="M128.2,243.1c-0.1,0.3-0.5,0.4-0.8,0.3c0,0,0,0,0,0l-3.3-1.7c-0.3-0.1-0.5-0.5-0.3-0.8
		c0.1-0.3,0.5-0.5,0.8-0.3c0,0,0.1,0,0.1,0l3.3,1.7C128.2,242.3,128.4,242.6,128.2,243.1C128.2,243,128.2,243,128.2,243.1z
		 M123.9,240.9c-0.1,0.3,0,0.6,0.2,0.7c0,0,0,0,0,0l3.3,1.7c0.3,0.1,0.6,0,0.7-0.2c0.1-0.3,0-0.6-0.2-0.7c0,0,0,0,0,0l-3.3-1.7
		C124.3,240.5,124,240.6,123.9,240.9C123.9,240.8,123.9,240.9,123.9,240.9L123.9,240.9z"/>
	<path class="st17" d="M134,242.2c-0.2,0.3-0.5,0.3-0.7,0.2c0,0,0,0,0,0l-6.8-4.5c-0.3-0.2-0.3-0.5-0.2-0.8c0,0,0,0,0,0
		c0.1-0.3,0.5-0.3,0.7-0.2c0,0,0,0,0.1,0l6.9,4.6C134.1,241.6,134.1,242,134,242.2L134,242.2z"/>
	<path class="st2" d="M134,242.3c-0.2,0.3-0.6,0.3-0.9,0.2l-6.8-4.6c-0.3-0.2-0.3-0.6-0.2-0.9c0.2-0.3,0.6-0.3,0.9-0.2l6.8,4.6
		C134.1,241.6,134.2,241.9,134,242.3C134,242.2,134,242.3,134,242.3L134,242.3z M126.2,237c-0.2,0.2-0.1,0.6,0.1,0.8l6.9,4.6
		c0.2,0.2,0.6,0.1,0.7-0.2c0.1-0.2,0.1-0.5-0.1-0.7l-6.9-4.6C126.7,236.8,126.4,236.8,126.2,237L126.2,237z"/>
	<path class="st17" d="M132.5,236.5c-0.2,0.2-0.5,0.3-0.8,0.1l-2.9-2.2c-0.2-0.2-0.3-0.6-0.1-0.8c0.2-0.3,0.5-0.3,0.8-0.1l2.9,2.3
		C132.7,235.9,132.7,236.3,132.5,236.5z"/>
	<path class="st2" d="M132.5,236.5c-0.2,0.3-0.6,0.3-0.9,0.1c0,0,0,0,0,0l-2.9-2.3c-0.3-0.2-0.3-0.6-0.1-0.9
		c0.2-0.3,0.6-0.3,0.9-0.1l2.9,2.2C132.7,235.9,132.7,236.3,132.5,236.5L132.5,236.5z M128.7,233.6c-0.2,0.2-0.2,0.5,0,0.7
		c0,0,0,0,0,0l2.9,2.3c0.2,0.2,0.6,0.1,0.8-0.1c0.2-0.2,0.2-0.5-0.1-0.7c0,0,0,0,0,0l-2.9-2.3C129.3,233.3,129,233.4,128.7,233.6
		L128.7,233.6z"/>
	<path class="st17" d="M138.4,236.9c-0.2,0.2-0.5,0.2-0.7,0c0,0,0,0,0,0l-5.9-5.8c-0.2-0.2-0.2-0.6,0-0.8c0.2-0.2,0.5-0.2,0.8,0
		c0,0,0,0,0,0l5.8,5.8C138.6,236.3,138.6,236.7,138.4,236.9L138.4,236.9z"/>
	<path class="st2" d="M138.4,236.9c-0.2,0.2-0.6,0.2-0.9,0l-5.8-5.8c-0.2-0.2-0.2-0.6,0-0.9c0,0,0,0,0,0c0.2-0.2,0.6-0.2,0.9,0
		l5.8,5.8C138.6,236.3,138.7,236.6,138.4,236.9C138.4,236.9,138.4,236.9,138.4,236.9z M131.7,230.3c-0.2,0.2-0.2,0.5,0,0.8l5.8,5.8
		c0.2,0.2,0.5,0.3,0.7,0.1c0.2-0.2,0.3-0.5,0.1-0.7c0-0.1-0.1-0.1-0.2-0.1l-5.8-5.8C132.2,230.1,131.9,230.1,131.7,230.3
		L131.7,230.3z"/>
	<path class="st17" d="M138,231c-0.2,0.2-0.6,0.2-0.8,0l-2.4-2.8c-0.2-0.2-0.2-0.6,0.1-0.8c0,0,0,0,0,0c0.2-0.2,0.6-0.2,0.8,0
		l2.4,2.8C138.3,230.5,138.3,230.8,138,231L138,231z"/>
	<path class="st2" d="M138.1,231c-0.3,0.2-0.6,0.2-0.9,0l-2.4-2.8c-0.2-0.2-0.2-0.6,0-0.8c0,0,0,0,0,0c0.2-0.2,0.6-0.2,0.9,0
		c0,0,0,0,0,0l2.4,2.8C138.4,230.4,138.3,230.8,138.1,231z M134.9,227.4c-0.2,0.2-0.3,0.5-0.1,0.7l2.4,2.7c0.2,0.2,0.6,0.2,0.8,0
		c0.2-0.2,0.2-0.5,0.1-0.7l-2.4-2.8C135.5,227.2,135.1,227.2,134.9,227.4C134.9,227.4,134.9,227.4,134.9,227.4L134.9,227.4z"/>
	<path class="st17" d="M143.7,232.5c-0.2,0.2-0.6,0.1-0.7-0.1c0,0,0,0,0-0.1l-4.6-6.8c-0.2-0.3-0.1-0.6,0.2-0.8
		c0.2-0.2,0.6-0.1,0.7,0.1c0,0,0,0,0,0.1l4.6,6.8C144,232,144,232.3,143.7,232.5C143.7,232.5,143.7,232.5,143.7,232.5z"/>
	<path class="st2" d="M143.7,232.5c-0.3,0.2-0.7,0.1-0.9-0.2l-4.6-6.8c-0.2-0.3-0.1-0.7,0.2-0.8c0,0,0,0,0,0
		c0.3-0.2,0.7-0.1,0.9,0.2l4.6,6.8C144.1,231.9,144,232.3,143.7,232.5C143.7,232.5,143.7,232.5,143.7,232.5z M138.5,224.8
		c-0.2,0.2-0.3,0.5-0.2,0.7l4.6,6.8c0.2,0.2,0.5,0.3,0.7,0.1c0.2-0.2,0.3-0.5,0.2-0.7l-4.6-6.8C139.1,224.7,138.8,224.6,138.5,224.8
		L138.5,224.8z"/>
	<path class="st17" d="M144.5,226.6c-0.3,0.2-0.6,0.1-0.8-0.2l-1.8-3.2c-0.1-0.3,0-0.6,0.2-0.8c0.3-0.2,0.6-0.1,0.8,0.2l1.8,3.2
		C144.9,226.1,144.8,226.5,144.5,226.6L144.5,226.6z"/>
	<path class="st2" d="M144.5,226.7c-0.3,0.2-0.7,0.1-0.8-0.2l-1.8-3.2c-0.2-0.3-0.1-0.6,0.2-0.8c0,0,0,0,0,0
		c0.3-0.2,0.7-0.1,0.8,0.2l1.8,3.2C144.9,226.2,144.8,226.5,144.5,226.7C144.5,226.7,144.5,226.7,144.5,226.7z M142.2,222.5
		c-0.2,0.1-0.3,0.5-0.2,0.7c0,0,0,0,0,0l1.8,3.2c0.2,0.2,0.5,0.3,0.7,0.2c0.2-0.1,0.3-0.5,0.2-0.7l-1.8-3.2
		C142.8,222.5,142.4,222.4,142.2,222.5C142.2,222.5,142.2,222.5,142.2,222.5L142.2,222.5z"/>
	<path class="st17" d="M149.8,229.3c-0.3,0.1-0.6,0-0.7-0.3l-3.2-7.6c-0.1-0.3,0-0.6,0.3-0.7c0.3-0.1,0.6,0,0.7,0.3l3.2,7.6
		C150.2,228.8,150.1,229.2,149.8,229.3L149.8,229.3z"/>
	<path class="st2" d="M149.8,229.3c-0.3,0.1-0.7,0-0.8-0.3l-3.2-7.6c-0.1-0.3,0-0.7,0.4-0.8c0.3-0.1,0.7,0,0.8,0.3l3.2,7.6
		C150.3,228.8,150.1,229.2,149.8,229.3L149.8,229.3z M146.2,220.6c-0.3,0.1-0.4,0.4-0.3,0.7c0,0,0,0,0,0l3.2,7.6
		c0.1,0.3,0.4,0.4,0.7,0.3c0.3-0.1,0.4-0.4,0.3-0.7c0,0,0,0,0,0l-3.2-7.6C146.8,220.7,146.5,220.5,146.2,220.6L146.2,220.6z"/>
	<path class="st17" d="M151.7,223.6c-0.3,0.1-0.6-0.1-0.7-0.4c0,0,0,0,0,0l-1.1-3.5c-0.1-0.3,0.1-0.6,0.3-0.7c0,0,0,0,0,0
		c0.3-0.1,0.6,0.1,0.7,0.4l1.1,3.5C152.2,223.2,152.1,223.5,151.7,223.6C151.8,223.6,151.8,223.7,151.7,223.6L151.7,223.6z"/>
	<path class="st2" d="M151.8,223.7c-0.3,0.1-0.7,0-0.8-0.4c0,0,0,0,0,0l-1.1-3.5c-0.1-0.3,0.1-0.7,0.4-0.8c0,0,0,0,0,0
		c0.3-0.1,0.7,0,0.8,0.4c0,0,0,0,0,0l1.1,3.5C152.3,223.2,152.1,223.6,151.8,223.7z M150.3,219.1c-0.3,0.1-0.4,0.4-0.3,0.7l1.1,3.5
		c0.1,0.3,0.4,0.4,0.7,0.3c0.3-0.1,0.4-0.4,0.4-0.7l-1.1-3.5C150.9,219.2,150.6,219,150.3,219.1L150.3,219.1L150.3,219.1z"/>
	<path class="st17" d="M156.4,227.2c-0.3,0.1-0.6-0.1-0.7-0.3c0,0,0-0.1,0-0.1l-1.7-8.1c-0.1-0.3,0.2-0.6,0.5-0.7c0,0,0,0,0,0
		c0.3-0.1,0.6,0.1,0.7,0.4c0,0,0,0.1,0,0.1l1.7,8.1C156.9,226.9,156.7,227.2,156.4,227.2z"/>
	<path class="st2" d="M156.4,227.3c-0.3,0.1-0.7-0.1-0.8-0.5l-1.7-8.1c-0.1-0.3,0.1-0.6,0.5-0.7c0,0,0,0,0,0
		c0.3-0.1,0.7,0.1,0.7,0.5l1.7,8.1C156.9,226.9,156.8,227.2,156.4,227.3C156.4,227.3,156.4,227.3,156.4,227.3z M154.5,218.1
		c-0.3,0.1-0.5,0.3-0.4,0.6l1.7,8.1c0.1,0.3,0.3,0.5,0.6,0.4c0,0,0,0,0,0c0.3-0.1,0.5-0.3,0.4-0.6l-1.7-8.1
		C155.1,218.2,154.8,218,154.5,218.1L154.5,218.1z"/>
	<path class="st17" d="M159.4,222.1c-0.3,0-0.6-0.2-0.7-0.5l-0.5-3.6c0-0.3,0.2-0.6,0.5-0.6c0.3,0,0.6,0.2,0.7,0.5l0.5,3.6
		C159.9,221.8,159.7,222.1,159.4,222.1z"/>
	<path class="st2" d="M159.4,222.1c-0.3,0-0.7-0.2-0.7-0.5l-0.5-3.6c0-0.3,0.2-0.6,0.6-0.7c0.3,0,0.7,0.2,0.7,0.5l0.5,3.6
		C160,221.8,159.7,222.1,159.4,222.1z M158.8,217.4c-0.3,0-0.5,0.3-0.5,0.6l0.5,3.6c0,0.3,0.3,0.5,0.6,0.4c0.3,0,0.5-0.3,0.5-0.6
		l-0.5-3.6C159.4,217.6,159.1,217.4,158.8,217.4z"/>
	
		<linearGradient id="SVGID_3_" gradientUnits="userSpaceOnUse" x1="139.9781" y1="-85.929" x2="139.971" y2="-85.9076" gradientTransform="matrix(2240.23 0 0 2240.23 -313416.75 192754.3125)">
		<stop  offset="0" style="stop-color:#000000;stop-opacity:0"/>
		<stop  offset="1" style="stop-color:#000000"/>
	</linearGradient>
	<circle class="st19" cx="163.7" cy="261.9" r="46.8"/>
	<polygon class="st20" points="196.1,232.2 158.3,256.4 158.3,256.4 158.3,256.5 158.3,256.5 134.7,295.3 169.3,267.5 169.4,267.4 
		169.4,267.4 196.1,232.2 	"/>
	<path class="st21" d="M195.4,230l-37.3,26.5l11.1,11L195.4,230"/>
	<path class="st22" d="M158.1,256.4l5.6,5.5l31.7-31.9L158.1,256.4L158.1,256.4z"/>
	<path class="st23" d="M158.1,256.4l11.1,11l-37.3,26.5L158.1,256.4L158.1,256.4z"/>
	<path class="st24" d="M131.9,293.9l31.8-32l-5.6-5.5L131.9,293.9z"/>
</g>
<g class="st14">
	<path class="st25" d="M934.3,501.4c0,0,29-1.3,44.4,27.9h-46.9c0,0-8.8-0.3-16.4,10.4c-2.1,4.5-4.5,9.1-1.9,18.2
		c-3.8-6.4-20-34.7-20-34.7S905,502.6,934.3,501.4L934.3,501.4z"/>
	<path class="st26" d="M977.2,575.5c0,0-13.4,25.8-46.3,24.5c4.1-7,23.4-40.6,23.4-40.6s4.7-7.5-0.8-19.4
		c-2.8-4.1-5.7-8.5-14.9-10.7c7.4-0.1,40,0,40,0S990.9,549.5,977.2,575.5z"/>
	<path class="st27" d="M891.7,575.7c0,0-15.6-24.5,1.9-52.4c4.1,7,23.4,40.6,23.4,40.6s4.2,7.8,17.2,9c5-0.4,10.1-0.7,16.8-7.5
		c-3.6,6.4-20,34.7-20,34.7S907.3,600.5,891.7,575.7L891.7,575.7z"/>
	<path class="st28" d="M930.9,600.2l6.6-27.5c5.2-0.8,9.9-3.3,13.3-7.2C947,572.1,930.9,600.2,930.9,600.2z"/>
	<path class="st2" d="M912.3,551.1c0-12.1,9.8-22,22-22s22,9.8,22,22s-9.8,22-22,22l0,0C922.1,573.1,912.3,563.3,912.3,551.1z"/>
	
		<linearGradient id="SVGID_4_" gradientUnits="userSpaceOnUse" x1="140.0835" y1="-86.2649" x2="140.0835" y2="-86.222" gradientTransform="matrix(923.39 0 0 923.39 -128417.5 80187.3594)">
		<stop  offset="0" style="stop-color:#86BBE5"/>
		<stop  offset="1" style="stop-color:#1072BA"/>
	</linearGradient>
	<path class="st29" d="M915.9,551.1c0-10.1,8.2-18.2,18.2-18.2c10.1,0,18.2,8.2,18.2,18.2c0,10.1-8.2,18.2-18.2,18.2
		C924.1,569.4,915.9,561.2,915.9,551.1z"/>
	<path class="st30" d="M978.6,529.2l-27.1,8c-3.2-4.1-7.8-6.9-12.9-8C946.3,529.2,978.7,529.2,978.6,529.2L978.6,529.2z"/>
	<path class="st31" d="M913.1,557c-3.8-6.6-19.5-33.7-19.5-33.7l20.1,19.9c-1.3,3.3-1.8,6.8-1.3,10.3L913.1,557z"/>
</g>
</svg>
