<?xml version="1.0" encoding="utf-8"?>
<!-- Generator: Adobe Illustrator 23.0.2, SVG Export Plug-In . SVG Version: 6.00 Build 0)  -->
<svg version="1.1" id="Layer_1" xmlns="http://www.w3.org/2000/svg" xmlns:xlink="http://www.w3.org/1999/xlink" x="0px" y="0px"
	 viewBox="0 0 790 731" style="enable-background:new 0 0 790 731;" xml:space="preserve">
<style type="text/css">
	.st0{fill:url(#SVGID_1_);}
	.st1{fill:url(#SVGID_2_);}
	.st2{fill:url(#SVGID_3_);}
	.st3{fill:url(#SVGID_4_);}
	.st4{fill:url(#SVGID_5_);}
	.st5{fill:url(#SVGID_6_);}
	.st6{fill:url(#SVGID_7_);}
	.st7{fill:url(#SVGID_8_);}
	.st8{fill:url(#SVGID_9_);}
	.st9{fill:url(#SVGID_10_);}
	.st10{fill:url(#SVGID_11_);}
	.st11{fill:url(#SVGID_12_);}
	.st12{fill:url(#SVGID_13_);}
	.st13{fill:#E6E6E6;}
	.st14{fill:#B62985;}
	.st15{fill:#DA73B6;}
	.st16{fill:#EC3434;}
	.st17{opacity:0.5;fill:#EC3434;}
	.st18{fill:#FF5E5C;}
	.st19{fill:#C7160C;}
	.st20{fill:#5D3BC5;}
	.st21{fill:url(#SVGID_14_);}
	.st22{fill:url(#SVGID_15_);}
	.st23{fill:#FFFFFF;}
	.st24{fill:#775DD4;}
	.st25{fill:url(#SVGID_16_);}
	.st26{fill:url(#SVGID_17_);}
	.st27{fill:url(#SVGID_18_);}
	.st28{fill:url(#SVGID_19_);}
	.st29{fill:url(#SVGID_20_);}
	.st30{fill:url(#SVGID_21_);}
	.st31{fill:#9B86E1;}
	.st32{fill:#6341CC;}
	.st33{fill:#321499;}
	.st34{fill:#FAB6B0;}
	.st35{fill:#FB8688;}
	.st36{fill:#0C2C68;}
	.st37{fill:#112E6C;}
	.st38{fill:#5D3DC6;}
	.st39{fill:#123472;}
	.st40{fill:#5987CF;}
	.st41{fill:#2C60C4;}
	.st42{fill:#790250;}
</style>
<title>chating</title>
<g>
	<g>
		<g>
			<linearGradient id="SVGID_1_" gradientUnits="userSpaceOnUse" x1="395.1092" y1="94.1349" x2="395.1092" y2="-91.0848">
				<stop  offset="1.963140e-03" style="stop-color:#D6E1F4"/>
				<stop  offset="0.6038" style="stop-color:#E7EDF8"/>
				<stop  offset="1" style="stop-color:#F4F7FC"/>
			</linearGradient>
			<path class="st0" d="M772.1,490c-3.9-12.3-10.5-23.6-19.9-32.7c-16.1-15.4-39.2-24.2-50.1-43.6c-13.6-24.3-2.6-54.1,1.7-81.6
				c6.2-39.6-7.1-86.7-43.9-102.7c-32-13.9-72-0.4-102.3-17.7c-35.3-20.3-38.6-70.3-65-101.3c-20.9-24.7-54.8-34.7-86-36.9
				c-41.5-3-87.3,7.8-112.4,41c-23.3,30.9-26.9,78-60.8,96.6c-23.7,12.9-53,6.2-79.4,11.4c-53.6,10.6-78.6,63-66.1,112.8
				c5.4,21.4,12.4,44.1,5.3,65c-10.1,29.8-44.4,43.5-63.4,68.6c-23,30.3-19.9,75.2,1,106.9c20.9,31.7,56.6,51.4,93.4,60.7
				s75.3,9.5,113.3,9.5c103.4,0.2,206.8,0.4,310.3,0.6c40.1,0.1,80.8,0.1,119.6-10.3c38.8-10.4,76-32.7,95.8-67.6
				C776.6,545,780.1,515.3,772.1,490z"/>
		</g>
		<g>
			<g>
				<linearGradient id="SVGID_2_" gradientUnits="userSpaceOnUse" x1="48.8666" y1="94.1352" x2="48.8666" y2="-91.0841">
					<stop  offset="1.963140e-03" style="stop-color:#D6E1F4"/>
					<stop  offset="0.6038" style="stop-color:#E7EDF8"/>
					<stop  offset="1" style="stop-color:#F4F7FC"/>
				</linearGradient>
				<circle class="st1" cx="48.9" cy="331.9" r="13.8"/>
				<linearGradient id="SVGID_3_" gradientUnits="userSpaceOnUse" x1="61.9599" y1="-38.0995" x2="61.9599" y2="-345.0768">
					<stop  offset="1.963140e-03" style="stop-color:#D6E1F4"/>
					<stop  offset="0.6038" style="stop-color:#E7EDF8"/>
					<stop  offset="1" style="stop-color:#F4F7FC"/>
				</linearGradient>
				<circle class="st2" cx="62" cy="295.3" r="6.3"/>
				<linearGradient id="SVGID_4_" gradientUnits="userSpaceOnUse" x1="48.8665" y1="-194.1585" x2="48.8665" y2="-501.1294">
					<stop  offset="1.963140e-03" style="stop-color:#D6E1F4"/>
					<stop  offset="0.6038" style="stop-color:#E7EDF8"/>
					<stop  offset="1" style="stop-color:#F4F7FC"/>
				</linearGradient>
				<path class="st3" d="M55.2,265.2c0,3.5-2.8,6.3-6.3,6.3c-3.5,0-6.3-2.8-6.3-6.3c0-3.5,2.8-6.3,6.3-6.3
					C52.4,258.9,55.2,261.7,55.2,265.2z"/>
			</g>
			<g>
				<linearGradient id="SVGID_5_" gradientUnits="userSpaceOnUse" x1="745.1069" y1="89.6357" x2="745.1069" y2="-95.5836">
					<stop  offset="1.963140e-03" style="stop-color:#D6E1F4"/>
					<stop  offset="0.6038" style="stop-color:#E7EDF8"/>
					<stop  offset="1" style="stop-color:#F4F7FC"/>
				</linearGradient>
				<circle class="st4" cx="745.1" cy="327.4" r="13.8"/>
				<linearGradient id="SVGID_6_" gradientUnits="userSpaceOnUse" x1="724.0767" y1="-38.0995" x2="724.0767" y2="-345.0768">
					<stop  offset="1.963140e-03" style="stop-color:#D6E1F4"/>
					<stop  offset="0.6038" style="stop-color:#E7EDF8"/>
					<stop  offset="1" style="stop-color:#F4F7FC"/>
				</linearGradient>
				<circle class="st5" cx="724.1" cy="295.3" r="6.3"/>
				<linearGradient id="SVGID_7_" gradientUnits="userSpaceOnUse" x1="751.441" y1="-192.2558" x2="751.441" y2="-499.2267">
					<stop  offset="1.963140e-03" style="stop-color:#D6E1F4"/>
					<stop  offset="0.6038" style="stop-color:#E7EDF8"/>
					<stop  offset="1" style="stop-color:#F4F7FC"/>
				</linearGradient>
				<path class="st6" d="M745.1,267.1c0,3.5,2.8,6.3,6.3,6.3c3.5,0,6.3-2.8,6.3-6.3c0-3.5-2.8-6.3-6.3-6.3
					C747.9,260.8,745.1,263.6,745.1,267.1z"/>
			</g>
			<g>
				<linearGradient id="SVGID_8_" gradientUnits="userSpaceOnUse" x1="522.4771" y1="94.1351" x2="522.4771" y2="-91.0847">
					<stop  offset="1.963140e-03" style="stop-color:#D6E1F4"/>
					<stop  offset="0.6038" style="stop-color:#E7EDF8"/>
					<stop  offset="1" style="stop-color:#F4F7FC"/>
				</linearGradient>
				<path class="st7" d="M513.2,97.8c5.7,5.1,14.4,4.7,19.5-0.9c5.1-5.7,4.7-14.4-0.9-19.5c-5.7-5.1-14.4-4.7-19.5,0.9
					C507.1,84,507.5,92.7,513.2,97.8z"/>
				<linearGradient id="SVGID_9_" gradientUnits="userSpaceOnUse" x1="485.2913" y1="108.2322" x2="485.2913" y2="-198.7475">
					<stop  offset="1.963140e-03" style="stop-color:#D6E1F4"/>
					<stop  offset="0.6038" style="stop-color:#E7EDF8"/>
					<stop  offset="1" style="stop-color:#F4F7FC"/>
				</linearGradient>
				<path class="st8" d="M481,77.4c2.6,2.4,6.6,2.2,8.9-0.4c2.4-2.6,2.2-6.6-0.4-8.9c-2.6-2.4-6.6-2.2-8.9,0.4
					C478.3,71,478.4,75,481,77.4z"/>
				<linearGradient id="SVGID_10_" gradientUnits="userSpaceOnUse" x1="524.5889" y1="55.9509" x2="524.5889" y2="-251.0228">
					<stop  offset="1.963140e-03" style="stop-color:#D6E1F4"/>
					<stop  offset="0.6038" style="stop-color:#E7EDF8"/>
					<stop  offset="1" style="stop-color:#F4F7FC"/>
				</linearGradient>
				<path class="st9" d="M520.3,125c2.6,2.4,6.6,2.2,8.9-0.4c2.4-2.6,2.2-6.6-0.4-8.9c-2.6-2.4-6.6-2.2-8.9,0.4
					C517.5,118.6,517.7,122.6,520.3,125z"/>
			</g>
			<g>
				<linearGradient id="SVGID_11_" gradientUnits="userSpaceOnUse" x1="265.1682" y1="94.1351" x2="265.1682" y2="-91.0847">
					<stop  offset="1.963140e-03" style="stop-color:#D6E1F4"/>
					<stop  offset="0.6038" style="stop-color:#E7EDF8"/>
					<stop  offset="1" style="stop-color:#F4F7FC"/>
				</linearGradient>
				<path class="st10" d="M274.5,97.8c-5.7,5.1-14.4,4.7-19.5-0.9c-5.1-5.7-4.7-14.4,0.9-19.5c5.7-5.1,14.4-4.7,19.5,0.9
					C280.5,84,280.1,92.7,274.5,97.8z"/>
				<linearGradient id="SVGID_12_" gradientUnits="userSpaceOnUse" x1="301.0833" y1="108.2322" x2="301.0833" y2="-198.7475">
					<stop  offset="1.963140e-03" style="stop-color:#D6E1F4"/>
					<stop  offset="0.6038" style="stop-color:#E7EDF8"/>
					<stop  offset="1" style="stop-color:#F4F7FC"/>
				</linearGradient>
				<path class="st11" d="M305.3,77.4c-2.6,2.4-6.6,2.2-8.9-0.4c-2.4-2.6-2.2-6.6,0.4-8.9c2.6-2.4,6.6-2.2,8.9,0.4
					C308.1,71,307.9,75,305.3,77.4z"/>
				<linearGradient id="SVGID_13_" gradientUnits="userSpaceOnUse" x1="253.1041" y1="68.619" x2="253.1041" y2="-238.3547">
					<stop  offset="1.963140e-03" style="stop-color:#D6E1F4"/>
					<stop  offset="0.6038" style="stop-color:#E7EDF8"/>
					<stop  offset="1" style="stop-color:#F4F7FC"/>
				</linearGradient>
				<path class="st12" d="M257.4,137.6c-2.6,2.4-6.6,2.2-8.9-0.4c-2.4-2.6-2.2-6.6,0.4-8.9c2.6-2.4,6.6-2.2,8.9,0.4
					C260.1,131.3,260,135.3,257.4,137.6z"/>
			</g>
		</g>
	</g>
	<g>
		<path class="st13" d="M697.6,658.7c0,7.9-135.4,14.4-302.5,14.4s-302.5-6.4-302.5-14.4c0-7.9,135.4-14.4,302.5-14.4
			S697.6,650.8,697.6,658.7z"/>
		<g>
			<g>
				<g>
					<g>
						<path class="st14" d="M718.8,454.8c-9.9,7.6-15.2,15-18.5,27.1c-2.3,8.7-0.2,16.9-2.9,24.5c-1.1,3.2-5.8,2.6-6.1-0.8
							c-0.3-4.4,0.4-9.1,1.4-13.2c1.2-5.2,5-17.9-6.5-13.2c-11.2,4.6-4.9,22.6-3.6,35.5c0.4,4-5.5,4.9-6.2,0.9
							c-2-11.5,0.6-30.1-12.4-31c-15-1-1.7,27.6,1.1,33.9c1.8,4,11.5,21.8,0.7,18.6c-6.1-1.8-8.1-16.1-9-21.2
							c-0.9-5,1.1-16.3-2.9-19.8c-6.6-5.9-10,3.3-10.5,8.6c-1.2,12,14.2,24.7,14.1,36.6c0,2.8-3.4,4.1-5.4,2.1
							c-3.4-3.4-6-6.8-8.2-11.8c-2.7-6.3-1.4-12.4-3.5-18c-5.5-15.4-12.9,5.5-7.3,15.6c2.5,4.6,21.2,24.4,11.5,30.4c0,0,0,0-0.1,0
							c-0.2,0.1-0.4,0.2-0.6,0.3c-0.1,0-0.1,0.1-0.2,0.1c0,0-0.1,0-0.1,0c-9.1,3.6-20.2-36.2-21.8-41.8c-1.1-4.2,1.1-7.9,1.6-12
							c0.2-1.4-0.7-2.8-2-3.3c-19-7.5-7.4,24.4-3.7,31.7c3.2,6.3,7.8,14,8.5,21.1c0.6,6.9-2,18-9.1,10.9c-4-4-8.8-17.4-10.8-22.9
							c-2.6-6.9-2.3-13.5-3.5-20.7c-1-5.7-5.5-17.4-12-10c-3.3,3.7-1.1,14.2-0.1,18.5c3.2,13.1,21.8,27.9,17.7,42.2
							c-0.6,2-2.9,3-4.6,1.9c-10-6-14.8-28.5-18.1-37.7c-1.2-3.4-2.2-7.3-2.4-10.9c-0.2-3.8,2.5-8.5,1.5-12.1
							c-2.9-11.1-11.8-4.7-14.6,2.2c-6,14.4,2.2,25.9,12.4,35c5.3,4.7,24.1,24.2,7.6,26c-15.9,1.7-11.4-17.6-16.2-26.2
							c-3.4-6-9.9-7.5-13.6-13.3c-3.2-5-2.5-11.4-8.2-14.9c-5.8-3.7-10.8-2.7-11.5,4.3c-0.7,6.2,5.1,12.1,9.2,16.1
							c4.9,4.9,12.4,7.8,16,13.8c2.4,4,4.2,14.5-2.2,16.1c-6.4,1.6-20.5-17.6-23.7-22.1c-8.2-11.3-9.6-18.1-9.4-30.8
							c0-1.3-0.8-2.4-1.9-2.9c-9.2-4-12.6,7.5-10.6,15.6c2.4,9.3,9.4,15.7,16.5,21.7c4.3,3.6,18.2,12.7,15.4,19.1
							c-4.1,9-16.2,2.1-18.4-3c-3.5-8.4-1.5-13.2-10.7-19.2c-5.8-3.8-13.1-9-20.3-9.8c-9.4-1-13.5,4.9-5.4,11.8
							c5.9,5.1,14.4,4.8,21.3,8.1c7.9,3.8,15,14.9,4,20.3c-5.4,2.7-15.2,1.2-22.2-0.4c-1.9-0.4-3.8,1.1-3.8,3c0,1.9,0,4.1-0.1,6.1
							c0,0.5,0,1-0.1,1.4c-0.1,2,1.7,3.6,3.7,3.2c5.5-1,10.5-2.7,15.7-4.2c2.5-0.7,5.1-1.5,7.8-2.1c0.1,0,0.1,0,0.1,0
							c6.5-1.5,9-1.6,10.9,1.3c0.8,1.2,1.4,3,2.2,5.4c1.5,4.8,6.7,29.6,15.7,18.9c6.1-7.3-6.2-17.5-6.6-24.2c0-0.4,0-0.8,0-1.2
							c0-10,8.7-7.2,13.9-1.9c0.5,0.5,0.9,1,1.4,1.6c5.5,7.3,5.9,16.6,5.8,25.3c-0.1,5.9-1.8,17,6.9,18.5c12.4,2.2,6.6-16,3.7-21.5
							c-3.3-6.3-18.8-21.7-6.4-21.8c20.5-0.2,22.2,34.2,40.1,39.2c1.9,0.5,3.8-0.9,3.9-2.9c0.3-6.4-7-11.1-10.9-15.6
							c-2.7-3.1-15.5-16.7-15-19.9c1-6.3,12.3-4.6,16.9-2.4c11.6,5.5,11.6,20,14.2,30.7c3.2,13.4,18.1,18.4,16,1.7
							c-1.5-11.8-13-20.1-18.8-29.7c-9-14.5,6.6-6.6,13.2-1.3c6.2,5,10.5,12.9,13.4,20.3c4.3,11.3-1.5,28.5,13.1,33.9
							c21.8,8-2.3-40-6.4-46.2c-3.9-5.8-10.5-8.3-15.7-12.3c-5.6-4.3-9-11.5,1-11.7c6.2-0.1,10.4,6.3,13.5,10.4
							c7.6,9.8,12,26.3,23,32.8c17.3,10.1,19.2-7.6,8.5-17.5c-8.2-7.6-17.6-13.6-26.5-19.9c-2.8-2-13.2-8.8-6.4-10.9
							c3.1-0.9,11.1,4.7,13.7,6.1c9.5,5.2,16.2,12.4,24.8,18.8c5.6,4.2,32.6,14.1,25.4-0.6c-3.6-7.3-19.8-12.4-26.2-17.4
							c-2.9-2.3-12.2-6.7-18.3-10.6c-2.6-1.6-1.5-5.6,1.5-5.8c6.8-0.3,13.5,0.3,19.4,4.2c8.7,5.8,7,14.7,18.5,17.2
							c9,1.9,17.6-0.4,10.6-9.9c-4.6-6.3-14.6-10.3-21.3-13.9c-4.4-2.4-16.7-4.3-19.9-7.8c-8.2-8.9,10.7-2.8,14.6-1.6
							c6.4,2,47.3,17.9,44.6-1.1c-1.4-9.5-23.9-6.6-36.5-6.7c-3.2,0-4.3-4.2-1.6-5.8c12.7-7.6,33.5-1.6,43.9-10.6
							c10.4-8.9-3.4-10.5-11-9c-5.3,1.1-15,8-21.7,9c-2.7,0.4-4.6-2.8-2.9-5c5-6.7,14.9-14.6,20.1-18.9c7.2-6,28.5-8.2,29.3-19.3
							c0.8-11.1-12.7-2.5-20.1,3.2c-1.6,1.3-3,2.4-3.8,3.1c-3.1,2.8-8.9,10.4-14.5,15.7c-2.6,2.5-6.7-0.7-4.9-3.8
							c4.1-7.2,8.8-14.3,14-20.8c5-6.2,26.1-16.9,26.9-24.2C752,438.9,723.6,451,718.8,454.8z"/>
					</g>
				</g>
				<g>
					<g>
						<path class="st15" d="M718.3,389.2c-11.1,8.7-20.7,12.5-34.9,12.7c-10.2,0.1-18.6-4.5-27.6-3.6c-3.8,0.4-4.5,5.7-0.9,6.9
							c4.7,1.6,10.1,2.1,14.9,2.2c6.1,0.1,21-0.5,12.6,10.8c-8.2,11-26.2-0.9-39.9-5.9c-4.3-1.6-6.9,4.7-2.7,6.5
							c12.1,5.4,33.2,7.8,30.6,22.2c-3.1,16.8-30.8-5.9-36.8-10.7c-3.9-3.1-20.7-18.7-20.2-5.9c0.3,7.2,15.4,13.4,20.7,15.8
							c5.3,2.4,18.2,3.4,20.9,8.7c4.7,8.9-6.4,10-12.4,9.2c-13.5-2-23.1-22.4-36.3-25.6c-3.1-0.7-5.5,2.6-3.8,5.3
							c2.7,4.6,5.8,8.5,10.6,12.2c6.1,4.8,13.2,5,18.8,8.8c15.3,10.3-9.6,12.6-19.1,3.6c-4.3-4.1-20.8-30-30.1-21c0,0,0,0-0.1,0.1
							c-0.2,0.2-0.4,0.4-0.5,0.6c-0.1,0.1-0.1,0.1-0.1,0.2c0,0,0,0.1-0.1,0.1c-6.5,9,34,32.3,39.8,35.6c4.3,2.4,9,1,13.6,1.6
							c1.6,0.2,2.9,1.5,3.1,3.1c3,22.9-28.9,1.3-35.8-4.8c-6-5.3-13.2-12.5-20.8-15.1c-7.4-2.6-20.3-2.9-14.5,7
							c3.3,5.5,16.7,14.5,22.2,18.2c6.9,4.7,14.2,6.3,21.7,9.6c6,2.7,17.5,10.9,7.6,15.9c-5,2.5-15.9-2.8-20.3-5.1
							c-13.4-7.1-24.5-31.7-41.4-31.2c-2.3,0.1-4,2.3-3.3,4.5c3.8,12.6,27.1,24.2,36.3,30.4c3.4,2.3,7.4,4.4,11.3,5.7
							c4.1,1.3,10-0.3,13.7,1.7c11.3,6.2,1.9,14.2-6.4,15.4c-17.4,2.6-27.8-9.6-34.9-23.3c-3.7-7.1-19.8-33.1-26.4-15.6
							c-6.3,17,16.1,17.4,24.2,25c5.6,5.4,5.5,13,10.8,18.6c4.6,4.9,11.7,5.9,14.1,13.1c2.4,7.4,0,12.6-7.9,11.4
							c-7-1-11.8-9-15.1-14.5c-4-6.7-5.1-15.7-10.7-21.4c-3.7-3.7-14.7-8.7-18.2-2c-3.5,6.6,13.6,27.4,17.6,32.1
							c10.1,12.1,17.2,15.5,31.1,18.9c1.4,0.3,2.4,1.5,2.7,2.9c1.8,11.2-11.8,11.8-20,7.3c-9.5-5.2-14.6-14.7-19.2-24.1
							c-2.8-5.7-8.9-23.5-16.7-22.2c-11,2-6.9,17.2-1.8,21c8.2,6.2,14,5.4,18.1,17.1c2.6,7.4,6.2,16.9,5.1,25
							c-1.5,10.6-9.1,13.4-14.5,2.6c-3.9-7.9-1.3-17.1-3-25.6c-1.9-9.7-12.1-20.5-21.1-10.1c-4.4,5.2-5.5,16.4-5.8,24.5
							c-0.1,2.3-2.2,3.9-4.4,3.3c-2-0.5-4.5-1.1-6.7-1.6c-0.5-0.1-1.1-0.2-1.6-0.3c-2.3-0.5-3.5-2.9-2.5-5c2.6-5.7,5.8-10.7,9-16
							c1.5-2.6,3-5.2,4.5-7.9c0-0.1,0.1-0.1,0.1-0.2c3.5-6.7,4.3-9.5,1.6-12.3c-1.1-1.2-2.9-2.4-5.3-3.9c-4.9-3-30.6-15.6-16.4-22.5
							c9.7-4.7,17.4,11.7,24.7,14c0.4,0.1,0.9,0.3,1.3,0.3c10.9,2.8,10.4-7.5,5.9-14.7c-0.4-0.7-0.9-1.3-1.3-1.9
							c-6.5-8.1-16.6-11.1-26.1-13.5c-6.4-1.6-19.1-2.8-18.4-12.7c1.1-14.2,19.3-2.8,24.6,2c6,5.4,18.6,26.6,22.2,13.1
							c6-22.4-31.4-33.9-31.8-54.9c0-2.2,2-3.9,4.2-3.5c7.1,1.4,10.2,10.8,14,16.3c2.6,3.8,14,21.6,17.7,22
							c7.2,0.7,8.5-12.2,7.4-17.8c-2.8-14.2-18.7-18.3-29.7-24.2c-13.7-7.3-15.2-25,2.6-18c12.5,4.9,18.5,19.8,27.3,28.9
							c13.4,13.9,9.1-5.4,5.1-14.1c-3.8-8.2-11.2-15.1-18.5-20.3c-11.2-7.9-31.6-6.3-33.5-23.9c-2.7-26.1,43.2,13.7,48.8,19.9
							c5.3,5.9,6.2,13.8,9.1,20.6c3.2,7.3,10.1,13.1,13.1,2.2c1.8-6.7-4-13.1-7.6-17.7c-8.6-11-25.5-20.4-29.5-34.3
							c-6.3-21.7,13.7-18.9,21.6-4.5c6,11.1,10,23.1,14.4,34.6c1.4,3.6,6,16.9,10.1,10c1.9-3.2-2.1-13.5-2.9-16.7
							c-3-11.9-9.1-21.2-13.8-32.4c-3-7.3-6.4-39.7,7.7-27.6c7.1,6,8.1,25.2,11.8,33.6c1.7,3.8,4,15.2,6.5,23
							c1.1,3.3,5.8,3.3,6.8-0.1c2.3-7.4,3.5-14.9,0.8-22.5c-3.9-11.2-14.2-11.8-13.7-25.1c0.4-10.5,5.3-19.2,13.9-8.9
							c5.6,6.8,7.2,18.9,9.3,27.3c1.4,5.5,0.1,19.5,3,24c7.4,11.5,6.1-10.9,5.8-15.6c-0.4-7.6-6.5-56.9,13.6-48.6
							c10,4.1,0.6,28.1-2.8,41.9c-0.9,3.5,3.4,5.9,5.9,3.4c11.9-11.8,11.1-36.3,23.8-45.1c12.7-8.9,10.6,6.7,6.8,14.5
							c-2.7,5.5-13,14.2-16,21.3c-1.2,2.9,1.7,5.8,4.6,4.6c8.7-3.7,20.1-12.2,26.4-16.8c8.6-6.2,17-29,29.3-26.8
							c12.3,2.2-0.8,14.6-9.1,21.1c-1.8,1.4-3.5,2.6-4.5,3.3c-4,2.6-13.9,6.9-21.3,11.5c-3.4,2.2-1.1,7.5,2.8,6.4
							c9-2.5,18.1-5.6,26.7-9.6c8.2-3.7,25.8-23.9,34-22.7C745,357.1,723.8,384.9,718.3,389.2z"/>
					</g>
				</g>
				<g>
					<g>
						<g>
							<path class="st16" d="M605,508.3L605,508.3c-0.3,0.3-0.6,0.6-1,0.8C604.3,508.9,604.6,508.6,605,508.3z"/>
							<path class="st16" d="M533.2,596L533.2,596c-0.1,0.2-0.2,0.4-0.4,0.7C532.9,596.5,533,596.2,533.2,596z"/>
							<path class="st16" d="M515.4,634.6c0.3-0.9,0.7-1.8,1-2.6c0.3-0.8,0.6-1.6,0.9-2.4c0.8-2.1,1.7-4.1,2.5-6.1
								c4.3-0.1,8.4-0.6,12.1-1.2c3.8-0.7,2.9-6.4-0.9-6c-3.3,0.4-6.2,0.5-8.3,0.6c0.8-1.8,1.7-3.6,2.5-5.4c0.4-0.8,0.8-1.6,1.1-2.4
								c1.4-2.9,2.9-5.8,4.4-8.6c0.3-0.6,0.6-1.2,0.9-1.7c0.5-0.9,1-1.8,1.5-2.8c0,0,0,0,0,0c3.9,1.2,7.7,2.1,11.3,2.7
								c3.9,0.6,4.9-5,1.1-5.9c-3.9-0.9-7-1.8-9.2-2.5c1-1.8,2-3.5,3.1-5.2c0.4-0.7,0.8-1.4,1.3-2.1c0.6-1,1.2-1.9,1.8-2.9
								c0.4-0.6,0.8-1.2,1.2-1.9c0.4-0.6,0.7-1.2,1.1-1.7c0.3-0.5,0.7-1.1,1-1.6c0.3-0.5,0.6-1,1-1.5c0.5-0.7,0.9-1.4,1.4-2.1
								c0,0,0,0,0,0c5.4,2,10.5,3.3,15.4,4c3.8,0.6,4.9-5,1.1-5.9c-7.4-1.7-12.3-3.6-12.3-3.6s-0.3,0.2-0.8,0.5
								c0.5-0.7,0.9-1.3,1.4-2c0.5-0.7,1-1.4,1.5-2c0.6-0.8,1.1-1.5,1.7-2.3c0.1-0.2,0.3-0.4,0.4-0.6c0.4-0.6,0.9-1.2,1.3-1.8
								c0.1-0.1,0.1-0.2,0.2-0.2c0.3-0.4,0.5-0.7,0.8-1.1c1.2-1.5,2.3-3,3.5-4.4c0.5-0.7,1.1-1.3,1.6-2c0.5-0.6,1-1.3,1.6-1.9
								c0.4-0.5,0.8-0.9,1.2-1.4c0.5-0.6,0.9-1.1,1.4-1.7c0.6-0.8,1.3-1.5,1.9-2.2c0-0.1,0.1-0.1,0.1-0.2c0.5-0.6,1.1-1.3,1.7-1.9
								c0.2-0.2,0.4-0.4,0.6-0.6c0.4-0.5,0.9-1,1.3-1.4c0.7-0.7,1.3-1.5,2-2.2c0.4-0.4,0.7-0.8,1.1-1.1c0.2-0.2,0.3-0.4,0.5-0.5
								c0.3-0.4,0.7-0.7,1-1.1c0.1-0.1,0.2-0.3,0.4-0.4c0.5-0.5,1-1.1,1.5-1.6c1.6-1.7,3.2-3.3,4.8-4.9c1-0.2,1.9-0.3,2.9-0.5
								c5.4,2.6,13.7,5.6,23.8,5.5c3.6-0.1,4.1-5.3,0.5-6c-6.4-1.2-13.4-3.3-19.1-6.9c2.6-2.4,5.1-4.7,7.7-6.9
								c0.4-0.4,0.8-0.7,1.2-1.1c0.8-0.7,1.5-1.3,2.3-2c0.5-0.1,0.9-0.1,1.4-0.2c5.2,2.8,14.2,6.3,25.1,6.1c3.6-0.1,4.1-5.3,0.5-6
								c-6.3-1.2-13.2-3.2-18.8-6.7c0,0,0,0,0,0c0.7-0.6,1.4-1.1,2.1-1.6c0.5-0.4,1.1-0.9,1.6-1.3c0.8-0.6,1.7-1.3,2.5-1.9
								c0.7-0.5,1.4-1,2-1.5c2.7-2,5.4-3.9,8-5.7l0,0c3.2,1.3,7.5,2.7,12.5,3.2c3.7,0.4,4.6-5.1,1-5.9c-2.2-0.5-4.3-1.2-6.4-2
								c0.4-0.3,0.8-0.5,1.2-0.8c0.4-0.2,0.7-0.5,1.1-0.7c1.5-1,2.9-1.9,4.4-2.7c1-0.6,2-1.2,2.9-1.8c0.3-0.2,0.7-0.4,1-0.6
								c0.5-0.3,1-0.6,1.5-0.9c2.8-1.6,5.4-3.1,7.9-4.4c0.3-0.2,0.6-0.3,0.9-0.5c1.7-0.9,3.4-1.8,4.9-2.6c0.5-0.3,1-0.5,1.5-0.7
								c2.9-1.4,5.4-2.6,7.6-3.6c0.2-0.1,0.3-0.2,0.5-0.2c0.5-0.2,1-0.4,1.5-0.6c0.2-0.1,0.3-0.1,0.5-0.2c0.8-0.4,1.6-0.7,2.2-0.9
								c0.2-0.1,0.3-0.1,0.4-0.2c1.1-0.4,1.8-0.7,2.2-0.8c-2.1,0.5-4.2,1-6.3,1.5c7.4-2.8,13.8-4.8,18.9-6.1c0.1,0.6,0.1,1.2,0,1.9
								c-2.2,30.3-6.3,73.1-43.6,90.9c-21.7-3.2-59.3-7.1-76,0.8l67.7,10.4c-7.1,9.3-13.9,17.6-19.6,24.3
								c-24.9,29.2-60.4,47.4-98.7,50.3c-2.4,0.2-4.5,0.3-6.1,0.3c0.3-0.9,0.7-1.8,1-2.6C515.4,634.7,515.4,634.6,515.4,634.6z"/>
							<path class="st17" d="M510.5,626.2c1.1-2.4,2.2-4.8,3.3-7.1c0,0,0,0,0,0C512.8,621.4,511.6,623.8,510.5,626.2z"/>
							<path class="st17" d="M603.7,497.9c-0.5,0.4-1,0.7-1.5,1.1C602.7,498.6,603.2,498.2,603.7,497.9L603.7,497.9z"/>
							<path class="st17" d="M556.9,545.9c-1.2,1.6-2.4,3.2-3.6,4.8C554.5,549.1,555.7,547.5,556.9,545.9z"/>
							<path class="st17" d="M662.9,467c1.2-0.4,2.5-0.8,3.7-1.1C665.4,466.3,664.1,466.6,662.9,467z"/>
							<path class="st17" d="M640.6,475.6c-2.4,1.1-4.8,2.3-7.2,3.5C635.7,477.8,638.1,476.7,640.6,475.6L640.6,475.6z"/>
							<path class="st17" d="M569.2,530.7c2-2.4,4.1-4.7,6.2-6.9C573.2,526,571.2,528.3,569.2,530.7z"/>
							<path class="st17" d="M566.7,533.5C566.7,533.5,566.7,533.5,566.7,533.5c0.8-1,1.6-1.9,2.4-2.8
								C568.3,531.6,567.5,532.6,566.7,533.5z"/>
							<path class="st17" d="M540.7,569.6c-1.7,2.6-3.3,5.3-4.9,8C537.4,574.9,539,572.2,540.7,569.6
								C540.7,569.6,540.7,569.6,540.7,569.6z"/>
							<path class="st17" d="M545.3,562.5L545.3,562.5c2.6-4,5.3-7.9,8.1-11.7C550.6,554.6,547.9,558.5,545.3,562.5z"/>
							<path class="st17" d="M517.6,611.3c0.4-0.8,0.8-1.7,1.2-2.5C518.4,609.7,518,610.5,517.6,611.3L517.6,611.3z"/>
							<path class="st17" d="M529.6,588.3c2-3.6,4-7.1,6.1-10.6C533.7,581.1,531.7,584.7,529.6,588.3z"/>
							<path class="st16" d="M671.7,464.5c-0.8,0.2-1.7,0.4-2.5,0.7c-0.9,0.2-1.7,0.5-2.6,0.7c-1.2,0.4-2.5,0.7-3.7,1.1
								c-1.2,0.4-2.5,0.8-3.7,1.2c-0.6,0.2-1.2,0.4-1.8,0.6c-3,1-6,2.2-8.9,3.3c-1.3-2.3-1.2-5.5-0.6-8.6c0.5-2.7-3.2-3.9-4.5-1.5
								c-2.6,5.1-3,10.4-2.8,13.5c-2.4,1.1-4.9,2.3-7.2,3.5c-0.8,0.4-1.6,0.8-2.4,1.2c-0.8,0.4-1.6,0.8-2.3,1.3
								c-0.8,0.4-1.6,0.9-2.3,1.3c-0.7,0.4-1.5,0.8-2.2,1.3c-0.8,0.5-1.6,0.9-2.4,1.4c6.9-7.3,15-25.9,19.7-37.7
								c15.6-1.6,30.9-0.1,45,5.5c2.2,0.9,3.7,2.8,4.1,5.1C685.5,459.7,679.1,461.7,671.7,464.5
								C671.7,464.5,671.7,464.5,671.7,464.5z"/>
							<path class="st16" d="M617.4,488.2c-0.1,0.1-0.3,0.2-0.4,0.3c-0.5,0.3-1,0.7-1.5,1c-0.6,0.4-1.3,0.8-1.9,1.3
								c-0.4,0.3-0.8,0.5-1.1,0.8c-0.5,0.3-0.9,0.6-1.4,0.9c-0.4,0.3-0.8,0.5-1.2,0.8c0,0,0,0-0.1,0c-0.1-3.1,0.3-6.2,0.9-9.1
								c0.6-2.9-3.5-4-4.6-1.3c-2.2,5.7-2.6,11.1-2.5,14.9c-0.5,0.4-1,0.7-1.5,1.1c-0.5,0.4-1,0.8-1.4,1.1c-0.5,0.4-1,0.8-1.4,1.1
								c-0.5,0.4-1,0.8-1.4,1.2c-0.5,0.4-0.9,0.8-1.4,1.2c-0.5,0.4-0.9,0.8-1.4,1.2c-0.9,0.8-1.9,1.6-2.8,2.4
								c-1.2-3.7-1.6-7.8-1.7-11.6c0-2.9-4.3-3.2-4.7-0.3c-1.2,6.9,0,13,1,16.8c-0.4,0.3-0.8,0.7-1.1,1.1c-0.1,0.1-0.2,0.2-0.3,0.3
								c-0.3,0.3-0.7,0.6-1,1c-0.2,0.2-0.4,0.4-0.6,0.5c-0.7,0.7-1.5,1.5-2.2,2.2c-0.4,0.4-0.9,0.9-1.3,1.3
								c-0.4,0.4-0.9,0.9-1.3,1.3c-0.4,0.4-0.9,0.9-1.3,1.3c-0.8,0.9-1.7,1.8-2.5,2.7c-2.1,2.3-4.2,4.6-6.2,6.9
								c-0.8,0.9-1.6,1.9-2.4,2.8c-2.6-6.4-3.7-13.7-3.7-21.7c0-2.9-4.2-3.2-4.7-0.4c-2.6,13.3-0.1,24.8,1.6,30.5
								c-0.3,0.4-0.7,0.9-1,1.3c-0.2,0.2-0.4,0.5-0.5,0.7c-0.3,0.4-0.5,0.7-0.8,1.1c-0.2,0.3-0.5,0.6-0.7,0.9
								c-1.2,1.6-2.4,3.2-3.6,4.8c-2.8,3.8-5.5,7.7-8.1,11.7c-1.3-4.4-3.2-12-4-20.8c-0.3-3-4.6-2.9-4.8,0.1
								c-0.3,8.1,0.7,17.5,4.1,27.8c-1.7,2.6-3.3,5.3-4.9,8c0,0,0,0,0,0c-2.1,3.5-4.1,7-6.1,10.6c-0.6,1.1-1.2,2.1-1.8,3.2
								c-2.2-10.6-3-56.2-3.3-81c26.9-27.7,65.5-52.6,103.6-60.6l-8.2,36.7c-0.6,0.4-1.2,0.8-1.8,1.2
								C617.9,487.9,617.7,488.1,617.4,488.2z"/>
							<path class="st16" d="M527.8,591.7c-0.4,0.8-0.9,1.6-1.3,2.4c-0.4,0.8-0.9,1.6-1.3,2.4c-0.4,0.8-0.9,1.6-1.3,2.4
								c-0.4,0.8-0.9,1.6-1.3,2.5c-0.4,0.8-0.8,1.6-1.3,2.5c-0.8,1.6-1.7,3.3-2.5,5c-0.4,0.8-0.8,1.7-1.2,2.5
								c-5.1-8-8.4-17.2-10.4-25.4c-0.8-3-5.2-2-4.6,1c2.5,12.9,8.5,26.2,11.4,32c-1.1,2.4-2.2,4.7-3.3,7.1
								c-0.6,1.2-1.1,2.4-1.6,3.6c-0.5,1.2-1.1,2.4-1.6,3.6c-3-4.2-5.6-8.8-7.7-13.7c-13.1-29.9-9-64.2,9.3-90.8
								C510.6,564.7,525.7,588.5,527.8,591.7z"/>
						</g>
					</g>
					<path class="st16" d="M527.8,591.7c-0.4,0.8-0.9,1.6-1.3,2.4c-0.4,0.8-0.9,1.6-1.3,2.4c-0.4,0.8-0.9,1.6-1.3,2.4
						c-0.4,0.8-0.9,1.6-1.3,2.5c-0.4,0.8-0.8,1.6-1.3,2.5c-0.8,1.6-1.7,3.3-2.5,5c-0.4,0.8-0.8,1.7-1.2,2.5
						c-5.1-7.9-8.4-16.7-10.6-24.5c-0.9-3.1-5.6-2-4.9,1.2c2.7,12.5,8.9,25.1,11.8,31c-1.1,2.4-2.2,4.7-3.3,7.1
						c-0.6,1.2-1.1,2.4-1.6,3.6c-0.5,1.2-1.1,2.4-1.6,3.6c-3-4.2-5.6-8.8-7.7-13.7c-13.1-29.9-9-64.2,9.3-90.8
						C510.6,564.7,525.7,588.5,527.8,591.7z"/>
					<path class="st18" d="M510.5,626.2c1.1-2.4,2.2-4.8,3.3-7.1c0,0,0,0,0,0c-3.8-7.7-12.8-27.8-12.5-43.5c0-2.2,3.2-2.4,3.6-0.2
						c1.6,9.7,5.1,24.3,12.7,36.1l0,0c0.4-0.8,0.8-1.7,1.2-2.5c0.8-1.7,1.7-3.3,2.5-5c0.4-0.8,0.8-1.6,1.3-2.5
						c0.4-0.8,0.9-1.6,1.3-2.5c0.4-0.8,0.9-1.6,1.3-2.4c0.4-0.8,0.9-1.6,1.3-2.4c0.4-0.8,0.9-1.6,1.3-2.4c0-0.1,0.1-0.1,0.1-0.2
						c0.6-1.1,1.2-2.1,1.8-3.2c2-3.6,4-7.1,6.1-10.6c0,0,0,0,0,0c1.6-2.7,3.2-5.4,4.9-8c0,0,0,0,0,0c-4.7-14.3-4.8-26.7-3.3-36.4
						c0.3-2.2,3.6-1.9,3.6,0.3c0,12.1,2.7,23.2,4.3,29l0,0c2.6-4,5.3-7.9,8.1-11.7c1.2-1.6,2.4-3.2,3.6-4.8c0.2-0.3,0.5-0.6,0.7-0.9
						c0.3-0.4,0.5-0.7,0.8-1.1c0.2-0.2,0.4-0.5,0.5-0.7c0.2-0.2,0.3-0.4,0.5-0.6c0.3-0.4,0.5-1,0.3-1.6c-2-6.8-4.5-20.2,0-35.2
						c0.6-2,3.6-1.5,3.5,0.6c-0.5,10,0.4,19.2,3.5,27.1c0,0,0,0,0,0c0.8-1,1.6-1.9,2.4-2.8c2-2.3,4.1-4.7,6.2-6.9
						c0.8-0.9,1.7-1.8,2.5-2.7c0.4-0.5,0.8-0.9,1.3-1.3c0.4-0.4,0.9-0.9,1.3-1.3c0.4-0.4,0.9-0.9,1.3-1.3c0.7-0.7,1.5-1.5,2.2-2.2
						c0.2-0.2,0.4-0.4,0.6-0.5c0.3-0.3,0.7-0.7,1-1c0.1-0.1,0.2-0.2,0.3-0.3c0.1-0.1,0.2-0.2,0.4-0.3c0.5-0.4,0.7-1.1,0.5-1.7
						c-1.3-4.9-2.3-12.8,0.7-21.4c0.7-2,3.6-1.4,3.5,0.7c-0.3,4.2-0.3,9.3,0.7,14c0.3,1.3,1.9,1.9,2.9,1c0.2-0.2,0.4-0.4,0.6-0.5
						c0.5-0.4,0.9-0.8,1.4-1.2c0.5-0.4,0.9-0.8,1.4-1.2c0.5-0.4,0.9-0.8,1.4-1.2c0.5-0.4,0.9-0.8,1.4-1.1c0.5-0.4,1-0.8,1.4-1.1
						c0.5-0.4,1-0.8,1.5-1.1l0,0c-0.1-5.1,0.6-12.7,5-20.2c1.1-1.8,3.8-0.6,3.2,1.4c-1.2,4.2-2.2,9.3-2.1,14.2c0,0,0,0,0.1,0
						c0.4-0.3,0.8-0.6,1.2-0.8c0.5-0.3,0.9-0.6,1.4-0.9c0.4-0.3,0.8-0.5,1.1-0.8c0.6-0.4,1.3-0.8,1.9-1.3c0.5-0.3,1-0.7,1.5-1
						c0.1-0.1,0.3-0.2,0.4-0.3c0.2-0.2,0.5-0.3,0.7-0.5c0.6-0.4,1.2-0.8,1.8-1.2c0.6-0.4,1.1-0.7,1.7-1.1c0.8-0.5,1.6-1,2.4-1.4
						c0.7-0.4,1.4-0.8,2.2-1.3c0.8-0.4,1.5-0.9,2.3-1.3c0.8-0.4,1.6-0.9,2.3-1.3c0.8-0.4,1.6-0.8,2.4-1.2c2.4-1.2,4.8-2.4,7.2-3.5
						l0,0c-0.1-3.8,0.4-10.8,5-16.9c1.2-1.6,3.7-0.3,3.1,1.6c-1,3.2-1.6,7-0.9,10c0.3,1,1.4,1.6,2.4,1.2c2.4-0.9,4.8-1.8,7.2-2.7
						c0.6-0.2,1.2-0.4,1.8-0.6c1.2-0.4,2.4-0.8,3.7-1.2c1.2-0.4,2.5-0.8,3.7-1.1c0.9-0.2,1.7-0.5,2.6-0.7c0.8-0.2,1.7-0.5,2.5-0.7
						c0,0,0,0,0,0c2.1-0.5,4.2-1.1,6.3-1.5c-0.4,0.1-1.1,0.4-2.2,0.8c-0.1,0.1-0.3,0.1-0.4,0.2c-0.6,0.3-1.4,0.6-2.2,0.9
						c-0.1,0.1-0.3,0.1-0.5,0.2c-0.5,0.2-1,0.4-1.5,0.6c-0.2,0.1-0.3,0.2-0.5,0.2c-2.1,1-4.7,2.2-7.6,3.6c-0.5,0.2-1,0.5-1.5,0.7
						c-1.6,0.8-3.2,1.7-4.9,2.6c-0.3,0.2-0.6,0.3-0.9,0.5c-2.5,1.3-5.1,2.8-7.9,4.4c-0.5,0.3-1,0.6-1.5,0.9c-0.3,0.2-0.7,0.4-1,0.6
						c-1,0.6-1.9,1.2-2.9,1.8c-1.4,0.9-2.9,1.8-4.4,2.7c-0.4,0.2-0.7,0.5-1.1,0.7c-0.4,0.3-0.8,0.5-1.2,0.8
						c5.8,2.4,12.5,3.3,17.8,3.7c2.1,0.1,2.3,3.1,0.3,3.5c-10.4,2.3-19.5-0.1-25.1-2.4l0,0c-2.6,1.8-5.3,3.7-8,5.7
						c-0.7,0.5-1.4,1-2,1.5c-0.8,0.6-1.7,1.3-2.5,1.9c-0.5,0.4-1.1,0.8-1.6,1.3c0,0,0,0,0,0c0.1,1.5,0.1,1.5,0.2,3
						c8.2,4.3,18.3,6,25.6,6.7c2,0.2,2.2,3.1,0.2,3.5c-15.9,3.6-29.2-1.8-35.7-5.3l0,0c-0.3,0.3-0.7,0.5-1,0.8
						c-0.6,0.6-1.3,1.1-2,1.7c-0.4,0.4-0.8,0.7-1.2,1.1c-2,1.7-3.9,3.5-5.9,5.3c-0.9,0.8-0.7,2.3,0.3,2.9c8.3,4.5,18.7,6.2,26.1,6.9
						c2,0.2,2.2,3.1,0.2,3.5c-13.7,3.1-25.4-0.4-32.6-3.8c-1.6,0.3-3.3,0.6-4.9,0.9c-1.3,1.3-2.6,2.6-3.8,4c-0.5,0.5-1,1.1-1.5,1.6
						c-0.1,0.1-0.2,0.2-0.3,0.4c-0.4,0.4-0.7,0.8-1.1,1.1c-0.2,0.2-0.3,0.3-0.5,0.5c-0.4,0.4-0.7,0.8-1.1,1.1
						c-0.7,0.7-1.3,1.5-2,2.2c-0.4,0.5-0.9,1-1.3,1.4c-0.2,0.2-0.4,0.4-0.6,0.6c-0.6,0.6-1.1,1.3-1.7,1.9c-0.1,0.1-0.1,0.1-0.1,0.2
						c-0.6,0.7-1.3,1.5-1.9,2.2c-0.5,0.6-0.9,1.1-1.4,1.7c-0.4,0.5-0.8,0.9-1.2,1.4c-0.5,0.6-1,1.3-1.6,1.9c-0.5,0.7-1.1,1.3-1.6,2
						c-1.2,1.5-2.3,2.9-3.5,4.4c-0.3,0.4-0.5,0.7-0.8,1.1c-0.1,0.1-0.1,0.2-0.2,0.2c-0.4,0.6-0.9,1.2-1.3,1.8
						c-0.1,0.2-0.3,0.4-0.4,0.6c-0.6,0.7-1.1,1.5-1.7,2.3c-0.5,0.7-1,1.4-1.5,2c-0.5,0.7-0.9,1.3-1.4,2c0.5-0.3,0.8-0.5,0.8-0.5
						s15.5,6,33,6.2c2.2,0,2.4,3.2,0.3,3.6c-9.7,1.3-22,1-36.1-3.9c-0.8,0.3-1.3,0.4-2.1,0.7c-0.2,0.3-0.4,0.6-0.6,0.9
						c-0.3,0.5-0.6,1-1,1.5c-0.4,0.5-0.7,1.1-1,1.6c-0.4,0.6-0.7,1.2-1.1,1.7c-0.4,0.6-0.8,1.2-1.2,1.9c-0.6,0.9-1.2,1.9-1.8,2.9
						c-0.4,0.7-0.9,1.4-1.3,2.1c-0.6,1.1-1.3,2.2-1.9,3.3c-0.6,1-0.1,2.3,1,2.6c6,1.8,16.4,4.3,27.7,4.5c2.2,0,2.4,3.2,0.2,3.5
						c-9,1.3-20.4,1.1-33.4-2.9l0,0c-0.1,0.2-0.2,0.4-0.4,0.7c-0.4,0.7-0.8,1.4-1.1,2.1c-0.3,0.6-0.6,1.1-0.9,1.7
						c-1.5,2.8-2.9,5.7-4.4,8.6c-0.4,0.8-0.8,1.6-1.1,2.4c-0.4,0.9-0.9,1.8-1.3,2.7c-0.6,1.2,0.4,2.6,1.7,2.5
						c6.4-0.4,16.1-1.5,25.8-4.7c2.1-0.7,3.3,2.3,1.4,3.3c-8,4.1-18.6,7.6-31.8,8.1c-0.7,0-1.3,0.4-1.6,1.1
						c-0.7,1.7-1.4,3.4-2.1,5.1c-0.3,0.8-0.6,1.6-0.9,2.4c-0.3,0.9-0.7,1.8-1,2.6c0,0,0,0.1-0.1,0.1c-0.2,0.5-0.4,1-0.6,1.5
						c-0.3,0.7-0.9,1.1-1.6,1.2c-0.3,0-0.6,0-0.9,0c-0.4,0-0.7,0-1,0c-0.5,0-1-0.2-1.3-0.6c-0.7-0.8-1.4-1.6-2-2.5
						c-0.4-0.5-0.5-1.2-0.2-1.8c0.4-0.9,0.8-1.8,1.2-2.7C509.5,628.6,510,627.4,510.5,626.2z"/>
				</g>
			</g>
			<g>
				<g>
					<g>
						<path class="st14" d="M71.5,454.8c9.9,7.6,15.2,15,18.5,27.1c2.3,8.7,0.2,16.9,2.9,24.5c1.1,3.2,5.8,2.6,6.1-0.8
							c0.3-4.4-0.4-9.1-1.4-13.2c-1.2-5.2-5-17.9,6.5-13.2c11.2,4.6,4.9,22.6,3.6,35.5c-0.4,4,5.5,4.9,6.2,0.9
							c2-11.5-0.6-30.1,12.4-31c15-1,1.7,27.6-1.1,33.9c-1.8,4-11.5,21.8-0.7,18.6c6.1-1.8,8.1-16.1,9-21.2c0.9-5-1.1-16.3,2.9-19.8
							c6.6-5.9,10,3.3,10.5,8.6c1.2,12-14.2,24.7-14.1,36.6c0,2.8,3.4,4.1,5.4,2.1c3.4-3.4,6-6.8,8.2-11.8c2.7-6.3,1.4-12.4,3.5-18
							c5.5-15.4,12.9,5.5,7.3,15.6c-2.5,4.6-21.2,24.4-11.5,30.4c0,0,0,0,0.1,0c0.2,0.1,0.4,0.2,0.6,0.3c0.1,0,0.1,0.1,0.2,0.1
							c0,0,0.1,0,0.1,0c9.1,3.6,20.2-36.2,21.8-41.8c1.1-4.2-1.1-7.9-1.6-12c-0.2-1.4,0.7-2.8,2-3.3c19-7.5,7.4,24.4,3.7,31.7
							c-3.2,6.3-7.8,14-8.5,21.1c-0.6,6.9,2,18,9.1,10.9c4-4,8.8-17.4,10.8-22.9c2.6-6.9,2.3-13.5,3.5-20.7c1-5.7,5.5-17.4,12-10
							c3.3,3.7,1.1,14.2,0.1,18.5c-3.2,13.1-21.8,27.9-17.7,42.2c0.6,2,2.9,3,4.6,1.9c10-6,14.8-28.5,18.1-37.7
							c1.2-3.4,2.2-7.3,2.4-10.9c0.2-3.8-2.5-8.5-1.5-12.1c2.9-11.1,11.8-4.7,14.6,2.2c6,14.4-2.2,25.9-12.4,35
							c-5.3,4.7-24.1,24.2-7.6,26c15.9,1.7,11.4-17.6,16.2-26.2c3.4-6,9.9-7.5,13.6-13.3c3.2-5,2.5-11.4,8.2-14.9
							c5.8-3.7,10.8-2.7,11.5,4.3c0.7,6.2-5.1,12.1-9.2,16.1c-4.9,4.9-12.4,7.8-16,13.8c-2.4,4-4.2,14.5,2.2,16.1
							c6.4,1.6,20.5-17.6,23.7-22.1c8.2-11.3,9.6-18.1,9.4-30.8c0-1.3,0.8-2.4,1.9-2.9c9.2-4,12.6,7.5,10.6,15.6
							c-2.4,9.3-9.4,15.7-16.5,21.7c-4.3,3.6-18.2,12.7-15.4,19.1c4.1,9,16.2,2.1,18.4-3c3.5-8.4,1.5-13.2,10.7-19.2
							c5.8-3.8,13.1-9,20.3-9.8c9.4-1,13.5,4.9,5.4,11.8c-5.9,5.1-14.4,4.8-21.3,8.1c-7.9,3.8-15,14.9-4,20.3
							c5.4,2.7,15.2,1.2,22.2-0.4c1.9-0.4,3.8,1.1,3.8,3c0,1.9,0,4.1,0.1,6.1c0,0.5,0,1,0.1,1.4c0.1,2-1.7,3.6-3.7,3.2
							c-5.5-1-10.5-2.7-15.7-4.2c-2.5-0.7-5.1-1.5-7.8-2.1c-0.1,0-0.1,0-0.1,0c-6.5-1.5-9-1.6-10.9,1.3c-0.8,1.2-1.4,3-2.2,5.4
							c-1.5,4.8-6.7,29.6-15.7,18.9c-6.1-7.3,6.2-17.5,6.6-24.2c0-0.4,0-0.8,0-1.2c0-10-8.7-7.2-13.9-1.9c-0.5,0.5-0.9,1-1.4,1.6
							c-5.5,7.3-5.9,16.6-5.8,25.3c0.1,5.9,1.8,17-6.9,18.5c-12.4,2.2-6.6-16-3.7-21.5c3.3-6.3,18.8-21.7,6.4-21.8
							c-20.5-0.2-22.2,34.2-40.1,39.2c-1.9,0.5-3.8-0.9-3.9-2.9c-0.3-6.4,7-11.1,10.9-15.6c2.7-3.1,15.5-16.7,15-19.9
							c-1-6.3-12.3-4.6-16.9-2.4c-11.6,5.5-11.6,20-14.2,30.7c-3.2,13.4-18.1,18.4-16,1.7c1.5-11.8,13-20.1,18.8-29.7
							c9-14.5-6.6-6.6-13.2-1.3c-6.2,5-10.5,12.9-13.4,20.3c-4.3,11.3,1.5,28.5-13.1,33.9c-21.8,8,2.3-40,6.4-46.2
							c3.9-5.8,10.5-8.3,15.7-12.3c5.6-4.3,9-11.5-1-11.7c-6.2-0.1-10.4,6.3-13.5,10.4c-7.6,9.8-12,26.3-23,32.8
							c-17.3,10.1-19.2-7.6-8.5-17.5c8.2-7.6,17.6-13.6,26.5-19.9c2.8-2,13.2-8.8,6.4-10.9c-3.1-0.9-11.1,4.7-13.7,6.1
							c-9.5,5.2-16.2,12.4-24.8,18.8c-5.6,4.2-32.6,14.1-25.4-0.6c3.6-7.3,19.8-12.4,26.2-17.4c2.9-2.3,12.2-6.7,18.3-10.6
							c2.6-1.6,1.5-5.6-1.5-5.8c-6.8-0.3-13.5,0.3-19.4,4.2c-8.7,5.8-7,14.7-18.5,17.2c-9,1.9-17.6-0.4-10.6-9.9
							c4.6-6.3,14.6-10.3,21.3-13.9c4.4-2.4,16.7-4.3,19.9-7.8c8.2-8.9-10.7-2.8-14.6-1.6c-6.4,2-47.3,17.9-44.6-1.1
							c1.4-9.5,23.9-6.6,36.5-6.7c3.2,0,4.3-4.2,1.6-5.8c-12.7-7.6-33.5-1.6-43.9-10.6c-10.4-8.9,3.4-10.5,11-9c5.3,1.1,15,8,21.7,9
							c2.7,0.4,4.6-2.8,2.9-5c-5-6.7-14.9-14.6-20.1-18.9c-7.2-6-28.5-8.2-29.3-19.3c-0.8-11.1,12.7-2.5,20.1,3.2
							c1.6,1.3,3,2.4,3.8,3.1c3.1,2.8,8.9,10.4,14.5,15.7c2.6,2.5,6.7-0.7,4.9-3.8c-4.1-7.2-8.8-14.3-14-20.8
							c-5-6.2-26.1-16.9-26.9-24.2C38.2,438.9,66.6,451,71.5,454.8z"/>
					</g>
				</g>
				<g>
					<g>
						<path class="st15" d="M92.6,372.1c11.1,8.7,20.7,12.5,34.9,12.7c10.2,0.1,18.6-4.5,27.6-3.6c3.8,0.4,4.5,5.7,0.9,6.9
							c-4.7,1.6-10.1,2.1-14.9,2.2c-6.1,0.1-21-0.5-12.6,10.8c8.2,11,26.2-0.9,39.9-5.9c4.3-1.6,6.9,4.7,2.7,6.5
							c-12.1,5.4-33.2,7.8-30.6,22.2c3.1,16.8,30.8-5.9,36.8-10.7c3.9-3.1,20.7-18.7,20.2-5.9c-0.3,7.2-15.4,13.4-20.7,15.8
							c-5.3,2.4-18.2,3.4-20.9,8.7c-4.7,8.9,6.4,10,12.4,9.2c13.5-2,23.1-22.4,36.3-25.6c3.1-0.7,5.5,2.6,3.8,5.3
							c-2.7,4.6-5.8,8.5-10.6,12.2c-6.1,4.8-13.2,5-18.8,8.8c-15.3,10.3,9.6,12.6,19.1,3.6c4.3-4.1,20.8-30,30.1-21c0,0,0,0,0.1,0.1
							c0.2,0.2,0.4,0.4,0.5,0.6c0.1,0.1,0.1,0.1,0.1,0.2c0,0,0,0.1,0.1,0.1c6.5,9-34,32.3-39.8,35.6c-4.3,2.4-9,1-13.6,1.6
							c-1.6,0.2-2.9,1.5-3.1,3.1c-3,22.9,28.9,1.3,35.8-4.8c6-5.3,13.2-12.5,20.8-15.1c7.4-2.6,20.3-2.9,14.5,7
							c-3.3,5.5-16.7,14.5-22.2,18.2c-6.9,4.7-14.2,6.3-21.7,9.6c-6,2.7-17.5,10.9-7.6,15.9c5,2.5,15.9-2.8,20.3-5.1
							c13.4-7.1,24.5-31.7,41.4-31.2c2.3,0.1,4,2.3,3.3,4.5c-3.8,12.6-27.1,24.2-36.3,30.4c-3.4,2.3-7.4,4.4-11.3,5.7
							c-4.1,1.3-10-0.3-13.7,1.7c-11.3,6.2-1.9,14.2,6.4,15.4c17.4,2.6,27.8-9.6,34.9-23.3c3.7-7.1,19.8-33.1,26.4-15.6
							c6.3,17-16.1,17.4-24.2,25c-5.6,5.4-5.5,13-10.8,18.6c-4.6,4.9-11.7,5.9-14.1,13.1c-2.4,7.4,0,12.6,7.9,11.4
							c7-1,11.8-9,15.1-14.5c4-6.7,5.1-15.7,10.7-21.4c3.7-3.7,14.7-8.7,18.2-2c3.5,6.6-13.6,27.4-17.6,32.1
							c-10.1,12.1-17.2,15.5-31.1,18.9c-1.4,0.3-2.4,1.5-2.7,2.9c-1.8,11.2,11.8,11.8,20,7.3c9.5-5.2,14.6-14.7,19.2-24.1
							c2.8-5.7,8.9-23.5,16.7-22.2c11,2,6.9,17.2,1.8,21c-8.2,6.2-14,5.4-18.1,17.1c-2.6,7.4-6.2,16.9-5.1,25
							c1.5,10.6,9.1,13.4,14.5,2.6c3.9-7.9,1.3-17.1,3-25.6c1.9-9.7,12.1-20.5,21.1-10.1c4.4,5.2,5.5,16.4,5.8,24.5
							c0.1,2.3,2.2,3.9,4.4,3.3c2-0.5,4.5-1.1,6.7-1.6c0.5-0.1,1.1-0.2,1.6-0.3c2.3-0.5,3.5-2.9,2.5-5c-2.6-5.7-5.8-10.7-9-16
							c-1.5-2.6-3-5.2-4.5-7.9c0-0.1-0.1-0.1-0.1-0.2c-3.5-6.7-4.3-9.5-1.6-12.3c1.1-1.2,2.9-2.4,5.3-3.9c4.9-3,30.6-15.6,16.4-22.5
							c-9.7-4.7-17.4,11.7-24.7,14c-0.4,0.1-0.9,0.3-1.3,0.3c-10.9,2.8-10.4-7.5-5.9-14.7c0.4-0.7,0.9-1.3,1.3-1.9
							c6.5-8.1,16.6-11.1,26.1-13.5c6.4-1.6,19.1-2.8,18.4-12.7c-1.1-14.2-19.3-2.8-24.6,2c-6,5.4-18.6,26.6-22.2,13.1
							c-6-22.4,31.4-33.9,31.8-54.9c0-2.2-2-3.9-4.2-3.5c-7.1,1.4-10.2,10.8-14,16.3c-2.6,3.8-14,21.6-17.7,22
							c-7.2,0.7-8.5-12.2-7.4-17.8c2.8-14.2,18.7-18.3,29.7-24.2c13.7-7.3,15.2-25-2.6-18c-12.5,4.9-18.5,19.8-27.3,28.9
							c-13.4,13.9-9.1-5.4-5.1-14.1c3.8-8.2,11.2-15.1,18.5-20.3c11.2-7.9,31.6-6.3,33.5-23.9c2.7-26.1-43.2,13.7-48.8,19.9
							c-5.3,5.9-6.2,13.8-9.1,20.6c-3.2,7.3-10.1,13.1-13.1,2.2c-1.8-6.7,4-13.1,7.6-17.7c8.6-11,25.5-20.4,29.5-34.3
							c6.3-21.7-13.7-18.9-21.6-4.5c-6,11.1-10,23.1-14.4,34.6c-1.4,3.6-6,16.9-10.1,10c-1.9-3.2,2.1-13.5,2.9-16.7
							c3-11.9,9.1-21.2,13.8-32.4c3-7.3,6.4-39.7-7.7-27.6c-7.1,6-8.1,25.2-11.8,33.6c-1.7,3.8-4,15.2-6.5,23
							c-1.1,3.3-5.8,3.3-6.8-0.1c-2.3-7.4-3.5-14.9-0.8-22.5c3.9-11.2,14.2-11.8,13.7-25.1c-0.4-10.5-5.3-19.2-13.9-8.9
							c-5.6,6.8-7.2,18.9-9.3,27.3c-1.4,5.5-0.1,19.5-3,24c-7.4,11.5-6.1-10.9-5.8-15.6c0.4-7.6,6.5-56.9-13.6-48.6
							c-10,4.1-0.6,28.1,2.8,41.9c0.9,3.5-3.4,5.9-5.9,3.4c-11.9-11.8-11.1-36.3-23.8-45.1c-12.7-8.9-10.6,6.7-6.8,14.5
							c2.7,5.5,13,14.2,16,21.3c1.2,2.9-1.7,5.8-4.6,4.6c-8.7-3.7-20.1-12.2-26.4-16.8c-8.6-6.2-17-29-29.3-26.8
							c-12.3,2.2,0.8,14.6,9.1,21.1c1.8,1.4,3.5,2.6,4.5,3.3c4,2.6,13.9,6.9,21.3,11.5c3.4,2.2,1.1,7.5-2.8,6.4
							c-9-2.5-18.1-5.6-26.7-9.6c-8.2-3.7-25.8-23.9-34-22.7C65.9,340.1,87.1,367.9,92.6,372.1z"/>
					</g>
				</g>
				<g>
					<g>
						<g>
							<path class="st16" d="M161.1,476.6L161.1,476.6c0.4,0.3,0.8,0.7,1.2,1C161.9,477.3,161.5,477,161.1,476.6z"/>
							<path class="st16" d="M250.8,586.1L250.8,586.1c0.2,0.3,0.3,0.6,0.5,0.8C251.1,586.7,251,586.4,250.8,586.1z"/>
							<path class="st16" d="M273,634.3c-0.4-1.1-0.8-2.2-1.3-3.3c-0.4-1-0.8-2-1.2-3c-1-2.6-2.1-5.1-3.1-7.6
								c-5.4-0.1-10.4-0.7-15.1-1.5c-4.8-0.8-3.7-8,1.1-7.4c4.1,0.4,7.7,0.7,10.4,0.8c-1-2.3-2.1-4.5-3.1-6.7c-0.5-1-0.9-2-1.4-3
								c-1.8-3.7-3.6-7.3-5.5-10.8c-0.4-0.7-0.8-1.4-1.1-2.2c-0.6-1.2-1.2-2.3-1.9-3.4c0,0,0,0,0,0c-4.9,1.5-9.6,2.6-14.1,3.3
								c-4.8,0.8-6.2-6.3-1.4-7.4c4.8-1.1,8.8-2.3,11.5-3.1c-1.3-2.2-2.5-4.4-3.8-6.5c-0.5-0.9-1.1-1.7-1.6-2.6
								c-0.7-1.2-1.5-2.4-2.2-3.6c-0.5-0.8-1-1.6-1.5-2.3c-0.5-0.7-0.9-1.5-1.4-2.2c-0.4-0.7-0.9-1.3-1.3-2
								c-0.4-0.6-0.8-1.2-1.2-1.8c-0.6-0.9-1.2-1.7-1.7-2.6c0,0,0,0,0,0c-6.7,2.5-13.1,4.1-19.2,5c-4.8,0.8-6.2-6.3-1.4-7.4
								c9.2-2.1,15.3-4.5,15.3-4.5s0.4,0.3,1,0.7c-0.6-0.8-1.2-1.7-1.8-2.5c-0.6-0.9-1.2-1.7-1.9-2.6c-0.7-0.9-1.4-1.9-2.1-2.8
								c-0.2-0.2-0.4-0.5-0.5-0.7c-0.6-0.7-1.1-1.5-1.7-2.2c-0.1-0.1-0.2-0.2-0.2-0.3c-0.3-0.4-0.7-0.9-1-1.3
								c-1.4-1.9-2.9-3.7-4.3-5.5c-0.7-0.8-1.4-1.7-2-2.5c-0.6-0.8-1.3-1.6-1.9-2.4c-0.5-0.6-1-1.2-1.5-1.8
								c-0.6-0.7-1.2-1.4-1.8-2.1c-0.8-0.9-1.6-1.9-2.4-2.8c-0.1-0.1-0.1-0.1-0.2-0.2c-0.7-0.8-1.4-1.6-2.1-2.4
								c-0.2-0.3-0.5-0.5-0.7-0.8c-0.5-0.6-1.1-1.2-1.6-1.8c-0.8-0.9-1.7-1.9-2.5-2.8c-0.4-0.5-0.9-1-1.3-1.4
								c-0.2-0.2-0.4-0.4-0.6-0.7c-0.4-0.5-0.9-0.9-1.3-1.4c-0.2-0.2-0.3-0.3-0.5-0.5c-0.6-0.7-1.3-1.3-1.9-2c-2-2.1-4-4.1-5.9-6.1
								c-1.2-0.2-2.4-0.4-3.6-0.6c-6.7,3.3-17.2,7.1-29.7,6.8c-4.5-0.1-5.1-6.6-0.6-7.5c8-1.5,16.7-4.1,23.8-8.6
								c-3.2-3-6.4-5.9-9.6-8.7c-0.5-0.5-1-0.9-1.6-1.4c-0.9-0.8-1.9-1.6-2.8-2.4c-0.6-0.1-1.2-0.1-1.8-0.2
								c-6.6,3.4-17.7,7.9-31.4,7.7c-4.6-0.1-5.1-6.6-0.7-7.5c7.9-1.5,16.5-4,23.5-8.4c0,0,0,0,0,0c-0.9-0.7-1.7-1.4-2.6-2.1
								c-0.7-0.5-1.4-1.1-2-1.6c-1-0.8-2.1-1.6-3.1-2.4c-0.9-0.6-1.7-1.3-2.6-1.9c-3.4-2.5-6.7-4.9-10-7.2l0,0
								c-4,1.6-9.4,3.3-15.6,3.9c-4.6,0.5-5.8-6.3-1.2-7.4c2.7-0.6,5.4-1.5,8-2.5c-0.5-0.3-1-0.7-1.5-1c-0.5-0.3-0.9-0.6-1.4-0.9
								c-1.8-1.2-3.7-2.3-5.5-3.4c-1.2-0.8-2.5-1.5-3.7-2.2c-0.4-0.3-0.8-0.5-1.3-0.7c-0.6-0.4-1.3-0.7-1.9-1.1
								c-3.5-2-6.7-3.9-9.8-5.5c-0.4-0.2-0.7-0.4-1.1-0.6c-2.2-1.2-4.2-2.2-6.2-3.2c-0.6-0.3-1.2-0.6-1.8-0.9
								c-3.6-1.8-6.8-3.3-9.5-4.5c-0.2-0.1-0.4-0.2-0.7-0.3c-0.6-0.3-1.3-0.6-1.8-0.8c-0.2-0.1-0.4-0.2-0.6-0.2
								c-1.1-0.4-2-0.8-2.8-1.2c-0.2-0.1-0.4-0.1-0.6-0.2c-1.3-0.5-2.2-0.8-2.7-1c2.7,0.6,5.3,1.2,7.9,1.9c-9.2-3.5-17.2-6-23.6-7.6
								c-0.1,0.8-0.1,1.6,0,2.4c4.9,36.6,29.7,79,54.5,113.6c27.1-3.9,74.1-8.9,94.9,1.1l-84.6,13c8.8,11.6,17.3,22,24.5,30.4
								c31.1,36.5,75.4,59.2,123.3,62.8c3,0.2,5.6,0.3,7.6,0.4c-0.4-1.1-0.8-2.2-1.2-3.3C273.1,634.4,273,634.4,273,634.3z"/>
							<path class="st17" d="M279.1,623.9c-1.4-3-2.7-6-4.1-8.9c0,0,0,0,0,0C276.3,617.9,277.7,620.9,279.1,623.9z"/>
							<path class="st17" d="M162.7,463.5c0.6,0.5,1.2,0.9,1.8,1.4C164,464.4,163.4,464,162.7,463.5L162.7,463.5z"/>
							<path class="st17" d="M221.2,523.5c1.5,2,3,4,4.4,6C224.1,527.5,222.6,525.5,221.2,523.5z"/>
							<path class="st17" d="M88.7,425c-1.5-0.5-3.1-0.9-4.6-1.4C85.6,424,87.2,424.5,88.7,425z"/>
							<path class="st17" d="M116.6,435.7c3.1,1.4,6.1,2.9,9,4.4C122.7,438.5,119.7,437,116.6,435.7L116.6,435.7z"/>
							<path class="st17" d="M205.9,504.5c-2.5-2.9-5.1-5.8-7.7-8.6C200.8,498.7,203.3,501.6,205.9,504.5z"/>
							<path class="st17" d="M208.9,508.1C208.9,508.1,208.9,508.1,208.9,508.1c-1-1.2-2-2.4-3-3.6
								C206.9,505.7,207.9,506.9,208.9,508.1z"/>
							<path class="st17" d="M241.4,553.2c2.1,3.3,4.1,6.6,6.1,10C245.6,559.8,243.5,556.4,241.4,553.2
								C241.5,553.2,241.4,553.2,241.4,553.2z"/>
							<path class="st17" d="M235.7,544.2L235.7,544.2c-3.3-5-6.7-9.9-10.1-14.6C229,534.4,232.4,539.2,235.7,544.2z"/>
							<path class="st17" d="M270.3,605.3c-0.5-1.1-1-2.1-1.6-3.1C269.3,603.2,269.8,604.3,270.3,605.3L270.3,605.3z"/>
							<path class="st17" d="M255.2,576.5c-2.5-4.5-5-8.9-7.6-13.3C250.2,567.5,252.7,572,255.2,576.5z"/>
							<path class="st16" d="M77.7,421.8c1.1,0.3,2.1,0.5,3.2,0.8c1.1,0.3,2.2,0.6,3.2,0.9c1.5,0.5,3.1,0.9,4.6,1.4
								c1.5,0.5,3.1,1,4.6,1.5c0.8,0.2,1.5,0.5,2.3,0.8c3.8,1.3,7.5,2.7,11.1,4.2c1.6-2.9,1.5-6.9,0.8-10.7c-0.6-3.3,4-4.9,5.6-1.9
								c3.3,6.4,3.7,13,3.6,16.9c3.1,1.4,6.1,2.9,9,4.4c1,0.5,2,1,3,1.5c1,0.5,2,1,2.9,1.6c1,0.5,1.9,1.1,2.9,1.6
								c0.9,0.5,1.8,1,2.7,1.6c1,0.6,2,1.2,3,1.8c-8.6-9.2-18.7-32.4-24.6-47.2c-19.5-2-38.6-0.1-56.3,6.9c-2.8,1.1-4.7,3.5-5.1,6.3
								C60.5,415.9,68.5,418.3,77.7,421.8C77.7,421.8,77.7,421.8,77.7,421.8z"/>
							<path class="st16" d="M145.6,451.5c0.2,0.1,0.3,0.2,0.5,0.3c0.6,0.4,1.3,0.8,1.9,1.2c0.8,0.5,1.6,1,2.4,1.6
								c0.5,0.3,1,0.6,1.4,1c0.6,0.4,1.1,0.8,1.7,1.2c0.5,0.3,1,0.7,1.5,1c0,0,0.1,0,0.1,0.1c0.1-3.8-0.4-7.7-1.1-11.4
								c-0.7-3.6,4.4-5,5.7-1.6c2.7,7.1,3.3,13.8,3.1,18.7c0.6,0.5,1.2,0.9,1.8,1.4c0.6,0.5,1.2,0.9,1.8,1.4c0.6,0.5,1.2,1,1.8,1.4
								c0.6,0.5,1.2,1,1.8,1.5c0.6,0.5,1.2,1,1.8,1.5c0.6,0.5,1.2,1,1.8,1.5c1.2,1,2.3,2,3.5,3c1.5-4.6,2-9.7,2.1-14.5
								c0-3.6,5.3-4,5.9-0.4c1.4,8.7,0.1,16.3-1.3,21c0.5,0.4,0.9,0.9,1.4,1.3c0.1,0.1,0.3,0.3,0.4,0.4c0.4,0.4,0.8,0.8,1.3,1.2
								c0.2,0.2,0.5,0.4,0.7,0.7c0.9,0.9,1.8,1.8,2.8,2.7c0.5,0.5,1.1,1.1,1.6,1.6c0.5,0.5,1.1,1.1,1.6,1.6c0.5,0.5,1.1,1.1,1.6,1.7
								c1.1,1.1,2.1,2.2,3.2,3.4c2.6,2.8,5.2,5.7,7.7,8.6c1,1.2,2,2.4,3,3.5c3.2-8,4.6-17.2,4.6-27.1c0-3.6,5.2-4.1,5.9-0.5
								c3.2,16.7,0.1,31-2.1,38.1c0.4,0.5,0.9,1.1,1.3,1.7c0.2,0.3,0.4,0.6,0.7,0.9c0.4,0.4,0.7,0.9,1,1.3c0.3,0.4,0.6,0.8,0.9,1.1
								c1.5,2,3,4,4.4,6c3.4,4.8,6.8,9.6,10.1,14.6c1.6-5.5,4-15,5-25.9c0.3-3.7,5.8-3.6,5.9,0.1c0.4,10.1-0.9,21.8-5.1,34.7
								c2.1,3.3,4.1,6.6,6.1,10c0,0,0,0,0,0c2.6,4.4,5.1,8.8,7.6,13.3c0.7,1.3,1.5,2.7,2.2,4c2.8-13.2,3.8-70.3,4.1-101.2
								c-33.6-34.7-81.8-65.7-129.4-75.7l10.2,45.9c0.8,0.5,1.5,1,2.3,1.4C145,451.1,145.3,451.3,145.6,451.5z"/>
							<path class="st16" d="M257.6,580.7c0.5,1,1.1,2,1.6,3c0.5,1,1.1,2,1.6,3c0.5,1,1.1,2,1.6,3.1c0.5,1,1.1,2,1.6,3.1
								c0.5,1,1.1,2.1,1.6,3.1c1.1,2.1,2.1,4.1,3.1,6.2c0.5,1,1,2.1,1.6,3.1c6.4-10,10.5-21.5,13.1-31.7c0.9-3.7,6.5-2.5,5.8,1.3
								c-3.1,16.2-10.6,32.7-14.2,40c1.4,3,2.8,5.9,4.1,8.9c0.7,1.5,1.4,3,2,4.5c0.7,1.5,1.4,3,2,4.5c3.8-5.2,7-11,9.6-17.1
								c16.4-37.4,11.2-80.2-11.6-113.4C279,547,260.2,576.8,257.6,580.7z"/>
						</g>
					</g>
					<path class="st16" d="M257.6,580.7c0.5,1,1.1,2,1.6,3c0.5,1,1.1,2,1.6,3c0.5,1,1.1,2,1.6,3.1c0.5,1,1.1,2,1.6,3.1
						c0.5,1,1.1,2.1,1.6,3.1c1.1,2.1,2.1,4.1,3.1,6.2c0.5,1,1,2.1,1.6,3.1c6.3-9.8,10.5-20.9,13.3-30.6c1.1-3.9,7-2.5,6.2,1.5
						c-3.4,15.6-11.2,31.4-14.8,38.7c1.4,3,2.8,5.9,4.1,8.9c0.7,1.5,1.4,3,2,4.5c0.7,1.5,1.4,3,2,4.5c3.8-5.2,7-11,9.6-17.1
						c16.4-37.4,11.2-80.2-11.6-113.4C279,547,260.2,576.8,257.6,580.7z"/>
					<path class="st18" d="M279.1,623.9c-1.4-3-2.8-6-4.1-8.9c0,0,0,0,0,0c4.7-9.6,16-34.8,15.6-54.4c-0.1-2.7-4-3-4.4-0.3
						c-2,12.1-6.3,30.3-15.8,45.1l0,0c-0.5-1.1-1-2.1-1.5-3.1c-1-2.1-2.1-4.2-3.1-6.2c-0.5-1-1-2.1-1.6-3.1c-0.5-1-1.1-2.1-1.6-3.1
						c-0.5-1-1.1-2-1.6-3.1c-0.5-1-1.1-2-1.6-3c-0.5-1-1.1-2-1.6-3c0-0.1-0.1-0.2-0.1-0.3c-0.7-1.3-1.5-2.7-2.2-4
						c-2.5-4.5-5.1-8.9-7.6-13.3c0,0,0,0,0,0c-2-3.4-4.1-6.7-6.1-10c0,0,0,0,0,0c5.9-17.9,6-33.4,4.1-45.5c-0.4-2.7-4.4-2.4-4.4,0.3
						c0,15.1-3.3,29-5.4,36.2l0,0c-3.3-5-6.7-9.9-10.1-14.6c-1.5-2-2.9-4-4.4-6c-0.3-0.4-0.6-0.8-0.9-1.1c-0.3-0.5-0.7-0.9-1-1.3
						c-0.2-0.3-0.4-0.6-0.7-0.9c-0.2-0.3-0.4-0.5-0.6-0.8c-0.4-0.6-0.6-1.3-0.4-2c2.4-8.5,5.6-25.2,0-44c-0.8-2.5-4.5-1.9-4.4,0.8
						c0.7,12.6-0.5,24-4.4,33.8c0,0,0,0,0,0c-1-1.2-2-2.4-3-3.6c-2.5-2.9-5.1-5.8-7.7-8.6c-1-1.1-2.1-2.2-3.2-3.4
						c-0.5-0.6-1.1-1.1-1.6-1.7c-0.5-0.5-1.1-1.1-1.6-1.6c-0.5-0.5-1.1-1.1-1.6-1.6c-0.9-0.9-1.8-1.8-2.8-2.7
						c-0.2-0.2-0.5-0.4-0.7-0.7c-0.4-0.4-0.8-0.8-1.3-1.2c-0.1-0.1-0.3-0.3-0.4-0.4c-0.1-0.1-0.3-0.3-0.4-0.4
						c-0.6-0.6-0.8-1.4-0.6-2.2c1.6-6.1,2.9-16-0.8-26.8c-0.9-2.5-4.5-1.8-4.3,0.9c0.4,5.3,0.4,11.6-0.9,17.5
						c-0.4,1.7-2.3,2.3-3.6,1.2c-0.3-0.2-0.5-0.4-0.8-0.7c-0.6-0.5-1.2-1-1.8-1.5c-0.6-0.5-1.2-1-1.8-1.5c-0.6-0.5-1.2-1-1.8-1.5
						c-0.6-0.5-1.2-1-1.8-1.4c-0.6-0.5-1.2-1-1.8-1.4c-0.6-0.5-1.2-0.9-1.8-1.4l0,0c0.2-6.3-0.8-15.9-6.3-25.2
						c-1.3-2.2-4.8-0.7-4.1,1.8c1.5,5.2,2.8,11.6,2.6,17.8c0,0-0.1,0-0.1-0.1c-0.5-0.3-1-0.7-1.5-1c-0.6-0.4-1.1-0.8-1.7-1.2
						c-0.5-0.3-0.9-0.6-1.4-1c-0.8-0.5-1.6-1.1-2.4-1.6c-0.6-0.4-1.3-0.8-1.9-1.2c-0.2-0.1-0.3-0.2-0.5-0.3
						c-0.3-0.2-0.6-0.4-0.9-0.6c-0.8-0.5-1.5-1-2.3-1.4c-0.7-0.5-1.4-0.9-2.2-1.3c-1-0.6-2-1.2-3-1.8c-0.9-0.5-1.8-1-2.7-1.6
						c-1-0.5-1.9-1.1-2.9-1.6c-1-0.5-2-1.1-2.9-1.6c-1-0.5-2-1-3-1.5c-3-1.5-6-3-9-4.4l0,0c0.2-4.8-0.5-13.5-6.2-21.1
						c-1.5-2-4.6-0.3-3.9,2c1.2,4,2,8.8,1.1,12.5c-0.3,1.3-1.7,1.9-3,1.5c-3-1.2-6-2.3-9.1-3.3c-0.8-0.3-1.5-0.5-2.3-0.8
						c-1.5-0.5-3-1-4.6-1.5c-1.5-0.5-3.1-0.9-4.6-1.4c-1.1-0.3-2.1-0.6-3.2-0.9c-1-0.3-2.1-0.6-3.2-0.8c0,0,0,0,0,0
						c-2.6-0.7-5.2-1.3-7.9-1.9c0.5,0.1,1.4,0.5,2.7,1c0.2,0.1,0.4,0.1,0.6,0.2c0.8,0.3,1.7,0.7,2.8,1.2c0.2,0.1,0.4,0.2,0.6,0.2
						c0.6,0.3,1.2,0.5,1.8,0.8c0.2,0.1,0.4,0.2,0.7,0.3c2.7,1.2,5.9,2.7,9.5,4.5c0.6,0.3,1.2,0.6,1.8,0.9c2,1,4,2.1,6.2,3.2
						c0.4,0.2,0.7,0.4,1.1,0.6c3.1,1.7,6.4,3.5,9.8,5.5c0.6,0.4,1.2,0.7,1.9,1.1c0.4,0.2,0.8,0.5,1.3,0.7c1.2,0.7,2.4,1.5,3.7,2.2
						c1.8,1.1,3.6,2.2,5.5,3.4c0.4,0.3,0.9,0.6,1.4,0.9c0.5,0.3,1,0.7,1.5,1c-7.3,3-15.6,4.2-22.2,4.6c-2.6,0.2-2.8,3.8-0.3,4.4
						c13,2.9,24.3-0.1,31.4-3l0,0c3.3,2.3,6.6,4.6,10,7.2c0.9,0.6,1.7,1.3,2.6,1.9c1,0.8,2.1,1.6,3.1,2.4c0.7,0.5,1.4,1.1,2,1.6
						c0,0,0,0,0,0c-0.2,1.8-0.2,1.8-0.3,3.7c-10.3,5.4-22.9,7.5-32,8.3c-2.5,0.2-2.8,3.8-0.3,4.4c19.9,4.5,36.5-2.2,44.6-6.7l0,0
						c0.4,0.3,0.8,0.7,1.2,1c0.8,0.7,1.6,1.4,2.4,2.1c0.5,0.4,1,0.9,1.6,1.4c2.4,2.1,4.9,4.3,7.3,6.6c1.1,1,0.9,2.9-0.4,3.6
						c-10.4,5.6-23.3,7.8-32.6,8.6c-2.5,0.2-2.8,3.8-0.3,4.4c17.1,3.9,31.8-0.5,40.7-4.7c2.1,0.4,4.1,0.8,6.1,1.1
						c1.6,1.6,3.2,3.3,4.8,4.9c0.6,0.7,1.3,1.3,1.9,2c0.1,0.2,0.3,0.3,0.4,0.5c0.4,0.5,0.9,1,1.3,1.4c0.2,0.2,0.4,0.4,0.6,0.6
						c0.4,0.5,0.9,1,1.3,1.4c0.8,0.9,1.7,1.8,2.5,2.8c0.5,0.6,1.1,1.2,1.6,1.8c0.2,0.3,0.5,0.5,0.7,0.8c0.7,0.8,1.4,1.6,2.1,2.4
						c0.1,0.1,0.1,0.1,0.2,0.2c0.8,0.9,1.6,1.9,2.4,2.8c0.6,0.7,1.2,1.4,1.8,2.1c0.5,0.6,1,1.2,1.5,1.8c0.6,0.8,1.3,1.6,1.9,2.4
						c0.7,0.8,1.3,1.7,2,2.5c1.5,1.8,2.9,3.7,4.3,5.5c0.3,0.4,0.7,0.9,1,1.3c0.1,0.1,0.2,0.2,0.2,0.3c0.6,0.7,1.1,1.5,1.7,2.2
						c0.2,0.2,0.4,0.5,0.5,0.7c0.7,0.9,1.4,1.9,2.1,2.8c0.6,0.8,1.2,1.7,1.9,2.6c0.6,0.8,1.2,1.7,1.8,2.5c-0.6-0.4-1-0.7-1-0.7
						s-19.3,7.4-41.2,7.8c-2.8,0-3,4.1-0.3,4.4c12.1,1.7,27.5,1.3,45.2-4.8c1,0.3,1.6,0.5,2.6,0.9c0.3,0.4,0.5,0.8,0.8,1.2
						c0.4,0.6,0.8,1.2,1.2,1.8c0.4,0.7,0.9,1.3,1.3,2c0.5,0.7,0.9,1.4,1.4,2.2c0.5,0.8,1,1.5,1.5,2.3c0.7,1.2,1.5,2.4,2.2,3.6
						c0.5,0.9,1.1,1.7,1.6,2.6c0.8,1.3,1.6,2.7,2.4,4.1c0.7,1.2,0.1,2.9-1.3,3.3c-7.5,2.2-20.6,5.4-34.6,5.6c-2.7,0-3,4.1-0.3,4.4
						c11.3,1.6,25.5,1.4,41.7-3.6l0,0c0.2,0.3,0.3,0.6,0.5,0.8c0.5,0.9,0.9,1.7,1.4,2.6c0.4,0.7,0.8,1.4,1.1,2.2
						c1.9,3.5,3.7,7.1,5.5,10.8c0.5,1,1,2,1.4,3c0.5,1.1,1.1,2.3,1.6,3.4c0.7,1.5-0.5,3.3-2.2,3.2c-8-0.5-20.1-1.9-32.2-5.9
						c-2.6-0.9-4.2,2.8-1.7,4.1c10,5.1,23.2,9.5,39.7,10.1c0.9,0,1.6,0.6,2,1.4c0.9,2.1,1.7,4.2,2.6,6.3c0.4,1,0.8,2,1.2,3
						c0.4,1.1,0.9,2.2,1.3,3.3c0,0.1,0,0.1,0.1,0.2c0.2,0.6,0.5,1.3,0.7,1.9c0.3,0.9,1.1,1.4,2.1,1.5c0.4,0,0.8,0,1.1,0
						c0.5,0,0.9,0,1.3,0c0.6,0,1.3-0.3,1.7-0.8c0.9-1,1.7-2.1,2.5-3.1c0.5-0.6,0.6-1.5,0.2-2.2c-0.5-1.1-1-2.2-1.5-3.3
						C280.4,626.9,279.8,625.4,279.1,623.9z"/>
				</g>
			</g>
		</g>
		<g>
			<rect x="469.3" y="299.5" class="st16" width="243.2" height="158.3"/>
			<polygon class="st19" points="469.3,457.8 712.5,457.8 590.9,378.7 			"/>
			<polygon class="st18" points="712.5,299.5 469.3,299.5 590.9,424.2 			"/>
		</g>
		<g>
			<g>
				<path class="st20" d="M529.5,223.4v400.5c0,11.6-9.4,21.1-21.1,21.1H281.8c-11.6,0-21.1-9.4-21.1-21.1V223.4
					c0-11.6,9.4-21.1,21.1-21.1h226.6C520.1,202.3,529.5,211.8,529.5,223.4z"/>
				<linearGradient id="SVGID_14_" gradientUnits="userSpaceOnUse" x1="278.5246" y1="411.2684" x2="511.6937" y2="411.2684">
					<stop  offset="1.963140e-03" style="stop-color:#D6E1F4"/>
					<stop  offset="0.6038" style="stop-color:#E7EDF8"/>
					<stop  offset="1" style="stop-color:#F4F7FC"/>
				</linearGradient>
				<rect x="278.5" y="222.9" class="st21" width="233.2" height="376.6"/>
				<linearGradient id="SVGID_15_" gradientUnits="userSpaceOnUse" x1="395.1092" y1="609.6827" x2="395.1092" y2="248.597">
					<stop  offset="1.963140e-03" style="stop-color:#D6E1F4"/>
					<stop  offset="0.6038" style="stop-color:#E7EDF8"/>
					<stop  offset="1" style="stop-color:#F4F7FC"/>
				</linearGradient>
				<rect x="278.5" y="222.9" class="st22" width="233.2" height="376.6"/>
				<g>
					<g>
						<circle class="st18" cx="324.9" cy="565.1" r="19.7"/>
						<g>
							<g>
								<path class="st23" d="M339.1,567.3v1.2h-6.4v-0.1c0-1.4-1-2.6-2.3-2.8c-4.8-0.9-6.2-0.9-11,0.1c-1.3,0.3-2.3,1.4-2.3,2.8
									l0,0h-6.4v-1.2c0-2.2,1.5-4.2,3.6-4.8c8.8-2.7,13.5-2.9,21.1,0C337.7,563.5,339.1,565,339.1,567.3z"/>
								<path class="st23" d="M310.5,569.9h6.9c0.2,0,0.4-0.2,0.4-0.4v-0.9c0-0.2-0.2-0.4-0.4-0.4h-6.9c-0.2,0-0.4,0.2-0.4,0.4v0.9
									C310.1,569.7,310.2,569.9,310.5,569.9z"/>
							</g>
							<path class="st23" d="M339.3,569.9h-6.9c-0.2,0-0.4-0.2-0.4-0.4v-0.9c0-0.2,0.2-0.4,0.4-0.4h6.9c0.2,0,0.4,0.2,0.4,0.4v0.9
								C339.7,569.7,339.5,569.9,339.3,569.9z"/>
						</g>
					</g>
					<g>
						<circle class="st24" cx="395.1" cy="564.2" r="23"/>
						<g>
							<g>
								<path class="st23" d="M384.7,554.5l0.8-0.8l4.5,4.5l-0.1,0.1c-1,1-1.1,2.5-0.3,3.6c2.7,4,3.8,5,7.9,7.7
									c1.1,0.8,2.6,0.6,3.6-0.4l0,0l4.5,4.5l-0.8,0.8c-1.6,1.6-4,1.9-6,0.9c-8.1-4.3-11.6-7.5-14.9-14.9
									C383,558.1,383.1,556.1,384.7,554.5z"/>
								<path class="st23" d="M406.8,572.9l-4.9-4.9c-0.2-0.2-0.4-0.2-0.5,0l-0.6,0.6c-0.2,0.2-0.2,0.4,0,0.5l4.9,4.9
									c0.2,0.2,0.4,0.2,0.5,0l0.6-0.6C406.9,573.2,406.9,573,406.8,572.9z"/>
							</g>
							<path class="st23" d="M386.4,552.5l4.9,4.9c0.2,0.2,0.2,0.4,0,0.5l-0.6,0.6c-0.2,0.2-0.4,0.2-0.5,0l-4.9-4.9
								c-0.2-0.2-0.2-0.4,0-0.5l0.6-0.6C386,552.3,386.2,552.3,386.4,552.5z"/>
						</g>
					</g>
					<g>
						<circle class="st14" cx="465.3" cy="565.1" r="19.7"/>
						<g>
							<linearGradient id="SVGID_16_" gradientUnits="userSpaceOnUse" x1="465.3385" y1="542.705" x2="465.3385" y2="580.4541">
								<stop  offset="1.963140e-03" style="stop-color:#D6E1F4"/>
								<stop  offset="0.6038" style="stop-color:#E7EDF8"/>
								<stop  offset="1" style="stop-color:#F4F7FC"/>
							</linearGradient>
							<rect x="454.9" y="558.3" class="st25" width="20.8" height="13.6"/>
							<linearGradient id="SVGID_17_" gradientUnits="userSpaceOnUse" x1="465.3385" y1="565.261" x2="465.3385" y2="537.7193">
								<stop  offset="1.963140e-03" style="stop-color:#D6E1F4"/>
								<stop  offset="0.6038" style="stop-color:#E7EDF8"/>
								<stop  offset="1" style="stop-color:#F4F7FC"/>
							</linearGradient>
							<polygon class="st26" points="454.9,571.9 475.7,571.9 465.3,565.1 							"/>
							<polygon class="st23" points="475.7,558.3 454.9,558.3 465.3,571 							"/>
						</g>
					</g>
				</g>
				<g>
					<linearGradient id="SVGID_18_" gradientUnits="userSpaceOnUse" x1="395.1092" y1="225.0758" x2="395.1092" y2="-257.6325">
						<stop  offset="1.963140e-03" style="stop-color:#D6E1F4"/>
						<stop  offset="0.6038" style="stop-color:#E7EDF8"/>
						<stop  offset="1" style="stop-color:#F4F7FC"/>
					</linearGradient>
					<path class="st27" d="M459.4,339.1c0,17-6.6,32.5-17.5,44c-2.3,2.5-4.8,4.7-7.5,6.8c-10.9,8.5-24.6,13.5-39.4,13.5
						c-14.9,0-28.6-5-39.5-13.5c0,0-0.1,0-0.1-0.1c-15.1-11.8-24.8-30.1-24.8-50.7c0-35.5,28.8-64.3,64.3-64.3
						C430.6,274.7,459.4,303.6,459.4,339.1z"/>
					<linearGradient id="SVGID_19_" gradientUnits="userSpaceOnUse" x1="355.6262" y1="345.6375" x2="441.9939" y2="345.6375">
						<stop  offset="1.963140e-03" style="stop-color:#D6E1F4"/>
						<stop  offset="0.6038" style="stop-color:#E7EDF8"/>
						<stop  offset="1" style="stop-color:#F4F7FC"/>
					</linearGradient>
					<path class="st28" d="M442,383.1c-2.3,2.5-4.8,4.7-7.5,6.8c-10.9,8.5-24.6,13.5-39.4,13.5c-14.9,0-28.6-5-39.5-13.5
						c0.6-2.3,1.5-4.5,2.8-6.4c2-3.2,4.8-5.9,8.3-7.7c3.3-1.8,6.9-2.8,10.7-3c2.9-0.2,6.1-0.3,8.2-0.5l0.3,0
						c1.8-0.2,3.3-1.8,3.3-3.7c0-1.3,0.1-2.5,0.2-3.7c0.1-1.4,0.1-2.7,0.3-4l0.1-1.2c-0.8-0.4-1.9-1.1-3.2-2
						c-6.1-4.2-11.1-9.7-15.1-16c-0.1-0.2-0.3-0.5-0.4-0.7c-3.5-1.3-6.9-3.5-8-8.5c-1.1-4.8,0.2-11.2,4.2-11.5
						c0.6-0.1,1.2,0,1.8,0.2c0-0.3,0-0.5,0-0.7c0.6-11.7,4.6-20.3,14.1-27.7c8-6.2,19.6-6.4,28.3-1.3c9.5,5.5,12.7,17.4,13.2,27.9
						c0,0.7,0.1,1.4,0.1,2.2c0.9-0.4,1.8-0.6,2.7-0.5c4,0.3,5.3,6.7,4.2,11.5c-1.3,5.7-5.4,7.7-9.4,9c-1.1,3.1-7.2,9.9-8.8,11.5
						c-1.6,1.9-3.4,3.5-5.5,4.9c-1,1.8-1.4,4-1.2,6.8c0,0.7,0.1,1.5,0.2,2.3c0,0,0,0,0,0c0.6,2.6,1.5,4.1,3.3,5.2
						c0.9,0.6,2.1,1,3.5,1.3l3.2,0.4c1.9,0.2,4.4,0.4,6.7,0.7c5.2,0.5,10.2,2.3,14.6,5.2C439.5,380.7,440.9,381.8,442,383.1z"/>
				</g>
				<linearGradient id="SVGID_20_" gradientUnits="userSpaceOnUse" x1="380.571" y1="620.0397" x2="409.6472" y2="620.0397">
					<stop  offset="1.963140e-03" style="stop-color:#D6E1F4"/>
					<stop  offset="0.6038" style="stop-color:#E7EDF8"/>
					<stop  offset="1" style="stop-color:#F4F7FC"/>
				</linearGradient>
				<path class="st29" d="M409.6,620c0,8-6.5,14.5-14.5,14.5s-14.5-6.5-14.5-14.5c0-8,6.5-14.5,14.5-14.5S409.6,612,409.6,620z"/>
			</g>
			<g>
				<linearGradient id="SVGID_21_" gradientUnits="userSpaceOnUse" x1="396.4997" y1="359.5038" x2="396.4997" y2="275.6014">
					<stop  offset="1.963140e-03" style="stop-color:#D6E1F4"/>
					<stop  offset="0.6038" style="stop-color:#E7EDF8"/>
					<stop  offset="1" style="stop-color:#F4F7FC"/>
				</linearGradient>
				<path class="st30" d="M308.6,449.9h175.7c6.2,0,11.2-5,11.2-11.2l0,0c0-6.2-5-11.2-11.2-11.2H308.6c-6.2,0-11.2,5-11.2,11.2v0
					C297.5,444.8,302.5,449.9,308.6,449.9z"/>
			</g>
		</g>
		<path class="st13" d="M296.4,478.2v154.6c0,4.4-1.1,8.5-3,12.2h-11.6c-11.6,0-21.1-9.4-21.1-21.1V452.1h9.6c2.9,0,5.6,0.5,8.2,1.3
			C288.9,456.9,296.4,466.6,296.4,478.2z"/>
		<g>
			<path class="st31" d="M260.4,656.7H133.8c-3.1,0-5.6-2.5-5.6-5.6V455.5c0-3.1,2.5-5.6,5.6-5.6h126.5c14.4,0,26.1,11.7,26.1,26.1
				v154.6C286.4,645,274.8,656.7,260.4,656.7z"/>
			<path class="st32" d="M271.5,518.2l-2.9-2.9c-0.7-0.7-1.9-0.7-2.6,0l-0.8,0.8l-3.5-3.5c-7.6-7.6-17.1-8.3-28.7-4.3
				c-35.7,15.8-51.5,32.5-72.1,71.5c-5.2,9.4-3.6,21.1,4,28.7l3.5,3.5l-0.8,0.8c-0.7,0.7-0.7,1.9,0,2.6l2.9,2.9
				c0.7,0.7,1.9,0.7,2.6,0l23.6-23.4c0.7-0.7,0.7-1.9,0-2.6l-2.9-2.9c-0.7-0.7-1.9-0.7-2.6,0l-1.1,1.1c-4.2-4.7-4.7-11.6-1.1-16.8
				c13.1-19.4,18-24.5,37.3-37.6c5.4-3.6,12.6-3,17.2,1.5l-1.1,1.1c-0.7,0.7-0.7,1.9,0,2.6l2.9,2.9c0.7,0.7,1.9,0.7,2.6,0l23.6-23.4
				C272.2,520.1,272.2,519,271.5,518.2z"/>
			<g>
				<path class="st33" d="M134.3,642.9h-12.1c-1.7,0-3.1-1.4-3.1-3.1l0,0c0-1.7,1.4-3.1,3.1-3.1h12.1c1.7,0,3.1,1.4,3.1,3.1l0,0
					C137.4,641.5,136,642.9,134.3,642.9z"/>
				<path class="st33" d="M134.3,621.4h-12.1c-1.7,0-3.1-1.4-3.1-3.1l0,0c0-1.7,1.4-3.1,3.1-3.1h12.1c1.7,0,3.1,1.4,3.1,3.1l0,0
					C137.4,620,136,621.4,134.3,621.4z"/>
				<path class="st33" d="M134.3,599.8h-12.1c-1.7,0-3.1-1.4-3.1-3.1l0,0c0-1.7,1.4-3.1,3.1-3.1h12.1c1.7,0,3.1,1.4,3.1,3.1l0,0
					C137.4,598.5,136,599.8,134.3,599.8z"/>
				<path class="st33" d="M134.3,578.3h-12.1c-1.7,0-3.1-1.4-3.1-3.1l0,0c0-1.7,1.4-3.1,3.1-3.1h12.1c1.7,0,3.1,1.4,3.1,3.1l0,0
					C137.4,577,136,578.3,134.3,578.3z"/>
				<path class="st33" d="M134.3,556.8h-12.1c-1.7,0-3.1-1.4-3.1-3.1l0,0c0-1.7,1.4-3.1,3.1-3.1h12.1c1.7,0,3.1,1.4,3.1,3.1l0,0
					C137.4,555.4,136,556.8,134.3,556.8z"/>
				<path class="st33" d="M134.3,535.3h-12.1c-1.7,0-3.1-1.4-3.1-3.1l0,0c0-1.7,1.4-3.1,3.1-3.1h12.1c1.7,0,3.1,1.4,3.1,3.1l0,0
					C137.4,533.9,136,535.3,134.3,535.3z"/>
				<path class="st33" d="M134.3,513.7h-12.1c-1.7,0-3.1-1.4-3.1-3.1l0,0c0-1.7,1.4-3.1,3.1-3.1h12.1c1.7,0,3.1,1.4,3.1,3.1l0,0
					C137.4,512.4,136,513.7,134.3,513.7z"/>
				<path class="st33" d="M134.3,492.2h-12.1c-1.7,0-3.1-1.4-3.1-3.1l0,0c0-1.7,1.4-3.1,3.1-3.1h12.1c1.7,0,3.1,1.4,3.1,3.1l0,0
					C137.4,490.9,136,492.2,134.3,492.2z"/>
				<path class="st33" d="M134.3,470.7h-12.1c-1.7,0-3.1-1.4-3.1-3.1l0,0c0-1.7,1.4-3.1,3.1-3.1h12.1c1.7,0,3.1,1.4,3.1,3.1l0,0
					C137.4,469.3,136,470.7,134.3,470.7z"/>
			</g>
		</g>
		<g>
			<g>
				<path class="st34" d="M262.5,334.3c-1.3,2.7-5.7,11.1-10.2,12.6l-14.1,33.4c-2.2,5.1-9.1,6.1-12.4,1.6c-0.1-0.1-0.2-0.3-0.3-0.5
					l-3.5-7.4l-6.6-14l-1.7-3.5l-2.4-5l1-4.7l2.4-11.3l0.9,0.4c0.7,0.3,1.5,0.6,2.2,1c3.1,1.7,5.6,4.2,7.2,7.3
					c0.1,0.2,0.2,0.4,0.3,0.6l0.5,1.5l2.7,8.1l3.6,10.9l0.1,0.4l1.6-2.4l13-19.3c-0.9-1.7-1.6-5.3-0.3-11l0.3-1.3
					c0.1-0.5,0.7-0.7,1.2-0.4c0.5,0.5,0.9,1.5,0.6,4.4l4.6-10c0.2-0.5,0.6-0.9,1.1-1.1c0.5-0.2,1.1-0.1,0.8,1.4l-3,9.2l5-9.1
					c0.3-0.5,0.7-0.9,1.3-1c0.6-0.1,1.2,0.1,1,1.5l-4.7,10l5.3-7.3c0.3-0.4,0.7-0.7,1.2-0.6c0.5,0,1,0.4,0.5,1.8l-4.1,7.6
					c0.4-0.7,2.3-3.6,3.8-4.7C262.1,332.9,262.9,333.6,262.5,334.3z"/>
			</g>
			<path class="st31" d="M232.1,365.2c-3.1,3.6-6.5,6.5-10.1,8.9l-6.6-14l-1.7-3.5l-2.4-5l1-4.7l2.4-11.3l0.9,0.4
				c0.7,0.3,1.5,0.6,2.2,1c3.1,1.7,5.6,4.2,7.2,7.3c0.1,0.2,0.2,0.4,0.3,0.6l0.5,1.5l2.7,8.1L232.1,365.2z"/>
			<path class="st34" d="M181.6,350.6l-2.6,29.1l-1,11.2c-0.5,5.4-1.6,10.8-3.4,15.9l-13.8,39.5c-0.8,2.2-2.8,3.7-5.2,3.8l-5.5-0.6
				c-2.5-0.3-5.1-0.2-7.6,0.3c-1.2,0.9-6.9-0.6-4.2-3.3c2-1.9,4-3.8,6.7-4l7.1-0.6l12.4-45.6l1.1-20.7l1.4-25.3
				c0.2-4.4,2.5-8.5,6.2-11l4.2-2.8L181.6,350.6z"/>
			<path class="st31" d="M177.3,336.5l4.3,14.2l-2.6,29.1c-4.3-1-8.8-2.4-13.4-4.2l1.4-25.3c0.2-4.4,2.5-8.5,6.2-11L177.3,336.5z"/>
			<path class="st35" d="M216.5,352.2c-0.4,1-1.9,1.9-4.2,2.7c-9.2,3.1-30.2,3.6-32.1-0.5l5.3-15.8c0-0.1,0.1-0.2,0.1-0.3l0.9-2.6
				l2-0.2c0.9-0.2,1.6-0.5,2.2-0.8c1.1-0.7,1.7-1.6,2.1-3.2c0,0,0,0,0,0c0.1-0.5,0.1-1,0.1-1.5c0.1-1.7-0.2-3.2-0.8-4.3l11.1-2.7
				l0.4,4.5c0.1,0.8,0.1,1.7,0.2,2.5c0.1,0.8,0.1,1.6,0.1,2.3c0,1.2,0.9,2.2,2.1,2.3l2.4,0.3l5.6,12L216.5,352.2z"/>
			<path class="st31" d="M182,386.7c0.2,4.2-0.4,8.3-1.4,12.4c0,0,0-0.1,0-0.1l32.8-0.6c-0.4-2.7-0.4-5.5-0.1-8.3
				c0.9-8.2,6.5-14.3,7.9-22.3c1.4-7.8-5.8-32.7-5.8-32.7s-6.7-0.3-9.5-0.5c0.2,0.5,0.3,1.1,0.4,1.8c0.9,9.7-13.1,12.6-16.8,3.6
				c-0.6-1.6-1.1-3.2-1.1-4.6c-0.8,0.2-11.1,1.1-11.1,1.1c0.3,5,1.3,10.5,0.3,15.5c-0.5,3-1.5,5.9-1.9,8.9c-0.6,4,0,7.8,1.5,11.6
				C179.1,377,181.7,381.6,182,386.7z"/>
			<g>
				<path class="st14" d="M221.8,336.5c1.4-7.5-1.6-14.7-7.8-16.7c-3.2-1-6.9,0.1-9.1,3.7c-1.2,2-1.6,4.1-1.4,6
					c-0.1,3.6,2.1,5.7,3.7,8.3c1.8,2.9,2,7.5-0.4,11c-2.3,3.3-5.7,5.5-8.9,6.9c-2.5,1.1-5.7,3.5-8.3,2.7c0.8,0.5,2.2,0.4,3.1,0.5
					c1.7,0.2,3.4,0.4,5.2,0.4c3.6,0,7.6-1.2,10.8-3.9c2.9-2.4,5.4-4.4,7.6-7.7C218.6,344.4,221,340.5,221.8,336.5z"/>
			</g>
			<path class="st34" d="M217.6,302.4c-0.7-0.1-1.6,0.2-2.4,0.7c-1.1-5-3.8-10.4-7-14.1c-1.4-1.8-3-3-4.7-3.7
				c-0.9-0.5-1.9-0.8-2.8-0.8c-0.6-0.1-1.3-0.1-1.9-0.1c-0.6,0-1.3,0-1.9,0.1c-0.9,0.1-1.9,0.4-2.8,0.8c-1.7,0.7-3.3,1.9-4.7,3.7
				c-3.3,3.7-5.9,9.1-7,14.1c-0.8-0.5-1.7-0.8-2.4-0.7c-2.5,0.2-3.3,4.2-2.6,7.2c0.9,3.8,3.8,5,6.4,5.8c1.2,2.5,3,5,5,7.1
				c2.1,2.5,4.8,4.3,7.9,5c0.1,0,0.2,0,0.3,0.1c0.2,0,0.4,0.1,0.5,0.1c0.1,0,0.2,0,0.4,0c0.1,0,0.2,0,0.3,0c0.2,0,0.5,0,0.7,0
				c0.2,0,0.5,0,0.7,0c0.1,0,0.2,0,0.3,0c0.1,0,0.2,0,0.4,0c0.2,0,0.4-0.1,0.5-0.1c0.1,0,0.2,0,0.3-0.1c3.1-0.7,5.8-2.6,7.9-5.1
				c2-2.1,3.7-4.5,5-7.1c2.7-0.8,5.6-2,6.4-5.8C221,306.6,220.1,302.7,217.6,302.4z"/>
			<g>
				<path class="st14" d="M209.9,289.6c0.2-0.5,0.4-1.2,0.5-1.9c0.3-4-3.9-6.6-6.6-7.7c-5-2-10.1-0.5-14.9,1.6
					c-4,1.7-5.9,5.9-8.1,10.2c-17.5,34.9,12.2,43.5,12.2,43.5s-1-2.3-1.4-2.9c-0.9-1.4-1.6-2.8-2.3-4.4c-1.4-3.3-2.4-7.2-2.4-10.9
					c0-5.1,1-12.1,4.3-15.8c1.4-1.6,3.5-2.5,5.4-3c1.9-0.6,3.5-1.6,5.2-2.3c0.1,1.2-0.5,2.4-0.9,3.5c1.7-1.3,3.3-2.5,4.8-4.1
					c0.5,1.4,1.8,2.5,2.6,3.6c1.3,1.7,2.8,3.2,3.9,5.2c1.9,3.6,1.9,7.5,1.2,11.4c0.3-0.9,0.8-1.8,1-2.5c0.4-1.5,0.8-2.9,1.1-4.4
					c0.7-2.8,1.6-5.6,1.5-8.6c-0.3-4.7-3.2-8.7-7-10.2"/>
			</g>
			<g>
				<g>
					<path class="st36" d="M197.2,319.5c-1.8-0.6-3.7-1.8-4.5-4.8c-0.1-0.2,0.1-0.5,0.3-0.6c0.2-0.1,0.5,0.1,0.6,0.3
						c1.5,5.2,6.8,4.5,7.1,4.4c0.2,0,0.5,0.1,0.5,0.4c0,0.2-0.1,0.5-0.4,0.5C200.8,319.9,199.1,320.1,197.2,319.5z"/>
				</g>
				<g>
					<path class="st36" d="M191.4,308.6c0.1,0.9,0.8,1.5,1.6,1.4c0.8-0.1,1.5-0.8,1.4-1.6c-0.1-0.9-0.8-1.5-1.6-1.4
						C192,307,191.3,307.8,191.4,308.6z"/>
				</g>
				<g>
					<path class="st36" d="M203.8,308.6c0.1,0.9,0.8,1.5,1.6,1.4c0.8-0.1,1.5-0.8,1.4-1.6c-0.1-0.9-0.8-1.5-1.6-1.4
						C204.4,307,203.8,307.8,203.8,308.6z"/>
				</g>
				<g>
					<path class="st36" d="M189.5,304.8C189.5,304.7,189.5,304.7,189.5,304.8c-0.3-0.1-0.4-0.4-0.3-0.6c1.2-2.7,3.7-2.6,4.8-2.2
						c0.2,0.1,0.4,0.3,0.3,0.6c-0.1,0.2-0.3,0.4-0.6,0.3c-0.1,0-2.5-0.9-3.7,1.7C190,304.7,189.7,304.8,189.5,304.8z"/>
				</g>
				<g>
					<path class="st36" d="M203.2,303C203.2,303,203.1,303,203.2,303c-0.1-0.3-0.1-0.5,0.2-0.7c2.7-1.4,4.5,0.3,5.1,1.3
						c0.1,0.2,0.1,0.5-0.2,0.6c-0.2,0.1-0.5,0.1-0.6-0.2c0-0.1-1.4-2.3-3.9-1C203.5,303.3,203.3,303.2,203.2,303z"/>
				</g>
				<g>
					<path class="st36" d="M200.4,314.9c-0.2,0-0.4-0.2-0.4-0.4c0-0.2,0.2-0.4,0.4-0.4c0,0,0.8,0,1.1-0.5c0.1-0.2,0.2-0.9-1-2.4
						c-0.2-0.2-0.1-0.5,0.1-0.6c0.2-0.2,0.5-0.1,0.6,0.1c1.1,1.4,1.5,2.5,1.1,3.3C201.8,314.9,200.5,314.9,200.4,314.9L200.4,314.9z
						"/>
				</g>
			</g>
			<path class="st34" d="M268.1,486.9l-6.9,3.4c-4.4-2.2-10.8-11.1-15.5-15.5c-17.9-17-33.6-39.8-33.6-39.8l-12.6,10.5
				c-0.3,0.3-0.7,0.6-1.1,0.8c-4.6,3.6-10.2,5.8-16,6.1c-8,0.4-12-3.4-13.9-7.9c-3-7.1,0-15.3,6.5-19.5c15-9.7,25-13.6,31.1-15.1
				c4.5-1.1,9.3,0.2,12.6,3.6c18.4,18.4,47.1,69.9,47.1,69.9C265.9,483.7,267.9,486.7,268.1,486.9z"/>
			<path class="st35" d="M209.7,507.9l-3.1,16l0.2,1.5h-8.6l0.3-1.5v-84.4c0-0.4,0-0.8,0.1-1.2c0.1-1,0.5-2.8,1.2-4.9
				c2.6-6.8,11.8-7.5,15.5-1.2c2.6,4.4,3.9,9.7,4.3,15.6v0C220.7,464.7,214.7,486.7,209.7,507.9z"/>
			<path class="st36" d="M198.7,547.6L198.7,547.6c-1.3-2.5-1.9-5.2-1.7-8l1.1-14.2h8.6l0.8,14.2c0.2,2.7-0.4,5.4-1.7,7.7l-0.2,0.3
				C204.2,550.4,200.2,550.4,198.7,547.6z"/>
			<path class="st14" d="M179.8,452.7c10.4,0.9,19-4.4,19-4.4c-0.6-0.6-1.1-1.1-1.6-1.7c-1.9-2.2-3.4-4.3-4.5-6.4
				c-7.3-13.8,3.4-29.6,19-29.8c5.1-0.1,10.3,7,11.7,8.2c-1.9-4.1-9.4-15.8-10-20.2l-32.8,0.6c0,0,0,0.1,0,0.1
				c-7.7,13.4-13.4,26.2-14.3,37.4C165.6,444.6,171.6,452,179.8,452.7z"/>
			<path class="st36" d="M259.4,489.7c1.1,12.4,10.4,8.3,30.8-1.6c2.8-1.4,3.4-5.4-2.2-4.5l-21.3,1.9
				C264,486.8,259.4,489.7,259.4,489.7z"/>
			<g>
				<path class="st37" d="M215.6,314h3c1,0,1.9-0.8,1.9-1.9v-10.7c0-1-0.8-1.9-1.9-1.9h-3c-1,0-1.9,0.8-1.9,1.9v10.7
					C213.8,313.1,214.6,314,215.6,314z"/>
				<g>
					<g>
						<path class="st37" d="M207.2,320.7c11-0.1,11.1-7.6,11.1-7.7H216h1.2l-1.2,0c0,0.2-0.2,5.3-8.8,5.4L207.2,320.7z"/>
					</g>
					<path class="st37" d="M203.1,321.1h4.3c0.6,0,1-0.5,1-1v-2.2c0-0.6-0.5-1-1-1h-4.3c-0.6,0-1,0.5-1,1v2.2
						C202.1,320.6,202.5,321.1,203.1,321.1z"/>
				</g>
				<path class="st37" d="M179,314h3c1,0,1.9-0.8,1.9-1.9v-10.7c0-1-0.8-1.9-1.9-1.9h-3c-1,0-1.9,0.8-1.9,1.9v10.7
					C177.2,313.1,178,314,179,314z"/>
				<g>
					<path class="st37" d="M179.3,301.4l2.3-0.1c-0.2-10,2.3-15.3,8.9-18c4.6-1.9,9.7-2.2,14.5-0.7c7.8,2.4,11.3,8.3,10.9,18.3
						l2.3,0.1c0.4-11-3.8-17.9-12.6-20.6c-5.3-1.6-10.9-1.3-16,0.8C180.2,285.1,179.1,293.6,179.3,301.4z"/>
				</g>
			</g>
			<g>
				<g>
					<path class="st15" d="M214.2,313.6c-0.1,0.3-0.2,0.6-0.2,0.8C214.2,314.1,214.2,313.8,214.2,313.6z"/>
				</g>
			</g>
		</g>
		<g>
			<polygon class="st38" points="637.8,278.1 656.4,278.1 626.6,304 597.9,306.1 559.5,277.1 581.5,276.4 			"/>
			<path class="st16" d="M585,243.9c2.7,10.5-2.9,23-7.7,32.7c0,0,26.8,19.1,60.5,1.5l-2.8-7.3c-3.3-8-4.2-16.7-2.7-25.2l5.7-31.7
				c1.3-7.4-3-14.6-10.2-16.9l-7.6-2.4l-2.4-0.8c-2.8-0.9-5.8-1.4-8.8-1.4H606c-4.6,0-9.2,1.1-13.4,3.3l0,0l-7.2,3.7
				c-6.2,3.2-9.3,10.3-7.6,17.1L585,243.9z"/>
			<path class="st35" d="M607.5,200.2L607.5,200.2c3.3,0,5.9-2.6,5.9-5.9v-11.9c0-0.9-0.7-1.6-1.6-1.6h-8.5c-0.9,0-1.6,0.7-1.6,1.6
				v11.9C601.6,197.6,604.3,200.2,607.5,200.2z"/>
			<path class="st34" d="M629.4,174.3c-0.9,3.8-3.8,5-6.4,5.8c-1.2,2.5-3,5-5,7.1c-2.1,2.5-4.8,4.3-7.9,5l-0.3,0.1
				c-0.2,0-0.4,0.1-0.5,0.1c-0.1,0-0.3,0-0.4,0c-0.1,0-0.2,0-0.3,0c-0.2,0-0.5,0-0.7,0c-0.3,0-0.5,0-0.7,0c-0.1,0-0.2,0-0.3,0
				c-0.1,0-0.3,0-0.4,0c-0.2,0-0.4-0.1-0.5-0.1c-0.1,0-0.2,0-0.3-0.1c-3.1-0.8-5.8-2.6-7.9-5c-1.7-1.8-3.2-3.9-4.4-6
				c-0.2-0.4-0.4-0.7-0.6-1.1c-0.8-0.2-1.6-0.5-2.4-0.9c-1.8-0.8-3.4-2.2-4-4.9c-0.5-2.1-0.2-4.7,0.9-6.2c0.4-0.6,1-1,1.8-1.1
				c0.8-0.1,1.6,0.2,2.4,0.7c1.1-5,3.8-10.4,7-14.1c1.4-1.8,3-3,4.7-3.7c0.9-0.4,1.9-0.8,2.8-0.8c0.6-0.1,1.3-0.1,1.9-0.1
				c0.6,0,1.3,0,1.9,0.1c0.9,0.1,1.9,0.4,2.8,0.8c1.7,0.7,3.3,1.9,4.7,3.7c3.3,3.7,5.9,9.1,7,14.1c0.4-0.2,0.7-0.4,1.1-0.5
				c0.5-0.2,0.9-0.2,1.3-0.2C629.3,167.3,630.1,171.3,629.4,174.3z"/>
			<g>
				<g>
					<g>
						<path class="st39" d="M598.6,169.8c0.2,0,0.4-0.1,0.5-0.3c1.5-2.9,4.2-1.7,4.3-1.6c0.3,0.1,0.6,0,0.7-0.3
							c0.1-0.3,0-0.6-0.3-0.7c-1.3-0.6-4-0.9-5.6,2.1c-0.1,0.3,0,0.6,0.2,0.7C598.4,169.8,598.5,169.8,598.6,169.8z"/>
					</g>
				</g>
				<g>
					<g>
						<path class="st39" d="M613.5,168.5c0.1,0.1,0.3,0.2,0.5,0.1c2.5-1,3.6,1.2,3.6,1.3c0.1,0.2,0.4,0.3,0.6,0.2
							c0.2-0.1,0.3-0.4,0.2-0.6c-0.5-1.1-2.1-2.8-4.7-1.8c-0.2,0.1-0.3,0.3-0.2,0.6C613.5,168.4,613.5,168.5,613.5,168.5z"/>
					</g>
				</g>
				<g>
					<g>
						<path class="st39" d="M607.3,183.8c-0.1-0.2-0.2-0.3-0.4-0.4c-3.2-0.4-3-3.3-3-3.4c0-0.3-0.2-0.5-0.5-0.5
							c-0.3,0-0.5,0.2-0.5,0.5c-0.1,1.4,0.6,4.1,3.9,4.5c0.3,0,0.5-0.2,0.6-0.4C607.4,183.9,607.4,183.8,607.3,183.8z"/>
					</g>
				</g>
				<g>
					<path class="st39" d="M609.9,182.1c0.4,0,0.7-0.1,1.1-0.3c1-0.7,1.3-2.2,0.7-4l-1.3-6.2c0-0.2-0.3-0.4-0.5-0.3
						c-0.2,0.1-0.4,0.3-0.3,0.5l1.3,6.2c0.5,1.8,0.2,2.7-0.3,3c-0.5,0.3-1.3,0.1-2-0.5c-0.2-0.2-0.5-0.2-0.6,0
						c-0.2,0.2-0.2,0.4,0,0.6C608.5,181.8,609.2,182.1,609.9,182.1z"/>
				</g>
				<path class="st39" d="M616.7,173.1c-0.1,0.9-0.8,1.6-1.6,1.5c-0.8-0.1-1.4-0.9-1.4-1.8c0.1-0.9,0.8-1.6,1.6-1.5
					C616.2,171.4,616.8,172.1,616.7,173.1z"/>
				<path class="st39" d="M603.4,173.1c-0.1,0.9-0.8,1.6-1.6,1.5c-0.8-0.1-1.4-0.9-1.4-1.8c0.1-0.9,0.8-1.6,1.6-1.5
					C602.9,171.4,603.5,172.1,603.4,173.1z"/>
			</g>
			<path class="st16" d="M631.8,198.8c0,0,3.3,0.7,6.5,4c2.9,3,29.2,49.4,29.2,49.4c0.9,5.6-18.4,8.7-18.4,8.7l-17.4-29.1
				L631.8,198.8z"/>
			<path class="st34" d="M613.7,275.3l-1.5-7.7c-0.3-1.6,0.5-3.1,2-3.8l1.6-0.8c1.8-0.8,4-0.6,5.5,0.7l5.8,4.5
				c0.9,0.7,2.2,0.8,3.2,0.2l0.3-0.2l4.6-2.7c0,0,25-21,32.2-13.5c3.4,5.2,0.7,12.2-5.2,13.7l-22.9,5.9l-6.2,1.6l-4.1,1.1
				c-0.8,0.2-1.7,0.2-2.5-0.1l-8.3-2.6c-0.6-0.2-1.1,0.2-1.2,0.8l-1,2.9C615.6,276.6,614,276.5,613.7,275.3z"/>
			<path class="st16" d="M586.7,198.8c0,0-3.3,0.7-6.5,4c-2.9,3-29.2,49.4-29.2,49.4c-0.9,5.6,18.4,8.7,18.4,8.7l17.4-29.1
				L586.7,198.8z"/>
			<path class="st34" d="M604.8,275.3l1.5-7.7c0.3-1.6-0.5-3.1-2-3.8l-1.6-0.8c-1.8-0.8-4-0.6-5.5,0.7l-5.8,4.5
				c-0.9,0.7-2.2,0.8-3.2,0.2l-0.3-0.2l-4.6-2.7c0,0-25-21-32.2-13.5c-3.4,5.2-0.7,12.2,5.2,13.7l22.9,5.9l6.2,1.6l4.1,1.1
				c0.8,0.2,1.7,0.2,2.5-0.1l8.3-2.6c0.6-0.2,1.1,0.2,1.2,0.8l1,2.9C602.9,276.6,604.5,276.5,604.8,275.3z"/>
			<g>
				<g>
					<rect x="572.9" y="240" class="st40" width="69.9" height="45"/>
					<path class="st41" d="M644,285h-72.2c-1,0-1.7,0.8-1.7,1.7l0,0c0,1,0.8,1.7,1.7,1.7H644c1,0,1.7-0.8,1.7-1.7l0,0
						C645.8,285.8,645,285,644,285z"/>
				</g>
				<path class="st41" d="M614.4,265.7c0,3.4-2.7,6.1-6.1,6.1c-3.4,0-6.1-2.7-6.1-6.1c0-3.4,2.7-6.1,6.1-6.1
					C611.7,259.6,614.4,262.3,614.4,265.7z"/>
			</g>
			<g>
				<path class="st24" d="M546.8,293.2c1.2,5.2,5.3,8.9,10.1,9.9c0.4,0.1,0.9,0.2,1.3,0.2c16.8,4.6,35.4,7.9,55.4,10.1
					c5.4,0.6,11,1.1,16.6,1.5l9.8,9.1c0.1,0.1,0.2,0.2,0.3,0.2c4.4,3.5,10.7-0.5,9.8-6l-0.6-3.2c0,0,0,0,0-0.1
					c-1.2-3.2-4-5.5-7.4-6.1L632,307c-4.9-1.5-9.7-3.1-14.3-4.7c-20.3-6.8-38.4-14.1-52.4-23.9c-2.6-1.2-5.5-1.6-8.5-1
					C549.6,279,545.2,286.1,546.8,293.2z"/>
				<path class="st39" d="M613.6,313.4c5.4,0.6,11,1.1,16.6,1.5l9.8,9.1c0.1,0.1,0.2,0.2,0.3,0.2c4.4,3.5,10.7-0.5,9.8-6l-0.6-3.2
					c0,0,0,0,0-0.1c-1.2-3.2-4-5.5-7.4-6.1L632,307c-4.9-1.5-9.7-3.1-14.3-4.7L613.6,313.4z"/>
				<path class="st24" d="M578.2,323.4c0.1-0.1,0.2-0.2,0.3-0.2l9.9-9.2c5-0.5,10-1.1,14.9-1.6c21.8-2.5,41.6-5.5,56.2-9.8
					c0.4,0,0.9-0.1,1.3-0.2c4.9-1,8.9-4.8,10.1-9.9c1.6-7.1-2.8-14.1-9.9-15.7c-3-0.7-6-0.3-8.5,1c-15,9.7-32.7,17.5-52.3,24.1
					c-4.9,1.7-10,3.2-15.1,4.7l0,0.1l-8.6,1.6c-3.3,0.6-6.2,2.9-7.3,6c0,0,0,0,0,0.1l-0.6,3.2C567.5,322.8,573.9,326.8,578.2,323.4z
					"/>
				<path class="st39" d="M578.2,323.4c0.1-0.1,0.2-0.2,0.3-0.2l9.9-9.2c5-0.5,10-1.1,14.9-1.6c-0.8-2.7-2.1-7.1-3.2-10.7
					c-4.9,1.7-10,3.2-15.1,4.7l0,0.1l-8.6,1.6c-3.3,0.6-6.2,2.9-7.3,6c0,0,0,0,0,0.1l-0.6,3.2C567.5,322.8,573.9,326.8,578.2,323.4z
					"/>
			</g>
			<g>
				<path class="st42" d="M625.4,167.3c-0.1,1.5-0.4,3-0.8,4.4c-0.6,2.1-1.5,4-2.2,6.1c-0.6,1.9-1,3.8-1.7,5.7
					c0.3-4.4-0.6-8.3-1.2-12.6c-0.7-4.3-2.5-8-3.8-12c-0.8,2.2-0.5,5.6,0.2,7.8c-3.3-0.5-4.5-4.7-6.1-7.5c-0.9,3.1,0.5,6.2,0.1,9.1
					c-2.6-1.2-4.9-5-5.7-8.1c-0.2,1.6,0,3.4-0.2,5.1c-0.2,1.5-0.5,3-0.7,4.5c-1-0.1-2.4-2.7-2.8-3.8c-0.5-1.3-0.6-2.9-0.9-4.3
					c0.1,1.2-1.3,3.1-1.9,4.3c-1,1.9-2,3.8-2.7,5.9c-1,2.9-1.3,6-1.5,9.1c-0.2-0.4-0.4-0.7-0.6-1.1c-0.8-0.2-1.6-0.5-2.4-0.9
					c-0.7-1.6-1.4-3.2-2-4.7c-0.8-2.2-1.2-4.4-1.2-6.3c-0.2-4.9,1.4-8.6,1.5-9c0.7,1.6,1.3,4.2,2.5,5.4c0.3-2.5,0-5.3,0.8-7.8
					c0.7-2.4,1.8-4.5,2.9-6.6c0,1.9-0.1,4,1.3,5.4c-0.2-1.8,1.8-5,2.8-6.3c1.4-1.9,3-4,5-4.9c-0.3,0.7-0.4,1.3-0.4,2.1
					c2.4-2,6.6-2.3,9.4-2c2.9,0.4,7,2.7,9,5.2c2.1,2.6,2.6,6.8,3.2,10.1C625.6,162.3,625.7,164.8,625.4,167.3z"/>
			</g>
			<g>
				<path class="st37" d="M590.9,179h-3c-1,0-1.9-0.8-1.9-1.9v-10.7c0-1,0.8-1.9,1.9-1.9h3c1,0,1.9,0.8,1.9,1.9v10.7
					C592.7,178.2,591.9,179,590.9,179z"/>
				<path class="st37" d="M627.5,179h-3c-1,0-1.9-0.8-1.9-1.9v-10.7c0-1,0.8-1.9,1.9-1.9h3c1,0,1.9,0.8,1.9,1.9v10.7
					C629.4,178.2,628.5,179,627.5,179z"/>
				<g>
					<path class="st37" d="M627.2,166.5l-2.3-0.1c0.2-10-2.3-15.3-8.9-18c-4.6-1.9-9.7-2.2-14.5-0.7c-7.8,2.4-11.3,8.3-10.9,18.3
						l-2.3,0.1c-0.4-11,3.8-17.9,12.6-20.6c5.3-1.6,10.9-1.3,16,0.8C626.3,150.2,627.4,158.7,627.2,166.5z"/>
				</g>
				<g>
					<g>
						<path class="st37" d="M599.3,186.1c-11-0.1-11.1-7.6-11.1-7.7h2.3h-1.2l1.2,0c0,0.2,0.2,5.3,8.8,5.4L599.3,186.1z"/>
					</g>
					<path class="st37" d="M603.5,186.5h-4.3c-0.6,0-1-0.5-1-1v-2.2c0-0.6,0.5-1,1-1h4.3c0.6,0,1,0.5,1,1v2.2
						C604.5,186,604,186.5,603.5,186.5z"/>
				</g>
			</g>
		</g>
	</g>
</g>
</svg>
