<?xml version="1.0" encoding="utf-8"?>
<!-- Generator: Adobe Illustrator 23.0.2, SVG Export Plug-In . SVG Version: 6.00 Build 0)  -->
<svg version="1.1" id="Layer_1" xmlns="http://www.w3.org/2000/svg" xmlns:xlink="http://www.w3.org/1999/xlink" x="0px" y="0px"
	 viewBox="0 0 869 634.7" style="enable-background:new 0 0 869 634.7;" xml:space="preserve">
<style type="text/css">
	.st0{fill:#FFC800;}
	.st1{fill:#FF9900;}
	.st2{fill:#10ADB8;}
	.st3{fill:#D15AC5;}
	.st4{fill:#AD32A0;}
	.st5{fill:none;stroke:#FFFFFF;stroke-width:2.4236;stroke-miterlimit:10;}
	.st6{fill:#FFFFFF;}
	.st7{fill:none;stroke:#FFFFFF;stroke-width:2.0898;stroke-miterlimit:10;}
	.st8{fill:#0978B0;}
	.st9{fill:none;stroke:#FFC800;stroke-width:2.3553;stroke-miterlimit:10;}
	.st10{fill:#D81313;}
	.st11{fill:none;stroke:#0978B0;stroke-width:6.2694;stroke-miterlimit:10;}
	.st12{fill:none;stroke:#D15AC5;stroke-width:4.1796;stroke-miterlimit:10;}
	.st13{fill:#D1D3D4;}
	.st14{fill:none;stroke:#10ADB8;stroke-width:10.4489;stroke-linecap:round;stroke-linejoin:round;stroke-miterlimit:10;}
</style>
<title>chat</title>
<g>
	<g>
		<path class="st0" d="M765.5,314.4c27.5,80.6-14,169.6-88.4,219.2c-77.2,51.5-173.4,53.9-264.4,45.9c-7.8-0.7-15.5-1.4-23.3-2.3
			c-57.3-6.1-116-19.4-165-48.8c-51.9-31.2-115.1-91.3-116-153.1c-0.7-48.6,10.4-100.4,60.9-124.1c27.1-12.7,58.2-13.4,86.2-23.3
			c26.5-9.4,45.9-30.2,59.8-52.7c16.2-26.5,26.7-56,45.3-81.1c43.7-59.1,130-85.3,201.6-58c36.4,13.9,64.8,40.6,83.7,72.6
			c20.7,35.1,25.5,77.2,51.9,109.5C722.8,249,752.6,276.5,765.5,314.4z"/>
		<path class="st1" d="M422.5,533c-12.1-7.4-23.6-16-35.3-24.6c-22-16.4-42.8-29.2-70.6-35c-28.2-5.8-57.9-6.5-84.8-17.5
			c-36.6-15.1-62-48.5-73.5-84.5c-11.5-36-10.6-74.4-6.2-111.7c-29.3,28.8-45.7,68.9-44.5,108.7c2,68.9,58,124.8,116.7,160
			c49,29.5,107.8,42.8,165,48.8c7.8,0.8,15.5,1.6,23.3,2.3c66.2,5.8,136.6,7,199.9-14.8c-13.5,4.6-33.7-0.9-47.4-2.2
			c-33.2-3.1-67-2.8-99.4-10.8C449.8,547.8,435.7,541.1,422.5,533z"/>
		<path class="st0" d="M677.1,533.6c-19.3,12.9-39.7,22.6-61,30c-65.2,10-129.8-6.2-181.2-47.1c-31.3-25.5-50.2-64.8-89.9-76.6
			c-48.1-13.8-102.4,2-142.1-27.5c-47.4-36.9-59.7-96.2-49.4-152.1c4.7-3.3,9.9-6.4,15.6-9.1c27.1-12.7,58.2-13.4,86.2-23.3
			c26.5-9.4,45.9-30.2,59.7-52.7c11.6-18.9,20.3-39.4,31.1-58.7c4.3-7.7,9-15.2,14.3-22.4c43.7-59.1,130-85.3,201.6-58
			c26.6,10.2,49,27.2,66.5,48.1c6.4,7.7,12.2,15.9,17.2,24.5c20.7,35.1,25.5,77.2,51.9,109.4c25.2,30.8,54.9,58.3,67.9,96.2
			C793.1,395,751.5,484,677.1,533.6z"/>
		<path class="st1" d="M628.5,84.3c-11.3,11.7-28.2,18.3-44.4,16c-7.6,8.8-21,12-31.7,7.5c-10.7-4.4-18-16.1-17.2-27.7
			c-1.1,23.2-22.8,43.5-46,43.1c-22.5-0.4-42.9-20-44.5-42.4c-0.1,6.8-4.3,13.4-10.4,16.3c-6.8,3.2-15.6,1.6-20.8-3.8
			c-3.6,18.4-21,33-39.7,33.4c-10,0.2-19.9-3.7-27.5-10.2c4.3-7.7,9-15.2,14.3-22.4c43.7-59.1,130-85.3,201.6-58
			C588.7,46.3,611,63.3,628.5,84.3z"/>
		<path class="st0" d="M515.6,51.2c-0.5-2.3-4.1-1.3-3.6,1c2,7.8-2.1,16.8-10.1,19.2c-7.2,2.2-14.9-1.3-18.7-7.6
			c-0.9-1.6-3.1-0.7-3.2,0.9c-1.2,11-8.9,20.7-19.8,23.4c-5,1.3-10.4,0.9-15.2-0.8c-5.6-1.9-8.8-5.6-13.3-9.1
			c-0.8-0.6-1.8,0.1-1.4,1.1c4.7,10.7,21.2,14.2,31.4,11.4c10.4-2.9,18.2-11.7,20.9-21.9c5.3,5.8,13.9,8.5,21.4,5.5
			C513.2,70.8,517.7,60.5,515.6,51.2z"/>
		<path class="st1" d="M711.6,487.9c-8.7,14.9-14.7,27.6-29,38.5c-12.2,9.3-26.1,16.2-38.5,25.3c-24.5,17.9-52.9,29.8-82.3,36.6
			c-17,4-27.2-9.2-17.6-23.1c9.1-13.1,24.1-21.1,31.9-35.3c15.7-28.3-4.6-65.7,8.1-95.4c2.9-6.7,9.3-13.4,16.3-11.6
			c8.7,2.3,9.2,14.4,7.6,23.2c-2,11.2,1.4,31.6,17.5,24.3c29.4-13.3,14.7-65.4,8.8-86.7c-4-14.3-2.6-27.4-3.6-42
			c-0.5-7.4,1.6-16.3,8.5-18.9c6.7-2.4,14.1,2.9,17,9.3c3,6.5,2.9,13.9,3.9,20.9c0.4,3.1,1.1,6.2,3.1,8.6c2,2.3,5.7,3.5,8.3,1.8
			c2.6-1.7,2.9-5.3,3-8.4c0.5-18.1,0.1-33.2-3.2-51c-3.1-16.6-9.9-35.9-9.9-52.7c-1.7-8.9-2.9-19.2,3.3-25.8
			c7.7-8.2,22.5-4.1,29.1,5c6.6,9.1,7.2,21.1,7.6,32.3c1,27.2,4.9,55.5,3.3,82.4c-0.1,2.2-0.2,4.5,1,6.3c2.5,3.6,8.7,2,11-1.8
			c2.3-3.8,2.1-8.5,2.3-12.9c0.2-4.4,1.1-9.4,4.8-11.8c4.5-3,11-0.5,13.9,4c3,4.5,3.3,10.2,3,15.5c-1.1,25.2-8.2,53.4-27.1,71
			c-10.7,9.9-23,17.2-32.2,28.7c-9.8,12-11.2,25.2-14.3,40.1c4.9,3.8,12.3,1.5,16.8-2.7c4.5-4.2,7.5-9.9,12-14.2s11.8-6.8,16.8-3.1
			c3.5,2.6,4.6,7.4,4,11.7C716,480.3,713.8,484.2,711.6,487.9z"/>
		<path class="st0" d="M721.9,357c-5.3,6.3-9.2,13.9-13.6,20.9c-4.9,7.8-9.8,15.7-14.6,23.5c-6.8,10.9-13.7,21.7-20.4,32.7
			c13.3-36.2,20.3-74.6,20.6-113.3c0.3-34.7-4.2-70.4-15.8-103.2c-0.4-1.2-2.2-0.7-1.9,0.5c7.9,30.1,13.5,60.3,14.2,91.5
			c0.6,30.3-2.7,60.7-10.2,90.1c-4,15.9-9.3,31.5-15.7,46.6c-6.2-31.9-13.8-63.5-20.7-95.2c-0.3-1.4-2.4-0.8-2.1,0.6
			c6.7,33.4,12.7,67,20.4,100.1c-13.8,31.1-32.4,60.1-55,85.8c-0.3-26.1-4.1-53-13.3-77.3c-0.4-1.2-2.3-0.7-1.9,0.5
			c7.2,26.7,11.9,53.1,11.7,80.7c-0.8,0.9-1.6,1.8-2.4,2.6c-9.1,9.8-18.7,18.7-28.8,27.1c-29.5,3-59.3,1.7-88.6-4
			c-20.5-4-40.6-10.1-59.8-18.2c-19.3-8.2-37.7-18.6-57.4-26.1c-39.3-14.9-82.6-12-121.8-26.9c-35-13.3-65.8-37.7-86.5-68.8
			c-24.9-37.5-34.3-83.5-28.4-127.9c0.2-1.3-2.1-1.6-2.3-0.3c-13.4,77.6,27.7,156.4,97.3,192.2c17.3,8.9,35.7,14.7,54.8,18.1
			c22.2,4,44.8,5.7,66.7,11.2c22.4,5.7,42.7,16.5,63.5,26.3c19.1,9,38.8,16.3,59.3,21.3c31.8,7.8,65,10.4,97.6,7.7
			c-9.5,7.6-19.4,14.8-29.6,21.8c-0.3-1-1.7-1.7-2.5-0.7c-1.5,1.8-3.1,3.6-4.5,5.5c-1.3,1.7,0.3,4.3,2.4,3.1
			c15-8.5,29.2-19,42.4-30.5c12.1-1.3,24.2-3.4,36-6.2c2.4-0.6,1.4-4.2-1-3.7c-9.9,2.2-19.8,4-29.8,5.2c5.6-5.1,11.1-10.3,16.4-15.7
			c2.3-2.3,4.6-4.7,6.8-7.1c0.1,1,1.2,2,2.2,1.6c11.7-4.9,23.4-9.8,35.2-14.6c5.7-2.4,11.4-4.7,17.1-7.1c5.4-2.3,11.4-4.1,16.4-7.2
			c1.4-0.9,0.5-3-1.1-2.6c-5.9,1.4-11.6,4.5-17.2,6.8c-5.7,2.4-11.4,4.8-17.1,7.1c-10.6,4.4-21.3,8.9-31.9,13.3c0-0.4,0-0.8,0-1.2
			c14.9-16.5,28.2-34.5,39.6-53.6c8.4-14.1,15.7-28.7,21.8-43.8c9.4-13.8,18-28.3,26.8-42.5c4.7-7.5,9.4-15.1,14.2-22.6
			c4.6-7.4,10.2-14.8,13.7-22.9C723.7,357.3,722.6,356.1,721.9,357z"/>
		<path class="st0" d="M420.8,578.8c-30.9-17.1-64.2-30.6-98-40.7c-16.9-5.1-34.1-9.3-51.4-12.6c-17.3-3.4-35.1-6.6-52.8-6.9
			c-0.8,0-1,1.3-0.2,1.4c17.3,3.1,34.8,5,52.1,8.5c17,3.4,33.8,7.7,50.4,12.7c34,10.3,66.6,24.2,98.2,40.5
			C421,582.6,422.7,579.8,420.8,578.8z"/>
	</g>
	<g>
		<path class="st2" d="M487.6,9c-13.6,29.2-41.5,51.8-72.8,59.1c-7.8,1.8-16,2.8-23.9,3.7c-8.2,1-16.6,2-24.8,3.9
			c-5.3,1.3-12.5,3.5-19.5,7.3c-0.9-0.3-1.9-0.6-2.8-0.9c-13.2-3.6-28.7-2.1-46.3,4.3c-49.8,18.2-88.1,65.8-95.5,118.3
			c-2.9,20.8-1.3,42,0.2,62.6l0.4,5.7c1.7,22.9,2.7,45.2-2.4,67c-3.1,13.5-8.6,25.6-15.9,35.4c-6.7-14-15.4-29.5-29-39.9
			c-12.6-9.6-32.5-15.1-48.6-5.9c-9,5.2-15.2,14.9-16.7,26.6c-1.8,13.1,2.5,26.7,11.1,35.3c15.8,15.9,43.9,18.3,65.5,5.6
			c6.1-3.6,11.8-8.4,16.8-14c9.4,20.4,17.1,41.9,24.7,62.7c5.5,15.1,11.1,30.6,17.3,45.7c19.3,46.8,40.8,79.2,67.7,101.7
			c25.3,21.2,55.6,32.6,84.3,32.6c10.9,0,21.5-1.6,31.6-5c8.3-2.7,17-7.4,23.5-13.9c3.1,0.6,6.2,1,9,1.3c33.1,3.3,67.5-3.4,96.8-19
			l-1.9-3.7c-28.7,15.2-62.2,21.7-94.5,18.5c-2-0.2-4-0.4-6.1-0.8c3.9-4.9,6.6-10.7,7.2-17.2c0.9-10.7-7.1-20.3-15.4-24.1
			c-7.6-3.5-15.2-2.5-20.2,2.8c-3.4,3.5-5.2,8.3-5.1,13.7c0.1,6.8,3.2,13.6,8.1,18.3c5,4.7,11.1,7.4,17.3,9.1c-5.8,5-13,8.7-20,11
			c-35.4,11.7-78.2,1.5-111.9-26.8c-26.4-22.1-47.5-53.9-66.5-100.1c-6.2-15-11.8-30.5-17.3-45.5c-7.8-21.5-15.8-43.7-25.7-64.8
			c8.3-10.6,14.6-23.8,18-38.7c5.2-22.3,4.1-46,2.5-68.3l-0.4-5.7c-1.5-20.3-3.1-41.3-0.2-61.7c7.2-51,44.5-97.2,92.8-114.9
			c16.3-6,30.7-7.5,42.8-4.4c-6.5,4.4-12.4,10.3-16,18.3c-4,8.9-3.5,19.9,1.3,28.9c3.9,7.3,10,12,17.3,13.2
			c7.1,1.2,14.5-1.3,20.4-6.7c6.8-6.2,10.5-15.5,9.8-24c-1.1-12.6-10.1-24.3-22.9-30.5c5.6-2.7,11.2-4.3,15.4-5.3
			c8-1.9,16.3-2.9,24.3-3.8c8-1,16.3-1.9,24.4-3.8c32.5-7.6,61.5-31.1,75.6-61.4 M347,87.6c13,5.1,22.4,16.3,23.5,28.4
			c0.6,7.3-2.6,15.2-8.5,20.6c-5,4.6-11.1,6.6-16.9,5.7c-5.9-1-11-4.9-14.3-11.1c-4.1-7.7-4.6-17.6-1.2-25.2
			C333.4,97.7,340,91.8,347,87.6z M164.4,393.7c-19.9,11.7-45.9,9.6-60.4-5c-7.7-7.8-11.5-20-9.9-31.8c1.4-10.4,6.8-19,14.7-23.5
			c5.1-2.9,10.7-4.2,16.3-4.2c10.1,0,20.3,4.1,27.7,9.8c13.1,9.9,21.5,25.2,28,38.9c0.2,0.4,0.4,0.9,0.6,1.3
			C176.4,385,170.7,390,164.4,393.7z M431.1,602.5c-6.4-1.5-12.9-4-17.9-8.7c-4.1-3.8-6.7-9.7-6.8-15.3c0-3,0.6-7.3,3.9-10.7
			c2.6-2.7,5.6-3.5,8.4-3.5c3,0,5.6,1,7.1,1.7c7,3.2,13.8,11.1,13,19.9C438.3,592.3,435.4,597.8,431.1,602.5z"/>
	</g>
	<g>
		<path class="st3" d="M569.3,290.6V406c0,3.9-0.9,7.5-2.4,10.8c-4,8.5-12.7,14.4-22.8,14.4H373.7l-41.5,41.5v-41.5h-7
			c-13.9,0-25.2-11.3-25.2-25.2V290.6c0-13.9,11.3-25.2,25.2-25.2h218.8C558,265.4,569.3,276.7,569.3,290.6z"/>
		<path class="st4" d="M569.3,290.6V406c0,3.9-0.9,7.5-2.4,10.8l-13.7-13.7H382.8c-13.9,0-25.2-11.3-25.2-25.3V265.4h186.5
			C558,265.4,569.3,276.7,569.3,290.6z"/>
		<path class="st2" d="M621,222.7H402.2c-13.9,0-25.2,11.3-25.2,25.2v115.4c0,13.9,11.3,25.2,25.2,25.2h170.4L614,430v-41.5h7
			c13.9,0,25.2-11.3,25.2-25.2V248C646.2,234,634.9,222.7,621,222.7z"/>
		<path class="st5" d="M634.8,360.2V254.6c0-12.8-10.3-23.1-23.1-23.1H411.5"/>
		<path class="st6" d="M463.6,344.8c0,6.1-4.9,11-11,11s-11-4.9-11-11c0-6.1,4.9-11,11-11S463.6,338.7,463.6,344.8z"/>
		<path class="st6" d="M522.6,344.8c0,6.1-4.9,11-11,11s-11-4.9-11-11c0-6.1,4.9-11,11-11S522.6,338.7,522.6,344.8z"/>
		<path class="st6" d="M581.7,344.8c0,6.1-4.9,11-11,11s-11-4.9-11-11c0-6.1,4.9-11,11-11S581.7,338.7,581.7,344.8z"/>
	</g>
	<g>
		<polygon class="st4" points="668,150.5 693.5,171 703.4,132.7 		"/>
		<polygon class="st3" points="741.4,124.7 629.3,190 558.9,71.9 		"/>
		<line class="st7" x1="720.3" y1="124.7" x2="612.6" y2="92.2"/>
		<polygon class="st4" points="680.9,160.4 558.9,71.9 699.4,148.2 		"/>
	</g>
	<g>
		
			<rect x="154.1" y="127.6" transform="matrix(0.9444 -0.3289 0.3289 0.9444 -46.547 91.1817)" class="st2" width="184.4" height="111.2"/>
		<polyline class="st7" points="279,221.1 338.8,200.8 315,124.7 		"/>
		<polygon class="st2" points="351.6,205.4 247,185.4 177.5,266 		"/>
		<polygon class="st8" points="315,100.3 302.7,115.8 247,185.4 160.8,165.3 141.5,160.8 153.9,145.5 183.7,109 209.4,77.5 
			249.5,86.1 295.9,96.2 		"/>
		<polygon class="st3" points="287.7,72.8 302.7,115.8 247,185.4 160.8,165.3 145.8,122.2 		"/>
		<line class="st9" x1="177.5" y1="134" x2="204.3" y2="124.7"/>
		<line class="st9" x1="184.1" y1="152.9" x2="275.3" y2="121.1"/>
		<line class="st9" x1="187.8" y1="163.5" x2="279" y2="131.7"/>
	</g>
	<g>
		<g>
			<path class="st2" d="M761.5,367.7c1.5,3.1,7.4,14.4,11.5,20.7c8,12.6,10.1,19.8,6.2,34.9c-4,15.5-10.8,30.1-17.8,44.4
				c-14.7,29.9-34.9,56.9-58.8,79.9c-67.5,64.9-136.8,57.7-148.5,60.1c-11.7,2.4-33.7-23.2-33.7-23.2c16.9-11.9,48-24.2,63.2-29.8
				c0,0,11.2,35.4,67-9.3c55.8-44.7,104.2-99.8,72.9-119.2C734,402.5,761.5,367.7,761.5,367.7z"/>
			<path class="st7" d="M699.4,533.8c0,0,57.9-55.5,74.7-128.8"/>
			<path class="st8" d="M723.5,426.3C723.5,426.3,723.5,426.3,723.5,426.3c31.3,19.4-17,74.4-72.8,119.2c-55.8,44.7-67,9.3-67,9.3
				l0,0c5.5-2,8.9-3.2,8.9-3.2c22.8,28.3,113-76.6,125.7-91.6c12.7-15,2.1-24.7,2.1-24.7L723.5,426.3z"/>
			<path class="st10" d="M723.5,426.3l-3.2,8.9C720.9,432.5,722,429.5,723.5,426.3z"/>
		</g>
		<path class="st2" d="M520.4,584.5l-13-21.1c-5.1-8.2-3-19,4.9-24.7c12.4-9,31.4-21,49.4-25.3c9.2-2.2,18.6,3,21.7,11.9l9.1,26.1
			L520.4,584.5z"/>
		<path class="st2" d="M720.3,435.2l-15.9-9.1c-4.9-2.8-7.8-8.2-7.5-13.9c1-14.6,6.2-42.4,31.6-57c5-2.9,11.2-2.6,16,0.7l17,11.8
			C761.5,367.7,740.7,399.6,720.3,435.2z"/>
	</g>
	<path class="st11" d="M592.5,551.5c0,0-28.5,21.7-72.1,33"/>
	<path class="st11" d="M720.3,435.2c0,0,37.6-35.5,41.2-67.5"/>
	<path class="st12" d="M712.3,179.3c13.3,12.7,21.9,30.2,23.9,48.5c1.1,9.9,0.1,20.3-4.7,29.1c-4.8,8.7-14,15.5-24,15.4
		c-10,0-19.8-8.1-20.2-18c-0.4-11,10.6-20,21.6-20.3c11-0.3,21.2,6.2,28.5,14.4c19.2,21.4,21.8,55.9,5.9,79.9"/>
	<g>
		<circle class="st3" cx="221.8" cy="521.3" r="87.8"/>
		<path class="st7" d="M221.8,440.9c44.4,0,80.4,36,80.4,80.4"/>
		
			<ellipse transform="matrix(0.1649 -0.9863 0.9863 0.1649 -328.9417 654.0931)" class="st6" cx="221.8" cy="521.3" rx="70.7" ry="70.7"/>
		<path class="st13" d="M221.8,450.6c-20.9,0-39.6,9-52.6,23.4c12.5-11.3,29.1-18.1,47.3-18.1c39.1,0,70.7,31.7,70.7,70.7
			c0,18.2-6.9,34.8-18.1,47.3c14.4-12.9,23.4-31.7,23.4-52.6C292.5,482.2,260.8,450.6,221.8,450.6z"/>
		<polyline class="st14" points="224.3,472.5 224.3,525 262.1,525 		"/>
	</g>
</g>
</svg>
