<?xml version="1.0" encoding="utf-8"?>
<!-- Generator: Adobe Illustrator 23.0.2, SVG Export Plug-In . SVG Version: 6.00 Build 0)  -->
<svg version="1.1" id="Layer_1" xmlns="http://www.w3.org/2000/svg" xmlns:xlink="http://www.w3.org/1999/xlink" x="0px" y="0px"
	 viewBox="0 0 873.6 795" style="enable-background:new 0 0 873.6 795;" xml:space="preserve">
<style type="text/css">
	.st0{fill:#1472FA;}
	.st1{fill:#4287FC;}
	.st2{fill:#FFFFFF;}
	.st3{fill:#4D99F4;}
	.st4{fill:#4A93DD;}
	.st5{fill:#DFEFFE;}
	.st6{fill:#0129BE;}
	.st7{fill:#0054DB;}
	.st8{fill:#95C8FD;}
	.st9{fill:#FF7101;}
	.st10{fill:#FFA401;}
	.st11{fill:#FFDD79;}
	.st12{fill:#B40500;}
	.st13{fill:#FEA996;}
	.st14{fill:#FFC9C0;}
	.st15{fill:#F98F7D;}
	.st16{fill:#08193F;}
	.st17{fill:#0F1E55;}
	.st18{fill:#C6DCF4;}
	.st19{fill:#E9F1FB;}
	.st20{fill:#001C9E;}
	.st21{fill:#001D87;}
	.st22{fill:#16A550;}
	.st23{fill:#21D36D;}
	.st24{fill:#FCD45B;}
	.st25{fill:#FEAD00;}
	.st26{fill:#F7C121;}
	.st27{fill:#E41601;}
	.st28{fill:#FF3127;}
	.st29{fill:#20B75D;}
</style>
<title>customer survey</title>
<g>
	<g>
		<g>
			<path class="st0" d="M274.5,283.3v173.4c0,1.7-1.3,3-3,3H49.2c-1.7,0-3-1.3-3-3V283.3c0-1.7,1.3-3,3-3h222.3
				C273.1,280.3,274.5,281.6,274.5,283.3z"/>
			<path class="st1" d="M274.5,283.3v33.2c0,1.7-1.3,3-3,3H49.2c-1.7,0-3-1.3-3-3v-33.2c0-1.7,1.3-3,3-3h222.3
				C273.1,280.3,274.5,281.6,274.5,283.3z"/>
		</g>
		<path class="st2" d="M128,300.7H63.6c-0.6,0-1-0.5-1-1v-5c0-0.6,0.5-1,1-1H128c0.6,0,1,0.5,1,1v5C129,300.2,128.5,300.7,128,300.7
			z"/>
		<path class="st2" d="M146.9,300.7h-10.3c-0.6,0-1-0.5-1-1v-5c0-0.6,0.5-1,1-1h10.3c0.6,0,1,0.5,1,1v5
			C147.9,300.2,147.5,300.7,146.9,300.7z"/>
		<g>
			<path class="st1" d="M158.7,344.3h-95c-0.6,0-1-0.5-1-1v-5c0-0.6,0.5-1,1-1h95c0.6,0,1,0.5,1,1v5
				C159.7,343.8,159.3,344.3,158.7,344.3z"/>
			<path class="st1" d="M186.4,344.3h-16c-0.6,0-1-0.5-1-1v-5c0-0.6,0.5-1,1-1h16c0.6,0,1,0.5,1,1v5
				C187.4,343.8,187,344.3,186.4,344.3z"/>
		</g>
		<g>
			<path class="st1" d="M152.5,368.9h55c0.6,0,1-0.5,1-1v-5c0-0.6-0.5-1-1-1h-55c-0.6,0-1,0.5-1,1v5
				C151.5,368.5,152,368.9,152.5,368.9z"/>
			<path class="st1" d="M63.6,368.9h79.1c0.6,0,1-0.5,1-1v-5c0-0.6-0.5-1-1-1H63.6c-0.6,0-1,0.5-1,1v5
				C62.6,368.5,63.1,368.9,63.6,368.9z"/>
		</g>
		<g>
			<path class="st1" d="M118.6,393.6h-55c-0.6,0-1-0.5-1-1v-5c0-0.6,0.5-1,1-1h55c0.6,0,1,0.5,1,1v5
				C119.7,393.1,119.2,393.6,118.6,393.6z"/>
			<path class="st1" d="M207.5,393.6h-79.1c-0.6,0-1-0.5-1-1v-5c0-0.6,0.5-1,1-1h79.1c0.6,0,1,0.5,1,1v5
				C208.6,393.1,208.1,393.6,207.5,393.6z"/>
		</g>
	</g>
	<g>
		<g>
			<path class="st3" d="M797.4,48.7v268.4c0,0.2,0,0.4,0,0.6c-0.3,7.9-6.9,14.1-15,14.1H399c-8.3,0-15-6.6-15-14.7V48.7
				c0-8.1,6.7-14.7,15-14.7h383.4C790.7,34,797.4,40.6,797.4,48.7z"/>
			<path class="st4" d="M797.4,50.7v267.1c-0.3,7.9-6.9,14.1-15,14.1H775V50.7H797.4z"/>
			<path class="st0" d="M797.4,48.7v16.6H384V48.7c0-8.1,6.7-14.7,15-14.7h383.5C790.7,34,797.4,40.6,797.4,48.7z"/>
			<circle class="st2" cx="418" cy="50.7" r="4.9"/>
			<circle class="st2" cx="437.9" cy="50.7" r="4.9"/>
			<circle class="st2" cx="457.9" cy="50.7" r="4.9"/>
			<path class="st2" d="M792.1,167.6h-9.6c-1,0-1.8-0.8-1.8-1.8v-59c0-1,0.8-1.8,1.8-1.8h9.6c1,0,1.8,0.8,1.8,1.8v59
				C793.9,166.8,793.1,167.6,792.1,167.6z"/>
		</g>
		<path class="st2" d="M735.3,182.9H413.7c-7.9,0-14.2-6.4-14.2-14.2V97c0-7.9,6.4-14.2,14.2-14.2h321.6c7.9,0,14.2,6.4,14.2,14.2
			v71.6C749.5,176.5,743.2,182.9,735.3,182.9z"/>
		<path class="st0" d="M735.3,304.9H413.7c-7.9,0-14.2-6.4-14.2-14.2V219c0-7.9,6.4-14.2,14.2-14.2h321.6c7.9,0,14.2,6.4,14.2,14.2
			v71.6C749.5,298.5,743.2,304.9,735.3,304.9z"/>
	</g>
	<ellipse class="st5" cx="437.7" cy="715.6" rx="421.6" ry="53.2"/>
	<g>
		<g>
			
				<rect x="318.4" y="514.7" transform="matrix(-1.836970e-16 1 -1 -1.836970e-16 992.6816 50.7723)" class="st6" width="305.1" height="14"/>
			<g>
				<g>
					<g>
						<path class="st7" d="M434.6,715.3c-3.4,0-6.1-2.7-6.1-6.1v-0.1c0-11.3,4.4-21.9,12.5-29.9c8-8,18.7-12.5,29.9-12.5
							c11.3,0,21.9,4.4,29.9,12.5c8,8,12.5,18.7,12.5,29.9c0,3.4-2.7,6.1-6.1,6.1c-3.4,0-6.1-2.7-6.1-6.1
							c0-16.7-13.6-30.3-30.3-30.3c-16.7,0-30.3,13.6-30.3,30.3v0.1C440.7,712.6,438,715.3,434.6,715.3z"/>
					</g>
				</g>
			</g>
		</g>
		<g>
			<g>
				<g>
					<rect x="219.9" y="124.7" class="st8" width="496.6" height="361.9"/>
				</g>
			</g>
			<g>
				<polygon class="st3" points="220.5,126 715.5,139.5 715.8,124.7 				"/>
			</g>
			<g>
				<rect x="215.4" y="115" class="st7" width="511" height="11"/>
			</g>
			<g>
				<rect x="215.4" y="478.1" class="st7" width="511" height="11"/>
			</g>
		</g>
		<g>
			<g>
				<path class="st2" d="M371.2,434.8H365c-1.4,0-2.6-1.2-2.6-2.6v-41.4c0-1.4,1.2-2.6,2.6-2.6h6.2c1.4,0,2.6,1.2,2.6,2.6v41.4
					C373.8,433.7,372.7,434.8,371.2,434.8z"/>
				<path class="st2" d="M405.5,434.8h-6.2c-1.4,0-2.6-1.2-2.6-2.6v-64.4c0-1.4,1.2-2.6,2.6-2.6h6.2c1.4,0,2.6,1.2,2.6,2.6v64.4
					C408.1,433.7,407,434.8,405.5,434.8z"/>
				<path class="st2" d="M439.9,434.8h-6.2c-1.4,0-2.6-1.2-2.6-2.6v-28c0-1.4,1.2-2.6,2.6-2.6h6.2c1.4,0,2.6,1.2,2.6,2.6v28
					C442.5,433.7,441.3,434.8,439.9,434.8z"/>
				<path class="st2" d="M474.2,434.8h-6.2c-1.4,0-2.6-1.2-2.6-2.6V373c0-1.4,1.2-2.6,2.6-2.6h6.2c1.4,0,2.6,1.2,2.6,2.6v59.2
					C476.8,433.7,475.6,434.8,474.2,434.8z"/>
				<path class="st2" d="M508.5,434.8h-6.2c-1.4,0-2.6-1.2-2.6-2.6V357c0-1.4,1.2-2.6,2.6-2.6h6.2c1.4,0,2.6,1.2,2.6,2.6v75.2
					C511.1,433.7,509.9,434.8,508.5,434.8z"/>
				<path class="st2" d="M542.8,434.8h-6.2c-1.4,0-2.6-1.2-2.6-2.6v-91c0-1.4,1.2-2.6,2.6-2.6h6.2c1.4,0,2.6,1.2,2.6,2.6v91
					C545.4,433.7,544.2,434.8,542.8,434.8z"/>
				<circle class="st2" cx="539.7" cy="331.5" r="2.6"/>
				<path class="st2" d="M539.9,331.8l-0.4-0.7l-32,15.9c-0.5-0.7-1.2-1.1-2.1-1.1c-1.4,0-2.6,1.1-2.6,2.6c0,0.2,0,0.5,0.1,0.7
					l-29.7,13.7c-0.5-0.7-1.2-1.1-2.1-1.1c-1.4,0-2.6,1.1-2.6,2.6c0,0.5,0.2,1,0.4,1.4l-30.6,28c-0.4-0.3-1-0.6-1.6-0.6
					c-0.5,0-0.9,0.1-1.3,0.4l-31.1-37.3c0.4-0.5,0.6-1,0.6-1.7c0-1.4-1.1-2.6-2.6-2.6s-2.6,1.1-2.6,2.6c0,0.4,0.1,0.8,0.3,1.1
					l-30.2,21.7c-0.5-0.5-1.1-0.8-1.8-0.8c-1.4,0-2.6,1.1-2.6,2.6c0,1.4,1.1,2.6,2.6,2.6s2.6-1.1,2.6-2.6c0-0.4-0.1-0.8-0.3-1.1
					l30.2-21.7c0.5,0.5,1.1,0.8,1.8,0.8c0.5,0,0.9-0.1,1.3-0.4l31.1,37.3c-0.4,0.5-0.6,1-0.6,1.7c0,1.4,1.1,2.6,2.6,2.6
					s2.6-1.1,2.6-2.6c0-0.5-0.2-1-0.4-1.4l30.6-28c0.4,0.3,1,0.6,1.6,0.6c1.4,0,2.6-1.1,2.6-2.6c0-0.2,0-0.5-0.1-0.7l29.7-13.7
					c0.5,0.7,1.2,1.1,2.1,1.1c1.4,0,2.6-1.1,2.6-2.6c0-0.3,0-0.5-0.1-0.8L539.9,331.8z"/>
			</g>
			<g>
				<path class="st2" d="M601.9,298.8H326.2c-6.9,0-12.5-5.6-12.5-12.5v-124c0-6.9,5.6-12.5,12.5-12.5h275.8
					c6.9,0,12.5,5.6,12.5,12.5v124C614.5,293.1,608.8,298.8,601.9,298.8z"/>
				<g>
					<path class="st9" d="M490.2,188.2l-16.7-15.7c-6,6.3-7.8,15.5-4.8,23.7c1.1,3,2.8,5.7,5.1,8L490.2,188.2z"/>
					<path class="st10" d="M490.2,229l-16.7-15.7c-6,6.3-7.8,15.5-4.8,23.7c1.1,3,2.8,5.7,5.1,8L490.2,229z"/>
					<path class="st9" d="M572.9,190.2h-72.1c-1,0-1.8-0.8-1.8-1.8v-0.6c0-1,0.8-1.8,1.8-1.8h72.1c1,0,1.8,0.8,1.8,1.8v0.6
						C574.7,189.5,573.9,190.2,572.9,190.2z"/>
					<path class="st10" d="M572.9,231.1h-72.1c-1,0-1.8-0.8-1.8-1.8v-0.6c0-1,0.8-1.8,1.8-1.8h72.1c1,0,1.8,0.8,1.8,1.8v0.6
						C574.7,230.3,573.9,231.1,572.9,231.1z"/>
					<path class="st11" d="M490.2,267.9l-16.7-15.7c-6,6.3-7.8,15.5-4.8,23.7c1.1,3,2.8,5.7,5.1,8L490.2,267.9z"/>
					<path class="st11" d="M572.9,269.9h-72.1c-1,0-1.8-0.8-1.8-1.8v-0.6c0-1,0.8-1.8,1.8-1.8h72.1c1,0,1.8,0.8,1.8,1.8v0.6
						C574.7,269.2,573.9,269.9,572.9,269.9z"/>
				</g>
				<g>
					<path class="st9" d="M376.4,229l0.2-44.8c-0.1,0-0.1,0-0.2,0c-24.6,0-44.8,20.2-44.8,44.8c0,24.5,20.1,44.7,44.6,44.8
						L376.4,229z"/>
					<path class="st10" d="M381.4,229v44.8c23.7,0,43.4-18.7,44.7-42.4c0.2-3.9-0.1-7.7-0.9-11.5L381.4,229z"/>
					<path class="st11" d="M382.7,220.6l35.2-9.7c0,0,0-0.1,0-0.1c-4.1-14.7-16.9-25.3-32.1-26.6L382.7,220.6z"/>
				</g>
			</g>
			<g>
				<path class="st2" d="M588.1,442.6H349c-0.6,0-1-0.5-1-1V330.2c0-0.6,0.5-1,1-1s1,0.5,1,1v110.4h238c0.6,0,1,0.5,1,1
					S588.7,442.6,588.1,442.6z"/>
			</g>
		</g>
	</g>
	<g>
		<g>
			<path class="st12" d="M286.8,255.2c-0.3,0-0.5-0.1-0.8-0.2c-0.6-0.4-0.7-1.2-0.3-1.8l38.5-53.1c0.4-0.6,1.2-0.7,1.8-0.3
				c0.6,0.4,0.7,1.2,0.3,1.8l-38.5,53.1C287.6,255,287.2,255.2,286.8,255.2z"/>
		</g>
		<g>
			<g>
				<path class="st13" d="M218.2,732.9c-7.4,0-16.4-0.1-24.2-0.3c-8.7-0.2-15.7-0.5-17.3-0.7c-4-0.6-4.4-53.4-7-71.8
					c-0.5-3.4-0.8-5.6-0.8-6.1c0-1.5,7-1.1,14.9-0.1c6.4,0.8,13.5,1.9,18.1,2.6c2.9,0.5,4.8,0.8,4.8,0.8c0.8,2.4,1.1,16.1,1.2,25
					c0,2.8,0.1,5.1,0.1,6.5c0.3,11.9,2.1,27.5,2.6,29.8c0.7,3.6,12.6,8.4,18.9,11.3c0.4,0.2,0.7,0.3,1,0.5c1.6,0.7,2.6,1.3,2.8,1.7
					C233.8,732.6,227.1,732.8,218.2,732.9z"/>
				<path class="st14" d="M229.6,729.8c-0.4,0.1-0.8,0.1-1.3,0.2c-8.3,1.2-7.7-2.6-18.1-5s-5.1-7.1-6-17.2c-0.6-7,1.5-15.5,3.8-25.6
					c0,2.8,0.1,5.1,0.1,6.5c0.3,11.9,2.1,27.5,2.6,29.8C211.4,722.1,223.3,726.9,229.6,729.8z"/>
				<path class="st15" d="M186.8,697.3c0.5,15.3,3.1,27.9,7.2,35.3c-8.7-0.2-15.7-0.5-17.3-0.7c-4-0.6-4.4-53.4-7-71.8
					c-0.5-3.4-0.8-5.6-0.8-6.1c0-1.5,7-1.1,14.9-0.1c6.4,0.8,13.5,1.9,18.1,2.6C201.4,675.2,186.1,678.7,186.8,697.3z"/>
				<path class="st16" d="M176.7,731.9c-1.9-0.4-4,0-2.9,1c1.1,1,46.4,1.6,52.8,1.8s10.8-1.9,6.8-2.7S176.7,731.9,176.7,731.9z"/>
				<path class="st16" d="M218.2,724.5c2-0.6-5.8,7.8-16.4,8.3l6.6,0.1c0,0,12.2-4.2,12-7.3C220.1,722.5,218.2,724.5,218.2,724.5z"
					/>
			</g>
			<g>
				<path class="st13" d="M177.8,732.9c-7.4,0-16.4-0.1-24.2-0.3c-8.7-0.2-15.7-0.5-17.3-0.7c-4-0.6-4.4-53.4-7-71.8
					c-0.5-3.4-0.8-5.6-0.8-6.1c0-1.5,7-1.1,14.9-0.1c6.4,0.8,13.5,1.9,18.1,2.6c2.9,0.5,4.8,0.8,4.8,0.8c0.8,2.4,1.1,16.1,1.2,25
					c0,2.8,0.1,5.1,0.1,6.5c0.3,11.9,2.1,27.5,2.6,29.8c0.7,3.6,12.6,8.4,18.9,11.3c0.4,0.2,0.7,0.3,1,0.5c1.6,0.7,2.6,1.3,2.8,1.7
					C193.4,732.6,186.7,732.8,177.8,732.9z"/>
				<path class="st14" d="M189.2,729.8c-0.4,0.1-0.8,0.1-1.3,0.2c-8.3,1.2-7.7-2.6-18.1-5c-10.4-2.5-5.1-7.1-6-17.2
					c-0.6-7,1.5-15.5,3.8-25.6c0,2.8,0.1,5.1,0.1,6.5c0.3,11.9,2.1,27.5,2.6,29.8C171.1,722.1,182.9,726.9,189.2,729.8z"/>
				<path class="st15" d="M146.4,697.3c0.5,15.3,3.1,27.9,7.2,35.3c-8.7-0.2-15.7-0.5-17.3-0.7c-4-0.6-4.4-53.4-7-71.8
					c-0.5-3.4-0.8-5.6-0.8-6.1c0-1.5,7-1.1,14.9-0.1c6.4,0.8,13.5,1.9,18.1,2.6C161,675.2,145.8,678.7,146.4,697.3z"/>
				<path class="st17" d="M136.3,731.9c-1.9-0.4-4,0-2.9,1c1.1,1,46.4,1.6,52.8,1.8s10.8-1.9,6.8-2.7
					C189.1,731.2,136.3,731.9,136.3,731.9z"/>
				<path class="st17" d="M177.8,724.5c2-0.6-5.8,7.8-16.4,8.3l6.6,0.1c0,0,12.2-4.2,12-7.3C179.7,722.5,177.8,724.5,177.8,724.5z"
					/>
			</g>
			<g>
				<path class="st18" d="M220.8,666.8c1.7,1.8,2.7,5.3,2.5,9c0,0.1,0,0.1,0,0.2c0,0.2,0,0.4,0,0.6c0,0.1,0,0.2,0,0.3
					c0,0.1,0,0.2,0,0.4c0,0.1,0,0.3-0.1,0.4c0,0.1,0,0.2-0.1,0.4c0,0.2-0.1,0.3-0.1,0.4c0,0.1-0.1,0.3-0.1,0.4
					c-0.1,0.3-0.1,0.6-0.2,0.8c0,0.1-0.1,0.2-0.1,0.4c-0.1,0.3-0.2,0.6-0.3,0.9c0,0.1-0.1,0.2-0.1,0.3c0,0,0,0.1,0,0.1
					c0,0.1-0.1,0.2-0.1,0.3c-0.1,0.1-0.1,0.2-0.2,0.3c0,0.1-0.1,0.2-0.2,0.3c-0.2,0.3-0.4,0.6-0.6,0.9c-0.1,0.1-0.1,0.2-0.2,0.3
					c-0.3,0.5-0.7,1-1.2,1.4c-0.1,0.1-0.2,0.2-0.3,0.3c-0.4,0.4-0.9,0.8-1.4,1.1c-0.1,0.1-0.2,0.1-0.3,0.2c0,0-0.1,0-0.1,0
					c-0.1,0.1-0.2,0.1-0.3,0.2c-0.3,0.2-0.7,0.3-1.1,0.5c-0.1,0-0.2,0.1-0.4,0.1c-0.1,0-0.2,0.1-0.3,0.1c-0.3,0.1-0.6,0.2-1,0.2
					c-0.1,0-0.2,0-0.3,0.1c-0.4,0.1-0.8,0.1-1.2,0.2c-0.1,0-0.2,0-0.3,0c-0.1,0-0.2,0-0.3,0c-0.2,0-0.3,0-0.5,0
					c-5.3,0-10-0.8-15-1.6c-7-1.1-14.6-2.2-25.5-0.9c0,0-18.7-9.5-16.9-66.1s7.7-173.2,20.2-185.3s18.7-4.9,32.7,15.7
					c8.5,12.6,11.2,37.6,10.4,58.8c-0.5,13.5-2.3,25.4-4.9,31.5c-0.4,0.9-0.7,1.9-1,3c-1.2,4.2-1.7,9.6-1.6,15.4v0
					c0,0.6,0,1.2,0,1.9c0,0.4,0,0.8,0,1.2c0,0.1,0,0.2,0,0.4c0,0.2,0,0.4,0,0.7c0.1,1,0.1,2,0.2,3c0,0.6,0.1,1.1,0.1,1.7
					c0.1,1.1,0.2,2.1,0.3,3.2c0,0.2,0.1,0.4,0.1,0.7c0.1,1.2,0.3,2.3,0.5,3.5c0,0.3,0.1,0.6,0.1,0.9c0.1,0.6,0.2,1.2,0.3,1.9
					c0,0.3,0.1,0.5,0.1,0.8c0.2,1.3,0.5,2.6,0.7,3.8c0.1,0.3,0.1,0.6,0.2,0.9c0,0.1,0.1,0.3,0.1,0.4c0.1,0.3,0.1,0.6,0.2,0.9
					c0,0.2,0.1,0.4,0.1,0.7c0.1,0.3,0.1,0.5,0.2,0.8c0.1,0.3,0.1,0.6,0.2,0.9c0.1,0.3,0.1,0.6,0.2,0.9c0.1,0.3,0.1,0.6,0.2,0.9
					c0.3,1.1,0.5,2.1,0.8,3.2c0.1,0.3,0.2,0.6,0.2,0.9c0.2,0.7,0.4,1.4,0.6,2.1c0.1,0.3,0.2,0.6,0.3,0.9c0.5,1.8,1.1,3.5,1.7,5.2
					c0.1,0.2,0.1,0.4,0.2,0.6c0.1,0.3,0.2,0.6,0.3,0.9c0.1,0.2,0.2,0.4,0.3,0.7c0.6,1.5,1.2,3,1.8,4.4c0.2,0.4,0.3,0.7,0.5,1
					c0.7,1.5,1.4,2.8,2.2,4.1c10.3,17.3,0,18.7-4.8,30.1S216.4,662,220.8,666.8z"/>
				<path class="st19" d="M220.8,666.8c1.7,1.8,2.7,5.3,2.5,9c0,0.1,0,0.1,0,0.2c0,0.2,0,0.4,0,0.6c0,0.1,0,0.2,0,0.3
					c0,0.1,0,0.2,0,0.4c0,0.1,0,0.3-0.1,0.4c0,0.1,0,0.2-0.1,0.4c0,0.2-0.1,0.3-0.1,0.4c0,0.1-0.1,0.3-0.1,0.4
					c-0.1,0.3-0.1,0.6-0.2,0.8c0,0.1-0.1,0.2-0.1,0.4c-0.1,0.3-0.2,0.6-0.3,0.9c0,0.1-0.1,0.2-0.1,0.3c0,0,0,0.1,0,0.1
					c0,0.1-0.1,0.2-0.1,0.3c-0.1,0.1-0.1,0.2-0.2,0.3c0,0.1-0.1,0.2-0.2,0.3c-0.2,0.3-0.4,0.6-0.6,0.9c-0.1,0.1-0.1,0.2-0.2,0.3
					c-0.3,0.5-0.7,1-1.2,1.4c-0.1,0.1-0.2,0.2-0.3,0.3c-0.4,0.4-0.9,0.8-1.4,1.1c-0.1,0.1-0.2,0.1-0.3,0.2c0,0-0.1,0-0.1,0
					c-0.1,0.1-0.2,0.1-0.3,0.2c-0.3,0.2-0.7,0.3-1.1,0.5c-0.1,0-0.2,0.1-0.4,0.1c-0.1,0-0.2,0.1-0.3,0.1c-0.3,0.1-0.6,0.2-1,0.2
					c-0.1,0-0.2,0-0.3,0.1c-0.4,0.1-0.8,0.1-1.2,0.2c-0.1,0-0.2,0-0.3,0c-0.1,0-0.2,0-0.3,0c-0.2,0-0.3,0-0.5,0
					c-5.3,0-10-0.8-15-1.6c10.1-22.1-11-67.4-6-86.1c5.4-20.2-3.8-63.4,1.1-66.3c2.8-1.7,16.6-19.2,25.7-25.4
					c-0.5,13.5-2.3,25.4-4.9,31.5c-0.4,0.9-0.7,1.9-1,3c-1.2,4.2-1.7,9.6-1.6,15.4v0c0,0.6,0,1.2,0,1.9c0,0.4,0,0.8,0,1.2
					c0,0.1,0,0.2,0,0.4c0,0.2,0,0.4,0,0.7c0.1,1,0.1,2,0.2,3c0,0.6,0.1,1.1,0.1,1.7c0.1,1.1,0.2,2.1,0.3,3.2c0,0.2,0.1,0.4,0.1,0.7
					c0.1,1.2,0.3,2.3,0.5,3.5c0,0.3,0.1,0.6,0.1,0.9c0.1,0.6,0.2,1.2,0.3,1.9c0,0.3,0.1,0.5,0.1,0.8c0.2,1.3,0.5,2.6,0.7,3.8
					c0.1,0.3,0.1,0.6,0.2,0.9c0,0.1,0.1,0.3,0.1,0.4c0.1,0.3,0.1,0.6,0.2,0.9c0,0.2,0.1,0.4,0.1,0.7c0.1,0.3,0.1,0.5,0.2,0.8
					c0.1,0.3,0.1,0.6,0.2,0.9c0.1,0.3,0.1,0.6,0.2,0.9c0.1,0.3,0.1,0.6,0.2,0.9c0.3,1.1,0.5,2.1,0.8,3.2c0.1,0.3,0.2,0.6,0.2,0.9
					c0.2,0.7,0.4,1.4,0.6,2.1c0.1,0.3,0.2,0.6,0.3,0.9c0.5,1.8,1.1,3.5,1.7,5.2c0.1,0.2,0.1,0.4,0.2,0.6c0.1,0.3,0.2,0.6,0.3,0.9
					c0.1,0.2,0.2,0.4,0.3,0.7c0.6,1.5,1.2,3,1.8,4.4c0.2,0.4,0.3,0.7,0.5,1c0.7,1.5,1.4,2.8,2.2,4.1c10.3,17.3,0,18.7-4.8,30.1
					S216.4,662,220.8,666.8z"/>
				<path class="st2" d="M220.8,666.8c2.6,2.8,3.5,9.6,1.2,14.7c-5.2-2-6.6-7.7-8.8-16.4c-2.9-11.3-5.6-24.5-1.7-36.2
					c3.9-11.7-3.7-11.7-9.8-35.7c-5.5-21.4,0.8-25.7,8.7-34.9c0.2,18.2,5.7,41.6,13,53.9c10.3,17.3,0,18.7-4.8,30.1
					S216.4,662,220.8,666.8z"/>
			</g>
			<g>
				<path class="st19" d="M177,540.9c-2.4,11.3-2.8,25.7,1.7,48.1c6.6,32.5-5.4,44.3-3.2,56.5s-0.5,13.2-2.9,21.5
					c-1.7,5.7,4.5,9.4,7.8,13.5c1.5,1.9,2.4,3.8,1.7,6.1c-1.1,3.7-14.1,5.6-27.9,5.9c-13.3,0.3-27.4-0.9-32.4-3.3
					c-10.1-4.9,4.5-25,0-36c-4.5-11-3.8-23.9,0-54c3.8-30.1-4.9-53-6-74c-1.1-20.9,8.3-29.2,12.1-69.3c0,0,13-10.2,30.7-13.4
					c17.6-3.2,18.8,1.4,23.7,13.4c4,9.6,4.1,40.8,1.3,59.8c-0.7,4.6-1.5,8.6-2.5,11.3C179.6,531.4,178.1,535.8,177,540.9z"/>
				<path class="st18" d="M138.1,507.3c-6.1,15.2-9.8,36,0,55.8c9.8,19.8,12.7,25.7,12.6,44c-0.1,18.4-9.2,20.3-8.7,45.8
					c0.3,15.9,8.6,30.4,12.3,39.7c-13.3,0.3-27.4-0.9-32.4-3.3c-10.1-4.9,4.5-25,0-36c-4.5-11-3.8-23.9,0-54c3.8-30.1-4.9-53-6-74
					c-1.1-20.9,8.3-29.2,12.1-69.3c0,0,13-10.2,30.7-13.4c17.6-3.2,18.8,1.4,23.7,13.4c4,9.6,4.1,40.8,1.3,59.8
					C160.2,513.3,143.8,493.1,138.1,507.3z"/>
				<path class="st2" d="M180.4,680.5c-2.6,0-6.8,0.2-13.4,0.2c-13.6,0-7.7-15-2.4-29.4c5.3-14.3,5.3-31.4,1.8-38s-6.8-43.1-1.7-60
					c3.6-11.7,8.1-9.4,12.2-12.5c-2.4,11.3-2.8,25.7,1.7,48.1c6.6,32.5-5.4,44.3-3.2,56.5s-0.5,13.2-2.9,21.5
					C170.9,672.8,177.1,676.4,180.4,680.5z"/>
			</g>
			<g>
				<g>
					<g>
						<path class="st13" d="M277.8,280.9c-6.7,6.1-11.9,23.3-18.2,39.6c-4,10.1-8.4,20-14,26.6c-2.5,2.9-5.2,5.3-8.2,6.7
							c-0.8,0.4-1.6,0.7-2.3,1.1c-2.1-4.7-4.4-11.9-6-18.8c-1-4.5-1.8-8.9-2-12.6c3.1-1.2,6-3.1,8.7-5.5c4.9-4.4,9.4-10.7,13.7-19.4
							c2.3-4.6,4.4-8.8,6.3-12.7c7-14.1,12.2-24,17.9-29.3c3-2.7,6.1-4.2,9.7-4.4C295.9,251.6,290.5,269.4,277.8,280.9z"/>
						<path class="st15" d="M255.8,285.8c-0.5,7-2,16.1-6.3,23.5c-8.2,14.2-2.8,28.6-7.4,39.9c0,0-6.4-6.3-13-13.1
							c-1-4.5-1.8-8.9-2-12.6c3.1-1.2,6-3.1,8.7-5.5c4.9-4.4,9.4-10.7,13.7-19.4C251.8,294,253.9,289.7,255.8,285.8z"/>
						<path class="st14" d="M277.8,280.9c-6.7,6.1-11.9,23.3-18.2,39.6c0.7-6.8,1.2-13.4,3.8-20.5c5.1-13.7,8.8-17.6,10.8-35.6
							c0.3-3,0.1-5.6-0.4-8c3-2.7,6.1-4.2,9.7-4.4C295.9,251.6,290.5,269.4,277.8,280.9z"/>
					</g>
					<g>
						<path class="st20" d="M235.1,354.9c-20.2,8.4-44.6,1.4-44.6,1.4v-36.5c12.2,4.7,22.2,6.8,30.7,5.3c2-0.3,4-0.9,5.9-1.7
							C227.7,332.8,231.6,347.1,235.1,354.9z"/>
						<path class="st6" d="M247.5,355.6c0,3.2-4.2,7.8-9.1,4.7c-0.5-0.3-1.1-1.1-1.8-2.3c-0.5-0.8-1-1.9-1.5-3
							c-3.5-7.8-7.4-22.1-8-31.4c-0.3-4.7,0.2-8.2,2.1-8.9c0,0,0,0,2.5-0.1c0.4,0,0.9,0,1.4,0c0.7,0,1.7,1.3,2.7,3.4
							c3.2,6.3,7.4,20.1,9.8,29.1C246.7,351.5,247.5,354.7,247.5,355.6z"/>
						<path class="st21" d="M235.1,354.9c-20.2,8.4-44.6,1.4-44.6,1.4v-11.5c0.5-0.4,1-0.7,1.4-1c4.6-2.3,25.1-5,29.3-18.6
							c2-0.3,4-0.9,5.9-1.7C227.7,332.8,231.6,347.1,235.1,354.9z"/>
						<path class="st7" d="M247.5,355.6c0,3.2-4.2,7.8-9.1,4.7c-0.5-0.3-1.1-1.1-1.8-2.3c1.1-3.8,2.4-8.4,2.9-12.7
							c1-7.8-6.8-19.3-7.9-30.7c0.4,0,0.9,0,1.4,0c0.7,0,1.7,1.3,2.7,3.4c3.2,6.3,7.4,20.1,9.8,29.1
							C246.7,351.5,247.5,354.7,247.5,355.6z"/>
					</g>
				</g>
				<path class="st6" d="M227.8,463.1c-9.1,3.5-19,1.5-28.7-1.6c-13.8-4.3-27.4-10.8-37.9-6.5c-3,1.2-6.2,2.6-9.4,4
					c-3.8,1.6-7.6,3.2-11.3,4.5c-11.6,4.2-21.3,5.9-21.8-3c-0.7-13.9,16.9-62.9,20.2-89.4c2.4-19.7,17.4-37,27-60.5
					c2.9,1.5,5.8,2.4,8.8,3.1c0,0,0,0,0,0c4.2,0.9,8.4,1.1,12.3,0.9c3.8-0.2,7.2-0.8,9.9-1.4c1.6,14,5.2,30.6,11.6,49.3
					c1.4,4.2,2.6,8,3.7,11.5c7.5,25.3,5.7,34,5.7,34S249.8,454.6,227.8,463.1z"/>
				<path class="st21" d="M199.1,461.5c-13.8-4.3-27.4-10.8-37.9-6.5c-3,1.2-6.2,2.6-9.4,4c-3.5-11.7-2.2-38.1-8.4-29.8
					c-4,5.4-1.5,22.4-2.9,34.3c-11.6,4.2-24.3,16.1-24.8,7.3c-0.7-13.9,19.9-73.2,23.2-99.7c2.4-19.7,17.4-37,27-60.5
					c2.9,1.5,5.8,2.4,8.8,3.1c0,0,0,0,0,0c-3.9,8.5-7.6,10.2-5.7,17.2s22.2,48.5,30.1,61.1c7.9,12.6-6.7,25.3,2.2,34.8
					C207.3,433.1,205.2,449.6,199.1,461.5z"/>
				<g>
					<g>
						<g>
							<path class="st22" d="M225.1,522.2l-61.8-39.9c-1.3-0.8-2.1-2.2-2.2-3.6c-0.1-1.1,0.1-2.2,0.8-3.2l55.3-85.5
								c0.8-1.3,2.2-2.1,3.6-2.2c1.1-0.1,2.3,0.1,3.3,0.8l61.8,39.9c1.4,0.9,2.2,2.3,2.3,3.9c0.1,1-0.2,2.1-0.8,3L232,520.7
								c-0.8,1.2-2,2-3.3,2.2C227.5,523.1,226.2,522.9,225.1,522.2z"/>
							
								<rect x="187.2" y="406.6" transform="matrix(0.8396 0.5432 -0.5432 0.8396 283.6538 -48.5839)" class="st2" width="73.9" height="98.9"/>
						</g>
						<g>
							<path class="st21" d="M264.1,426.5c1.4,0.9,3.3,0.5,4.3-0.9l3.8-5.9c0.9-1.4,0.5-3.3-0.9-4.3l-7.8-5.1
								c1.2-3.5-0.1-7.4-3.3-9.5c-3.2-2.1-7.4-1.6-10,0.9l-8.2-5.3c-1.4-0.9-3.3-0.5-4.3,0.9l-3.8,5.9c-0.9,1.4-0.5,3.3,0.9,4.3
								 M253.6,411c-1.8-1.2-2.4-3.6-1.2-5.5s3.6-2.4,5.5-1.2c1.8,1.2,2.4,3.6,1.2,5.5C257.9,411.6,255.4,412.2,253.6,411z"/>
							<path class="st6" d="M271.9,414.3l-7.8-5.1c1.2-3.5-0.1-7.4-3.3-9.5c-3.2-2.1-7.4-1.6-10,0.9l-8.2-5.3
								c-1.4-0.9-3.3-0.5-4.3,0.9l-3.8,5.9c-0.9,1.4-0.5,3.3,0.9,4.3l29.4,19c1.4,0.9,3.3,0.5,4.3-0.9l3.8-5.9
								C273.8,417.2,273.4,415.3,271.9,414.3z M254.2,410c-1.8-1.2-2.4-3.6-1.2-5.5s3.6-2.4,5.5-1.2s2.4,3.6,1.2,5.5
								C258.5,410.6,256.1,411.2,254.2,410z"/>
						</g>
					</g>
					
						<rect x="199.4" y="493.2" transform="matrix(0.8396 0.5432 -0.5432 0.8396 302.4699 -35.9677)" class="st19" width="25.4" height="2"/>
					<path class="st23" d="M223.4,429l-9.1-5.9c-0.8-0.5-1-1.5-0.5-2.3l5.9-9.1c0.5-0.8,1.5-1,2.3-0.5l9.1,5.9
						c0.8,0.5,1,1.5,0.5,2.3l-5.9,9.1C225.2,429.3,224.2,429.5,223.4,429z"/>
					
						<rect x="229.9" y="434.7" transform="matrix(0.8396 0.5432 -0.5432 0.8396 276.9955 -66.2996)" class="st19" width="41.8" height="2.4"/>
					
						<rect x="229.2" y="433.1" transform="matrix(0.8396 0.5432 -0.5432 0.8396 273.9979 -60.3744)" class="st19" width="20.1" height="1.4"/>
					
						<rect x="190.8" y="459.8" transform="matrix(0.8396 0.5432 -0.5432 0.8396 285.8348 -46.0707)" class="st19" width="60.3" height="2.4"/>
					
						<rect x="209.1" y="451.7" transform="matrix(0.8396 0.5432 -0.5432 0.8396 282.2555 -50.2391)" class="st19" width="34.1" height="2.3"/>
					
						<rect x="207.3" y="443.5" transform="matrix(0.8396 0.5432 -0.5432 0.8396 279.4218 -53.5392)" class="st19" width="46.2" height="5.9"/>
					
						<rect x="186.9" y="465.9" transform="matrix(0.8396 0.5432 -0.5432 0.8396 288.501 -42.9656)" class="st19" width="60.3" height="2.4"/>
					
						<rect x="182.9" y="472" transform="matrix(0.8396 0.5432 -0.5432 0.8396 291.2034 -39.8185)" class="st19" width="60.3" height="2.4"/>
					
						<rect x="182.3" y="478.5" transform="matrix(0.8396 0.5432 -0.5432 0.8396 294.0655 -36.4854)" class="st19" width="53" height="2.4"/>
				</g>
				<g>
					<g>
						<path class="st13" d="M197,313.1c-2.8,0.6-6.2,1.2-9.9,1.4c-3.8,0.2-8,0-12.3-0.9c-2.9-0.6-5.9-1.6-8.8-3.1
							c3.4-8.2,6.1-17.2,7.4-27.2h23.2c-0.2,1.5-0.3,3.1-0.4,4.7c-0.1,1-0.1,2.1-0.2,3.2c-0.1,2.8-0.1,5.7,0,8.8
							C196.1,304.1,196.5,308.5,197,313.1z"/>
						<path class="st15" d="M196.2,288c-0.1,1-0.1,2.1-0.2,3.2c-5,10.1-15.2,11.9-17.8,17.5c-0.8,1.8-2.1,3.5-3.5,5
							c-2.9-0.6-5.9-1.6-8.8-3.1c3.4-8.2,6.1-17.2,7.4-27.2h17.4C193.4,285.2,195.2,287,196.2,288z"/>
						<path class="st14" d="M197,313.1c-2.8,0.6-6.2,1.2-9.9,1.4c-1.8-5.7,6.1-9.2,9-14.5C196.1,304.1,196.5,308.5,197,313.1z"/>
					</g>
					<g>
						<path class="st13" d="M213,280.9C213,280.9,213,280.9,213,280.9c-0.3,0.3-0.5,0.6-0.8,0.8c-1.2,1.2-2.7,2.4-4.3,3.5
							c-1,0.7-2.2,1.4-3.4,2c-7.5,4.8-16.4,5.7-23.7,4.5c-4.9-0.8-9.2-2.6-11.8-4.7c0.5-3.8,1-7.7,1.7-11.6c0,0-0.1-0.4-0.1-1.2
							c-0.3-2.6-0.9-9.2-0.9-15.3c0-5.4,0.5-10.3,2-12c3.9-4.1,19.2-13.7,19.2-13.7c4-0.8,6.7,0.1,8.7,1.5c2.8,2,4.2,5,5.8,6.2
							c1,0.7,2.5,0.9,3.9,1c2.6,0.2,5.3,0.2,5.5,2.9c0.1,0.7,0,1.5-0.1,2.2c-0.2,1.5-0.6,3-0.9,4.3c-0.1,0.3-0.2,0.6-0.2,0.9
							c-0.4,1.5-0.6,2.7-0.2,3.2c0.2,0.3,1.1,1.5,2,3.3c0.1,0.1,0.2,0.3,0.2,0.5c0.1,0.1,0.1,0.2,0.2,0.4c0,0.1,0.1,0.3,0.2,0.4
							C218.2,265,219.9,273.3,213,280.9z"/>
						<path class="st15" d="M180.9,291.5c-0.1,0.1-0.1,0.2-0.2,0.4c-4.9-0.8-9.2-2.6-11.8-4.7c0.5-3.8,1-7.7,1.7-11.6
							c0,0-0.1-0.4-0.1-1.2c4.8-5,10.8-7,10.8-7C183.6,271.5,183.1,287.1,180.9,291.5z"/>
						<path class="st6" d="M198.7,230.9c0,0,3.2,9-6.5,12.8c-0.7,0.3-1.5,0.6-2.5,0.8c0,0-3.4,7.5-10.8,10.3c-2,0.8-4.2,1.2-6.7,1
							c-10.4-0.5,1.3,7.2,4.9,9.4c0.6,0.4,1,0.6,1,0.6s7,18.9-0.9,25.3c-3.5,2.8-7.4,1.9-10.9-0.6c0,0,0,0,0,0
							c-4.5-3.1-8.2-8.8-9.5-12.5c-2.3-6.7-7.4-16.3-1.5-20.1c0,0-5.4-5.5-5-15c0.4-9.5,8.1-8.6,8.1-8.6c-0.2-1.2-0.3-2.4-0.4-3.6
							v-0.1c-0.2-2.3-0.2-4.6,0-6.8c0.5-5.4,2.2-9.7,5.8-10c3.3-0.3,4.8,1.5,5.6,3.1c0,0,0,0,0,0c0.6,1.3,0.7,2.5,0.7,2.5
							s0.9-3.9,3-7.7c1.9-3.4,4.7-6.7,8.8-7c5.8-0.5,7.6,4.7,8.1,8.2c0.3,1.8,0.3,3.2,0.3,3.2s0.3-0.3,1-0.7c2.5-1.7,9.7-5.8,14.5-2
							C211.2,217.9,203.3,229.6,198.7,230.9z"/>
						<path class="st14" d="M214.8,247.1c-0.2,1.5-0.6,3-0.9,4.3c-1.9-2.5-1.2-2.8-1.2-4.5c0-1.5-0.6-3.2-3.4-5
							c2.6,0.2,5.3,0.2,5.5,2.9C214.9,245.6,214.9,246.4,214.8,247.1z"/>
						<path class="st14" d="M213,280.9c3.3-6.5,4.5-17.1,2.7-21.7c0.1,0.1,0.1,0.2,0.2,0.4c0,0.1,0.1,0.3,0.2,0.4
							C218.2,265,219.9,273.3,213,280.9z"/>
						<path class="st7" d="M198.7,230.9c0,0,3.2,9-6.5,12.8c0.7-1.4,1.7-3,3-4.5c3.1-3.5-0.4-7.7,2.6-9.1c3-1.4,3.5-2.9,5.3-9.2
							c1.7-6.3-7.4-7-12.2-5.5c2.5-1.7,9.7-5.8,14.5-2C211.2,217.9,203.3,229.6,198.7,230.9z"/>
						<path class="st20" d="M183.6,249.9c-2,1.5-3.6,3.2-4.7,4.8c-2.8,3.9-3.3,7.8-2.1,9.9c0.1,0.2,0.2,0.4,0.2,0.6
							c1,3.1-3,9.1-5.3,17.8c-0.9,3.4-3,6-5.6,7.6c0,0,0,0,0,0c-4.5-3.1-8.2-8.8-9.5-12.5c-2.3-6.7-7.4-16.3-1.5-20.1
							c0,0-5.4-5.5-5-15c0.4-9.5,8.1-8.6,8.1-8.6c-0.2-1.2-0.3-2.4-0.4-3.6v-0.1c0-3.8,12-2.9,16.9-3.8s-7.1,5.2-4.1,12.1
							C173.6,245.9,190.3,244.8,183.6,249.9z"/>
						<g>
							<path class="st13" d="M184.8,255.7c-8.8-8-18.7-8.5-17.8,2.6c0.8,11.1,16.3,10.4,16.3,10.4L184.8,255.7z"/>
							<path class="st15" d="M177,252.4c0,0-5.9-1.8-7.4,3.7c-1.5,5.5,3.6,9.6,7.6,10.6c0,0-7.3-1.6-6.3-8.6
								C171.9,251.1,177,252.4,177,252.4z"/>
							<path class="st15" d="M172.5,261c1.3,3,5.3,4.6,6.7,2.5s0-4,0-4s1,3.2-0.7,3.9C176.7,264.1,174.5,263.1,172.5,261z"/>
							<path class="st15" d="M175.2,257.5c-1,1.8-0.5,4.7,1.3,3.7s1.6-2.8,2.2-2.9c0.6,0,1-2.3-0.6-2.5
								C176.4,255.7,175.2,257.5,175.2,257.5z"/>
						</g>
					</g>
				</g>
				<g>
					<g>
						<path class="st13" d="M239.9,476c-13.7,2.7-38.3-1-50.2-8.9c-18.8-12.5-32.1-40.9-36.5-82.3l2.3-0.5l19.2-4.2l16.1-3.5
							c0,0-5.4,26.9,8.2,56c13.6,29.1,36.5,14.2,48.5,31.6c1.1,1.7,1.7,3.1,1.8,4.4C249.7,472.4,245.9,474.8,239.9,476z"/>
						<path class="st14" d="M249.5,468.6c-2-1.9-4.1-4.2-5.9-5.7c-5.8-4.5-30.6-1-39.2-13.5c-8.6-12.5-20.8-12.7-26.7-32.1
							c-5.9-19.3-2.7-24-4.3-34.7c0,0,0.4-1,1.4-2.6l16.1-3.5c0,0-5.4,26.9,8.2,56c13.6,29.1,36.5,14.2,48.5,31.6
							C248.9,465.9,249.4,467.3,249.5,468.6z"/>
						<path class="st15" d="M239.9,476c-13.7,2.7-38.3-1-50.2-8.9c-18.8-12.5-32.1-40.9-36.5-82.3l2.3-0.5c3.7,1.2,5.6,1.7,5.6,1.7
							c-2.1,30.9,14.6,65.5,34.3,74.3C213.6,468.5,238.7,472.5,239.9,476z"/>
					</g>
					<g>
						<path class="st6" d="M190.9,376.6c-2.2,0.4-5.4,0.9-8.9,1.8c-4.8,1.2-10.4,2.8-15.7,5.1c-3.4,1.5-6.7,3.2-9.7,5.3
							c-1.8-9.6-3-19.3-3.7-28.5c-1.5-21,9.2-31.3,20.5-33.8c3.6-0.8,7.2-0.7,10.5,0c0.6,0.1,1.2,0.3,1.7,0.4
							C198.7,330.8,192.8,355,190.9,376.6z"/>
						<path class="st20" d="M165.8,381.5c0.1,0.6,0.3,1.3,0.5,2.1c-3.4,1.5-9.4,3.2-12.3,5.3c-1.8-9.6-2.6-19.5-3.2-28.7
							c-1.5-21,11.4-31.2,22.7-33.6C161.7,345.2,163.8,372.7,165.8,381.5z"/>
						<path class="st7" d="M190.9,376.6c-2.2,0.4-5.4,0.9-8.9,1.8c-0.2-14.2,1-38,2-51.9c0.6,0.1,1.2,0.3,1.7,0.4
							C198.7,330.8,192.8,355,190.9,376.6z"/>
						<path class="st6" d="M197.5,381.6c-0.4,3.8-4.5-0.7-20.9,1.9c-1.9,0.3-3.8,0.7-5.5,1.1c-4.5,1.1-8.4,2.5-11.6,3.8
							c-6.3,2.5-10,4.5-10.7,3c-1.2-2.7-2-7.6,0-8.9c1.9-1.2,6.7-3,12.5-4.8c7.5-2.3,16.7-4.5,23.9-5.7c5.5-0.9,9.8-1.2,11.3-0.4
							C201.7,374.2,197.9,377.8,197.5,381.6z"/>
						<path class="st7" d="M197.5,381.6c-0.4,3.8-4.5-0.7-20.9,1.9c-1.9,0.3-3.8,0.7-5.5,1.1c-0.7-1.3,0-3.1,1.9-4.4
							c3-2,9.7-2.7,12.1-8.2c5.5-0.9,9.8-1.2,11.3-0.4C201.7,374.2,197.9,377.8,197.5,381.6z"/>
						<path class="st20" d="M159.4,388.4c-6.3,2.5-10,4.5-10.7,3c-1.2-2.7-2-7.6,0-8.9c1.9-1.2,6.7-3,12.5-4.8
							c0.3,5.3-5.9,7.2-4.8,9.2C156.8,387.7,158,388.1,159.4,388.4z"/>
					</g>
				</g>
				<path class="st7" d="M212.2,373.9c-6.5,9.6-10.1-3.3-12.6-8.1c-2.8-5.4,0.5-23.9-1.1-30.8c-1.6-6.9-8.5-5.3-11.5-20.3
					c3.8-0.2,7.2-0.8,9.9-1.4c1.6,14,5.2,30.6,11.6,49.3C210,366.6,211.2,370.4,212.2,373.9z"/>
			</g>
		</g>
	</g>
	<g>
		<g>
			<g>
				<path class="st13" d="M562.5,663.7c0,0-21,43.4-24.1,47s-17.9,1.3-22.8-0.6c-0.5-0.2-1-0.4-1.4-0.7c-4.2-2.3-7.6-6.9-4.8-9.8
					c0.1-0.1,0.1-0.1,0.1-0.2c2.2-2.5,5.8-12.2,11-24.5c0.8-1.9,1.7-3.9,2.6-6c1.1-2.4,2.2-5,3.3-7.5c0.6-1.3,1.2-2.6,1.8-3.9
					l12.1,2.1L562.5,663.7z"/>
				<path class="st15" d="M562.5,663.7c0,0-21,43.4-24.1,47s-17.9,1.3-22.8-0.6c-0.5-0.2-1-0.4-1.4-0.7c4.7-3,13.5-6.1,17.4-16
					c4.4-11.3-5.4-12-8.5-24.5c-0.5-2-0.8-4.3-0.9-7c0,0,1.6-0.2,4.3-0.6c3.3-0.4,8.3-1.1,13.9-1.7L562.5,663.7z"/>
				<path class="st14" d="M522.7,693.3c-2.6,2.7-8.3,4.6-13.1,6.2c2.2-2.5,5.8-12.2,11-24.5C522.3,685,527.3,688.6,522.7,693.3z"/>
			</g>
			<g>
				<g>
					<path class="st1" d="M531.6,710.4c-1.4,1.1-9.4,0.7-12.6-3.3c-1-1.3-1.8-2.3-2.4-3.2c-1.1-1.5-1.8-2.3-3-2.4
						c-0.2,0-0.4,0-0.7,0c-2.4,0.2,2.3-1.9,0.2-3.7c-2.1-1.8-2.4-3.8-4.8,0c-2.5,3.8-11.1,8.7-12,8.6c-1,0-6.8,0.8-12.3,4
						c-4.3-0.4-10.4-2.5-11.7-3.7s-3.5-2.8-5-1.9c-1.2,0.7-3,11.4,13.4,17.3c4.5,1.6,10.3,2.9,17.8,3.5c4.8,0.4,8.9,0.7,12.6,0.9
						c23.3,1.4,25.1-0.1,25.1-0.1s0.3-13.3,0.5-16.5C536.8,708.4,533.1,709.3,531.6,710.4z"/>
					<path class="st8" d="M508.4,697.9c-2.5,3.8-11.1,8.7-12,8.6c-1,0-6.8,0.8-12.3,4c-4.3-0.4-10.4-2.5-11.7-3.7s-3.5-2.8-5-1.9
						c-1.2,0.7-3,11.4,13.4,17.3c8.1,1.7,14.1,0.9,17.1-2.8c5-6.1,10.3-15.2,15.3-17.7c0.2-0.1,0.3-0.2,0.4-0.2c-0.2,0-0.4,0-0.7,0
						c-2.4,0.2,2.3-1.9,0.2-3.7C511.1,696.1,510.8,694.1,508.4,697.9z"/>
					<path class="st7" d="M532.5,708.9c-1.4,1.1-10.2,2.2-13.4-1.7c-1-1.3-1.8-2.3-2.4-3.2c-3.2,0.8-6.4,2.1-8.2,5.2
						c-3.2,5.4,5.6,11,7.8,12.2c1.1,0.7-2.3,2.8-5.1,5.2c23.3,1.4,25.1-0.1,25.1-0.1s3.6-8.9,4.7-16.6
						C541.9,703.3,533.9,707.8,532.5,708.9z"/>
				</g>
				<g>
					<g>
						<g>
							<path class="st10" d="M535.9,716.3c-0.1,0.9,0.3,1.7,0.9,1.8l3.7,0.3c0.6,0,1.1-0.7,1.2-1.6l0,0c0.1-0.9-0.3-1.7-0.9-1.8
								l-3.7-0.3C536.5,714.6,536,715.4,535.9,716.3L535.9,716.3z"/>
						</g>
					</g>
				</g>
				<g>
					<path class="st5" d="M537,723.7c-2,2.4-10.4,2.6-16.6,1.3c-1.7-0.3-3.9-0.7-6.1-1c-5.6-0.8-11.7-1.4-12.1-1.3
						c-0.4,0.1-3.3,0.1-8-0.6c-3.5-0.5-7.9-1.3-13-2.6c-22.3-6.5-7.5-16.1-13.3-15c-5.3,1-6.5,5.6-0.4,13.5c0.5,0.6,1,1.3,1.6,1.9
						c7.9,9.1,32.8,10.5,32.8,10.5s2.1,0.4,6.2,1c4.5,0.6,11.5,1.5,20.6,2.3C545.9,735.2,537,723.7,537,723.7z"/>
					<path class="st8" d="M537,723.7c-2,2.4-10.4,2.6-16.6,1.3c-1.7-0.3-3.9-0.7-6.1-1c-2.6,2.1-6.6,5-6.3,7.4
						c4.5,0.6,11.5,1.5,20.6,2.3C545.9,735.2,537,723.7,537,723.7z"/>
					<path class="st2" d="M467.9,704.5c-5.3,1-6.5,5.6-0.4,13.5c11.7,4.7,21.1,6.3,26.7,4.1c-3.5-0.5-7.9-1.3-13-2.6
						C458.8,713,473.6,703.5,467.9,704.5z"/>
				</g>
				<path class="st24" d="M531.7,709.3c0,0-4-1.2-6.7-0.7c-2.7,0.5-5.2-1.2-7.7-4.7c-0.1-0.2-0.2-0.3-0.3-0.5
					c-1-1.5-1.9-2.1-2.7-2.3c-1.2-0.3-1.9,0.5-1.9,0.5s-4,3.3-10.5,7.5c-4.4,2.8-5.8,5.6-1.8,7.7c1.9,1,4.9,1.9,9.5,2.5
					c1.4,0.2,2.7,0.3,3.9,0.2C524.8,718.9,531.7,709.3,531.7,709.3z"/>
				<path class="st10" d="M531.7,709.3c0,0-4-1.2-6.7-0.7c-2.7,0.5-5.2-1.2-7.7-4.7c-3.4,0.7-6.9,2.1-8.8,5.3
					c-2.3,3.9,1.7,7.9,4.9,10.3C524.8,718.9,531.7,709.3,531.7,709.3z"/>
			</g>
		</g>
		<g>
			<g>
				<path class="st13" d="M697,628.9c0,0,15.4,45.7,15.8,50.4c0.3,4.7-11.9,13.5-16.7,15.5c-0.5,0.2-1,0.4-1.5,0.5
					c-4.6,1.4-10.3,0.4-10.3-3.6c0-0.1,0-0.1,0-0.2c-0.2-3.3-4.4-12.8-9.3-25.2c-0.8-2-1.6-4-2.4-6.1c-1-2.5-1.9-5.1-2.9-7.7
					c-0.5-1.3-1-2.7-1.4-4l10.1-6.9L697,628.9z"/>
				<path class="st15" d="M697,628.9c0,0,15.4,45.7,15.8,50.4c0.3,4.7-11.9,13.5-16.7,15.5c-0.5,0.2-1,0.4-1.5,0.5
					c1.2-5.4,5.4-13.9,1.2-23.6c-4.7-11.2-12.2-4.8-23.2-11.5c-1.8-1.1-3.6-2.5-5.5-4.3c0,0,1-1.3,2.7-3.4c2.1-2.6,5.2-6.6,8.7-10.9
					L697,628.9z"/>
				<path class="st14" d="M689.2,678c0,3.8-2.7,9.1-5,13.6c-0.2-3.3-4.4-12.8-9.3-25.2C683.2,672.3,689.2,671.4,689.2,678z"/>
			</g>
			<g>
				<g>
					<path class="st1" d="M707.6,684c-0.2,1.8-6.2,7.1-11.3,6.5c-1.6-0.2-2.9-0.4-3.9-0.6c-1.9-0.3-2.9-0.4-3.8,0.4
						c-0.2,0.1-0.3,0.3-0.5,0.5c-1.5,1.8,0.3-2.9-2.4-2.8c-2.7,0.1-4.4-1.1-3.5,3.4c0.9,4.5-1.8,13.9-2.5,14.6
						c-0.7,0.7-4.3,5.3-6,11.5c-3.4,2.7-9.2,5.5-10.9,5.5s-4.5,0.5-4.9,2.2c-0.3,1.3,5.8,10.3,21.7,3c4.3-2,9.3-5.1,15.1-10
						c3.7-3.1,6.9-5.8,9.6-8.2c17.6-15.3,17.8-17.7,17.8-17.7s-9.1-9.7-11.2-12.2C709.9,678.9,707.8,682.1,707.6,684z"/>
					<path class="st8" d="M682.3,691.3c0.9,4.5-1.8,13.9-2.5,14.6c-0.7,0.7-4.3,5.3-6,11.5c-3.4,2.7-9.2,5.5-10.9,5.5
						s-4.5,0.5-4.9,2.2c-0.3,1.3,5.8,10.3,21.7,3c7-4.5,10.8-9.2,10.3-14c-0.7-7.9-3.3-18-1.4-23.3c0.1-0.2,0.1-0.3,0.1-0.5
						c-0.2,0.1-0.3,0.3-0.5,0.5c-1.5,1.8,0.3-2.9-2.4-2.8C683,688.1,681.3,686.9,682.3,691.3z"/>
					<path class="st7" d="M707.1,682.3c-0.2,1.8-5.7,8.7-10.8,8.2c-1.6-0.2-2.9-0.4-3.9-0.6c-1.8,2.8-3.1,6-2.2,9.5
						c1.5,6.1,11.7,3.9,14.1,3.3c1.3-0.3,0.3,3.6,0,7.3c17.6-15.3,17.8-17.7,17.8-17.7s-3.6-8.8-8.3-15.1
						C710,671.7,707.3,680.5,707.1,682.3z"/>
				</g>
				<g>
					<g>
						<g>
							<path class="st10" d="M714.8,685.2c0.6,0.7,1.4,1,1.9,0.7l2.9-2.4c0.4-0.4,0.3-1.2-0.3-2l0,0c-0.6-0.7-1.4-1-1.9-0.7
								l-2.9,2.4C714.1,683.6,714.2,684.4,714.8,685.2L714.8,685.2z"/>
						</g>
					</g>
				</g>
				<g>
					<path class="st5" d="M720.7,689.6c0.3,3.1-5.7,9.2-10.9,12.6c-1.5,1-3.3,2.2-5.1,3.6c-4.6,3.4-9.3,7.2-9.6,7.6
						c-0.2,0.3-2.3,2.3-6.2,5.2c-2.8,2.1-6.5,4.6-11.1,7.3c-20.5,11-16.6-6.2-20-1.4c-3.1,4.4-0.7,8.6,9.2,10
						c0.8,0.1,1.6,0.2,2.5,0.3c12,1,30.8-15.5,30.8-15.5s1.8-1.2,5.1-3.7c3.7-2.7,9.2-7,16.3-12.8
						C735.2,691.7,720.7,689.6,720.7,689.6z"/>
					<path class="st8" d="M720.7,689.6c0.3,3.1-5.7,9.2-10.9,12.6c-1.5,1-3.3,2.2-5.1,3.6c-0.4,3.3-1.2,8.2,0.7,9.7
						c3.7-2.7,9.2-7,16.3-12.8C735.2,691.7,720.7,689.6,720.7,689.6z"/>
					<path class="st2" d="M658,724.4c-3.1,4.4-0.7,8.6,9.2,10c11.7-4.8,19.5-10.3,22-15.8c-2.8,2.1-6.5,4.6-11.1,7.3
						C657.5,736.8,661.3,719.6,658,724.4z"/>
				</g>
				<path class="st24" d="M706.9,683.1c0,0-3.6,1.9-5.3,4.2c-1.6,2.2-4.6,2.8-8.8,2c-0.2,0-0.4-0.1-0.6-0.1
					c-1.8-0.3-2.8-0.1-3.5,0.3c-1,0.6-1,1.7-1,1.7s-0.5,5.1-2.3,12.7c-1.2,5.1-0.2,8,4.1,6.8c2.1-0.6,4.9-2.1,8.5-4.8
					c1.1-0.8,2.1-1.7,2.9-2.6C708.7,694.8,706.9,683.1,706.9,683.1z"/>
				<path class="st10" d="M706.9,683.1c0,0-3.6,1.9-5.3,4.2c-1.6,2.2-4.6,2.8-8.8,2c-1.9,2.9-3.5,6.3-2.6,10
					c1.1,4.4,6.8,4.5,10.8,3.9C708.7,694.8,706.9,683.1,706.9,683.1z"/>
			</g>
		</g>
		<g>
			<g>
				<g>
					<path class="st9" d="M671.9,309.9c0,0-0.6,26.6-3.9,50.3c-1.7,12.1-4.1,23.4-7.5,30.1c-5,9.8-16.6,19-27.9,25.2
						c-1.9,1-3.8,2-5.7,2.9c-1.4-3.5-3.4-10.6-6.2-13.3c1.5-1.5,3-3.2,4.5-5.1c0,0,0.1-0.1,0.1-0.1c0.2-0.3,0.4-0.6,0.7-0.8
						C639.9,380.6,666.1,330.2,671.9,309.9z"/>
					<path class="st25" d="M671.9,309.9c0,0-0.6,26.6-3.9,50.3c-6,11.7-11.9,22.1-14.9,27.6c-5.1,9.2-14.4,11.6-27.2,11.2
						c1.4-1.8,2.9-4,4.5-6.4c7.1-10.7,16-26.5,23.9-41.9C662.3,334.7,669.2,319.2,671.9,309.9z"/>
					<path class="st24" d="M651.5,368.8c-3.5,8.9-12.8,19.9-21.1,23.7c7.1-10.7,16-26.5,23.9-41.9C660,353.9,655.7,358,651.5,368.8z
						"/>
				</g>
				<g>
					<g>
						<path class="st13" d="M626.8,418.3c-9.5,4.3-17.9,6-20.7,3.3c0,0,0,0,0,0c-0.2-0.2-0.4-0.4-0.6-0.6
							c-3.8-4.1,1.7-4.5,10.2-11.4c1.5-1.2,3.1-2.6,4.7-4.3c0.1-0.1,0.2-0.2,0.3-0.3C623.5,407.7,625.4,414.8,626.8,418.3z"/>
						<path class="st15" d="M626.8,418.3c-9.5,4.3-17.9,6-20.7,3.3c0,0,0,0,0,0c6.9,0,14.2-5.2,15.5-9.1c0.6-1.9-0.2-4.7-1.2-7.2
							c0.1-0.1,0.2-0.2,0.3-0.3C623.5,407.7,625.4,414.8,626.8,418.3z"/>
						<path class="st14" d="M611.9,416.5c-2.9,0.6-4.8,3.4-6.5,4.6c-3.8-4.1,1.7-4.5,10.2-11.4C616.9,412.4,615.4,415.8,611.9,416.5
							z"/>
					</g>
					<g>
						<path class="st26" d="M632.7,417.7c-0.7,3.4-3,3.1-4.6,2.7c-0.4-0.1-0.8-0.9-1.3-2.1c-0.3-0.6-0.5-1.4-0.8-2.2
							c-0.8-2.4-1.8-5.3-3-7.7c-0.7-1.4-1.5-2.6-2.3-3.4c-0.4-0.4-0.9-0.7-1.3-0.9c-0.5-0.2,0.9-3.1,2.6-4.5
							c0.6-0.5,1.3-0.8,1.9-0.7c0.2,0,0.4,0.1,0.5,0.2c0.2,0.1,0.5,0.4,0.8,0.8c2.3,2.7,6.4,11.1,7.4,15.6
							C632.8,416.4,632.8,417.2,632.7,417.7z"/>
						<path class="st10" d="M632.7,417.7c-0.7,3.4-3,3.1-4.6,2.7c-0.4-0.1-0.8-0.9-1.3-2.1c-0.3-0.6-0.5-1.4-0.8-2.2
							c0.8-0.4,1.4-0.7,1.5-0.9c0.4-0.6-1.4-3-0.7-6.2c0.7-3-1.1-7.4-3-10.2c0.2,0,0.4,0.1,0.5,0.2c0.2,0.1,0.5,0.4,0.8,0.8
							c2.3,2.7,6.4,11.1,7.4,15.6C632.8,416.4,632.8,417.2,632.7,417.7z"/>
						<path class="st24" d="M624.6,406.5c-0.3,1-0.9,1.6-1.6,2c-0.7-1.4-1.5-2.6-2.3-3.4c-0.4-0.4-0.9-0.7-1.3-0.9
							c-0.5-0.2,0.9-3.1,2.6-4.5C623.3,402.5,625.3,404.1,624.6,406.5z"/>
					</g>
				</g>
			</g>
			<g>
				<path class="st7" d="M629.2,444.5l-4.3-0.6c0.8-5.7-0.2-14.3-4.3-19.7c-1.8-2.4-4.1-3.8-6.7-4.1c-6.1-0.8-14.8,4.5-18.8,21.8
					l-4.2-1c2.2-9.5,5.9-16.6,10.9-20.8c3.8-3.3,8.4-4.8,12.6-4.3c3.7,0.5,7.1,2.5,9.6,5.8C628.9,427.9,630.1,437.9,629.2,444.5z"/>
			</g>
		</g>
		<path class="st7" d="M655.9,524.2H548.9c-2.5,0-4.7-0.9-6.4-2.5c-2-1.8-3.2-4.3-3.2-7.2v-68.5c0-2.7,1.1-5.1,2.8-6.8
			c1.7-1.7,4.2-2.8,6.8-2.8h107.1c3.5,0,6.5,1.8,8.2,4.6c0.9,1.5,1.4,3.2,1.4,5v68.5c0,2.4-0.9,4.6-2.4,6.3
			C661.4,523,658.8,524.2,655.9,524.2z"/>
		<path class="st13" d="M701.3,292.4c-3.1,1.1-8.2,2.9-13.6,4.2c-3.3,0.8-6.7,1.5-9.8,1.9c-1.7,0.2-3.3,0.3-4.8,0.2
			c0.7-3.8,1.2-7.3,1.5-10.5c0.3-2.7,0.5-5.1,0.5-7.2c0-2.8-0.1-5.1-0.6-6.9l23.6-12.2C697.7,270.1,699.2,280.5,701.3,292.4z"/>
		<path class="st15" d="M701.3,292.4c-3.1,1.1-8.2,2.9-13.6,4.2c-0.7-1.7-1.6-3.5-2.3-5.2c-2.4-5.1-6.8-6.6-10.2-10.5
			c0-2.8-0.1-5.1-0.6-6.9l23.6-12.2C697.7,270.1,699.2,280.5,701.3,292.4z"/>
		<path class="st14" d="M677.9,298.5c-1.7,0.2-3.3,0.3-4.8,0.2c0.7-3.8,1.2-7.3,1.5-10.5C675.8,291.4,677.3,295.4,677.9,298.5z"/>
		<g>
			<path class="st26" d="M714.5,427.8c-0.6,3.6-1.4,7-2.2,10.3c-21.5-6.6-43.3-7.9-60.9-7.3c-7.6,0.2-14.3,0.9-20,1.5
				c0.6-1.7,1.2-3.4,1.8-5.1c6.4-18.1,13-34.4,17.1-45.6c1.9-5.2,4-11.4,6.1-18c0.4-1.2,0.8-2.5,1.2-3.7c1.6-5,3.1-10.2,4.6-15.5
				c2.7-9.4,5.2-19.1,7.3-28.2c1-4.3,1.9-8.5,2.7-12.5c0.1-0.4,0.1-0.7,0.2-1c0.2-0.9,0.3-1.8,0.5-2.7c0.1-0.4,0.2-0.8,0.2-1.3
				c1.9,0.1,3.9-0.1,6.1-0.4c6.9-0.9,14.7-3.3,19.8-5.1c0.9-0.3,1.6-0.6,2.3-0.8c0,0,0,0.1,0,0.1c0.3,1.8,0.7,3.6,1,5.5
				c0.9,4.4,1.8,9.1,2.8,13.9h0C712.4,346.6,721.5,389.4,714.5,427.8z"/>
			<path class="st10" d="M714.5,427.8c-0.6,3.6-1.4,7-2.2,10.3c-21.5-6.6-43.3-7.9-60.9-7.3c25.2-15.7,36.5-43.5,43.9-70.9
				c8.1-29.8,13.1-36.7,6.5-44.9c-6.6-8.2-13.6-12-21.2-12.1c-5.2-0.1,9.7-3.5,21.7-4.9c0.9,4.4,1.8,9.1,2.8,13.9h0
				C712.4,346.6,721.5,389.4,714.5,427.8z"/>
			<path class="st9" d="M705.2,311.8c-4.6-2.8-4.4-7.5-5.9-8.7c-1.5-1.1-20.9,1.2-26.8-0.6c0.2-0.9,0.3-1.8,0.5-2.7
				c1.2-0.4,3.5-0.9,6.3-1.6c5.9-1.4,14.1-3.4,19.8-5.1c0.8-0.2,1.6-0.5,2.4-0.7C702.5,298.5,703.8,305,705.2,311.8z"/>
			<path class="st9" d="M688.9,338.2c-0.3,0.3-16.6,17.4-32.4,25.9c1.6-5,3.1-10.2,4.6-15.5C670.3,344.1,688.5,338.3,688.9,338.2z"
				/>
			<g>
				<path class="st26" d="M705.5,293.4c0.1,1.9-6.1,6.5-18,8.5c-4.4,0.7-7.9,1-10.5,1c-4.6,0-6.8-0.9-6.8-1.8v0
					c0-1.4,0.5-4.6,1.7-4.5c0.8,0.1,6.4-0.1,11.7-0.9c1.5-0.2,3-0.5,4.4-0.8c0.5-0.1,1-0.3,1.5-0.4c5.7-2,12-8.1,13.7-8.6
					C705,285.3,705.4,291.5,705.5,293.4z"/>
				<path class="st24" d="M683.5,295.7c-0.1,3.4-9.9,4.4-13.4,5.4c0-1.4,0.5-4.6,1.7-4.5C672.7,296.7,678.3,296.5,683.5,295.7z"/>
				<path class="st10" d="M705.5,293.4c0.1,1.9-6.1,6.5-18,8.5c-4.4,0.7-7.9,1-10.5,1c1.1-1.1,8-1.4,12.8-2.8
					c4.7-1.3,2.5-3.8-0.3-5.6c5.7-2,12-8.1,13.7-8.6C705,285.3,705.4,291.5,705.5,293.4z"/>
			</g>
			<path class="st24" d="M674.6,313c-1.5,0.7-3.5,2.1-5,3.2c1-4.3,1.9-8.5,2.7-12.5C676.2,306.1,677,311.8,674.6,313z"/>
			<path class="st24" d="M656.5,363.6c-0.1,11.5-0.4,34.4-6.9,45.3c-4.2,7.1-11.6,13.9-16.3,18.3c6.4-18.1,13-34.4,17.1-45.6
				C652.3,376.3,654.4,370.2,656.5,363.6z"/>
		</g>
		<g>
			<path class="st8" d="M638.8,536.2c-29.3,35.1-72.1,128.2-74,131.3c-1,1.6-14.1,2-26.5,1.5c-7-0.3-13.8-0.9-18-1.7
				c-2.5-0.5-4.1-1-4.3-1.6c-1.2-2.6,57.5-114.6,93.3-186.9c2.9-5.8,5.6-11.3,8.1-16.5c5.9-12.1,10.8-22.5,14.1-30
				C631.5,432.3,668.1,501.1,638.8,536.2z"/>
			<path class="st5" d="M594.4,540.6c-9.4,17.2-37.6,51.5-43.1,67.5c-5.5,16-17.6,34-22.3,44.1c-2.2,4.9-5.7,10.5-8.7,15
				c-2.5-0.5-4.1-1-4.3-1.6c-1.2-2.6,57.5-114.6,93.3-186.9C611.1,501.2,602.8,525.3,594.4,540.6z"/>
			<path class="st1" d="M638.8,536.2c-29.3,35.1-72.1,128.2-74,131.3c-1,1.6-14.1,2-26.5,1.5c6-12.9,28.8-36.9,34.5-56.1
				c6.6-22.6,35.5-55,37.4-70.7c1.6-13.8,3.1-59.2,7.2-79.8c5.9-12.1,10.8-22.5,14.1-30C631.5,432.3,668.1,501.1,638.8,536.2z"/>
		</g>
		<g>
			<g>
				<path class="st13" d="M657.8,283.2c-1.8,0-4.9,0-7.5,0c-1.1,0-2,0-2.7,0c0.8-7.2-1.6-11.9-3.9-15.6c-1.9-3-1.1-5.4,1.1-5.7
					c2.5-0.3,6.7,2,10.7,9.2C657.3,274.3,657.9,278.6,657.8,283.2z"/>
				<path class="st15" d="M657.8,283.2c-1.8,0-4.9,0-7.5,0c0.5-2.6,3-11.2-0.4-13.2c-3.3-1.9-5.7-5.2-5.2-8.2
					c2.5-0.3,6.7,2,10.7,9.2C657.3,274.3,657.9,278.6,657.8,283.2z"/>
			</g>
			<g>
				<g>
					<path class="st26" d="M630.7,361c-1.4,0.1-2.7,0.2-3.7,0.2c-0.3,0-0.6,0-0.9,0c-14.1-1.1-4.6-33.6,10.2-56.7
						c3.5-5.5,6-10.4,7.5-14.6c0.5-1.2,0.8-2.4,1.2-3.6c0-0.1,0.1-0.3,0.1-0.4c0.1-0.3,0.1-0.6,0.2-0.8c0.4-1.5,0.6-3,0.8-4.3
						c2.9,0,9.2-0.1,12.2,0c0,0.1,0,0.3,0,0.4c-0.1,2-0.2,4-0.4,6.1c-1.8,16.9-8.5,35-4.2,32.8c0.3-0.1,0.5-0.3,0.8-0.4
						c7.5-4,14.8-7.1,21.5-8.5c13.5-3,23.9,0.4,26.4,14.6C705.9,345.5,650.6,359.2,630.7,361z"/>
					<path class="st9" d="M657.9,287.2c-1.8,16.9-8.5,35-4.2,32.8c0.3-0.1,0.5-0.3,0.8-0.4c-1.5,1.6-3,2.4-4.3,1.4
						c-4.3-3.1,2.6-10.9,2.5-21.4c-0.1-9.5-5.7-10.6-7.7-13.2c-0.2-0.3-0.4-0.6-0.5-0.9c0,0,0.3-0.1,0.8-0.4c2.2-1,8.6-3.8,13-3.9
						C658.3,283.1,658.2,285.1,657.9,287.2z"/>
					<path class="st24" d="M639.5,315c-7.6,12.8-16.2,27.6-15.9,35.2c0.2,5,2.3,8.6,2.5,11c-14.1-1.1-4.6-33.6,10.2-56.7
						c3.5-5.5,6-10.4,7.5-14.6C645.7,294.8,645.8,304.3,639.5,315z"/>
					<path class="st10" d="M630.7,361c3.5-5.9,0-19.5,9.5-24.7c11.3-6.2,45.2-15.2,41.9-21.1c-1-1.9-3.4-3.5-6-4.2
						c13.5-3,23.9,0.4,26.4,14.6C705.9,345.5,650.6,359.2,630.7,361z"/>
				</g>
				<g>
					<path class="st26" d="M660,287.4c-0.1,0.1-0.6,0.2-1.3,0.2c-1.8,0.1-5.2-0.1-8.4-0.5c-1.8-0.2-3.6-0.5-5-0.8
						c-0.3-0.1-0.6-0.1-0.8-0.2c-1.4-0.4-2.3-0.9-2.2-1.4c0.3-3.7,0.8-4.4,1.8-4.4c0.2,0,0.7,0,1.6,0c1.2,0,3,0,4.9,0
						c3,0,6.3,0,8.4,0h0.3c0.9,0,1.5,0,1.7,0C662.2,280.5,660.8,286.7,660,287.4z"/>
					<path class="st10" d="M660,287.4c-0.1,0.1-0.6,0.2-1.3,0.2c-1.8,0.1-5.2-0.1-8.4-0.5c6-0.9,8-2,8.4-3.8c0.2-0.8,0.2-2,0.3-3
						h0.3c0.9,0,1.5,0,1.7,0C662.2,280.5,660.8,286.7,660,287.4z"/>
					<path class="st24" d="M645.2,286.3c-0.3-0.1-0.6-0.1-0.8-0.2c-1.4-0.4-2.3-0.9-2.2-1.4c0.3-3.7,0.8-4.4,1.8-4.4
						c0.2,0,0.7,0,1.6,0c1.2,0,3,0,4.9,0c-0.6,1.7-3.6,3.2-5.5,3.2C643.3,283.5,644.5,285.5,645.2,286.3z"/>
				</g>
			</g>
		</g>
		<g>
			<path class="st8" d="M677,552.7c7.4,48.4,30.1,94.2,30.5,100.8c0.2,3.3-7.9,10.4-16.4,15.5c-8.5,5.1-17.2,8.2-18,3.3
				c-0.5-3.4-7.1-18.1-15.6-37.4c-16-36.2-38.9-88.7-42.7-113.8c-2.7-18,2.4-42.8,9.7-67.3c2.2-7.2,4.5-14.4,7-21.4
				c4.7-0.6,10.2-1.1,16.3-1.4c18.2-0.9,41.5,0.1,64.5,7.2C699.7,490.3,670.1,507.2,677,552.7z"/>
			<path class="st1" d="M677,552.7c7.4,48.4,30.1,94.2,30.5,100.8c0.2,3.3-7.9,10.4-16.4,15.5c-0.9-6.5-2.6-14.7-6.7-24
				c-11.2-25.5-30.7-80.9-33-98.9s11.6-35.4,1.7-59.9c-8.9-22.1-15.3-36.4-5.4-55.3c18.2-0.9,41.5,0.1,64.5,7.2
				C699.7,490.3,670.1,507.2,677,552.7z"/>
			<path class="st5" d="M657.5,634.8c-16-36.2-38.9-88.7-42.7-113.8c-2.7-18,2.4-42.8,9.7-67.3c-0.9,25.2,8.3,38.3,7,57.2
				c-1.4,19.8,1.7,48.7,8.2,65.3C645.9,592.2,663.4,616.8,657.5,634.8z"/>
		</g>
		<path class="st13" d="M702.7,265.4c-0.1,0.2-0.1,0.3-0.2,0.5c-2.8,6.4-16.9,14.2-29.4,14.3c-2.3,0-4.6-0.2-6.7-0.8
			c-12-3.1-6.1-13.3-4.1-18.1c0.3-0.8,0.6-1.4,0.6-1.9c0.1-2.1-0.6-1.9-2-2.2c-0.6-0.1-1.4-0.3-2.3-0.8c-1.9-1-0.5-5.8,2.2-13
			c1.2-3.2,2.6-6.9,4.1-10.9c0.3-0.8,0.6-1.6,0.8-2.4c0,0,13.4-0.9,25.9,1C704.1,233.3,705.3,257.7,702.7,265.4z"/>
		<path class="st15" d="M702.7,265.4c-0.1,0.2-0.1,0.3-0.2,0.5c-0.8,1.2-1.4,1.8-1.4,1.8s-7.9,0.9-6.5-4.8c1.4-5.8-3-17.7-4.7-18.3
			c-1.6-0.5-15.7,4.3-25-12c0.3-0.8,0.6-1.6,0.8-2.4c0,0,13.4-0.9,25.9,1C704.1,233.3,705.3,257.7,702.7,265.4z"/>
		<g>
			<path class="st27" d="M717.1,247.4c-9.5,6.2-7.4,6.5-12.5,18.3c-5.1,11.9-9.8,0.1-8.3-6.9c0.8-3.8-0.4-6.5-1.8-8.9c0,0,0,0,0,0
				c-1.3-2.1-2.9-4.1-3.6-6.3c-0.8-2.7-2.4-0.3-6.4,0.1c-3.3,0.4-8.2-0.5-15.7-6.4c-14-11-8.9-29.3-2.5-36.8c1.2-1.4,2.4-2.4,3.6-3
				c6.1-2.8,7.4,4.9,10.4,10.8c1,1.9,2.2,3.6,3.7,4.7c6.5,4.4,30.5-2,35.9,5.9c5.4,7.8-2.4,14,2,15.4
				C726.3,235.6,726.6,241.2,717.1,247.4z"/>
			<path class="st28" d="M684.5,243.8c-3.3,0.4-8.2-0.5-15.7-6.4c-14-11-8.9-29.3-2.5-36.8c4.4-1.8,8.5,0.5,6.9,6.9
				c-2,8.6-8,21.2-0.9,27.5C679.1,241,685.5,241,684.5,243.8z"/>
			<path class="st12" d="M717.1,247.4c-9.5,6.2-7.4,6.5-12.5,18.3c-5.1,11.9-9.8,0.1-8.3-6.9c0.8-3.8-0.4-6.5-1.8-8.9c0,0,0,0,0,0
				c1.1-3.1,2.3-5.8,2.9-8c1.1-4.7,12.2-2.2,12.1-8c-0.1-5.8-8-5.1-19.6-6.9c-9.1-1.4-9.1-11.9-9.6-18.7c1,1.9,2.2,3.6,3.7,4.7
				c6.5,4.4,30.5-2,35.9,5.9c5.4,7.8-2.4,14,2,15.4C726.3,235.6,726.6,241.2,717.1,247.4z"/>
		</g>
		<g>
			<path class="st13" d="M689.9,248.3c4.3-9,11.7-12.5,14.6-3.6c2.9,8.9-10.5,12.9-10.5,12.9L689.9,248.3z"/>
			<path class="st15" d="M694.8,243.2c0,0,4-3.3,6.9,0.5c2.9,3.8,0.3,8.6-2.5,10.6c0,0,5.1-3.6,2.2-8.7
				C698.4,240.6,694.8,243.2,694.8,243.2z"/>
			<path class="st15" d="M701.1,248.5c-0.1,2.7-2.7,5.2-4.4,4.1c-1.7-1.2-1.2-3.1-1.2-3.1s0.2,2.8,1.8,2.8
				C698.8,252.2,700.2,250.7,701.1,248.5z"/>
			<path class="st15" d="M697.9,246.6c1.3,1.1,1.9,3.4,0.2,3.2s-2.1-1.7-2.6-1.5c-0.5,0.2-1.6-1.5-0.3-2.1
				C696.4,245.6,697.9,246.6,697.9,246.6z"/>
		</g>
		<path class="st14" d="M660.9,257.4c-0.6-0.1-1.4-0.3-2.3-0.8c-1.9-1-0.5-5.8,2.2-13C659.9,249.4,659.7,255.1,660.9,257.4z"/>
		<path class="st14" d="M673,280.3c-2.3,0-4.6-0.2-6.7-0.8c-12-3.1-6.1-13.3-4.1-18.1c-0.1,4.3-1.1,11.5,4.7,14.7
			C670.7,278.1,672.3,279.4,673,280.3z"/>
	</g>
	<g>
		<g>
			<g>
				<g>
					<g>
						
							<rect x="379.8" y="621.5" transform="matrix(0.1461 -0.9893 0.9893 0.1461 -364.3309 979.2557)" class="st22" width="10.6" height="158.3"/>
					</g>
				</g>
			</g>
			<g>
				<path class="st29" d="M458.1,721.4l-100.8-14.9c-2.1-0.3-3.6-2.5-3.2-4.9l1.6-10.8c0.4-2.4,2.4-4.1,4.5-3.8L461,701.9
					c2.1,0.3,3.6,2.5,3.2,4.9l-1.6,10.8C462.2,720,460.2,721.7,458.1,721.4z"/>
			</g>
			<g>
				<path class="st29" d="M272,720.3c-23.7-3.5-40.2-25.7-36.7-49.4c3.5-23.7,25.7-40.2,49.4-36.7s40.2,25.7,36.7,49.4
					C317.9,707.4,295.7,723.8,272,720.3z M282.8,647.6c-16.4-2.4-31.7,9-34.1,25.4c-2.4,16.4,9,31.7,25.4,34.1
					c16.4,2.4,31.7-9,34.1-25.4C310.5,665.3,299.2,650,282.8,647.6z"/>
			</g>
		</g>
	</g>
	<g>
		<path class="st0" d="M186.6,190.7h24.8c4.3,0,7.8-3.5,7.8-7.8v-32c0-4.3-3.5-7.8-7.8-7.8h-62.9c-4.3,0-7.8,3.5-7.8,7.8v32
			c0,4.3,3.5,7.8,7.8,7.8h25.9l5.6,11.2c0.2,0.4,0.6,0.7,1,0.7c0.6,0.1,1.1-0.2,1.4-0.8L186.6,190.7z"/>
		<g>
			<g>
				<g>
					<g>
						<polygon class="st28" points="163.5,173 163.2,172.5 177.2,164.8 191.2,156 201.3,153.2 201.5,153.8 191.5,156.5 177.5,165.3 
													"/>
					</g>
					<g>
						<g>
							<path class="st12" d="M204.9,152.5c-1.5,1.1-3.2,2.7-4.2,4.1l0.2-3l-1.7-2.5C200.8,151.9,203.1,152.4,204.9,152.5z"/>
						</g>
					</g>
				</g>
				
					<rect x="174.7" y="167.7" transform="matrix(-1 -1.224647e-16 1.224647e-16 -1 354.7002 354.3111)" class="st2" width="5.3" height="18.8"/>
				
					<rect x="188.7" y="158.9" transform="matrix(-1 -1.224647e-16 1.224647e-16 -1 382.7291 345.4574)" class="st2" width="5.3" height="27.7"/>
				
					<rect x="160.7" y="175.7" transform="matrix(-1 -1.224647e-16 1.224647e-16 -1 326.6712 362.3245)" class="st2" width="5.3" height="10.8"/>
				<circle class="st12" cx="163.3" cy="172.7" r="1.3"/>
				<circle class="st12" cx="177.4" cy="165" r="1.3"/>
				<circle class="st12" cx="191.4" cy="156.2" r="1.3"/>
			</g>
			<g>
				<path class="st2" d="M208.8,186.9h-54.2c-0.2,0-0.3-0.1-0.3-0.3v-40.1c0-0.2,0.1-0.3,0.3-0.3s0.3,0.1,0.3,0.3v39.8h53.9
					c0.2,0,0.3,0.1,0.3,0.3S209,186.9,208.8,186.9z"/>
			</g>
		</g>
	</g>
</g>
</svg>
