<?xml version="1.0" encoding="utf-8"?>
<!-- Generator: Adobe Illustrator 23.0.2, SVG Export Plug-In . SVG Version: 6.00 Build 0)  -->
<svg version="1.1" id="fa60aa3c-ac5a-409e-a10f-995c3361be0f"
	 xmlns="http://www.w3.org/2000/svg" xmlns:xlink="http://www.w3.org/1999/xlink" x="0px" y="0px" viewBox="0 0 1082.1 786.3"
	 style="enable-background:new 0 0 1082.1 786.3;" xml:space="preserve">
<style type="text/css">
	.st0{fill:#FF8D5B;}
	.st1{opacity:0.39;fill:url(#SVGID_1_);}
	.st2{fill:url(#SVGID_2_);stroke:#000000;stroke-width:1.28;stroke-linecap:round;stroke-linejoin:round;stroke-miterlimit:10;}
	.st3{fill:url(#SVGID_3_);}
	.st4{fill:#588DDB;}
	.st5{fill:#153077;}
	.st6{fill:#0E2354;}
	.st7{fill:#FBB45A;}
	.st8{fill:url(#SVGID_4_);}
	.st9{fill:url(#SVGID_5_);stroke:#000000;stroke-width:1.3637;stroke-linecap:round;stroke-linejoin:round;stroke-miterlimit:10;}
	.st10{fill:#423785;stroke:#000000;stroke-width:1.3637;stroke-linecap:round;stroke-linejoin:round;stroke-miterlimit:10;}
	.st11{fill:#FF9E5D;}
	.st12{fill:#C0D4FF;}
	.st13{fill:url(#SVGID_6_);}
	.st14{fill:url(#SVGID_7_);}
	.st15{fill:none;stroke:#000000;stroke-width:0.8751;stroke-linecap:round;stroke-linejoin:round;stroke-miterlimit:10;}
	.st16{fill:#97BDFF;}
	.st17{fill:#054AA9;}
	.st18{fill:#AECBFF;}
	.st19{fill:#FFFFFF;}
	.st20{fill:none;stroke:#054AA9;stroke-width:0.2164;stroke-miterlimit:10;}
	.st21{fill:url(#SVGID_8_);stroke:#000000;stroke-width:1.3637;stroke-linecap:round;stroke-linejoin:round;stroke-miterlimit:10;}
	.st22{fill:#041C4C;}
	.st23{fill:#DB7358;}
	.st24{fill:#0E2760;}
	.st25{fill:#FEA587;}
	.st26{fill:#3C7ECE;}
	.st27{clip-path:url(#SVGID_10_);fill:#0B2663;}
	.st28{clip-path:url(#XMLID_6_);fill:#D6E1FE;}
	.st29{clip-path:url(#SVGID_12_);fill:#081838;}
	.st30{clip-path:url(#SVGID_14_);fill:#DB7358;}
</style>
<title>design community</title>
<g>
	<g>
		<g>
			<path class="st0" d="M144,497c0,0,16.3,7.8,32.3-1.7s28.2-38.2,27.7-55.7c-0.5-17.5-4.9-37.4-13.2-45.4c-8.3-8-18.3,13-18.3,13
				s-5.1-16.5-10.5-26c-5.4-9.4-16.6-11.8-19.8,3.1c-3.3,14.8-3.3,14.8-3.3,14.8s-10.9-21.6-21.7-29.7c-10.8-8.1-31.6-14-29.1,6.6
				c2.5,20.6,25.5,40.1,25.5,40.1s-12.1-5.1-22.3-7c-10.2-1.9-15.1,6.7-7.4,18.2s21.5,24.3,21.5,24.3s-14-5.3-16.3,1.7
				c-2.4,7,8.6,20.6,22.5,29.7C125.4,492.1,144,497,144,497z"/>
			
				<linearGradient id="SVGID_1_" gradientUnits="userSpaceOnUse" x1="443.2925" y1="-123.2357" x2="467.627" y2="231.5526" gradientTransform="matrix(0.9969 -7.930000e-02 7.930000e-02 0.9969 131.2982 239.4066)">
				<stop  offset="8.031201e-02" style="stop-color:#FF9E5D"/>
				<stop  offset="0.4389" style="stop-color:#FFAF5F"/>
				<stop  offset="1" style="stop-color:#FFD162"/>
			</linearGradient>
			<path class="st1" d="M347.5,385.3c1.4,8.2-17.6-142,72.9-145.7s103.5,54.6,145.5-40.7S663.6,102,693.4,98.5
				C723.1,95,801.3,124.3,827.3,204s28,82.9,28,82.9L356,413.4L347.5,385.3z"/>
			<g>
				<linearGradient id="SVGID_2_" gradientUnits="userSpaceOnUse" x1="334.0615" y1="301.3365" x2="332.8406" y2="463.2917">
					<stop  offset="8.031201e-02" style="stop-color:#FF9E5D"/>
					<stop  offset="0.4389" style="stop-color:#FFAF5F"/>
					<stop  offset="1" style="stop-color:#FFD162"/>
				</linearGradient>
				<line class="st2" x1="333.5" y1="315.6" x2="333.5" y2="444.7"/>
				<linearGradient id="SVGID_3_" gradientUnits="userSpaceOnUse" x1="335.2734" y1="76.0232" x2="333.2282" y2="347.3263">
					<stop  offset="8.031201e-02" style="stop-color:#FF9E5D"/>
					<stop  offset="0.4389" style="stop-color:#FFAF5F"/>
					<stop  offset="1" style="stop-color:#FFD162"/>
				</linearGradient>
				<polygon class="st3" points="260,315.6 406.9,315.6 333.5,99.9 				"/>
			</g>
			<g>
				<path class="st4" d="M443.1,122.1c0,0,19.4-19,61.5-28.4c0,0-42.8,18.4-61.1,51.6L443.1,122.1z"/>
				<path class="st5" d="M501.7,94.6c0,0-1.3-8.6,4.9-11.5c6.2-2.8,23.7-5.3,32.6,2.7S507.2,100,501.7,94.6z"/>
				<path class="st4" d="M441.4,122.1c0,0-19.4-19-61.5-28.4c0,0,42.8,18.4,61.1,51.6L441.4,122.1z"/>
				<path class="st5" d="M382.7,94.6c0,0,1.3-8.6-4.9-11.5c-6.2-2.8-23.7-5.3-32.6,2.7S377.3,100,382.7,94.6z"/>
				<path class="st6" d="M444.6,421.9h-5.7V90.3c0-0.6,0.5-1.1,1.1-1.1h3.4c0.6,0,1.1,0.5,1.1,1.1V421.9z"/>
			</g>
			<polygon class="st7" points="310.6,531.8 287.9,531.9 273.7,534.9 522.1,665.8 1016.4,546.4 978.2,528.6 			"/>
			<g>
				<linearGradient id="SVGID_4_" gradientUnits="userSpaceOnUse" x1="186.53" y1="-8.6162" x2="186.53" y2="376.119">
					<stop  offset="8.031201e-02" style="stop-color:#FF9E5D"/>
					<stop  offset="0.4389" style="stop-color:#FFAF5F"/>
					<stop  offset="1" style="stop-color:#FFD162"/>
				</linearGradient>
				<circle class="st8" cx="186.5" cy="152.9" r="109.1"/>
				<linearGradient id="SVGID_5_" gradientUnits="userSpaceOnUse" x1="187.8935" y1="82.6976" x2="187.8935" y2="725.5822">
					<stop  offset="8.031201e-02" style="stop-color:#FF9E5D"/>
					<stop  offset="0.4389" style="stop-color:#FFAF5F"/>
					<stop  offset="1" style="stop-color:#FFD162"/>
				</linearGradient>
				<line class="st9" x1="187.9" y1="170.3" x2="187.9" y2="534.9"/>
				<line class="st10" x1="187.9" y1="203.2" x2="212.4" y2="186.8"/>
			</g>
			
				<rect x="86.4" y="410.3" transform="matrix(0.968 -0.2509 0.2509 0.968 -86.577 145.8591)" class="st11" width="884.9" height="4.4"/>
			<polygon class="st4" points="725.8,345.4 430.2,416.3 430.2,495.8 690.2,612.1 989,540.4 989,460.9 			"/>
			<polygon class="st12" points="989,460.9 693.4,531.9 430.2,416.3 725.8,345.4 			"/>
			
				<linearGradient id="SVGID_6_" gradientUnits="userSpaceOnUse" x1="554.9344" y1="-44.6111" x2="555.9384" y2="32.6848" gradientTransform="matrix(0.9985 -5.550000e-02 5.550000e-02 0.9985 127.8232 96.3842)">
				<stop  offset="8.031201e-02" style="stop-color:#FF9E5D"/>
				<stop  offset="0.4389" style="stop-color:#FFAF5F"/>
				<stop  offset="1" style="stop-color:#FFD162"/>
			</linearGradient>
			<path class="st13" d="M612.5,88.7l142.7-7.9c0,0-12.5-1.1-16.6-11.6c-4-10.6-16-3.6-19.3-11.9c-1.4-3.4,2.1-6.5-2.9-11.7
				c-5-5.2-10.8,2-14.3,0.8s-3.6-6.3-6.8-10.7s-10.1-9.5-22.6-5.5c-12.5,4-10.3,20.5-12.7,21c-2.5,0.5-3.1-1.3-8.2-2.6
				c-4-1-10.2,1.3-13.8,7.4c-3.6,6,2.8,11.2,0.5,13.9c-2.2,2.7-15,1.5-16.2,9C621,86.2,612.5,88.7,612.5,88.7z"/>
			<g>
				<linearGradient id="SVGID_7_" gradientUnits="userSpaceOnUse" x1="861.6109" y1="8.2265" x2="859.0972" y2="216.8506">
					<stop  offset="8.031201e-02" style="stop-color:#FF9E5D"/>
					<stop  offset="0.4389" style="stop-color:#FFAF5F"/>
					<stop  offset="1" style="stop-color:#FFD162"/>
				</linearGradient>
				<path class="st14" d="M854.9,194.3c0,0-34.4,5.4-44.9-18.1c-10.4-23.5,6.1-37.2,13-42.1c6.9-4.8,11-12.8,7.7-21.4
					c-3.3-8.6-15.2-10.4-11.1-32.2c4.1-21.8,21.6-14.2,23.3-24.4c1.7-10.2-9.7-10.8-5.6-28.3s24.4-18.8,31.5-14s11.4,15.1,9.5,22
					c-1.9,6.9-7.1,16,2.8,20.9c9.9,4.8,20.1,10.1,19.2,29.8c-0.9,19.7-16.4,20.1-19.4,26.1s-0.2,13,9.1,17.7
					c9.3,4.7,30.7,18.5,19.5,42.3C898.5,196.2,867.2,197.1,854.9,194.3z"/>
				<line class="st15" x1="859.8" y1="80.5" x2="859.8" y2="329.2"/>
			</g>
			<g>
				<ellipse class="st16" cx="709.6" cy="438.2" rx="97.1" ry="31"/>
				<g>
					<g>
						<path class="st6" d="M735.7,349.1c25.6,5.7,40.1,12.7,41.5,16c0,0,0.1,1,0.4,1.1c2.1,0.1,10.6-0.1,10.6-0.1
							c1.5-9.7-14.3-17.2-32.2-22.5C749.3,345.7,742.3,347.6,735.7,349.1z"/>
						<path class="st6" d="M634.6,344.9c0,0.3-0.2,0.5-0.2,0.6c2.6-3.1,22.4-6.1,54.3-3.4c6-0.6,12.1-1.4,18.4-2.4
							c6.3-1,12.1-2.2,17.5-3.3c-7.6-1.4-13.5-2.2-15.5-2.5c-8.4-1.1-82.4-10.8-85.7,9.6L634.6,344.9z"/>
						<path class="st6" d="M662.2,356.5c20.7-0.2,42.8-3.7,47.2-4.4c8.4-1.4,81.9-13.9,78.2-34.2c0,0-11,1.2-11,1.2
							c-1.7,4.4-26.2,15.7-69,22.7c-42.8,6.9-70,4-73.2,0.4c0,0,0.2,0.2,0.2,0.6l-11,0.7l0,1.1C625.3,354.2,643.2,356.7,662.2,356.5
							z"/>
						<path class="st6" d="M736.1,395.7c25.7,5.9,40.3,13.1,41.7,16.4c0-0.1,11,0.5,11,0.5c1.5-9.7-14.3-17.1-32.2-22.5
							C749.9,392.2,742.8,394.1,736.1,395.7z"/>
						<path class="st6" d="M635.2,391.4c0,0.3-0.2,0.5-0.2,0.6c2.6-3.1,22.5-6.1,54.6-3.4c5.9-0.6,12-1.4,18.2-2.4
							c6.4-1,12.2-2.2,17.6-3.3c-7.7-1.4-13.5-2.2-15.6-2.5c-8.4-1.2-82.4-10.8-85.7,9.6L635.2,391.4z"/>
						<path class="st6" d="M662.9,402.9c20.7-0.2,42.8-3.7,47.2-4.4c8.4-1.4,81.9-13.9,78.2-34.2c0,0-11,1.3-11,1.2
							c-1.7,4.4-26.2,15.7-69,22.7c-42.8,6.9-70,4-73.2,0.4c0,0.1,0.2,0.2,0.2,0.6l-11,0.3l0,1.4C626,400.7,643.8,403.2,662.9,402.9
							z"/>
						<path class="st6" d="M635.8,437.9c0,0.3-0.2,0.5-0.2,0.6c2.6-3.1,22.4-6.1,54.5-3.4c5.9-0.6,12-1.4,18.2-2.4
							c6.3-1,12.2-2.2,17.6-3.3c-7.7-1.4-13.5-2.2-15.5-2.5c-8.4-1.2-82.5-10.8-85.7,9.6L635.8,437.9z"/>
						<path class="st6" d="M721.3,439c-1.5-0.4-3-0.6-4.6-0.8C718.3,438.5,719.8,438.8,721.3,439z"/>
						<path class="st6" d="M663.5,449.4c20.7-0.2,42.8-3.7,47.2-4.4c8.4-1.4,81.9-13.9,78.2-34.2c0,0-11,1.2-11,1.2
							c-1.7,4.4-26.2,15.7-69.1,22.7c-42.8,6.9-70,4-73.2,0.4c0,0.1,0.2,0.3,0.2,0.6l-11,0.7v1.1
							C626.6,447.2,644.5,449.6,663.5,449.4z"/>
					</g>
				</g>
				<path class="st17" d="M709.6,255.8c-63.5,0-115,9.7-115,21.7v46.6c0,12,51.5,21.7,115,21.7s115-9.7,115-21.7v-46.6
					C824.6,265.6,773.1,255.8,709.6,255.8z"/>
				<ellipse class="st18" cx="709.6" cy="277.6" rx="115" ry="21.7"/>
			</g>
			<polygon class="st17" points="690.3,612.1 524.4,653 284.4,531.9 430.4,495.7 			"/>
			<g>
				<path class="st19" d="M359.4,529.5c0.2,2.1,2.1,4.9,7.1,7.2c5.4,2.4,12.3,2.8,18.4,1.5c5.8-1.3,6.7-3.1,4.5-6.8
					c-3.2-5.1-0.2-9.5,13.5-12.5c16-3.5,35.6-2.8,47.8,2.7c5.8,2.7,7.9,5.1,8.5,7l-19.7,2.6c-0.3-1.3-1.3-3.6-6.4-5.9
					c-5.1-2.3-11.7-2.5-16.6-1.4c-6,1.3-5.7,3.2-3.6,7.3c3,5.5-1.3,9.3-14.5,12.2c-15.7,3.4-35.8,3.3-50-3.1c-5.9-2.7-9-5.9-9-7.9
					L359.4,529.5z"/>
				<path class="st19" d="M464.6,540.8l-13.9-6.3l17.8-3.9l39.8,18.1l-17.8,3.9l-14.1-6.4l-76,16.7l-11.8-5.3L464.6,540.8z"/>
				<path class="st19" d="M451.4,569.8l-27.8,3.6l-12.1-5.5l109.6-13.4l15.4,7l-77.7,27.8l-12.6-5.7l20.1-7.1L451.4,569.8z
					 M480.4,572.3l16.7-5.8c4.6-1.6,10.7-3.6,15.5-5.2l-0.2-0.1c-6.3,0.9-14.2,2.1-20.5,2.9l-23,3L480.4,572.3z"/>
				<path class="st19" d="M558.2,572.2c4.9,1.5,11.3,3.8,17.5,6.7c7.7,3.5,11,6.4,9.4,9.2c-1.4,2.4-6.2,4.6-14.9,6.5
					c-12,2.6-24.9,2.3-32.2,0.9l-0.4,0.1c1,2.2-3.3,4.5-10.6,7c-9,3.1-19.6,6.5-22.2,7.7l-12-5.4c1.8-1,8.2-3.2,18.2-6.4
					c10.3-3.2,11.3-4.9,6.7-7.1l-3.5-1.6l-36.9,8.1l-11.6-5.3L558.2,572.2z M529.4,586.3l4.6,2.1c5.8,2.7,14.6,3.1,22.8,1.3
					c8.6-1.9,9.7-4.3,4.5-6.8c-2.8-1.3-4.9-1.9-6-2.3L529.4,586.3z"/>
				<path class="st19" d="M597.2,601l-13.9-6.3l17.8-3.9l39.8,18.1l-17.8,3.9l-14.1-6.4L533,623l-11.8-5.3L597.2,601z"/>
			</g>
			<g>
				<g>
					<path class="st5" d="M712.5,263.7l-35.7,7.8c-10.7,2.3-13.9,4.5-9.9,6.3c4.1,1.8,11.5,1.7,22.4-0.7l35.7-7.8l7.7,3.5l-34.8,7.6
						c-19.2,4.2-33.6,3.8-42.6-0.3c-8.6-3.9-5.1-8.1,14.7-12.5l34.6-7.6L712.5,263.7z"/>
					<path class="st5" d="M738.7,276.1c3.1,0.9,7,2.3,11.8,4.5c4.8,2.2,6.5,4.1,5.5,5.8c-0.9,1.7-4.6,3.5-10.7,4.8
						c-6.1,1.3-12.4,2-17.9,1.8c-7.2-0.2-13.1-1.5-17.7-3.6c-1-0.5-1.8-0.9-2.4-1.3l-22.2,4.9l-7.7-3.5L738.7,276.1z M718.2,285.8
						c0.4,0.4,1.1,0.8,2.2,1.3c4.1,1.9,10.4,2.2,16.8,0.8c5.7-1.3,6.9-3,3.1-4.7c-1.6-0.7-2.9-1.1-3.8-1.3L718.2,285.8z"/>
				</g>
			</g>
			<line class="st20" x1="693.4" y1="531.9" x2="690.2" y2="612.1"/>
			<g>
				
					<ellipse transform="matrix(0.9827 -0.185 0.185 0.9827 -121.3169 58.4268)" class="st7" cx="252.4" cy="679.3" rx="178.9" ry="89.9"/>
				<linearGradient id="SVGID_8_" gradientUnits="userSpaceOnUse" x1="195.3526" y1="360.1005" x2="194.0519" y2="532.651">
					<stop  offset="8.031201e-02" style="stop-color:#FF9E5D"/>
					<stop  offset="0.4389" style="stop-color:#FFAF5F"/>
					<stop  offset="1" style="stop-color:#FFD162"/>
				</linearGradient>
				<line class="st21" x1="194.7" y1="375.3" x2="194.7" y2="512.8"/>
				<path class="st22" d="M177.4,660l-4.7,0.7c0,0-0.8,2.6,2.9,8.5c3.6,5.9,15.7,18.8,18.7,18.8l2.4-9.4L177.4,660z"/>
				<g>
					<path class="st23" d="M184,692.4c4.8-4.5,13.5-11.9,13.5-11.9l-17-20.9c0,0-8.6,5.2-18.6,9.6
						C169.7,671.7,180.5,677.6,184,692.4z"/>
					<path class="st4" d="M183.9,725.4c-4.8-2.4-10.9-1.8-11.2-14c-0.2-6.6,5.8-13.7,11.4-19c-3.5-14.8-14.3-20.8-22-23.2
						c-7.2,3.2-14.5,6.9-18,10c-3,2.6-5.4,5.3-7.2,8.8c2.4-0.7,5.9-0.7,11,1.3c12.8,5,5.7,22.8,9.1,40.6c2.4,12.5,9.5,19,13.5,21.8
						c6.8-1,11.8-3.4,13.5-5.4C187,742.9,188.7,727.8,183.9,725.4z"/>
					<path class="st17" d="M156.9,729.9c-3.5-17.8,3.7-35.6-9.1-40.6c-5.1-2-8.6-2-11-1.3c-3.3,6.2-4.6,14.8-3.5,29.1
						c1.7,22.1,2.6,29.3,18.2,33.5c6.9,1.9,13.5,1.9,18.9,1.1C166.4,749,159.3,742.5,156.9,729.9z"/>
				</g>
				<g>
					<path class="st24" d="M305.6,545.5c0.4-32.5,10.2-110.4,10.2-110.4L269,469.6c-3.5,20.1-4,49.4-3.3,75.9
						C272.9,547.5,290.1,551.3,305.6,545.5z"/>
					<g>
						<path class="st23" d="M369.8,472.3c-1.9-15.8-2.6-30.2-2.6-30.2h-33.1c0,0,0.9,6.8,2.3,16.2C341,457.9,354.2,458,369.8,472.3z
							"/>
						<path class="st25" d="M408.8,589.3c0,0-25.5-65.8-32.5-84.8c-3-8.1-5-20.5-6.4-32.2c-15.6-14.4-28.8-14.5-33.4-14
							c2.6,17.4,6.7,43.9,9.4,54.1c4.1,15.7,43.1,86.6,43.1,86.6c2.1,8.7,46.8,55.9,55.5,35.2S408.8,589.3,408.8,589.3z"/>
					</g>
					<path class="st26" d="M354.9,578.2c-3.2-6.2-32.7-4-44.4-13.9c-16.2,8.5-35.7,4.7-44.1,2.4c0.7,16.8,1.7,30.5,2.2,37.2
						c0.2,2.3,2.3,3.9,4.5,3.4c8.7-1.8,29.5-5.2,46.6-1c22.4,5.5,36.7-2.8,36.7-2.8S358.8,585.6,354.9,578.2z"/>
					<path class="st23" d="M310.6,564.3c-2.4-2-4-4.5-4.5-7.6c-0.4-2.4-0.6-6.3-0.5-11.1c-15.5,5.7-32.7,2-39.8,0
						c0.2,7.4,0.4,14.5,0.7,21.2C274.9,569,294.4,572.8,310.6,564.3z"/>
				</g>
				<g>
					<defs>
						<path id="SVGID_9_" d="M132.1,516.2l-3.8,2.2c0,0,1.6,20.1,22.2,33.9s16.8,22,44,32.8c27.3,10.9,65.5,23.6,65.5,23.6
							s-48.5,21.4-87.4,52c0,0,22.8,5.5,21.5,27.3c0,0,113.1-52.6,127.6-66.7c14.5-14.1,18.2-33.1,0-47.2
							c-18.2-14.1-72.3-48.5-72.3-48.5L132.1,516.2z"/>
					</defs>
					<use xlink:href="#SVGID_9_"  style="overflow:visible;fill:#153077;"/>
					<clipPath id="SVGID_10_">
						<use xlink:href="#SVGID_9_"  style="overflow:visible;"/>
					</clipPath>
					<path class="st27" d="M211.5,512.8l3.7,34.9c0,0,31.1,22.7,63.2,37.2c32.1,14.5,29,33.3-16.5,50.7s-79.3,46.3-79.3,46.3
						l11,28.6c0,0,58.1-27.9,72.9-34.5c14.8-6.6,58.5-34.4,72.4-51.8c13.9-17.4,18.2-48.2,7.6-60.8c-10.5-12.5-76.4-45.9-80.1-47.3
						S211.5,512.8,211.5,512.8z"/>
				</g>
				<g>
					<path class="st25" d="M336.5,313.6c-3.8,4.9-9.2,10.5-15,12l4.4,12l20.3,1.7c0,0,2.4-5.3,6.7-11.4
						C349.5,317.4,341.1,314.5,336.5,313.6z"/>
					<path class="st23" d="M368.9,312.5l-7.7-11.3l-19.3,4.6c0,0-2,3.7-5.3,7.9c4.6,0.8,13,3.8,16.4,14.2
						C356.8,322.4,362.2,316.4,368.9,312.5z"/>
				</g>
				<g>
					<defs>
						<path id="XMLID_1_" d="M268,473.7c-12.8,13.8-14.1,53-14.1,53.2c0,0-71.7,61.2-125.5-8.5c0,0-11.1-42.4,34-92.7
							c45-50.3,81.2-80.2,91.1-87.9c9.9-7.7,30.7-27.5,50.5-20c13,4.9,17.5,7.8,17.5,7.8s1.1,5.7,7.6,9.9c6.4,4.1,17.1,3.8,17.1,3.8
							s26.3,15.4,25.6,37.1c-0.7,21.7-1.1,68.1-1.1,68.1s-16.3,12.2-34.4,5.2c-2.2-0.8-4.3-1.9-6.5-3.4v-15.5c0,0-2.5,2.4-6.5,6.1
							C308.1,449.7,277.8,473.8,268,473.7c-13.4-0.2-14.7-13-14.7-13"/>
					</defs>
					<use xlink:href="#XMLID_1_"  style="overflow:visible;fill:#FFFFFF;"/>
					<clipPath id="XMLID_6_">
						<use xlink:href="#XMLID_1_"  style="overflow:visible;"/>
					</clipPath>
					<path class="st28" d="M325.6,437.8l4.2-7c0,0,7.5-35.2,25.4-53.1c0,0-77.1,51.4-105.8,86.2S213.1,560,213.1,560l51.1-21.4
						L325.6,437.8z"/>
				</g>
				
					<rect x="191.4" y="392.7" transform="matrix(0.8092 0.5875 -0.5875 0.8092 274.7515 -40.3573)" class="st19" width="16.2" height="20.4"/>
				<g>
					<defs>
						<path id="SVGID_11_" d="M393.2,268.4l2.3-1.1c0,0,16.8-6.8,16.8-21.1s-5.3-12.6-10.3-16.4c-5-3.9-4.8-10.5-12.6-10.6
							s-10.4,5.8-15.1,4.5c-4.7-1.3-17.5-11.2-35-2.2s-3.5,16.8-14,24.3c-10.5,7.5-13.4,12.9-12.9,24.7
							c0.6,11.8,13.3,13.6,14.2,19.1c0.9,5.5,2,20.3,15.7,20.3s18.8-6.3,18.8-6.3L393.2,268.4z"/>
					</defs>
					<use xlink:href="#SVGID_11_"  style="overflow:visible;fill:#0E2354;"/>
					<clipPath id="SVGID_12_">
						<use xlink:href="#SVGID_11_"  style="overflow:visible;"/>
					</clipPath>
					<path class="st29" d="M324.9,294.8c0,0,3.8,3.9,14,3c10.2-0.9,3.8-6.4,5.9-13.5c2.1-7.2,6.2-10.3,12.5-13
						c6.3-2.8,6.3-12.4,17-12.7c10.7-0.4,29.9,2.4,37.4-3.6l-29.2,43.9l-45.1,17.3l-15.7-11.7L324.9,294.8z"/>
				</g>
				<g>
					<defs>
						<path id="SVGID_13_" d="M395.6,263.9c0,0,0.3,34.3-5.6,45.1c-5.9,10.8-20.4,13.3-29.5-4.6c0,0,0.5-4.1,0.2-8.1
							c0,0-7.1-2.1-6.8-10.7c0.3-8.6,9.5-6.1,10.3-5.9c0,0,1.9,0,6.3-8.8c4.4-8.8,9.3-6,14.2-5.7
							C389.6,265.5,395.6,263.9,395.6,263.9z"/>
					</defs>
					<use xlink:href="#SVGID_13_"  style="overflow:visible;fill:#FEA587;"/>
					<clipPath id="SVGID_14_">
						<use xlink:href="#SVGID_13_"  style="overflow:visible;"/>
					</clipPath>
					<path class="st30" d="M356.3,297.6c-0.1-0.8-4.8-8.8,4.8-10.5s13.4-18.2,18.8-17.6c5.4,0.7,18.2,1,21-2l-5.4-11l-27.3,2.6
						c0,0-19.1,23.9-18.5,24.5c0.6,0.6,3.2,13.8,3.2,13.8L356.3,297.6z"/>
				</g>
			</g>
		</g>
	</g>
</g>
</svg>
