<?xml version="1.0" encoding="utf-8"?>
<!-- Generator: Adobe Illustrator 23.0.2, SVG Export Plug-In . SVG Version: 6.00 Build 0)  -->
<svg version="1.1" id="Layer_1" xmlns="http://www.w3.org/2000/svg" xmlns:xlink="http://www.w3.org/1999/xlink" x="0px" y="0px"
	 viewBox="0 0 1164.1 555.9" style="enable-background:new 0 0 1164.1 555.9;" xml:space="preserve">
<style type="text/css">
	.st0{fill:#FFA65E;}
	.st1{fill:url(#SVGID_1_);}
	.st2{fill:url(#SVGID_2_);stroke:#000000;stroke-width:1.4112;stroke-linecap:round;stroke-linejoin:round;stroke-miterlimit:10;}
	.st3{fill:#423785;stroke:#000000;stroke-width:1.4112;stroke-linecap:round;stroke-linejoin:round;stroke-miterlimit:10;}
	.st4{fill:url(#SVGID_3_);stroke:#000000;stroke-width:1.7222;stroke-linecap:round;stroke-linejoin:round;stroke-miterlimit:10;}
	.st5{fill:url(#SVGID_4_);}
	.st6{fill:url(#SVGID_5_);stroke:#000000;stroke-width:1.2372;stroke-linecap:round;stroke-linejoin:round;stroke-miterlimit:10;}
	.st7{fill:url(#SVGID_6_);}
	.st8{fill:url(#SVGID_7_);}
	.st9{fill:#FBB45A;}
	.st10{fill:#EEF3FF;}
	.st11{fill:#193D7C;}
	.st12{fill:#71B2FF;}
	.st13{fill:#2883DD;}
	.st14{fill:#153077;}
	.st15{fill:#FFFFFF;}
	.st16{fill:#FFD162;}
	.st17{fill:#FFB164;}
	.st18{fill:#588DDB;}
	.st19{fill:#4264A8;}
	.st20{fill:#FEA587;}
	.st21{fill:#527CBF;}
	.st22{fill:#0A3560;}
	.st23{fill:#DB7358;}
	.st24{clip-path:url(#SVGID_9_);fill:#183F77;}
	.st25{clip-path:url(#XMLID_6_);fill:#003799;}
	.st26{clip-path:url(#XMLID_7_);fill:#034089;}
	.st27{clip-path:url(#SVGID_11_);fill:#DB7358;}
	.st28{fill:#054AA9;}
	.st29{fill:#D6E1FE;}
	.st30{fill:url(#SVGID_12_);}
	.st31{clip-path:url(#SVGID_14_);fill:#07183A;}
	.st32{fill:#062F51;}
	.st33{fill:#06437F;}
	.st34{clip-path:url(#XMLID_8_);fill:#F4BD45;}
	.st35{fill:#0E2354;}
	.st36{clip-path:url(#SVGID_16_);fill:#DB7358;}
</style>
<title>design tools</title>
<rect x="88.4" y="510" class="st0" width="995.9" height="3.6"/>
<g>
	<linearGradient id="SVGID_1_" gradientUnits="userSpaceOnUse" x1="287.953" y1="-50.893" x2="287.953" y2="344.5002">
		<stop  offset="8.031201e-02" style="stop-color:#FF9E5D"/>
		<stop  offset="0.4389" style="stop-color:#FFAF5F"/>
		<stop  offset="1" style="stop-color:#FFD162"/>
	</linearGradient>
	<ellipse class="st1" cx="288" cy="115.1" rx="109.3" ry="112.1"/>
	<linearGradient id="SVGID_2_" gradientUnits="userSpaceOnUse" x1="289.3194" y1="42.9504" x2="289.3194" y2="703.6443">
		<stop  offset="8.031201e-02" style="stop-color:#FF9E5D"/>
		<stop  offset="0.4389" style="stop-color:#FFAF5F"/>
		<stop  offset="1" style="stop-color:#FFD162"/>
	</linearGradient>
	<line class="st2" x1="289.3" y1="133" x2="289.3" y2="507.6"/>
	<line class="st3" x1="289.3" y1="166.8" x2="313.9" y2="150"/>
</g>
<g>
	<linearGradient id="SVGID_3_" gradientUnits="userSpaceOnUse" x1="992.9869" y1="328.7811" x2="991.3557" y2="545.1827">
		<stop  offset="8.031201e-02" style="stop-color:#FF9E5D"/>
		<stop  offset="0.4389" style="stop-color:#FFAF5F"/>
		<stop  offset="1" style="stop-color:#FFD162"/>
	</linearGradient>
	<line class="st4" x1="992.2" y1="347.8" x2="992.2" y2="520.3"/>
	<linearGradient id="SVGID_4_" gradientUnits="userSpaceOnUse" x1="994.6063" y1="27.7236" x2="991.8738" y2="390.2108">
		<stop  offset="8.031201e-02" style="stop-color:#FF9E5D"/>
		<stop  offset="0.4389" style="stop-color:#FFAF5F"/>
		<stop  offset="1" style="stop-color:#FFD162"/>
	</linearGradient>
	<polygon class="st5" points="896.5,347.8 1087.9,347.8 992.2,59.6 	"/>
</g>
<g>
	<linearGradient id="SVGID_5_" gradientUnits="userSpaceOnUse" x1="135.2101" y1="382.7153" x2="134.0382" y2="538.1804">
		<stop  offset="8.031201e-02" style="stop-color:#FF9E5D"/>
		<stop  offset="0.4389" style="stop-color:#FFAF5F"/>
		<stop  offset="1" style="stop-color:#FFD162"/>
	</linearGradient>
	<line class="st6" x1="134.6" y1="396.4" x2="134.6" y2="520.3"/>
	<linearGradient id="SVGID_6_" gradientUnits="userSpaceOnUse" x1="136.3735" y1="166.4325" x2="134.4104" y2="426.847">
		<stop  offset="8.031201e-02" style="stop-color:#FF9E5D"/>
		<stop  offset="0.4389" style="stop-color:#FFAF5F"/>
		<stop  offset="1" style="stop-color:#FFD162"/>
	</linearGradient>
	<polygon class="st7" points="65.9,396.4 203.4,396.4 134.6,189.3 	"/>
</g>
<linearGradient id="SVGID_7_" gradientUnits="userSpaceOnUse" x1="527.3322" y1="-9.8045" x2="527.3322" y2="126.2824">
	<stop  offset="8.031201e-02" style="stop-color:#FF9E5D"/>
	<stop  offset="0.4389" style="stop-color:#FFAF5F"/>
	<stop  offset="1" style="stop-color:#FFD162"/>
</linearGradient>
<path class="st8" d="M431.4,85.9h191.8c0,0-16.7-2.4-21.3-17.2c-4.6-14.8-21.2-6.1-25-17.8c-1.6-4.8,3.3-8.8-3-16.3
	c-6.4-7.5-14.6,2-19.2,0c-4.6-2-4.3-9-8.3-15.2c-4-6.2-12.9-13.9-29.9-9.3c-17,4.6-15.3,27.4-18.6,27.9c-3.3,0.5-4.1-2-10.8-4.2
	c-5.2-1.7-13.8,1.1-19.1,9c-5.2,8,2.9,15.6-0.3,19.2c-3.2,3.6-20.2,1-22.4,11.1C443,83.2,431.4,85.9,431.4,85.9z"/>
<ellipse class="st9" cx="361.8" cy="539.1" rx="52.7" ry="11.7"/>
<ellipse class="st9" cx="768.6" cy="540.9" rx="75.1" ry="11.7"/>
<path class="st10" d="M268.1,458.3c0,0-34.3-29.7-7.8-94.3s70.1-76.7,86.5-75.1c0,0-8.8-33,6.8-66.6s54-77.7,138.4-57.5
	c0,0,6-36.2,58.4-55.6c52.4-19.4,91.6-3.7,110.1,8.5c18.4,12.2,42.3,39,47,59.8c0,0,44.8-8,94.2,24s46,93.4,46,93.4
	s51.4-2.6,75.9,51.6C948,400.7,913,458.3,913,458.3H268.1z"/>
<path class="st10" d="M270.7,450.4l-2.7,7.9c0,0,12.9,15.9,43.1,24.7s59.5,7.1,91.5-10.6c0,0,8.8,26.2,66.1,29.4
	c57.4,3.2,86.7-32,86.7-32s17.7,19,77.8,13.2c0,0,12.8,23.3,86.3,17.8s91.4-25.9,91.4-25.9s58.4,45.5,102-16.5l-73.1-37L270.7,450.4
	z"/>
<g>
	<g>
		<g>
			<path class="st11" d="M728.7,254v169.5c0,6.1-4.4,11-9.7,11H434.4c-5.4,0-9.7-4.9-9.7-11V254c0-6.1,4.4-11,9.7-11h284.6
				C724.3,243,728.7,247.9,728.7,254z"/>
		</g>
	</g>
	<g>
		<g>
			<path class="st12" d="M723.3,259.6v164.3c0,5.9-4.3,10.7-9.6,10.7H434.2c-5.3,0-9.6-4.8-9.6-10.7V259.6c0-5.9,4.3-10.7,9.6-10.7
				h279.6C719.1,249,723.3,253.7,723.3,259.6z"/>
		</g>
	</g>
	<path class="st13" d="M613.7,357.6H444c-1.1,0-2-0.9-2-2v-5.8c0-1.1,0.9-2,2-2h169.7c1.1,0,2,0.9,2,2v5.8
		C615.6,356.8,614.8,357.6,613.7,357.6z"/>
	<path class="st13" d="M613.7,280.9H444c-1.1,0-2-0.9-2-2v-5.8c0-1.1,0.9-2,2-2h169.7c1.1,0,2,0.9,2,2v5.8
		C615.6,280.1,614.8,280.9,613.7,280.9z"/>
	<g>
		<path class="st14" d="M447.1,390.8c0-6.2,0-12.5,0-18.7c0-1.4,0.9-2.5,2.2-2.8c0.2,0,0.3,0,0.5,0c6.6,0,13.3,0,19.9,0
			c0.8,0,1.5,0.3,2.1,0.9c2.7,2.8,5.5,5.6,8.2,8.4c0.6,0.6,0.8,1.2,0.8,2c0,9.7,0,19.3,0,29c0,1.7-1.1,2.8-2.7,2.8
			c-9.4,0-18.9,0-28.3,0c-1.6,0-2.7-1.1-2.7-2.8C447.1,403.3,447.1,397.1,447.1,390.8z M469.3,371.6c-0.2,0-0.3,0-0.4,0
			c-6.3,0-12.6,0-18.9,0c-0.6,0-0.7,0.1-0.7,0.7c0,12.4,0,24.8,0,37.1c0,0.6,0.1,0.7,0.7,0.7c9.3,0,18.6,0,27.9,0c0.1,0,0.2,0,0.3,0
			c0.1-0.1,0.3-0.2,0.4-0.3c0-0.1,0-0.2,0-0.3c0-9.2,0-18.5,0-27.7c0-0.1,0-0.2,0-0.4c-0.2,0-0.3,0-0.4,0c-2,0-4.1,0-6.1,0
			c-1.6,0-2.7-1.1-2.7-2.8c0-2.2,0-4.4,0-6.5C469.3,371.9,469.3,371.8,469.3,371.6z M471.5,373.2c0,0.2,0,0.3,0,0.4
			c0,1.6,0,3.2,0,4.8c0,0.5,0.1,0.6,0.6,0.6c1.6,0,3.2,0,4.8,0c0.1,0,0.2,0,0.2,0C475.3,377.1,473.4,375.2,471.5,373.2z"/>
		<path class="st15" d="M469.3,371.6c0,0.2,0,0.3,0,0.4c0,2.2,0,4.4,0,6.5c0,1.6,1.1,2.8,2.7,2.8c2,0,4.1,0,6.1,0c0.1,0,0.3,0,0.4,0
			c0,0.2,0,0.3,0,0.4c0,9.2,0,18.5,0,27.7c0,0.1,0,0.2,0,0.3c-0.1,0.1-0.2,0.3-0.4,0.3c-0.1,0.1-0.2,0-0.3,0c-9.3,0-18.6,0-27.9,0
			c-0.6,0-0.7-0.1-0.7-0.7c0-12.4,0-24.8,0-37.1c0-0.6,0.1-0.7,0.7-0.7c6.3,0,12.6,0,18.9,0C469,371.6,469.1,371.6,469.3,371.6z
			 M463.9,388c-0.6,0-1.2,0-1.8,0c-2,0-4.1,0-6.1,0c-0.7,0-1.2,0.6-1.1,1.3c0.1,0.6,0.5,1,1.2,1c5.2,0,10.5,0,15.7,0
			c0.1,0,0.1,0,0.2,0c0.8-0.1,1.3-1,0.9-1.7c-0.2-0.4-0.6-0.6-1.1-0.6C469.2,388,466.6,388,463.9,388z M463.9,393.8
			c-2.7,0-5.3,0-8,0c-0.6,0-1.1,0.5-1.1,1.1c0,0.6,0.4,1.1,1,1.2c0.1,0,0.2,0,0.4,0c5.1,0,10.3,0,15.4,0c0.2,0,0.3,0,0.5,0
			c0.4-0.1,0.7-0.3,0.8-0.7c0.3-0.8-0.2-1.5-1.1-1.5C469.2,393.8,466.6,393.8,463.9,393.8z M463.9,401.9c1.8,0,3.7,0,5.5,0
			c0.8,0,1.7,0,2.5,0c0.6,0,1-0.5,1-1.1c0-0.6-0.4-1.1-1-1.2c-0.1,0-0.3,0-0.4,0c-5.1,0-10.3,0-15.4,0c-0.1,0-0.3,0-0.4,0
			c-0.5,0.1-0.9,0.6-0.9,1.1c0,0.7,0.5,1.1,1.2,1.1C458.7,401.9,461.3,401.9,463.9,401.9z"/>
		<path class="st15" d="M471.5,373.2c1.9,2,3.7,3.9,5.6,5.8c0,0-0.1,0-0.2,0c-1.6,0-3.2,0-4.8,0c-0.5,0-0.6-0.1-0.6-0.6
			c0-1.6,0-3.2,0-4.8C471.5,373.5,471.5,373.4,471.5,373.2z"/>
		<path class="st14" d="M463.9,388c2.6,0,5.2,0,7.9,0c0.5,0,0.8,0.2,1.1,0.6c0.4,0.7-0.1,1.6-0.9,1.7c-0.1,0-0.1,0-0.2,0
			c-5.2,0-10.5,0-15.7,0c-0.7,0-1.1-0.4-1.2-1c-0.1-0.7,0.4-1.3,1.1-1.3c2,0,4.1,0,6.1,0C462.7,388,463.3,388,463.9,388z"/>
		<path class="st14" d="M463.9,393.8c2.6,0,5.3,0,7.9,0c0.8,0,1.4,0.8,1.1,1.5c-0.2,0.4-0.4,0.6-0.8,0.7c-0.2,0-0.3,0-0.5,0
			c-5.1,0-10.3,0-15.4,0c-0.1,0-0.2,0-0.4,0c-0.6-0.1-1-0.6-1-1.2c0-0.6,0.5-1.1,1.1-1.1C458.6,393.8,461.3,393.8,463.9,393.8z"/>
		<path class="st14" d="M463.9,401.9c-2.6,0-5.3,0-7.9,0c-0.7,0-1.2-0.5-1.2-1.1c0-0.6,0.4-1,0.9-1.1c0.1,0,0.3,0,0.4,0
			c5.1,0,10.3,0,15.4,0c0.1,0,0.3,0,0.4,0c0.6,0.1,1,0.6,1,1.2c0,0.6-0.5,1-1,1.1c-0.8,0-1.7,0-2.5,0
			C467.6,401.9,465.8,401.9,463.9,401.9z"/>
	</g>
	<g>
		<path class="st14" d="M502.9,390.8c0-6.2,0-12.5,0-18.7c0-1.4,0.9-2.5,2.2-2.8c0.2,0,0.3,0,0.5,0c6.6,0,13.3,0,19.9,0
			c0.8,0,1.5,0.3,2.1,0.9c2.7,2.8,5.5,5.6,8.2,8.4c0.6,0.6,0.8,1.2,0.8,2c0,9.7,0,19.3,0,29c0,1.7-1.1,2.8-2.7,2.8
			c-9.4,0-18.9,0-28.3,0c-1.6,0-2.7-1.1-2.7-2.8C502.9,403.3,502.9,397.1,502.9,390.8z M525.1,371.6c-0.2,0-0.3,0-0.4,0
			c-6.3,0-12.6,0-18.9,0c-0.6,0-0.7,0.1-0.7,0.7c0,12.4,0,24.8,0,37.1c0,0.6,0.1,0.7,0.7,0.7c9.3,0,18.6,0,27.9,0c0.1,0,0.2,0,0.3,0
			c0.1-0.1,0.3-0.2,0.4-0.3c0-0.1,0-0.2,0-0.3c0-9.2,0-18.5,0-27.7c0-0.1,0-0.2,0-0.4c-0.2,0-0.3,0-0.4,0c-2,0-4.1,0-6.1,0
			c-1.6,0-2.7-1.1-2.7-2.8c0-2.2,0-4.4,0-6.5C525.1,371.9,525.1,371.8,525.1,371.6z M527.4,373.2c0,0.2,0,0.3,0,0.4
			c0,1.6,0,3.2,0,4.8c0,0.5,0.1,0.6,0.6,0.6c1.6,0,3.2,0,4.8,0c0.1,0,0.2,0,0.2,0C531.1,377.1,529.2,375.2,527.4,373.2z"/>
		<path class="st15" d="M525.1,371.6c0,0.2,0,0.3,0,0.4c0,2.2,0,4.4,0,6.5c0,1.6,1.1,2.8,2.7,2.8c2,0,4.1,0,6.1,0c0.1,0,0.3,0,0.4,0
			c0,0.2,0,0.3,0,0.4c0,9.2,0,18.5,0,27.7c0,0.1,0,0.2,0,0.3c-0.1,0.1-0.2,0.3-0.4,0.3c-0.1,0.1-0.2,0-0.3,0c-9.3,0-18.6,0-27.9,0
			c-0.6,0-0.7-0.1-0.7-0.7c0-12.4,0-24.8,0-37.1c0-0.6,0.1-0.7,0.7-0.7c6.3,0,12.6,0,18.9,0C524.8,371.6,524.9,371.6,525.1,371.6z
			 M519.8,388c-0.6,0-1.2,0-1.8,0c-2,0-4.1,0-6.1,0c-0.7,0-1.2,0.6-1.1,1.3c0.1,0.6,0.5,1,1.2,1c5.2,0,10.5,0,15.7,0
			c0.1,0,0.1,0,0.2,0c0.8-0.1,1.3-1,0.9-1.7c-0.2-0.4-0.6-0.6-1.1-0.6C525,388,522.4,388,519.8,388z M519.8,393.8c-2.7,0-5.3,0-8,0
			c-0.6,0-1.1,0.5-1.1,1.1c0,0.6,0.4,1.1,1,1.2c0.1,0,0.2,0,0.4,0c5.1,0,10.3,0,15.4,0c0.2,0,0.3,0,0.5,0c0.4-0.1,0.7-0.3,0.8-0.7
			c0.3-0.8-0.2-1.5-1.1-1.5C525,393.8,522.4,393.8,519.8,393.8z M519.8,401.9c1.8,0,3.7,0,5.5,0c0.8,0,1.7,0,2.5,0
			c0.6,0,1-0.5,1-1.1c0-0.6-0.4-1.1-1-1.2c-0.1,0-0.3,0-0.4,0c-5.1,0-10.3,0-15.4,0c-0.1,0-0.3,0-0.4,0c-0.5,0.1-0.9,0.6-0.9,1.1
			c0,0.7,0.5,1.1,1.2,1.1C514.5,401.9,517.1,401.9,519.8,401.9z"/>
		<path class="st15" d="M527.4,373.2c1.9,2,3.7,3.9,5.6,5.8c0,0-0.1,0-0.2,0c-1.6,0-3.2,0-4.8,0c-0.5,0-0.6-0.1-0.6-0.6
			c0-1.6,0-3.2,0-4.8C527.3,373.5,527.3,373.4,527.4,373.2z"/>
		<path class="st14" d="M519.8,388c2.6,0,5.2,0,7.9,0c0.5,0,0.8,0.2,1.1,0.6c0.4,0.7-0.1,1.6-0.9,1.7c-0.1,0-0.1,0-0.2,0
			c-5.2,0-10.5,0-15.7,0c-0.7,0-1.1-0.4-1.2-1c-0.1-0.7,0.4-1.3,1.1-1.3c2,0,4.1,0,6.1,0C518.5,388,519.1,388,519.8,388z"/>
		<path class="st14" d="M519.8,393.8c2.6,0,5.3,0,7.9,0c0.8,0,1.4,0.8,1.1,1.5c-0.2,0.4-0.4,0.6-0.8,0.7c-0.2,0-0.3,0-0.5,0
			c-5.1,0-10.3,0-15.4,0c-0.1,0-0.2,0-0.4,0c-0.6-0.1-1-0.6-1-1.2c0-0.6,0.5-1.1,1.1-1.1C514.4,393.8,517.1,393.8,519.8,393.8z"/>
		<path class="st14" d="M519.8,401.9c-2.6,0-5.3,0-7.9,0c-0.7,0-1.2-0.5-1.2-1.1c0-0.6,0.4-1,0.9-1.1c0.1,0,0.3,0,0.4,0
			c5.1,0,10.3,0,15.4,0c0.1,0,0.3,0,0.4,0c0.6,0.1,1,0.6,1,1.2c0,0.6-0.5,1-1,1.1c-0.8,0-1.7,0-2.5,0
			C523.4,401.9,521.6,401.9,519.8,401.9z"/>
	</g>
	<g>
		<path class="st14" d="M558.7,390.8c0-6.2,0-12.5,0-18.7c0-1.4,0.9-2.5,2.2-2.8c0.2,0,0.3,0,0.5,0c6.6,0,13.3,0,19.9,0
			c0.8,0,1.5,0.3,2.1,0.9c2.7,2.8,5.5,5.6,8.2,8.4c0.6,0.6,0.8,1.2,0.8,2c0,9.7,0,19.3,0,29c0,1.7-1.1,2.8-2.7,2.8
			c-9.4,0-18.9,0-28.3,0c-1.6,0-2.7-1.1-2.7-2.8C558.7,403.3,558.7,397.1,558.7,390.8z M580.9,371.6c-0.2,0-0.3,0-0.4,0
			c-6.3,0-12.6,0-18.9,0c-0.6,0-0.7,0.1-0.7,0.7c0,12.4,0,24.8,0,37.1c0,0.6,0.1,0.7,0.7,0.7c9.3,0,18.6,0,27.9,0c0.1,0,0.2,0,0.3,0
			c0.1-0.1,0.3-0.2,0.4-0.3c0-0.1,0-0.2,0-0.3c0-9.2,0-18.5,0-27.7c0-0.1,0-0.2,0-0.4c-0.2,0-0.3,0-0.4,0c-2,0-4.1,0-6.1,0
			c-1.6,0-2.7-1.1-2.7-2.8c0-2.2,0-4.4,0-6.5C580.9,371.9,580.9,371.8,580.9,371.6z M583.2,373.2c0,0.2,0,0.3,0,0.4
			c0,1.6,0,3.2,0,4.8c0,0.5,0.1,0.6,0.6,0.6c1.6,0,3.2,0,4.8,0c0.1,0,0.2,0,0.2,0C586.9,377.1,585,375.2,583.2,373.2z"/>
		<path class="st15" d="M580.9,371.6c0,0.2,0,0.3,0,0.4c0,2.2,0,4.4,0,6.5c0,1.6,1.1,2.8,2.7,2.8c2,0,4.1,0,6.1,0c0.1,0,0.3,0,0.4,0
			c0,0.2,0,0.3,0,0.4c0,9.2,0,18.5,0,27.7c0,0.1,0,0.2,0,0.3c-0.1,0.1-0.2,0.3-0.4,0.3c-0.1,0.1-0.2,0-0.3,0c-9.3,0-18.6,0-27.9,0
			c-0.6,0-0.7-0.1-0.7-0.7c0-12.4,0-24.8,0-37.1c0-0.6,0.1-0.7,0.7-0.7c6.3,0,12.6,0,18.9,0C580.6,371.6,580.8,371.6,580.9,371.6z
			 M575.6,388c-0.6,0-1.2,0-1.8,0c-2,0-4.1,0-6.1,0c-0.7,0-1.2,0.6-1.1,1.3c0.1,0.6,0.5,1,1.2,1c5.2,0,10.5,0,15.7,0
			c0.1,0,0.1,0,0.2,0c0.8-0.1,1.3-1,0.9-1.7c-0.2-0.4-0.6-0.6-1.1-0.6C580.8,388,578.2,388,575.6,388z M575.6,393.8
			c-2.7,0-5.3,0-8,0c-0.6,0-1.1,0.5-1.1,1.1c0,0.6,0.4,1.1,1,1.2c0.1,0,0.2,0,0.4,0c5.1,0,10.3,0,15.4,0c0.2,0,0.3,0,0.5,0
			c0.4-0.1,0.7-0.3,0.8-0.7c0.3-0.8-0.2-1.5-1.1-1.5C580.9,393.8,578.2,393.8,575.6,393.8z M575.6,401.9c1.8,0,3.7,0,5.5,0
			c0.8,0,1.7,0,2.5,0c0.6,0,1-0.5,1-1.1c0-0.6-0.4-1.1-1-1.2c-0.1,0-0.3,0-0.4,0c-5.1,0-10.3,0-15.4,0c-0.1,0-0.3,0-0.4,0
			c-0.5,0.1-0.9,0.6-0.9,1.1c0,0.7,0.5,1.1,1.2,1.1C570.3,401.9,572.9,401.9,575.6,401.9z"/>
		<path class="st15" d="M583.2,373.2c1.9,2,3.7,3.9,5.6,5.8c0,0-0.1,0-0.2,0c-1.6,0-3.2,0-4.8,0c-0.5,0-0.6-0.1-0.6-0.6
			c0-1.6,0-3.2,0-4.8C583.1,373.5,583.2,373.4,583.2,373.2z"/>
		<path class="st14" d="M575.6,388c2.6,0,5.2,0,7.9,0c0.5,0,0.8,0.2,1.1,0.6c0.4,0.7-0.1,1.6-0.9,1.7c-0.1,0-0.1,0-0.2,0
			c-5.2,0-10.5,0-15.7,0c-0.7,0-1.1-0.4-1.2-1c-0.1-0.7,0.4-1.3,1.1-1.3c2,0,4.1,0,6.1,0C574.4,388,575,388,575.6,388z"/>
		<path class="st14" d="M575.6,393.8c2.6,0,5.3,0,7.9,0c0.8,0,1.4,0.8,1.1,1.5c-0.2,0.4-0.4,0.6-0.8,0.7c-0.2,0-0.3,0-0.5,0
			c-5.1,0-10.3,0-15.4,0c-0.1,0-0.2,0-0.4,0c-0.6-0.1-1-0.6-1-1.2c0-0.6,0.5-1.1,1.1-1.1C570.3,393.8,572.9,393.8,575.6,393.8z"/>
		<path class="st14" d="M575.6,401.9c-2.6,0-5.3,0-7.9,0c-0.7,0-1.2-0.5-1.2-1.1c0-0.6,0.4-1,0.9-1.1c0.1,0,0.3,0,0.4,0
			c5.1,0,10.3,0,15.4,0c0.1,0,0.3,0,0.4,0c0.6,0.1,1,0.6,1,1.2c0,0.6-0.5,1-1,1.1c-0.8,0-1.7,0-2.5,0
			C579.3,401.9,577.4,401.9,575.6,401.9z"/>
	</g>
	<g>
		<path class="st14" d="M614.5,390.8c0-6.2,0-12.5,0-18.7c0-1.4,0.9-2.5,2.2-2.8c0.2,0,0.3,0,0.5,0c6.6,0,13.3,0,19.9,0
			c0.8,0,1.5,0.3,2.1,0.9c2.7,2.8,5.5,5.6,8.2,8.4c0.6,0.6,0.8,1.2,0.8,2c0,9.7,0,19.3,0,29c0,1.7-1.1,2.8-2.7,2.8
			c-9.4,0-18.9,0-28.3,0c-1.6,0-2.7-1.1-2.7-2.8C614.5,403.3,614.5,397.1,614.5,390.8z M636.7,371.6c-0.2,0-0.3,0-0.4,0
			c-6.3,0-12.6,0-18.9,0c-0.6,0-0.7,0.1-0.7,0.7c0,12.4,0,24.8,0,37.1c0,0.6,0.1,0.7,0.7,0.7c9.3,0,18.6,0,27.9,0c0.1,0,0.2,0,0.3,0
			c0.1-0.1,0.3-0.2,0.4-0.3c0-0.1,0-0.2,0-0.3c0-9.2,0-18.5,0-27.7c0-0.1,0-0.2,0-0.4c-0.2,0-0.3,0-0.4,0c-2,0-4.1,0-6.1,0
			c-1.6,0-2.7-1.1-2.7-2.8c0-2.2,0-4.4,0-6.5C636.7,371.9,636.7,371.8,636.7,371.6z M639,373.2c0,0.2,0,0.3,0,0.4c0,1.6,0,3.2,0,4.8
			c0,0.5,0.1,0.6,0.6,0.6c1.6,0,3.2,0,4.8,0c0.1,0,0.2,0,0.2,0C642.7,377.1,640.9,375.2,639,373.2z"/>
		<path class="st15" d="M636.7,371.6c0,0.2,0,0.3,0,0.4c0,2.2,0,4.4,0,6.5c0,1.6,1.1,2.8,2.7,2.8c2,0,4.1,0,6.1,0c0.1,0,0.3,0,0.4,0
			c0,0.2,0,0.3,0,0.4c0,9.2,0,18.5,0,27.7c0,0.1,0,0.2,0,0.3c-0.1,0.1-0.2,0.3-0.4,0.3c-0.1,0.1-0.2,0-0.3,0c-9.3,0-18.6,0-27.9,0
			c-0.6,0-0.7-0.1-0.7-0.7c0-12.4,0-24.8,0-37.1c0-0.6,0.1-0.7,0.7-0.7c6.3,0,12.6,0,18.9,0C636.5,371.6,636.6,371.6,636.7,371.6z
			 M631.4,388c-0.6,0-1.2,0-1.8,0c-2,0-4.1,0-6.1,0c-0.7,0-1.2,0.6-1.1,1.3c0.1,0.6,0.5,1,1.2,1c5.2,0,10.5,0,15.7,0
			c0.1,0,0.1,0,0.2,0c0.8-0.1,1.3-1,0.9-1.7c-0.2-0.4-0.6-0.6-1.1-0.6C636.6,388,634,388,631.4,388z M631.4,393.8c-2.7,0-5.3,0-8,0
			c-0.6,0-1.1,0.5-1.1,1.1c0,0.6,0.4,1.1,1,1.2c0.1,0,0.2,0,0.4,0c5.1,0,10.3,0,15.4,0c0.2,0,0.3,0,0.5,0c0.4-0.1,0.7-0.3,0.8-0.7
			c0.3-0.8-0.2-1.5-1.1-1.5C636.7,393.8,634,393.8,631.4,393.8z M631.4,401.9c1.8,0,3.7,0,5.5,0c0.8,0,1.7,0,2.5,0
			c0.6,0,1-0.5,1-1.1c0-0.6-0.4-1.1-1-1.2c-0.1,0-0.3,0-0.4,0c-5.1,0-10.3,0-15.4,0c-0.1,0-0.3,0-0.4,0c-0.5,0.1-0.9,0.6-0.9,1.1
			c0,0.7,0.5,1.1,1.2,1.1C626.1,401.9,628.7,401.9,631.4,401.9z"/>
		<path class="st15" d="M639,373.2c1.9,2,3.7,3.9,5.6,5.8c0,0-0.1,0-0.2,0c-1.6,0-3.2,0-4.8,0c-0.5,0-0.6-0.1-0.6-0.6
			c0-1.6,0-3.2,0-4.8C639,373.5,639,373.4,639,373.2z"/>
		<path class="st14" d="M631.4,388c2.6,0,5.2,0,7.9,0c0.5,0,0.8,0.2,1.1,0.6c0.4,0.7-0.1,1.6-0.9,1.7c-0.1,0-0.1,0-0.2,0
			c-5.2,0-10.5,0-15.7,0c-0.7,0-1.1-0.4-1.2-1c-0.1-0.7,0.4-1.3,1.1-1.3c2,0,4.1,0,6.1,0C630.2,388,630.8,388,631.4,388z"/>
		<path class="st14" d="M631.4,393.8c2.6,0,5.3,0,7.9,0c0.8,0,1.4,0.8,1.1,1.5c-0.2,0.4-0.4,0.6-0.8,0.7c-0.2,0-0.3,0-0.5,0
			c-5.1,0-10.3,0-15.4,0c-0.1,0-0.2,0-0.4,0c-0.6-0.1-1-0.6-1-1.2c0-0.6,0.5-1.1,1.1-1.1C626.1,393.8,628.7,393.8,631.4,393.8z"/>
		<path class="st14" d="M631.4,401.9c-2.6,0-5.3,0-7.9,0c-0.7,0-1.2-0.5-1.2-1.1c0-0.6,0.4-1,0.9-1.1c0.1,0,0.3,0,0.4,0
			c5.1,0,10.3,0,15.4,0c0.1,0,0.3,0,0.4,0c0.6,0.1,1,0.6,1,1.2c0,0.6-0.5,1-1,1.1c-0.8,0-1.7,0-2.5,0
			C635.1,401.9,633.2,401.9,631.4,401.9z"/>
	</g>
	<g>
		<path class="st14" d="M670.3,390.8c0-6.2,0-12.5,0-18.7c0-1.4,0.9-2.5,2.2-2.8c0.2,0,0.3,0,0.5,0c6.6,0,13.3,0,19.9,0
			c0.8,0,1.5,0.3,2.1,0.9c2.7,2.8,5.5,5.6,8.2,8.4c0.6,0.6,0.8,1.2,0.8,2c0,9.7,0,19.3,0,29c0,1.7-1.1,2.8-2.7,2.8
			c-9.4,0-18.9,0-28.3,0c-1.6,0-2.7-1.1-2.7-2.8C670.3,403.3,670.3,397.1,670.3,390.8z M692.6,371.6c-0.2,0-0.3,0-0.4,0
			c-6.3,0-12.6,0-18.9,0c-0.6,0-0.7,0.1-0.7,0.7c0,12.4,0,24.8,0,37.1c0,0.6,0.1,0.7,0.7,0.7c9.3,0,18.6,0,27.9,0c0.1,0,0.2,0,0.3,0
			c0.1-0.1,0.3-0.2,0.4-0.3c0-0.1,0-0.2,0-0.3c0-9.2,0-18.5,0-27.7c0-0.1,0-0.2,0-0.4c-0.2,0-0.3,0-0.4,0c-2,0-4.1,0-6.1,0
			c-1.6,0-2.7-1.1-2.7-2.8c0-2.2,0-4.4,0-6.5C692.6,371.9,692.6,371.8,692.6,371.6z M694.8,373.2c0,0.2,0,0.3,0,0.4
			c0,1.6,0,3.2,0,4.8c0,0.5,0.1,0.6,0.6,0.6c1.6,0,3.2,0,4.8,0c0.1,0,0.2,0,0.2,0C698.5,377.1,696.7,375.2,694.8,373.2z"/>
		<path class="st15" d="M692.6,371.6c0,0.2,0,0.3,0,0.4c0,2.2,0,4.4,0,6.5c0,1.6,1.1,2.8,2.7,2.8c2,0,4.1,0,6.1,0c0.1,0,0.3,0,0.4,0
			c0,0.2,0,0.3,0,0.4c0,9.2,0,18.5,0,27.7c0,0.1,0,0.2,0,0.3c-0.1,0.1-0.2,0.3-0.4,0.3c-0.1,0.1-0.2,0-0.3,0c-9.3,0-18.6,0-27.9,0
			c-0.6,0-0.7-0.1-0.7-0.7c0-12.4,0-24.8,0-37.1c0-0.6,0.1-0.7,0.7-0.7c6.3,0,12.6,0,18.9,0C692.3,371.6,692.4,371.6,692.6,371.6z
			 M687.2,388c-0.6,0-1.2,0-1.8,0c-2,0-4.1,0-6.1,0c-0.7,0-1.2,0.6-1.1,1.3c0.1,0.6,0.5,1,1.2,1c5.2,0,10.5,0,15.7,0
			c0.1,0,0.1,0,0.2,0c0.8-0.1,1.3-1,0.9-1.7c-0.2-0.4-0.6-0.6-1.1-0.6C692.4,388,689.8,388,687.2,388z M687.2,393.8
			c-2.7,0-5.3,0-8,0c-0.6,0-1.1,0.5-1.1,1.1c0,0.6,0.4,1.1,1,1.2c0.1,0,0.2,0,0.4,0c5.1,0,10.3,0,15.4,0c0.2,0,0.3,0,0.5,0
			c0.4-0.1,0.7-0.3,0.8-0.7c0.3-0.8-0.2-1.5-1.1-1.5C692.5,393.8,689.8,393.8,687.2,393.8z M687.2,401.9c1.8,0,3.7,0,5.5,0
			c0.8,0,1.7,0,2.5,0c0.6,0,1-0.5,1-1.1c0-0.6-0.4-1.1-1-1.2c-0.1,0-0.3,0-0.4,0c-5.1,0-10.3,0-15.4,0c-0.1,0-0.3,0-0.4,0
			c-0.5,0.1-0.9,0.6-0.9,1.1c0,0.7,0.5,1.1,1.2,1.1C681.9,401.9,684.6,401.9,687.2,401.9z"/>
		<path class="st15" d="M694.8,373.2c1.9,2,3.7,3.9,5.6,5.8c0,0-0.1,0-0.2,0c-1.6,0-3.2,0-4.8,0c-0.5,0-0.6-0.1-0.6-0.6
			c0-1.6,0-3.2,0-4.8C694.8,373.5,694.8,373.4,694.8,373.2z"/>
		<path class="st14" d="M687.2,388c2.6,0,5.2,0,7.9,0c0.5,0,0.8,0.2,1.1,0.6c0.4,0.7-0.1,1.6-0.9,1.7c-0.1,0-0.1,0-0.2,0
			c-5.2,0-10.5,0-15.7,0c-0.7,0-1.1-0.4-1.2-1c-0.1-0.7,0.4-1.3,1.1-1.3c2,0,4.1,0,6.1,0C686,388,686.6,388,687.2,388z"/>
		<path class="st14" d="M687.2,393.8c2.6,0,5.3,0,7.9,0c0.8,0,1.4,0.8,1.1,1.5c-0.2,0.4-0.4,0.6-0.8,0.7c-0.2,0-0.3,0-0.5,0
			c-5.1,0-10.3,0-15.4,0c-0.1,0-0.2,0-0.4,0c-0.6-0.1-1-0.6-1-1.2c0-0.6,0.5-1.1,1.1-1.1C681.9,393.8,684.5,393.8,687.2,393.8z"/>
		<path class="st14" d="M687.2,401.9c-2.6,0-5.3,0-7.9,0c-0.7,0-1.2-0.5-1.2-1.1c0-0.6,0.4-1,0.9-1.1c0.1,0,0.3,0,0.4,0
			c5.1,0,10.3,0,15.4,0c0.1,0,0.3,0,0.4,0c0.6,0.1,1,0.6,1,1.2c0,0.6-0.5,1-1,1.1c-0.8,0-1.7,0-2.5,0
			C690.9,401.9,689,401.9,687.2,401.9z"/>
	</g>
	<g>
		<path class="st14" d="M443.1,304.6c0.2-0.6,0.4-1.3,0.7-1.8c0.9-1.6,2.2-2.5,4-2.5c2.5-0.1,5-0.1,7.5,0c2.5,0.1,4.5,2.3,4.6,4.8
			c0,0.3,0,0.6,0,0.9c0.2,0,0.3,0,0.5,0c3.7,0,7.4,0,11.2,0c1.2,0,2.2,0.3,3.2,1c1.1,0.9,1.9,2.1,1.9,3.6c0.1,1.2,0,2.4,0,3.6
			c0,0.3,0.1,0.4,0.4,0.4c1.4,0,2.8,0,4.2,0c1.7,0.1,3.2,1.2,3.6,3c0,0,0,0.1,0.1,0.1c0,0.3,0,0.6,0,1c-0.2,1.2-0.9,2.1-1.6,3
			c-1.8,2.2-3.6,4.4-5.3,6.7c-1.7,2.3-4,3.4-6.8,3.4c-7.5,0-15.1,0-22.6,0c-0.2,0-0.5,0-0.7,0c-1.7-0.1-3.1-1-3.9-2.5
			c-0.3-0.6-0.5-1.2-0.7-1.8C443.1,319.8,443.1,312.2,443.1,304.6z M459.9,328.9c3.9,0,7.8,0,11.6,0c1.5,0,2.7-0.6,3.7-1.8
			c1.9-2.3,3.7-4.7,5.6-7.1c0.3-0.4,0.7-0.9,1-1.4c0.3-0.5,0.1-1.1-0.6-1.2c-0.2,0-0.5-0.1-0.7-0.1c-2.3,0-4.5,0-6.8,0
			c-5.5,0-11,0-16.5,0c-1.5,0-2.7,0.6-3.7,1.8c-0.5,0.6-1,1.2-1.4,1.8c-1.4,1.7-2.7,3.5-4.1,5.2c-0.4,0.4-0.7,0.9-1,1.4
			c-0.3,0.5-0.1,1,0.4,1.2c0.3,0.1,0.6,0.1,0.9,0.1C452.2,328.9,456,328.9,459.9,328.9z M473.8,314.5c0-0.1,0-0.1,0-0.2
			c0-1.1,0-2.3,0-3.4c0-0.3-0.1-0.7-0.2-1c-0.4-0.8-1.1-1.2-2-1.2c-4.1,0-8.1,0-12.2,0c-1.4,0-2.3-0.9-2.3-2.4c0-0.4,0-0.8,0-1.1
			c0-1.4-0.9-2.2-2.2-2.2c-2.2,0-4.5,0-6.7,0c-1.4,0-2.2,0.9-2.2,2.3c0,6.2,0,12.4,0,18.5c0,0.1,0,0.2,0,0.4
			c0.5-0.6,0.9-1.1,1.3-1.6c1.1-1.3,2.1-2.7,3.2-4c0.5-0.6,1-1.3,1.6-1.9c1.5-1.4,3.3-2.2,5.4-2.2c5.3,0,10.6,0,16,0
			C473.5,314.5,473.6,314.5,473.8,314.5z"/>
		<path class="st16" d="M459.9,328.9c-3.9,0-7.8,0-11.6,0c-0.3,0-0.6,0-0.9-0.1c-0.6-0.2-0.7-0.7-0.4-1.2c0.3-0.5,0.7-0.9,1-1.4
			c1.4-1.7,2.7-3.5,4.1-5.2c0.5-0.6,0.9-1.2,1.4-1.8c1-1.2,2.2-1.8,3.7-1.8c5.5,0,11,0,16.5,0c2.3,0,4.5,0,6.8,0
			c0.2,0,0.5,0,0.7,0.1c0.6,0.1,0.9,0.6,0.6,1.2c-0.3,0.5-0.6,0.9-1,1.4c-1.9,2.4-3.7,4.7-5.6,7.1c-0.9,1.2-2.2,1.8-3.7,1.8
			C467.7,328.9,463.8,328.9,459.9,328.9z"/>
		<path class="st17" d="M473.8,314.5c-0.2,0-0.3,0-0.5,0c-5.3,0-10.6,0-16,0c-2.1,0-3.9,0.8-5.4,2.2c-0.6,0.6-1.1,1.3-1.6,1.9
			c-1.1,1.3-2.1,2.7-3.2,4c-0.4,0.5-0.8,1-1.3,1.6c0-0.2,0-0.3,0-0.4c0-6.2,0-12.4,0-18.5c0-1.4,0.9-2.3,2.2-2.3c2.2,0,4.5,0,6.7,0
			c1.3,0,2.2,0.9,2.2,2.2c0,0.4,0,0.8,0,1.1c0,1.5,0.8,2.4,2.3,2.4c4.1,0,8.1,0,12.2,0c0.9,0,1.6,0.3,2,1.2c0.1,0.3,0.2,0.6,0.2,1
			c0,1.1,0,2.3,0,3.4C473.8,314.4,473.8,314.5,473.8,314.5z"/>
	</g>
	<g>
		<path class="st14" d="M498.9,304.6c0.2-0.6,0.4-1.3,0.7-1.8c0.9-1.6,2.2-2.5,4-2.5c2.5-0.1,5-0.1,7.5,0c2.5,0.1,4.5,2.3,4.6,4.8
			c0,0.3,0,0.6,0,0.9c0.2,0,0.3,0,0.5,0c3.7,0,7.4,0,11.2,0c1.2,0,2.2,0.3,3.2,1c1.1,0.9,1.9,2.1,1.9,3.6c0.1,1.2,0,2.4,0,3.6
			c0,0.3,0.1,0.4,0.4,0.4c1.4,0,2.8,0,4.2,0c1.7,0.1,3.2,1.2,3.6,3c0,0,0,0.1,0.1,0.1c0,0.3,0,0.6,0,1c-0.2,1.2-0.9,2.1-1.6,3
			c-1.8,2.2-3.6,4.4-5.3,6.7c-1.7,2.3-4,3.4-6.8,3.4c-7.5,0-15.1,0-22.6,0c-0.2,0-0.5,0-0.7,0c-1.7-0.1-3.1-1-3.9-2.5
			c-0.3-0.6-0.5-1.2-0.7-1.8C498.9,319.8,498.9,312.2,498.9,304.6z M515.7,328.9c3.9,0,7.8,0,11.6,0c1.5,0,2.7-0.6,3.7-1.8
			c1.9-2.3,3.7-4.7,5.6-7.1c0.3-0.4,0.7-0.9,1-1.4c0.3-0.5,0.1-1.1-0.6-1.2c-0.2,0-0.5-0.1-0.7-0.1c-2.3,0-4.5,0-6.8,0
			c-5.5,0-11,0-16.5,0c-1.5,0-2.7,0.6-3.7,1.8c-0.5,0.6-1,1.2-1.4,1.8c-1.4,1.7-2.7,3.5-4.1,5.2c-0.4,0.4-0.7,0.9-1,1.4
			c-0.3,0.5-0.1,1,0.4,1.2c0.3,0.1,0.6,0.1,0.9,0.1C508,328.9,511.9,328.9,515.7,328.9z M529.6,314.5c0-0.1,0-0.1,0-0.2
			c0-1.1,0-2.3,0-3.4c0-0.3-0.1-0.7-0.2-1c-0.4-0.8-1.1-1.2-2-1.2c-4.1,0-8.1,0-12.2,0c-1.4,0-2.3-0.9-2.3-2.4c0-0.4,0-0.8,0-1.1
			c0-1.4-0.9-2.2-2.2-2.2c-2.2,0-4.5,0-6.7,0c-1.4,0-2.2,0.9-2.2,2.3c0,6.2,0,12.4,0,18.5c0,0.1,0,0.2,0,0.4
			c0.5-0.6,0.9-1.1,1.3-1.6c1.1-1.3,2.1-2.7,3.2-4c0.5-0.6,1-1.3,1.6-1.9c1.5-1.4,3.3-2.2,5.4-2.2c5.3,0,10.6,0,16,0
			C529.3,314.5,529.5,314.5,529.6,314.5z"/>
		<path class="st16" d="M515.7,328.9c-3.9,0-7.8,0-11.6,0c-0.3,0-0.6,0-0.9-0.1c-0.6-0.2-0.7-0.7-0.4-1.2c0.3-0.5,0.7-0.9,1-1.4
			c1.4-1.7,2.7-3.5,4.1-5.2c0.5-0.6,0.9-1.2,1.4-1.8c1-1.2,2.2-1.8,3.7-1.8c5.5,0,11,0,16.5,0c2.3,0,4.5,0,6.8,0
			c0.2,0,0.5,0,0.7,0.1c0.6,0.1,0.9,0.6,0.6,1.2c-0.3,0.5-0.6,0.9-1,1.4c-1.9,2.4-3.7,4.7-5.6,7.1c-0.9,1.2-2.2,1.8-3.7,1.8
			C523.5,328.9,519.6,328.9,515.7,328.9z"/>
		<path class="st17" d="M529.6,314.5c-0.2,0-0.3,0-0.5,0c-5.3,0-10.6,0-16,0c-2.1,0-3.9,0.8-5.4,2.2c-0.6,0.6-1.1,1.3-1.6,1.9
			c-1.1,1.3-2.1,2.7-3.2,4c-0.4,0.5-0.8,1-1.3,1.6c0-0.2,0-0.3,0-0.4c0-6.2,0-12.4,0-18.5c0-1.4,0.9-2.3,2.2-2.3c2.2,0,4.5,0,6.7,0
			c1.3,0,2.2,0.9,2.2,2.2c0,0.4,0,0.8,0,1.1c0,1.5,0.8,2.4,2.3,2.4c4.1,0,8.1,0,12.2,0c0.9,0,1.6,0.3,2,1.2c0.1,0.3,0.2,0.6,0.2,1
			c0,1.1,0,2.3,0,3.4C529.7,314.4,529.6,314.5,529.6,314.5z"/>
	</g>
	<g>
		<path class="st14" d="M554.8,304.6c0.2-0.6,0.4-1.3,0.7-1.8c0.9-1.6,2.2-2.5,4-2.5c2.5-0.1,5-0.1,7.5,0c2.5,0.1,4.5,2.3,4.6,4.8
			c0,0.3,0,0.6,0,0.9c0.2,0,0.3,0,0.5,0c3.7,0,7.4,0,11.2,0c1.2,0,2.2,0.3,3.2,1c1.1,0.9,1.9,2.1,1.9,3.6c0.1,1.2,0,2.4,0,3.6
			c0,0.3,0.1,0.4,0.4,0.4c1.4,0,2.8,0,4.2,0c1.7,0.1,3.2,1.2,3.6,3c0,0,0,0.1,0.1,0.1c0,0.3,0,0.6,0,1c-0.2,1.2-0.9,2.1-1.6,3
			c-1.8,2.2-3.6,4.4-5.3,6.7c-1.7,2.3-4,3.4-6.8,3.4c-7.5,0-15.1,0-22.6,0c-0.2,0-0.5,0-0.7,0c-1.7-0.1-3.1-1-3.9-2.5
			c-0.3-0.6-0.5-1.2-0.7-1.8C554.8,319.8,554.8,312.2,554.8,304.6z M571.6,328.9c3.9,0,7.8,0,11.6,0c1.5,0,2.7-0.6,3.7-1.8
			c1.9-2.3,3.7-4.7,5.6-7.1c0.3-0.4,0.7-0.9,1-1.4c0.3-0.5,0.1-1.1-0.6-1.2c-0.2,0-0.5-0.1-0.7-0.1c-2.3,0-4.5,0-6.8,0
			c-5.5,0-11,0-16.5,0c-1.5,0-2.7,0.6-3.7,1.8c-0.5,0.6-1,1.2-1.4,1.8c-1.4,1.7-2.7,3.5-4.1,5.2c-0.4,0.4-0.7,0.9-1,1.4
			c-0.3,0.5-0.1,1,0.4,1.2c0.3,0.1,0.6,0.1,0.9,0.1C563.8,328.9,567.7,328.9,571.6,328.9z M585.4,314.5c0-0.1,0-0.1,0-0.2
			c0-1.1,0-2.3,0-3.4c0-0.3-0.1-0.7-0.2-1c-0.4-0.8-1.1-1.2-2-1.2c-4.1,0-8.1,0-12.2,0c-1.4,0-2.3-0.9-2.3-2.4c0-0.4,0-0.8,0-1.1
			c0-1.4-0.9-2.2-2.2-2.2c-2.2,0-4.5,0-6.7,0c-1.4,0-2.2,0.9-2.2,2.3c0,6.2,0,12.4,0,18.5c0,0.1,0,0.2,0,0.4
			c0.5-0.6,0.9-1.1,1.3-1.6c1.1-1.3,2.1-2.7,3.2-4c0.5-0.6,1-1.3,1.6-1.9c1.5-1.4,3.3-2.2,5.4-2.2c5.3,0,10.6,0,16,0
			C585.1,314.5,585.3,314.5,585.4,314.5z"/>
		<path class="st16" d="M571.6,328.9c-3.9,0-7.8,0-11.6,0c-0.3,0-0.6,0-0.9-0.1c-0.6-0.2-0.7-0.7-0.4-1.2c0.3-0.5,0.7-0.9,1-1.4
			c1.4-1.7,2.7-3.5,4.1-5.2c0.5-0.6,0.9-1.2,1.4-1.8c1-1.2,2.2-1.8,3.7-1.8c5.5,0,11,0,16.5,0c2.3,0,4.5,0,6.8,0
			c0.2,0,0.5,0,0.7,0.1c0.6,0.1,0.9,0.6,0.6,1.2c-0.3,0.5-0.6,0.9-1,1.4c-1.9,2.4-3.7,4.7-5.6,7.1c-0.9,1.2-2.2,1.8-3.7,1.8
			C579.3,328.9,575.4,328.9,571.6,328.9z"/>
		<path class="st17" d="M585.4,314.5c-0.2,0-0.3,0-0.5,0c-5.3,0-10.6,0-16,0c-2.1,0-3.9,0.8-5.4,2.2c-0.6,0.6-1.1,1.3-1.6,1.9
			c-1.1,1.3-2.1,2.7-3.2,4c-0.4,0.5-0.8,1-1.3,1.6c0-0.2,0-0.3,0-0.4c0-6.2,0-12.4,0-18.5c0-1.4,0.9-2.3,2.2-2.3c2.2,0,4.5,0,6.7,0
			c1.3,0,2.2,0.9,2.2,2.2c0,0.4,0,0.8,0,1.1c0,1.5,0.8,2.4,2.3,2.4c4.1,0,8.1,0,12.2,0c0.9,0,1.6,0.3,2,1.2c0.1,0.3,0.2,0.6,0.2,1
			c0,1.1,0,2.3,0,3.4C585.5,314.4,585.5,314.5,585.4,314.5z"/>
	</g>
	<g>
		<path class="st14" d="M610.6,304.6c0.2-0.6,0.4-1.3,0.7-1.8c0.9-1.6,2.2-2.5,4-2.5c2.5-0.1,5-0.1,7.5,0c2.5,0.1,4.5,2.3,4.6,4.8
			c0,0.3,0,0.6,0,0.9c0.2,0,0.3,0,0.5,0c3.7,0,7.4,0,11.2,0c1.2,0,2.2,0.3,3.2,1c1.1,0.9,1.9,2.1,1.9,3.6c0.1,1.2,0,2.4,0,3.6
			c0,0.3,0.1,0.4,0.4,0.4c1.4,0,2.8,0,4.2,0c1.7,0.1,3.2,1.2,3.6,3c0,0,0,0.1,0.1,0.1c0,0.3,0,0.6,0,1c-0.2,1.2-0.9,2.1-1.6,3
			c-1.8,2.2-3.6,4.4-5.3,6.7c-1.7,2.3-4,3.4-6.8,3.4c-7.5,0-15.1,0-22.6,0c-0.2,0-0.5,0-0.7,0c-1.7-0.1-3.1-1-3.9-2.5
			c-0.3-0.6-0.5-1.2-0.7-1.8C610.6,319.8,610.6,312.2,610.6,304.6z M627.4,328.9c3.9,0,7.8,0,11.6,0c1.5,0,2.7-0.6,3.7-1.8
			c1.9-2.3,3.7-4.7,5.6-7.1c0.3-0.4,0.7-0.9,1-1.4c0.3-0.5,0.1-1.1-0.6-1.2c-0.2,0-0.5-0.1-0.7-0.1c-2.3,0-4.5,0-6.8,0
			c-5.5,0-11,0-16.5,0c-1.5,0-2.7,0.6-3.7,1.8c-0.5,0.6-1,1.2-1.4,1.8c-1.4,1.7-2.7,3.5-4.1,5.2c-0.4,0.4-0.7,0.9-1,1.4
			c-0.3,0.5-0.1,1,0.4,1.2c0.3,0.1,0.6,0.1,0.9,0.1C619.6,328.9,623.5,328.9,627.4,328.9z M641.3,314.5c0-0.1,0-0.1,0-0.2
			c0-1.1,0-2.3,0-3.4c0-0.3-0.1-0.7-0.2-1c-0.4-0.8-1.1-1.2-2-1.2c-4.1,0-8.1,0-12.2,0c-1.4,0-2.3-0.9-2.3-2.4c0-0.4,0-0.8,0-1.1
			c0-1.4-0.9-2.2-2.2-2.2c-2.2,0-4.5,0-6.7,0c-1.4,0-2.2,0.9-2.2,2.3c0,6.2,0,12.4,0,18.5c0,0.1,0,0.2,0,0.4
			c0.5-0.6,0.9-1.1,1.3-1.6c1.1-1.3,2.1-2.7,3.2-4c0.5-0.6,1-1.3,1.6-1.9c1.5-1.4,3.3-2.2,5.4-2.2c5.3,0,10.6,0,16,0
			C640.9,314.5,641.1,314.5,641.3,314.5z"/>
		<path class="st16" d="M627.4,328.9c-3.9,0-7.8,0-11.6,0c-0.3,0-0.6,0-0.9-0.1c-0.6-0.2-0.7-0.7-0.4-1.2c0.3-0.5,0.7-0.9,1-1.4
			c1.4-1.7,2.7-3.5,4.1-5.2c0.5-0.6,0.9-1.2,1.4-1.8c1-1.2,2.2-1.8,3.7-1.8c5.5,0,11,0,16.5,0c2.3,0,4.5,0,6.8,0
			c0.2,0,0.5,0,0.7,0.1c0.6,0.1,0.9,0.6,0.6,1.2c-0.3,0.5-0.6,0.9-1,1.4c-1.9,2.4-3.7,4.7-5.6,7.1c-0.9,1.2-2.2,1.8-3.7,1.8
			C635.1,328.9,631.2,328.9,627.4,328.9z"/>
		<path class="st17" d="M641.3,314.5c-0.2,0-0.3,0-0.5,0c-5.3,0-10.6,0-16,0c-2.1,0-3.9,0.8-5.4,2.2c-0.6,0.6-1.1,1.3-1.6,1.9
			c-1.1,1.3-2.1,2.7-3.2,4c-0.4,0.5-0.8,1-1.3,1.6c0-0.2,0-0.3,0-0.4c0-6.2,0-12.4,0-18.5c0-1.4,0.9-2.3,2.2-2.3c2.2,0,4.5,0,6.7,0
			c1.3,0,2.2,0.9,2.2,2.2c0,0.4,0,0.8,0,1.1c0,1.5,0.8,2.4,2.3,2.4c4.1,0,8.1,0,12.2,0c0.9,0,1.6,0.3,2,1.2c0.1,0.3,0.2,0.6,0.2,1
			c0,1.1,0,2.3,0,3.4C641.3,314.4,641.3,314.5,641.3,314.5z"/>
	</g>
	<g>
		<path class="st14" d="M666.4,304.6c0.2-0.6,0.4-1.3,0.7-1.8c0.9-1.6,2.2-2.5,4-2.5c2.5-0.1,5-0.1,7.5,0c2.5,0.1,4.5,2.3,4.6,4.8
			c0,0.3,0,0.6,0,0.9c0.2,0,0.3,0,0.5,0c3.7,0,7.4,0,11.2,0c1.2,0,2.2,0.3,3.2,1c1.1,0.9,1.9,2.1,1.9,3.6c0.1,1.2,0,2.4,0,3.6
			c0,0.3,0.1,0.4,0.4,0.4c1.4,0,2.8,0,4.2,0c1.7,0.1,3.2,1.2,3.6,3c0,0,0,0.1,0.1,0.1c0,0.3,0,0.6,0,1c-0.2,1.2-0.9,2.1-1.6,3
			c-1.8,2.2-3.6,4.4-5.3,6.7c-1.7,2.3-4,3.4-6.8,3.4c-7.5,0-15.1,0-22.6,0c-0.2,0-0.5,0-0.7,0c-1.7-0.1-3.1-1-3.9-2.5
			c-0.3-0.6-0.5-1.2-0.7-1.8C666.4,319.8,666.4,312.2,666.4,304.6z M683.2,328.9c3.9,0,7.8,0,11.6,0c1.5,0,2.7-0.6,3.7-1.8
			c1.9-2.3,3.7-4.7,5.6-7.1c0.3-0.4,0.7-0.9,1-1.4c0.3-0.5,0.1-1.1-0.6-1.2c-0.2,0-0.5-0.1-0.7-0.1c-2.3,0-4.5,0-6.8,0
			c-5.5,0-11,0-16.5,0c-1.5,0-2.7,0.6-3.7,1.8c-0.5,0.6-1,1.2-1.4,1.8c-1.4,1.7-2.7,3.5-4.1,5.2c-0.4,0.4-0.7,0.9-1,1.4
			c-0.3,0.5-0.1,1,0.4,1.2c0.3,0.1,0.6,0.1,0.9,0.1C675.4,328.9,679.3,328.9,683.2,328.9z M697.1,314.5c0-0.1,0-0.1,0-0.2
			c0-1.1,0-2.3,0-3.4c0-0.3-0.1-0.7-0.2-1c-0.4-0.8-1.1-1.2-2-1.2c-4.1,0-8.1,0-12.2,0c-1.4,0-2.3-0.9-2.3-2.4c0-0.4,0-0.8,0-1.1
			c0-1.4-0.9-2.2-2.2-2.2c-2.2,0-4.5,0-6.7,0c-1.4,0-2.2,0.9-2.2,2.3c0,6.2,0,12.4,0,18.5c0,0.1,0,0.2,0,0.4
			c0.5-0.6,0.9-1.1,1.3-1.6c1.1-1.3,2.1-2.7,3.2-4c0.5-0.6,1-1.3,1.6-1.9c1.5-1.4,3.3-2.2,5.4-2.2c5.3,0,10.6,0,16,0
			C696.8,314.5,696.9,314.5,697.1,314.5z"/>
		<path class="st16" d="M683.2,328.9c-3.9,0-7.8,0-11.6,0c-0.3,0-0.6,0-0.9-0.1c-0.6-0.2-0.7-0.7-0.4-1.2c0.3-0.5,0.7-0.9,1-1.4
			c1.4-1.7,2.7-3.5,4.1-5.2c0.5-0.6,0.9-1.2,1.4-1.8c1-1.2,2.2-1.8,3.7-1.8c5.5,0,11,0,16.5,0c2.3,0,4.5,0,6.8,0
			c0.2,0,0.5,0,0.7,0.1c0.6,0.1,0.9,0.6,0.6,1.2c-0.3,0.5-0.6,0.9-1,1.4c-1.9,2.4-3.7,4.7-5.6,7.1c-0.9,1.2-2.2,1.8-3.7,1.8
			C690.9,328.9,687.1,328.9,683.2,328.9z"/>
		<path class="st16" d="M697.1,314.5c-0.2,0-0.3,0-0.5,0c-5.3,0-10.6,0-16,0c-2.1,0-3.9,0.8-5.4,2.2c-0.6,0.6-1.1,1.3-1.6,1.9
			c-1.1,1.3-2.1,2.7-3.2,4c-0.4,0.5-0.8,1-1.3,1.6c0-0.2,0-0.3,0-0.4c0-6.2,0-12.4,0-18.5c0-1.4,0.9-2.3,2.2-2.3c2.2,0,4.5,0,6.7,0
			c1.3,0,2.2,0.9,2.2,2.2c0,0.4,0,0.8,0,1.1c0,1.5,0.8,2.4,2.3,2.4c4.1,0,8.1,0,12.2,0c0.9,0,1.6,0.3,2,1.2c0.1,0.3,0.2,0.6,0.2,1
			c0,1.1,0,2.3,0,3.4C697.1,314.4,697.1,314.5,697.1,314.5z"/>
	</g>
</g>
<g>
	<g>
		<polygon class="st16" points="474.7,197.7 589.8,197.7 532.2,257.5 		"/>
		<rect x="504.8" y="140.6" class="st16" width="55" height="79.1"/>
	</g>
</g>
<g>
	<polygon class="st18" points="700.5,193.6 585.5,193.6 643,133.8 	"/>
	
		<rect x="615.5" y="171.7" transform="matrix(-1 -1.224647e-16 1.224647e-16 -1 1285.9919 422.3675)" class="st18" width="55" height="79.1"/>
</g>
<g>
	<g>
		<path class="st19" d="M386.6,526.7c0,0,2.3,4.6,5.1,6.8c13.7-7.8,25.8-18.8,30.3-23.2c-0.4-1.1-1.1-2.3-2.1-3.5
			c-1.8-2.4-6.8-9.2-10.2-13.9c-0.9,2.6-3.6,7.2-11.5,10.6c3.4,6-4.3,13.4-8.7,17C385.2,524.2,386.6,526.7,386.6,526.7z"/>
		<path class="st20" d="M393.7,496.6c0,0,0.3,0.3,4.3,6.4c0.1,0.2,0.2,0.3,0.3,0.5c7.9-3.5,10.6-8,11.5-10.6c-2-2.7-3.4-4.7-3.4-4.7
			L393.7,496.6z"/>
		<path class="st21" d="M391.7,533.4c0.7,0.5,1.4,0.9,2.2,1c3.7,0.7,23.7-15.5,26.7-18.3c2-1.8,2.3-3.7,1.5-5.9
			C417.5,514.6,405.4,525.6,391.7,533.4z"/>
	</g>
	<g>
		<path class="st19" d="M318.9,514c0,0-3,4.2-3.6,7.8c12.9,9.1,28,15.2,33.8,17.3c0.8-0.9,1.5-2.1,2.1-3.5c1.2-2.7,5-10.4,7.5-15.6
			c-2.7,0.4-7.8-0.1-14.4-5.7c-3.7,5.8-13.6,2.1-18.7-0.2C320.4,511.7,318.9,514,318.9,514z"/>
		<path class="st20" d="M348.3,507c0,0-0.1,0.4-3.6,6.8c-0.1,0.2-0.2,0.3-0.3,0.5c6.6,5.7,11.7,6.1,14.4,5.7c1.5-3,2.6-5.3,2.6-5.3
			L348.3,507z"/>
		<path class="st21" d="M315.3,521.8c-0.1,0.9-0.1,1.7,0.1,2.4c1.1,3.7,24.2,14.7,27.9,16.2c2.5,1,4.3,0.4,5.8-1.3
			C343.4,536.9,328.3,530.8,315.3,521.8z"/>
	</g>
	<path class="st22" d="M395.5,374L390,377l-44.3,127.8c0,0,7.4,13.1,21.3,9.9c0,0,25-60.7,32.7-75.9c9.4-18.5,27.4-62.3,25.9-66.8
		C424.2,367.5,395.5,374,395.5,374z"/>
	<path class="st23" d="M396.3,303.8c0,0-14.7,18.5-19.4,15.8c-3-1.7-10.7-29.3-10.7-29.3s-2.7-11.1-10.7-15c-8-3.9-7.8,2.8-3.7,7.5
		c4.1,4.7,8.1,10.3,8.1,10.3s2.6,15.5,5.8,25.5c3.3,10,3.8,18.3,17.4,10.7c13.7-7.7,20.6-17,20.6-17L396.3,303.8z"/>
	<polygon class="st15" points="334.5,265.6 354.4,252.2 372.5,296.5 353.5,313 	"/>
	<g>
		<defs>
			<path id="SVGID_8_" d="M397.1,370.7l-11.4,2.8c0,0-26.2,20.2-34.3,30.8c-8.1,10.6-15.3,16.8-3.6,35.9
				c11.7,19.1,41.7,59.1,41.7,59.1s15.3,2.5,19.1-13.6c0,0-36.1-48.8-36.8-54.8c-0.7-6,0.2-8.3,12.8-16.3
				c12.6-8.1,28.3-17.5,35.9-26.5c7.6-9,5.3-16.2,5.3-16.2L397.1,370.7z"/>
		</defs>
		<use xlink:href="#SVGID_8_"  style="overflow:visible;fill:#2E5189;"/>
		<clipPath id="SVGID_9_">
			<use xlink:href="#SVGID_8_"  style="overflow:visible;"/>
		</clipPath>
		<path class="st24" d="M409.9,366.2c0,0,1.6,13.8-39.7,43.9c-12.3,9.2-21.9,13.3-3.2,40.2s38.6,50.8,38.6,50.8l24-17l-37.5-57.1
			l44.6-42.6l-2.7-24.8L409.9,366.2z"/>
	</g>
	<g>
		<defs>
			<path id="XMLID_102_" d="M397,280.8l-1.9-0.2c0,0-7.6,4.9-7.6,21.9s6.2,32.3,4,43.7c-2.1,11.4-5.8,27.3-5.8,27.3
				s7.4,9.3,23.8,6.7s16.3-8.2,16.3-8.2s0.2-28.3-1-44.7c-1.2-16.4-3.9-30.1-7.7-37.3c-3.8-7.1-8.3-10.6-10.3-10.6
				C404.6,279.4,397,280.8,397,280.8z"/>
		</defs>
		<use xlink:href="#XMLID_102_"  style="overflow:visible;fill:#054AA9;"/>
		<clipPath id="XMLID_6_">
			<use xlink:href="#XMLID_102_"  style="overflow:visible;"/>
		</clipPath>
		<path class="st25" d="M387.6,326c0,0,26.2-21.9,28.3-26.9l1.4-2.1c0,0,0.3,13-8.7,21.5s-19.5,13.7-19.5,13.7L387.6,326z"/>
		<path class="st25" d="M406.6,275.4l-4.5,5.6c0,0,11.2,21.2,12.1,60.3s-2,49-2,49l19.3-9.6l-10.5-91.8l-14.3-14.8"/>
	</g>
	<path class="st23" d="M400,261.9l-6.1,6.1c0,0,0.9,2.2,1.4,5.3c2.3-0.6,5.8-0.8,9.2,1.1c-0.4-2.3-0.8-5.8-0.9-10.8L400,261.9z"/>
	<g>
		<defs>
			<path id="XMLID_120_" d="M381.5,242.5c0,0-8.1-0.7-9-10c-0.9-9.4,5.1-14,9-15.6s10.7,0.8,13.2,0c2.5-0.8,3.5-3.7,7.9-2.8
				s8.5,2.5,9.3,6.1c0.8,3.6,4.5,2.7,7.6,5.6c3.1,2.9,2.9,8.1,0.8,10.6s2.5,4.1,3.2,7.5c0.7,3.5-1.3,7.3-5.5,8.1s-2,7.5-5.4,9.7
				c-3.4,2.1-5.2,5.8-12.6,2.6C392.7,260.9,381.5,242.5,381.5,242.5z"/>
		</defs>
		<use xlink:href="#XMLID_120_"  style="overflow:visible;fill:#054AA9;"/>
		<clipPath id="XMLID_7_">
			<use xlink:href="#XMLID_120_"  style="overflow:visible;"/>
		</clipPath>
		<path class="st26" d="M377.1,242.6c0,0-1.5-6.4,2.3-6.3c3.8,0.2,9.8,3.5,17,1.9c7.2-1.6,3.3,6.1,9.6,10c6.3,3.9,3,9.9,9.1,8.6
			c6.1-1.3,0,0,0,0l0.7,4.1l-4.9,8l-17.5,0.5l-20-14.9L377.1,242.6z"/>
	</g>
	<g>
		<g>
			<defs>
				<path id="SVGID_10_" d="M396.5,257.3c1.8-2.7,2.6-5,3-6.7c-2.2-1.9-4.1-4.5-3.7-7.5c0,0-8.9,2.6-14.8-2.9c0,0-2,11.3-0.2,20.1
					C384.6,261,393.5,261.9,396.5,257.3z"/>
			</defs>
			<use xlink:href="#SVGID_10_"  style="overflow:visible;fill:#FEA587;"/>
			<clipPath id="SVGID_11_">
				<use xlink:href="#SVGID_10_"  style="overflow:visible;"/>
			</clipPath>
			<path class="st27" d="M379.8,243.9c0,0,5.6,3.5,10.5,3.6c4.8,0.1,8.2,9.2,8.2,9.2l2-6.1l-4.2-11.8l-18.6,0.1L379.8,243.9z"/>
		</g>
		<path class="st28" d="M399.4,250.7c-0.4,1.7-1.2,3.9-3,6.7c-3,4.6-11.9,3.7-15.7,3c0.5,2.3,1.3,4.4,2.4,6.1
			c5.5,8.1,14.5,6,19.1-4.5l0.9-8.6C402.2,252.7,400.8,251.8,399.4,250.7z"/>
		<path class="st23" d="M404.6,254.1c0,0-0.6-0.3-1.4-0.8l-0.9,8.6c0,0,3.9,0.9,5-1.8C408.5,257.5,408.1,253.2,404.6,254.1z"/>
	</g>
	<path class="st20" d="M386.9,312.8c0,0-14.7,18.5-19.4,15.8c-3-1.7-10.7-29.3-10.7-29.3s-2.7-11.1-10.7-15s-7.8,2.8-3.7,7.5
		c4.1,4.7,8.1,10.3,8.1,10.3s2.6,15.5,5.8,25.5c3.3,10,3.8,18.3,17.4,10.7c13.7-7.7,20.6-17,20.6-17L386.9,312.8z"/>
	<path class="st14" d="M383.3,310.4c0,0,9.5-10.6,14.4-14.7c4.9-4.1,10.5-8.6,15.1-6.1c4.7,2.4,6.3,8.6,1.4,15S395.2,325,395.2,325
		S383.6,320.1,383.3,310.4z"/>
</g>
<g>
	<path class="st20" d="M395.3,273.3c0.3,2.2,0.4,4.8-0.3,7.3c0,0,1.7,3.8,6.3,2.5c4.6-1.3,5.2-3.7,5.2-3.7s-1.2-0.4-2-5
		C401.2,272.4,397.7,272.7,395.3,273.3z"/>
</g>
<g>
	<path class="st18" d="M838.3,431.1H699c-0.4,0-0.7-0.3-0.7-0.7v-21.5c0-0.4,0.3-0.7,0.7-0.7h139.3c0.4,0,0.7,0.3,0.7,0.7v21.5
		C839,430.8,838.7,431.1,838.3,431.1z"/>
	<ellipse class="st14" cx="712.4" cy="419.6" rx="3" ry="3.1"/>
	<ellipse class="st14" cx="724.9" cy="419.6" rx="3" ry="3.1"/>
	<ellipse class="st14" cx="737.4" cy="419.6" rx="3" ry="3.1"/>
	<path class="st29" d="M805.8,425.4h-3.2c-0.1,0-0.1-0.1-0.1-0.1v-11.4c0-0.1,0.1-0.1,0.1-0.1h3.2c0.1,0,0.1,0.1,0.1,0.1v11.4
		C805.9,425.4,805.9,425.4,805.8,425.4z"/>
	<path class="st29" d="M811.5,425.4h-3.2c-0.1,0-0.1-0.1-0.1-0.1v-11.4c0-0.1,0.1-0.1,0.1-0.1h3.2c0.1,0,0.1,0.1,0.1,0.1v11.4
		C811.6,425.4,811.5,425.4,811.5,425.4z"/>
	<path class="st29" d="M817.1,425.4h-3.2c-0.1,0-0.1-0.1-0.1-0.1v-11.4c0-0.1,0.1-0.1,0.1-0.1h3.2c0.1,0,0.1,0.1,0.1,0.1v11.4
		C817.3,425.4,817.2,425.4,817.1,425.4z"/>
	<path class="st29" d="M822.8,425.4h-3.2c-0.1,0-0.1-0.1-0.1-0.1v-11.4c0-0.1,0.1-0.1,0.1-0.1h3.2c0.1,0,0.1,0.1,0.1,0.1v11.4
		C822.9,425.4,822.9,425.4,822.8,425.4z"/>
	<rect x="703.9" y="431.1" class="st28" width="129.4" height="4.1"/>
	<path class="st18" d="M838.3,458H699c-0.4,0-0.7-0.3-0.7-0.7v-21.5c0-0.4,0.3-0.7,0.7-0.7h139.3c0.4,0,0.7,0.3,0.7,0.7v21.5
		C839,457.7,838.7,458,838.3,458z"/>
	<ellipse class="st14" cx="712.4" cy="446.6" rx="3" ry="3.1"/>
	<ellipse class="st14" cx="724.9" cy="446.6" rx="3" ry="3.1"/>
	<ellipse class="st14" cx="737.4" cy="446.6" rx="3" ry="3.1"/>
	<path class="st29" d="M805.8,452.4h-3.2c-0.1,0-0.1-0.1-0.1-0.1v-11.4c0-0.1,0.1-0.1,0.1-0.1h3.2c0.1,0,0.1,0.1,0.1,0.1v11.4
		C805.9,452.3,805.9,452.4,805.8,452.4z"/>
	<path class="st29" d="M811.5,452.4h-3.2c-0.1,0-0.1-0.1-0.1-0.1v-11.4c0-0.1,0.1-0.1,0.1-0.1h3.2c0.1,0,0.1,0.1,0.1,0.1v11.4
		C811.6,452.3,811.5,452.4,811.5,452.4z"/>
	<path class="st29" d="M817.1,452.4h-3.2c-0.1,0-0.1-0.1-0.1-0.1v-11.4c0-0.1,0.1-0.1,0.1-0.1h3.2c0.1,0,0.1,0.1,0.1,0.1v11.4
		C817.3,452.3,817.2,452.4,817.1,452.4z"/>
	<path class="st29" d="M822.8,452.4h-3.2c-0.1,0-0.1-0.1-0.1-0.1v-11.4c0-0.1,0.1-0.1,0.1-0.1h3.2c0.1,0,0.1,0.1,0.1,0.1v11.4
		C822.9,452.3,822.9,452.4,822.8,452.4z"/>
	<rect x="703.9" y="458" class="st28" width="129.4" height="4.1"/>
	<path class="st18" d="M838.3,485H699c-0.4,0-0.7-0.3-0.7-0.7v-21.5c0-0.4,0.3-0.7,0.7-0.7h139.3c0.4,0,0.7,0.3,0.7,0.7v21.5
		C839,484.7,838.7,485,838.3,485z"/>
	<ellipse class="st14" cx="712.4" cy="473.5" rx="3" ry="3.1"/>
	<ellipse class="st14" cx="724.9" cy="473.5" rx="3" ry="3.1"/>
	<ellipse class="st14" cx="737.4" cy="473.5" rx="3" ry="3.1"/>
	<path class="st29" d="M805.8,479.3h-3.2c-0.1,0-0.1-0.1-0.1-0.1v-11.4c0-0.1,0.1-0.1,0.1-0.1h3.2c0.1,0,0.1,0.1,0.1,0.1v11.4
		C805.9,479.3,805.9,479.3,805.8,479.3z"/>
	<path class="st29" d="M811.5,479.3h-3.2c-0.1,0-0.1-0.1-0.1-0.1v-11.4c0-0.1,0.1-0.1,0.1-0.1h3.2c0.1,0,0.1,0.1,0.1,0.1v11.4
		C811.6,479.3,811.5,479.3,811.5,479.3z"/>
	<path class="st29" d="M817.1,479.3h-3.2c-0.1,0-0.1-0.1-0.1-0.1v-11.4c0-0.1,0.1-0.1,0.1-0.1h3.2c0.1,0,0.1,0.1,0.1,0.1v11.4
		C817.3,479.3,817.2,479.3,817.1,479.3z"/>
	<path class="st29" d="M822.8,479.3h-3.2c-0.1,0-0.1-0.1-0.1-0.1v-11.4c0-0.1,0.1-0.1,0.1-0.1h3.2c0.1,0,0.1,0.1,0.1,0.1v11.4
		C822.9,479.3,822.9,479.3,822.8,479.3z"/>
	<rect x="703.9" y="485" class="st28" width="129.4" height="4.1"/>
	<path class="st18" d="M838.3,511.9H699c-0.4,0-0.7-0.3-0.7-0.7v-21.5c0-0.4,0.3-0.7,0.7-0.7h139.3c0.4,0,0.7,0.3,0.7,0.7v21.5
		C839,511.6,838.7,511.9,838.3,511.9z"/>
	<ellipse class="st14" cx="712.4" cy="500.5" rx="3" ry="3.1"/>
	<ellipse class="st14" cx="724.9" cy="500.5" rx="3" ry="3.1"/>
	<ellipse class="st14" cx="737.4" cy="500.5" rx="3" ry="3.1"/>
	<path class="st29" d="M805.8,506.3h-3.2c-0.1,0-0.1-0.1-0.1-0.1v-11.4c0-0.1,0.1-0.1,0.1-0.1h3.2c0.1,0,0.1,0.1,0.1,0.1v11.4
		C805.9,506.2,805.9,506.3,805.8,506.3z"/>
	<path class="st29" d="M811.5,506.3h-3.2c-0.1,0-0.1-0.1-0.1-0.1v-11.4c0-0.1,0.1-0.1,0.1-0.1h3.2c0.1,0,0.1,0.1,0.1,0.1v11.4
		C811.6,506.2,811.5,506.3,811.5,506.3z"/>
	<path class="st29" d="M817.1,506.3h-3.2c-0.1,0-0.1-0.1-0.1-0.1v-11.4c0-0.1,0.1-0.1,0.1-0.1h3.2c0.1,0,0.1,0.1,0.1,0.1v11.4
		C817.3,506.2,817.2,506.3,817.1,506.3z"/>
	<path class="st29" d="M822.8,506.3h-3.2c-0.1,0-0.1-0.1-0.1-0.1v-11.4c0-0.1,0.1-0.1,0.1-0.1h3.2c0.1,0,0.1,0.1,0.1,0.1v11.4
		C822.9,506.2,822.9,506.3,822.8,506.3z"/>
	<rect x="703.9" y="511.9" class="st28" width="129.4" height="4.1"/>
	<path class="st18" d="M838.3,538.9H699c-0.4,0-0.7-0.3-0.7-0.7v-21.5c0-0.4,0.3-0.7,0.7-0.7h139.3c0.4,0,0.7,0.3,0.7,0.7v21.5
		C839,538.6,838.7,538.9,838.3,538.9z"/>
	<ellipse class="st14" cx="712.4" cy="527.4" rx="3" ry="3.1"/>
	<ellipse class="st14" cx="724.9" cy="527.4" rx="3" ry="3.1"/>
	<ellipse class="st14" cx="737.4" cy="527.4" rx="3" ry="3.1"/>
	<path class="st29" d="M805.8,533.2h-3.2c-0.1,0-0.1-0.1-0.1-0.1v-11.4c0-0.1,0.1-0.1,0.1-0.1h3.2c0.1,0,0.1,0.1,0.1,0.1v11.4
		C805.9,533.2,805.9,533.2,805.8,533.2z"/>
	<path class="st29" d="M811.5,533.2h-3.2c-0.1,0-0.1-0.1-0.1-0.1v-11.4c0-0.1,0.1-0.1,0.1-0.1h3.2c0.1,0,0.1,0.1,0.1,0.1v11.4
		C811.6,533.2,811.5,533.2,811.5,533.2z"/>
	<path class="st29" d="M817.1,533.2h-3.2c-0.1,0-0.1-0.1-0.1-0.1v-11.4c0-0.1,0.1-0.1,0.1-0.1h3.2c0.1,0,0.1,0.1,0.1,0.1v11.4
		C817.3,533.2,817.2,533.2,817.1,533.2z"/>
	<path class="st29" d="M822.8,533.2h-3.2c-0.1,0-0.1-0.1-0.1-0.1v-11.4c0-0.1,0.1-0.1,0.1-0.1h3.2c0.1,0,0.1,0.1,0.1,0.1v11.4
		C822.9,533.2,822.9,533.2,822.8,533.2z"/>
	<rect x="703.9" y="538.9" class="st28" width="129.4" height="4.1"/>
</g>
<linearGradient id="SVGID_12_" gradientUnits="userSpaceOnUse" x1="793.8563" y1="147.2566" x2="794.7567" y2="216.5852">
	<stop  offset="8.031201e-02" style="stop-color:#FF9E5D"/>
	<stop  offset="0.4389" style="stop-color:#FFAF5F"/>
	<stop  offset="1" style="stop-color:#FFD162"/>
</linearGradient>
<path class="st30" d="M732.1,204.5h125c0,0-10.9-1.6-13.9-11.2c-3-9.7-13.8-4-16.3-11.6c-1-3.2,2.2-5.7-2-10.6
	c-4.1-4.9-9.5,1.3-12.5,0s-2.8-5.8-5.4-9.9s-8.4-9-19.5-6.1c-11.1,3-10,17.9-12.1,18.2c-2.2,0.3-2.7-1.3-7-2.8
	c-3.4-1.1-9,0.7-12.4,5.9c-3.4,5.2,1.9,10.2-0.2,12.5c-2.1,2.3-13.2,0.6-14.6,7.2C739.6,202.7,732.1,204.5,732.1,204.5z"/>
<g>
	<path class="st23" d="M769.4,359.1l7.5-2.5c1.5-0.5,2.4-2.2,1.9-3.8L762,299.8c-0.5-1.6-2.2-2.5-3.7-1.9l-7.5,2.5
		c-1.5,0.5-2.4,2.2-1.9,3.8l16.8,53.1C766.2,358.8,767.8,359.7,769.4,359.1z"/>
	<path class="st23" d="M774,344.9c0,0,37.1,10.5,40.2,9.4s13.1-4.3,19,1.6c5.9,6,4.2,10.1-5,7.9s-8.8,1.2-15.3-2.5
		c0,0-23.3,1.7-43.9-3.5L774,344.9z"/>
	<path class="st23" d="M764.3,275l-7.6,2.5c0,0,0.2,2.2-0.5,5c2,0.6,5,2.3,7,7.4c0.5-2.3,1.6-5.5,4.1-8.2L764.3,275z"/>
	<g>
		<defs>
			<path id="SVGID_13_" d="M780.9,255.7c0,0,12.7-2,13.7-16.4c0,0-6,1.8-12.5,0.7s-25.3-14.9-36.9,7.8
				c-11.6,22.7,13.7,32.7,13.7,32.7l7.4-5.4L780.9,255.7z"/>
		</defs>
		<use xlink:href="#SVGID_13_"  style="overflow:visible;fill:#0E2354;"/>
		<clipPath id="SVGID_14_">
			<use xlink:href="#SVGID_13_"  style="overflow:visible;"/>
		</clipPath>
		<path class="st31" d="M784.9,255.6c0,0,2.8-7.4-5.1-6.7c-7.9,0.7-13.3,7.6-15.9,12.8c-2.6,5.2-10.4,13.3-17,11.5l6.6,8.2l20.3,1.1
			l8.9-19.6L784.9,255.6z"/>
	</g>
	<g>
		<g>
			<path class="st32" d="M832.9,372l3.7-0.9c0,0,2.4,5.3,2,13.9c-0.4,8.6-4.6,15.6-4.6,15.6s-5.3-7.1-5.4-11.8
				C828.5,384.1,832.9,372,832.9,372z"/>
			<path class="st23" d="M888.2,432.6c-1.8-1-3.4-3-5.4-4.9c-10.7-10.4-24-46.3-30.4-51c-6.4-4.6-19.7-3.6-19.7-3.6l-5.5,11.8
				c0,0,14.3,13.6,25.5,28.3c11.8,15.4,24.4,28.5,24.4,28.5C880,441.3,885.3,440.2,888.2,432.6z"/>
			<path class="st14" d="M914.8,436.5c-1.9-3.8-5-4.2-9.7-3.3c-3.8,0.7-9.8,3.3-16.8-0.6c-2.9,7.6-8.2,8.7-11.2,9.1l0,0l7.4,13.3
				c1.3,2.7,4.6,4.1,7.2,2.6c5.8-3.3,13.7-7.3,18.6-9.6C917.6,444.6,916.7,440.3,914.8,436.5z"/>
		</g>
		<path class="st33" d="M774.2,376.2l7.6-6.3l54.8,1.1c0,0-10.1,6.9-2.6,29.5c0,0-20.2,5.9-34.6,6.5c-14.4,0.6-43.2-0.7-49.1-9.3
			L774.2,376.2z"/>
	</g>
	<g>
		<g>
			<path class="st14" d="M824.1,375.7l2-0.7c0,0,2.6,4.2,2.6,11.6c-0.1,7.4-1.9,15.5-5.2,18l-7.1-12.8l3.9-12.9L824.1,375.7z"/>
			<path class="st20" d="M868.3,453.2c-0.2-0.1-0.3-0.2-0.5-0.3c-5.6-3.6-10-43.7-12.4-55.5s-9.7-17.9-19.1-19.3
				c-9.4-1.4-18.1-1.1-18.1-1.1v26.2c0,0,17.8-3.6,18.4,0.9c1.6,11,20.3,54,20.3,54l0.5,1.8C860.5,459.6,864.7,458.2,868.3,453.2z"
				/>
			<path class="st14" d="M895.2,461.5c-2.4-6.2-6-6.5-11.3-5.3c-5.1,1.2-10.2,0.3-15.6-3c-3.6,5-7.8,6.5-10.8,6.8l4.7,15.2
				c0.7,2.3,3.1,3.4,5.2,2.6c4.5-1.8,11.7-4.5,15.3-5.1C888.3,471.8,897.6,467.7,895.2,461.5z"/>
		</g>
		<path class="st28" d="M772.9,380.1l7.6-6.3l45.5,1.1c0,0-10.1,6.9-2.6,29.5c0,0-20.5,4.4-34.9,5c-14.4,0.6-33.7,0.8-39.6-7.8
			L772.9,380.1z"/>
	</g>
	<g>
		<defs>
			<path id="XMLID_115_" d="M754,290.4l-1.2-1.3c0,0-5-1.5-10,8.4c-4.9,9.8-16,38.5-10.3,65.7c5.7,27.1,16.5,38.4,16.5,38.4
				s32.9,0,32.9-31.9c0,0-17.9-7-16.5-30.5c1.4-23.5,3-25.1-2.6-46.4L754,290.4z"/>
		</defs>
		<use xlink:href="#XMLID_115_"  style="overflow:visible;fill:#FFD162;"/>
		<clipPath id="XMLID_8_">
			<use xlink:href="#XMLID_115_"  style="overflow:visible;"/>
		</clipPath>
		<path class="st34" d="M774,330.8l-11.5-1.7l-14.2-19.5c0,0-6.2,33,4.5,55.3s29.1,24.7,29.1,24.7l5.7-26.4L774,330.8z"/>
	</g>
	<path class="st20" d="M767.8,362.6l7.5-2.5c1.5-0.5,2.4-2.2,1.9-3.8l-16.8-53.1c-0.5-1.6-2.2-2.5-3.7-1.9l-7.5,2.5
		c-1.5,0.5-2.4,2.2-1.9,3.8l16.8,53.1C764.6,362.3,766.2,363.2,767.8,362.6z"/>
	<path class="st20" d="M770.8,348c0,0,37.1,10.5,40.2,9.4s13.1-4.3,19,1.6c5.9,6,4.2,10.1-5,7.9c-9.2-2.1-8.8,1.2-15.3-2.5
		c0,0-21.6,2.2-42.2-3L770.8,348z"/>
	<path class="st35" d="M836.3,374.2h-50.8c-0.4,0-0.7-0.3-0.7-0.7v-4.3c0-0.4,0.3-0.7,0.7-0.7h50.8c0.4,0,0.7,0.3,0.7,0.7v4.3
		C837,373.9,836.7,374.2,836.3,374.2z"/>
	<path class="st35" d="M835.9,368l22.4-46.9c0.2-0.3,0.5-0.5,0.9-0.3l2.1,1.1c0.3,0.2,0.5,0.6,0.3,0.9l-22.4,46.9
		c-0.2,0.3-0.5,0.5-0.9,0.3l-2.1-1.1C835.9,368.7,835.8,368.3,835.9,368z"/>
	<g>
		<path class="st20" d="M756.2,282.6c-0.5,2.1-1.5,4.5-3.5,6.6c0,0-0.4,4,3.7,4.9c4.1,0.9,6.4-1.3,6.4-1.3s0-1.2,0.4-2.9
			C761.2,284.9,758.2,283.1,756.2,282.6z"/>
	</g>
	<g>
		<defs>
			<path id="SVGID_15_" d="M782.2,254.8c0,0,3.1,34.9-7.2,34.5c-10.3-0.5-11.7-12-11.7-12s-3.6-1.1-2.9-6.3s4.4-3.5,4.8-2.9
				C765.3,268,772,251.3,782.2,254.8z"/>
		</defs>
		<use xlink:href="#SVGID_15_"  style="overflow:visible;fill:#FEA587;"/>
		<clipPath id="SVGID_16_">
			<use xlink:href="#SVGID_15_"  style="overflow:visible;"/>
		</clipPath>
		<path class="st36" d="M760.7,277.2c0,0-1-4.9,3.3-4.5c4.2,0.5,4.6-4.2,7.9-8.4c3.3-4.2,5.9-8.4,11.3-6.2l0.1-5.2l-12.6,1l-11,13.3
			l-0.1,8.2L760.7,277.2z"/>
	</g>
</g>
</svg>
