<?xml version="1.0" encoding="utf-8"?>
<!-- Generator: Adobe Illustrator 23.0.2, SVG Export Plug-In . SVG Version: 6.00 Build 0)  -->
<svg version="1.1" id="ff89978a-9cc6-4db0-9bd2-e66489869078"
	 xmlns="http://www.w3.org/2000/svg" xmlns:xlink="http://www.w3.org/1999/xlink" x="0px" y="0px" viewBox="0 0 1048.7 812.5"
	 style="enable-background:new 0 0 1048.7 812.5;" xml:space="preserve">
<style type="text/css">
	.st0{fill:#FBB45A;}
	.st1{fill:#054AA9;}
	.st2{fill:#FFF4D7;}
	.st3{fill:#FFE8BB;}
	.st4{fill:#F4C260;}
	.st5{fill:#FFDA99;}
	.st6{fill:#FFC673;}
	.st7{fill:url(#SVGID_1_);}
	.st8{fill:url(#SVGID_2_);stroke:#FFD162;stroke-width:0.7146;stroke-miterlimit:10;}
	.st9{fill:url(#SVGID_3_);stroke:#FFD162;stroke-width:0.7146;stroke-miterlimit:10;}
	.st10{fill:#FFD162;}
	.st11{fill:#FFBD60;stroke:#FFD162;stroke-width:0.2382;stroke-miterlimit:10;}
	.st12{fill:#FFBD60;stroke:#FFD162;stroke-width:0.2077;stroke-miterlimit:10;}
	.st13{fill:none;stroke:#FFBD60;stroke-width:0.5538;stroke-miterlimit:10;}
	.st14{fill:#FF9E5D;}
	.st15{fill:#588DDB;}
	.st16{fill:#153077;}
	.st17{fill:#C5CDD8;}
	.st18{fill:url(#SVGID_4_);}
	.st19{clip-path:url(#XMLID_11_);fill:#D6E1FE;}
	.st20{fill:#06132D;}
	.st21{fill:#DB7358;}
	.st22{fill:#0C0304;}
	.st23{fill:#FEA587;}
	.st24{fill:#054796;}
	.st25{fill:#416EA3;}
	.st26{clip-path:url(#SVGID_6_);fill:#08193A;}
	.st27{clip-path:url(#SVGID_6_);fill:#153168;}
	.st28{clip-path:url(#XMLID_12_);fill:#06438C;}
	.st29{clip-path:url(#XMLID_12_);fill:#115FBC;}
	.st30{fill:#D6E1FE;}
	.st31{clip-path:url(#SVGID_8_);fill:#09193A;}
	.st32{clip-path:url(#SVGID_10_);fill:#DB7358;}
	.st33{clip-path:url(#SVGID_12_);fill:#0E2760;}
	.st34{fill:#2C6EAF;}
	.st35{fill:#1E629B;}
	.st36{clip-path:url(#XMLID_13_);fill:#D6E1FE;}
	.st37{clip-path:url(#XMLID_14_);fill:#B9CCF9;}
	.st38{clip-path:url(#SVGID_14_);fill:#DB7358;}
	.st39{clip-path:url(#XMLID_16_);fill:#003E89;}
	.st40{clip-path:url(#SVGID_16_);fill:#DB7358;}
	.st41{fill:#0A5BBC;}
	.st42{clip-path:url(#SVGID_18_);fill:#0E2760;}
	.st43{clip-path:url(#SVGID_20_);fill:#0E2760;}
	.st44{fill:#0E2354;}
	.st45{fill:#FFFFFF;}
	.st46{clip-path:url(#XMLID_17_);fill:#ABC2F4;}
	.st47{clip-path:url(#XMLID_17_);fill:#97B7EF;}
	.st48{fill:none;stroke:#ABC2F4;stroke-width:0.4701;stroke-linecap:round;stroke-linejoin:round;stroke-miterlimit:10;}
	.st49{fill:#97B7EF;}
	.st50{fill:#ABC2F4;}
	.st51{fill:url(#SVGID_21_);}
	.st52{fill:url(#SVGID_22_);}
</style>
<title>designer life</title>
<ellipse class="st0" cx="245.1" cy="713.3" rx="73.7" ry="18.7"/>
<ellipse class="st0" cx="464.9" cy="722" rx="85.3" ry="23.7"/>
<ellipse class="st0" cx="136.2" cy="696.2" rx="45.8" ry="14.2"/>
<ellipse class="st0" cx="409.9" cy="742.4" rx="45.8" ry="14.2"/>
<path class="st1" d="M805.5,501.7H319.8c-9.8,0-17.7-7.9-17.7-17.7V137.6c0-9.8,7.9-17.7,17.7-17.7h485.7c9.8,0,17.7,7.9,17.7,17.7
	v346.5C823.2,493.8,815.3,501.7,805.5,501.7z"/>
<path class="st2" d="M792.5,487.6H335.2c-9.1,0-16.5-7.4-16.5-16.5V150.4c0-9.1,7.4-16.5,16.5-16.5h457.3c9.1,0,16.5,7.4,16.5,16.5
	v320.7C809,480.2,801.6,487.6,792.5,487.6z"/>
<g>
	<path class="st3" d="M768.8,283.5H517c-1.4,0-2.5-1.1-2.5-2.5V155.8c0-1.4,1.1-2.5,2.5-2.5h251.8c1.4,0,2.5,1.1,2.5,2.5V281
		C771.3,282.4,770.1,283.5,768.8,283.5z"/>
	<path class="st4" d="M758.3,170.9c-2.7,0-4.8,2.6-4.8,5.8c0,1.1,0.3,2,0.7,2.9l-39.2,53.4c-0.6-0.3-1.2-0.4-1.8-0.4
		c-0.7,0-1.4,0.2-2,0.5l-42.2-50c0.3-0.7,0.4-1.5,0.4-2.4c0-3.2-2.2-5.8-4.8-5.8c-2.7,0-4.8,2.6-4.8,5.8c0,0.9,0.2,1.7,0.5,2.5
		l-54.3,70.6c-0.8-0.7-1.7-1.1-2.8-1.1c-0.9,0-1.6,0.3-2.3,0.8L571,206.8c0.6-1,0.9-2.1,0.9-3.4c0-3.2-2.2-5.8-4.8-5.8
		c-2.7,0-4.8,2.6-4.8,5.8c0,1,0.2,2,0.6,2.8l-33.3,52c-0.5-0.2-1.1-0.4-1.7-0.4c-2.7,0-4.8,2.6-4.8,5.8c0,3.2,2.2,5.8,4.8,5.8
		c2.7,0,4.8-2.6,4.8-5.8c0-1.1-0.3-2.2-0.8-3.1l33.2-51.8c0.6,0.3,1.2,0.5,1.9,0.5c0.5,0,1-0.1,1.4-0.3l30.1,47.2
		c-0.3,0.7-0.4,1.5-0.4,2.3c0,3.2,2.2,5.8,4.8,5.8c2.7,0,4.8-2.6,4.8-5.8c0-0.6-0.1-1.2-0.2-1.7l54.6-71c0.7,0.4,1.4,0.7,2.2,0.7
		c0.8,0,1.6-0.3,2.3-0.7l42.1,49.8c-0.4,0.8-0.6,1.8-0.6,2.8c0,3.2,2.2,5.8,4.8,5.8c2.7,0,4.8-2.6,4.8-5.8c0-1.1-0.3-2.1-0.7-3
		l39.2-53.3c0.6,0.3,1.2,0.5,1.9,0.5c2.7,0,4.8-2.6,4.8-5.8C763.1,173.5,761,170.9,758.3,170.9z"/>
</g>
<g>
	<g>
		<path class="st5" d="M525.7,331.8l-160.9-0.1c-1,0-1.7-0.8-1.7-1.7l0-5.2c0-1,0.8-1.7,1.7-1.7l160.9,0.1c1,0,1.7,0.8,1.7,1.7
			l0,5.2C527.5,331,526.7,331.8,525.7,331.8z"/>
		<path class="st5" d="M525.7,350.2l-160.9-0.1c-1,0-1.7-0.8-1.7-1.7l0-5.2c0-1,0.8-1.7,1.7-1.7l160.9,0.1c1,0,1.7,0.8,1.7,1.7
			l0,5.2C527.5,349.5,526.7,350.2,525.7,350.2z"/>
		<path class="st5" d="M525.7,368.7l-160.9-0.1c-1,0-1.7-0.8-1.7-1.7l0-5.2c0-1,0.8-1.7,1.7-1.7l160.9,0.1c1,0,1.7,0.8,1.7,1.7
			l0,5.2C527.4,367.9,526.7,368.7,525.7,368.7z"/>
		<path class="st5" d="M525.7,387.2l-160.9-0.1c-1,0-1.7-0.8-1.7-1.7l0-5.2c0-1,0.8-1.7,1.7-1.7l160.9,0.1c1,0,1.7,0.8,1.7,1.7
			l0,5.2C527.4,386.4,526.7,387.2,525.7,387.2z"/>
		<path class="st5" d="M525.7,405.6l-160.9-0.1c-1,0-1.7-0.8-1.7-1.7l0-5.2c0-1,0.8-1.7,1.7-1.7l160.9,0.1c1,0,1.7,0.8,1.7,1.7
			l0,5.2C527.4,404.8,526.6,405.6,525.7,405.6z"/>
	</g>
	<g>
		<path class="st5" d="M525.5,423.4l-160.9-0.1c-1,0-1.7-0.8-1.7-1.7l0-5.2c0-1,0.8-1.7,1.7-1.7l160.9,0.1c1,0,1.7,0.8,1.7,1.7
			l0,5.2C527.3,422.6,526.5,423.4,525.5,423.4z"/>
		<path class="st5" d="M525.7,442l-160.9-0.1c-1,0-1.7-0.8-1.7-1.7l0-5.2c0-1,0.8-1.7,1.7-1.7l160.9,0.1c1,0,1.7,0.8,1.7,1.7l0,5.2
			C527.5,441.2,526.7,442,525.7,442z"/>
		<path class="st5" d="M525.7,460.4l-160.9-0.1c-1,0-1.7-0.8-1.7-1.7l0-5.2c0-1,0.8-1.7,1.7-1.7l160.9,0.1c1,0,1.7,0.8,1.7,1.7
			l0,5.2C527.4,459.6,526.7,460.4,525.7,460.4z"/>
	</g>
</g>
<path class="st6" d="M759.4,468.9H580.9c-3,0-5.4-2.4-5.4-5.4V317c0-3,2.4-5.4,5.4-5.4h178.5c3,0,5.4,2.4,5.4,5.4v146.5
	C764.8,466.5,762.4,468.9,759.4,468.9z"/>
<g>
	<linearGradient id="SVGID_1_" gradientUnits="userSpaceOnUse" x1="938.6993" y1="264.7048" x2="936.8738" y2="637.0596">
		<stop  offset="8.031201e-02" style="stop-color:#FF9E5D"/>
		<stop  offset="0.4389" style="stop-color:#FFAF5F"/>
		<stop  offset="1" style="stop-color:#FFD162"/>
	</linearGradient>
	<path class="st7" d="M1022.7,609.2H852.9c-5.5,0-9.9-4.5-9.9-9.9V290.8c0-5.5,4.5-9.9,9.9-9.9h169.9c5.5,0,9.9,4.5,9.9,9.9v308.5
		C1032.7,604.8,1028.2,609.2,1022.7,609.2z"/>
	<g>
		<g>
			<linearGradient id="SVGID_2_" gradientUnits="userSpaceOnUse" x1="902.6631" y1="510.4217" x2="895.6693" y2="598.6039">
				<stop  offset="8.031201e-02" style="stop-color:#FF9E5D"/>
				<stop  offset="0.4389" style="stop-color:#FFAF5F"/>
				<stop  offset="1" style="stop-color:#FFD162"/>
			</linearGradient>
			<rect x="860.3" y="521.7" class="st8" width="77.5" height="68.7"/>
			<linearGradient id="SVGID_3_" gradientUnits="userSpaceOnUse" x1="979.4156" y1="516.509" x2="972.4219" y2="604.6909">
				<stop  offset="8.031201e-02" style="stop-color:#FF9E5D"/>
				<stop  offset="0.4389" style="stop-color:#FFAF5F"/>
				<stop  offset="1" style="stop-color:#FFD162"/>
			</linearGradient>
			<rect x="937.8" y="521.7" class="st9" width="76.9" height="68.7"/>
		</g>
	</g>
	<rect x="860.3" y="298.4" class="st10" width="154.5" height="59.4"/>
	<rect x="860.3" y="372.8" class="st10" width="154.5" height="59.4"/>
	<rect x="860.3" y="447.2" class="st10" width="154.5" height="59.4"/>
	<circle class="st10" cx="921" cy="542.1" r="5.5"/>
	
		<ellipse transform="matrix(0.9239 -0.3827 0.3827 0.9239 -134.7237 406.9669)" class="st10" cx="955.6" cy="542.1" rx="5.5" ry="5.5"/>
	<rect x="864.2" y="311.6" class="st11" width="12.9" height="45.3"/>
	<rect x="877.2" y="311.6" class="st11" width="12.9" height="45.3"/>
	<rect x="890.1" y="311.6" class="st11" width="12.9" height="45.3"/>
	<rect x="903" y="311.6" class="st11" width="12.9" height="45.3"/>
	<rect x="915.9" y="311.6" class="st11" width="12.9" height="45.3"/>
	<rect x="940.6" y="386.6" class="st11" width="12.9" height="45.3"/>
	<rect x="953.5" y="386.6" class="st11" width="12.9" height="45.3"/>
	
		<rect x="892.1" y="389.9" transform="matrix(-1.836970e-16 1 -1 -1.836970e-16 1311.1617 -486.0171)" class="st11" width="12.9" height="45.3"/>
	
		<rect x="896.5" y="377" transform="matrix(-1.836970e-16 1 -1 -1.836970e-16 1302.6477 -503.3495)" class="st11" width="12.9" height="45.3"/>
	
		<rect x="897.2" y="402.8" transform="matrix(-1.836970e-16 1 -1 -1.836970e-16 1329.1783 -478.1872)" class="st11" width="12.9" height="45.3"/>
	<rect x="966.4" y="386.6" class="st11" width="12.9" height="45.3"/>
	<rect x="979.4" y="386.6" class="st11" width="12.9" height="45.3"/>
	<rect x="992.3" y="386.6" class="st11" width="12.9" height="45.3"/>
	<rect x="873.4" y="461.3" class="st11" width="12.9" height="45.3"/>
	<rect x="886.4" y="461.3" class="st11" width="12.9" height="45.3"/>
	<rect x="899.3" y="461.3" class="st11" width="12.9" height="45.3"/>
	<rect x="912.2" y="461.3" class="st11" width="12.9" height="45.3"/>
	<rect x="925.1" y="461.3" class="st11" width="12.9" height="45.3"/>
	
		<rect x="936.6" y="311.6" transform="matrix(0.938 -0.3466 0.3466 0.938 -57.4013 347.6218)" class="st11" width="12.9" height="45.3"/>
	
		<rect x="950.5" y="311.6" transform="matrix(0.938 -0.3466 0.3466 0.938 -56.5386 352.4453)" class="st11" width="12.9" height="45.3"/>
	
		<rect x="971.2" y="312.3" transform="matrix(0.798 -0.6027 0.6027 0.798 -4.3704 656.873)" class="st11" width="12.9" height="45.3"/>
	<circle class="st12" cx="977.8" cy="474.5" r="19.4"/>
	<path class="st13" d="M977.8,497.8c-12.9,0-23.3-10.4-23.3-23.3c0-12.9,10.4-23.3,23.3-23.3"/>
	<rect x="963.1" y="502.8" class="st12" width="28" height="3.9"/>
	<rect x="976" y="492.5" class="st12" width="1.8" height="11.1"/>
</g>
<rect x="56.6" y="637.3" class="st14" width="881.2" height="4.8"/>
<path class="st15" d="M418.1,661c0,0-3.2,29,2.8,32.4c6,3.4,15.2-5.6,20.6-3.2c5.4,2.4,7.6,20,5.4,22.4
	c-2.2,2.4-32.2,16.8-46.6,13.2c-14.4-3.6-6.2-13.2-7.8-28.9c-1.6-15.7-4-37.1-4-37.1L418.1,661z"/>
<path class="st16" d="M388.4,703.3c0,0,20,6.2,34.7-13.6V658h-37.3L388.4,703.3z"/>
<g>
	<g>
		<g>
			<g>
				<path class="st14" d="M19.8,378.4c0,14.2,8.3,25.8,18.6,25.8h221.4c10.3,0,18.6-11.5,18.6-25.8V204.3c0-14.2-8.3-25.8-18.6-25.8
					H38.4c-10.3,0-18.6,11.5-18.6,25.8V378.4z"/>
			</g>
			<g>
				<g>
					<rect x="188.5" y="211.1" class="st17" width="58.1" height="48.4"/>
				</g>
				<g>
					<rect x="145.2" y="245.8" class="st17" width="58.1" height="48.4"/>
				</g>
				<g>
					<rect x="35.5" y="211.1" class="st17" width="100.7" height="83.9"/>
				</g>
				<g>
					<rect x="97" y="316.1" class="st17" width="144.2" height="6.3"/>
				</g>
				<g>
					<rect x="97" y="341.9" class="st17" width="144.2" height="6.3"/>
				</g>
				<g>
					<rect x="97" y="367.6" class="st17" width="144.2" height="6.3"/>
				</g>
			</g>
		</g>
	</g>
	<g>
		<linearGradient id="SVGID_4_" gradientUnits="userSpaceOnUse" x1="144.055" y1="164.384" x2="144.055" y2="405.7838">
			<stop  offset="8.031201e-02" style="stop-color:#FF9E5D"/>
			<stop  offset="0.5239" style="stop-color:#FFB960"/>
			<stop  offset="1" style="stop-color:#FFD162"/>
		</linearGradient>
		<path class="st18" d="M14.8,375c0,14.2,8.3,25.8,18.6,25.8h221.4c10.3,0,18.6-11.5,18.6-25.8V200.9c0-14.2-8.3-25.8-18.6-25.8
			H33.4c-10.3,0-18.6,11.5-18.6,25.8V375z"/>
		<g>
			<rect x="183.4" y="207.7" class="st10" width="58.1" height="48.4"/>
			<rect x="140.2" y="242.4" class="st10" width="58.1" height="48.4"/>
			<rect x="30.4" y="207.7" class="st10" width="100.7" height="83.9"/>
			<rect x="92" y="312.7" class="st10" width="144.2" height="6.3"/>
			<rect x="92" y="338.4" class="st10" width="144.2" height="6.3"/>
			<rect x="92" y="364.2" class="st10" width="144.2" height="6.3"/>
		</g>
	</g>
</g>
<g>
	<defs>
		<path id="XMLID_99_" d="M159.9,372.3c0,0,17.2-11.1,18.3-25.1c1.1-14-9.8-22-16.6-21.9c0,0-7.5-23.2-31-17.7s-31.4,32-32.4,41.6
			c-1,9.6-14.3,35.8-5.8,43c8.5,7.2,26,16,26,16s33.3,6.8,40.1,1.8c0,0-9.2-9.9-6.5-22.9C154.7,374.1,159.9,372.3,159.9,372.3z"/>
	</defs>
	<use xlink:href="#XMLID_99_"  style="overflow:visible;fill:#FFFFFF;"/>
	<clipPath id="XMLID_11_">
		<use xlink:href="#XMLID_99_"  style="overflow:visible;"/>
	</clipPath>
	<path class="st19" d="M169.9,370.3c0,0-1.1-30.2-9.3-33c0,0-15,16.2-36.6,15.5c-4.6-0.7-10.8,3.7-4.6,21.7
		c6.1,18-15.9,30.1-15.9,30.1l34.2,17.7l25.7-9.2L169.9,370.3z"/>
</g>
<path class="st20" d="M198.6,575.6l3.2,5.1c0,0,12.4-10.5,21-18.2c8.6-7.7,12.9-15.1,12.9-15.1h-11.3L204.2,564L198.6,575.6z"/>
<g>
	<path class="st21" d="M285.2,673.4c-1.1-0.2-2.2-0.5-3-1.2c-7.2-5.6-33.6-119.1-44.4-124c-10.8-4.9-23.1,3.3-23.1,3.3l-1.8,32.9
		l3.2-7.5c13.1,25.6,48,100.2,48,100.2l1,3.5C269.5,680.3,279.8,679.1,285.2,673.4z"/>
	<path class="st22" d="M314.3,670.7c-6.9-0.2-20.8,4-29.2,2.8c-5.3,5.7-15.7,6.9-20,7.1l6.8,22.3c1.3,3.4,5.3,4.9,8.5,3.1
		c11.6-6.4,26.1-11.7,33.5-15.8C323.7,684.8,323.3,670.9,314.3,670.7z"/>
</g>
<g>
	<path class="st22" d="M207.1,693.2c-8.2,2.6-16.3,1-21.8-1l-5.8,17.6c-0.9,3.5,1.6,7,5.2,7.4c13.1,1.4,27,5.1,35.4,6
		c11.1,1.2,18.2-5.6,14.3-12.4C231,704.9,213.1,699.2,207.1,693.2z"/>
	<path id="XMLID_108_" class="st23" d="M207.1,693.2c-0.8-0.8-1.3-1.6-1.6-2.6c-2.7-8.7,40.7-116.9,34.7-127.1
		c-6-10.2-20.8-10.5-20.8-10.5L199,578.9l6.9-4.3c-3.9,28.5-18,109.7-18,109.7l-2.6,8C190.8,694.2,198.9,695.8,207.1,693.2z"/>
</g>
<g>
	<g>
		<ellipse class="st16" cx="137.6" cy="696.2" rx="36.6" ry="9.6"/>
		<path class="st24" d="M143,644.9v-16.3h-10.8v6.3C134.7,635.7,138.9,638.1,143,644.9z"/>
		<path class="st15" d="M197.6,588.6c0-7.2-26.3-13.1-58.8-13.1c-32.5,0-58.8,5.8-58.8,13.1v28.9c0,7.2,26.3,13.1,58.8,13.1
			c32.5,0,58.8-5.8,58.8-13.1c0-0.2,0-0.5-0.1-0.7L197.6,588.6z"/>
		<ellipse class="st25" cx="138.8" cy="588.6" rx="58.8" ry="13.1"/>
	</g>
	<g>
		<path class="st1" d="M132.2,634.9v58.5H143v-48.5C138.9,638.1,134.7,635.7,132.2,634.9z"/>
	</g>
</g>
<g>
	<g>
		<ellipse class="st16" cx="409.9" cy="742.2" rx="36.6" ry="9.6"/>
		<path class="st24" d="M415.3,690.9v-16.3h-10.8v6.3C407,681.7,411.2,684.1,415.3,690.9z"/>
		<path class="st15" d="M469.9,634.6c0-7.2-26.3-13.1-58.8-13.1c-32.5,0-58.8,5.8-58.8,13.1v28.9c0,7.2,26.3,13.1,58.8,13.1
			c32.5,0,58.8-5.8,58.8-13.1c0-0.2,0-0.5-0.1-0.7L469.9,634.6z"/>
		<ellipse class="st25" cx="411.1" cy="634.6" rx="58.8" ry="13.1"/>
	</g>
	<g>
		<path class="st1" d="M404.5,680.8v58.5h10.8v-48.5C411.2,684.1,407,681.7,404.5,680.8z"/>
	</g>
</g>
<g>
	<defs>
		<path id="SVGID_5_" d="M97.2,509.4l-10.5,8.4c0,0-8.4,19.4-2.4,42c6,22.7,20.4,34.1,44.9,31.4s72.6-10.5,72.6-10.5
			s12.8-31.2,33.9-33.3c0,0-52-17.1-82.2-16.5c-9-0.3-15.3-6.5-16.4-13.1C136,511.2,97.2,509.4,97.2,509.4z"/>
	</defs>
	<use xlink:href="#SVGID_5_"  style="overflow:visible;fill:#0E2354;"/>
	<clipPath id="SVGID_6_">
		<use xlink:href="#SVGID_5_"  style="overflow:visible;"/>
	</clipPath>
	<path class="st26" d="M118.4,507.1l-2.4,17.4c0,0,1.6,13.6,32,18c30.4,4.4,40.6,9.2,46,25.2c5.4,16,7.4,20.9,7.4,20.9l20.2-10.7
		l19.1-38.8l-45.9-24L118.4,507.1z"/>
	<path class="st27" d="M93.6,515.1c0,0-8.2,21.4-2.6,42.2c5.6,20.8,17.2,31.2,30.8,35.2l-47-2.4c0,0-2.4-47.2-2.6-50.6
		c-0.2-3.4,3.8-24.4,3.8-24.4c13.5,0.5,17.6-0.8,17.6-0.8"/>
</g>
<path class="st21" d="M187.6,484.5l5.9-9.2c1.1-1.7,0.6-3.9-1.1-5l-62.1-39.9c-1.7-1.1-3.9-0.6-5,1.1l-5.9,9.2
	c-1.1,1.7-0.6,3.9,1.1,5l62.1,39.9C184.3,486.7,186.5,486.2,187.6,484.5z"/>
<path class="st21" d="M183.7,478.8l6,2.2c0,0,27-38,37.5-53.1c0,0,16.9-3.4,22.6-9.4c5.7-6,7-12.4-7.4-11.2
	c-14.5,1.2-25.3,8.7-26,12.6c-0.7,3.9-36,42.9-36,42.9L183.7,478.8z"/>
<g>
	<defs>
		<path id="XMLID_101_" d="M124.6,396.3l-4.2,1.1c0,0-6.5-1.4-16.3,14.4c-9.8,15.8-23.1,54.1-17.4,106c0,0,23.6,13.2,50.4,0
			c0,0,1.1-21.7,10.3-39.2s5.6-38.4,4.1-42C150,433,136,399.9,136,399.9L124.6,396.3z"/>
	</defs>
	<use xlink:href="#XMLID_101_"  style="overflow:visible;fill:#054AA9;"/>
	<clipPath id="XMLID_12_">
		<use xlink:href="#XMLID_101_"  style="overflow:visible;"/>
	</clipPath>
	<path class="st28" d="M156.4,486.1l-41.6-48.6c0,0-17.4,72.8,4.5,90.6l24.5-7.5L156.4,486.1z"/>
	<path class="st29" d="M89.5,524.5l2.4-4.4c0,0-6-28.2,1.8-57.4s14.7-43.6,30-64.2l-9.6-5.4l-18.4,15.4l-17,54.2
		c0,0-0.8,35.6-0.8,36.9s6,23.1,6,23.1L89.5,524.5z"/>
</g>
<g>
	<path class="st15" d="M400,490.1c-118.7,0-215.2,14.7-217.4,33h0v11c0,18.6,97.3,33.6,217.4,33.6s217.4-15,217.4-33.6v-10.4
		C617.4,505.1,520,490.1,400,490.1z"/>
	<ellipse class="st30" cx="400" cy="523.7" rx="217.4" ry="33.6"/>
</g>
<g>
	<path class="st21" d="M383.1,432c0,0,4.1,16,1.1,22.7h20.3c0,0-3.1-19.9-1.7-25.1l-7.2-6.5L383.1,432z"/>
	<g>
		<defs>
			<path id="SVGID_7_" d="M412,391.2l1.3-2.7c0,0,11.9-6.4,10.4-23.4c0,0-17.2,3.8-27.7,0.9s-25.1,1.2-27.4,10.2
				c0,0-10.8,2.1-12.4,13.2s4.9,29.3,12.9,37.7s17.2,8.2,22.4,6.9c5.3-1.3,5.5-4.1,5.5-4.1l6.4-5.8L412,391.2z"/>
		</defs>
		<use xlink:href="#SVGID_7_"  style="overflow:visible;fill:#0E2354;"/>
		<clipPath id="SVGID_8_">
			<use xlink:href="#SVGID_7_"  style="overflow:visible;"/>
		</clipPath>
		<path class="st31" d="M365.4,425.4c0,0,21.4,5.2,22.1-7.8s-1.9-25,5.3-29.1c7.2-4.2,21.9-3.1,32.5-14.6l-17.1,38.7l-14.4,23.8
			l-24.7,1.3L365.4,425.4z"/>
	</g>
	<g>
		<defs>
			<path id="SVGID_9_" d="M413.3,388.5c0,0,5,16.8,3.5,29c-1.5,12.2-5.6,23.1-15.7,15.8c-3.6-3.1-4-3.5-4-3.5s3-5,2.5-11.3
				c0,0-5.6-2-4.4-7.1c1.2-5.1,4.8-6.5,7-4.7c0,0-0.8-8.9,0.9-11.5C404.8,392.6,413.3,388.5,413.3,388.5z"/>
		</defs>
		<use xlink:href="#SVGID_9_"  style="overflow:visible;fill:#FEA587;"/>
		<clipPath id="SVGID_10_">
			<use xlink:href="#SVGID_9_"  style="overflow:visible;"/>
		</clipPath>
		<path class="st32" d="M398.9,422.7l0.6-0.2c0,0,2.6-1.4,1.7-6c-0.9-4.5,3.9-4.9,4.4-8.5c0.5-3.6-1.9-9,1.2-11.7
			c3-2.6,7.5-4.5,8.2-6l-0.9-4.5l-17.5,7.9l-6.7,15.1l3.4,11.6L398.9,422.7z"/>
	</g>
</g>
<rect x="379.6" y="446.3" class="st30" width="30.4" height="9.2"/>
<path class="st15" d="M479.8,710.1c0,0-4,23.6,0,27c4,3.4,7.2,2.9,24.8,2.9c19,0,33.3-2.7,34.3-12.5c1-9.8,1.5-18-14.5-16.4
	c-16.4,1.7-15.7,1.6-19.4-4.4L479.8,710.1z"/>
<g>
	<defs>
		<path id="SVGID_11_" d="M446,580.2l1.8-3.4c0,0,22.7-2.3,35.3-3.2c12.6-0.9,27.3,0.8,28.5,20.7c1.2,20-3,113.1-3,113.1
			s-19,9.6-34.3,2.6c0,0,0.1-52.5,0-65.1c-0.1-12.6,0.1-22.9-23.3-9.2c-23.4,13.8-65.4,7.1-78.8-5.4L446,580.2z"/>
	</defs>
	<use xlink:href="#SVGID_11_"  style="overflow:visible;fill:#153077;"/>
	<clipPath id="SVGID_12_">
		<use xlink:href="#SVGID_11_"  style="overflow:visible;"/>
	</clipPath>
	<path class="st33" d="M455,600.5l3.8,0.3c0,0,7.9-4.6,28.3-2.5c20.4,2.1,26,84.4,26,84.4l15.2-96.6c0,0-48.8-24-49.4-24
		c-0.6,0-42.1,7.3-42.1,7.3l22,31.4"/>
</g>
<polygon class="st15" points="314,521.4 251.2,497.4 267.9,445.2 336.7,460 "/>
<polygon class="st34" points="316.7,520.8 314.1,521.4 336.7,460 338.8,462.5 "/>
<polygon class="st1" points="251.2,497.4 204.2,515.4 204.2,519.5 265.7,548 314.2,525 314.2,520.9 "/>
<polygon class="st34" points="265.7,543.8 204.2,515.4 251.2,497.4 314.2,520.9 "/>
<polygon class="st35" points="251.2,499.6 307.4,521 278.9,533.9 225.5,509.8 "/>
<g>
	<path class="st4" d="M484.4,195.2c-10.2-23.8-33.8-40.6-61.3-40.6v66.6L484.4,195.2z"/>
	<path class="st3" d="M423.1,221.3v-66.6c-36.8,0-66.6,29.8-66.6,66.6s29.8,66.6,66.6,66.6s66.6-29.8,66.6-66.6
		c0-9.3-1.9-18.1-5.3-26.1L423.1,221.3z"/>
</g>
<path class="st23" d="M175,499.1l-10.6,6.9c-2,1.3-4.6,0.7-5.9-1.2l-47.2-72.6c-1.3-2-0.7-4.6,1.2-5.9l10.6-6.9
	c2-1.3,4.6-0.7,5.9,1.2l47.2,72.6C177.6,495.2,177,497.8,175,499.1z"/>
<polygon class="st35" points="241.5,518.6 256.3,525.5 244.9,530.4 229.7,523.4 "/>
<path class="st23" d="M171.5,487.8c0,0,51.6,18.7,56.5,17.6c4.9-1.1,20.5-4.1,28.4,5.8s4.6,15.6-8.9,10.8
	c-13.6-4.7-13.6,0.2-22.8-6.4c0,0-34.7-0.9-65-12.2L171.5,487.8z"/>
<g>
	<path class="st21" d="M486.3,511.3L479,520l10.3,16.6c1.5-2,5.7-7.6,10.3-13.9C494.9,515.4,489.9,512.5,486.3,511.3z"/>
	<path class="st23" d="M537.1,475.3c-8.6,5.6-24.4,7.9-29.8,11c-5.4,3.2-4.6,5.6-4.6,5.6l-16.3,19.4c3.6,1.1,8.5,4.1,13.3,11.4
		c7.5-10.2,16.2-21.9,16.2-21.9c11.6-4.9,20.4-4.3,28.2-14.2C552,476.7,545.7,469.7,537.1,475.3z"/>
</g>
<g>
	<defs>
		<path id="XMLID_97_" d="M381,455.5h-3.4c0,0-20.1,1.6-23,18.3c-2.9,16.8-2.3,62.7-2.1,70.5c0.2,7.8,0.4,50.3,8.6,69.2
			c8.2,18.9,18.2,25.1,41.3,25.9s46.1-0.1,54.1-29.5c8-29.4-8.7-33.1-8.7-33.1s-6.6-27.9-5.8-39.9c0,0,8.3,24.8,19.7,28.8
			c11.5,4,29.7-24.2,29.7-24.2s5.5-21.9-15.5-25.5c0,0-3.6,8-5.9,10.3c-2.3,2.3-7.5-9.7-14.7-32.5c-7.2-22.8-13-30.1-22.3-33.5
			c-9.3-3.4-22.9-4.8-22.9-4.8H381z"/>
	</defs>
	<use xlink:href="#XMLID_97_"  style="overflow:visible;fill:#FFFFFF;"/>
	<clipPath id="XMLID_13_">
		<use xlink:href="#XMLID_97_"  style="overflow:visible;"/>
	</clipPath>
	<path class="st36" d="M443.3,544.8l-1.3-7.8c0,0-11.5-16.2-7.8-58.6c0,0-13.6,59.5,1.9,94.2c15.5,34.7,27.9,34.1,27.9,34.1l-0.4-31
		L443.3,544.8z"/>
</g>
<g>
	<defs>
		<polygon id="XMLID_15_" points="270,449.8 330.4,463.2 311.8,515.1 256,495.2 		"/>
	</defs>
	<use xlink:href="#XMLID_15_"  style="overflow:visible;fill:#D6E1FE;"/>
	<clipPath id="XMLID_14_">
		<use xlink:href="#XMLID_15_"  style="overflow:visible;"/>
	</clipPath>
	<polygon class="st37" points="258.2,499.6 302.3,455.1 309.5,456.6 259.8,501.6 	"/>
	<polygon class="st37" points="265.2,499.6 315.6,458 330.4,462.1 283.8,508.1 	"/>
</g>
<g>
	<path class="st21" d="M136,393c0.2-4.2,0.9-9.4,2.7-12.5l-11-14.2l-2,4.1c0,0-0.9,6.2-2,12.7C127,384.1,131.9,386.6,136,393z"/>
	<path class="st23" d="M123.8,383.2c-1.1,6.4-2.4,13-3.4,14.2c0,0,6.2,6.5,15.7,2.5c0,0-0.2-3,0-6.8
		C131.9,386.6,127,384.1,123.8,383.2z"/>
</g>
<g>
	<defs>
		<path id="SVGID_13_" d="M161.1,342.9c0,0,6.8,39.1-7.7,45.8c-14.5,6.7-25.1-14.1-25.1-15.9c0,0-7.5-0.7-6.3-8.7c1.2-8,7.4-5,7.4-5
			S152.3,356.5,161.1,342.9z"/>
	</defs>
	<use xlink:href="#SVGID_13_"  style="overflow:visible;fill:#FEA587;"/>
	<clipPath id="SVGID_14_">
		<use xlink:href="#SVGID_13_"  style="overflow:visible;"/>
	</clipPath>
	<path class="st38" d="M121.8,372c0,0,2.6-7.6,8.7-6.5c6.1,1.1,25.3-4.1,33.9-16.7l-0.4-9.1l-25,9.8l-19.5,8.2l-0.8,11.9L121.8,372z
		"/>
</g>
<g>
	
		<ellipse transform="matrix(4.321730e-02 -0.9991 0.9991 4.321730e-02 70.9604 1499.6246)" class="st0" cx="818.4" cy="712.8" rx="30.8" ry="110.6"/>
	<g>
		<defs>
			<path id="XMLID_125_" d="M757.8,226.7c0,0-6.8-6.1-3.2-19.2c3.6-13.1,23.2-18.8,31.8-13.3c0,0,12.8-2.7,22.8,10.4
				c10,13.1,3.2,32-1.6,37.8s-19.3,17.4-19.3,17.4l-9-3.4L757.8,226.7z"/>
		</defs>
		<use xlink:href="#XMLID_125_"  style="overflow:visible;fill:#054AA9;"/>
		<clipPath id="XMLID_16_">
			<use xlink:href="#XMLID_125_"  style="overflow:visible;"/>
		</clipPath>
		<path class="st39" d="M760.6,219.5l-1.1-1.4c0,0-1.6-5,5.5-4.9c7.2,0.2,13.3,1.3,19.3,5.8c6,4.5,6.2,10,13.8,10.3
			c7.5,0.2-1.8,18.3,5.8,21c0.1,0,0.2,0.1,0.3,0.1c8.2,2.3-11.3,15-11.3,15l-25.2-5L760.6,219.5z"/>
	</g>
	<g>
		<path class="st21" d="M788.3,259.7l-7.8-6.7l-10.5,6.8c0,0,0.5,2.2,0.8,5.2c2.9-0.9,8.5-0.9,15.9,6.2
			C786.6,266.6,786.9,263.5,788.3,259.7z"/>
		<path class="st23" d="M770.8,265c0.1,1.5,0.3,3.3,0.2,5.1c0,3.6-0.6,7.5-2.2,10.5c-1.4,2.7-2.5,4.9-3.2,6.6
			c-1.4,3.2-1.8,4.9-1.8,4.9l4.1,9.8l19.4-20c0,0-0.7-4.8-0.7-10.6C779.2,264.1,773.7,264.1,770.8,265z"/>
	</g>
	<g>
		<path class="st1" d="M785.5,231.9c-1.8,5.8-5,10.4-11,12.3c-5.1,1.6-14.8-1.2-19.7-2.9c-0.9,13.1,0.9,21.7,4.9,21.9
			c4.1,0.2,19.3-0.5,23.4-8.6c2.9-5.7,3.6-7.8,3.8-8.5l2-12.3C788,233.3,786.6,232.8,785.5,231.9z"/>
		<g>
			<defs>
				<path id="SVGID_15_" d="M774.5,244.2c6-1.9,9.2-6.5,11-12.3c-1.3-1-2.2-2.4-2.2-4.4c0,0-4-2-4.6-5.5c0,0-4,0.9-8.4-3.1
					c0,0-3.4,1.8-7.3-0.7c0,0-0.2,1.3-3.6,0c-0.4,1.1-3.6,9.4-4.6,22.2c0,0.3,0,0.7-0.1,1C759.7,242.9,769.4,245.8,774.5,244.2z"/>
			</defs>
			<use xlink:href="#SVGID_15_"  style="overflow:visible;fill:#FEA587;"/>
			<clipPath id="SVGID_16_">
				<use xlink:href="#SVGID_15_"  style="overflow:visible;"/>
			</clipPath>
			<path class="st40" d="M757.1,223.2c0,0,16.3-3.2,26.5,13.5c10.2,16.7,0,0,0,0l6.2-10.6L757,208.5L757.1,223.2z"/>
		</g>
		<path class="st21" d="M790.8,234.2c0,0-0.8-0.1-1.8-0.5l-2,12.3c0.1-0.3,3.5,3.5,6.6-0.3C796.6,242,796.3,233.9,790.8,234.2z"/>
	</g>
	<g>
		<path class="st41" d="M872.4,691.8c0,0,3.7,5.6,7.8,8c17.1-12.1,31.7-28.2,37.1-34.4c-0.7-1.4-1.8-2.8-3.3-4.3
			c-2.7-2.8-10.3-11-15.5-16.6c-0.8,3.5-3.8,9.8-13.8,15.5c5.3,7.3-3.9,18-9.1,23.3C870.2,688.9,872.4,691.8,872.4,691.8z"/>
		<path class="st21" d="M877.6,651.8c0,0,0.4,0.4,6.6,7.7c0.2,0.2,0.3,0.4,0.4,0.6c10-5.7,12.9-11.9,13.8-15.5
			c-3-3.2-5.2-5.6-5.2-5.6L877.6,651.8z"/>
		<path class="st1" d="M880.2,699.8c1,0.6,2,1,3,1c5.1,0.3,29.3-23.6,32.9-27.6c2.3-2.6,2.5-5.2,1.2-7.9
			C911.9,671.7,897.3,687.8,880.2,699.8z"/>
	</g>
	<g>
		<path class="st41" d="M723.4,702.9c0,0-0.5,6.7,1.2,11.1c20.9,1,42.3-2.7,50.4-4.4c0.3-1.5,0.3-3.3,0.1-5.4
			c-0.4-3.9-1.4-15-2.1-22.6c-2.8,2.3-9,5.4-20.4,3.7c-0.3,9-14.1,11.8-21.5,12.8C723.5,699.2,723.4,702.9,723.4,702.9z"/>
		<path class="st21" d="M752.1,674.5c0,0,0.1,0.5,0.5,10.1c0,0.2,0,0.5,0,0.7c11.4,1.7,17.5-1.5,20.4-3.7c-0.4-4.4-0.7-7.7-0.7-7.7
			L752.1,674.5z"/>
		<path class="st1" d="M724.6,714c0.4,1.1,1,2,1.8,2.7c3.8,3.4,37.6-0.6,42.9-1.5c3.5-0.6,5.2-2.5,5.8-5.5
			C766.9,711.3,745.5,715,724.6,714z"/>
	</g>
	<g>
		<defs>
			<path id="SVGID_17_" d="M738,421.4l-1.4,2.4c0,0-4.9,76-7.3,96.3c-2.5,20.3-1.6,61.5,3,88.1c4.6,26.6,14.4,64.6,14.4,64.6
				s19.9,6.9,33.9-4.2c0,0-7.6-57.7-7.7-71.2c-0.1-13.5,0.2-52,9.5-80.1l-2.7-62.3l-4-33.2L738,421.4z"/>
		</defs>
		<use xlink:href="#SVGID_17_"  style="overflow:visible;fill:#153077;"/>
		<clipPath id="SVGID_18_">
			<use xlink:href="#SVGID_17_"  style="overflow:visible;"/>
		</clipPath>
		<path class="st42" d="M743.8,427.6c0,0-8.2,21.5,6,138.2c4.7,38.4,17.3,118,26.8,109.9c19.3-16.5,36.9-178.1,36.9-178.1
			l-36.4-103.7l-47.8,1.2L743.8,427.6z"/>
	</g>
	<g>
		<defs>
			<path id="SVGID_19_" d="M756.3,429.1l-2.6,4.6c0,0,9.1,63.3,17.2,85.9c8.1,22.6,40.5,70.8,54.9,88.9c14.4,18,42.6,45.4,42.6,45.4
				s27.1-1.5,30.2-20.6c0,0-48.5-68.7-63.5-98.5c-8.7-17.3-8-61.6-11.1-87.4c-2-15.9-6.1-21.9-6.1-21.9L756.3,429.1z"/>
		</defs>
		<use xlink:href="#SVGID_19_"  style="overflow:visible;fill:#153077;"/>
		<clipPath id="SVGID_20_">
			<use xlink:href="#SVGID_19_"  style="overflow:visible;"/>
		</clipPath>
		<path class="st43" d="M811.5,420.7l-27.4,7.7c0,0,13,89.5,31.1,122.1c18.1,32.6,74.9,106,74.9,106L918,629
			c0,0-62.3-104.5-63.6-106.4c-1.3-1.9-25.7-103.4-25.7-103.4L811.5,420.7"/>
	</g>
	<g>
		<path class="st44" d="M740,413.5l-2.5,0.9c0,0-1.6-1.1-1.2,6.2c0.4,7.3,0.6,8.3,3.7,9.5c1.5,0.6,6.7,2,13.8,3.1l0.8-19.2
			L740,413.5z"/>
		<path class="st45" d="M754.6,414.1l-0.8,19.2c5.5,0.9,12.2,1.5,19.2,1.5l0.9-19.8L754.6,414.1z"/>
		<path class="st44" d="M814.9,414.3c-1.7,0.2-6.3,2.2-6.3,2.2l-34.8-1.6l-0.9,19.8c2.9,0,5.9-0.2,8.9-0.5c19.5-2,35.8-5.1,35.9-7.4
			C817.9,424.5,816.6,414.1,814.9,414.3z"/>
	</g>
	<g>
		<defs>
			<path id="XMLID_127_" d="M678.4,318.7c0,0,3.7,3.1,10.5,0.9c6.8-2.2,39.6-20.9,47.6-27.3c8.1-6.4,13.5-10.6,21.4-10.7
				c7.9,0,10.3,0,10.3,0l-2.9,5.9c0,0,2.8,6.8,2.5,14.3c0,0,7-16.5,9-28.3l9.7-3.2l0.7,11.3c0,0,8.2,0.5,12.6,1.5
				c4.4,1,11.4,3.5,15.7,12.7c4.3,9.2,14,44.5,14.3,51.7c0.3,7.2-9.1,44.8-9.1,44.8l-1.8,4.6l-3.6,17.8c0,0-46.5,15.6-77.9-0.3
				c0,0-2.9-68.3,0.9-87.2c0,0-19.2,14.5-28.1,17.1c-8.8,2.6-35.8,0.9-35.8,0.9L678.4,318.7z"/>
		</defs>
		<use xlink:href="#XMLID_127_"  style="overflow:visible;fill:#D6E1FE;"/>
		<clipPath id="XMLID_17_">
			<use xlink:href="#XMLID_127_"  style="overflow:visible;"/>
		</clipPath>
		<path class="st46" d="M737,329.4l1.4-2.3c0,0,1.4-12.4,6.1-25.5l-8,58.2l-1.8-18.2L737,329.4z"/>
		<polygon class="st47" points="774.6,280.1 774.6,299.4 799.1,282.6 787.2,265.9 774.3,269.8 		"/>
		<path class="st47" d="M683.5,314.4c0,0,7.9,21.4-2.9,36.4l-8.9-3.8l3.2-30.9L683.5,314.4z"/>
	</g>
	<path class="st48" d="M767.9,301.9c0,0-8.7,66.1-4.2,118.5"/>
	<path class="st49" d="M796.2,389.4l-0.5-4.2l1.7-4.9c0,0,16.2-2.4,24.9,5.1l-1.4,6.4L796.2,389.4z"/>
	<g>
		<path class="st21" d="M799.2,390c0,0-1,7.4-2.2,16c3.6,0.8,10.9,2.9,15.7,6.9c2.6-9.3,5.2-18.3,5.2-18.3L799.2,390z"/>
		<path class="st23" d="M792.2,431c0,0-7.8,13-8.9,19.4c-2.6,14.4,22.7,7.8,23.9,2.8c1.2-5-1.2-15.6,0-20.6c0.6-2.4,3-11.1,5.4-19.6
			c-4.8-4-12.1-6.1-15.7-6.9C795.4,416.7,793.4,429.2,792.2,431z"/>
	</g>
	<path class="st50" d="M793.9,385.7l-1.4,11.9c0,0,14.6-1.5,24.5,6l5.1-11.7C822.1,391.9,809.9,380.6,793.9,385.7z"/>
	<g>
		<path class="st23" d="M649.5,310.2c-6.2-2.5-11.4-4.8-12.1-5.6c0,0-14.6-19.8-36.8-32c-5.9-3.8-6.8,3.3,0.9,9.3
			c7.7,6,8.7,8.7,8.7,8.7s-6.6,7.9-2.4,16.2c4.1,8.3,11.7,14.1,20.2,11.3l39.1,21.6l1.8-6.1C662.9,324.1,654.5,315.2,649.5,310.2z"
			/>
		<path class="st21" d="M649.5,310.2c5,5,13.4,13.9,19.3,23.3l4.2-14.2C672.8,319.3,659.8,314.4,649.5,310.2z"/>
	</g>
	<path class="st50" d="M670,315.3c0,0-0.5,16-8.5,23.3l10.3,11.4c0,0,12.4-7.8,10.3-32.7L670,315.3z"/>
	<path class="st50" d="M776.9,273.6c0,0,8.5-3.2,12.1-3.8c0,0,6.2,8.5,5.8,12.9l-16.6,11.5C778.2,294.2,779.6,280.1,776.9,273.6z"/>
	<path class="st49" d="M762.6,274l-1.3-0.1c0,0-1.7,7.2-1.3,12.8c0.4,5.6,0.6,8.3,0.6,8.3l5-7.7l0.2-6.2L762.6,274z"/>
	<path class="st50" d="M768.8,280.6c-1.4,2.7-2.5,4.9-3.2,6.6c-0.5-3.9-1.7-9.8-4.4-13.3c0,0,4.5-2.4,9.8-3.8
		C770.9,273.7,770.4,277.6,768.8,280.6z"/>
	<path class="st50" d="M801.4,296.7c0,0-7.5,10.4-2.8,22.6c4.6,12.2,6.4,31.1,6.4,31.1l-7.6,30.5c0,0,3.2-26.7,2.9-31.6
		c-0.3-4.8-1.9-15.8-3.5-20.6c-1.6-4.8-3.6-10.6-3.2-15.3C793.9,308.7,796.4,301.4,801.4,296.7z"/>
	<path class="st50" d="M764.1,334.1"/>
</g>
<g>
	<linearGradient id="SVGID_21_" gradientUnits="userSpaceOnUse" x1="857.3743" y1="157.0227" x2="915.3265" y2="157.0227">
		<stop  offset="8.031201e-02" style="stop-color:#FF9E5D"/>
		<stop  offset="0.5239" style="stop-color:#FFB960"/>
		<stop  offset="1" style="stop-color:#FFD162"/>
	</linearGradient>
	<rect x="857.4" y="119.9" class="st51" width="58" height="74.2"/>
	<rect x="860.9" y="123.3" class="st10" width="50.9" height="67.4"/>
</g>
<g>
	<linearGradient id="SVGID_22_" gradientUnits="userSpaceOnUse" x1="896.6697" y1="121.96" x2="1021.8023" y2="119.7453">
		<stop  offset="8.031201e-02" style="stop-color:#FF9E5D"/>
		<stop  offset="0.5239" style="stop-color:#FFB960"/>
		<stop  offset="1" style="stop-color:#FFD162"/>
	</linearGradient>
	<rect x="901.4" y="60.7" class="st52" width="97.4" height="120.7"/>
	<rect x="907.1" y="66.1" class="st10" width="86.2" height="109.8"/>
</g>
</svg>
