<?xml version="1.0" encoding="utf-8"?>
<!-- Generator: Adobe Illustrator 23.0.2, SVG Export Plug-In . SVG Version: 6.00 Build 0)  -->
<svg version="1.1" id="aa7bae02-e79e-4d6b-a496-aba15f39787c"
	 xmlns="http://www.w3.org/2000/svg" xmlns:xlink="http://www.w3.org/1999/xlink" x="0px" y="0px" viewBox="0 0 1144 617.3"
	 style="enable-background:new 0 0 1144 617.3;" xml:space="preserve">
<style type="text/css">
	.st0{fill:none;stroke:#747BFD;stroke-width:2.4814;stroke-miterlimit:10;stroke-dasharray:12.4072,12.4072;}
	.st1{fill:#F7327A;}
	.st2{fill:#FFFFFF;}
	.st3{fill:none;stroke:#FFFFFF;stroke-width:2.4814;stroke-miterlimit:10;}
	.st4{fill:#BCBEF9;}
	.st5{fill:none;stroke:#FFFFFF;stroke-width:3.8183;stroke-miterlimit:10;}
	.st6{clip-path:url(#SVGID_2_);}
	.st7{fill:none;stroke:#747BFD;stroke-width:2.4814;stroke-miterlimit:10;}
	.st8{clip-path:url(#SVGID_4_);}
	.st9{fill:#F9C03B;}
	.st10{opacity:0.2;fill:#FFFFFF;}
	.st11{opacity:0.1;fill:#231F20;}
	.st12{fill:#0A1E7D;}
	.st13{opacity:0.2;fill:#231F20;}
	.st14{fill:#E99D86;}
	.st15{fill:#C46623;}
	.st16{fill:#E42568;}
	.st17{fill:#747BFD;}
	.st18{fill:none;stroke:#747BFD;stroke-width:7.4443;stroke-miterlimit:10;}
	.st19{fill:#F7C6B5;}
	.st20{clip-path:url(#SVGID_6_);}
	.st21{fill:#C94958;}
	.st22{fill:#231F20;}
	.st23{fill:#95A6EF;}
	.st24{fill:#F4B395;}
	.st25{fill:#3F91AC;}
	.st26{opacity:0.2;}
</style>
<title>developer activity</title>
<path class="st0" d="M804.8,515.8C914.1,473.4,951.1,334.3,907,232.6c-14.6-33.8-38.1-64-63.5-90.3c-11.4-11.8-23.2-23.2-32.5-36.7
	c-10.4-15.2-14.1-30.7-15.6-48.7c-1.3-15.8-1.6-34.4-16.3-44.1c-32.8-21.7-58,26.6-75.4,44.9c-15.1,15.9-37,24.7-58.9,25.8
	c-21.9,1.1-43.9-5-63.2-15.3c-13.6-7.2-27.1-16.8-42.5-16.4c-40.1,0.9-56.6,46.8-65.8,79.2c-9.1,31.6-18.8,70.3-50.1,87.3
	c-20.7,11.3-45.7,9.7-69.3,10c-40.7,0.6-84.7,9.6-113.9,40.1c-30.6,32-43,79.4-29.4,121.9c15.5,48.2,77.6,110,131.8,103.2"/>
<g>
	<path class="st1" d="M495.1,259.3H346.9c-16.4,0-29.8-13.4-29.8-29.8v-66.1c0-16.4,13.4-29.8,29.8-29.8h148.2
		c16.4,0,29.8,13.4,29.8,29.8v66.1C524.9,245.9,511.5,259.3,495.1,259.3z"/>
	<polygon class="st1" points="501.4,259.3 561.8,259.3 524.9,217.7 	"/>
	<g>
		<path class="st2" d="M494.7,172.5H347.4c-3.6,0-6.6-3-6.6-6.6v0c0-3.6,3-6.6,6.6-6.6h147.4c3.6,0,6.6,3,6.6,6.6v0
			C501.3,169.5,498.4,172.5,494.7,172.5z"/>
		<path class="st2" d="M494.7,203.1H347.4c-3.6,0-6.6-3-6.6-6.6l0,0c0-3.6,3-6.6,6.6-6.6h147.4c3.6,0,6.6,3,6.6,6.6l0,0
			C501.3,200.1,498.4,203.1,494.7,203.1z"/>
		<path class="st2" d="M414.4,233.8h-67.1c-3.6,0-6.6-3-6.6-6.6l0,0c0-3.6,3-6.6,6.6-6.6h67.1c3.6,0,6.6,3,6.6,6.6l0,0
			C421,230.8,418.1,233.8,414.4,233.8z"/>
	</g>
</g>
<g>
	<path class="st1" d="M685.6,109.3H590c-2.7,0-5-2.2-5-5V43.8c0-2.7,2.2-5,5-5h95.6c2.7,0,5,2.2,5,5v60.5
		C690.6,107.1,688.4,109.3,685.6,109.3z"/>
	<path class="st3" d="M586.7,41.1L633,85.9c2.6,2.6,7.1,2.6,9.7,0l46.2-44.8"/>
	<line class="st3" x1="586.7" y1="107" x2="624.7" y2="77.9"/>
	<line class="st3" x1="688.9" y1="107" x2="651" y2="77.9"/>
</g>
<g>
	<path class="st4" d="M1019.6,186.3h-82.9c-4.2,0-7.6-3.4-7.6-7.6v-50.3c0-4.2,3.4-7.6,7.6-7.6h82.9c4.2,0,7.6,3.4,7.6,7.6v50.3
		C1027.2,182.9,1023.8,186.3,1019.6,186.3z"/>
	<path class="st5" d="M930.6,122.9l43,41.7c2.5,2.4,6.6,2.4,9,0l43-41.7"/>
	<line class="st5" x1="930.6" y1="184.2" x2="965.9" y2="157.1"/>
	<line class="st5" x1="1025.7" y1="184.2" x2="990.4" y2="157.1"/>
</g>
<g>
	<path class="st4" d="M375.5,328.7h-53.9c-2.7,0-5-2.2-5-5V291c0-2.7,2.2-5,5-5h53.9c2.7,0,5,2.2,5,5v32.7
		C380.5,326.4,378.2,328.7,375.5,328.7z"/>
	<path class="st3" d="M317.7,287.5l27.9,27.1c1.6,1.6,4.3,1.6,5.9,0l27.9-27.1"/>
	<line class="st3" x1="317.7" y1="327.3" x2="340.6" y2="309.7"/>
	<line class="st3" x1="379.4" y1="327.3" x2="356.5" y2="309.7"/>
</g>
<g>
	
		<ellipse transform="matrix(0.3052 -0.9523 0.9523 0.3052 476.2385 845.1283)" class="st1" cx="817.3" cy="96.2" rx="48.6" ry="48.6"/>
	<g>
		<path class="st2" d="M806.6,92.3l1.8-2c1.5-1.6,2.2-3.7,2.1-5.9c-0.1-2.2-1.1-4.2-2.7-5.6l-3-2.7c-1.5-1.4-3.4-2.1-5.4-2.1
			c-2.3,0-4.5,1-6,2.7l-1.8,2c-0.2,0.2-0.4,0.5-0.6,0.8l-0.1,0.1c-1.7,1.4-3.1,4.9-2.3,9.1c3.8,19.8,20.5,34.8,40.5,36.6
			c2.6,0.2,5.1-0.3,7-1.5c0.8-0.4,1.4-1,2-1.6l1.8-2c3-3.3,2.7-8.5-0.6-11.5l-3-2.7c-1.5-1.4-3.4-2.1-5.4-2.1c-2.3,0-4.5,1-6,2.7
			l-1.8,2c-0.8,0.8-1.3,1.8-1.7,2.9l-0.2,0.5l-0.5-0.2c-7.9-3.1-14.3-9-18.1-16.6l-0.3-0.5l0.5-0.2
			C804.3,94.2,805.6,93.4,806.6,92.3z"/>
		<path class="st2" d="M816.5,68.9c0,1,0.8,1.9,1.9,1.9c13.3,0,24.1,10.8,24.1,24.1c0,1,0.8,1.9,1.9,1.9c1,0,1.9-0.8,1.9-1.9
			c0-15.4-12.5-27.9-27.9-27.9C817.3,67,816.5,67.8,816.5,68.9z"/>
		<path class="st2" d="M816.2,78.1c0,1,0.8,1.9,1.9,1.9c8.3,0,15.1,6.8,15.1,15.1c0,1,0.8,1.9,1.9,1.9c1,0,1.9-0.8,1.9-1.9
			c0-10.4-8.5-18.9-18.9-18.9C817,76.2,816.2,77.1,816.2,78.1z"/>
	</g>
</g>
<g>
	
		<ellipse transform="matrix(0.7071 -0.7071 0.7071 0.7071 -84.1411 474.3001)" class="st4" cx="530.5" cy="338.7" rx="31.3" ry="31.3"/>
	<g>
		<path class="st2" d="M523.6,336.2l1.1-1.3c0.9-1,1.4-2.4,1.3-3.8c-0.1-1.4-0.7-2.7-1.7-3.6l-1.9-1.7c-1-0.9-2.2-1.4-3.5-1.4
			c-1.5,0-2.9,0.6-3.9,1.7l-1.1,1.3c-0.1,0.2-0.3,0.3-0.4,0.5l-0.1,0.1c-1.1,0.9-2,3.2-1.5,5.9c2.4,12.8,13.2,22.5,26.1,23.6
			c1.7,0.2,3.3-0.2,4.5-0.9c0.5-0.3,0.9-0.6,1.3-1l1.1-1.3c1.9-2.1,1.8-5.5-0.4-7.4l-1.9-1.7c-1-0.9-2.2-1.4-3.5-1.4
			c-1.5,0-2.9,0.6-3.9,1.7l-1.1,1.3c-0.5,0.5-0.9,1.2-1.1,1.8L533,349l-0.3-0.1c-5.1-2-9.2-5.8-11.7-10.7l-0.2-0.3l0.3-0.1
			C522.1,337.4,522.9,336.9,523.6,336.2z"/>
		<path class="st2" d="M530,321.1c0,0.7,0.5,1.2,1.2,1.2c8.6,0,15.5,7,15.5,15.5c0,0.7,0.5,1.2,1.2,1.2c0.7,0,1.2-0.5,1.2-1.2
			c0-9.9-8.1-18-18-18C530.5,319.9,530,320.4,530,321.1z"/>
		<path class="st2" d="M529.8,327.1c0,0.7,0.5,1.2,1.2,1.2c5.4,0,9.8,4.4,9.8,9.8c0,0.7,0.5,1.2,1.2,1.2c0.7,0,1.2-0.5,1.2-1.2
			c0-6.7-5.5-12.2-12.2-12.2C530.3,325.8,529.8,326.4,529.8,327.1z"/>
	</g>
</g>
<g>
	
		<ellipse transform="matrix(0.6673 -0.7448 0.7448 0.6673 109.8877 703.0161)" class="st4" cx="841.9" cy="228.5" rx="29.1" ry="29.1"/>
	<g>
		<path class="st2" d="M835.5,226.2l1.1-1.2c0.9-1,1.3-2.2,1.3-3.5c-0.1-1.3-0.6-2.5-1.6-3.4l-1.8-1.6c-0.9-0.8-2.1-1.3-3.3-1.3
			c-1.4,0-2.7,0.6-3.6,1.6l-1.1,1.2c-0.1,0.1-0.3,0.3-0.4,0.5l0,0.1c-1,0.9-1.8,2.9-1.4,5.5c2.3,11.8,12.2,20.9,24.3,21.9
			c1.6,0.1,3.1-0.2,4.2-0.9c0.5-0.3,0.8-0.6,1.2-1l1.1-1.2c1.8-2,1.6-5.1-0.3-6.9l-1.8-1.6c-0.9-0.8-2.1-1.3-3.3-1.3
			c-1.4,0-2.7,0.6-3.6,1.6l-1.1,1.2c-0.5,0.5-0.8,1.1-1,1.7l-0.1,0.3l-0.3-0.1c-4.7-1.9-8.6-5.4-10.8-9.9l-0.1-0.3l0.3-0.1
			C834.1,227.3,834.9,226.8,835.5,226.2z"/>
		<path class="st2" d="M841.4,212.1c0,0.6,0.5,1.1,1.1,1.1c7.9,0,14.4,6.5,14.4,14.4c0,0.6,0.5,1.1,1.1,1.1c0.6,0,1.1-0.5,1.1-1.1
			c0-9.2-7.5-16.7-16.7-16.7C841.9,211,841.4,211.5,841.4,212.1z"/>
		<path class="st2" d="M841.2,217.7c0,0.6,0.5,1.1,1.1,1.1c5,0,9.1,4.1,9.1,9.1c0,0.6,0.5,1.1,1.1,1.1c0.6,0,1.1-0.5,1.1-1.1
			c0-6.2-5.1-11.3-11.3-11.3C841.7,216.5,841.2,217,841.2,217.7z"/>
	</g>
</g>
<g>
	
		<ellipse transform="matrix(0.2298 -0.9732 0.9732 0.2298 33.097 292.7292)" class="st4" cx="201.5" cy="125.5" rx="45.9" ry="45.9"/>
	<g>
		<path class="st2" d="M191.4,121.8l1.7-1.8c1.4-1.5,2.1-3.5,2-5.5c-0.1-2-1-3.9-2.5-5.3l-2.8-2.5c-1.4-1.3-3.2-2-5.1-2
			c-2.2,0-4.2,0.9-5.7,2.5l-1.7,1.8c-0.2,0.2-0.4,0.5-0.6,0.8l-0.1,0.1c-1.6,1.3-2.9,4.6-2.1,8.6c3.6,18.7,19.3,32.9,38.3,34.6
			c2.5,0.2,4.8-0.3,6.6-1.4c0.7-0.4,1.3-0.9,1.9-1.5l1.7-1.8c2.8-3.1,2.6-8-0.5-10.8l-2.8-2.5c-1.4-1.3-3.2-2-5.1-2
			c-2.2,0-4.2,0.9-5.7,2.5l-1.7,1.8c-0.7,0.8-1.2,1.7-1.6,2.7l-0.1,0.4l-0.4-0.2c-7.4-2.9-13.5-8.5-17.1-15.7l-0.2-0.5l0.5-0.2
			C189.2,123.6,190.4,122.8,191.4,121.8z"/>
		<path class="st2" d="M200.7,99.6c0,1,0.8,1.8,1.8,1.8c12.5,0,22.7,10.2,22.7,22.7c0,1,0.8,1.8,1.8,1.8c1,0,1.8-0.8,1.8-1.8
			c0-14.5-11.8-26.3-26.3-26.3C201.5,97.8,200.7,98.6,200.7,99.6z"/>
		<path class="st2" d="M200.5,108.4c0,1,0.8,1.8,1.8,1.8c7.9,0,14.3,6.4,14.3,14.3c0,1,0.8,1.8,1.8,1.8c1,0,1.8-0.8,1.8-1.8
			c0-9.8-8-17.8-17.8-17.8C201.3,106.6,200.5,107.4,200.5,108.4z"/>
	</g>
</g>
<g>
	<g>
		<defs>
			<path id="SVGID_1_" d="M870.5,268.7c10-8.4,21.9-14.1,35.4-15.4c6.5-0.6,13.6,0.1,18.5,4.5c12.9,11.4,11.5,38.7,11.3,54.6
				c-0.5,38.2-10.2,76-25.5,110.9c-7.5,17.3-16.5,34-26.5,49.9c-4.6,7.3-9.5,14.5-13.9,21.9c-1.9,3.1-14.3,22.5-12,25.6
				c-10.9-14.3-16.9-31.8-20-49.5c-4.5-26.2-9.5-53.1-8.1-80.1c1.4-27.8,5.5-55.6,14.1-82.1C848.8,293.8,858,279.2,870.5,268.7z"/>
		</defs>
		<use xlink:href="#SVGID_1_"  style="overflow:visible;fill:#BCBEF9;"/>
		<clipPath id="SVGID_2_">
			<use xlink:href="#SVGID_1_"  style="overflow:visible;"/>
		</clipPath>
		<g class="st6">
			<g>
				<path class="st7" d="M856.6,534.5c-3.7-46.1,0.4-92.6,9.2-137.9c8.4-43.2,19.4-86.6,35.9-127.5c5.4-13.5,11.5-26.8,18.4-39.6"/>
				<path class="st7" d="M956.1,291.5c-22.7,7.8-44.5,18.6-64.4,32.1c-5.1,3.4-7.9,4.4-12.1,8.8"/>
				<path class="st7" d="M868.4,381.7c21.9-13.9,46.6-23.3,72.3-27.3"/>
				<path class="st7" d="M859.3,441.1c20.4-17.4,45.2-29.6,71.4-35.2"/>
				<path class="st7" d="M880.7,330.9c-1.4-24.4-7.3-48.5-17.3-70.8"/>
				<path class="st7" d="M868.7,379.7c-10.1-22.1-24.9-42.1-43-58.3"/>
				<path class="st7" d="M858,442.8c-1.4-6.8-3.8-13.4-7.2-19.5c-4-7.1-9.2-13.3-14.5-19.4c-3.8-4.4-7.7-8.7-11.6-13"/>
			</g>
		</g>
	</g>
	<g>
		<defs>
			<path id="SVGID_3_" d="M815.7,354.8c-7.5-4.3-15.9-6.5-24.8-5.8c-4.3,0.4-8.8,1.7-11.5,5.1c-7,8.9-2.9,26.5-0.9,36.7
				c4.9,24.7,15.7,48.1,29.7,68.9c6.9,10.3,14.7,20.1,23.1,29.2c3.9,4.2,7.9,8.3,11.6,12.6c1.6,1.8,12,12.9,10.8,15.2
				c5.3-10.6,7.2-22.6,7.1-34.4c-0.2-17.5-0.2-35.6-4.3-52.9c-4.2-17.8-10.2-35.4-18.9-51.6C832.8,368.5,825,360.1,815.7,354.8z"/>
		</defs>
		<use xlink:href="#SVGID_3_"  style="overflow:visible;fill:#BCBEF9;"/>
		<clipPath id="SVGID_4_">
			<use xlink:href="#SVGID_3_"  style="overflow:visible;"/>
		</clipPath>
		<g class="st8">
			<path class="st7" d="M856.3,525.5c-3.1-30.4-11.2-60-22.4-88.3c-10.6-27-22.9-53.9-38.4-78.5c-5.1-8.1-10.7-16-16.7-23.5"/>
			<path class="st7" d="M762.9,379.7c15.7,2.4,31.1,6.8,45.6,13.1c3.7,1.6,5.6,1.9,8.9,4.3"/>
			<path class="st7" d="M830.5,427.8c-15.8-6.4-33-9.5-50.1-9.1"/>
			<path class="st7" d="M843.4,465.3c-15.3-8.9-32.8-13.8-50.5-14.3"/>
			<path class="st7" d="M816.5,396.3c-2-16-1-32.3,2.8-48"/>
			<path class="st7" d="M830.1,426.6c3.9-15.5,11.1-30.3,20.9-42.9"/>
			<path class="st7" d="M844.5,466.2c0.1-4.6,0.9-9.2,2.4-13.5c1.7-5,4.4-9.7,7.1-14.3c2-3.3,4-6.6,6-9.8"/>
		</g>
	</g>
	<path class="st9" d="M892.4,505.2c-15.1,0-61.7,0-75.9,0c0,42.9,13.3,85.7,13.3,85.7h49.3C879.1,590.9,892.4,548.3,892.4,505.2z"/>
	<rect x="810.8" y="493.7" class="st9" width="87.4" height="11.5"/>
</g>
<g>
	<g>
		<path class="st9" d="M262.2,565.7h-19.9c-5,0-9.1-4.1-9.1-9.1v-37c0-5,4.1-9.1,9.1-9.1h19.9c5,0,9.1,4.1,9.1,9.1v37
			C271.3,561.6,267.2,565.7,262.2,565.7z M242.3,518.3c-0.7,0-1.3,0.6-1.3,1.3v37c0,0.7,0.6,1.3,1.3,1.3h19.9c0.7,0,1.3-0.6,1.3-1.3
			v-37c0-0.7-0.6-1.3-1.3-1.3H242.3z"/>
	</g>
	<path class="st9" d="M303,573.6h-43.4c-4.1,0-7.4-3.3-7.4-7.4v-59.3c0-4.1,3.3-7.4,7.4-7.4H303c4.1,0,7.4,3.3,7.4,7.4v59.3
		C310.5,570.2,307.1,573.6,303,573.6z"/>
	<path class="st10" d="M297,555.8h-2.8c-2.7,0-5-2.2-5-5v-46.5c0-2.7,2.2-5,5-5h2.8c2.7,0,5,2.2,5,5v46.5
		C302,553.5,299.7,555.8,297,555.8z"/>
	<path class="st11" d="M273.8,561.9c-3.5,0-6.4-2.9-6.4-6.4v-56.1h-8.8c-3.5,0-6.4,2.9-6.4,6.4v61.4c0,3.5,2.9,6.4,6.4,6.4h45.5
		c3.5,0,6.4-2.9,6.4-6.4v-5.3H273.8z"/>
</g>
<g>
	<g>
		<g>
			<path class="st12" d="M802.2,608.3H628.7c-13.3,0-24.2-8.6-24.2-19.1V459.9c0-48.5,49.7-87.9,110.9-87.9h0
				c61.3,0,110.9,39.3,110.9,87.9v129.2C826.4,599.7,815.6,608.3,802.2,608.3z"/>
			<path class="st13" d="M789.8,394.7c14.7,14.9,23.5,33.6,23.5,54v129.2c0,10.6-10.8,19.1-24.2,19.1H615.6c-3.4,0-6.7-0.6-9.7-1.6
				c3.3,7.4,12.2,12.8,22.8,12.8h173.5c13.3,0,24.2-8.6,24.2-19.1V459.9C826.4,434,812.3,410.8,789.8,394.7z"/>
		</g>
		<polygon class="st14" points="716.9,400.2 677.3,400.2 671.4,341.8 711.1,341.8 		"/>
		<path class="st15" d="M633.7,573.2L633.7,573.2c-20.8-1.2-32.5-24.5-21.1-41.9l72.1-110.1c5.3-8.1,14.6-12.8,24.3-12.2h0
			c20.8,1.2,32.5,24.5,21.1,41.9l-72.1,110.1C652.6,569.1,643.4,573.7,633.7,573.2z"/>
		<path class="st16" d="M451.8,518.3H636c15.1,0,27.4,12.3,27.4,27.4l0,0c0,15.1-12.3,27.4-27.4,27.4H451.8
			c-15.1,0-27.4-12.3-27.4-27.4l0,0C424.4,530.5,436.6,518.3,451.8,518.3z"/>
		<g>
			<g>
				
					<ellipse transform="matrix(0.2298 -0.9732 0.9732 0.2298 192.7465 853.8)" class="st17" cx="635.8" cy="305.1" rx="26.1" ry="26.1"/>
			</g>
		</g>
		<path class="st1" d="M779.7,501.7c0.3,16.7,0.2,33.4,0,50.1c-0.1,8.4-0.2,16.7-0.3,25.1c-0.1,8.4,0.8,17.6-0.4,25.9
			c-9.8,1.5-20.8,0.2-30.8,0.2c-15.8,0-31.6,0-47.4,0c-25.6,0-51.2,0-76.8,0c-0.1,0-2.5,0-2.5,0c-2.2-0.7,0-19.5-0.1-22
			c-1.8-33.7-6.5-67-4.8-100.8c0.7-14.3,2.4-28.6,6.9-42.2c6.9-20.6,20.4-37.4,41.2-44.9c19.7-7.1,41.8-6.7,62.3-3.9
			c15.4,2.2,28,12.1,37.1,24.3c13.5,18.2,13.6,42.9,14.7,64.7C779.3,486,779.5,493.8,779.7,501.7z"/>
		<path class="st18" d="M675.3,169.4c-25.7,0-46.5,19.2-46.5,42.8v74.5"/>
		<path class="st19" d="M692.5,370.9c-9,0.3-18.2-0.8-26.7-3.8c-39.5-13.9-43.3-59.7-42.4-93.6c0.3-10.7,0.2-21.4,0.9-32
			c0.8-12.6,4.6-25.7,18.2-30.7c3.6-1.3,7.4-1.5,11-2.6c4.5-1.3,8.5-2.4,13.3-2.4c0,0,40.2,0,40.2,0c13.9,0,27.2,6.7,35.2,17.5
			c7.5,10.2,8.1,22.9,8,34.9c0,10.7,0.1,21.4-0.5,32c-1,20.1-4.3,41.6-16.9,58.5c-4.3,5.8-9.6,10.8-15.8,14.7
			C709.8,368.1,701.3,370.6,692.5,370.9z"/>
		<path class="st12" d="M714.2,175.4c-3.3-1.6-6.9-2.6-10.6-3c-4.5-0.4-9.6,0-14,1.2c-1.5,0.4-13.2,4.5-12.8,6.4
			c-1.4-6.5-7.6-11.2-14.2-12.4s-13.3,0.6-19.4,3.4c-1.6,0.7-11.6,8.7-8.8,10.9c-3.2-2.7-7.5-3.9-11.7-4.2c-7.5-0.6-17.9,1-22.3,8
			c-2,3.2-2.5,7.1-2.2,10.9c0.6,7.3,3.8,14.2,8,20.2c-4.8-2.9-11.6,1.2-12.7,6.6c-1.1,5.5,2.3,11.1,6.9,14.2
			c5.9,4.1,13.5,4.9,20.6,4.9c31.3,0.4,63.1-10.3,93.5-2.7c4.5,1.1,7,4,9.2,8c4.5,8.4,8.1,17.2,10.4,26.3
			c2.9,11.3,7.1,24.6,19.9,27.7c2.9,0.7,6.1,1.5,8.4-0.3c2.5-2,4.4-7.3,5.7-10.2c2-4.4,3.6-9.1,4.9-13.8c5.5-20.3,5.1-43.1-2.7-62.8
			c-4.9-12.5-13.8-27.1-27-31.6c-3-1-7.2-2.3-10.5-1.9c-1.1,0.1-6.7,3.2-7.2,2.6C722.5,180.4,718.6,177.4,714.2,175.4z"/>
		<path class="st18" d="M750.7,280.5v-68.2c0-23.6-20.8-42.8-46.5-42.8h-28.9"/>
		<g>
			<g>
				<defs>
					<path id="SVGID_5_" d="M649,329.5c0,10.8,8.7,19.5,19.5,19.5l0,0c10.8,0,19.5-8.7,19.5-19.5"/>
				</defs>
				<use xlink:href="#SVGID_5_"  style="overflow:visible;fill:#333333;"/>
				<clipPath id="SVGID_6_">
					<use xlink:href="#SVGID_5_"  style="overflow:visible;"/>
				</clipPath>
				<g class="st20">
					<g>
						<path class="st21" d="M652.2,345.3c0,3.9,7.3,7,16.4,7s16.4-3.1,16.4-7c0-3.9-7.3-7-16.4-7S652.2,341.4,652.2,345.3z"/>
					</g>
				</g>
			</g>
			<path class="st22" d="M706.7,289.8c0,5.6-3.1,10.1-6.9,10.1c-3.8,0-6.9-4.5-6.9-10.1c0-5.6,3.1-10.1,6.9-10.1
				C703.7,279.7,706.7,284.2,706.7,289.8z"/>
			<path class="st22" d="M647.6,289.8c0,5.6-3.1,10.1-6.9,10.1s-6.9-4.5-6.9-10.1c0-5.6,3.1-10.1,6.9-10.1S647.6,284.2,647.6,289.8z
				"/>
			<g>
				<path class="st12" d="M696,265.5c2.1-1.6,4.7-2.4,7.3-2.7c2.6-0.3,5.3,0,7.8,0.8c2.5,0.8,4.9,2.2,6.8,3.9
					c1.9,1.8,3.5,3.9,4.4,6.4c-2.4-1.1-4.4-2.2-6.5-3.2c-2.1-0.9-4.1-1.8-6.2-2.4c-2.1-0.7-4.2-1.2-6.4-1.7
					C700.9,266.2,698.5,265.9,696,265.5z"/>
			</g>
			<g>
				<path class="st12" d="M652.4,265.5c-2.6,0.4-4.9,0.8-7.1,1.2c-2.2,0.4-4.3,1-6.4,1.7c-2.1,0.7-4.1,1.5-6.2,2.4
					c-2.1,0.9-4.2,2-6.5,3.2c0.8-2.5,2.4-4.6,4.4-6.4c2-1.7,4.3-3.1,6.8-3.9c2.5-0.8,5.2-1.1,7.8-0.8
					C647.7,263.1,650.3,263.9,652.4,265.5z"/>
			</g>
			<ellipse class="st14" cx="668.5" cy="308.2" rx="6.7" ry="6.2"/>
		</g>
		<path class="st18" d="M743.3,322.2c-8.8,28-37.4,38.1-57.3,34.4"/>
		<path class="st17" d="M677.1,356.7c0,4.9,4,8.8,8.8,8.8c4.9,0,8.8-4,8.8-8.8c0-4.9-4-8.8-8.8-8.8
			C681.1,347.8,677.1,351.8,677.1,356.7z"/>
		<g>
			
				<ellipse transform="matrix(0.1602 -0.9871 0.9871 0.1602 329.2818 997.2786)" class="st17" cx="750.7" cy="305.1" rx="27.2" ry="27.2"/>
			<path class="st23" d="M767,305.1c0,9-7.3,16.3-16.3,16.3c-9,0-16.3-7.3-16.3-16.3c0-9,7.3-16.3,16.3-16.3
				C759.7,288.8,767,296.1,767,305.1z"/>
		</g>
		<path class="st16" d="M746.3,574c37-16.8,36.2-63.4,35-97.9c-0.6-17.8-0.6-37.5-8-54c-4.9-10.8-14.2-18.9-26.7-16.5
			c-19.6,3.8-23.1,31.4-24.8,46.4c-1.9,16.2-1,32.5-3.1,48.6c-0.9,6.9-2.7,14.4-8.5,18.9c-4.6,3.5-10.7,4.4-16.6,5.1
			c-13.3,1.5-26.8,2.3-40.2,2.2c-19.2-0.1-38.9-1.6-57,4.4c-1.5,0.5-3,1.1-4.1,2.2c-1.5,1.6-1.6,4-1.6,6.1c0,5.9,0,11.9,0,17.8
			c0,3.3,0.1,6.8,2,9.6c1.6,2.4,4.4,4,7.2,5.2c13.3,5.9,28.6,6.4,43.4,6.8c18.3,0.5,36.6,1,55,1.5c15.5,0.4,33.1,0.2,47.5-6
			C745.9,574.2,746.1,574.1,746.3,574z"/>
		<path class="st19" d="M582.9,516.1c13.3,0.6,23.7,8.1,33.5,16.3c4,3.4,7.4,7.7,8.3,12.9c1,6.2-1.2,12.9-7.8,13.5
			c-8.4,0.7-16.7,0.2-24.1-4.2c-5.8-3.4-10.5-9.3-17.6-10c-5.6-0.6-10.8,2.6-16.1,4.5c-4.9,1.7-10.1,2.5-15.2,2.1
			c-1.5-0.1-3.1-0.3-4.2-1.3c-4.7-3.9,6.5-17.3,9.4-20c3.1-2.9,6.8-5.3,10.6-7.3C566.8,518.6,574.7,515.8,582.9,516.1z"/>
		<g>
			<g>
				<path class="st23" d="M184.9,608.3l740.6,0c8.6,0,15.5-6.9,15.5-15.5v-4.1c0-8.6-6.9-15.5-15.5-15.5H184.9
					c-8.6,0-15.5,6.9-15.5,15.5v4.1C169.4,601.3,176.3,608.3,184.9,608.3z"/>
			</g>
		</g>
		<path class="st24" d="M420.8,550.5c0-17.7,14.3-32,32-32c17.7,0,32,14.3,32,32"/>
		<g>
			<g>
				<path class="st17" d="M653.1,548.3H536.4c-5.5,0-9.9,4.4-9.9,9.9v4.9c0,5.5,4.4,9.9,9.9,9.9h116.7c5.5,0,9.9-4.4,9.9-9.9v-4.9
					C663.1,552.8,658.6,548.3,653.1,548.3z"/>
				<path class="st17" d="M548.2,550.7l-32-162.7c-0.8-4.3-4.6-7.4-9-7.4H294.8c-3.1,0-5.7,1.5-7.4,3.8l0,0l-9.8,11.6l8.7-1.9
					l31.5,160.2c0.8,4.3,4.6,7.4,9,7.4h212.4C545,561.7,549.3,556.4,548.2,550.7z"/>
				<path class="st4" d="M317,573.1h212.4c5.8,0,10.1-5.3,9-10.9l-32-162.7c-0.8-4.3-4.6-7.4-9-7.4H285.1c-5.8,0-10.1,5.3-9,10.9
					l32,162.7C308.9,570,312.7,573.1,317,573.1z"/>
				<polygon class="st17" points="384.9,466.6 424.6,466.6 427.9,490.5 389.3,490.5 				"/>
			</g>
			<path class="st25" d="M275.9,399.7"/>
		</g>
		<g class="st26">
			<g>
				<path class="st2" d="M369.4,411.4c35.7,0,71.5,0,107.2,0c5.1,0,10.1,0,15.2,0c8,0,8-12.4,0-12.4c-35.7,0-71.5,0-107.2,0
					c-5.1,0-10.1,0-15.2,0C361.4,399,361.4,411.4,369.4,411.4L369.4,411.4z"/>
			</g>
		</g>
	</g>
</g>
</svg>
