<?xml version="1.0" encoding="utf-8"?>
<!-- Generator: Adobe Illustrator 23.0.2, SVG Export Plug-In . SVG Version: 6.00 Build 0)  -->
<svg version="1.1" id="Layer_1" xmlns="http://www.w3.org/2000/svg" xmlns:xlink="http://www.w3.org/1999/xlink" x="0px" y="0px"
	 viewBox="0 0 1086.1 611.7" style="enable-background:new 0 0 1086.1 611.7;" xml:space="preserve">
<style type="text/css">
	.st0{opacity:0.41;}
	.st1{fill:#C5D9FF;}
	.st2{opacity:0.31;fill:#C5D9FF;}
	.st3{fill:#243762;}
	.st4{fill:#ECF1F7;}
	.st5{fill:#FFFFFF;}
	.st6{opacity:0.4;}
	.st7{fill:#AF9CDA;}
	.st8{opacity:0.28;fill:#FFFFFF;}
	.st9{opacity:0.29;fill:#AF9CDA;}
	.st10{fill:#F7A9B4;}
	.st11{fill:#F9D9EB;}
	.st12{opacity:0.46;fill:#EF92C7;}
	.st13{fill:#4C65BA;}
</style>
<title>features overview</title>
<g>
	<g>
		<g class="st0">
			<g>
				<path class="st1" d="M140.2,435c-4.4-94.9,44.5-176.5,118.3-222.4c13.8-8.6,22.8-22.8,24.6-38.5c0.1-0.9,0.2-1.7,0.3-2.6
					C296.9,67.3,398.3-5.9,506.2,8.2c103.3,13.5,177.6,65.9,166.6,166.9c-0.1,0.5-0.1,1.2-0.2,2c-1.9,27.5,20.6,50.7,49.2,51.3
					c6,0.1,12,0.5,18.1,1.1C863.1,242,952.5,348.4,939.4,467.2c-6,54.3-32.7,101.9-71.6,136.3H225.6
					C176.8,558.6,143,496.3,140.2,435z"/>
			</g>
		</g>
		<circle class="st2" cx="214" cy="133.4" r="25.1"/>
		
			<ellipse transform="matrix(0.7071 -0.7071 0.7071 0.7071 216.7107 619.1019)" class="st2" cx="855.7" cy="48" rx="41.5" ry="41.5"/>
		<path class="st2" d="M713.5,18.9c0,8.8-7.1,15.9-15.9,15.9c-8.8,0-15.9-7.1-15.9-15.9S688.9,3,697.6,3
			C706.4,3,713.5,10.1,713.5,18.9z"/>
		<g>
			<g>
				<g>
					<g>
						<path class="st1" d="M199.1,459.8c-3.8-81,37.9-150.5,100.9-189.7c11.8-7.3,19.5-19.4,21-32.9c0.1-0.7,0.2-1.5,0.3-2.2
							c11.5-88.9,98-151.3,190-139.3c88.1,11.5,151.5,56.2,142.1,142.4c0,0.4-0.1,1-0.1,1.7c-1.6,23.5,17.5,43.2,41.9,43.8
							c5.1,0.1,10.3,0.4,15.4,1c105.1,10.6,181.3,101.3,170.1,202.6c-5.1,46.3-27.9,86.9-61.1,116.2H271.9
							C230.3,565.2,201.5,512,199.1,459.8z"/>
					</g>
				</g>
			</g>
		</g>
		<path class="st3" d="M922,605.6H163.5c-1.2,0-2.2-1-2.2-2.2c0-1.2,1-2.2,2.2-2.2H922c1.2,0,2.2,1,2.2,2.2
			C924.2,604.7,923.2,605.6,922,605.6z"/>
	</g>
</g>
<g>
	<g>
		<path class="st4" d="M807.7,553H299.2V240.2c0-11.9,9.7-21.6,21.6-21.6H786c11.9,0,21.6,9.7,21.6,21.6V553z"/>
		<path class="st3" d="M808.9,554.2h-511v-314c0-12.6,10.3-22.9,22.9-22.9H786c12.6,0,22.9,10.3,22.9,22.9V554.2z M300.4,551.7h506
			V240.2c0-11.2-9.1-20.4-20.4-20.4H320.8c-11.2,0-20.4,9.1-20.4,20.4V551.7z"/>
	</g>
	<rect x="329.5" y="250.4" class="st5" width="449.5" height="300.4"/>
	<rect x="329.5" y="250.4" class="st1" width="449.5" height="28.4"/>
	<path class="st5" d="M350.8,269.8c-2.9,0-5.2-2.3-5.2-5.2c0-2.9,2.3-5.2,5.2-5.2c2.9,0,5.2,2.3,5.2,5.2
		C356,267.5,353.6,269.8,350.8,269.8z M350.8,261.9c-1.5,0-2.7,1.2-2.7,2.7c0,1.5,1.2,2.7,2.7,2.7c1.5,0,2.7-1.2,2.7-2.7
		C353.5,263.1,352.3,261.9,350.8,261.9z"/>
	<path class="st5" d="M368.8,269.8c-2.9,0-5.2-2.3-5.2-5.2c0-2.9,2.3-5.2,5.2-5.2c2.9,0,5.2,2.3,5.2,5.2
		C374.1,267.5,371.7,269.8,368.8,269.8z M368.8,261.9c-1.5,0-2.7,1.2-2.7,2.7c0,1.5,1.2,2.7,2.7,2.7c1.5,0,2.7-1.2,2.7-2.7
		C371.6,263.1,370.4,261.9,368.8,261.9z"/>
	<path class="st5" d="M385.4,269.8c-2.9,0-5.2-2.3-5.2-5.2c0-2.9,2.3-5.2,5.2-5.2c2.9,0,5.2,2.3,5.2,5.2
		C390.7,267.5,388.3,269.8,385.4,269.8z M385.4,261.9c-1.5,0-2.7,1.2-2.7,2.7c0,1.5,1.2,2.7,2.7,2.7c1.5,0,2.7-1.2,2.7-2.7
		C388.2,263.1,386.9,261.9,385.4,261.9z"/>
	<polygon class="st3" points="330.7,550.9 328.2,550.9 328.2,249.2 520.1,249.2 520.1,251.7 330.7,251.7 	"/>
	<g class="st6">
		<circle class="st7" cx="418.1" cy="337.2" r="50"/>
		<path class="st7" d="M753.2,528.5H497.7c-3.8,0-6.8-3.1-6.8-6.8V407.5c0-3.8,3.1-6.8,6.8-6.8h255.5c3.8,0,6.8,3.1,6.8,6.8v114.1
			C760,525.4,757,528.5,753.2,528.5z"/>
		<path class="st8" d="M611.2,464.6h-91.5c-0.9,0-1.6-0.7-1.6-1.6v-41.8c0-0.9,0.7-1.6,1.6-1.6h91.5c0.9,0,1.6,0.7,1.6,1.6V463
			C612.8,463.9,612.1,464.6,611.2,464.6z"/>
		<path class="st8" d="M729.2,464.6h-91.5c-0.9,0-1.6-0.7-1.6-1.6v-41.8c0-0.9,0.7-1.6,1.6-1.6h91.5c0.9,0,1.6,0.7,1.6,1.6V463
			C730.8,463.9,730.1,464.6,729.2,464.6z"/>
		<g>
			<path class="st5" d="M424.7,350.3L424.7,350.3c1.1,0,1.8,0.8,1.8,1.8v3.7c0,1-0.8,1.8-1.8,1.8h-13.3c-1,0-1.8-0.8-1.8-1.8v-3.7
				c0-1,0.8-1.8,1.8-1.8h0c1,0,1.8-0.8,1.8-1.8v-11c0-1-0.8-1.8-1.8-1.8l0,0c-1,0-1.8-0.8-1.8-1.8v-3.7c0-1,0.8-1.8,1.8-1.8h9.7
				c1,0,1.8,0.8,1.8,1.8v18.2C422.9,349.6,423.7,350.3,424.7,350.3z"/>
			<path class="st5" d="M417.9,316.9L417.9,316.9c2.1,0,3.8,1.7,3.8,3.8l0,0c0,2.1-1.7,3.8-3.8,3.8l0,0c-2.1,0-3.8-1.7-3.8-3.8l0,0
				C414.1,318.6,415.8,316.9,417.9,316.9z"/>
		</g>
		<rect x="493" y="306.9" class="st7" width="220.5" height="2.5"/>
		<rect x="493" y="365.7" class="st7" width="220.5" height="2.5"/>
		<rect x="493" y="332.5" class="st7" width="92.4" height="2.5"/>
		<rect x="365.2" y="480.3" class="st7" width="96.6" height="2.5"/>
		<rect x="365.2" y="506" class="st7" width="96.6" height="2.5"/>
		<rect x="606" y="332.5" class="st7" width="96.7" height="2.5"/>
		<rect x="515.2" y="505.1" class="st5" width="220.5" height="2.5"/>
		<rect x="515.2" y="484.9" class="st5" width="92.4" height="2.5"/>
		<rect x="628.2" y="484.9" class="st5" width="96.7" height="2.5"/>
	</g>
	<path class="st3" d="M554.6,243.2c-3.5,0-6.3-2.8-6.3-6.3c0-3.5,2.8-6.3,6.3-6.3c3.5,0,6.3,2.8,6.3,6.3
		C560.9,240.3,558.1,243.2,554.6,243.2z M554.6,233.1c-2.1,0-3.8,1.7-3.8,3.8c0,2.1,1.7,3.8,3.8,3.8c2.1,0,3.8-1.7,3.8-3.8
		C558.4,234.8,556.7,233.1,554.6,233.1z"/>
	<path class="st3" d="M572.8,240c-1.8,0-3.3-1.5-3.3-3.3s1.5-3.3,3.3-3.3c1.8,0,3.3,1.5,3.3,3.3S574.6,240,572.8,240z M572.8,235.9
		c-0.5,0-0.8,0.4-0.8,0.8s0.4,0.8,0.8,0.8c0.5,0,0.8-0.4,0.8-0.8S573.3,235.9,572.8,235.9z"/>
	<path class="st3" d="M858.2,600.8H248.6c-2.7,0-5-2.2-5-5v-28c0-8.2,6.7-14.9,14.9-14.9h589.7c8.2,0,14.9,6.7,14.9,14.9v28
		C863.2,598.6,860.9,600.8,858.2,600.8z"/>
	<path class="st9" d="M858.4,573.2h-610c-2.6,0-4.7-2.1-4.7-4.7l0,0c0-7.9,6.4-14.2,14.2-14.2h591c7.9,0,14.2,6.4,14.2,14.2l0,0
		C863.2,571.1,861,573.2,858.4,573.2z"/>
	<path class="st5" d="M605.4,578.1H505.1c-6.1,0-11.1-5-11.1-11.1v-11.7c0-0.7,0.6-1.2,1.2-1.2c0.7,0,1.2,0.6,1.2,1.2V567
		c0,4.8,3.9,8.6,8.6,8.6h100.3c4.4,0,7.9-3.6,7.9-7.9v-12.4c0-0.7,0.6-1.2,1.2-1.2c0.7,0,1.2,0.6,1.2,1.2v12.4
		C615.8,573.4,611.2,578.1,605.4,578.1z"/>
	<path class="st5" d="M594.6,573.5h-78.7c-5,0-9-4-9-9v-9.2c0-0.7,0.6-1.2,1.2-1.2c0.7,0,1.2,0.6,1.2,1.2v9.2c0,3.6,2.9,6.5,6.5,6.5
		h78.7c3.3,0,6-2.7,6-6v-9.7c0-0.7,0.6-1.2,1.2-1.2c0.7,0,1.2,0.6,1.2,1.2v9.7C603,569.7,599.2,573.5,594.6,573.5z"/>
	<path class="st5" d="M334.9,589.9c-3.7,0-6.7-3-6.7-6.7c0-3.7,3-6.7,6.7-6.7c3.7,0,6.7,3,6.7,6.7
		C341.6,586.9,338.6,589.9,334.9,589.9z M334.9,579c-2.3,0-4.2,1.9-4.2,4.2c0,2.3,1.9,4.2,4.2,4.2c2.3,0,4.2-1.9,4.2-4.2
		C339.1,580.8,337.2,579,334.9,579z"/>
	<path class="st5" d="M360.6,587.7c-2.9,0-5.2-2.3-5.2-5.2c0-2.9,2.3-5.2,5.2-5.2c2.9,0,5.2,2.3,5.2,5.2
		C365.8,585.4,363.4,587.7,360.6,587.7z M360.6,579.8c-1.5,0-2.7,1.2-2.7,2.7s1.2,2.7,2.7,2.7s2.7-1.2,2.7-2.7
		S362.1,579.8,360.6,579.8z"/>
	<path class="st3" d="M779,279.8H520.1c-0.7,0-1.2-0.6-1.2-1.2c0-0.7,0.6-1.2,1.2-1.2H779c0.7,0,1.2,0.6,1.2,1.2
		C780.2,279.3,779.7,279.8,779,279.8z"/>
</g>
<g>
	<g>
		<g>
			<path class="st7" d="M408.9,322.5H70.7c-8,0-14.4,6.5-14.4,14.4v134.2c0,8,6.5,14.4,14.4,14.4h243.2l41.8,41.8v-41.8h53.2
				c8,0,14.4-6.5,14.4-14.4V336.9C423.4,329,416.9,322.5,408.9,322.5z"/>
			<path class="st4" d="M153,477.8c-42.2,0-76.6-34.4-76.6-76.6c0-42.2,34.4-76.6,76.6-76.6s76.6,34.4,76.6,76.6
				C229.6,443.4,195.2,477.8,153,477.8z M153,327.1c-40.9,0-74.1,33.3-74.1,74.1c0,40.9,33.3,74.1,74.1,74.1s74.1-33.3,74.1-74.1
				C227.1,360.3,193.9,327.1,153,327.1z"/>
		</g>
	</g>
	<path class="st5" d="M386.5,365.4h-129c-0.7,0-1.2-0.6-1.2-1.2s0.6-1.2,1.2-1.2h129c0.7,0,1.2,0.6,1.2,1.2S387.2,365.4,386.5,365.4
		z"/>
	<path class="st5" d="M386.5,422.9h-129c-0.7,0-1.2-0.6-1.2-1.2c0-0.7,0.6-1.2,1.2-1.2h129c0.7,0,1.2,0.6,1.2,1.2
		C387.7,422.3,387.2,422.9,386.5,422.9z"/>
	<path class="st5" d="M322,394.6h-64.5c-0.7,0-1.2-0.6-1.2-1.2c0-0.7,0.6-1.2,1.2-1.2H322c0.7,0,1.2,0.6,1.2,1.2
		C323.2,394.1,322.7,394.6,322,394.6z"/>
	<path class="st5" d="M322,446.1h-64.5c-0.7,0-1.2-0.6-1.2-1.2c0-0.7,0.6-1.2,1.2-1.2H322c0.7,0,1.2,0.6,1.2,1.2
		C323.2,445.6,322.7,446.1,322,446.1z"/>
	<path class="st5" d="M384.8,394.6h-43.7c-0.7,0-1.2-0.6-1.2-1.2c0-0.7,0.6-1.2,1.2-1.2h43.7c0.7,0,1.2,0.6,1.2,1.2
		C386.1,394.1,385.5,394.6,384.8,394.6z"/>
	<g>
		<g>
			<path class="st10" d="M214.8,311.2c-0.3-3.6-1.9-6.7-4.3-9.1c-2.4-2.4-4.5-5.2-6.1-8.2c-0.4-1.6-1.1-3.2-2.1-4.5
				c-1.3-3.4-2.2-7-2.6-10.7l-0.6-6.5c0-0.1,0-0.2,0-0.4l-0.3-3.1c-0.7-6.7-3.7-12.6-8.3-17c-6.4-7.8-15.9-13.1-26.7-14l0,0
				c-12.5-1.1-24,3.9-31.9,12.4c-9.3,5.1-15.1,15.4-14.1,26.5l0.5,4.6c-2.8,2.3-4.8,5.6-5.1,9.5v0c-0.3,3,0.5,5.9,2,8.3
				c-5.4,5.7-8.9,13.2-9.6,21.6c-1.7,19.8,13,37.3,32.9,39c12.1,1,23.3-4,30.6-12.6c3.7,2.9,8.3,4.9,13.4,5.3h0
				c13.8,1.2,25.9-9.1,27.1-22.9l0,0c0.1-1.7,0.1-3.4-0.1-5.1C213,321.2,215.3,316.3,214.8,311.2z"/>
			<g>
				<g>
					<path class="st11" d="M226.5,311.9c0,0-1.3-5,0-10.7l4.5-9.8c0.7-1.5,2.5-2.4,4.1-1.9c0,0,0,0,0.1,0l5.2-6.3
						c0.7-0.8,7.8-8.6,8.4-9.4c0.6-1,3.5-2,3.9,0c0.9,3.7-6.2,14.1-6.2,14.1s3.5,1.5,4.1,3.4c0.6,1.9,0.9,2.6,0.9,2.6s1.9,2,2.6,4.8
						l0.4,0.8c0,0,0.8-0.2,2.1,3.4c0.7,1.8,0,3.2-0.7,4.2c-0.7,0.8-1.6,1.4-2.5,1.7l-1.7,0.6l1.8,12.3l-25.3-1.3L226.5,311.9z"/>
					<g>
						<path class="st11" d="M239,309.3c-1.1-7-5.4-8.7-5.4-8.7s1-2.2,2.2-5.3c1-2.5,0.2-4.3-0.1-5.1c-0.1-0.2-0.3-0.4-0.5-0.5
							c-0.7-0.4-2.3-1-4.1,1.6c-0.9,1.4-1.8,3.3-2.6,5"/>
						<path class="st3" d="M239,309.7c-0.2,0-0.4-0.2-0.4-0.4c-1-6.6-5-8.2-5.1-8.3l-0.4-0.2l0.2-0.4c0,0,1-2.2,2.2-5.3
							c0.9-2.3,0.2-4-0.1-4.7c-0.1-0.2-0.2-0.3-0.3-0.4c-0.7-0.4-2-0.8-3.5,1.5c-0.8,1.2-1.7,2.8-2.6,4.9c-0.1,0.2-0.4,0.3-0.6,0.2
							c-0.2-0.1-0.3-0.4-0.2-0.6c0.9-2.1,1.8-3.8,2.6-5.1c2.1-3.1,4.1-2.1,4.7-1.8c0.3,0.2,0.5,0.4,0.7,0.7c0.4,0.8,1.2,2.8,0.2,5.4
							c-0.9,2.3-1.7,4.2-2.1,4.9c1.2,0.6,4.3,2.9,5.3,8.8C239.5,309.4,239.3,309.7,239,309.7C239,309.7,239,309.7,239,309.7z"/>
					</g>
				</g>
				<path class="st3" d="M262.9,391.7c-0.8-8.6-1.6-17.1-2.3-25.7c-0.6-7.4-2.6-37.3-3.4-47.8c-0.2-2-1.9-3.5-3.9-3.3l-26.1,2.7
					c-2.3,0.2-4,2.4-3.6,4.7c2.6,17,4.8,59.8,4.8,59.8l-13-13.2c-3.3-3.4-6.4-6.9-9.6-10.4c-5.6-6.1-12.9-10.8-20.2-14.9l-0.9-0.8
					l0.1,0.3c-2.1-1.2-4.3-2.2-6.5-3.2l-45.2-0.2c-2.3,0-4.6,0.3-6.8,0.7c-18.3,3.4-33.5,20.3-37.3,42c-0.6,3.4-0.9,6.9-0.9,10.5
					l-1.5,16.5c3.8,33.3,32.1,59.1,66.4,59.1c30.2,0,55.7-20,64-47.5c6.1,2.3,12.3,4.1,17.5,4.3c5.2,0.2,10.2-1.4,14.9-3.7
					c4.3-2.1,8.6-4.9,11.1-9.1C264.3,406.4,263.6,398.8,262.9,391.7z"/>
			</g>
			<g>
				<g>
					<path class="st11" d="M198.8,301.9l-3-28.3c-0.6-5.5-2.9-10.3-6.3-14.1c-1.4,12.7-12.1,22.5-25.1,22.5h-23.1l2.7,25.7
						c0.1,1.2,0.4,2.4,0.7,3.6l-4.4,23.6c-2.2,11.1,4.7,21.8,15.4,23.9c10.7,2.1,21.1-5.3,23.3-16.4l2.7-13.8
						C192.7,324.6,200,313.8,198.8,301.9z"/>
					<path class="st12" d="M172.6,330.3c-11.1,1.2-21.3-4.7-26-13.8l-0.3,2c-1.1,7.3,5.9,14.5,15.7,16h0c7.1,1.1,13.6-1.1,17.2-5.1
						c-1.2,0.3-2.4,0.6-3.7,0.7L172.6,330.3z"/>
					<g>
						<path class="st3" d="M189.4,290.2L189.4,290.2c0.8,0,1.4-0.7,1.4-1.5l-0.1-2.9c0-0.8-0.7-1.4-1.5-1.4l0,0
							c-0.8,0-1.4,0.7-1.4,1.5l0.1,2.9C188,289.7,188.6,290.3,189.4,290.2z"/>
						<g>
							<path class="st3" d="M164.3,293.4L164.3,293.4c0.8,0,1.4-0.7,1.4-1.5l-0.1-2.9c0-0.8-0.7-1.4-1.5-1.4l0,0
								c-0.8,0-1.4,0.7-1.4,1.5l0.1,2.9C162.8,292.8,163.5,293.4,164.3,293.4z"/>
							<g>
								<path class="st10" d="M184.5,279.1c0.6,0.1,1.3,0,2-0.1c0.7-0.1,1.4-0.2,2-0.3c0.6-0.1,1.3-0.1,2-0.2
									c0.7-0.1,1.4-0.1,1.9-0.3c0.5-0.3,0.6-0.8-0.1-1.5c-0.7-0.6-2.3-1.2-4.3-1c-2,0.2-3.4,1.1-3.8,1.8
									C183.7,278.4,184,279,184.5,279.1z"/>
							</g>
							<g>
								<path class="st10" d="M158.1,283.1c0.6,0.1,1.3,0,2-0.2c0.7-0.2,1.4-0.3,2-0.4c0.6-0.1,1.3-0.2,2-0.3
									c0.7-0.1,1.4-0.1,1.9-0.5c0.5-0.3,0.6-0.9-0.2-1.5c-0.7-0.6-2.4-1.1-4.4-0.8c-2,0.3-3.3,1.3-3.7,2.1
									C157.1,282.4,157.5,283,158.1,283.1z"/>
							</g>
							<path class="st3" d="M173.3,299.2c-0.3,0-0.6-0.2-0.6-0.5c-0.1-0.3,0.2-0.7,0.5-0.7l3.5-0.6c0.5-0.1,0.9-0.4,1.1-0.8
								c0.2-0.4,0.2-0.9,0-1.3c-3-3-3.3-10.2-3.3-10.5c0-0.3,0.3-0.6,0.6-0.6c0.4,0,0.6,0.3,0.6,0.6c0,0.1,0.3,7.1,3,9.7l0.1,0.1
								c0.5,0.8,0.5,1.7,0.1,2.5c-0.4,0.8-1.1,1.4-2,1.5l-3.5,0.6C173.4,299.2,173.4,299.2,173.3,299.2z"/>
							<path class="st12" d="M171.5,316.3c-0.1,0-0.1,0-0.2,0c-0.2-0.1-0.2-0.3-0.2-0.5c0.7-1.3,2.1-2.2,3.6-2.3
								c1.5-0.1,2.9,0.7,3.8,2c0.1,0.2,0.1,0.4-0.1,0.5c-0.2,0.1-0.4,0.1-0.5-0.1c-0.7-1.1-1.9-1.7-3.1-1.6c-1.2,0-2.4,0.8-3,1.9
								C171.8,316.2,171.7,316.3,171.5,316.3z"/>
							<path class="st5" d="M171.4,290.1c-0.5,0-0.8-0.3-0.9-0.8c-0.1-0.5,0.3-1,0.8-1.1l7.6-1.1c0.5-0.1,1,0.3,1.1,0.8
								c0.1,0.5-0.3,1-0.8,1.1l-7.6,1.1C171.5,290.1,171.4,290.1,171.4,290.1z"/>
							<path class="st5" d="M187,298.3c-4.5,0-8.3-3.4-8.8-7.9l-0.6-5.6c-0.1-1.2,0.2-2.3,0.9-3.2c0.7-0.9,1.8-1.5,2.9-1.6l11.4-1.2
								c1.2-0.1,2.3,0.2,3.2,0.9c0.9,0.7,1.5,1.8,1.6,2.9l0.6,5.4c0.5,5-3.1,9.4-8,9.9l-2.3,0.2C187.6,298.3,187.3,298.3,187,298.3z
								 M193.4,280.7c-0.1,0-0.2,0-0.3,0l-11.4,1.2c-0.7,0.1-1.3,0.4-1.7,0.9c-0.4,0.5-0.6,1.2-0.5,1.8l0.6,5.6
								c0.2,1.8,1.1,3.5,2.5,4.7c1.4,1.2,3.3,1.7,5.1,1.5l2.3-0.2c3.9-0.4,6.8-3.9,6.4-7.9l-0.6-5.4c-0.1-0.7-0.4-1.3-0.9-1.7
								C194.6,280.9,194,280.7,193.4,280.7z"/>
							<path class="st5" d="M161,301.1c-2,0-3.9-0.7-5.5-2c-1.8-1.5-3-3.6-3.2-5.9l-0.6-5.6c-0.3-2.4,1.5-4.5,3.9-4.8l11.4-1.2
								c2.4-0.2,4.5,1.5,4.8,3.9l0.6,5.4c0.3,2.4-0.4,4.8-2,6.6c-1.5,1.9-3.7,3-6.1,3.3h0l-2.3,0.2
								C161.6,301.1,161.3,301.1,161,301.1z M164.2,299.9L164.2,299.9L164.2,299.9z M167.4,283.4c-0.1,0-0.2,0-0.3,0l-11.4,1.2
								c-1.4,0.1-2.4,1.4-2.2,2.7l0.6,5.6c0.2,1.8,1.1,3.5,2.5,4.7s3.3,1.7,5.1,1.5l2.3-0.2c3.9-0.4,6.8-4,6.4-7.9l-0.6-5.4
								C169.7,284.4,168.7,283.4,167.4,283.4z"/>
						</g>
						<path class="st5" d="M174.9,311.1l3.2-0.3c1.5-0.2,2.7-1.1,2.6-2.2l-0.7-6.8l-17.4,2C163.5,313,168.6,311.8,174.9,311.1z"/>
					</g>
				</g>
			</g>
			<g>
				<path class="st3" d="M189.6,248.4h-30.4c-13.6,0-24.7,11.1-24.7,24.7v8.3c-0.1,0-0.2,0-0.3,0l0,0c-4.4,0.7-7.4,4.9-6.7,9.3
					l1.5,9.5c0.7,4.4,4.9,7.4,9.3,6.7c1.2-0.2,2.2-0.6,3.1-1.2l6.5,8.5c1.4,1.9,3.7,3,6.1,3h9.1c0.5,0,0.9-0.4,0.9-0.9
					c0-0.5-0.4-0.9-0.9-0.9H154c-1.8,0-3.5-0.9-4.6-2.3l-6.6-8.6c1.7-1.8,2.6-4.3,2.2-6.8l-1.5-9.5c-0.6-3.4-3.2-6-6.5-6.6V273
					c0-12.2,10-22.2,22.2-22.2h30.4c0.7,0,1.2-0.6,1.2-1.2C190.8,248.9,190.3,248.4,189.6,248.4z"/>
				<g>
					<path class="st10" d="M166.5,318.2h-3.7c-1.1,0-2-0.9-2-2l0,0c0-1.1,0.9-2,2-2h3.7c1.1,0,2,0.9,2,2l0,0
						C168.5,317.3,167.6,318.2,166.5,318.2z"/>
					<path class="st3" d="M166.5,319.1h-3.7c-1.6,0-2.9-1.3-2.9-2.9s1.3-2.9,2.9-2.9h3.7c1.6,0,2.9,1.3,2.9,2.9
						S168.1,319.1,166.5,319.1z M162.9,315.2c-0.6,0-1,0.5-1,1c0,0.6,0.5,1,1,1h3.7c0.6,0,1-0.5,1-1c0-0.6-0.5-1-1-1H162.9z"/>
				</g>
				<g>
					<path class="st3" d="M137,298.9L137,298.9c-1.9,0.3-3.7-1-4-2.9l-0.4-2.3c-0.3-1.9,1-3.7,2.9-4l0,0c1.9-0.3,3.7,1,4,2.9
						l0.4,2.3C140.2,296.8,138.9,298.6,137,298.9z"/>
					<path class="st4" d="M136.4,299.6c-2,0-3.7-1.4-4.1-3.5l-0.4-2.3c-0.4-2.2,1.2-4.3,3.4-4.7c1.1-0.2,2.2,0.1,3.1,0.7
						c0.9,0.6,1.5,1.6,1.6,2.7l0.4,2.3c0.2,1.1-0.1,2.2-0.7,3.1c-0.6,0.9-1.6,1.5-2.7,1.6l0,0C136.9,299.5,136.6,299.6,136.4,299.6z
						 M136.1,290.3c-0.2,0-0.3,0-0.5,0c-0.8,0.1-1.4,0.5-1.9,1.2c-0.5,0.6-0.6,1.4-0.5,2.1l0.4,2.3c0.2,1.6,1.7,2.6,3.3,2.4l0,0
						c1.6-0.2,2.6-1.7,2.4-3.3l-0.4-2.3c-0.1-0.8-0.5-1.4-1.2-1.9C137.2,290.5,136.7,290.3,136.1,290.3z"/>
				</g>
			</g>
		</g>
	</g>
</g>
<g>
	<path class="st10" d="M998.4,191.2h-363c-8,0-14.4,6.5-14.4,14.4v145.2c0,8,6.5,14.4,14.4,14.4h37.3l5,40.9l40.9-40.9h279.9
		c8,0,14.4-6.5,14.4-14.4V205.6C1012.8,197.7,1006.4,191.2,998.4,191.2z"/>
	<path class="st4" d="M895.7,355.3c-42,0-76.1-34.2-76.1-76.1s34.1-76.1,76.1-76.1c42,0,76.1,34.1,76.1,76.1
		S937.6,355.3,895.7,355.3z M895.7,205.5c-40.6,0-73.6,33-73.6,73.6c0,40.6,33,73.6,73.6,73.6c40.6,0,73.6-33,73.6-73.6
		C969.3,238.6,936.3,205.5,895.7,205.5z"/>
	<path class="st5" d="M791.9,243.6H663.7c-0.7,0-1.2-0.6-1.2-1.2c0-0.7,0.6-1.2,1.2-1.2h128.2c0.7,0,1.2,0.6,1.2,1.2
		C793.1,243,792.6,243.6,791.9,243.6z"/>
	<path class="st5" d="M791.9,300.7H663.7c-0.7,0-1.2-0.6-1.2-1.2c0-0.7,0.6-1.2,1.2-1.2h128.2c0.7,0,1.2,0.6,1.2,1.2
		C793.1,300.1,792.6,300.7,791.9,300.7z"/>
	<path class="st5" d="M791.9,272.6h-64.1c-0.7,0-1.2-0.6-1.2-1.2c0-0.7,0.6-1.2,1.2-1.2h64.1c0.7,0,1.2,0.6,1.2,1.2
		C793.1,272.1,792.6,272.6,791.9,272.6z"/>
	<path class="st5" d="M791.9,323.8h-64.1c-0.7,0-1.2-0.6-1.2-1.2c0-0.7,0.6-1.2,1.2-1.2h64.1c0.7,0,1.2,0.6,1.2,1.2
		C793.1,323.2,792.6,323.8,791.9,323.8z"/>
	<path class="st5" d="M708.7,272.6h-43.4c-0.7,0-1.2-0.6-1.2-1.2c0-0.7,0.6-1.2,1.2-1.2h43.4c0.7,0,1.2,0.6,1.2,1.2
		C709.9,272.1,709.4,272.6,708.7,272.6z"/>
	<g>
		<path class="st3" d="M963.4,265.8L963.4,265.8l-17.9-72l-4.8,1.6l-19.3,6.6l-3.6,1.2l6.3,28.5c-1.3-0.1-2.6-0.2-3.9-0.2l-56.2,0.2
			c-18.3,0.1-33.6,14.5-35.8,33.8l-0.7,6c-3.4,30.3,13.5,60,42.1,70.7c1.2,0.5,2.4,0.9,3.7,1.3c30.6,9.7,64.6-3,81.4-30.4
			c5.5-8.9,8.7-18.4,10-28C965.4,278.5,965,271.9,963.4,265.8z"/>
		<g>
			<path class="st3" d="M911.3,173.3l-2-27.5c-0.1-0.8-0.2-1.6-0.3-2.3c0.2-1.1,0.3-2.2,0.3-3.3c0-9.7-7.8-17.5-17.5-17.5
				c-4.6,0-8.8,1.8-11.9,4.7c-3.4-3.8-8.3-6.2-13.8-6.2c-9.2,0-16.8,6.8-18.2,15.6c-6.4,1.3-11,7.3-10.3,13.9
				c0.5,4.8,3.6,8.7,7.7,10.5l1.2,16.8c0.8,11,11,19.2,22.9,18.4l21.8-1.6C903.2,193.9,912.1,184.3,911.3,173.3z"/>
			<g>
				<path class="st11" d="M907.8,182.2c5.1-0.4,8.8-4.9,8.4-10c-0.4-5.1-4.9-8.8-10-8.4l-1,0.1l-0.7-8.9c-0.1-0.6-0.2-1.3-0.3-1.9
					c-2,3.5-5.6,6.1-9.9,6.5c-6.1,0.6-11.7-3.2-13.6-8.8c-3.1,3.9-7.6,6.6-13,7.1c-5.8,0.6-11.3-1.5-15.2-5.3
					c-1,2.2-1.4,4.5-1.2,6.8l1,12.3c-0.1,1.1-0.2,2.2-0.1,3.4l1.5,24.6c0.5,8.6,6,15.7,13.5,18.7l2.6,13.8
					c2.4,13.1,13.9,22,25.6,19.9c11.7-2.2,19.2-14.6,16.8-27.7l-5-32.2l-0.6-10L907.8,182.2z"/>
				<path class="st12" d="M887.3,219.4l-10.8,0.7c-2,0.1-4-0.1-5.9-0.5c3.8,4.7,12.3,6.7,21.2,4.5v0c10.9-2.7,18.3-10.7,16.5-17.8
					l-1.1-4.8C905.6,211.1,897.5,218.7,887.3,219.4z"/>
			</g>
			<path class="st12" d="M911.3,173c-0.2-2.7-2.6-4.7-5.8-5.3l0.2,1.9c0.1,0.8,0.2,1.6,0.3,2.4l0.4,7.3
				C909.4,178.1,911.5,175.7,911.3,173z"/>
			<g>
				<path class="st3" d="M862.2,177.5L862.2,177.5c-0.7,0.1-1.3-0.5-1.4-1.2l-0.2-2.6c-0.1-0.7,0.5-1.3,1.2-1.4l0,0
					c0.7-0.1,1.3,0.5,1.4,1.2l0.2,2.6C863.4,176.8,862.9,177.5,862.2,177.5z"/>
				<path class="st3" d="M885.2,176.1L885.2,176.1c-0.7,0.1-1.3-0.5-1.4-1.2l-0.2-2.6c-0.1-0.7,0.5-1.3,1.2-1.4l0,0
					c0.7-0.1,1.3,0.5,1.4,1.2l0.2,2.6C886.4,175.4,885.9,176.1,885.2,176.1z"/>
				<g>
					<g>
						<path class="st3" d="M855.7,167.8c0.2-0.7,0.9-1.1,1.5-1.7c0.6-0.5,1.2-1,1.7-1.5c0.5-0.5,1.1-1,1.6-1.6
							c0.5-0.6,1.1-1.2,1.8-1.4c0.7-0.2,1.5,0.3,1.9,1.6c0.3,1.2,0,3.2-1.7,4.8c-1.7,1.6-3.8,1.9-5.1,1.6
							C855.9,169.2,855.5,168.4,855.7,167.8z"/>
					</g>
				</g>
				<g>
					<g>
						<path class="st3" d="M891.3,167.4c-0.7,0.3-1.6,0.1-2.4,0c-0.9-0.2-1.7-0.3-2.5-0.4c-0.8-0.1-1.6-0.1-2.5-0.2
							c-0.9-0.1-1.8,0-2.4-0.5c-0.6-0.5-0.9-1.6-0.1-2.8c0.7-1.2,2.6-2.4,5.2-2.1c2.5,0.3,4.4,1.9,5.1,3.3
							C892.2,166.1,891.9,167.1,891.3,167.4z"/>
					</g>
				</g>
				<path class="st3" d="M872.4,189.2c-1.4,0-2.7-0.6-3.6-1.7c-1-1.2-1.3-2.8-0.9-4.2l3.6-12.5c0.1-0.4,0.5-0.6,0.9-0.5
					c0.4,0.1,0.6,0.5,0.5,0.9l-3.6,12.5c-0.3,1-0.1,2.1,0.6,2.9c0.7,0.8,1.7,1.2,2.7,1.2l6.6-0.6c0.4,0,0.7,0.3,0.8,0.7
					c0,0.4-0.3,0.7-0.7,0.8l-6.6,0.6C872.7,189.1,872.5,189.2,872.4,189.2z"/>
				<path class="st5" d="M886.7,201.3l-3.2,1.5c-1.5,0.7-3.2,0.4-3.7-0.6l-3.1-6.8l17.5-7.8C898.4,196.7,893,198.4,886.7,201.3z"/>
			</g>
		</g>
		<g>
			<g>
				<g>
					<polygon class="st5" points="868.2,230.8 856.8,247.8 881.9,268.6 891.3,249.7 					"/>
					<polygon class="st5" points="913.6,230.8 924.9,247.8 899.9,268.6 890.4,249.7 					"/>
				</g>
			</g>
		</g>
		<g>
			<path class="st13" d="M910.3,201.6l-3-0.2c-1.1-0.1-2-1.1-1.9-2.2l2.9-39.6c0.1-1.1,1.1-2,2.2-1.9l3,0.2c1.1,0.1,2,1.1,1.9,2.2
				l-2.9,39.6C912.4,200.8,911.4,201.7,910.3,201.6z"/>
			<g>
				<path class="st11" d="M919.4,166.6c0,0-8.7-3.4-9.6,4.2c-0.6,4.8,0.3,5.5,1,5.4c-0.9,0.7-2.1,2.4-1.2,6.8c1,5,2.2,4.9,2.8,4.6
					c-1.1,1-5,4.8-0.8,9c1.6,1.6,5.4,3.5,9.7,5.4l19.3-6.6C939.3,183.1,934.6,167,919.4,166.6z"/>
				<g>
					<path class="st3" d="M913,177c-0.9,0-1.8-0.1-2.7-0.3c-0.3-0.1-0.5-0.4-0.5-0.7c0.1-0.3,0.4-0.5,0.7-0.5c3.2,0.7,7-0.4,7-0.4
						c0.3-0.1,0.7,0.1,0.8,0.4c0.1,0.3-0.1,0.7-0.4,0.8C917.9,176.4,915.6,177,913,177z"/>
					<path class="st3" d="M913,188.5c-0.9,0-1.8-0.1-2.7-0.3c-0.3-0.1-0.5-0.4-0.5-0.7c0.1-0.3,0.4-0.5,0.7-0.5c3.2,0.7,7-0.4,7-0.4
						c0.3-0.1,0.7,0.1,0.8,0.4c0.1,0.3-0.1,0.7-0.4,0.8C917.9,187.9,915.6,188.5,913,188.5z"/>
				</g>
			</g>
		</g>
	</g>
</g>
<g>
	<g>
		<g>
			<g>
				<path class="st1" d="M777.3,85.5H705c-1.3,0-2.3,1.2-2.3,2.6v60c0,2.5,1.8,4.6,4.1,4.6h27.9c0.3,0,0.6,0.2,0.9,0.4l23.2,27.8
					c0.7,0.9,2,0.3,2-1v-25.8c0-0.8,0.5-1.4,1.2-1.4h15.4c2.1,0,3.8-2,3.8-4.5V90C781.1,87.5,779.4,85.5,777.3,85.5z"/>
			</g>
		</g>
	</g>
	<g>
		<path class="st5" d="M732.7,107.2c-2,0-3.6-2.1-2.9-4c2.1-6,8.5-9.9,15.4-8.2c3,0.7,5.6,2.6,7.3,5.1c3.9,5.8,2.5,12.9-2.1,16.9
			l-5.6,4.9l0,2c0,1.7-1.4,3-3.1,2.9l-1.3,0c-1.2,0-2.1-1-2.1-2.2l0.1-3.2c0-1.6,0.7-3.1,1.9-4.1l5.8-5.1c1.7-1.5,2.5-3.8,2.1-6.2
			c-0.4-2.2-2.1-4.1-4.3-4.8c-3.5-1.1-6.8,0.8-8,3.7C735.4,106.3,734.1,107.2,732.7,107.2L732.7,107.2z"/>
		<path class="st5" d="M741.3,133.2L741.3,133.2c1.8,0,3.2,1.5,3.1,3.3l0,0c0,1.8-1.5,3.2-3.3,3.1l0,0c-1.8,0-3.2-1.5-3.1-3.3l0,0
			C738.1,134.6,739.5,133.2,741.3,133.2z"/>
	</g>
	<g>
		<g>
			<path class="st10" d="M259.4,136.1h72.3c1.3,0,2.3,1.2,2.3,2.6v60c0,2.5-1.8,4.6-4.1,4.6h-27.9c-0.3,0-0.6,0.2-0.9,0.4L278,231.6
				c-0.7,0.9-2,0.3-2-1v-25.8c0-0.8-0.5-1.4-1.2-1.4h-15.4c-2.1,0-3.8-2-3.8-4.5v-58.2C255.6,138.2,257.3,136.1,259.4,136.1z"/>
		</g>
		<g>
			<path class="st5" d="M301.1,179.8L301.1,179.8c1,0,1.8,0.8,1.8,1.7v3.6c0,0.9-0.8,1.7-1.7,1.7h-12.7c-0.9,0-1.7-0.8-1.7-1.7v-3.5
				c0-0.9,0.8-1.7,1.7-1.7h0c0.9,0,1.7-0.8,1.7-1.7v-10.5c0-0.9-0.8-1.7-1.7-1.7l0,0c-0.9,0-1.7-0.8-1.7-1.7v-3.6
				c0-0.9,0.8-1.7,1.7-1.7h9.3c0.9,0,1.7,0.8,1.7,1.7v17.4C299.4,179,300.2,179.8,301.1,179.8z"/>
			<path class="st5" d="M294.6,147.8L294.6,147.8c2,0,3.6,1.6,3.6,3.6l0,0c0,2-1.6,3.6-3.6,3.6l0,0c-2,0-3.6-1.6-3.6-3.6l0,0
				C291,149.4,292.6,147.8,294.6,147.8z"/>
		</g>
	</g>
</g>
<g>
	<path class="st5" d="M727.4,422.5v-10.8c0-3.2,3.3-5.7,7.5-5.7h161.3c4.1,0,7.5,2.6,7.5,5.7v107.1c0,3.2-3.3,5.7-7.5,5.7H734.9
		c-4.1,0-7.5-2.6-7.5-5.7v-17.2"/>
	<g>
		<path class="st1" d="M727.4,428.5v-16.8c0-3.2,3.3-5.7,7.5-5.7h161.3c4.1,0,7.5,2.6,7.5,5.7v16.1"/>
		<path class="st3" d="M728.7,428.5h-2.5v-16.8c0-3.8,3.9-7,8.7-7h161.3c4.8,0,8.7,3.1,8.7,7v16.1h-2.5v-16.1c0-2.5-2.8-4.5-6.2-4.5
			H734.9c-3.4,0-6.2,2-6.2,4.5V428.5z"/>
	</g>
	<g>
		<path class="st10" d="M902.6,427.8H727.4H902.6z"/>
		<rect x="727.4" y="426.8" class="st3" width="175.1" height="1.9"/>
	</g>
	<path class="st5" d="M740.1,421.8c-2.2,0-4-1.8-4-4c0-2.2,1.8-4,4-4c2.2,0,4,1.8,4,4C744.1,420,742.3,421.8,740.1,421.8z
		 M740.1,416.3c-0.8,0-1.5,0.7-1.5,1.5c0,0.8,0.7,1.5,1.5,1.5c0.8,0,1.5-0.7,1.5-1.5C741.7,417,741,416.3,740.1,416.3z"/>
	<path class="st5" d="M750.5,421.8c-2.2,0-4-1.8-4-4c0-2.2,1.8-4,4-4c2.2,0,4,1.8,4,4C754.5,420,752.7,421.8,750.5,421.8z
		 M750.5,416.3c-0.8,0-1.5,0.7-1.5,1.5c0,0.8,0.7,1.5,1.5,1.5c0.8,0,1.5-0.7,1.5-1.5C752.1,417,751.4,416.3,750.5,416.3z"/>
	<path class="st5" d="M760.7,421.8c-2.2,0-4-1.8-4-4c0-2.2,1.8-4,4-4c2.2,0,4,1.8,4,4C764.7,420,762.9,421.8,760.7,421.8z
		 M760.7,416.3c-0.8,0-1.5,0.7-1.5,1.5c0,0.8,0.7,1.5,1.5,1.5c0.8,0,1.5-0.7,1.5-1.5C762.3,417,761.6,416.3,760.7,416.3z"/>
	<g>
		<line class="st10" x1="763.5" y1="457.6" x2="876.8" y2="457.6"/>
		<path class="st3" d="M876.8,458.5H763.5c-0.5,0-0.9-0.4-0.9-0.9c0-0.5,0.4-0.9,0.9-0.9h113.3c0.5,0,0.9,0.4,0.9,0.9
			C877.8,458.1,877.3,458.5,876.8,458.5z"/>
	</g>
	<g>
		<line class="st10" x1="763.5" y1="485.2" x2="820.2" y2="485.2"/>
		<path class="st3" d="M820.2,486.1h-56.7c-0.5,0-0.9-0.4-0.9-0.9s0.4-0.9,0.9-0.9h56.7c0.5,0,0.9,0.4,0.9,0.9
			S820.7,486.1,820.2,486.1z"/>
	</g>
	<g>
		<line class="st10" x1="763.5" y1="471.6" x2="805.8" y2="471.6"/>
		<path class="st3" d="M805.8,472.5h-42.3c-0.5,0-0.9-0.4-0.9-0.9c0-0.5,0.4-0.9,0.9-0.9h42.3c0.5,0,0.9,0.4,0.9,0.9
			C806.7,472.1,806.3,472.5,805.8,472.5z"/>
	</g>
	<g>
		<line class="st10" x1="834.5" y1="471.6" x2="876.8" y2="471.6"/>
		<path class="st3" d="M876.8,472.5h-42.3c-0.5,0-0.9-0.4-0.9-0.9c0-0.5,0.4-0.9,0.9-0.9h42.3c0.5,0,0.9,0.4,0.9,0.9
			C877.8,472.1,877.3,472.5,876.8,472.5z"/>
	</g>
</g>
<g>
	<path class="st5" d="M409.4,84.3v-9.4c0-2.7,2.9-5,6.5-5h140.1c3.6,0,6.5,2.2,6.5,5v93c0,2.7-2.9,5-6.5,5H415.9
		c-3.6,0-6.5-2.2-6.5-5v-14.9"/>
	<g>
		<path class="st7" d="M409.4,89.5V74.9c0-2.7,2.9-5,6.5-5h140.1c3.6,0,6.5,2.2,6.5,5v14"/>
		<path class="st3" d="M410.6,89.5h-2.5V74.9c0-3.4,3.5-6.2,7.7-6.2h140.1c4.3,0,7.7,2.8,7.7,6.2v14h-2.5v-14c0-2-2.4-3.7-5.2-3.7
			H415.9c-2.8,0-5.2,1.7-5.2,3.7V89.5z"/>
	</g>
	<g>
		<path class="st10" d="M561.5,88.8H409.4H561.5z"/>
		<rect x="409.4" y="87.9" class="st3" width="152.1" height="1.9"/>
	</g>
	<path class="st5" d="M420.4,83.8c-2,0-3.6-1.6-3.6-3.6c0-2,1.6-3.6,3.6-3.6c2,0,3.6,1.6,3.6,3.6C424.1,82.2,422.5,83.8,420.4,83.8z
		 M420.4,79c-0.6,0-1.2,0.5-1.2,1.2s0.5,1.2,1.2,1.2c0.6,0,1.2-0.5,1.2-1.2S421.1,79,420.4,79z"/>
	<path class="st5" d="M429.5,83.8c-2,0-3.6-1.6-3.6-3.6c0-2,1.6-3.6,3.6-3.6c2,0,3.6,1.6,3.6,3.6C433.1,82.2,431.5,83.8,429.5,83.8z
		 M429.5,79c-0.6,0-1.2,0.5-1.2,1.2s0.5,1.2,1.2,1.2c0.6,0,1.2-0.5,1.2-1.2S430.1,79,429.5,79z"/>
	<path class="st5" d="M438.3,83.8c-2,0-3.6-1.6-3.6-3.6c0-2,1.6-3.6,3.6-3.6c2,0,3.6,1.6,3.6,3.6C442,82.2,440.3,83.8,438.3,83.8z
		 M438.3,79c-0.6,0-1.2,0.5-1.2,1.2s0.5,1.2,1.2,1.2c0.6,0,1.2-0.5,1.2-1.2S439,79,438.3,79z"/>
	<g>
		<line class="st10" x1="438.3" y1="114.7" x2="536.7" y2="114.7"/>
		<path class="st3" d="M536.7,115.6h-98.4c-0.5,0-0.9-0.4-0.9-0.9c0-0.5,0.4-0.9,0.9-0.9h98.4c0.5,0,0.9,0.4,0.9,0.9
			C537.6,115.2,537.2,115.6,536.7,115.6z"/>
	</g>
	<g>
		<line class="st10" x1="438.3" y1="138.7" x2="487.5" y2="138.7"/>
		<path class="st3" d="M487.5,139.6h-49.2c-0.5,0-0.9-0.4-0.9-0.9c0-0.5,0.4-0.9,0.9-0.9h49.2c0.5,0,0.9,0.4,0.9,0.9
			C488.4,139.2,488,139.6,487.5,139.6z"/>
	</g>
	<g>
		<line class="st10" x1="438.3" y1="126.9" x2="475" y2="126.9"/>
		<path class="st3" d="M475,127.8h-36.7c-0.5,0-0.9-0.4-0.9-0.9c0-0.5,0.4-0.9,0.9-0.9H475c0.5,0,0.9,0.4,0.9,0.9
			C475.9,127.4,475.5,127.8,475,127.8z"/>
	</g>
	<g>
		<line class="st10" x1="499.9" y1="126.9" x2="536.7" y2="126.9"/>
		<path class="st3" d="M536.7,127.8h-36.7c-0.5,0-0.9-0.4-0.9-0.9c0-0.5,0.4-0.9,0.9-0.9h36.7c0.5,0,0.9,0.4,0.9,0.9
			C537.6,127.4,537.2,127.8,536.7,127.8z"/>
	</g>
</g>
</svg>
