<?xml version="1.0" encoding="utf-8"?>
<!-- Generator: Adobe Illustrator 23.0.2, SVG Export Plug-In . SVG Version: 6.00 Build 0)  -->
<svg version="1.1" id="daa92041-3bd8-464c-9c92-61b3fade74bd"
	 xmlns="http://www.w3.org/2000/svg" xmlns:xlink="http://www.w3.org/1999/xlink" x="0px" y="0px" viewBox="0 0 798.8 755.2"
	 style="enable-background:new 0 0 798.8 755.2;" xml:space="preserve">
<style type="text/css">
	.st0{clip-path:url(#SVGID_2_);}
	.st1{fill:#E3EEFF;}
	.st2{fill:#A7CDF2;}
	.st3{fill:#AACEF2;}
	.st4{fill:#485194;}
	.st5{fill:#FFFFFF;}
	.st6{opacity:0.65;}
	.st7{fill:#4F627B;}
	.st8{fill:#CBCBCB;}
	.st9{fill:#FF90C6;}
	.st10{fill:#353B6E;}
	.st11{fill:#9082B5;}
	.st12{fill:#DDDDDD;}
	.st13{fill:#FF78BA;}
	.st14{fill:#F1F1F2;}
	.st15{fill:#FF73B7;}
	.st16{fill:#CDE2FF;}
	.st17{fill:#272E56;}
	.st18{fill:#FFD5C0;}
	.st19{fill:#404884;}
	.st20{fill:#423565;}
	.st21{fill:#F0EDE6;}
	.st22{fill:#FB911A;}
</style>
<title>mail_2</title>
<g id="Background-5" transform="translate(82.627 232.219)">
	<g>
		<defs>
			<rect id="SVGID_1_" x="-165" y="-179.7" width="849.5" height="697.1"/>
		</defs>
		<clipPath id="SVGID_2_">
			<use xlink:href="#SVGID_1_"  style="overflow:visible;"/>
		</clipPath>
		<g id="Group_3_1_" class="st0">
			<path id="Path_5_1_" class="st1" d="M663,135.7C628.5,36.6,540.7,6.3,483.6,49.1c-85.9,64.3-118.5-134.3-184.1-181.2
				c-53.6-38.4-138-32.5-167.6,58.1c-28.7,87.9,13.4,196.5-20.7,253.3c-40.9,68.1-124.8-22.6-159.5,73.3c-2.7,7-4.8,14.4-6.3,22.1
				c-23.1,102.4,82.5,159.7,174.4,224.9c16.6,11.8,285.6,180.2,435.2-3.6C707.3,309.1,688.9,210,663,135.7z"/>
		</g>
	</g>
</g>
<g id="Plant-11">
	<path id="Path_6_1_" class="st2" d="M316.7,746c0,0-12.7-132.3-39.1-166.8c-26.5-34.5-63.3,11.5-24.2,115c0,0-85.1-226.6-130-169.1
		c-44.9,57.5,38,132.3,64.4,158.8c0,0-119.6-88.6-125.4-24.2s132.3,87.4,132.3,87.4L316.7,746z"/>
</g>
<g id="Plant-12">
	<path id="Path_7_1_" class="st3" d="M517.8,750.3c0,0,6.3-93.1,19.3-117.4s31.3,8.1,11.9,80.9c0,0,42.1-159.5,64.3-119
		c22.2,40.5-18.8,93.1-31.9,111.7c0,0,59.2-62.3,62-17c2.8,45.3-65.4,61.5-65.4,61.5L517.8,750.3z"/>
</g>
<g id="Phone-2_1_" transform="translate(1110.807 771.067)">
	<g id="Group_54_1_">
		<g id="Group_50_1_">
			<path id="Path_1645" class="st4" d="M-810.8-529.8h214.5c8.7,0,15.7,7,15.7,15.7c0,0,0,0,0,0v478.3c0,8.7-7,15.7-15.7,15.7l0,0
				h-214.5c-8.7,0-15.7-7-15.7-15.7v-478.3C-826.4-522.8-819.4-529.8-810.8-529.8z"/>
			<g id="Group_35_1_" transform="translate(21.034 110.5)">
				<path id="Path_42_1_" class="st5" d="M-613.3-579.3h-222.6v255.2l222.6-221V-579.3z"/>
				<path id="Path_43_1_" class="st5" d="M-835.9-324.1v132.8h222.6v-353.8L-835.9-324.1z"/>
			</g>
			<g id="Group_49_1_" transform="translate(21.913 111.444)" class="st6">
				<g id="Group_36_1_" transform="translate(374.534 102.993)">
					<path id="Rectangle_4_1_" class="st7" d="M-1003.9-625.8h10.9c0,0,0.1,0,0.1,0.1v0.5c0,0,0,0.1-0.1,0.1h-10.9
						c0,0-0.1,0-0.1-0.1L-1003.9-625.8C-1004-625.8-1004-625.8-1003.9-625.8z"/>
					<path id="Rectangle_5_1_" class="st7" d="M-1003.9-623.4h10.9c0,0,0.1,0,0.1,0.1v0.5c0,0,0,0.1-0.1,0.1h-10.9
						c0,0-0.1,0-0.1-0.1L-1003.9-623.4C-1004-623.3-1004-623.4-1003.9-623.4z"/>
					<path id="Rectangle_6_1_" class="st7" d="M-1003.9-620.9h10.9c0,0,0.1,0,0.1,0.1v0.5c0,0,0,0.1-0.1,0.1h-10.9
						c0,0-0.1,0-0.1-0.1L-1003.9-620.9C-1004-620.9-1004-620.9-1003.9-620.9z"/>
					<path id="Rectangle_7_1_" class="st7" d="M-1003.9-618.5h10.9c0,0,0.1,0,0.1,0.1v0.5c0,0,0,0.1-0.1,0.1h-10.9
						c0,0-0.1,0-0.1-0.1L-1003.9-618.5C-1004-618.4-1004-618.5-1003.9-618.5z"/>
				</g>
				<g id="Group_38_1_">
					<g id="Group_37_1_">
						<rect id="Rectangle_8_1_" x="-836.2" y="-579.7" class="st8" width="221.6" height="358.9"/>
						<path id="Path_44_1_" class="st9" d="M-615.1-579.2v357.9h-220.6v-357.9H-615.1"/>
					</g>
				</g>
				<rect id="Rectangle_9_1_" x="-835.8" y="-579.2" class="st8" width="220.6" height="14.1"/>
				<g id="Group_43_1_" transform="translate(257.043 7.419)">
					<g id="Group_40_1_" transform="translate(0 1.055)">
						<g id="Group_39_1_">
							<path id="Path_45_1_" class="st10" d="M-948.1-583.5c-1.2,0-2.4,0.5-3.3,1.4l3.3,4.8l3.3-4.8
								C-945.6-583-946.8-583.5-948.1-583.5z"/>
						</g>
						<path id="Path_46_1_" class="st11" d="M-950.7-581.2l2.6,3.8l2.6-3.8C-947-582.3-949.1-582.3-950.7-581.2z"/>
					</g>
					<g id="Group_41_1_" transform="translate(20.918 3.664)">
						<path id="Path_47_1_" class="st11" d="M-960.7-579.9h6.2v-4.8L-960.7-579.9z"/>
						<path id="Path_48_1_" class="st10" d="M-956.1-583.5v3.6h1.5v-4.8L-956.1-583.5z"/>
					</g>
					<g id="Group_42_1_" transform="translate(47.835)">
						<path id="Path_49_1_" class="st10" d="M-970.7-582.7v-0.3h-0.9v0.3h-1.2v6.5h3.4v-6.5H-970.7z"/>
						<rect id="Rectangle_10_1_" x="-972.8" y="-580.2" class="st11" width="3.4" height="4"/>
					</g>
				</g>
				<rect id="Rectangle_11_1_" x="-835.8" y="-565.1" class="st5" width="220.6" height="45.1"/>
				<path id="Path_1623_1_" class="st12" d="M-801.4-558.8H-660v10.1h-141.4V-558.8z"/>
				<rect id="Rectangle_13_1_" x="-835.8" y="-497.2" class="st5" width="220.6" height="304.4"/>
				<g id="Group_44_1_" transform="translate(16.534 40.663)">
					<path id="Rectangle_14_1_" class="st11" d="M-843.6-597.9h14.2c0,0,0.1,0,0.1,0.1v0.7c0,0,0,0.1-0.1,0.1h-14.2
						c0,0-0.1,0-0.1-0.1L-843.6-597.9C-843.7-597.9-843.6-597.9-843.6-597.9z"/>
					<path id="Rectangle_15_1_" class="st11" d="M-843.6-594.8h14.2c0,0,0.1,0,0.1,0.1v0.7c0,0,0,0.1-0.1,0.1h-14.2
						c0,0-0.1,0-0.1-0.1L-843.6-594.8C-843.7-594.7-843.6-594.8-843.6-594.8z"/>
					<path id="Rectangle_16_1_" class="st11" d="M-843.6-591.6h14.2c0,0,0.1,0,0.1,0.1v0.7c0,0,0,0.1-0.1,0.1h-14.2
						c0,0-0.1,0-0.1-0.1L-843.6-591.6C-843.7-591.6-843.6-591.6-843.6-591.6z"/>
				</g>
				<circle id="Ellipse_1_1_" class="st13" cx="-728.9" cy="-393.9" r="53.7"/>
				<g id="Group_45_1_" transform="translate(118.756 288.491)">
					<path id="Path_50_1_" class="st14" d="M-857.9-661.1c-2.9,0-5.2,2.3-5.2,5.2c0,2.9,2.3,5.2,5.2,5.2c2.9,0,5.2-2.3,5.2-5.2
						c0,0,0,0,0,0C-852.8-658.8-855.1-661.1-857.9-661.1C-857.9-661.1-857.9-661.1-857.9-661.1z M-857.9-654c-1.1,0-2-0.9-2-2
						c0-1.1,0.9-2,2-2s2,0.9,2,2v0C-855.9-654.8-856.8-654-857.9-654L-857.9-654z"/>
					<path id="Path_51_1_" class="st14" d="M-832-661.1c-2.9,0-5.2,2.3-5.2,5.2s2.3,5.2,5.2,5.2s5.2-2.3,5.2-5.2
						S-829.1-661.1-832-661.1L-832-661.1z M-832-654c-1.1,0-2-0.9-2-2c0-1.1,0.9-2,2-2s2,0.9,2,2v0C-830-654.8-830.9-654-832-654
						L-832-654z"/>
					<path id="Path_52_1_" class="st14" d="M-862.6-662.9l-16.9-42.6h-9.9v-3.4h12.2l4,10h57l-5.2,19.3L-863-673l2.6,6.6h35.4v3.4
						L-862.6-662.9z M-864.2-676.2l40-6.4l3.5-12.9h-51.2L-864.2-676.2z"/>
				</g>
				<rect id="Rectangle_18_1_" x="-796.8" y="-303.4" class="st15" width="142.7" height="20.8"/>
				<rect id="Rectangle_19_1_" x="-796.8" y="-270.1" class="st15" width="142.7" height="20.8"/>
				<g id="Group_46_1_" transform="translate(79.002 510.092)">
					<path id="Path_53_1_" class="st14" d="M-871.6-798.4v-0.3c0-0.3,0-0.5,0.1-0.8l0-0.1c0.1-0.6,0.3-1.1,0.5-1.6l0.1-0.2
						c0.4-0.9,1.2-1.6,2.1-2c-1.2-0.7-1.6-2.3-0.9-3.5s2.3-1.6,3.5-0.9c1.2,0.7,1.6,2.3,0.9,3.5c-0.2,0.4-0.5,0.7-0.9,0.9
						c0.9,0.4,1.7,1.1,2.1,2l0.1,0.2c0.2,0.5,0.4,1.1,0.5,1.6l0,0.1c0,0.3,0.1,0.5,0.1,0.8v0.3H-871.6z M-864.1-799
						c-0.1-2.3-1.6-4.1-3.4-4.1h-0.1c-1.8,0-3.3,1.8-3.4,4.1H-864.1z M-867.6-807.5c-1.1,0-1.9,0.8-1.9,1.9c0,1.1,0.8,1.9,1.9,1.9
						l0,0h0h0c1.1,0,1.9-0.9,1.9-1.9C-865.6-806.7-866.5-807.5-867.6-807.5L-867.6-807.5z"/>
				</g>
				<g id="Group_48_1_" transform="translate(80.114 569.893)">
					<g id="Group_47_1_">
						<path id="Path_54_1_" class="st14" d="M-872.1-824.3v-6.9h1.1v-1.4c0-1.3,1-2.3,2.3-2.3c1.3,0,2.3,1,2.3,2.3v1.4h1.1v6.9
							H-872.1z M-865.8-824.9v-5.8h-5.8v5.8L-865.8-824.9z M-866.9-831.2v-1.4c0-1-0.8-1.7-1.7-1.7s-1.7,0.8-1.7,1.7v1.4H-866.9z"/>
						<path id="Path_55_1_" class="st14" d="M-868.7-829.5c-0.5,0-1,0.4-1,1c0,0.3,0.1,0.6,0.4,0.7v1.7h1.2v-1.7
							c0.2-0.2,0.4-0.4,0.4-0.7C-867.7-829.1-868.1-829.5-868.7-829.5z M-868.3-828L-868.3-828l-0.1,1.6h-0.6v-1.6l-0.1,0
							c-0.2-0.1-0.3-0.3-0.3-0.5c0-0.4,0.3-0.7,0.7-0.7c0.4,0,0.7,0.3,0.7,0.7C-868-828.4-868.1-828.1-868.3-828L-868.3-828z"/>
					</g>
				</g>
				<rect id="Rectangle_20_1_" x="-648.4" y="-575.6" class="st11" width="22.5" height="6.9"/>
			</g>
		</g>
		<g id="Group_53_1_" transform="translate(144.751 25.359)">
			<circle id="Ellipse_2_1_" class="st5" cx="-848.3" cy="-77.1" r="18"/>
			<g id="Group_52_1_">
				<g id="Group_51_1_" transform="translate(39.443)">
					<path id="Path_56_1_" class="st5" d="M-868.2-520.6h-39.1c-0.9,0-1.7-0.7-1.7-1.7l0,0c0-0.9,0.7-1.7,1.7-1.7h39.1
						c0.9,0,1.7,0.7,1.7,1.7l0,0C-866.5-521.4-867.3-520.6-868.2-520.6z"/>
					<path id="Path_57_1_" class="st5" d="M-885.4-538.8c0-1.3-1-2.3-2.3-2.3s-2.3,1-2.3,2.3c0,1.3,1,2.3,2.3,2.3c0,0,0,0,0,0
						C-886.4-536.5-885.4-537.5-885.4-538.8C-885.4-538.8-885.4-538.8-885.4-538.8z"/>
				</g>
				<circle id="Ellipse_3_1_" class="st5" cx="-887" cy="-522.3" r="4.3"/>
			</g>
		</g>
	</g>
</g>
<g id="Cloud-7_1_">
	<path id="Path_62_1_" class="st5" d="M574.5,542.3h157.9c0,0-12.6-90-46.6-32.1c0,0-28.9-79.3-59.1,4.4
		C626.7,514.7,574.5,497.1,574.5,542.3z"/>
</g>
<g id="Cloud-8_1_">
	<path id="Path_63_1_" class="st16" d="M161.5,384.2H28c0,0,10.6-76,39.3-27.1c0,0,24.5-67,50,3.7
		C117.3,360.8,161.5,346,161.5,384.2z"/>
</g>
<g id="Cloud-9_1_">
	<path id="Path_64_1_" class="st16" d="M618.9,212.3h98.5c0,0-3.9-47.1-39.6-21.8c0,0-17.8-38.5-31.8,5.7
		C646,196.2,618.9,179.4,618.9,212.3z"/>
</g>
<g id="Person-7_1_" transform="translate(1251.937 341.684)">
	<path id="Path_65_1_" class="st10" d="M-780.7,113.3l-11.2,24.6l16.8,7c17.6,7.2,15.2,16,12.8,17l-13-2.1l-27.9-6
		c-5.3-1.1-8.7-6.3-7.5-11.6c0.1-0.3,0.1-0.6,0.2-0.8l12-39.2L-780.7,113.3z"/>
	<path id="Path_66_1_" class="st15" d="M-808-103.5c0,0,118.3-20.1,108.2,32.3s-62.5,155.6-73,194.6l-30.2-9.2
		c0,0,12.6-44,16.4-68.8s18.5-82.2,28.5-103.2c0,0-148.1,54.9-127.9-55.4L-808-103.5z"/>
	<g id="Group_65_1_" transform="translate(155.415 117.869)">
		<path id="Path_67_1_" class="st17" d="M-922.7-252.2c0,0,18.9-22.4,19.1-35.4l-21.2-4.8C-924.8-292.4-927.3-265.8-922.7-252.2z"/>
		<path id="Path_68_1_" class="st18" d="M-936.6-347.6c8.9,4.2,28.7,49.7,35,64.5c0.4,1,1.6,1.5,2.6,1.1c0.5-0.2,0.9-0.6,1.1-1.1
			c4.8-13.2,21.9-45.6,28.5-63.4c6.9-18.6,38.5-41.4,15.1,13.6c-7.2,16.8-24.1,86.2-40.5,86.6c-15.7,0.4-34.6-22.4-56.2-56.8
			S-936.6-347.6-936.6-347.6z"/>
		<path id="Path_69_1_" class="st19" d="M-933.6-357.2c0,0,6.9-2.8,13.2,17.6c6.3,20.4,17.6,51.9,17.6,51.9s-18.6,13.8-19.9,36.4
			c0,0-27.3-35.8-32.9-50.5C-961.3-316.6-964.1-361.6-933.6-357.2z"/>
		<path id="Path_70_1_" class="st18" d="M-868.2-349.8c2.7-7.9-1-17.2,4-23.3c4.4-5.5,5.6-3.5,11-1.6c5.5,1.9,18.5-0.1,17.2,2.6
			c-1.3,2.7-13.6,37.3-23.2,32.5C-868.9-344.3-868.2-349.8-868.2-349.8z"/>
		<g id="Phone-3" transform="translate(160.244)">
			<path id="Path_71_1_" class="st20" d="M-986.1-390.2c1.2,0.6,1.8,2,1.4,3.3c-0.3,1.7-22.4,34.1-23.9,36.3
				c-1.5,2.2-1.7,3.5-8.3,3.5c-6.7,0.1-10.2,0-12.1,0s-2.4-2.7-1.8-3.5C-1030.3-351.5-986.1-390.2-986.1-390.2z"/>
			<g id="Group_63_1_" transform="translate(0.16)">
				<g id="Group_62_1_">
					<g id="Group_58_1_">
						<path id="Path_72_1_" class="st20" d="M-1015.4-348.9h-14.1c-1.6,0-2-1.3-0.9-2.9l24.7-35.5c1.1-1.6,3.3-2.9,4.9-2.9h14.1
							c1.6,0,2,1.3,0.9,2.9l-24.7,35.5C-1011.6-350.2-1013.9-348.9-1015.4-348.9z"/>
						<g id="Group_57_1_" transform="translate(5.392 8.956)">
							<path id="Path_73_1_" class="st21" d="M-993.6-394.3h-18l-14.4,20.7l30.5-17.9L-993.6-394.3z"/>
							<path id="Path_74_1_" class="st21" d="M-1026-373.6l-7.5,10.8h18l19.9-28.7L-1026-373.6z"/>
						</g>
					</g>
					<g id="Group_61_1_" transform="translate(14.654 2.056)">
						
							<ellipse id="Ellipse_4_1_" transform="matrix(0.815 -0.5795 0.5795 0.815 13.3302 -665.3645)" class="st21" cx="-1035.4" cy="-353.6" rx="2" ry="1"/>
						<g id="Group_60_1_" transform="translate(42.911)">
							<g id="Group_59_1_" transform="translate(3.495)">
								<path id="Path_75_1_" class="st21" d="M-1055.2-389.5h-3.2c-0.1,0-0.1-0.1,0-0.1l0,0c0.1-0.1,0.1-0.1,0.2-0.1h3.2
									c0.1,0,0.1,0.1,0,0.1l0,0C-1055-389.6-1055.1-389.5-1055.2-389.5z"/>
								<path id="Path_76_1_" class="st21" d="M-1055.6-391c0.1-0.1,0-0.2-0.1-0.2c-0.1,0-0.2,0.1-0.3,0.2c-0.1,0.1,0,0.2,0.1,0.2
									C-1055.8-390.8-1055.7-390.9-1055.6-391z"/>
							</g>
							
								<ellipse id="Ellipse_5_1_" transform="matrix(0.815 -0.5795 0.5795 0.815 30.3685 -684.1785)" class="st21" cx="-1056.3" cy="-389.7" rx="0.5" ry="0.2"/>
						</g>
					</g>
				</g>
			</g>
		</g>
		<path id="Path_77_1_" class="st18" d="M-865.3-370.3c1.4-3.3,3.5-7.7,7.1-5.6s8.9,0.6,9.8,1.4c0.9,0.7-0.4,7.4-8.9,5.8
			c-4.5-0.8-4.8,6.2-8.9,6.5C-868.1-362.2-865.3-370.3-865.3-370.3z"/>
		<path id="Path_78_1_" class="st18" d="M-838.7-371.2c6.1,0.1,10,3.5,4.4,5.4s-8-2.7-6.4-4S-838.7-371.2-838.7-371.2z"/>
		<path id="Path_79_1_" class="st18" d="M-843-360.3c5.4,3,7.3,7.8,1.4,6.8c-5.8-0.9-5.8-6.1-3.8-6.5
			C-843.4-360.4-843-360.3-843-360.3z"/>
		<path id="Path_80_1_" class="st18" d="M-846.2-355.7c4,3.4,4.7,7.7,0,6c-4.7-1.8-3.8-6.1-2-6.1S-846.2-355.7-846.2-355.7z"/>
		<path id="Path_81_1_" class="st18" d="M-840.1-365.6c7,1.4,10.6,5.8,3.8,6.5c-6.8,0.8-8.4-4.5-6.4-5.5S-840.1-365.6-840.1-365.6z"
			/>
	</g>
	<path id="Path_82_1_" class="st10" d="M-596.2,54.4l17.7,20.5l13.4-12.3c13.9-13,20.9-7.2,20.8-4.6l-7.3,10.9l-17.1,22.9
		c-3.2,4.3-9.4,5.2-13.7,2c-0.2-0.2-0.4-0.3-0.7-0.5l-30.6-27.2L-596.2,54.4z"/>
	<path id="Path_83_1_" class="st10" d="M-873.4-270c-14.5,0.6-7.7,29-12.7,71.2s-2.5,99.7-2.5,99.7s76.1-1.9,88.7-1.6
		c0,0,10.1-90.2,28.5-133.3c0.4-1,0.2-2.2-0.7-2.9c-3.9-3.3-22.3-13.1-41.2-23.6C-838.3-274.4-859-270.6-873.4-270z"/>
	<g id="Group_66_1_" transform="translate(4.338 120.628)">
		<path id="Path_84_1_" class="st17" d="M-874.4-276.1c0,0,14.3-49.1,40.9-22.2C-833.5-298.3-854.3-276.1-874.4-276.1"/>
		<path id="Path_85_1_" class="st18" d="M-835.7-307.5c0,0,3.1,20.1,10.4,26.1c7.2,6,65.1,42.8,80.5,49.4c15.4,6.6,39,4.1,37.7,24.5
			s-35.2-2.2-43.4-5.7s-82.7-27.4-100.3-45.6c-17.6-18.2-27.7-46.9-36.8-109.8C-887.6-368.5-859-409.7-835.7-307.5z"/>
		<path id="Path_86_1_" class="st19" d="M-884.5-389.8c1.8-1,8.7-1.4,10.7-1.6c6.7-0.7,13.5,6.7,17.4,12.2
			c5.9,8.2,11.5,21.4,22.9,81c0,0-32.3,10.7-40.9,22.2c0,0-16.1-43.2-16.8-75.5c-0.2-10.3-1.4-20.8,1.5-30.8c0.6-2,1.3-3.9,2.7-5.4
			C-886.3-388.6-885.4-389.3-884.5-389.8z"/>
	</g>
	<g id="Group_67_1_" transform="translate(87.454)">
		<path id="Path_87_1_" class="st20" d="M-877.8-311.6c0,0,5.6-9.5,5-13c-0.6-3.5-0.3-8.1-6.7-11.1c-6.4-3-14.7-2-22.2,1.5
			s-23.8,2.6-22.7,21.9c1.2,19.3,16.5,20.9,15.1,27l12.2-10.5L-877.8-311.6z"/>
		<path id="Path_88_1_" class="st18" d="M-877.3-315.1c0,0,12,37.1-10.4,35c-13.9-1.3-18.9-11.8-18.9-11.8s-4.9,1.5-5.5-8.3
			c-0.4-5.9,7-9,7.3,0.2c0,0,5.3,1.6,6.3-6.2c1-7.8,5.1-7.5,9.5-6.1S-878-312.7-877.3-315.1z"/>
		<path id="Path_89_1_" class="st18" d="M-908.2-293c0,0-2.4,16.1-7.2,23.3c0,0-8.1-0.7-12.8-0.8c-4.7-0.1,21.5,52.6,30.1,39
			c8.7-13.6,4.9-24.9,4.9-24.9s-3.9-4.9-3.6-6.3c0.3-1.4,6.8-19.6,6.8-19.6S-889.7-299.9-908.2-293z"/>
	</g>
	<path id="Path_90_1_" class="st9" d="M-887.3-107.2c0,0-11.3,62.1,15.5,65c26.8,2.9,100.7-5.5,111.1,5c10.5,10.5,49.9,52,87.7,75.5
		s58.3,43.2,58.3,43.2l25.6-19.7c0,0-81.4-99.8-97.7-118.3c-16.4-18.5-32.3-40.3-60.8-41.9S-886.4-102.6-887.3-107.2z"/>
	<path id="Path_91_1_" class="st22" d="M-870.1-155.5"/>
</g>
</svg>
