<?xml version="1.0" encoding="utf-8"?>
<!-- Generator: Adobe Illustrator 23.0.2, SVG Export Plug-In . SVG Version: 6.00 Build 0)  -->
<svg version="1.1" id="Layer_1" xmlns="http://www.w3.org/2000/svg" xmlns:xlink="http://www.w3.org/1999/xlink" x="0px" y="0px"
	 viewBox="0 0 870.7 691.2" style="enable-background:new 0 0 870.7 691.2;" xml:space="preserve">
<style type="text/css">
	.st0{fill:url(#SVGID_1_);}
	.st1{fill:url(#SVGID_2_);}
	.st2{fill:#92D0FF;}
	.st3{fill:url(#SVGID_3_);}
	.st4{fill:url(#SVGID_4_);}
	.st5{fill:url(#SVGID_5_);}
	.st6{fill:url(#SVGID_6_);}
	.st7{fill:url(#SVGID_7_);}
	.st8{fill:none;stroke:#B3D3F4;stroke-width:2.1892;stroke-miterlimit:10;}
	.st9{fill:none;stroke:#B3D3F4;stroke-width:2.1892;stroke-miterlimit:10;stroke-dasharray:8.7357,8.7357;}
	.st10{fill:#F3FAFF;}
	.st11{fill:#B3D3F4;}
	.st12{fill:#CFE0F5;}
	.st13{fill:#FFF4E1;}
	.st14{fill:#E6F1FC;}
	.st15{fill:#FC8975;}
	.st16{fill:#CC6658;}
	.st17{fill:#352E72;}
	.st18{fill:url(#SVGID_8_);}
	.st19{fill:#75A1E9;}
	.st20{fill:url(#SVGID_9_);}
	.st21{fill:none;stroke:#4A578E;stroke-width:1.0946;stroke-miterlimit:10;}
	.st22{fill:#081466;}
	.st23{fill:url(#SVGID_10_);}
	.st24{fill:#2D4CBA;}
	.st25{fill:url(#SVGID_11_);}
	.st26{fill:url(#SVGID_12_);}
	.st27{fill:#FFFFFF;}
	.st28{fill:#EAC38F;}
	.st29{font-family:'OpenSans-Bold';}
	.st30{font-size:13.1354px;}
	.st31{letter-spacing:1;}
	.st32{font-size:19.7031px;}
	.st33{opacity:0.55;fill:#C9D3F4;}
	.st34{fill:url(#SVGID_13_);}
	.st35{opacity:0.35;fill:#C9D3F4;}
	.st36{fill:url(#SVGID_14_);}
	.st37{fill:url(#SVGID_15_);}
	.st38{fill:url(#SVGID_16_);}
	.st39{fill:url(#SVGID_17_);}
	.st40{fill:url(#SVGID_18_);}
	.st41{fill:url(#SVGID_19_);}
	.st42{opacity:0.75;}
	.st43{fill:url(#SVGID_20_);}
	.st44{fill:#A2C0ED;}
	.st45{fill:url(#SVGID_21_);}
	.st46{fill:#ABD1FF;}
	.st47{opacity:0.75;fill:url(#SVGID_22_);}
	.st48{fill:url(#SVGID_23_);}
	.st49{fill:url(#SVGID_24_);}
	.st50{fill:url(#SVGID_25_);}
	.st51{fill:#352E73;}
	.st52{fill:url(#SVGID_26_);}
	.st53{opacity:0.35;fill:url(#SVGID_27_);}
	.st54{fill:url(#SVGID_28_);}
	.st55{opacity:0.35;fill:url(#SVGID_29_);}
	.st56{fill:url(#SVGID_30_);}
	.st57{opacity:0.75;fill:url(#SVGID_31_);}
	.st58{opacity:0.75;fill:url(#SVGID_32_);}
	.st59{fill:#F42A73;}
	.st60{fill:none;stroke:#CFE0F5;stroke-width:2.1892;stroke-miterlimit:10;}
</style>
<title>opened</title>
<g>
	<linearGradient id="SVGID_1_" gradientUnits="userSpaceOnUse" x1="449.3321" y1="679.337" x2="449.3321" y2="604.7883">
		<stop  offset="5.102040e-03" style="stop-color:#FCF5F1"/>
		<stop  offset="0.4771" style="stop-color:#FCEFED"/>
		<stop  offset="1" style="stop-color:#FCE1E3"/>
	</linearGradient>
	<path class="st0" d="M62.1,604.8c67.3,0,766.4,0,792.2,0c25.8,0-20.4,13.5-35.5,28.6c-15.1,15.1-14.3,21.4-51.9,32.9
		c-81,24.6-115.7-23.6-244.2-4.6c-54.8,8.1-124.7,23.5-179.8,15.3c-46.4-6.9-57.7-38.6-92.8-41.1c-53.9-3.9-80.7-0.1-129.9-2.5
		C78.1,631.3-5.3,604.8,62.1,604.8z"/>
	<g>
		<g>
			<g>
				<linearGradient id="SVGID_2_" gradientUnits="userSpaceOnUse" x1="736.246" y1="604.7883" x2="736.246" y2="330.6998">
					<stop  offset="0" style="stop-color:#466DE5"/>
					<stop  offset="1" style="stop-color:#78BFFF"/>
				</linearGradient>
				<path class="st1" d="M666.9,604.8c-2.5-87.2,17.2-193,85.9-253.1c11-9.6,24.5-22.1,40.1-20.9c7.3,0.5,10.9,8.9,12,15
					c2,11,0.1,22.4-2.6,33.2c-14.9,60-63.9,165.2-76.4,225.7"/>
			</g>
			<g>
				<g>
					<path class="st2" d="M782.6,354c-25.4,32.7-44.2,70.1-57.2,109.4c-10.7,32.2-17.7,65.7-20.6,99.5c-1.2,13.4-1.7,27-0.9,40.4
						c0.1,0.8,1.2,0.8,1.2,0c-0.6-27,2-54,6.9-80.5c6.8-37,18.1-73.3,34.4-107.2c10.3-21.5,22.6-42,36.9-61.1
						C783.6,354.1,782.9,353.6,782.6,354L782.6,354z"/>
				</g>
			</g>
			<g>
				<g>
					<linearGradient id="SVGID_3_" gradientUnits="userSpaceOnUse" x1="787.4557" y1="604.7883" x2="787.4557" y2="413.6208">
						<stop  offset="0" style="stop-color:#466DE5"/>
						<stop  offset="1" style="stop-color:#78BFFF"/>
					</linearGradient>
					<path class="st3" d="M725.9,604.8c9.2-56.4,18.9-102.5,51.2-149.7c13.3-19.4,38.9-43.4,59.3-41.4c21.9,2.1,6.4,35.2-6.6,59.9
						c-17.3,32.9-29.9,68.7-35.9,105.4c1.8-11.1,9.5-42.6,32.2-56.5c6.7-4.1,23-6.5,23,7.1c0,23.9-23.3,52.7-29.1,75.2"/>
				</g>
				<g>
					<g>
						<path class="st2" d="M829.3,430.8c-5.5,6.9-10,14.5-14.3,22.2c-6.1,10.7-11.5,21.8-16.7,32.9c-11.6,25.1-21.7,51-29.2,77.6
							c-3.6,12.9-6.8,26.2-7.8,39.6c0,0.6,0.8,0.5,0.9,0c3.1-25.2,10.8-49.8,19.6-73.6c9.1-24.7,19.7-48.8,32.2-72
							c4.8-8.9,9.8-18,16.1-26C830.4,431,829.7,430.3,829.3,430.8L829.3,430.8z"/>
					</g>
				</g>
				<g>
					<g>
						<path class="st2" d="M836.1,531.3c-8.9,8.9-15,20.2-19.8,31.7c-5.5,13.3-9.4,27.5-12,41.7c-0.1,0.7,0.9,1,1,0.3
							c3.1-13.6,6.5-27.1,11.7-40.1c4.7-11.9,10.8-23.7,19.7-32.9C837.1,531.5,836.5,530.9,836.1,531.3L836.1,531.3z"/>
					</g>
				</g>
			</g>
		</g>
		<g>
			<g>
				<linearGradient id="SVGID_4_" gradientUnits="userSpaceOnUse" x1="313.5872" y1="558.8459" x2="188.0396" y2="433.2984">
					<stop  offset="0" style="stop-color:#466DE5"/>
					<stop  offset="1" style="stop-color:#78BFFF"/>
				</linearGradient>
				<path class="st4" d="M208.6,604.8c-13.3-110-3.6-158,8.9-188.4c5.8-14.2,14.2-28.3,26.1-38.3c47.5-40.1,46.1,37.8,43.8,61.5
					c-5.1,53.8-18.6,111.3-19.8,165.2"/>
			</g>
			<g>
				<linearGradient id="SVGID_5_" gradientUnits="userSpaceOnUse" x1="133.4391" y1="604.7883" x2="133.4391" y2="369.0922">
					<stop  offset="0" style="stop-color:#466DE5"/>
					<stop  offset="1" style="stop-color:#78BFFF"/>
				</linearGradient>
				<path class="st5" d="M165.8,604.8c-1.5-34.6-17-68.4-36.6-96.3c-19.8-28.1-47-50.5-64.8-80c-9.5-15.8-24.6-40.7-2.3-53.6
					c24.8-14.4,61.1,0.7,81.1,17.1c21.7,17.9,35.9,43.2,47.8,68.2c21,44.2,25.2,95.7,25.5,144.6"/>
			</g>
			<g>
				
					<linearGradient id="SVGID_6_" gradientUnits="userSpaceOnUse" x1="93.9008" y1="620.4999" x2="93.9008" y2="481.2191" gradientTransform="matrix(0.9978 6.670000e-02 -6.670000e-02 0.9978 31.2783 -23.7499)">
					<stop  offset="0" style="stop-color:#466DE5"/>
					<stop  offset="1" style="stop-color:#78BFFF"/>
				</linearGradient>
				<path class="st6" d="M170.5,604.8c0.1-35.2-17.9-72.4-46.2-99.9c-18.5-18-40.7-34.8-65.9-42.2c-13.1-3.8-49.8-9.9-53.4,11.8
					c-1.4,8.3,6.1,23.8,23.9,37.9c24.8,19.7,93.4,50.2,101.7,92.4"/>
			</g>
			<g>
				<g>
					<path class="st2" d="M21.8,475.9c21.3,5.9,41.4,16,59.3,28.8c20.7,14.8,38.8,33.6,51.1,56c7.4,13.5,12.6,28.3,15.6,43.4
						c0.1,0.6,1,0.3,0.9-0.3c-4.3-26.6-17-51-34.6-71.2C97.7,514.1,77.4,499,55.3,488c-10.7-5.3-21.8-9.7-33.3-12.9
						C21.5,475,21.3,475.8,21.8,475.9L21.8,475.9z"/>
				</g>
			</g>
			<g>
				<g>
					<path class="st2" d="M73.9,388.9c22.9,12.3,41.6,32,56.6,52.9c20.2,28.1,34.7,60.2,43.7,93.6c6.1,22.4,9.5,45.4,11.3,68.6
						c0.1,1,1.6,1,1.6,0c-1.7-39.4-11.1-78.8-27.4-114.7c-12.9-28.4-30.3-55.5-53-77.2c-9.7-9.3-20.4-17.6-32.3-23.9
						C73.8,388,73.4,388.7,73.9,388.9L73.9,388.9z"/>
				</g>
			</g>
			<g>
				<g>
					<path class="st2" d="M261.3,377.3c-11.5,27.2-18.1,56.4-22.5,85.5c-4.7,30.5-6.9,61.3-7.7,92.1c-0.4,16.3-0.5,32.7,0.2,49
						c0,0.9,1.4,0.9,1.4,0c-0.1-29.5,0.1-59,2.1-88.5c2.2-30.9,6.1-61.7,13.3-91.9c3.7-15.6,8.3-31,14.3-45.9
						C262.5,376.9,261.5,376.7,261.3,377.3L261.3,377.3z"/>
				</g>
			</g>
		</g>
		<g>
			<g>
				<linearGradient id="SVGID_7_" gradientUnits="userSpaceOnUse" x1="79.0937" y1="611.4169" x2="119.1405" y2="542.0538">
					<stop  offset="0" style="stop-color:#466DE5"/>
					<stop  offset="1" style="stop-color:#78BFFF"/>
				</linearGradient>
				<path class="st7" d="M137,604.8c-4.3-19-8-38.8-19.3-55.2c-7.4-10.7-22.5-25.6-36-25.4c-10,0.2-12.3,9.8-11.1,18.4
					c3,22.7,15.6,29.6,20.5,54.1c-2.4-9.3-17.4-41.5-30.6-29.2c-14.5,13.5,7.1,37.2,7.1,37.2"/>
			</g>
			<g>
				<g>
					<path class="st2" d="M65.9,573.9c3.8,4.5,7.4,9.1,10.6,14.1c3.5,5.4,6.1,11,8.5,16.9c0.2,0.6,1.1,0.4,0.9-0.3
						c-1.4-6.2-4.8-12.1-8.3-17.3c-3.3-5-7.1-9.6-11.1-14C66.1,573,65.6,573.5,65.9,573.9L65.9,573.9z"/>
				</g>
			</g>
			<g>
				<g>
					<path class="st2" d="M86.7,538.4c10,10.3,16.7,23.5,22.5,36.5c4.4,9.8,7.9,19.9,11.6,30c0.2,0.6,1.1,0.3,0.9-0.3
						c-5.3-18.2-13-36.5-23.1-52.4c-3.3-5.2-7-10.1-11.3-14.4C86.9,537.5,86.3,538.1,86.7,538.4L86.7,538.4z"/>
				</g>
			</g>
		</g>
	</g>
	<g>
		<g>
			<g>
				<line class="st8" x1="523" y1="425.4" x2="527.4" y2="425.4"/>
				<path class="st9" d="M536.1,425.4h234.4c38.3,0,69.3-31,69.3-69.3s-31-69.3-69.3-69.3H242.1c-20.3,0-36.8-16.5-36.8-36.8v0
					c0-20.3,16.5-36.8,36.8-36.8h444.1c18,0,32.6-14.6,32.6-32.6c0-18-14.6-32.6-32.6-32.6H279.8c-9.9,0-17.9-8-17.9-17.9
					c0-9.9,8-17.9,17.9-17.9h109.4"/>
				<line class="st8" x1="393.5" y1="112.3" x2="397.9" y2="112.3"/>
			</g>
		</g>
		<g>
			<path class="st10" d="M425.9,54.4c-20.5-3.5-40,10.4-43.5,30.9c-2.1,12.7,2.3,24.9,10.9,33.2l-5.1,10.3l11.4-5.3
				c4.1,2.6,8.7,4.4,13.7,5.2c20.5,3.5,40-10.4,43.5-30.9C460.3,77.3,446.4,57.9,425.9,54.4z"/>
			<path class="st11" d="M402.8,109.3l-3.9-4.7c-1.5-1.8-1.3-4.5,0.5-6l4.5-3.7c1.8-1.5,4.5-1.3,6,0.5c0,0,2.1,3.1,4.5,2.6
				c2.8-0.6,8.8-5,12-8.4c2.3-2.4-1.6-6.6-1.6-6.6c-1.5-1.8-1.3-4.5,0.5-6l4.5-3.7c1.8-1.5,4.5-1.3,6,0.5l3.9,4.7
				C448.6,88.9,410.5,118.4,402.8,109.3z"/>
		</g>
		<g>
			<path class="st10" d="M590.2,111.6c5.6-5.4,7.9-10.9,15.6-12.6c1.6-0.4,3.2-0.6,4.6-1.4c3.7-2.3,3-7.6,3.8-11.8
				c1.7-8.3,12.5-13.5,20.4-9.9c3.3,1.5,6.3,4.3,10,4.1c7.3-0.5,6.5-9.6,11.5-14.7c4.7-4.9,14.4-5.5,20.6-2.4
				c4.2,2.1,8,5.1,10.8,8.8c3,3.9,2.9,9.9,5.1,14.1c2.1,4.1,7.1,5.9,9.3,10c1.9,3.5,2.5,7.3,0.9,11c-3.1,7.5-12.3,13-20.7,13
				c-13.5,0-112.8,0-112.8,0S584,117.5,590.2,111.6z"/>
		</g>
		<g>
			<path class="st10" d="M320.1,58c-4.7-4.5-6.7-9.2-13.2-10.6c-1.3-0.3-2.7-0.5-3.9-1.2c-3.2-2-2.5-6.5-3.2-10
				c-1.4-7-10.5-11.4-17.3-8.3c-2.8,1.3-5.4,3.7-8.5,3.5c-6.2-0.4-5.5-8.1-9.7-12.5c-4-4.1-12.2-4.7-17.4-2.1
				c-3.6,1.8-6.8,4.3-9.1,7.4c-2.5,3.3-2.4,8.3-4.3,11.9c-1.8,3.5-6,5-7.9,8.4c-1.6,3-2.1,6.1-0.8,9.3c2.7,6.4,10.4,11,17.5,11
				c11.4,0,95.3,0,95.3,0S325.4,63.1,320.1,58z"/>
		</g>
		<g>
			<g>
				<polygon class="st12" points="759.8,160.9 693.5,125.5 711,73.7 791.6,115.5 				"/>
				<polygon class="st12" points="791.6,115.5 711,73.7 768.4,61.4 				"/>
				
					<rect x="702.7" y="87" transform="matrix(0.888 0.4598 -0.4598 0.888 136.8449 -326.6222)" class="st13" width="72.7" height="61.4"/>
				<polygon class="st14" points="711,73.7 683.8,126.1 736.7,122.6 				"/>
				<polygon class="st14" points="791.6,115.5 764.4,167.9 736.7,122.6 				"/>
				<polygon class="st14" points="764.4,167.9 683.8,126.1 745.1,106.7 				"/>
				<polygon class="st14" points="764.4,167.9 683.8,126.1 741.3,113.9 				"/>
			</g>
		</g>
		<g>
			<g>
				<polygon class="st12" points="228.1,182.9 174.1,196.4 157.9,159.3 222.9,142.1 				"/>
				<polygon class="st12" points="222.9,142.1 157.9,159.3 183.4,124 				"/>
				
					<rect x="168.3" y="146.7" transform="matrix(0.9667 -0.256 0.256 0.9667 -36.8732 55.6303)" class="st13" width="53.8" height="45.5"/>
				<polygon class="st14" points="157.9,159.3 169.1,201.5 196.4,173.3 				"/>
				<polygon class="st14" points="222.9,142.1 234.1,184.3 196.4,173.3 				"/>
				<polygon class="st14" points="234.1,184.3 169.1,201.5 193.1,160.4 				"/>
				<polygon class="st14" points="234.1,184.3 169.1,201.5 194.5,166.2 				"/>
			</g>
		</g>
	</g>
	<g>
		<g>
			<path class="st15" d="M440.5,109l2-3.1c0,0-0.6-2.2-0.6-5c0-1.3,0.4-4.6,0.9-4.9c0.5-0.3,0.7,2.8,0.9,2.7s1.8-6.2,2.7-6.1
				c0.5,0-1.1,5.9-1.1,5.9s1.5-6.4,2.3-6.1c0.7,0.2-1,6.3-1,6.3s1.5-5.8,2.1-5.6c0.6,0.2-1,5.8-1,5.8s1.5-5,1.8-4.7
				c0.5,0.4-0.1,3.9-1.5,8.7c-0.2,0.8-1.5,3.6-1.5,3.9c-0.1,0.2-1.4,5.3-1.4,5.3"/>
			<g>
				<g>
					<path class="st16" d="M443.9,99.4c0.5,0.9,1.1,1.8,1.3,2.9c0.3,1.2,0,2.3-0.3,3.4c0,0.2,0.2,0.3,0.3,0.1
						c1.3-2.4,0.4-4.5-1.1-6.6C444.1,99.1,443.8,99.2,443.9,99.4L443.9,99.4z"/>
				</g>
			</g>
		</g>
		<g>
			<path class="st17" d="M371.6,486.1c0,0,11.7,4.3,11.8,7.7c0,2-17,1.9-18,0.6c-1.7-2.1,1.3-7.9,1.3-7.9L371.6,486.1z"/>
			<path class="st15" d="M371.4,476.4l0.3,10c0,0-0.4,1.6-2.1,1.8c-1.7,0.2-2.9-1.7-2.9-1.7l-0.5-12.5"/>
			
				<linearGradient id="SVGID_8_" gradientUnits="userSpaceOnUse" x1="666.1374" y1="477.4147" x2="666.1374" y2="250.1478" gradientTransform="matrix(-0.8756 2.350000e-02 2.690000e-02 0.9996 935.2662 -13.1543)">
				<stop  offset="0" style="stop-color:#29225E"/>
				<stop  offset="1" style="stop-color:#3F368C"/>
			</linearGradient>
			<path class="st18" d="M379.4,254.6c0,0,6.4,38.7,3.2,112.9c-2.2,50.7-9,112-11.5,112c-2.5,0.1-4.8-0.2-4.8-0.2
				s-16-73.4-17.1-114.8c-1.7-63.7-18.5-78.3-11.2-111.4"/>
			<polygon class="st19" points="372.7,475.5 372.2,479.9 365.2,480.1 364.9,475.7 			"/>
		</g>
		<g>
			<path class="st17" d="M335.5,487.1c0,0,11.7,4.3,11.8,7.7c0,2-17,1.9-18,0.6c-1.7-2.1,1.3-7.9,1.3-7.9L335.5,487.1z"/>
			<path class="st15" d="M335.3,477.4l0.3,10c0,0-0.4,1.6-2.1,1.8c-1.7,0.2-2.9-1.7-2.9-1.7L330,475"/>
			
				<linearGradient id="SVGID_9_" gradientUnits="userSpaceOnUse" x1="692.1185" y1="477.4414" x2="692.1185" y2="250.1611" gradientTransform="matrix(-0.8756 2.350000e-02 2.690000e-02 0.9996 935.2662 -13.1543)">
				<stop  offset="0" style="stop-color:#29225E"/>
				<stop  offset="1" style="stop-color:#3F368C"/>
			</linearGradient>
			<path class="st20" d="M358.7,255.2c0,0-3,49.2-6.8,106c-1.5,22.4-14.4,116.2-16.2,119.3c-2.5,0.1-6.4,0.2-6.4,0.2
				s-9.7-81.2-10.8-122.5c-1.7-63.7-8.5-71.4-1.2-104.5"/>
			<polygon class="st19" points="336.7,476.5 336.2,480.9 329.2,481.1 328.9,476.7 			"/>
			<path class="st21" d="M357.2,280.1c0,0-2.5,62.9-7.1,99.7"/>
		</g>
		<g>
			<path class="st22" d="M365.4,124.2c-4-7-14.8-6-21-2.8c-8.8,4.6-10.9,17.6-19.1,23.2c-3.6,2.5-8,3.9-10.9,7.2
				c-3.4,3.9-4.1,9.8-2.4,14.7c1.7,4.9,5.5,8.8,9.8,11.5c4.4,2.7,9.3,4.1,14.3,5.3c7.9,1.8,16.3,2.8,24,0.1
				c7.7-2.7,14.3-9.8,14.3-18.1c0-7-4.6-13.6-3.8-20.5"/>
		</g>
		<g>
			<linearGradient id="SVGID_10_" gradientUnits="userSpaceOnUse" x1="375.5217" y1="199.1011" x2="479.3365" y2="149.5379">
				<stop  offset="0" style="stop-color:#FCC73C"/>
				<stop  offset="1" style="stop-color:#FC7A3C"/>
			</linearGradient>
			<path class="st23" d="M441.1,106.7c0,0-21,30.1-25.8,36.9c-7.5,10.6-38.1,12.7-54.5,22.4l-11.4,1.2c-5.4,1.1-24,14.4-25.8,19.7
				c-4,12.2-8,24.5-8.7,37.4c-0.2,4.3-0.1,8.7,0,13.1c0.2,6.3,0.4,12.6,0.6,18.9c0,0.4,0,0.9,0.3,1.2c0.3,0.4,0.7,0.5,1.2,0.6
				c20.6,4.7,42,2.2,62.9-0.4c0.7-0.1,1.5-0.2,2.1-0.7c0.6-0.6,0.7-1.6,0.8-2.5c0.1-4-0.1-8.1-0.3-12.1c-0.7-17.4-0.1-34.9,1.8-52.3
				c6.5-4.1,33.3-12.5,42.3-25c20.1-28,20.1-56.9,20.1-56.9L441.1,106.7z"/>
		</g>
		<g>
			<path class="st15" d="M360.9,166l-0.4-14.4l-6.4,0.9l-4.6,14.6c0,0,2.1,3,6.8,2.4C360.4,168.9,360.9,166,360.9,166z"/>
		</g>
		<g>
			<path class="st15" d="M347.3,145.7c-0.3-5.6,1.3-11.7,4.3-15c3-3.3,8.5-3.8,12.6-3.2c1.4,0.2,2.8,0.7,3.9,1.6
				c4,3.4,3.8,11.1,3.5,15.9c-0.2,4-1.4,8.1-4,11.2c-0.8,1-1.7,1.9-2.9,2.4c-3.9,1.6-9.4,0.7-12.7-1.9
				C348.9,154.1,347.5,149.8,347.3,145.7z"/>
		</g>
		<g>
			<path class="st22" d="M345.5,150.3c-1.5,0.7-3.8,1.2-5-0.4c-0.9-1.3-0.1-3.3,0.2-4.7c1.1-4.5,2.4-9,3.9-13.4
				c0.8-2.3,1.7-4.5,3.1-6.5c2.8-3.8,10.6-5.6,15.2-5.1c5.1-0.3,13.1,7.9,8.7,17.5c-0.7-2.3-1.6-2.1-3.3-4.1c-1.7,1.7-4,2.6-6.3,2.8
				c-3.1,0.3-6.6-0.4-8.9,1.7c-2.3,2.2-1.8,6.1-3.5,8.9C348.7,148.4,347.1,149.5,345.5,150.3z"/>
		</g>
		<g>
			<path class="st15" d="M350.7,146.7c0.2-1.3-0.6-2.1-1.5-2.2c-2.3-0.2-3,3.4-2.1,5.1c0.7,1.2,2.4,2.3,3.2,0.8"/>
		</g>
		<g>
			<g>
				<g>
					<path class="st22" d="M354.6,155.3c-0.6-0.1-1.1-0.1-1.7-0.3c-1.3-0.3-3.1-1.1-4.4-2.9c-0.5-0.6-0.7-1.2-0.7-1.8
						c0-0.1,0.1-0.3,0.3-0.3c0.1,0,0.3,0.1,0.3,0.3c0,0.5,0.2,1,0.6,1.5c1.2,1.6,2.8,2.3,4.1,2.6c1.6,0.4,3.4,0.4,4.9,0.3
						c0.1,0,0.3,0.1,0.3,0.3c0,0.1-0.1,0.3-0.2,0.3C356.9,155.3,355.8,155.4,354.6,155.3z"/>
				</g>
				<g>
					<path class="st22" d="M359.1,154.3c-0.4-0.2-1-0.2-1.5-0.1c-1.7,0.5,0.1,2.7,1.7,1.6c0.1-0.1,0.2-0.2,0.3-0.3
						C359.8,155.1,359.5,154.6,359.1,154.3z"/>
				</g>
			</g>
			<g>
				<g>
					<path class="st19" d="M343.4,137.2c0.4-3.7,1.8-8,4.1-11c3-3.8,6.9-6.9,10.7-6.9c3.2,0,4.8,0.7,4.8,0.7
						c-3.9,0.9-7.2,2.8-10.3,6.1c-3.1,3.3-4.9,7.7-5,12.3"/>
				</g>
			</g>
			<path class="st19" d="M353,143.4c0.4,4.2-2.3,8-6.2,8.4c-3.8,0.4-7.3-2.7-7.7-6.9c-0.4-4.2,2.3-8,6.2-8.4
				C349.1,136.1,352.6,139.2,353,143.4z"/>
			<path class="st24" d="M349.7,144.1c0.3,2.9-1.5,5.5-4,5.7c-2.5,0.3-4.8-1.9-5.1-4.8c-0.3-2.9,1.5-5.5,4-5.7
				C347.1,139.1,349.4,141.2,349.7,144.1z"/>
		</g>
	</g>
	<g>
		<linearGradient id="SVGID_11_" gradientUnits="userSpaceOnUse" x1="608.9489" y1="685.9835" x2="338.9431" y2="218.3198">
			<stop  offset="0" style="stop-color:#B3D3F4"/>
			<stop  offset="1" style="stop-color:#D3DCED"/>
		</linearGradient>
		<polygon class="st25" points="489.1,131.6 254.4,337.1 254.4,619.7 723.8,619.7 723.8,337.1 		"/>
		<linearGradient id="SVGID_12_" gradientUnits="userSpaceOnUse" x1="489.1012" y1="590.5245" x2="489.1012" y2="203.912">
			<stop  offset="0" style="stop-color:#FFD5A7"/>
			<stop  offset="0.372" style="stop-color:#FFD7AA"/>
			<stop  offset="0.6545" style="stop-color:#FFDEB4"/>
			<stop  offset="0.9067" style="stop-color:#FFE9C4"/>
			<stop  offset="1" style="stop-color:#FFEECC"/>
		</linearGradient>
		<rect x="278.1" y="203.9" class="st26" width="421.9" height="386.6"/>
		<g>
			<rect x="302.3" y="254.1" class="st27" width="373.6" height="33"/>
			<rect x="302.3" y="302.6" class="st27" width="373.6" height="33"/>
			<rect x="302.3" y="351.1" class="st27" width="373.6" height="196.3"/>
			<text transform="matrix(1 0 0 1 314.3945 274.356)" class="st28 st29 st30 st31">name</text>
			<text transform="matrix(1 0 0 1 314.3945 323.9819)" class="st28 st29 st30 st31">Email</text>
			<text transform="matrix(1 0 0 1 314.3945 372.4082)" class="st28 st29 st30 st31">mesage</text>
			<text transform="matrix(1 0 0 1 426.3999 238.5806)" class="st28 st29 st32">contact us</text>
		</g>
		<polygon class="st33" points="489.1,516.5 254.4,337.1 254.4,590.5 723.8,590.5 723.8,337.1 		"/>
		<linearGradient id="SVGID_13_" gradientUnits="userSpaceOnUse" x1="608.9489" y1="685.9835" x2="369.2535" y2="270.8189">
			<stop  offset="0" style="stop-color:#CDE8FF"/>
			<stop  offset="1" style="stop-color:#EEE7E9"/>
		</linearGradient>
		<polygon class="st34" points="489.1,545.7 254.4,337.1 254.4,619.7 723.8,619.7 723.8,337.1 		"/>
		<polygon class="st35" points="489.1,398.4 254.4,619.7 723.8,619.7 		"/>
		<linearGradient id="SVGID_14_" gradientUnits="userSpaceOnUse" x1="606.4409" y1="737.0251" x2="371.7615" y2="502.3457">
			<stop  offset="0" style="stop-color:#CDE8FF"/>
			<stop  offset="1" style="stop-color:#EEE7E9"/>
		</linearGradient>
		<polygon class="st36" points="489.1,420 254.4,619.7 723.8,619.7 		"/>
	</g>
	<g>
		<g>
			
				<linearGradient id="SVGID_15_" gradientUnits="userSpaceOnUse" x1="78.5327" y1="640.5546" x2="129.375" y2="552.4932" gradientTransform="matrix(-1 0 0.2126 1 659.5218 0)">
				<stop  offset="0" style="stop-color:#466DE5"/>
				<stop  offset="1" style="stop-color:#78BFFF"/>
			</linearGradient>
			<path class="st37" d="M642.6,633.4c-4.8-24.8,0.2-50.2,10.1-71.3c6.5-13.8,21.4-33.1,38-32.8c12.4,0.2,17.5,12.7,18.3,23.8
				c1.9,29.3-11.9,38.3-11.8,70c0.7-12,12.3-51,30.5-37.7c17.8,13,0.5,48,0.5,48"/>
		</g>
		<g>
			<g>
				<path class="st2" d="M722.5,592.9c-7.4,12-14.7,26.1-14.9,40.5c0,0.5,0.9,0.7,0.9,0.1c1.1-7.5,2.7-14.6,5.5-21.7
					c2.5-6.4,5.7-12.5,9.1-18.5C723.4,592.9,722.7,592.5,722.5,592.9L722.5,592.9z"/>
			</g>
		</g>
		<g>
			<g>
				<path class="st2" d="M689.3,547c-7.6,10.6-11.8,23.3-15.1,35.8c-3.2,12.2-5.5,24.7-7.1,37.3c-0.6,4.4-1.1,8.9-1.4,13.4
					c0,0.5,0.9,0.7,0.9,0.1c3.2-22.5,5.9-45.2,13.8-66.7c2.5-6.8,5.5-13.4,9.6-19.4C690.3,547,689.6,546.6,689.3,547L689.3,547z"/>
			</g>
		</g>
	</g>
	<g>
		<g>
			<path class="st15" d="M332.4,234.1c0,0,3,2.1,4,2.2c1,0.1,3.4-0.7,6.3-0.4c1.3,0.1,4.7,0.9,4.9,1.4c0.2,0.5-3.1,0.5-3,0.7
				c0.1,0.2,6.1,2.5,5.8,3.4c-0.1,0.5-5.9-1.7-5.9-1.7s6.3,2.2,6,2.9c-0.4,0.7-6.4-1.6-6.4-1.6s5.7,2.1,5.4,2.7
				c-0.3,0.6-5.9-0.9-5.9-0.9s4.9,1.1,4.6,1.6c-0.1,0.3-5.5-0.4-10-2.1c-4.2-1.6-7.7-4.2-7.7-4.2"/>
		</g>
		<g>
			<linearGradient id="SVGID_16_" gradientUnits="userSpaceOnUse" x1="344.8292" y1="188.9017" x2="284.3484" y2="246.0224">
				<stop  offset="0" style="stop-color:#FCC73C"/>
				<stop  offset="1" style="stop-color:#FC7A3C"/>
			</linearGradient>
			<path class="st38" d="M334.5,191.3c-5.3,8-17.4,17.3-24.2,23c3.9,5.2,25.7,21.5,25.7,21.5l-2,4.9c0,0-41.6-7.5-43-28
				c-0.8-12.3,14.8-30.4,26.9-38.9c11.3-8,24.6-9.3,31.6-6.5"/>
		</g>
	</g>
	<g>
		<g>
			<path class="st15" d="M639.4,281c-4.6-1.9-11.1-7.5-10.4-10.7c0.3-1.4,3.6,2.3,4.5,1.4c0.6-0.6,0.1-3.3-1.6-4.7
				c-1.7-1.3-5.1-3.8-4.2-4.6c0.8-0.8,9.3,1,11.1,3.9c1.2,1.8,2.5,5.8,3.3,10.1l3.5,4.5"/>
		</g>
		<g>
			<path class="st17" d="M727.5,638.3c0,0-14.3,4.3-14.3,7.6c0,1.9,21,1.4,22.3,0.1c2-2-1.8-7.4-1.8-7.4L727.5,638.3z"/>
			<path class="st15" d="M727.5,629.1v9.4c0,0,0.5,1.5,2.6,1.7c2.1,0.2,3.5-1.7,3.5-1.7l0.2-11.8"/>
			<linearGradient id="SVGID_17_" gradientUnits="userSpaceOnUse" x1="735.8237" y1="632.1034" x2="735.8237" y2="417.5342">
				<stop  offset="0" style="stop-color:#29225E"/>
				<stop  offset="1" style="stop-color:#3F368C"/>
			</linearGradient>
			<path class="st39" d="M710.4,420.1c0,0-6.6,36.7-0.3,106.6c4.3,47.8,14.8,105.4,17.9,105.4c3.1,0,5.9-0.4,5.9-0.4
				S751.2,562,751.2,523c0-60.2,20.3-74.4,10.2-105.4"/>
			<polygon class="st19" points="725.9,628.3 726.6,632.5 735.3,632.5 735.5,628.3 			"/>
		</g>
		<g>
			<path class="st17" d="M772.1,638.3c0,0-14.3,4.3-14.3,7.6c0,1.9,21,1.4,22.3,0.1c2-2-1.8-7.4-1.8-7.4L772.1,638.3z"/>
			<path class="st15" d="M772.1,629.1v9.4c0,0,0.5,1.5,2.6,1.7c2.1,0.2,3.5-1.7,3.5-1.7l0.2-11.8"/>
			<linearGradient id="SVGID_18_" gradientUnits="userSpaceOnUse" x1="763.9681" y1="632.1034" x2="763.9681" y2="417.5342">
				<stop  offset="0" style="stop-color:#29225E"/>
				<stop  offset="1" style="stop-color:#3F368C"/>
			</linearGradient>
			<path class="st40" d="M735.9,420.1c0,0,5.3,46.3,11.8,99.8c2.6,21.1,21.5,109.3,23.9,112.2c3.1,0,7.9,0,7.9,0s9.3-76.9,9.3-115.9
				c0-60.2,8.2-67.6-1.9-98.6"/>
			<polygon class="st19" points="770.3,628.3 771,632.5 779.7,632.5 780,628.3 			"/>
			<path class="st21" d="M738.6,443.5c0,0,5.1,59.3,12,93.9"/>
		</g>
		<g>
			<linearGradient id="SVGID_19_" gradientUnits="userSpaceOnUse" x1="714.9812" y1="343.6043" x2="714.9812" y2="426.542">
				<stop  offset="0" style="stop-color:#FCC73C"/>
				<stop  offset="1" style="stop-color:#FC7A3C"/>
			</linearGradient>
			<path class="st41" d="M789,412.4c0-3.8,3-69.9-8.5-84.9c-3.2-7-15.3-14.8-24.8-18.3c-8.4-3-13.7-0.7-17.6-0.1
				c-16.1-4.6-53-1.5-63.3-6.8c-5.6-2.9-32-25.7-32-25.7l-4.9,3.8c0,0,15.7,32.9,33.4,44.4c12.4,8.1,30.9,12.6,40.8,14.5
				c-0.1,1.8-0.3,3.8-0.4,6c-0.5,11.8-1.9,32.5-0.5,67c0.1,3.3-3.4,7.5-3.4,9.7s4.3,9.1,39.7,9.1c30.1,0,44.4-4.4,44.4-9.4
				C792,416.5,789,416.2,789,412.4z"/>
			<g class="st42">
				<linearGradient id="SVGID_20_" gradientUnits="userSpaceOnUse" x1="711.6281" y1="332.6088" x2="713.5416" y2="332.6088">
					<stop  offset="0" style="stop-color:#FCC73C"/>
					<stop  offset="1" style="stop-color:#FC7A3C"/>
				</linearGradient>
				<path class="st43" d="M713,325.8c0.3,2.3,0.3,4.5,0.1,6.8c-0.2,2.3-0.4,4.5-1,6.7c-0.3-2.3-0.3-4.5-0.1-6.8
					C712.2,330.3,712.4,328.1,713,325.8z"/>
			</g>
		</g>
		<g>
			<path class="st15" d="M735.9,268.7c-1.3,5.3-4.6,19.9-1.6,24.4c3,4.5,9.5,5.8,14.5,3.7c5-2.1,8.4-6.9,10-12.1
				c1.6-5.2,1.5-10.7,1.2-16.1"/>
		</g>
		<path class="st15" d="M741.7,288l-2.1,17.7c0,0,0.8,4.9,3.5,6.8c6.6-0.1,9.9-6.5,9.9-6.5l-2-22.8"/>
		<g>
			<path class="st17" d="M753.4,273.6c-3.4-1.2-8.1-0.8-12.4-1.5c-3-0.5-6.2-0.6-9-1.8c-5.1-2.2-4.6-10-0.5-12.9
				c1.1-0.8,2.6-1.6,4-1.3c1.5,0.3,2.1,1.9,3.4,2.5c0.7,0.3,1.5,0.4,2.3,0.3c0.6-0.1,1.1-0.2,1.6-0.6c0.7-0.6,1-1.6,1.7-2.3
				c0.7-0.7,1.6-1,2.5-1.3c1.9-0.5,4.3-0.3,5.9,0.9c0.6,0.4,1.1,1,1.8,1.2c1.1,0.4,2.4,0.3,3.4,0.9c2.9,1.6,4.7,5.6,5,8.8
				c0,0.5,0.9,1,1.2,1.3c2.8,3.3,3,8,2.3,12.1c-0.8,4.1-2.2,8-5.5,10.7c-1.1,0.9-2.8,1.3-4.4,1.9
				C750.6,294.6,753.6,278.3,753.4,273.6"/>
		</g>
		<g>
			<path class="st15" d="M754.2,282.6c0-1.2,1.8-2.2,2.9-1.4c0.7,0.5,1.1,1.1,1.2,1.9c0.1,1.6-1,4.1-3,4.5c-0.8,0.1-1.6-0.8-1.6-1.6
				"/>
		</g>
		<g>
			<g>
				<g>
					<path class="st22" d="M747.9,293.2c0.6-0.1,1.1-0.1,1.7-0.3c1.3-0.3,3.1-1.1,4.4-2.8c0.5-0.6,0.7-1.2,0.7-1.8
						c0-0.1-0.1-0.3-0.3-0.3c-0.1,0-0.3,0.1-0.3,0.3c0,0.5-0.2,1-0.6,1.5c-1.2,1.6-2.8,2.3-4.1,2.6c-1.6,0.4-3.4,0.3-4.9,0.3
						c-0.1,0-0.3,0.1-0.3,0.2c0,0.1,0.1,0.3,0.2,0.3C745.7,293.3,746.8,293.3,747.9,293.2z"/>
				</g>
				<g>
					<path class="st22" d="M743.5,292.3c0.4-0.2,1-0.2,1.5-0.1c1.7,0.5-0.1,2.7-1.7,1.6c-0.1-0.1-0.2-0.2-0.3-0.3
						C742.8,293.1,743,292.5,743.5,292.3z"/>
				</g>
			</g>
			<g>
				<g>
					<path class="st19" d="M759.1,275.6c-0.4-3.7-1.8-7.9-4.1-10.7c-3-3.7-6.9-6.7-10.7-6.7c-3.2,0-4.8,0.7-4.8,0.7
						c3.9,0.9,7.2,2.8,10.3,6c3.1,3.2,4.9,7.6,5,12"/>
				</g>
			</g>
			<path class="st19" d="M749.6,281.7c-0.4,4.1,2.3,7.8,6.2,8.2c3.8,0.4,7.3-2.6,7.7-6.8c0.4-4.1-2.3-7.8-6.2-8.2
				C753.5,274.5,750,277.5,749.6,281.7z"/>
			<path class="st44" d="M752.9,282.3c-0.3,2.8,1.5,5.4,4,5.6c2.5,0.3,4.8-1.8,5.1-4.7c0.3-2.8-1.5-5.4-4-5.6
				C755.4,277.4,753.2,279.5,752.9,282.3z"/>
		</g>
		<g>
			<g>
				<path class="st44" d="M743.1,407.5h-70.8l-6.9-42.8c-0.3-1.8,1.1-3.5,3-3.5h63.1c2.4,0,4.5,1.7,4.8,4.1L743.1,407.5z"/>
				<linearGradient id="SVGID_21_" gradientUnits="userSpaceOnUse" x1="732.4891" y1="416.0778" x2="671.3217" y2="354.9103">
					<stop  offset="0" style="stop-color:#5789EE"/>
					<stop  offset="1" style="stop-color:#78BFFF"/>
				</linearGradient>
				<path class="st45" d="M741,407.5h-70.8l-6.9-42.8c-0.3-1.8,1.1-3.5,3-3.5h63.1c2.4,0,4.5,1.7,4.8,4.1L741,407.5z"/>
				<path class="st46" d="M705.8,383.3c-0.8-3.6-3.5-6.2-6.1-5.7c-2.6,0.5-4.1,3.8-3.3,7.4c0.8,3.6,3.5,6.2,6.1,5.7
					C705.1,390.2,706.6,386.9,705.8,383.3z"/>
			</g>
			<g>
				<linearGradient id="SVGID_22_" gradientUnits="userSpaceOnUse" x1="718.982" y1="363.3251" x2="789.3671" y2="363.3251">
					<stop  offset="0" style="stop-color:#FCC73C"/>
					<stop  offset="1" style="stop-color:#FC7A3C"/>
				</linearGradient>
				<path class="st47" d="M780.5,327.5c-3.2-7-11.8-9.9-21.4-13.3l-2.6,32.3c1.2,14.7,6.5,36,6.5,36L733.4,405l0,0.1
					c-0.6,0.4-1.1,0.6-1.2,0.6c-0.4,0-3.3-1.6-4.8-1.4c-1.5,0.3-3.3,0.4-3.3,0.9c0,0.6,2.3,0.6,2.3,1.1s-1.6,1.6-2.3,1.6
					s-4.9-0.3-5.2,0c-0.3,0.3,0.9,2.2,2.1,3.3c0.6,0.5,2.5,1.3,3.7,1.3c3,0,7.5-1.1,8-1.5c0.5-0.4,1.7-1,2.9-1.7l1,1.9
					c0,0,40.4-3.2,52.5-8.8C789.6,382.5,789.5,339.2,780.5,327.5z"/>
				<path class="st15" d="M735.9,403.4c0,0-3.3,2-3.7,2s-3.3-1.4-4.8-1.2c-1.5,0.2-3.3,0.3-3.3,0.8c0,0.5,2.3,0.5,2.3,1
					s-1.6,1.3-2.3,1.3s-4.9-0.3-5.2,0c-0.3,0.3,0.9,1.9,2.1,2.8c0.6,0.4,2.5,1.1,3.7,1.1c3.1,0,7.5-0.9,8-1.3
					c1.1-0.7,5.7-2.7,5.7-2.7"/>
				<linearGradient id="SVGID_23_" gradientUnits="userSpaceOnUse" x1="763.0211" y1="343.6045" x2="763.0211" y2="414.5158">
					<stop  offset="0" style="stop-color:#FCC73C"/>
					<stop  offset="1" style="stop-color:#FC7A3C"/>
				</linearGradient>
				<path class="st48" d="M755.7,309.3c0,0,20.7,1.3,30.6,20.5c9.9,19.2,6.8,60,0.8,66c-6,6-51.9,13.4-51.9,13.4l-1.8-4.2l32.3-20.2
					c0,0-10.1-33.7-10.1-47.4"/>
			</g>
		</g>
		<g>
			<linearGradient id="SVGID_24_" gradientUnits="userSpaceOnUse" x1="749.3822" y1="319.1298" x2="749.3822" y2="305.9941">
				<stop  offset="0" style="stop-color:#FCAE3C"/>
				<stop  offset="1" style="stop-color:#FC7A3C"/>
			</linearGradient>
			<path class="st49" d="M743.1,312.5c1.5,1.5,2.1,3.6,3.6,6.7c6.9-2.3,9-9.9,9-9.9l-2.7-3.3C752.9,306,747.5,311.6,743.1,312.5z"/>
			<linearGradient id="SVGID_25_" gradientUnits="userSpaceOnUse" x1="739.919" y1="318.1004" x2="739.919" y2="305.6324">
				<stop  offset="0" style="stop-color:#FCAE3C"/>
				<stop  offset="1" style="stop-color:#FC7A3C"/>
			</linearGradient>
			<path class="st50" d="M743.1,312.5c-1.3,1.3-2.6,3.3-3.5,5.6c-1.8-1.8-3-8.1-2.9-8.8c0.9-1.3,2.9-3.6,2.9-3.6
				S740.1,309.5,743.1,312.5z"/>
		</g>
	</g>
	<g>
		<g>
			<g>
				<path class="st51" d="M140,636.3c0,0-14.3,4.3-14.3,7.6c0,1.9,21,1.4,22.3,0.1c2-2-1.6-8.2-1.6-8.2L140,636.3z"/>
				<path class="st15" d="M140,627.2v9.4c0,0,0.5,1.5,2.6,1.7c2.1,0.2,3.5-1.7,3.5-1.7l0.2-11.8"/>
				<linearGradient id="SVGID_26_" gradientUnits="userSpaceOnUse" x1="149.2145" y1="630.033" x2="149.2145" y2="354.1264">
					<stop  offset="0" style="stop-color:#29225E"/>
					<stop  offset="1" style="stop-color:#3F368C"/>
				</linearGradient>
				<path class="st52" d="M144.7,368.5c-9.6,12.4-20.9,47.7-20.9,114.5c0,47.3,15.3,146.2,15.3,146.2l8.8,0.7
					c28-176.9,18.6-175.1,25.5-206.5c4.4-19.7-4.5-69.4-4.5-69.4"/>
				<linearGradient id="SVGID_27_" gradientUnits="userSpaceOnUse" x1="163.9158" y1="501.2692" x2="163.9158" y2="439.208">
					<stop  offset="0" style="stop-color:#29225E"/>
					<stop  offset="1" style="stop-color:#3F368C"/>
				</linearGradient>
				<path class="st53" d="M167.9,479.6c0,0-6-33.6-6-40.4c-2.6,13.7-2.6,31.5,0,44c1.9,9.2,3.9,18.1,3.9,18.1L167.9,479.6z"/>
				<path class="st19" d="M138.7,626.9v3.7c0,0,9.2,1.5,9.2,1c0-0.6,0.4-4.3,0.4-4.3L138.7,626.9z"/>
			</g>
			<g>
				<path class="st51" d="M216.4,636.3c0,0,14.3,4.3,14.3,7.6c0,1.9-21,1.4-22.3,0.1c-2-2,1.6-8.2,1.6-8.2L216.4,636.3z"/>
				<path class="st15" d="M214.8,627.2l1.6,9.4c0,0-0.5,1.5-2.6,1.7c-2.1,0.2-3.5-1.7-3.5-1.7l-1.8-11.8"/>
				<linearGradient id="SVGID_28_" gradientUnits="userSpaceOnUse" x1="188.4436" y1="630.033" x2="188.4436" y2="354.1264">
					<stop  offset="0" style="stop-color:#29225E"/>
					<stop  offset="1" style="stop-color:#3F368C"/>
				</linearGradient>
				<path class="st54" d="M191.3,362.9c9.5,16,26.3,48.9,26.3,115.7c0,47.3-1.2,150.6-1.2,150.6l-7.5,0.8
					c-24.2-67.5-44.3-153.6-49.1-203.7c-1.9-20.1,1.7-72.2,1.7-72.2"/>
				<linearGradient id="SVGID_29_" gradientUnits="userSpaceOnUse" x1="169.0751" y1="384.1123" x2="169.0751" y2="357.4552">
					<stop  offset="0" style="stop-color:#29225E"/>
					<stop  offset="1" style="stop-color:#3F368C"/>
				</linearGradient>
				<path class="st55" d="M192.4,364.8c-8.5-2.7-20.1-5.4-31.1-7.4c0,0.4-0.1,0.8-0.1,1.2l-16.5,9.8c-2,2.5-4,6-6,10.5
					c4.9,2,11.9,3.9,21.2,4.7c13.7,1.2,30.7-1.4,39.5-5.5C196.9,372.9,194.5,368.5,192.4,364.8z"/>
				<path class="st19" d="M217.6,626.2v3.7c0,0-9.6,1.5-9.6,1s-0.4-4.3-0.4-4.3L217.6,626.2z"/>
			</g>
		</g>
		<g>
			<g>
				<path class="st15" d="M266.5,327.7l3.1-1.7c0,0,0.5-2.1,1.8-4.5c0.6-1,2.4-3.6,2.9-3.6s-0.6,2.7-0.4,2.7s4.3-4.3,5-3.8
					c0.4,0.2-3.6,4.4-3.6,4.4s4.2-4.6,4.7-4.1c0.5,0.5-3.6,4.8-3.6,4.8s3.8-4.1,4.3-3.7c0.4,0.4-3.4,4.4-3.4,4.4s3.5-3.5,3.6-3.1
					c0.2,0.6-1.8,3.2-5.2,6.6c-0.6,0.6-2.9,2.4-3,2.5c-0.2,0.2-3.6,3.7-3.6,3.7"/>
				<g>
					<g>
						<path class="st16" d="M273.7,321.3c0,1,0.1,2.1-0.1,3.1c-0.3,1.1-1,1.8-1.8,2.6c-0.1,0.1,0,0.4,0.2,0.3c2.2-1.4,2.3-3.6,2-6
							C274,321.1,273.7,321.1,273.7,321.3L273.7,321.3z"/>
					</g>
				</g>
			</g>
			<g>
				<path class="st15" d="M63.8,268.7l-2.2-2.8c0,0,0.4-2.1,0.2-4.8c-0.1-1.2-0.7-4.3-1.3-4.5c-0.5-0.2-0.5,2.7-0.7,2.6
					c-0.2-0.1-2.2-5.7-3.1-5.5c-0.4,0.1,1.5,5.5,1.5,5.5s-2-5.9-2.7-5.6c-0.7,0.3,1.4,5.8,1.4,5.8s-1.9-5.3-2.4-5.1
					c-0.6,0.2,1.4,5.4,1.4,5.4s-1.8-4.6-2.1-4.3c-0.5,0.4,0.4,3.6,2.1,8.1c0.3,0.8,1.7,3.3,1.8,3.5c0.1,0.2,1.8,4.8,1.8,4.8"/>
				<g>
					<g>
						<path class="st16" d="M59.6,259.7c-1.2,2-2,4.1-0.5,6.3c0.1,0.1,0.4,0.1,0.3-0.1c-0.4-1-0.7-1.9-0.6-3c0.1-1,0.6-2,1.1-3
							C59.9,259.7,59.6,259.6,59.6,259.7L59.6,259.7z"/>
					</g>
				</g>
			</g>
			<g>
				<linearGradient id="SVGID_30_" gradientUnits="userSpaceOnUse" x1="164.6987" y1="301.3171" x2="164.6987" y2="378.5348">
					<stop  offset="0" style="stop-color:#FCC73C"/>
					<stop  offset="1" style="stop-color:#FC7A3C"/>
				</linearGradient>
				<path class="st56" d="M268.7,326.4c0,0-31.4,11.6-38.5,11.6c-5.9,0-15.9-15.9-29.8-26.7c-8.6-6.7-18.4-10.4-18.4-10.4l-26.2-0.5
					c-4.9,0-14.8,0.7-23.8,1.9c-13,1.8-25.2,1.2-30.9-1.4c-11-4.9-38.5-34.5-38.5-34.5s-2.6-0.6-5,1.8c0,1.5,14.2,41.9,32.8,54
					c13.7,8.9,33.8,10.4,46.2,10.3c0,3,0,5.4,0,8.3c0,4.1-4.9,24.3,0.9,30.1c5.3,5.3,25.7,6,33.6,6c11.8,0,23.8-1.9,26.8-6
					c1.5-2.1,1.3-11.3,0.8-19.7c9.4,5.9,17.9,11.8,28.8,11.8c20.3,0,44.3-31.8,44.3-31.8L268.7,326.4z"/>
				<linearGradient id="SVGID_31_" gradientUnits="userSpaceOnUse" x1="194.5113" y1="346.9761" x2="194.5113" y2="357.284">
					<stop  offset="0" style="stop-color:#FCC73C"/>
					<stop  offset="1" style="stop-color:#FC7A3C"/>
				</linearGradient>
				<polygon class="st57" points="199,357.1 198.8,351.2 190,342.3 				"/>
				<linearGradient id="SVGID_32_" gradientUnits="userSpaceOnUse" x1="131.7843" y1="326.0889" x2="138.428" y2="326.0889">
					<stop  offset="0" style="stop-color:#FCC73C"/>
					<stop  offset="1" style="stop-color:#FC7A3C"/>
				</linearGradient>
				<path class="st58" d="M136.7,332.5c0-1,1.8-11.1,1.8-12.7c-2.6,5.7-6.6,12.7-6.6,12.7L136.7,332.5z"/>
			</g>
		</g>
		<g>
			<g>
				<path class="st59" d="M177.5,253.7c7.4,4.6,6.1,14,9.1,19.9c2.2,4.3,5.5,7.9,5.9,12.9c0.3,5.5-6.8,8.1-10.7,7.5
					c-7.5-1.2-14,2.7-21.6,1.7c-5.2-0.6-3.2-3.2-6.6-7.2c-2-2.4-3-5.5-3.3-8.6c-0.3-3.1,0.1-6.3,0.7-9.4"/>
			</g>
			<path class="st15" d="M163.9,285.7l-1.5,13.6l-6.6,1c0,0,4.6,8.3,11.9,8.3c7.3,0,14.3-7.7,14.3-7.7l-7.1-2.2l-2.7-19"/>
			<g>
				<path class="st15" d="M153.1,263.6c-0.4,4.5-0.9,9.2,0.1,13.6c1,4.4,3.7,8.8,7.8,10.6c1.9,0.8,4,1.1,6,1.2
					c3.5,0.2,7.2-0.2,9.9-2.4c3.2-2.5,4.5-6.8,4.2-10.9c-0.3-4-1.8-7.9-3.4-11.6c-1.4-3.5-2.9-7-4.3-10.4"/>
			</g>
			<g>
				<path class="st59" d="M136.2,281.7c-1.4,1.8-3.2,3.5-3.4,5.8c-0.2,2.2,1.2,4.5,3.3,5.4c1.8,0.8,3.5,0.5,5.5,0.4
					c2.1-0.1,4.2-0.2,6.3,0.3c1.8,0.3,3.5,1,5.2,1.5c2.6,0.7,5.3,1.1,7.9,0.7c0.5-0.1,1-0.2,1.2-0.6c0.2-0.5,0-1-0.2-1.4
					c-1.6-3.4-1.6-7.4-1.3-11.1c0.2-1.9,0.4-3.9,0.9-5.7c0.4-1.6,1.1-3.1,1.8-4.6c1.3-2.8,2.9-5.6,4.1-8.4c1.2-2.8,1.9-7.2,5.9-6.7
					c2.6,0.4,3.7,4.5,5.4,7c2.5-2.9,5.4-4.6,0-11.5c-2.7-3.4-7.3-3.2-11.4-2.5c-2.3-0.2-2.1-1.1-4.4-1.2
					c-7.5-0.5-15.5,4.6-18.8,11.4C140.3,268.1,141.2,275.5,136.2,281.7z"/>
			</g>
			<g>
				<g>
					<g>
						<path class="st22" d="M161.9,284.1c-0.6-0.1-1.1-0.1-1.7-0.3c-1.3-0.3-3.1-1.1-4.4-2.8c-0.5-0.6-0.7-1.2-0.7-1.8
							c0-0.1,0.1-0.3,0.3-0.3c0.1,0,0.3,0.1,0.3,0.3c0,0.5,0.2,1,0.6,1.5c1.2,1.6,2.8,2.3,4.1,2.6c1.6,0.4,3.4,0.3,4.9,0.3
							c0.1,0,0.3,0.1,0.3,0.2c0,0.1-0.1,0.3-0.2,0.3C164.2,284.1,163,284.2,161.9,284.1z"/>
					</g>
					<g>
						<path class="st22" d="M166.4,283.2c-0.4-0.2-1-0.2-1.5-0.1c-1.7,0.5,0.1,2.7,1.7,1.6c0.1-0.1,0.2-0.2,0.3-0.3
							C167.1,283.9,166.8,283.4,166.4,283.2z"/>
					</g>
				</g>
				<g>
					<g>
						<path class="st22" d="M150.7,266.4c0.4-3.7,1.8-7.9,4.1-10.7c3-3.7,6.9-6.7,10.7-6.7c3.2,0,4.7,0.7,4.7,0.7
							c-3.9,0.9-7.2,2.8-10.3,6c-3.1,3.2-4.9,7.6-5,12"/>
					</g>
				</g>
				<path class="st22" d="M160.3,272.5c0.4,4.1-2.3,7.8-6.2,8.2c-3.8,0.4-7.3-2.6-7.7-6.8c-0.4-4.1,2.3-7.8,6.2-8.2
					C156.4,265.3,159.8,268.4,160.3,272.5z"/>
				<path class="st24" d="M157,273.2c0.3,2.8-1.5,5.4-4,5.6c-2.5,0.3-4.8-1.8-5.1-4.7c-0.3-2.8,1.5-5.4,4-5.6
					C154.4,268.3,156.7,270.3,157,273.2z"/>
			</g>
		</g>
	</g>
	<g>
		<path class="st60" d="M589.7,92.5l-11,4.6c-1.2,0.5-1.5,2.1-0.5,3l7.9,6.8c1,0.9,2.5,0.4,2.9-0.9l3.1-11.4
			C592.4,93.2,591,91.9,589.7,92.5z"/>
		<path class="st60" d="M116.8,236.2l3.2,11.5c0.4,1.3,1.9,1.7,2.9,0.8l7.7-7c1-0.9,0.7-2.5-0.5-3l-10.9-4.5
			C117.9,233.5,116.4,234.7,116.8,236.2z"/>
		<path class="st60" d="M816.5,373.9l8.4-8.4c0.9-0.9,0.6-2.5-0.7-2.9l-9.9-3.3c-1.2-0.4-2.5,0.6-2.3,1.9l1.4,11.7
			C813.6,374.4,815.4,375,816.5,373.9z"/>
		<path class="st60" d="M776.9,243.6l3.1,11.5c0.3,1.3,1.9,1.7,2.9,0.9l7.8-6.9c1-0.9,0.7-2.5-0.5-3l-10.9-4.6
			C777.9,241,776.5,242.2,776.9,243.6z"/>
		
			<rect x="736.5" y="221.4" transform="matrix(0.7945 -0.6073 0.6073 0.7945 15.5259 495.5165)" class="st12" width="6.8" height="6.8"/>
		
			<rect x="684.8" y="173.4" transform="matrix(0.999 -4.449395e-02 4.449395e-02 0.999 -7.1864 30.7955)" class="st12" width="6.8" height="6.8"/>
		
			<rect x="248.4" y="262.5" transform="matrix(0.9317 -0.3632 0.3632 0.9317 -79.3783 109.6108)" class="st12" width="6.8" height="6.8"/>
		
			<rect x="313.7" y="96.5" transform="matrix(0.9338 0.3579 -0.3579 0.9338 56.7696 -106.8666)" class="st12" width="6.8" height="6.8"/>
		
			<rect x="46.9" y="435.8" transform="matrix(0.999 -4.449395e-02 4.449395e-02 0.999 -19.4923 2.6721)" class="st12" width="6.8" height="6.8"/>
	</g>
</g>
</svg>
