<?xml version="1.0" encoding="utf-8"?>
<!-- Generator: Adobe Illustrator 23.0.2, SVG Export Plug-In . SVG Version: 6.00 Build 0)  -->
<svg version="1.1" id="Layer_1" xmlns="http://www.w3.org/2000/svg" xmlns:xlink="http://www.w3.org/1999/xlink" x="0px" y="0px"
	 viewBox="0 0 1077.9 757.3" style="enable-background:new 0 0 1077.9 757.3;" xml:space="preserve">
<style type="text/css">
	.st0{fill:#DAEBFF;}
	.st1{fill:#00B77B;}
	.st2{fill:#00D967;}
	.st3{fill:none;stroke:#FFFFFF;stroke-width:0.7216;stroke-linecap:round;stroke-linejoin:round;stroke-miterlimit:10;}
	.st4{fill:#1E2889;}
	.st5{fill:#0542BF;}
	.st6{fill:#006DFE;}
	.st7{fill:url(#SVGID_1_);}
	.st8{fill:#FFFFFF;}
	.st9{fill:#B0D8FF;}
	.st10{fill:#3998FF;}
	.st11{fill:url(#SVGID_2_);}
	.st12{fill:#0ACE68;}
	.st13{fill:#EBF5FF;}
	.st14{fill:url(#SVGID_3_);}
	.st15{fill:#9FD4FF;}
	.st16{fill:#78CFFF;}
	.st17{fill:#B6E2FF;}
	.st18{fill:#64C8FF;}
	.st19{fill:#FFAB00;}
	.st20{clip-path:url(#SVGID_7_);fill:#FE8E00;}
	.st21{clip-path:url(#SVGID_11_);fill:#FE8E00;}
	.st22{clip-path:url(#SVGID_14_);fill:#17216B;}
	.st23{clip-path:url(#SVGID_16_);fill:#FE8E00;}
	.st24{clip-path:url(#SVGID_18_);fill:#FE8E00;}
	.st25{clip-path:url(#SVGID_20_);fill:#FE8E00;}
	.st26{fill:#FFACA6;}
	.st27{fill:#78C2FF;}
	.st28{fill:#EA756C;}
	.st29{fill:#191E56;}
	.st30{clip-path:url(#SVGID_22_);fill:#10163D;}
	.st31{clip-path:url(#SVGID_24_);fill:#EA756C;}
</style>
<title>product tour</title>
<ellipse class="st0" cx="325.8" cy="621.6" rx="193.3" ry="87.3"/>
<ellipse class="st0" cx="246.8" cy="720.7" rx="60.1" ry="27.1"/>
<ellipse class="st0" cx="660.7" cy="601.3" rx="167.2" ry="27.1"/>
<g>
	<path class="st1" d="M215.9,541.6c0,0-12.7,26.4-35.2,36.3c-22.5,9.8-54.1-2.6-71.7-17.1c-17.7-14.5-34.9-35.3-36.5-50.9
		c-1.7-15.4,28-9.3,28-9.3s-13.1-18.8-18.5-32.2s0.9-27.4,18.9-19.1s17.9,8.3,17.9,8.3s-13.8-29.4-13.5-47.6
		c0.2-18.2,10.5-45.6,29.9-26.3c19.3,19.3,21.3,59.9,21.3,59.9s4.3-17.3,10.4-29.9c6.1-12.7,18.9-11,24.7,6.7
		c5.9,17.7,8.1,42.9,8.1,42.9s5.6-19.4,14.8-16.3c9.1,3.1,14.4,25.9,13,48.3C225.6,517.4,215.9,541.6,215.9,541.6z"/>
	<g>
		<path class="st2" d="M211.9,494.2c0,0-0.7-96.3-71-130.6c0,0-32.2,80.8,16.7,150.3s38.9,53.2,38.9,53.2L211.9,494.2z"/>
		<line class="st3" x1="158.3" y1="408.6" x2="198.2" y2="551.7"/>
	</g>
</g>
<g>
	<g>
		<g>
			<rect x="587.1" y="475.6" class="st4" width="147.3" height="88.4"/>
			<rect x="515.7" y="563.1" class="st5" width="290.1" height="38.3"/>
		</g>
		<path class="st6" d="M971.3,483.1H350.1c-18,0-32.5-14.5-32.5-32.5V46.8c0-18,14.5-32.5,32.5-32.5h621.2c18,0,32.5,14.5,32.5,32.5
			v403.7C1003.9,468.4,989.2,483.1,971.3,483.1z"/>
		
			<linearGradient id="SVGID_1_" gradientUnits="userSpaceOnUse" x1="340.212" y1="511.3796" x2="981.0942" y2="511.3796" gradientTransform="matrix(1 0 0 -1 0 760)">
			<stop  offset="0" style="stop-color:#B0D8FF"/>
			<stop  offset="1.537955e-02" style="stop-color:#B3D9FF"/>
			<stop  offset="0.145" style="stop-color:#C4E1FF"/>
			<stop  offset="0.3014" style="stop-color:#D1E7FF"/>
			<stop  offset="0.5117" style="stop-color:#D8EAFF"/>
			<stop  offset="1" style="stop-color:#DAEBFF"/>
		</linearGradient>
		<path class="st7" d="M950.9,464.6H370.4c-16.7,0-30.2-13.5-30.2-30.2V62.8c0-16.7,13.5-30.2,30.2-30.2h580.5
			c16.7,0,30.2,13.5,30.2,30.2v371.6C981.1,451.1,967.5,464.6,950.9,464.6z"/>
	</g>
	<g>
		<path class="st8" d="M566.5,79.6H376.2c-4.1,0-7.6-3.3-7.6-7.6l0,0c0-4.1,3.3-7.6,7.6-7.6h190.2c4.1,0,7.6,3.3,7.6,7.6l0,0
			C574,76.3,570.6,79.6,566.5,79.6z"/>
		<path class="st8" d="M566.5,112.4H376.2c-4.1,0-7.6-3.3-7.6-7.6l0,0c0-4.1,3.3-7.6,7.6-7.6h190.2c4.1,0,7.6,3.3,7.6,7.6l0,0
			C574,109,570.6,112.4,566.5,112.4z"/>
		<path class="st8" d="M566.5,145H376.2c-4.1,0-7.6-3.3-7.6-7.6l0,0c0-4.1,3.3-7.6,7.6-7.6h190.2c4.1,0,7.6,3.3,7.6,7.6l0,0
			C574,141.7,570.6,145,566.5,145z"/>
		<path class="st8" d="M566.5,177.8H376.2c-4.1,0-7.6-3.3-7.6-7.6l0,0c0-4.1,3.3-7.6,7.6-7.6h190.2c4.1,0,7.6,3.3,7.6,7.6l0,0
			C574,174.3,570.6,177.8,566.5,177.8z"/>
		<path class="st8" d="M566.5,210.4H376.2c-4.1,0-7.6-3.3-7.6-7.6l0,0c0-4.1,3.3-7.6,7.6-7.6h190.2c4.1,0,7.6,3.3,7.6,7.6l0,0
			C574,207.1,570.6,210.4,566.5,210.4z"/>
	</g>
	<g>
		<path class="st8" d="M566.5,278.4H376.2c-4.1,0-7.6-3.3-7.6-7.6l0,0c0-4.1,3.3-7.6,7.6-7.6h190.2c4.1,0,7.6,3.3,7.6,7.6l0,0
			C574,274.9,570.6,278.4,566.5,278.4z"/>
		<path class="st2" d="M566.5,311H376.2c-4.1,0-7.6-3.3-7.6-7.6l0,0c0-4.1,3.3-7.6,7.6-7.6h190.2c4.1,0,7.6,3.3,7.6,7.6l0,0
			C574,307.7,570.6,311,566.5,311z"/>
		<path class="st8" d="M566.5,343.8H376.2c-4.1,0-7.6-3.3-7.6-7.6l0,0c0-4.1,3.3-7.6,7.6-7.6h190.2c4.1,0,7.6,3.3,7.6,7.6l0,0
			C574,340.3,570.6,343.8,566.5,343.8z"/>
		<path class="st8" d="M566.5,376.4H376.2c-4.1,0-7.6-3.3-7.6-7.6l0,0c0-4.1,3.3-7.6,7.6-7.6h190.2c4.1,0,7.6,3.3,7.6,7.6l0,0
			C574,373.1,570.6,376.4,566.5,376.4z"/>
		<path class="st8" d="M566.5,409.1H376.2c-4.1,0-7.6-3.3-7.6-7.6l0,0c0-4.1,3.3-7.6,7.6-7.6h190.2c4.1,0,7.6,3.3,7.6,7.6l0,0
			C574,405.8,570.6,409.1,566.5,409.1z"/>
	</g>
	<g>
		<path class="st8" d="M931.5,278.4H615.2c-4.1,0-7.6-3.3-7.6-7.6l0,0c0-4.1,3.3-7.6,7.6-7.6h316.3c4.1,0,7.6,3.3,7.6,7.6l0,0
			C939,274.9,935.7,278.4,931.5,278.4z"/>
		<path class="st8" d="M931.5,311H615.2c-4.1,0-7.6-3.3-7.6-7.6l0,0c0-4.1,3.3-7.6,7.6-7.6h316.3c4.1,0,7.6,3.3,7.6,7.6l0,0
			C939,307.7,935.7,311,931.5,311z"/>
		<path class="st8" d="M931.5,343.8H615.2c-4.1,0-7.6-3.3-7.6-7.6l0,0c0-4.1,3.3-7.6,7.6-7.6h316.3c4.1,0,7.6,3.3,7.6,7.6l0,0
			C939,340.3,935.7,343.8,931.5,343.8z"/>
		<path class="st8" d="M931.5,376.4H615.2c-4.1,0-7.6-3.3-7.6-7.6l0,0c0-4.1,3.3-7.6,7.6-7.6h316.3c4.1,0,7.6,3.3,7.6,7.6l0,0
			C939,373.1,935.7,376.4,931.5,376.4z"/>
		<path class="st8" d="M931.5,409.1H615.2c-4.1,0-7.6-3.3-7.6-7.6l0,0c0-4.1,3.3-7.6,7.6-7.6h316.3c4.1,0,7.6,3.3,7.6,7.6l0,0
			C939,405.8,935.7,409.1,931.5,409.1z"/>
	</g>
	<g>
		<path class="st8" d="M946,212.2H610.6c-3.7,0-6.7-3-6.7-6.7V70c0-3.7,3-6.7,6.7-6.7H946c3.7,0,6.7,3,6.7,6.7v135.6
			C952.7,209.3,949.7,212.2,946,212.2z"/>
		<path class="st0" d="M943.3,143.1v56.6c0,2.6-2,4.6-4.6,4.6H616.7c-2.6,0-4.6-2-4.6-4.6V75.4c29.8,0,44.5,11.1,53.2,25.8
			c0.6,0.9,1.1,1.9,1.6,2.9c14.7,27.8,10.2,65.9,42.5,65.9c1.2,0,2.3-0.1,3.4-0.4c0.7-0.1,1.3-0.3,2-0.7c21.8-9.1,18.3-74.1,57-73.6
			c8.2,0.1,14.4,3.2,19.3,8.3c0.4,0.6,0.9,1,1.3,1.6c17.3,20.3,17.5,65.6,44.1,73.8c9.6,3,18-1,26.4-7.7c0.6-0.4,1.1-0.9,1.6-1.3
			c17.7-14.7,35.2-39.8,62.5-33.6c0.8,0.2,1.6,0.3,2.4,0.7C933.9,138.1,938.5,140.1,943.3,143.1z"/>
		<path class="st1" d="M943.3,131.7c-5.8,0.1-10.2,2-13.8,5.2c-6.6,5.8-10.1,15.8-13.5,25.4c-5.2,14.5-10.5,29.5-26.1,29.5
			c-0.8,0-1.7,0-2.6-0.1c-10.2-1-17.7-9.2-24.2-20.7c-4.1-7-7.9-15.2-11.7-23.7c-10.8-23.7-22-48.2-42.5-48.8c-0.2,0-0.4,0-0.7,0
			c-6.2,0-11.3,2.3-15.7,6.3c-8.7,7.9-14.2,22.2-19.7,36.2c-8,20.8-16.3,42.2-35,42.5c-13.4,0.3-19.5-4.8-25-14.4
			c-2.1-3.8-4.1-8.1-6.4-13.2c-4.2-9.2-9.4-20.8-18.2-34.2c-5.9-9-13.3-14.7-21.3-18.1c-21.5-9.4-46.9-2.6-54.9,0.1v-2.1
			c8.4-2.7,32.2-8.8,53.2-0.8c9.2,3.4,17.9,9.7,24.5,19.9c8.8,13.5,14.1,25.1,18.4,34.4c2.4,5.2,4.4,9.8,6.6,13.4
			c5.1,8.9,10.8,13.3,23,13c17.3-0.4,25-20.2,33.1-41.3c5.6-14.2,11.1-28.9,20.2-37.1c4.8-4.3,10.5-7,17.8-6.8
			c21.9,0.6,33.3,25.7,44.3,50c3.8,8.2,7.4,16.3,11.4,23.2c6.3,11,13.4,19,22.9,19.9c16.1,1.6,21.2-12.8,26.7-28.1
			c3.3-9.6,6.8-19.2,13.1-25.4c4-4,9.1-6.4,16.1-6.6L943.3,131.7z"/>
	</g>
</g>
<g>
	<g>
		<path class="st9" d="M393.9,212.1H172.5c-7.2,0-13-5.9-13-13V66.8c0-7.2,5.9-13,13-13h221.4c7.2,0,13,5.9,13,13v132.3
			C406.9,206.3,401.1,212.1,393.9,212.1z"/>
		<g>
			<path class="st10" d="M406.9,66.1c0-7-5.7-12.8-12.8-12.8H176.7c-7,0-12.8,5.7-12.8,12.8v14.5h243V66.1z"/>
			
				<linearGradient id="SVGID_2_" gradientUnits="userSpaceOnUse" x1="284.9601" y1="689.1458" x2="286.1647" y2="546.9865" gradientTransform="matrix(1 0 0 -1 0 760)">
				<stop  offset="0" style="stop-color:#B0D8FF"/>
				<stop  offset="1.537955e-02" style="stop-color:#B3D9FF"/>
				<stop  offset="0.145" style="stop-color:#C4E1FF"/>
				<stop  offset="0.3014" style="stop-color:#D1E7FF"/>
				<stop  offset="0.5117" style="stop-color:#D8EAFF"/>
				<stop  offset="1" style="stop-color:#DAEBFF"/>
			</linearGradient>
			<path class="st11" d="M164,80.6v114.2c0,7,5.7,12.8,12.8,12.8h217.4c7,0,12.8-5.7,12.8-12.8V80.6H164z"/>
		</g>
		<g>
			<ellipse class="st8" cx="348.4" cy="67.4" rx="5" ry="5"/>
			<g>
				<ellipse class="st8" cx="368.4" cy="67.4" rx="5" ry="5"/>
			</g>
			<g>
				<ellipse class="st8" cx="388.3" cy="67.4" rx="5" ry="5"/>
			</g>
		</g>
	</g>
	<path class="st8" d="M374.8,198h-68.5c-10.7,0-19.2-8.7-19.2-19.2v-60.3c0-10.7,8.7-19.2,19.2-19.2h68.5c10.7,0,19.2,8.7,19.2,19.2
		v60.3C394,189.3,385.4,198,374.8,198z"/>
	<g>
		<g>
			<path class="st12" d="M268,138.9c-4.3-19.4-21.8-33.9-42.4-33.9v43.5L268,138.9z"/>
			<path class="st8" d="M225.6,148.6V105c-24.1,0-43.5,19.5-43.5,43.5c0,24.1,19.5,43.5,43.5,43.5s43.5-19.5,43.5-43.5
				c0-3.3-0.3-6.6-1.1-9.7L225.6,148.6z"/>
		</g>
		<circle class="st0" cx="225.6" cy="149.2" r="33.3"/>
	</g>
</g>
<rect x="107.4" y="268.9" class="st0" width="74.2" height="32.8"/>
<rect x="137.4" y="301.7" class="st13" width="74.2" height="32.8"/>
<g>
	<path class="st9" d="M877.5,517.3h-241c-7.9,0-14.2-6.3-14.2-14.2V359.1c0-7.9,6.3-14.2,14.2-14.2h241c7.9,0,14.2,6.3,14.2,14.2
		V503C891.7,510.9,885.4,517.3,877.5,517.3z"/>
	<g>
		<path class="st10" d="M891.7,358.2c0-7.7-6.2-13.9-13.9-13.9H641.2c-7.7,0-13.9,6.2-13.9,13.9v15.9h264.4V358.2z"/>
		
			<linearGradient id="SVGID_3_" gradientUnits="userSpaceOnUse" x1="760.038" y1="388.4511" x2="758.8334" y2="246.2917" gradientTransform="matrix(1 0 0 -1 0 760)">
			<stop  offset="0" style="stop-color:#B0D8FF"/>
			<stop  offset="1.537955e-02" style="stop-color:#B3D9FF"/>
			<stop  offset="0.145" style="stop-color:#C4E1FF"/>
			<stop  offset="0.3014" style="stop-color:#D1E7FF"/>
			<stop  offset="0.5117" style="stop-color:#D8EAFF"/>
			<stop  offset="1" style="stop-color:#DAEBFF"/>
		</linearGradient>
		<path class="st14" d="M627.3,374.1v124.3c0,7.7,6.2,13.9,13.9,13.9h236.7c7.7,0,13.9-6.2,13.9-13.9V374.1H627.3z"/>
	</g>
	<g>
		<ellipse class="st8" cx="827.9" cy="359.8" rx="5.3" ry="5.3"/>
		<g>
			<ellipse class="st8" cx="849.7" cy="359.8" rx="5.3" ry="5.3"/>
		</g>
		<g>
			<ellipse class="st8" cx="871.4" cy="359.8" rx="5.3" ry="5.3"/>
		</g>
	</g>
</g>
<g>
	<rect x="650.4" y="397.3" class="st2" width="21.8" height="81.6"/>
	<rect x="688.6" y="407.9" class="st2" width="21.8" height="71.1"/>
	<rect x="726.8" y="429.1" class="st2" width="21.8" height="49.9"/>
	<rect x="765" y="413.2" class="st2" width="21.8" height="65.7"/>
	<rect x="803.2" y="429.1" class="st2" width="21.8" height="49.9"/>
	<rect x="841.4" y="413.2" class="st2" width="21.8" height="65.7"/>
	<rect x="642.5" y="485.8" class="st2" width="229.1" height="3.2"/>
</g>
<g>
	<g>
		<path class="st15" d="M220.7,430.4c0,0,6-85.7,52-131.6s135.2-51,169.7-30.9c34.4,20.1,55.5,48.2,65,114.3s6.6,156.9-11.2,195.5
			c-17.8,38.6-55,80.2-105.6,91.8c-50.6,11.7-105.5,20.1-162.2,6.1c-56.7-14.1-80.3-29.3-93.5-86.2c-13.2-56.9,31.8-93.4,48.9-104.7
			C200.7,473.5,220.7,430.4,220.7,430.4z"/>
	</g>
	<path class="st16" d="M456.2,277c7.3,14.9,15.8,38.1,19.7,70.3c7.3,62.1,22.7,138.6,1.6,181.2c-21.1,42.6-39.6,84.2-85.5,100.1
		c-46,15.9-92.1,21.3-92.1,21.3s-94.2,0.7-149.8-19.7c15,25.1,38.5,35.5,78.4,45.4c56.7,14.1,111.6,5.7,162.2-6.1
		c50.6-11.8,87.8-53.3,105.6-91.8c17.8-38.6,20.5-129.4,11.2-195.5C499.1,325.5,482.5,296.8,456.2,277z"/>
	<path class="st17" d="M356.4,320.8l-2.6-29.4l-7.7-29.9c-27.3,6.1-54.2,18.1-73.5,37.3c-46,45.8-52,131.6-52,131.6
		s-19.9,43.1-37.1,54.3c-16.3,10.8-57.9,44.4-50.4,96.6c23.2,4.7,56.3,6.8,77.3-11.7c35.2-30.9,113.9-167.9,113.9-167.9L356.4,320.8
		z"/>
	<path class="st18" d="M419.3,314.1c20.2-19,16-42.4,13.7-50.5c-14.1-5.3-33.4-7.7-54.3-6.6l-7.8,14.1l-1.7,19.8
		c0,0-13.2,63.9-13.2,70.1c-0.1,6.3-12,35.2-14.1,39.5c-2.2,4.2-40.1,67.1-40.1,67.1s-56.6,66.1-56.2,68.5s-0.4,138-0.4,138l8.7,6.4
		c12,1.7,23.9,2.4,35.6,2.4c-1.3-7.4-3.4-16.9-6.7-29c-12.5-46.5,2.3-102.3,2.3-102.3s6.7,72.6,24,89.3c17.3,16.7,35.5,9.9,29.4-7.9
		c-6.1-17.8,6-38.1,6-38.1s110.4-46.5,117.6-77.5c7.2-31-31.2-34.8-31.2-34.8s28.5-13.1,37.3-30.8c8.9-17.8-11.1-80.7-23.3-98.9
		C432.7,334.9,414.1,321.1,419.3,314.1z"/>
	<g>
		<g>
			<path id="SVGID_4_" class="st19" d="M265.1,672.1c0,0,1.8,10.3,4.2,18.3c2.4,8,9.9,12.7,9.3,21c-0.4,8.3-23.2,15.5-38.9,22.4
				s-31.1,7.8-32.8-5c-1.7-12.9,26.2-16.1,31.9-34.4c5.7-18.3,1.9-19.9,1.9-19.9L265.1,672.1z"/>
		</g>
		<g>
			<defs>
				<path id="SVGID_5_" d="M265.1,672.1c0,0,1.8,10.3,4.2,18.3c2.4,8,9.9,12.7,9.3,21c-0.4,8.3-23.2,15.5-38.9,22.4
					s-31.1,7.8-32.8-5c-1.7-12.9,26.2-16.1,31.9-34.4c5.7-18.3,1.9-19.9,1.9-19.9L265.1,672.1z"/>
			</defs>
			<clipPath id="SVGID_7_">
				<use xlink:href="#SVGID_5_"  style="overflow:visible;"/>
			</clipPath>
			<path class="st20" d="M228.6,697.4c0,0,18.2-4.6,24.9,0.7c6.8,5.2,10.2,22.7,7.8,28.8l15.7-2.3l11.2-13.2l-7.9-27l-17.8-16.9
				l-36,7.9L228.6,697.4z"/>
		</g>
	</g>
	<g>
		<g>
			<path id="SVGID_6_" class="st19" d="M327.6,554.1c0,0-8.9,5.6-16.4,9s-16,1.1-21.9,7s3.9,27.7,9.2,44
				c5.3,16.2,14.9,28.4,25.5,21.1s-5.4-30.2,4.4-46.8c9.9-16.4,13.5-14.5,13.5-14.5L327.6,554.1z"/>
		</g>
		<g>
			<defs>
				<path id="SVGID_9_" d="M327.6,554.1c0,0-8.9,5.6-16.4,9s-16,1.1-21.9,7s3.9,27.7,9.2,44c5.3,16.2,14.9,28.4,25.5,21.1
					s-5.4-30.2,4.4-46.8c9.9-16.4,13.5-14.5,13.5-14.5L327.6,554.1z"/>
			</defs>
			<clipPath id="SVGID_11_">
				<use xlink:href="#SVGID_9_"  style="overflow:visible;"/>
			</clipPath>
			<path class="st21" d="M304.8,563.2c0,0,8.7,5.6,9.1,22.2c0.4,16.7,12.2,51.6,12.2,51.6s4.9-10.2,5.3-11
				c0.4-0.8-3.8-25.7-3.8-25.7s8.2-12.1,8.7-12.5c0.4-0.3,6.1-13.2,6.1-13.2l-23.4-24.8L304.8,563.2z"/>
		</g>
	</g>
	<g>
		<g>
			<path id="SVGID_8_" class="st4" d="M401.7,476.4c0,0,40,14,46.8,27.4c6.8,13.3,2.9,34.4-38,52.2s-77.6,34.5-77.6,34.5
				s-19.1-12.8-18.8-34.9l52.9-30.7c0,0-13.1-7.7-28.9-5.9s-76.3,10.1-76.3,10.1s7.1,62.4,12.2,149.3c0,0-19,14.7-40.1,4.6
				c0,0-28.9-143.3-27.1-166.9c1.8-23.7,17.2-32.8,39.1-37.2c22-4.3,67-18.3,67-18.3L401.7,476.4z"/>
		</g>
		<g>
			<defs>
				<path id="SVGID_13_" d="M401.7,476.4c0,0,40,14,46.8,27.4c6.8,13.3,2.9,34.4-38,52.2s-77.6,34.5-77.6,34.5s-19.1-12.8-18.8-34.9
					l52.9-30.7c0,0-13.1-7.7-28.9-5.9s-76.3,10.1-76.3,10.1s7.1,62.4,12.2,149.3c0,0-19,14.7-40.1,4.6c0,0-28.9-143.3-27.1-166.9
					c1.8-23.7,17.2-32.8,39.1-37.2c22-4.3,67-18.3,67-18.3L401.7,476.4z"/>
			</defs>
			<clipPath id="SVGID_14_">
				<use xlink:href="#SVGID_13_"  style="overflow:visible;"/>
			</clipPath>
			<path class="st22" d="M206,493.7c0,0,22-4.9,34.3,11.2c12.3,16,32.2,56.5,32.2,56.5l56.1-13.2c0,0,24.7-12.8,47.6-21.1
				c23-8.3,48.9-24.2,64.4-8.4s-4.2,38.2-4.2,38.2l30.2-36.6l-7.1-50.9l-118.8-25.5l-105.2,9.3L206,493.7z"/>
		</g>
	</g>
	<g>
		<g>
			<path id="XMLID_208_" class="st19" d="M447,396.7c-5.9-17.9-17.7-50.3-33.9-56.6c-16.2-6.3-40-6.8-40-6.8l-6.8,0.9l-20.7-0.7
				c-36.3-0.3-42,8.9-49.1,21.5c-6.3,11.4-12.8,29.1-12.8,29.1l-24.4,73.6c53.2,40.8,146.5,22.5,146.5,22.5s34.4-15.5,45.1-24.3
				C461.9,447.3,452.9,414.5,447,396.7z M313.6,406.4l-1.7,28.8l-16.3-4.6c0,0,10.1-29.7,19.3-48.1L313.6,406.4z M422.1,432.1
				c-2.3,6.6-20.1,17.8-20.1,17.8l5-58.6C406.9,391.2,424.5,425.5,422.1,432.1z"/>
		</g>
		<g>
			<defs>
				<path id="SVGID_15_" d="M447,396.7c-5.9-17.9-17.7-50.3-33.9-56.6c-16.2-6.3-40-6.8-40-6.8l-6.8,0.9l-20.7-0.7
					c-36.3-0.3-42,8.9-49.1,21.5c-6.3,11.4-12.8,29.1-12.8,29.1l-24.4,73.6c53.2,40.8,146.5,22.5,146.5,22.5s34.4-15.5,45.1-24.3
					C461.9,447.3,452.9,414.5,447,396.7z M313.6,406.4l-1.7,28.8l-16.3-4.6c0,0,10.1-29.7,19.3-48.1L313.6,406.4z M422.1,432.1
					c-2.3,6.6-20.1,17.8-20.1,17.8l5-58.6C406.9,391.2,424.5,425.5,422.1,432.1z"/>
			</defs>
			<clipPath id="SVGID_16_">
				<use xlink:href="#SVGID_15_"  style="overflow:visible;"/>
			</clipPath>
			<path class="st23" d="M407.8,397.7l-0.9-6.4c0,0-1.1-15.1,1.2-28.7c0,0-11.2,24.3-16.4,55.2s-61.3,37.8-61.3,37.8l-0.9,22.1
				l42.6-3.4l7.2-6.3l22.5-17.8l8.9-35.4L407.8,397.7z"/>
		</g>
		<g>
			<defs>
				<path id="SVGID_17_" d="M447,396.7c-5.9-17.9-17.7-50.3-33.9-56.6c-16.2-6.3-40-6.8-40-6.8l-6.8,0.9l-20.7-0.7
					c-36.3-0.3-42,8.9-49.1,21.5c-6.3,11.4-12.8,29.1-12.8,29.1l-24.4,73.6c53.2,40.8,146.5,22.5,146.5,22.5s34.4-15.5,45.1-24.3
					C461.9,447.3,452.9,414.5,447,396.7z M313.6,406.4l-1.7,28.8l-16.3-4.6c0,0,10.1-29.7,19.3-48.1L313.6,406.4z M422.1,432.1
					c-2.3,6.6-20.1,17.8-20.1,17.8l5-58.6C406.9,391.2,424.5,425.5,422.1,432.1z"/>
			</defs>
			<clipPath id="SVGID_18_">
				<use xlink:href="#SVGID_17_"  style="overflow:visible;"/>
			</clipPath>
			<path class="st24" d="M446.1,385.8c0,0.8,6.9,34.8,5.3,48c-1.6,13.2-5.2,17.4-23.7,27.7c-18.4,10.2-44.4,20-44.4,20l1,6.4
				l21.9-0.1l18-8.9l29.5-11c0,0,8.2-11.8,8.6-18.2c0.3-6.4,4-6.4-0.1-19.9C458.2,416,446.1,385.8,446.1,385.8z"/>
		</g>
		<g>
			<defs>
				<path id="SVGID_19_" d="M447,396.7c-5.9-17.9-17.7-50.3-33.9-56.6c-16.2-6.3-40-6.8-40-6.8l-6.8,0.9l-20.7-0.7
					c-36.3-0.3-42,8.9-49.1,21.5c-6.3,11.4-12.8,29.1-12.8,29.1l-24.4,73.6c53.2,40.8,146.5,22.5,146.5,22.5s34.4-15.5,45.1-24.3
					C461.9,447.3,452.9,414.5,447,396.7z M313.6,406.4l-1.7,28.8l-16.3-4.6c0,0,10.1-29.7,19.3-48.1L313.6,406.4z M422.1,432.1
					c-2.3,6.6-20.1,17.8-20.1,17.8l5-58.6C406.9,391.2,424.5,425.5,422.1,432.1z"/>
			</defs>
			<clipPath id="SVGID_20_">
				<use xlink:href="#SVGID_19_"  style="overflow:visible;"/>
			</clipPath>
			<path class="st25" d="M310.7,393.4l3.6-9.8c0,0-2.3-6.3,1.6-27.4L297,405.4l-5.8,28.4l10.9-13.5L310.7,393.4z"/>
		</g>
	</g>
	<path class="st26" d="M333.1,470.6c0,0,6.3-8,13.3-10.5c7.1-2.6,33.1,7.6,33.1,7.6l6.1,15.4c0,0-9.2,5.8-20.1,3.2
		c-10.9-2.7-28.1-2.4-28.1-2.4L333.1,470.6z"/>
	<g>
		
			<rect x="303.3" y="411.9" transform="matrix(5.699530e-02 -0.9984 0.9984 5.699530e-02 -192.7844 765.0191)" class="st27" width="10.6" height="145.4"/>
		<polygon class="st5" points="342.4,491.8 215.9,484.6 202.7,394.9 329.1,402.1 		"/>
		<polygon class="st6" points="332.8,491.3 206.5,484.1 193.2,394.4 319.6,401.7 		"/>
	</g>
	
		<ellipse transform="matrix(0.989 -0.1478 0.1478 0.989 -61.2116 43.0694)" class="st8" cx="259.2" cy="433.4" rx="11.3" ry="14.4"/>
	<g>
		<path class="st26" d="M348.7,322.1c-0.3,3.2-1.2,7-3,11.3c0,0,3.3,8,12.3,7s15-7.2,15-7.2s-1.8-3.4-2.8-9.7
			C362.5,319.5,354.3,320.6,348.7,322.1z"/>
		<path class="st28" d="M370.4,323.6c-0.7-4.6-0.9-10.7,0.6-18l-5.6-3.7l-18.5,7.6c0,0,2.7,4.6,1.9,12.5
			C354.3,320.6,362.5,319.5,370.4,323.6z"/>
	</g>
	<g>
		<g>
			<path id="SVGID_10_" class="st29" d="M334.2,264.6c0,0-10,1.4-14.1-14.2c-3.2-12.1,3.9-16.5,9-19.7c5-3.1,5.4-5.7,11.9-9.2
				c8.6-4.8,12,0.7,16.8-2.4c4.8-3.1,13.8-3.2,18.3,2.9c4.6,6.2,7.7,3.3,14.5,6.7c6.9,3.3,4,12.2,7.2,14.8c3.2,2.6,8.3,3.8,7.7,11.4
				s-5.9,9.3-2.7,14.8c3.2,5.4,1.6,17.8-6.8,19.3c-8.3,1.6-12.4,7.2-13.4,12.7c-1,5.4-10,7.8-14.9,5.6
				C362.7,305,334.2,264.6,334.2,264.6z"/>
		</g>
		<g>
			<defs>
				<path id="SVGID_21_" d="M334.2,264.6c0,0-10,1.4-14.1-14.2c-3.2-12.1,3.9-16.5,9-19.7c5-3.1,5.4-5.7,11.9-9.2
					c8.6-4.8,12,0.7,16.8-2.4c4.8-3.1,13.8-3.2,18.3,2.9c4.6,6.2,7.7,3.3,14.5,6.7c6.9,3.3,4,12.2,7.2,14.8
					c3.2,2.6,8.3,3.8,7.7,11.4s-5.9,9.3-2.7,14.8c3.2,5.4,1.6,17.8-6.8,19.3c-8.3,1.6-12.4,7.2-13.4,12.7c-1,5.4-10,7.8-14.9,5.6
					C362.7,305,334.2,264.6,334.2,264.6z"/>
			</defs>
			<clipPath id="SVGID_22_">
				<use xlink:href="#SVGID_21_"  style="overflow:visible;"/>
			</clipPath>
			<path class="st30" d="M316.6,239.6c0,0,2.3,4.1,31.6,3.6c29.3-0.6,29.4,24.8,39.1,29.9s19.4,11.3,19.4,11.3l-18.7,23.8
				l-16.3,12.5l-54.1-26.9L316.6,239.6z"/>
		</g>
	</g>
	<g>
		<g>
			<path id="SVGID_12_" class="st26" d="M333.3,256.3c0,0-7.2,29.2-1.7,46.3c5.4,17.1,21.3,11.3,34.2,2l2.7-9.9
				c0,0,6.8,1.4,10.8-6.7c4.1-8.1-4.7-9.7-4.7-9.7s-3.3-2.4-3.7-7.2c0,0-5.4,2.6-11.7-6.2c0,0-3.2-5.4-8.1-3.4
				c-4.9,2-10.2,0.4-12.7-3.9C336.2,253.3,333.3,256.3,333.3,256.3z"/>
		</g>
		<g>
			<defs>
				<path id="SVGID_23_" d="M333.3,256.3c0,0-7.2,29.2-1.7,46.3c5.4,17.1,21.3,11.3,34.2,2l2.7-9.9c0,0,6.8,1.4,10.8-6.7
					c4.1-8.1-4.7-9.7-4.7-9.7s-3.3-2.4-3.7-7.2c0,0-5.4,2.6-11.7-6.2c0,0-3.2-5.4-8.1-3.4c-4.9,2-10.2,0.4-12.7-3.9
					C336.2,253.3,333.3,256.3,333.3,256.3z"/>
			</defs>
			<clipPath id="SVGID_24_">
				<use xlink:href="#SVGID_23_"  style="overflow:visible;"/>
			</clipPath>
			<path class="st31" d="M325.9,263.1c0,0,1.7,4.4,11,5.4c9.3,1,11.4,2.7,18.5,6.9c7.1,4.2,10.9,9.2,19.3,8.8
				c8.3-0.4,7.8-3.8,7.8-3.8l-6.8-9.6l-20.5-10.9l-16.5-4.4l-6.2-1.3L325.9,263.1z"/>
		</g>
	</g>
</g>
</svg>
