<?xml version="1.0" encoding="utf-8"?>
<!-- Generator: Adobe Illustrator 23.0.2, SVG Export Plug-In . SVG Version: 6.00 Build 0)  -->
<svg version="1.1" id="a72efc3b-c8ca-4ac7-8d6e-ec44610d5e5f"
	 xmlns="http://www.w3.org/2000/svg" xmlns:xlink="http://www.w3.org/1999/xlink" x="0px" y="0px" viewBox="0 0 1177.8 836.9"
	 style="enable-background:new 0 0 1177.8 836.9;" xml:space="preserve">
<style type="text/css">
	.st0{fill:#D3E0F1;}
	.st1{fill:#C3D1FF;}
	.st2{fill:#9FC3FD;}
	.st3{fill:#4055EC;}
	.st4{fill:#E2EAF5;}
	.st5{fill:#FFFFFF;}
	.st6{fill:none;stroke:#000000;stroke-width:0.3796;stroke-miterlimit:10;}
	.st7{fill:none;stroke:#D3E0F1;stroke-width:1.5183;stroke-linecap:round;stroke-linejoin:round;stroke-miterlimit:10;}
	.st8{fill:none;stroke:#FFFFFF;stroke-width:1.5183;stroke-linecap:round;stroke-miterlimit:10;}
	.st9{fill:none;stroke:#F8DA7D;stroke-width:1.5183;stroke-linecap:round;stroke-linejoin:round;stroke-miterlimit:10;}
	.st10{fill:#4052F2;}
	.st11{fill:#0600A0;}
	.st12{fill:none;stroke:#18186D;stroke-width:1.8978;stroke-miterlimit:10;}
	.st13{fill:#FFFFFF;stroke:#15858E;stroke-width:3.0365;stroke-linecap:round;stroke-linejoin:round;stroke-miterlimit:10;}
	.st14{fill:#F7B94A;stroke:#D3E0F1;stroke-width:3.0365;stroke-linecap:round;stroke-miterlimit:10;}
	.st15{opacity:0.79;}
	.st16{fill:#7789F2;}
	.st17{fill:#EEEEEF;}
	.st18{fill:#FFFFFE;}
	.st19{opacity:0.74;fill:#FFFFFF;}
	.st20{fill:none;stroke:#FFFFFF;stroke-width:3.0365;stroke-linecap:round;stroke-linejoin:round;stroke-miterlimit:10;}
	.st21{opacity:0.94;fill:#FFFFFF;}
	.st22{fill:none;stroke:#F2F5FA;stroke-width:3.0365;stroke-linecap:round;stroke-linejoin:round;stroke-miterlimit:10;}
	.st23{fill:#451ABF;}
	.st24{fill:#F88329;}
	.st25{fill:#FFCAE1;}
	.st26{fill:#FDB2D0;}
	.st27{fill:#FFBDDD;}
	.st28{fill:#F2AE87;}
	.st29{fill:#F19C63;}
	.st30{fill:none;stroke:#DD600F;stroke-width:1.1387;stroke-linecap:round;stroke-linejoin:round;stroke-miterlimit:10;}
	.st31{fill:none;stroke:#DD600F;stroke-width:1.1387;stroke-linecap:round;stroke-linejoin:round;}
	.st32{fill:none;stroke:#DD600F;stroke-width:1.1387;stroke-linecap:round;stroke-linejoin:round;stroke-dasharray:4.5338,4.5338;}
	.st33{fill:#186581;}
	.st34{opacity:0.1;}
	.st35{opacity:0.2;}
	.st36{fill:#BD6615;}
	.st37{fill:#15455B;}
	.st38{fill:none;stroke:#DD600F;stroke-width:1.1387;stroke-linecap:round;stroke-linejoin:round;stroke-dasharray:4.5833,4.5833;}
	
		.st39{clip-path:url(#SVGID_2_);fill:none;stroke:#F8DA7D;stroke-width:1.1387;stroke-linecap:round;stroke-linejoin:round;stroke-miterlimit:10;}
	.st40{clip-path:url(#SVGID_4_);fill:#FFFFFF;}
	.st41{fill:none;stroke:#F8DA7D;stroke-width:1.1387;stroke-linecap:round;stroke-linejoin:round;stroke-miterlimit:10;}
	.st42{fill:#F9F9E8;}
	.st43{fill:#18186D;}
	.st44{fill:none;}
	.st45{fill:none;stroke:#100C4D;stroke-width:0.7591;stroke-linecap:round;stroke-linejoin:round;}
	.st46{fill:none;stroke:#100C4D;stroke-width:0.7591;stroke-linecap:round;stroke-linejoin:round;stroke-dasharray:4.5182,4.5182;}
	.st47{fill:#EE834D;}
	.st48{fill:#422224;}
	.st49{opacity:5.000000e-02;}
	.st50{opacity:0.65;fill:#F9F9E8;}
	.st51{opacity:0.1;fill:#FF7206;}
	.st52{fill:#100C4D;}
	.st53{fill:none;stroke:#F9F9E8;stroke-width:0.3796;stroke-linecap:round;stroke-miterlimit:10;}
	.st54{fill:none;stroke:#F9F9E8;stroke-width:0.3796;stroke-linecap:round;stroke-miterlimit:10;stroke-dasharray:4.6283,4.6283;}
	.st55{opacity:0.17;}
	
		.st56{fill:none;stroke:#100C4D;stroke-width:0.5693;stroke-linecap:round;stroke-linejoin:round;stroke-miterlimit:10;stroke-dasharray:4.5548;}
	.st57{fill:#342DEC;}
	.st58{opacity:0.75;}
	.st59{fill:none;stroke:#F88329;stroke-width:1.1387;stroke-linecap:round;stroke-linejoin:round;stroke-miterlimit:10;}
	.st60{fill:#FF7206;}
	.st61{fill:url(#SVGID_5_);}
	.st62{fill:url(#SVGID_6_);}
	.st63{fill:url(#SVGID_7_);}
	
		.st64{opacity:0.79;fill:none;stroke:#FFFFFF;stroke-width:3.0365;stroke-linecap:round;stroke-linejoin:round;stroke-miterlimit:10;}
	.st65{fill:#96ACAD;}
	.st66{fill:#85A9FF;}
	.st67{fill:none;stroke:#186581;stroke-width:0.3796;stroke-linecap:round;stroke-miterlimit:10;}
	.st68{opacity:0.66;}
	.st69{fill:#01017F;}
	.st70{opacity:4.000000e-02;fill:#FF7206;}
</style>
<title>scrum board</title>
<g>
	<g>
		<g>
			<path class="st0" d="M89.6,419.2c0,0,85.7,43.4,134.1,108.6"/>
			<path class="st0" d="M113.5,369c0,0,69.8,56,44.1,94C157.6,463,84.1,432.9,113.5,369z"/>
			<path class="st0" d="M23.9,363.6c0,0,81,14.7,86.5,67.3c0,0-49.5,7.3-71.5-35.4C16.9,352.9,23.9,363.6,23.9,363.6z"/>
			<path class="st0" d="M138.3,451.9c0,0-43.9-18.2-73.7,11.1c0,0,48.8,20.8,75.5-7.3"/>
		</g>
	</g>
	<path class="st1" d="M30.7,490.2c0,0,0,142.9,104.1,131.7s71.4-92,71.4-92S142.1,468.6,30.7,490.2z"/>
	<g>
		<g>
			<path class="st2" d="M1064.7,513.3c0,0-29.9,109.5-91.8,195L1064.7,513.3z"/>
			<path class="st2" d="M1125.6,507.6c0,0-47.2,101.2-94.9,98.1C1030.7,605.7,1048.3,515.9,1125.6,507.6z"/>
			<path class="st2" d="M1112.4,416.4c0,0,1,88.2-56.2,124.2c0,0-18.7-44.4,23.9-90.8C1122.7,403.3,1112.4,416.4,1112.4,416.4z"/>
			<path class="st2" d="M1038.9,580.2c0,0,10.8-53.8-28.1-66c0,0-12.6,60.1,24.3,70L1038.9,580.2z"/>
		</g>
	</g>
	<g>
		<g>
			<path class="st1" d="M1083,604.2c0,0-64.3,93.6-151,153.8L1083,604.2z"/>
			<path class="st1" d="M1142.3,618.9c0,0-77.9,80-122,61.3C1020.4,680.2,1066.7,601.3,1142.3,618.9z"/>
			<path class="st1" d="M1159.9,528.4c0,0-28.2,83.6-94,98.7c0,0-3-48.1,52.6-77.9S1159.9,528.4,1159.9,528.4z"/>
			<path class="st1" d="M1036.5,658.8c0,0,27.9-47.2-4.8-71.6c0,0-31.7,52.6-0.2,74.1L1036.5,658.8z"/>
		</g>
	</g>
	<path class="st3" d="M1040.8,688.8c-4.6,5-10.9,8.2-16.9,11.5c-19.2,10.7-37.4,24.9-47,44.6c-0.4,0.8-0.8,1.7-1.2,2.5
		c-3.9,9-5.7,19.1-5,28.9h-84.3c0.1-42.7,11.3-84,26.8-123.5c0.9-2.4,1.9-4.8,2.9-7.2c2.5-6.1,6.2-12.2,12.2-15.2
		c4.2-2.1,9.1-2.5,13.7-3.5c12.1-2.7,19.8-9.7,26.1-18.3v0c6-8.2,10.8-17.8,16.9-26.2c0,0,0,0,0,0c0.8-1.1,1.5-2.1,2.4-3.1
		c0.1-0.2,0.3-0.3,0.4-0.5c0,0,0,0,0,0c1.4-1.7,2.9-3.4,4.5-5c1.6-1.6,3.3-3,5.1-4.4c12.5-9.3,26.7-5.3,34.5,4.4
		c5.8,7.1,8,17.3,3.5,27.4c-3.8,8.5-10.6,15.2-17.7,21.2c-8.7,7.2-17.3,14.4-26.4,21c-8.5,6.1-21.1,9.8-27,18.9
		c-16.6,25.3,21.2,19.3,33.4,12.1c11.3-6.6,39.3-25.6,47.9-4.4C1048.2,676.4,1045.5,683.8,1040.8,688.8z"/>
	<g>
		<g>
			<path class="st3" d="M168.6,618.2c0,0,29.8,61.1,75.7,104.3"/>
			<path class="st3" d="M132.1,622c0,0,39,54.2,66.8,46.8C198.9,668.7,178.5,617.8,132.1,622z"/>
			<path class="st3" d="M129.7,566.6c0,0,9.2,52.2,46.9,66.7c0,0,6.1-28.4-24.2-50.8S129.7,566.6,129.7,566.6z"/>
			<path class="st3" d="M191.2,654.7c0,0-12.3-30.4,9.2-42.2c0,0,14.1,34-6.5,44.1"/>
		</g>
	</g>
	<path class="st4" d="M970.5,658.6l-29.2-13.1c0.3-1.7,0.6-3.5,0.9-5.2c4-25.6,4.4-51.3,1.3-76.4l51.3-19.5l28.6-10.9l7.3-2.8
		c-1.3-7-2.8-13.9-4.5-20.8c-9.1-37-24-72.5-44-105l-53.2,20.2l-34.1,13c-14.9-21.1-33-40.3-53.8-56.8l38.2-85.1
		c-18.3-12.7-37.9-23.8-58.9-33.3c-21-9.4-42.4-16.7-64-22L718,326.1c-26.5-4.7-53.1-5.4-79.1-2.4l-33.2-87.3
		c-44.6,8-87.4,24.1-126.1,47.6l33.1,87.2c-22,15.2-41.9,33.8-58.9,55.3l-85.1-38.2c-12.7,18.3-23.8,37.9-33.3,58.9
		c-5.9,13.2-11,26.5-15.2,39.9c-2.5,8-4.8,16.1-6.7,24.1l85.1,38.2c0,0.1,0,0.1,0,0.2l14.3,6.4l57.4,25.8l20.1,9l82.2,36.9h-13.5
		v146.4h339.1v-0.2l0.7,0.3h92.4c4.7-8.6,9.1-17.4,13.2-26.4c0.7-1.6,1.4-3.2,2.1-4.8c8.4-19.5,15-39.2,19.9-59.2l-50-22.5
		L970.5,658.6z"/>
	<path class="st0" d="M584.3,742c-0.9,7.1-2.9,14.1-5.1,20.4c-1.9,5.4-4.6,10.2-8.2,14.6c-0.5,0.6-0.9,1.2-1.5,1.7H119.8
		c-0.1-0.1-0.2-0.2-0.3-0.4c-23.8-34-3.4-81.9,29.9-102.6c29-18,64-6,94.4-17.3c21.7-8.1,29.2-34.3,12.3-51
		c-11.8-11.6-30.1-13.4-40.4-27.2c-5.9-7.8-7.8-18.1-6.8-27.9c3.6-33.8,36.5-42.3,62.9-54.3c21.2-9.6,42.8-19.4,65.2-26.4
		c10.7-3.3,21.5-6,32.6-7.6c47.7-7.2,76.5,24.7,68,71.8c-0.6,3.2-1.1,6.4-1.5,9.6c-1,7-1.5,14.1-1.1,21.1c0.2,3.8,1,7.6,2.3,11
		c2.6,6.9,7.3,12.4,14.2,13.6c5.2,0.9,9-0.9,12.4-3.7c4.2-3.5,7.8-8.5,13-11.2c6.6-3.5,13.7-4.2,20.7-3.2c1.4,0.2,2.9,0.5,4.3,0.8
		c6.3,1.5,12.2,4.6,17.2,8.8c11,9.4,17.7,24.4,16,40.3c0,0,0,0,0,0c-0.4,3.7-1.3,7.4-2.6,11.1c-0.6,1.6-1.3,3.2-2,4.8
		c-0.8,1.7-1.6,3.4-2.5,5c-2.6,4.6-5.5,9-8.4,13.5c-2.4,3.7-6.9,9.6-9.1,15.6c-0.1,0.2-0.2,0.5-0.3,0.7c-1.5,4.3-1.7,8.5,0.9,11.9
		c2.1,2.8,5.3,4.1,8.4,5.1c10,3.1,20.5,3.3,30.7,5.2c0.4,0.1,0.7,0.1,1.1,0.2c8.6,1.7,17.3,5,23.9,11.5c0,0,0.1,0.1,0.1,0.1
		c1.5,1.4,2.8,3.1,4,4.8C584.8,721.1,585.7,731.6,584.3,742z"/>
	<path class="st5" d="M793.2,776.3c-1,0-2.8-7-3-7.8c-1.9-6.8-2.5-14.7-1.3-21.8c2.7-15.8,10.8-29.3,20.5-39.5
		c9.3-9.8,20.1-17.3,30.2-25.7c18-15,37.7-39.1,31-69.2c-2.5-11.3-9.7-20.7-19.3-22.1c-31-4.5-35.9,56.5-64.9,53.4
		c-3.4-0.4-6.8-2.4-8.7-5.9c-6.6-12.1,6-26.3,9.7-36.4c8.6-23.9,18.2-48.1,22.5-74c2-12.3,2.8-26.6-2-38.1
		c-3.9-9.4-11.8-16.2-19.8-19.1c-5.5-2-11.6-1.8-16.8,1.2c-14.3,8.5-11.9,33.2-11.3,49.5c0.6,16.1,3.1,32.1,3.6,48.3
		c0.1,2.1,0.1,4.3-0.4,6.4c-0.5,2.1-1.5,4-3,5c-1.3,0.8-2.8,0.9-4.2,0.5c-10.6-2.9-24.4,5.4-27.2,17.5c-0.2,1-22-10.7-23.1-10.7
		c-15.2,0.2-18.4-21.9-26.7-45.3c-3.7-10.4-15.1-27.7-26.9-24.9c-3.8,0.9-7,4.2-9.1,8.3c-6.8,13.1-5.9,31.5-1.7,45.6
		c3,9.9,7.8,18.9,13.7,26.6c4.9,6.5,9.9,13.4,12.1,22.2c2.3,9.3-0.7,17.5-7.5,21.7c-1.2,0.7-2.4,1.4-3.7,1.8
		c0.8-0.2,3.5,2.8,4.1,3.2c3.3,2.7,6.4,5.7,9.3,9c6.5,7.3,13.7,17.3,13.6,28.9c0,14.5-12.3,25.4-22,30.1
		c-23.2,11.2-29-28.4-44.3-40.8c-5.6-4.5-12.8-5.8-17.5,0.8c-4.5,6.3-4.8,15.7-1.7,23.1c3.1,7.5,8.7,12.7,14.6,16.8
		c10.2,7.1,73.7,42.9,48,63.5C660,778.3,709.6,773.1,793.2,776.3z"/>
	<path class="st5" d="M619.4,766.7c-0.5,0.7-1,1.4-1.5,2c-3.5,4.3-8.1,7.2-13.3,9.4c0,0,0,0,0,0c-0.5,0.2-1,0.4-1.5,0.6H248.5
		c-2.2-7.7-2.5-15.7,2-22.7c4.7-7.1,13-11,21.2-13.1c8.2-2.2,16.8-3,24.8-6c2.4-0.9,4.8-2,6.4-4c4.6-6.1-4.5-14.5-8.2-18.6
		c-4.2-4.7-8.4-9.3-11.4-14.9c-9.3-17.7,2.8-37.9,21-43.2c6.6-1.9,13.3-2.4,19.9-0.1c7.7,2.7,11.6,10.6,20.8,8.4
		c8.1-2,11.8-10.2,11.7-17.9c-0.1-7-1.8-14-3.7-20.6c-9.2-31.4,11.9-55.1,50-53.6c11.2,0.4,22.9,2.3,34.1,5.3
		c9.2,2.5,18.2,5.8,26.6,9.9c0.4,0.2,0.8,0.4,1.1,0.6c14.8,7.4,31.9,2.3,47.2,7.6c10.3,3.6,19.2,13.4,22.1,23.8
		c0.3,1.2,0.6,2.4,0.7,3.6c0,0,0,0,0,0c0.7,5.5-0.2,11.2-3,15.9c-0.5,0.8-1.1,1.6-1.7,2.4c-0.8,0.9-1.6,1.8-2.5,2.6
		c-6.4,5.7-15.3,7.7-22.4,12.4c-3,2-5.5,4.4-7.4,7.2c-3.3,4.8-4.7,10.7-3.4,17c0.5,2.4,1.3,4.5,2.5,6.3c0,0,0,0,0,0
		c6.6,9.9,22.7,10,33.7,9.9c6.3,0,12.8-0.5,19.3-0.7c13-0.5,26.2-0.4,38,4.6c4.3,1.8,8.3,4.2,12,7c0,0,0.1,0.1,0.1,0.1
		c6.8,5.3,12.5,12.1,16.6,19.7c0.4,0.8,0.9,1.7,1.3,2.6c1.8,3.7,3.3,7.8,4.3,12C624.4,750.5,624.2,759.4,619.4,766.7z"/>
	<path class="st6" d="M1118.3,620.4"/>
	<path class="st0" d="M788.7,622L788.7,622c-4.2,0.5-7.8,1.6-10.4,3.1c-2.4,1.4-6,4.4-10.5,8.4c-8.4,7.5-19.8,18.3-31.1,27.6h0
		c-2.6,2.1-5.2,4.2-7.8,6.1h0c-2.9,2.2-5.8,4.2-8.5,5.9c-12.4,7.8-22.7,10.2-26.2-0.4c-1.5-4.5-1.5-8.3-0.4-11.6
		c4.9-14.5,31.5-19.8,47.7-39.4c3.7-4.4,6.8-9.6,9-15.8c3.2-9,3.7-16.3,2.3-22.2v0c-4.9-20.2-32-23.8-47.2-19.3
		c-14.2,4.3-52.2,20.2-59.6,74.5c0,0.2-0.1,0.5-0.1,0.8c-1.3,9.9-1.6,21-0.5,33.6c0,0.1,0,0.1,0,0.2c0.9,10.4,2.7,21.7,5.5,34.1
		c0,0,0,0.1,0,0.1c0.8,3.5,1.7,7.1,2.7,10.8c0,0,2,4.6,5.5,11.5h-62v48.7h93.6h10.7h32.5c-0.7-6.3,2.6-13.2,16.3-17.9
		c31.5-10.9,51.8-12.4,57-32.3c5.1-19.9-30.2-8.6-36.3-4.8c-6.1,3.9-46.3,38.5-47.7-3.1c-0.6-17.6,15.3-25.1,34.9-30.6
		c27-7.6,61-11.3,69-32.2C838.5,628.2,807.9,619.5,788.7,622z"/>
	<g>
		<g>
			<path class="st7" d="M545.8,744.6c0,0-86.4-87.2-130.8-112"/>
			<path class="st7" d="M505.2,705.4c0,0-34.2,11.7-75.1,15.5c-36.2,3.3-77.6,0.4-104.9-22.5"/>
			<path class="st7" d="M279.1,760.8c0,0,107.7,6,151.3-38.5"/>
		</g>
	</g>
	<g>
		<g>
			<path class="st8" d="M785.3,656.5l-131.7,82.1c0,0,19.7-107.7,73.5-138.5"/>
			<path class="st8" d="M793,728.3c-22.4,14.6-45.6,28.8-73,30.2c-27.8,1.4-54-9.6-79.2-20"/>
		</g>
	</g>
	<path class="st9" d="M311.4,524.9c-9.6,12.5-0.7,17.7,3.7,14.8c4.4-3-1.5-13.3-1.5-13.3L311.4,524.9z"/>
	<path class="st10" d="M890.4,775.4h27.8L900,664.2l-1.3-7.7H785.4l-1.3,7.7l-18.3,111.2h27.9l6.6-40.2h83.5L890.4,775.4z
		 M803.7,714.6l2.4-14.5c0.2,0,0.5,0,0.5,0h71.5l2.4,14.5H803.7z"/>
	<polygon class="st11" points="900,664.2 784.1,664.2 785.4,656.5 898.7,656.5 	"/>
	<line class="st12" x1="66.8" y1="776.9" x2="1124" y2="777.1"/>
	<path class="st13" d="M260.2,254"/>
	<path class="st4" d="M277.8,214.6c0.1,2.4,0,4.9-0.3,7.6c-2.8,27.8-22.2,63.4-37.4,87.7c-12.2,19.5-32.4,42.5-55.4,29.6
		c-23.3-13-50.3-34.9-50.1-65.5c0.1-17.6,9.8-34.9,22.5-47.9c15.8-16.2,37.5-30.6,57.8-39.5C244,173.6,277.1,180.2,277.8,214.6z"/>
	<path class="st4" d="M1039.3,318.3c-2.6,0.7-5.4,1.3-8.3,1.8c-31,4.7-73.6-7.1-103.2-17.5c-23.7-8.3-52.8-24.7-43.5-54.5
		c9.5-30.1,28-67,61.4-75.5c19.3-4.9,40,1.2,56.8,11.9c20.9,13.3,40.9,33.9,54.8,54.4C1077.2,268.2,1076.7,307.6,1039.3,318.3z"/>
	<path class="st2" d="M173.9,181.5L173.9,181.5l-0.8,1.4C173.3,182.4,173.6,181.9,173.9,181.5z"/>
	<g>
		<line class="st14" x1="618.6" y1="30.4" x2="626.8" y2="21.9"/>
		<line class="st14" x1="601.8" y1="29.7" x2="602.5" y2="17"/>
		<line class="st14" x1="580.5" y1="18.2" x2="587.9" y2="29.9"/>
		<path class="st4" d="M521.9,92c1.8-2,3.8-3.9,6-5.8c23.4-20,65.2-32.4,95.3-39.1c24.1-5.4,57-6.9,64.7,22.9
			c7.8,30.1,11.5,70.6-12,95c-13.6,14.1-34,19.9-53.6,19.7c-24.4-0.3-51.8-7-74-16.9C516.3,153.5,496.2,120.3,521.9,92z"/>
		<g>
			<path class="st5" d="M655.4,95.7l1.7-1.9c1.7-1.8,2.4-4.3,2.1-6.7c-0.6-4.7-4.8-8-9.5-7.4l-6.6,1.2l3.7-4.9
				c1.6-2.1,2.4-4.7,2.1-7.3c-0.6-5-4.8-8.7-9.9-8.6l-2.1,0l-0.3-2.1c-1-8-8.2-13.7-16.2-12.8c-0.7,0.1-1.3,0.2-2,0.4l-1.8,0.5
				l-0.8-1.7c-2.3-4.7-7.3-7.4-12.5-6.8c-6.7,0.8-11.5,7-10.7,13.7c-0.8-6.7-7-11.5-13.7-10.7c-5.2,0.6-9.4,4.5-10.5,9.6l-0.4,1.9
				l-1.9,0c-0.7,0-1.4,0-2,0.1c-8,1-13.6,8.2-12.7,16.3l0.3,2.1l-2,0.5c-4.9,1.2-8.1,5.8-7.5,10.8c0.3,2.6,1.6,5,3.7,6.6l4.8,3.8
				l-6.7,0.4c-4.7,0.6-8,4.8-7.4,9.5c0.3,2.4,1.6,4.6,3.7,6l2.1,1.4l-1.6,2c-1.7,2.1-2.5,4.8-2.2,7.5c0.6,5,4.8,8.7,9.8,8.8l3.1,0
				l-1,3c-0.4,1.4-0.6,2.8-0.4,4.2c0.7,5.4,5.6,9.2,11,8.6c0.4,0,0.8-0.1,1.2-0.2l2.1-0.5l0.7,2.1c1.3,4.1,5.4,6.7,9.7,6.2
				c1.8-0.2,3.5-1,4.8-2.2l2.4-2.1l1.2,3c1.8,4.5,6.5,7.2,11.3,6.6c5.9-0.7,10.1-6.1,9.4-12c0.7,5.9,6.1,10.1,12,9.4
				c4.8-0.6,8.6-4.3,9.4-9.1l0.5-3.2l2.9,1.5c1.6,0.8,3.4,1.1,5.2,0.9c4.3-0.5,7.6-4,7.9-8.3l0.2-2.2l2.2,0c0.4,0,0.8,0,1.2-0.1
				c5.4-0.7,9.2-5.6,8.6-10.9c-0.2-1.4-0.6-2.7-1.4-3.9l-1.7-2.7l3.1-0.8c4.8-1.3,8-5.9,7.4-10.9c-0.3-2.7-1.7-5.1-3.9-6.7
				L655.4,95.7z"/>
			<path class="st2" d="M657.4,97.3l-2-1.5l1.7-1.9c1.7-1.8,2.4-4.3,2.1-6.7c-0.6-4.7-4.8-8-9.5-7.4l-6.6,1.2l3.7-4.9
				c1.6-2.1,2.4-4.7,2.1-7.3c-0.6-5-4.8-8.7-9.9-8.6l-2.1,0l-0.3-2.1c-1-8-8.2-13.7-16.2-12.8c-0.7,0.1-1.3,0.2-2,0.4l-1.8,0.5
				l-0.8-1.7c-2.3-4.7-7.3-7.4-12.5-6.8c-6.7,0.8-11.5,7-10.7,13.7l11.3,92.9c0.7,5.9,6.1,10.1,12,9.4c4.8-0.6,8.6-4.3,9.4-9.1
				l0.5-3.2l2.9,1.5c1.6,0.8,3.4,1.1,5.2,0.9c4.3-0.5,7.6-4,7.9-8.3l0.2-2.2l2.2,0c0.4,0,0.8,0,1.2-0.1c5.4-0.7,9.2-5.6,8.6-10.9
				c-0.2-1.4-0.6-2.7-1.4-3.9l-1.7-2.7l3.1-0.8c4.8-1.3,8-5.9,7.4-10.9C661,101.3,659.6,98.9,657.4,97.3z"/>
			<g>
				<g>
					<g>
						<path class="st4" d="M578.5,66.2c-2,0.2-4.2-0.2-6-1.2c-3.5-2-5.4-6-5.2-10.8c0.1-1.5,1.3-2.6,2.8-2.6
							c1.5,0.1,2.6,1.3,2.6,2.8c-0.1,2.9,0.8,5,2.6,6c1.3,0.8,3,0.8,4.2,0.1c0.3-0.2,0.7-0.5,0.7-0.8c0-0.2-0.1-0.4-0.2-0.5
							c-1.2,0.4-2.6-0.1-3.3-1.3c-0.7-1.3-0.2-2.9,1.1-3.6c2.4-1.3,5.4-0.3,6.8,2.4c1.4,2.5,1.1,6.2-2.4,8.3
							C581,65.7,579.8,66.1,578.5,66.2z"/>
					</g>
					<g>
						<path class="st4" d="M562.9,82.7c0,0-0.1,0-0.1,0c-4.5,0.3-10-3.1-11.1-10c-0.2-1.5,0.7-2.8,2.2-3.1c1.4-0.3,2.8,0.7,3.1,2.2
							c0.7,4.1,3.6,5.7,5.5,5.5c1.5-0.1,2.7,1,2.8,2.5C565.3,81.3,564.3,82.5,562.9,82.7z"/>
					</g>
					<g>
						<path class="st4" d="M565.5,97.4c-4.9,0.6-10.2-0.7-13.2-2.2c-1.3-0.7-1.8-2.3-1.2-3.6c0.7-1.3,2.3-1.9,3.6-1.2
							c3.8,1.9,12.4,3.1,15-0.7c0.8-1.2,2.5-1.5,3.7-0.6c1.2,0.8,1.5,2.5,0.6,3.7C572,95.7,568.9,97,565.5,97.4z"/>
					</g>
					<g>
						<path class="st4" d="M554.3,129.2c-0.4,0.1-0.9,0-1.3-0.2c-1.4-0.5-2-2.1-1.5-3.4c3.6-9.3,16.5-11.5,21.8-11.1
							c2.1,0.2,5.1-0.2,6.3-1.7c0.8-1,0.9-2.7,0.3-5c-0.6-2.2-2-3.3-4.2-3.2c-2.5,0.1-4.4,1.5-4.5,2.1c0.1,1.5-1,2.8-2.4,2.8
							c-1.5,0.1-2.7-1-2.9-2.5c-0.3-3.9,3.8-6.9,7.8-7.6c5.3-1,9.8,1.7,11.3,6.8c1.5,5.1,0.2,8.2-1.2,9.9c-3.1,3.8-8.6,3.8-10.8,3.7
							c-4.4-0.3-14.1,1.6-16.4,7.7C556.1,128.5,555.3,129.1,554.3,129.2z"/>
					</g>
					<g>
						<path class="st4" d="M565.3,142.1c-1.3,0.2-2.5-0.6-2.9-1.9c-1.9-6.1,0.5-9.9,2.1-11.7c2.4-2.7,6.2-4.1,9.3-3.6
							c1.4,0.3,2.4,1.7,2.1,3.1c-0.3,1.4-1.7,2.4-3.1,2.1c-0.9-0.2-3,0.3-4.4,1.9c-1.4,1.6-1.8,3.9-0.9,6.6c0.4,1.4-0.4,2.9-1.8,3.3
							C565.6,142.1,565.5,142.1,565.3,142.1z"/>
					</g>
					<g>
						<path class="st4" d="M550.1,111.9c-2,0.2-4-0.1-5.8-1c-1.3-0.6-1.9-2.2-1.2-3.5c0.6-1.3,2.2-1.9,3.6-1.2
							c1.3,0.6,2.7,0.7,4.2,0.2c1.8-0.7,3.3-2.2,3.8-3.2c0.6-1.4,2.1-2,3.5-1.4c1.3,0.6,2,2.2,1.4,3.5c-1.1,2.6-3.8,5-6.8,6.1
							C551.9,111.6,551,111.8,550.1,111.9z"/>
					</g>
					<g>
						<path class="st4" d="M582.5,146.7c-1.1,0.1-2.2-0.5-2.7-1.5c-1.7-3.7-1.5-7.4,0.5-10.3c1.7-2.5,4.7-3.9,7.8-3.7
							c4.3,0.3,6.5,3.5,6.7,6.4c0.2,2.9-1.5,5.3-4.2,5.8c-1.5,0.3-2.8-0.6-3.1-2.1c-0.3-1.4,0.6-2.8,2.1-3.1c0,0,0-0.4-0.2-0.8
							c-0.3-0.5-0.8-0.8-1.6-0.9c-1.3-0.1-2.4,0.4-3.1,1.4c-0.9,1.3-0.9,3.1,0,5.1c0.6,1.3,0,2.9-1.3,3.5
							C583.1,146.6,582.8,146.7,582.5,146.7z"/>
					</g>
				</g>
			</g>
			<g>
				<g>
					<g>
						<path class="st4" d="M610.8,62.4c-1.3,0.1-2.6,0-3.8-0.4c-3.9-1.2-5.1-4.7-4.3-7.5c0.8-2.9,3.4-4.6,6.1-3.9
							c1.4,0.4,2.3,1.8,1.9,3.2c-0.3,1.3-1.6,2.1-2.9,2c-0.1,0.1-0.1,0.3-0.1,0.5c0.1,0.3,0.5,0.5,0.8,0.6c1.4,0.4,2.9,0,4-1
							c1.5-1.4,1.8-3.7,1.1-6.5c-0.4-1.4,0.4-2.9,1.8-3.3c1.4-0.4,2.9,0.4,3.3,1.8c1.3,4.7,0.4,8.9-2.5,11.7
							C614.8,61.3,612.8,62.2,610.8,62.4z"/>
					</g>
					<g>
						<path class="st4" d="M629.8,74.7c-1.4,0.2-2.7-0.8-2.9-2.2c-0.2-1.5,0.7-2.8,2.2-3.1c1.8-0.3,4.3-2.6,4-6.7
							c-0.1-1.5,1.1-2.8,2.5-2.8c1.5-0.1,2.7,1,2.8,2.5c0.5,7-4,11.6-8.4,12.3C629.9,74.7,629.9,74.7,629.8,74.7z"/>
					</g>
					<g>
						<path class="st4" d="M630.8,89.6c-3.4,0.4-6.8-0.1-9.4-2.4c-1.1-1-1.2-2.6-0.2-3.8c1-1.1,2.7-1.2,3.8-0.2
							c3.5,3,11.5-0.1,14.8-2.9c1.1-1,2.8-0.8,3.7,0.3c0.9,1.1,0.8,2.8-0.3,3.7C640.6,86.6,635.7,89.1,630.8,89.6z"/>
					</g>
					<g>
						<path class="st4" d="M649.1,117.9c-0.9,0.1-1.9-0.3-2.5-1.1c-3.7-5.3-13.6-5-17.8-3.6c-2.1,0.7-7.5,2-11.4-1
							c-1.7-1.3-3.8-4-3.5-9.3c0.3-5.4,4-9,9.3-9.3c4.1-0.2,8.8,1.7,9.4,5.5c0.2,1.5-0.8,2.8-2.2,3c-1.5,0.3-2.8-0.8-3-2.2
							c-0.3-0.5-2.5-1.4-4.9-0.9c-2.1,0.5-3.2,1.8-3.3,4.1c-0.1,2.4,0.4,4,1.4,4.8c1.5,1.2,4.5,0.8,6.5,0.2
							c5.1-1.6,18.1-2.5,23.8,5.6c0.8,1.2,0.5,2.9-0.7,3.7C650,117.7,649.5,117.9,649.1,117.9z"/>
					</g>
					<g>
						<path class="st4" d="M641.5,133c-0.2,0-0.3,0-0.5,0c-1.5-0.1-2.6-1.3-2.5-2.8c0.2-2.8-0.7-5-2.5-6.2c-1.7-1.2-3.8-1.2-4.7-0.8
							c-1.3,0.6-2.9,0-3.5-1.3c-0.6-1.3,0-2.9,1.3-3.5c2.9-1.3,7-0.8,9.9,1.3c1.9,1.3,5.1,4.5,4.8,10.9
							C643.7,131.9,642.7,132.9,641.5,133z"/>
					</g>
					<g>
						<path class="st4" d="M649.1,100.1c-0.9,0.1-1.7,0.1-2.7,0c-3.2-0.4-6.3-2.1-8-4.3c-0.9-1.2-0.7-2.8,0.5-3.7
							c1.2-0.9,2.8-0.7,3.7,0.5c0.7,0.9,2.5,2,4.4,2.2c1.6,0.2,2.9-0.2,4.1-1.1c1.1-0.9,2.8-0.8,3.7,0.4c0.9,1.1,0.8,2.8-0.4,3.7
							C652.9,99.1,651.1,99.9,649.1,100.1z"/>
					</g>
					<g>
						<path class="st4" d="M625.8,141.6c-0.3,0-0.5,0-0.8,0c-1.4-0.3-2.4-1.7-2.1-3.1c0.4-2.1,0-3.9-1.2-4.9c-0.9-0.8-2.1-1-3.4-0.6
							c-0.7,0.2-1.2,0.6-1.3,1.2c-0.1,0.5,0,0.8,0.1,0.9c1.5-0.1,2.6,1.1,2.7,2.5c0.1,1.5-1.2,2.6-2.6,2.7c-2.7,0.1-5-1.8-5.5-4.7
							c-0.5-2.8,0.9-6.5,5-7.8c3-0.9,6.2-0.3,8.5,1.8c2.6,2.3,3.7,5.9,2.9,9.9C627.9,140.6,627,141.4,625.8,141.6z"/>
					</g>
				</g>
			</g>
		</g>
	</g>
	<g class="st15">
		<path class="st16" d="M1010.6,177.3l-37.3-6.6l-37.3-6.6c-2.3-0.4-4.4,1.1-4.8,3.4l-18.6,104.5c-0.4,2.3,1.1,4.4,3.4,4.8l37.3,6.6
			l37.3,6.6c2.3,0.4,4.4-1.1,4.8-3.4l18.6-104.5C1014.4,179.8,1012.9,177.7,1010.6,177.3z"/>
		<path class="st10" d="M973.3,170.6l37.3,6.6c2.3,0.4,3.8,2.6,3.4,4.8l-18.6,104.5c-0.4,2.3-2.6,3.8-4.8,3.4l-37.3-6.6L973.3,170.6
			z"/>
		
			<rect x="919.2" y="197.6" transform="matrix(0.1752 -0.9845 0.9845 0.1752 570.0629 1136.1171)" class="st17" width="87.7" height="60.5"/>
		
			<rect x="904.3" y="210.1" transform="matrix(0.1752 -0.9845 0.9845 0.1752 560.383 1119.2606)" class="st18" width="87.7" height="30.3"/>
		<g>
			<g>
				<g>
					
						<rect x="966.7" y="173" transform="matrix(0.1752 -0.9845 0.9845 0.1752 602.2916 1117.7483)" class="st2" width="3.1" height="52.9"/>
				</g>
				<g>
					
						<rect x="965.8" y="177.8" transform="matrix(0.1752 -0.9845 0.9845 0.1752 596.8672 1120.8639)" class="st2" width="3.1" height="52.9"/>
				</g>
				<g>
					
						<rect x="958.2" y="188.2" transform="matrix(0.1752 -0.9845 0.9845 0.1752 587.0432 1116.3221)" class="st2" width="3.1" height="39.1"/>
				</g>
				<g>
					
						<rect x="957.8" y="223" transform="matrix(0.1752 -0.9845 0.9845 0.1752 545.7142 1150.2396)" class="st2" width="3.1" height="52.9"/>
				</g>
				<g>
					
						<rect x="956.9" y="227.8" transform="matrix(0.1752 -0.9845 0.9845 0.1752 540.2886 1153.3549)" class="st2" width="3.1" height="52.9"/>
				</g>
				<g>
					
						<rect x="952.7" y="235.4" transform="matrix(0.1752 -0.9845 0.9845 0.1752 532.6632 1152.6426)" class="st2" width="3.1" height="46"/>
				</g>
				<g>
					
						<rect x="961.8" y="200.6" transform="matrix(0.1752 -0.9845 0.9845 0.1752 571.0947 1135.6644)" class="st2" width="3.1" height="52.9"/>
				</g>
				<g>
					
						<rect x="957.5" y="208.2" transform="matrix(0.1752 -0.9845 0.9845 0.1752 563.4666 1134.9531)" class="st2" width="3.1" height="46"/>
				</g>
			</g>
		</g>
	</g>
	<g>
		<path class="st16" d="M1014.6,220.5l-12.2,68.6c-0.5,2.8-3.1,4.6-5.9,4.1l-45.8-8.1c-0.3-0.4-0.6-0.8-0.9-1.2
			c-3.5-4.9-6-10.3-7.3-15.8c-1.1-4.4-1.5-8.9-1.3-13.4c0.1-1.3,0.2-2.6,0.4-3.8c0.1-0.7,0.2-1.4,0.3-2.1c0.2-1.3,0.5-2.5,0.8-3.7
			c0.2-0.7,0.4-1.4,0.6-2c0.4-1.2,0.8-2.5,1.4-3.7c2.6-6.1,6.4-11.7,11.6-16.3c1.2-1.1,2.5-2.1,3.8-3.1l0.2-0.1
			c0.8-0.6,1.6-1.1,2.4-1.6l0-0.1l0.1,0c1.8-1.1,3.6-2.1,5.5-2.9c10.5-4.7,22.2-5.1,32.8-1.6C1006,215,1010.5,217.4,1014.6,220.5z"
			/>
		<path class="st10" d="M1014.6,220.5l-12.2,68.6c-0.5,2.8-3.1,4.6-5.9,4.1l-45.7-8.1l11.9-67.1l0.1,0c1.8-1.1,3.6-2.1,5.5-2.9
			c10.5-4.7,22.2-5.1,32.8-1.6C1006,215,1010.5,217.4,1014.6,220.5z"/>
		<path class="st17" d="M1001.2,213.5l-11.2,63l-47.5-8.5c-1.1-4.4-1.5-8.9-1.3-13.4c0.1-1.3,0.2-2.6,0.4-3.8
			c0.1-0.7,0.2-1.4,0.3-2.1c0.2-1.3,0.5-2.5,0.8-3.7c0.2-0.7,0.4-1.4,0.6-2c0.4-1.2,0.8-2.5,1.4-3.7c2.6-6.1,6.4-11.7,11.6-16.3
			c1.2-1.1,2.5-2.1,3.8-3.1l0.2-0.1c0.8-0.6,1.6-1.1,2.4-1.6l0-0.1l0.1,0c1.8-1.1,3.6-2.1,5.5-2.9
			C978.9,210.4,990.6,210,1001.2,213.5z"/>
		<path class="st18" d="M962.7,218.1l-9.2,51.9l-11-2c-1.1-4.4-1.5-8.9-1.3-13.4c0.1-1.3,0.2-2.6,0.4-3.8c0.1-0.7,0.2-1.4,0.3-2.1
			c0.2-1.3,0.5-2.5,0.8-3.7c0.2-0.7,0.4-1.4,0.6-2c0.4-1.2,0.8-2.5,1.4-3.7c2.6-6.1,6.4-11.7,11.6-16.3c1.2-1.1,2.5-2.1,3.8-3.1
			l0.2-0.1C961.1,219.2,961.9,218.6,962.7,218.1z"/>
		<g>
			<g>
				<g>
					<path class="st2" d="M990.5,247.4l-0.7,3.8l-46.4-8.3c0.4-1.2,0.8-2.5,1.4-3.7L990.5,247.4z"/>
				</g>
				<g>
					<path class="st2" d="M989.5,253.3l-0.7,3.8l-46.9-8.3c0.2-1.3,0.5-2.5,0.8-3.7L989.5,253.3z"/>
				</g>
				<g>
					<path class="st2" d="M980.1,257.6l-0.7,3.8l-38.2-6.8c0.1-1.3,0.2-2.6,0.4-3.8L980.1,257.6z"/>
				</g>
				<g>
					<path class="st2" d="M995.4,219.9l-0.7,3.8l-31.9-5.7c1.8-1.1,3.6-2.1,5.5-2.9L995.4,219.9z"/>
				</g>
				<g>
					<path class="st2" d="M986.1,224.3l-0.7,3.8l-29.1-5.2c1.2-1.1,2.5-2.1,3.8-3.1l0.2-0.1L986.1,224.3z"/>
				</g>
			</g>
		</g>
	</g>
	
		<ellipse transform="matrix(0.3895 -0.921 0.921 0.3895 365.8128 1065.8041)" class="st19" cx="986.8" cy="257" rx="42.3" ry="42.3"/>
	<path class="st2" d="M960.1,219.9c-20.5,14.8-25.1,43.5-10.3,64c13.6,18.9,39.1,24.3,59,13.5l20.9,28.9c1.9,2.6,5.6,3.2,8.2,1.3
		c2.6-1.9,3.2-5.6,1.3-8.2l-20.9-28.9c16.6-15.5,19.4-41.4,5.8-60.2C1009.3,209.7,980.6,205.1,960.1,219.9z M1015.1,287
		c-1.3,1.2-2.6,2.3-4,3.3s-2.9,2-4.4,2.8c-17.9,9.7-40.8,4.9-53-12.1c-13.3-18.4-9.1-44.1,9.3-57.4s44.1-9.1,57.4,9.3
		C1032.5,249.9,1030,273.1,1015.1,287z"/>
	<path class="st20" d="M979.6,227.1c0,0,21.4-4.7,34,14.3"/>
	<g>
		<g>
			<path class="st5" d="M970.2,230.9c1.9,0,1.9-3,0-3C968.2,227.9,968.2,230.9,970.2,230.9L970.2,230.9z"/>
		</g>
	</g>
	<path class="st2" d="M231.7,267.4c1.5,2.1,4.7,1.8,5.8-0.5l10.8-23.4l10.8-23.4c1.1-2.4-0.8-5-3.4-4.8l-25.7,2.3l-25.7,2.3
		c-2.6,0.2-3.9,3.2-2.4,5.3l6.3,9c1.1,1.5,0.7,3.6-0.8,4.7L151,278.9c-1.5,1.1-1.9,3.2-0.8,4.7l9.3,13.2c1.1,1.5,3.2,1.9,4.7,0.8
		l56.5-39.9c1.5-1.1,3.6-0.7,4.7,0.8L231.7,267.4z"/>
	<path class="st21" d="M258.8,216.6L154.7,290l-4.6-6.5c-1.1-1.5-0.7-3.6,0.8-4.7l56.5-39.9c1.5-1.1,1.9-3.2,0.8-4.7l-6.3-9
		c-1.5-2.1-0.1-5.1,2.4-5.3l25.7-2.3l25.7-2.3C257,215.2,258.1,215.7,258.8,216.6z"/>
	<polyline class="st22" points="146.1,309.1 195.3,314.7 207.5,276.6 244.3,281.1 264.5,244.9 296.9,248.8 	"/>
	<path class="st23" d="M900.7,472.2l-9.6,151.1l-0.1,2c-0.1,1.8-1.5,3.2-3.4,3.4l-9.1,0.6l-2.5,0.2l-19.2-155.7v0l-0.6-4.5l-0.4,3
		L844,561.6l-8.6,65.3c-0.5,4.1-4.4,6.8-8.4,6l-10.2-2l-1.4-191.7l0-2.1l0-0.4c0,0.2,0.1,0.4,0.1,0.5c4.9,6.3,12,10.9,20.4,12.5
		c0,0,8.9,1.7,19.4,3.6c6.7,1.2,14,2.6,20,3.7c7.6,1.4,13.2,2.4,13.2,2.4c4.5,0.8,8.1,0.3,11-1.4c0.4,2.7,0.8,5.3,0.9,8
		C900.7,468.1,900.7,470.2,900.7,472.2z"/>
	<path class="st11" d="M855.8,472.2c-4.6,34.1-9.1,68.2-13.8,102.3c-1.6,11.2-3.2,22.4-4.7,33.6c0.7-26.5,0.5-53.7,4.2-80
		c1.5-11,3.8-21.9,5.1-32.9c0.6-5.4,1-10.9,0.9-16.4c-0.1-6.6-1.5-12.5-5.7-17.8c-3-3.7-7.3-7.1-11.3-9.7c-4.1-2.7-10-5.6-14.8-3.2
		c-0.1-3.7-0.3-7.3-0.4-11c0,1,2.8,3.2,3.5,3.8c1.4,1.3,3,2.6,4.6,3.7c3.2,2.1,6.7,3.7,10.4,4.7c7,1.9,14.5,2.8,21.6,4.1
		L855.8,472.2z"/>
	<path class="st11" d="M892.8,595.7c-4-3.1-4.4-8.4-5.1-13.7c-0.6-4.6-1-9.3-1.4-13.9c-0.7-7.7-1.3-15.4-1.7-23.1
		c-0.5-8-0.9-16-1.2-23.9c-0.3-6.3-0.4-12.7-0.6-19c-0.2-7.9,0.5-17.1-3.4-24.2c-4-7.5-15.6-12.8-23.8-13.4l-0.7-11.2l8.4-0.1
		c5.8,1.1,11.5,2.5,17.2,4.2c0,0.2,0,0.5,0,0.7c0,3.7,0,7.3,0,11c0-3.7,0.1-7.3,0.1-11c0-0.4,0-0.7,0-1.1c5,1.6,10.2,3.2,15.3,2.6
		c1.2-0.2,2.5-0.4,3.7-0.9c0.2,0,0.3-0.1,0.5-0.2c0,1.5,0.1,3,0.1,4.5c0.1,5.8,0.1,11.6-0.1,17.4L892.8,595.7z"/>
	<path class="st24" d="M386.3,734.6c0.4-3.5,0.2-0.3,0.2-0.3l-14.1,6.6l-23.1-58v0l-44.5-111.8l-0.6-1.5l-29.5,70l-5.3,12.6
		c-1.3,3.2-3.1,6.1-5.3,8.8l-5.8,7.1L186.3,757l-23.9-10.7l74.7-155.9c3.2-6.6,5.2-13.8,5.8-21.1l0.8-8.3l0.4-4.6l0.3-3.1l4.3-46.6
		l94.1-19.4l2.9,13.5c-12.4,1.3-25.6,7-25.6,7l-72.5,46.3c2.5,0.4,5.2,0.3,8.3-0.3c0.1,0,39.9-7.4,58.7-10.8
		c5.8-1.1,9.6-1.8,9.6-1.8c8.6-1.6,16.2-5.6,22.1-11.3c0,0,0.1-0.1,0.1-0.1c0.4-0.4,0.7-0.7,1.1-1.1c1.2-1.2,2.2-2.5,3.3-3.8
		c0.1-0.1,0.1-0.2,0.2-0.3l0.1,0.4l0,0.1l3.3,15.1l19.7,90.3l5.8,26.7l15.9,72.6L386.3,734.6z"/>
	<polygon class="st25" points="395,728.7 400.4,756 387,761.1 374,732.3 	"/>
	<path class="st26" d="M385.2,730.4l1.7-0.3c-1,5.4-3.8,25.1,7,28.4l-7,2.7l-10.6-23.5L385.2,730.4z"/>
	<polygon class="st27" points="474.2,445.8 464.3,446.5 419.3,430.8 414.1,429 377.4,416.1 369.7,413.5 363.8,411.4 378.7,380 
		414.2,404.5 419.2,407.9 444.2,425.1 451.6,430.2 451.6,430.2 	"/>
	<path class="st26" d="M394,758.4l-7,2.7l-10.6-23.5l8.8-7.3l2-1.7c0,0-0.1,0.5-0.3,1.4C386,735.4,383.2,755.2,394,758.4z"/>
	<polygon class="st28" points="891,622.3 890.5,628.5 889.4,642.1 880.3,641.9 878.9,632.3 878.4,629.1 877.7,624.6 	"/>
	<polygon class="st29" points="890.5,628.5 890.2,631.1 878.9,632.3 878.4,629.1 	"/>
	<polygon class="st28" points="817.1,628.3 816.7,645.8 825.6,647.5 830.6,628.3 	"/>
	<polygon class="st29" points="817.1,631 817,635.2 828,638.1 829.5,632.6 	"/>
	<polygon class="st25" points="184.2,751.4 164.4,777.5 151.7,770.9 164.4,742 	"/>
	<path class="st25" d="M184.2,751.4l-3.1,4c-3.1,0.5-6.9,0.8-11.2,0.6c-7.4-0.5-10.2,9.8-9.5,19.4l-8.7-4.5l12.1-27.5l0.6-1.4
		l18.9,9L184.2,751.4z"/>
	<path class="st24" d="M395.8,729.8l-23.1,11.6l-23.3-58.5v0l-44.5-111.8l-0.6-1.5l-29.5,70l-5.3,12.6c-1.3,3.2-3.1,6.1-5.3,8.8
		l-5.8,7.1L186.3,757l-23.9-10.7l74.7-155.9c3.2-6.6,5.2-13.8,5.8-21.1l0.8-8.3l0.4-4.6l0.3-3.1l4.3-46.6l94.1-19.4l2.9,13.5
		c-12.4,1.3-25.6,7-25.6,7l-72.5,46.3c2.5,0.4,5.2,0.3,8.3-0.3c0.1,0,39.9-7.4,58.7-10.8c5.8-1.1,9.6-1.8,9.6-1.8
		c8.6-1.6,16.2-5.6,22.1-11.3c0,0,0.1-0.1,0.1-0.1c0.4-0.4,0.7-0.7,1.1-1.1c1.2-1.2,2.2-2.5,3.3-3.8c0.1-0.1,0.1-0.2,0.2-0.3
		l0.1,0.4l0,0.1l3.3,15.1l19.7,90.3l5.8,26.7L395.8,729.8z"/>
	<path class="st24" d="M345.7,500.7c-12.4,1.3-25.6,7-25.6,7l-34.4,22l-38.1,24.3c2.5,0.4,5.2,0.3,8.3-0.3c0.1,0,11.4-2.1,24.8-4.6
		c-17.3,59.7-54.2,132.2-106.2,171.9l62.6-130.7c3.2-6.6,5.2-13.8,5.8-21.1l0.8-8.3l0.4-4.6l0.3-3.1l4.3-46.6l42.3-8.7l51.8-10.7
		L345.7,500.7z"/>
	<path class="st30" d="M304.3,569.7c0,0,13.7-28.2,13.7-47"/>
	<g>
		<g>
			<g>
				<line class="st31" x1="377" y1="738.2" x2="376.2" y2="736"/>
				<line class="st32" x1="374.5" y1="731.8" x2="310" y2="564.8"/>
				<line class="st31" x1="309.1" y1="562.6" x2="308.3" y2="560.5"/>
			</g>
		</g>
	</g>
	<path class="st33" d="M398.3,444.5"/>
	<g>
		<g class="st34">
			<polygon points="304.9,571.2 349.4,682.9 349.4,682.9 			"/>
		</g>
	</g>
	<g>
		<g class="st35">
			<path d="M328.4,552.2c-8.4,15.2-1.6,30.1,2.8,45.3c2.7,9.2,5.4,18.5,7.9,27.8c4.4,16.4,9.8,33.6,10.6,50.7
				c0.1,2.3,0.2,4.7-0.3,6.9l-44.5-111.8c1.3-5.8,4.3-17.6,9.7-28.2c7.2-14.2,18.8-26,36.2-18.1c0.1,0,0.2,0.1,0.3,0.1
				c0,0,0.1,0,0.1,0c0,0-0.1,0.1-0.1,0.1c-1.2,1.2-2.4,2.3-3.6,3.5c-0.4,0.4-0.7,0.7-1.1,1.1c0,0-0.1,0.1-0.1,0.1
				C339.5,536.6,333,543.8,328.4,552.2z"/>
		</g>
	</g>
	<path class="st11" d="M152.3,768.7l15.2,7.2c0.2,0.1,0.3,0.2,0.5,0.3l33.4,33.7c1.9,1.9,2.4,4.8,1.3,7.2l0,0
		c-0.4,0.9-1.4,1.2-2.2,0.8l-55.1-27.8c-4-2-5.9-6.7-4.4-11c1.6-4.2,4.5-8.9,10-10.5C151.4,768.5,151.9,768.5,152.3,768.7z"/>
	<path class="st11" d="M385.8,759.2l15.5-6.5c0.2,0,0.4-0.1,0.5-0.1l47.4-2.4c2.7-0.1,5.2,1.4,6.3,3.8l0,0c0.4,0.9,0,1.9-0.9,2.2
		l-57.5,22.5c-4.2,1.6-9-0.1-11.1-4.1c-2.1-4-3.6-9.3-1.1-14.5C385,759.7,385.4,759.4,385.8,759.2z"/>
	<polygon class="st33" points="898.2,450.8 815.4,434.8 815.2,406.7 885.7,384.1 	"/>
	<path class="st36" d="M827.4,642.7l-10.6-0.4c-0.1,0-0.2,0-0.4,0l-28.5,9c-1.6,0.5-2.7,2-2.9,3.6l0,0c0,0.6,0.4,1.1,1,1.1l38.9,0.6
		c2.8,0,5.3-2,5.6-4.8c0.4-2.8,0.1-6.3-2.5-8.8C827.9,642.9,827.7,642.7,827.4,642.7z"/>
	<path class="st36" d="M890.3,637.9l-10.5,1.4c-0.1,0-0.2,0.1-0.3,0.1l-26.6,13.7c-1.5,0.8-2.4,2.4-2.2,4.1l0,0
		c0.1,0.6,0.6,1,1.2,0.9l38.4-6c2.8-0.4,4.8-2.9,4.7-5.7c-0.1-2.8-1-6.2-4-8.3C890.8,637.9,890.5,637.8,890.3,637.9z"/>
	<path class="st37" d="M895.9,546.6"/>
	<g>
		<g>
			<g>
				<path class="st31" d="M264.5,552.2c0,0.1-0.1,0.9-0.3,2.3"/>
				<path class="st38" d="M263.4,559c-1.4,9-4.3,24.6-7.9,33c-5.6,13-71.8,129.4-85,152.5"/>
				<path class="st31" d="M169.5,746.4c-0.7,1.3-1.1,2-1.1,2"/>
			</g>
		</g>
	</g>
	<path class="st30" d="M351.1,525"/>
	<path class="st33" d="M815.4,434.8l0,1.9c-0.2-1.2-0.2-1.9-0.2-1.9L815.4,434.8z"/>
	<path class="st28" d="M898.4,450c-0.6,0.5-1.2,1-1.9,1.4c-2.7,1.6-6.2,2.1-10.4,1.3c-0.1,0-50.1-9.3-50.1-9.3
		c-7.9-1.5-14.7-5.8-19.4-11.8c0,0-0.1-0.1-0.1-0.1c-4.1-5.4-6.5-12.1-6.5-19.3l0-38.6l0-6.8l-1-0.3l-25.6-3.8L805,350l5-1.5v-4.4
		l-11.9,3.8l-17.4,5.5l-0.6,0.1l-7.2,1.3l-11.6,2.1l-2,0.4l-7.7,1.4l-4.2,0.8l-14.5,2.6l-8.3,1.5l8.6-4.8l5.7-3.2l7.6-4.2l17.8-9.9
		l44.6-24.9c1.6-0.9,3.3-1.6,5-2.3l10.7-3.9c2.4-0.9,4.9-1.3,7.4-1.4c3.5-0.5,7.1-1.1,10.6-1.6c2.2-0.3,4.5-0.7,6.7-0.9
		c17.5-2.2,36.5,13.7,40.8,29.9C894.1,352.3,917.6,433.1,898.4,450z"/>
	<path class="st24" d="M901.6,456.6c-0.6,0.6-1.3,1-2,1.5c-2.9,1.7-6.5,2.2-11,1.4c-0.1,0-52.7-9.8-52.7-9.8
		c-8.4-1.5-15.5-6.1-20.4-12.5c0,0-0.1-0.1-0.1-0.1c-4.3-5.6-6.8-12.6-6.9-20.1v-0.2l0-23.2l0-17.4l0-7.2l-1.1-0.3l-26.9-4
		l22.7-13.3l1.7-0.7l3.7-1.5l0-4l-5.6,1.8l-6.9,2.2l-8.9-21.4l20.2-11.6c1.7-0.9,3.4-1.7,5.2-2.4l11.3-4.1c2.5-0.9,5.1-1.4,7.7-1.5
		c3.7-0.5,7.4-1.1,11.2-1.7c2.3-0.3,4.7-0.7,7.1-1c18.4-2.3,38.4,14.4,42.9,31.5c1.4,5.3,4.8,17.5,8.2,32.3
		c3.8,16.6,7.6,36.4,8.3,53.2C910,438,908.2,450.9,901.6,456.6z"/>
	<g>
		<defs>
			<path id="SVGID_1_" d="M359.4,436.8l0.1,61.8c0,1.1,0,2.2-0.1,3.3c-0.6,8.4-3.7,16.2-8.5,22.6c-6.3,8.5-15.7,14.6-26.8,16.6
				c0,0-68.1,12.6-68.3,12.6c-3.1,0.6-5.8,0.6-8.3,0.3c-1.1-0.2-2.2-0.4-3.2-0.8c-35.5-12.6,0.1-134.9,6.1-157.8
				c3.9-14.7,11.1-25.2,25.3-31.5c5.5-2.5,18.2-10.9,24.3-10.1l0.3,0.1c0,0,29.2,4.3,29.2,4.3c9,0.3,17.5,4,25.5,7.9
				c2.3,1.1,23,13.3,22.8,14.2c0,0-9.6,30.2-9.6,30.2l-8.8-4.5v6"/>
		</defs>
		<use xlink:href="#SVGID_1_"  style="overflow:visible;fill:#F9F9E8;"/>
		<clipPath id="SVGID_2_">
			<use xlink:href="#SVGID_1_"  style="overflow:visible;"/>
		</clipPath>
		<polygon class="st39" points="372,386.7 363.1,409.4 376.7,415.3 		"/>
		<polygon class="st39" points="236.2,507.5 246.5,520.8 234.7,520.8 		"/>
		<polygon class="st39" points="371.2,458.8 343.2,466.2 351.3,478 		"/>
		<polygon class="st39" points="226.8,419.4 257.7,427.5 243.7,469.6 		"/>
	</g>
	<g>
		<defs>
			<path id="SVGID_3_" d="M359.4,436.8l0.1,61.8c0,1.1,0,2.2-0.1,3.3c-0.6,8.4-3.7,16.2-8.5,22.6c-6.3,8.5-15.7,14.6-26.8,16.6
				c0,0-68.1,12.6-68.3,12.6c-3.1,0.6-5.8,0.6-8.3,0.3c-1.1-0.2-2.2-0.4-3.2-0.8c-35.5-12.6,0.1-134.9,6.1-157.8
				c3.9-14.7,11.1-25.2,25.3-31.5c5.5-2.5,18.2-10.9,24.3-10.1l0.3,0.1c0,0,29.2,4.3,29.2,4.3c9,0.3,17.5,4,25.5,7.9
				c2.3,1.1,25.4,13.3,25.2,14.2c0,0-11.2,33-11.2,33l-9.8-2.1l0.3,0.9V436.8z"/>
		</defs>
		<use xlink:href="#SVGID_3_"  style="overflow:visible;fill:#FFFFFF;"/>
		<clipPath id="SVGID_4_">
			<use xlink:href="#SVGID_3_"  style="overflow:visible;"/>
		</clipPath>
		<polygon class="st40" points="372,386.7 363.1,409.4 376.7,415.3 		"/>
		<polygon class="st40" points="236.2,507.5 246.5,520.8 234.7,520.8 		"/>
		<polygon class="st40" points="371.2,458.8 343.2,466.2 351.3,478 		"/>
		<polygon class="st40" points="226.8,419.4 257.7,427.5 243.7,469.6 		"/>
	</g>
	<polygon class="st41" points="236.2,507.5 246.5,520.8 234.7,520.8 	"/>
	<path class="st42" d="M313.6,369c-3.5,14.7-51.2,53.3-27.3,89c8.9,13.4,6.5,49.1-5.6,91.2c-13.4,2.5-24.7,4.6-24.8,4.6
		c-3,0.6-5.8,0.6-8.3,0.3c-1.1-0.2-2.2-0.4-3.2-0.8c-35.5-12.6,0.1-134.9,6.1-157.8c3.9-14.7,11.1-25.2,25.3-31.5
		c5.5-2.5,18.2-10.9,24.3-10.1l0.3,0l13.2,1.9C314.4,360.1,314.7,364.6,313.6,369z"/>
	<path class="st25" d="M338.8,303.7c-0.4-1.5-0.9-3-1.5-4.6c-1.4-3.9-3.5-7.9-6.4-11.9l-28.5-2.5l-8.7,26l-2.4-0.3l-1.4-0.2
		l-3.1,4.9c0.1,0.9,0.5,1.8,1,2.6c0.1,0.2,0.3,0.4,0.5,0.6l7.1,7.9c0.8,3.4,5.6,7.7,10.3,11.2c3,2.3,6,4.3,7.9,5.5
		c1.3,0.8,2.7,1.3,4.2,1.5l6.7,0.8c0,0,0.5-0.1,1.2-0.4c3.8-1.4,15.1-6.8,14.6-24.7c0,0,0-0.2,0.1-0.7v0
		C340.7,317.4,340.8,311.2,338.8,303.7z"/>
	<path class="st26" d="M326,349.1c-0.8,0.3-1.3,0.4-1.3,0.4l-6.7-0.8c-1.5-0.2-3-0.7-4.2-1.5c-1.1-0.7-2.4-1.6-4-2.6
		c-1.7-3.8-3.4-6.4-3.8-7c3,2.2,5.9,4.2,7.8,5.3c1.3,0.8,2.7,1.3,4.2,1.5l6.7,0.8c0,0,0.5-0.1,1.2-0.4L326,349.1z"/>
	<path class="st25" d="M318.9,368.3c-1.4-0.7-3-1.8-4.7-3.3c0.5-7.5-2.1-15.1-4.5-20.5c1.6,1.1,3,2,4,2.6c1.3,0.8,2.7,1.3,4.2,1.5
		l6.7,0.8c0,0,0.5-0.1,1.3-0.4l0.1,8.2l3.3,1l0.4,1.9C331.1,366.3,324.6,371.2,318.9,368.3z"/>
	<path class="st11" d="M347.4,284.4c-0.1,3.3-0.5,6.7-2,9.6c-1.5,3-4.5,4.5-7.8,5c-1.2,0.2-2.5,0.2-3.7,0.2
		c-5.1-0.2-10.7-1.3-15.2-3.7c-3.9-2.1-7.5-4.6-11.2-7.2c-2-1.4-4.7,0-4.7,2.5c0.1,6.7-1,16.9-8.5,19.6c-0.2,0.1-0.4,0.1-0.7,0.2
		l-1.1-0.7c-1.9-1.2-4.3-0.4-5.3,1.6c-0.4,0.8-0.6,1.7-0.6,2.6c0,0.3,0,0.6,0.1,0.9l-0.1,0.2c0,0-2.7-16.4-1.4-29.7
		c0.8-8.3,7.9-14.6,16.2-14.3c7.9,0.3,18.6,1.3,27.6,1.7c9.5,0.4,17.1,0.2,17.2-2.2C347.2,274.9,347.6,279.9,347.4,284.4z"/>
	<g>
		<g>
			<path class="st43" d="M287.1,287.8c0.1-1.4,0.2-2.9,0.7-4.3c0.1-0.4,0.2-0.7,0.4-1l0.2-0.5c0.1-0.2,0.2-0.3,0.2-0.5
				c0.2-0.3,0.3-0.7,0.5-1l0.6-0.9c1.6-2.4,3.8-4.5,6.4-5.7c1.3-0.6,2.7-1.1,4.1-1.3l0.5-0.1c0.2,0,0.4,0,0.5,0l1.1-0.1l2.2-0.1
				c2.9-0.1,5.8-0.1,8.7-0.1c5.8,0,11.6,0,17.4-0.2c2.9-0.1,5.8-0.2,8.7-0.5c1.4-0.2,2.9-0.3,4.3-0.7c0.7-0.2,1.4-0.4,2-0.7
				c0.3-0.2,0.6-0.3,0.9-0.6c0.3-0.2,0.4-0.6,0.4-0.9l0-0.6l0.2,0.6c0.8,3,1.4,6,1.7,9.1c0.2,1.5,0.3,3.1,0.3,4.6
				c0,1.5,0,3.1-0.1,4.6c-0.2,1.5-0.5,3.1-1,4.5c-0.5,1.5-1.4,2.8-2.6,3.7c-1.2,1-2.6,1.6-4.1,2.1c-1.5,0.4-3,0.6-4.6,0.7
				c1.5-0.1,3.1-0.3,4.5-0.7c1.5-0.4,2.9-1.1,4.1-2.1c1.2-1,2.1-2.3,2.6-3.7c0.5-1.4,0.8-3,1-4.5c0.2-1.5,0.2-3.1,0.1-4.6
				c-0.1-1.5-0.2-3.1-0.3-4.6c-0.4-3.1-0.9-6.1-1.8-9l0.1,0c0,0.4-0.2,0.8-0.5,1c-0.3,0.3-0.6,0.4-0.9,0.6c-0.7,0.3-1.4,0.5-2.1,0.7
				c-1.4,0.3-2.9,0.5-4.3,0.7c-2.9,0.3-5.8,0.4-8.7,0.5c-5.8,0.2-11.6,0.1-17.4,0.1c-2.9,0-5.8,0-8.7,0.1l-2.2,0.1l-1.1,0.1
				c-0.2,0-0.4,0-0.5,0l-0.5,0.1c-1.4,0.2-2.8,0.7-4.1,1.3c-2.6,1.2-4.8,3.2-6.4,5.6l-0.6,0.9c-0.2,0.3-0.3,0.6-0.5,1
				c-0.1,0.2-0.2,0.3-0.2,0.5l-0.2,0.5c-0.1,0.3-0.3,0.7-0.4,1C287.4,285,287.2,286.4,287.1,287.8z"/>
		</g>
	</g>
	<g>
		<g>
			<path class="st44" d="M353.7,273.3"/>
		</g>
	</g>
	<g>
		<g>
			<path class="st43" d="M286,308.4c-0.4-0.8-0.7-1.7-1-2.6c-0.3-0.9-0.5-1.8-0.8-2.7c-0.5-1.8-0.8-3.6-1-5.5
				c-0.1-0.9-0.2-1.9-0.3-2.8c-0.1-0.9-0.1-1.9-0.2-2.8c0-0.9-0.1-1.9-0.1-2.8c0-0.9,0-1.9,0.1-2.8c0.2-1.9,0.7-3.7,1.6-5.4
				c0.8-1.7,2-3.2,3.4-4.5c1.4-1.3,3-2.3,4.7-3c1.7-0.7,3.6-1.1,5.5-1.1c-3.7,0.2-7.4,1.7-10.1,4.2c-2.7,2.5-4.5,6.1-4.9,9.7
				c-0.1,0.9-0.1,1.9-0.1,2.8c0,0.9,0,1.9,0,2.8c0,0.9,0.1,1.9,0.2,2.8c0.1,0.9,0.2,1.9,0.3,2.8c0.2,1.8,0.6,3.7,1,5.5
				c0.2,0.9,0.5,1.8,0.7,2.7C285.3,306.6,285.6,307.5,286,308.4z"/>
		</g>
	</g>
	<g>
		<g>
			<path class="st44" d="M286.3,316.2"/>
		</g>
	</g>
	<path class="st42" d="M380.1,349.3"/>
	<g>
		<g>
			<g>
				<line class="st45" x1="891.3" y1="462.9" x2="891.2" y2="465.2"/>
				<line class="st46" x1="891.1" y1="469.7" x2="888" y2="621"/>
				<line class="st45" x1="888" y1="623.3" x2="887.9" y2="625.6"/>
			</g>
		</g>
	</g>
	<path class="st25" d="M855.2,273.8l-3.5-2.8l-0.4,0.2l0.4-0.2L855.2,273.8c0-0.2-0.1-0.5-0.2-0.7c-0.2-0.6-0.6-1.2-1.1-1.8
		c-1.2-1.2-3.2-1.1-4.2,0.2l-0.6,0.8l0.8-0.4l-0.8,0.4l-13-16.7l-20.1,9.2c-1.1,3.6-1.5,7.1-1.6,10.3c0,1.3,0,2.5,0.1,3.7
		c0.5,6,2.1,10.5,2.7,11.9c0.1,0.3,0.2,0.5,0.2,0.5c4.1,12.9,13.4,14.2,16.7,14.2c0.1,0,0.1,0,0.2,0c0.2,0,0.4,0,0.5,0l0.3,0
		c0.1,0,0.1,0,0.1,0l4.7-2.3c0.5-0.2,0.9-0.5,1.3-0.8c0.7-0.6,1.3-1.3,1.9-2c0.9-1.2,2.1-2.8,3.3-4.6c0.2-0.3,0.4-0.5,0.5-0.8
		c0.5-0.8,1.1-1.7,1.6-2.5c1.8-3.1,3.2-6.2,3-8.3l3.1-7.6c0.1-0.2,0.1-0.4,0.2-0.6C855.3,275.2,855.4,274.5,855.2,273.8z"/>
	<path class="st26" d="M848.3,297.9l-1.1-3c-0.2,0.3-0.4,0.5-0.5,0.8c-0.1,0.2-0.2,0.3-0.3,0.5c0,0.1-0.1,0.1-0.1,0.2
		c-0.4,0.5-0.7,1-1.1,1.5c-0.2,0.2-0.3,0.5-0.5,0.7c-0.5,0.6-0.9,1.2-1.3,1.7c-0.2,0.2-0.3,0.4-0.5,0.6c-0.4,0.5-0.9,1-1.4,1.4
		c-0.4,0.3-0.8,0.6-1.3,0.8l-4.7,2.3l0,0c0,0,0,0-0.1,0c-0.1,0-0.2,0-0.3,0c-0.2,0-0.4,0-0.5,0l1.1,3.1c0.7,0,1.1,0,1.1,0l4.7-2.3
		c1.1-0.5,2-1.2,2.7-2.2c1-1.3,2.7-3.4,4.2-5.8C848.2,298.1,848.3,298.1,848.3,297.9L848.3,297.9z"/>
	<path class="st29" d="M843.3,300.3c1.1-1.4,2.5-3.3,3.9-5.4C846.1,296.5,844.8,298.5,843.3,300.3z"/>
	<path class="st47" d="M848.2,298.2c-2.8,7-11.8,12.9-11.8,12.9l-0.9-2.6c0.7,0,1.1,0,1.1,0l4.7-2.3c1.1-0.5,2-1.2,2.7-2.2
		C845,302.7,846.6,300.6,848.2,298.2z"/>
	<path class="st25" d="M835.7,317.5c0,0.4,0,0.8,0.1,1.2c1.3,4.1,7,5,9.8,2c2.1-2.2,4.3-6,6.1-12.7c0-0.1,0.1-0.2,0.1-0.3l-3.4-9.7
		c0,0.1-0.1,0.1-0.1,0.2c-2.8,7-13.1,8.8-13.1,8.8s2.5,7.5,2.5,7.5c0.1,0.3-1,1.2-1.2,1.4C836,316.4,835.7,317,835.7,317.5z"/>
	<g>
		<g>
			<path class="st48" d="M842.9,243.4c2.6,1.1,4.7,3,6.5,5.2c1.8,2.2,2.9,4.8,3.8,7.4c0.4,1.3,0.7,2.7,1.1,4
				c0.3,1.4,0.5,2.7,0.8,4.1c0.3,1.4,0.6,2.7,1.1,4c0.2,0.6,0.6,1.3,0.9,1.9c0.4,0.6,0.9,1.1,1.5,1.5c-0.6-0.4-1.1-0.9-1.5-1.4
				c-0.4-0.6-0.7-1.2-1-1.8c-0.5-1.3-0.9-2.7-1.2-4c-0.3-1.4-0.5-2.7-0.8-4.1c-0.3-1.4-0.7-2.7-1.1-4c-0.8-2.6-2-5.2-3.7-7.4
				c-0.8-1.1-1.8-2.1-2.8-3C845.3,244.8,844.2,244,842.9,243.4z"/>
		</g>
	</g>
	<g>
		<g class="st49">
			<path d="M288.3,517.2c-0.4,2-0.8,4-1.2,6.1C287.5,521.3,287.9,519.2,288.3,517.2z"/>
		</g>
	</g>
	<g>
		<g class="st49">
			<path d="M290.6,501.5c-0.1,1.2-0.3,2.5-0.5,3.8C290.3,504,290.5,502.8,290.6,501.5z"/>
		</g>
	</g>
	<g>
		<g class="st35">
			<path d="M280.7,549.2c-17.3,59.7-54.2,132.2-106.2,171.9l62.6-130.7c3.2-6.6,5.2-13.8,5.8-21.1l0.8-8.3l0.4-4.6l0.3-3.1
				c1,0.4,2.1,0.6,3.2,0.8c2.5,0.4,5.2,0.3,8.3-0.3C255.9,553.8,267.3,551.7,280.7,549.2z"/>
		</g>
	</g>
	<path class="st28" d="M314.2,365c-2.5-2.2-5.2-5.2-8.2-9.6c-0.1-0.1-0.2-0.2-0.2-0.3v-17.6c0.1,0,0.1,0.1,0.2,0.1
		c0.4,0.6,2,3.2,3.8,7C312.2,349.9,314.8,357.5,314.2,365z"/>
	<path class="st26" d="M314.2,365c-2.5-2.2-5.2-5.2-8.2-9.6c-0.1-0.1-0.2-0.2-0.2-0.3v-17.6c0.1,0,0.1,0.1,0.2,0.1
		c0.4,0.6,2,3.2,3.8,7C312.2,349.9,314.8,357.5,314.2,365z"/>
	<path class="st50" d="M274.8,639.7l-5.3,12.6c-1.3,3.2-3.1,6.1-5.3,8.8l-5.8,7.1c-3.4-3-2.3-11,2.6-18.4
		C265.2,643.5,270.7,639.7,274.8,639.7z"/>
	<path class="st50" d="M379.9,657.2c-3.9,0.6-8.5-4.4-10.2-11.5c-1.8-7.3,0-14.1,4-15.1c0.1,0,0.2,0,0.3-0.1L379.9,657.2z"/>
	<path class="st51" d="M313.6,369c-2.6,10.8-13.6,20.7-19.6,29.8c-6.8,10.2-15.1,22.1-13.9,34.9c0.6,7,3.1,13.8,5.2,20.5
		c6.6,21.4,6.9,41,3.1,62.8c0,0.1,0,0.1,0,0.2c-0.4,2-0.8,4-1.2,6.1c-0.4,2.1-0.9,4.2-1.4,6.4c-0.2,0.8-0.4,1.6-0.5,2.4
		c-0.2,0.8-0.4,1.6-0.6,2.4c-0.2,0.8-0.4,1.6-0.6,2.4c-0.1,0.5-0.3,1-0.4,1.5c-0.1,0.5-0.3,1.1-0.4,1.6c-0.4,1.4-0.8,2.8-1.1,4.3
		c-0.1,0.5-0.3,1-0.4,1.6c-0.3,1.1-0.6,2.3-1,3.4c-13.4,2.5-24.7,4.6-24.8,4.6c-3,0.6-5.8,0.6-8.3,0.3c-1.1-0.2-2.2-0.4-3.2-0.8
		c-35.5-12.6,0.1-134.9,6.1-157.8c3.9-14.7,11.1-25.2,25.3-31.5c5.5-2.5,18.2-10.9,24.3-10.1l0.3,0l13.2,1.9
		C314.4,360.1,314.7,364.6,313.6,369z"/>
	<path class="st26" d="M182.4,755.2c-0.4,0.1-0.9,0.2-1.3,0.2c-3.1,0.5-6.9,0.8-11.2,0.6c-7.4-0.5-10.2,9.8-9.5,19.4l-8.7-4.5
		l10.8-24.5L182.4,755.2z"/>
	<path class="st52" d="M199.9,817.7l-54.6-27.6c-4-2-5.9-6.7-4.4-11c1.5-4.2,4.5-8.9,10-10.5c0.4-0.1,0.9-0.1,1.3,0.1l8,3.8
		c0,5.9,1.4,12,4,15.7C169.6,796,198.9,808.2,199.9,817.7z"/>
	<path class="st52" d="M199.9,817.7l-54.6-27.6c-4-2-5.9-6.7-4.4-11c1.5-4.2,4.5-8.9,10-10.5c0.4-0.1,0.9-0.1,1.3,0.1l8,3.8
		c0,5.9,1.4,12,4,15.7C169.6,796,198.9,808.2,199.9,817.7z"/>
	<path class="st52" d="M448.1,758.7l-51,19.9c-4.2,1.6-9-0.1-11.1-4.1c-2.1-4-3.6-9.3-1.1-14.5c0.2-0.4,0.5-0.7,0.9-0.9l5.3-2.2
		c1.8,1.4,4.2,2.1,7.3,1.9C415.2,757.5,447.4,751.5,448.1,758.7z"/>
	<path class="st25" d="M451.6,430.3l-32.3,0.5l-5.3-1.8l-36.7-12.8c0.5-2.3,2-4.9,6.2-6.4c11.8-4.2,16.9,1.7,35.6-1.9l25,17.2
		L451.6,430.3L451.6,430.3C451.6,430.3,451.6,430.3,451.6,430.3z"/>
	<path class="st24" d="M901.6,456.6c-0.6,0.6-1.3,1-2,1.5c-2.9,1.7-6.5,2.2-11,1.4c0,0-5.7-1.1-13.2-2.5c0.2-16.1,0.9-28.8,2-35.4
		c4.9-30.9-20.3-35.1-38.6-58.2c-18.2-23.1,19.6-49.8,8.4-54c-1.3-0.5-2.1-1.5-2.7-3c1.8-0.3,3.6-0.5,5.4-0.7
		c18.4-2.3,38.4,14.4,42.9,31.5c1.4,5.3,4.8,17.5,8.2,32.3c3.8,16.6,7.6,36.4,8.3,53.2C910,438,908.2,450.9,901.6,456.6z"/>
	<path class="st29" d="M848.3,297.9c0,0.1-0.1,0.2-0.1,0.3c-0.9,1.4-1.9,2.8-2.7,3.9c-0.6,0.8-1.1,1.4-1.5,1.9
		c0,0.1-0.1,0.1-0.2,0.2c0-0.2-0.1-0.5-0.1-0.7c-0.2-1-0.3-2.1-0.3-3.2c0.4-0.5,0.8-1.1,1.3-1.7c0.2-0.2,0.3-0.4,0.5-0.7
		c0.4-0.5,0.7-1,1.1-1.5c0,0,0.1-0.1,0.1-0.2c0.1-0.2,0.2-0.3,0.3-0.5c0.2-0.3,0.4-0.5,0.5-0.8L848.3,297.9z"/>
	<path class="st26" d="M851.8,307.7c0,0.1,0,0.2-0.1,0.3c-1.8,6.7-4,10.5-6.1,12.7c0,0-0.1,0.1-0.1,0.1c3.6-5.8,5.6-10,1.7-11.4
		c-1.8-0.7-2.9-2.6-3.4-5.2c0-0.2-0.1-0.5-0.1-0.7c0.6-0.4,1.2-0.9,1.8-1.4c1.1-1.1,2.1-2.3,2.7-3.9c0-0.1,0.1-0.1,0.1-0.2
		L851.8,307.7z"/>
	<g>
		<g>
			<g>
				<path class="st53" d="M872.8,359.2c0,0,0.3,0.8,0.7,2.1"/>
				<path class="st54" d="M875,365.8c5.4,16.8,18.4,62.1,10.8,88.6"/>
				<path class="st53" d="M885.1,456.5c-0.3,0.7-0.5,1.4-0.8,2.1"/>
			</g>
		</g>
	</g>
	<path class="st26" d="M851.8,307.7c0,0.1,0,0.2-0.1,0.3c-1.8,6.7-4,10.5-6.1,12.7c0,0-0.1,0.1-0.1,0.1c3.6-5.8,5.6-10,1.7-11.4
		c-1.8-0.7-2.9-2.6-3.4-5.2c0-0.2-0.1-0.5-0.1-0.7c-0.2-1-0.3-2.1-0.3-3.2c0.4-0.5,0.8-1.1,1.3-1.7c0.2-0.2,0.3-0.4,0.5-0.7
		c0.4-0.5,0.7-1,1.1-1.5c0,0,0.1-0.1,0.1-0.2c0.1-0.2,0.2-0.3,0.3-0.5c0.2-0.3,0.4-0.5,0.5-0.8l1.1,3c0,0.1-0.1,0.2-0.1,0.3
		c0-0.1,0.1-0.1,0.1-0.2L851.8,307.7z"/>
	<path class="st28" d="M855.1,275.9c0,0.2-0.1,0.4-0.2,0.6l-3.1,7.6c0.2,2.1-1.2,5.2-3,8.3c-0.5,0.9-1.1,1.7-1.6,2.5
		c-0.2,0.3-0.4,0.5-0.5,0.8c-1.2,1.8-2.4,3.4-3.3,4.6c-0.6-14.8,6.6-40.8-9.1-30.3c-8.2,5.5-14.8,6.3-19.8,5.3v-0.2
		c0-3.2,0.5-6.7,1.6-10.3l20.1-9.2l13,16.7l0.6-0.8c1.1-1.3,3.1-1.4,4.2-0.2c0.5,0.5,0.9,1.1,1.1,1.8c0.1,0.2,0.1,0.5,0.2,0.7
		C855.4,274.5,855.3,275.2,855.1,275.9z"/>
	<path class="st26" d="M855.1,275.9c0,0.2-0.1,0.4-0.2,0.6l-3.1,7.6c0.2,2.1-1.2,5.2-3,8.3c-0.5,0.9-1.1,1.7-1.6,2.5
		c-0.2,0.3-0.4,0.5-0.5,0.8c-1.2,1.8-2.4,3.4-3.3,4.6c-0.6-14.8,6.6-40.8-9.1-30.3c-8.2,5.5-14.8,6.3-19.8,5.3v-0.2
		c0-3.2,0.5-6.7,1.6-10.3l20.1-9.2l13,16.7l0.6-0.8c1.1-1.3,3.1-1.4,4.2-0.2c0.5,0.5,0.9,1.1,1.1,1.8c0.1,0.2,0.1,0.5,0.2,0.7
		C855.4,274.5,855.3,275.2,855.1,275.9z"/>
	<g>
		<g class="st55">
			<path d="M901.6,456.6c-0.6,0.6-1.3,1-2,1.5c-2.9,1.7-6.5,2.2-11,1.4c0,0-5.7-1.1-13.2-2.5c0.1-8.1,0.1-16.2,0.9-24.3
				c0.9-8.6,2.5-17.3,0.5-25.8c-1.8-7.3-6.1-13.8-11.4-19.1c-8.7-8.8-18.8-14.6-26.6-24.4c-18.2-23.1,19.6-49.8,8.4-54
				c-1.3-0.5-2.1-1.5-2.7-3c1.8-0.3,3.6-0.5,5.4-0.7c18.4-2.3,38.4,14.4,42.9,31.5c1.4,5.3,4.8,17.5,8.2,32.3
				c3.8,16.6,7.6,36.4,8.3,53.2C910,438,908.2,450.9,901.6,456.6z"/>
		</g>
	</g>
	<path class="st56" d="M831.7,632.2l23.3-167.1c0,0-3.7-10.6-3.7-12"/>
	<path class="st48" d="M812.8,244.2c-5.5,2.6-9.8,6.8-10.2,13.7c-0.7,10.3,7.6,21.2,18.3,14.5c3.1-1.9,5.9-4.6,8.3-7.4
		c1.2-1.3,7.3-7.8,7-9.4c0,0,3.3,17.3,13,16.7l0.6-0.8c1.1-1.3,3.1-1.4,4.2-0.2c0.5,0.5,0.9,1.1,1.1,1.8c0.1,0.2,0.1,0.5,0.2,0.7
		c0,0,0.1,0.1,0.1,0.1c-0.3-0.3-0.1-3.3-0.1-3.7c-0.2-2.4-0.4-4.8-0.7-7.2c-0.9-6-2.9-12.6-7.4-17c-7.9-7.7-16.9-7-27.1-4.3
		C817.6,242.3,815.1,243.1,812.8,244.2z"/>
	<path class="st57" d="M855.4,273.9l-0.1-0.1c0-0.2-0.1-0.5-0.2-0.7c-0.2-0.6-0.6-1.2-1.1-1.8c-1.2-1.2-3.2-1.1-4.2,0.2l-0.6,0.8
		c-9.4,0.6-12.8-15.7-13-16.7c0.2,1.7-5.8,8.1-7,9.4c-2.4,2.7-5.2,5.4-8.3,7.4c-10.6,6.7-18.9-4.2-18.3-14.5c0.3-5.4,3-9.1,6.8-11.8
		c1.1-0.7,2.2-1.4,3.4-2c2.3-1.1,4.7-1.9,7.2-2.5c10.2-2.7,19.2-3.4,27.1,4.3c4.4,4.4,6.5,11,7.4,17c0.1,1,0.3,2,0.4,3
		c0.1,1.4,0.2,2.8,0.3,4.2C855.3,270.6,855,273.6,855.4,273.9z"/>
	<g>
		<g>
			<path class="st48" d="M847.4,250.8c-0.8-1.7-1.9-3.2-3.1-4.6c-1.2-1.4-2.6-2.6-4.1-3.7c-3.1-2.1-6.7-3.3-10.4-3.5
				c-1.9-0.1-3.7,0-5.5,0.3c-1.8,0.3-3.6,0.7-5.4,1.3c-3.5,1.1-6.9,2.9-9.7,5.2c-2.9,2.4-5.1,5.4-6.5,8.9c-1.3,3.5-1.6,7.3-1,10.9
				c0.3,1.8,0.8,3.6,1.7,5.3c0.4,0.8,1,1.6,1.6,2.2c0.6,0.7,1.4,1.2,2.3,1.6c1.7,0.8,3.6,0.9,5.4,0.7c1.8-0.3,3.6-0.8,5.3-1.7
				c-1.6,0.9-3.4,1.5-5.3,1.7c-1.8,0.3-3.8,0.2-5.5-0.6c-0.8-0.4-1.6-0.9-2.3-1.6c-0.7-0.7-1.2-1.4-1.7-2.3
				c-0.9-1.7-1.4-3.5-1.7-5.3c-0.6-3.7-0.4-7.5,0.9-11c1.3-3.5,3.6-6.6,6.5-9c2.9-2.4,6.2-4.1,9.8-5.3c1.8-0.6,3.6-1,5.4-1.2
				c1.8-0.3,3.7-0.4,5.6-0.3c3.7,0.2,7.4,1.4,10.4,3.6c1.5,1.1,2.9,2.3,4.1,3.7C845.5,247.6,846.6,249.1,847.4,250.8z"/>
		</g>
	</g>
	<g class="st58">
		<polygon class="st59" points="319.9,396.1 340.6,389.5 348.7,413.1 		"/>
		<polygon class="st59" points="270.5,372.5 267.6,382.2 286.7,372.5 		"/>
		<polygon class="st59" points="286.7,424.9 273.5,446.3 308.1,449.2 		"/>
		<polygon class="st59" points="253.5,481.7 259.4,467.7 267.6,478 		"/>
		<polygon class="st59" points="301.5,472.1 308.1,455.9 311.8,467.7 		"/>
		<polygon class="st59" points="331.7,510.5 323.6,493.5 331.7,493.5 		"/>
		<polygon class="st59" points="270.5,542.9 284.5,528.9 286.7,540.7 		"/>
		<polygon class="st59" points="288.2,500.1 286.7,506.8 296.3,503.1 		"/>
	</g>
	<path class="st24" d="M884.3,339.5c0.6,19.8-19.8,22.4-19.8,22.4l-23.7,3.8l-6.5,1.1l-8.7-25.8l11.3-4.9l29.1-12.6
		C865.9,323.6,883.6,319.7,884.3,339.5z"/>
	<g>
		<g>
			<g>
				<path class="st60" d="M773.5,402.8l-40.7,1.6l-25.7,1l-261.2,10.4l-3.6,0.1l-5.9,0.2l-26.5,1.1l-5.9,0.2
					c-1.4,0.1-2.8,0.5-3.9,1.2c-1.5,1-2.6,2.4-3.1,4.1c-0.3,0.9-0.4,1.9-0.3,3c0.4,5.3,1,10.5,1.7,15.8c0.1,1,0.3,1.9,0.4,2.9
					c0.5,3.5,1.1,7.1,1.8,10.6c0.2,1,0.4,2,0.6,3c3,15,7.2,29.9,12.5,44.5v0l328,39c3.3,0.4,6.4-1.3,7.8-4.3
					c19.5-40.1,32-83.6,32-126.3v-0.6C781.5,406.1,777.9,402.6,773.5,402.8z"/>
			</g>
			<g>
				<path class="st60" d="M772.6,401.3l-40.2-2l-25.9-1.3l-301-14.8c-4.6-0.2-8-4.4-7.2-9c15.5-88.8,100.3-156.4,190.2-156.4
					c77.8,0,149.8,48.4,179.1,120.5c7.2,17.7,11.4,36,13,54.6C781.1,397.6,777.3,401.5,772.6,401.3z"/>
			</g>
			<g>
				<path class="st60" d="M438.1,531.9L733.7,544c5.7,0.2,9.2,6.4,6.4,11.4c-18.1,32.7-40.6,62.6-64.2,87.2
					c-1.4,1.5-3.4,2.3-5.5,2.3H506.8c-2.1,0-4.1-0.8-5.5-2.3c-27.2-28.3-51.7-62.5-70.3-99.6C428.3,537.7,432.3,531.6,438.1,531.9z"
					/>
			</g>
		</g>
	</g>
	
		<ellipse transform="matrix(0.2298 -0.9732 0.9732 0.2298 331.8908 1094.3424)" class="st42" cx="857.3" cy="337.5" rx="14" ry="14"/>
	
		<ellipse transform="matrix(0.2298 -0.9732 0.9732 0.2298 285.9167 1108.5431)" class="st42" cx="843.3" cy="373.6" rx="18.4" ry="18.4"/>
	<path class="st42" d="M820.4,344.9c0,4.9-4,8.9-8.9,8.9c-2.6,0-5-1.1-6.6-2.9l3.7-1.5l0-4l-5.6,1.8c-0.2-0.7-0.3-1.4-0.3-2.2
		c0-4.9,4-8.9,8.9-8.9S820.4,340,820.4,344.9z"/>
	<g>
		<linearGradient id="SVGID_5_" gradientUnits="userSpaceOnUse" x1="465.0984" y1="534.1339" x2="748.1793" y2="394.8642">
			<stop  offset="0" style="stop-color:#FFFFFF"/>
			<stop  offset="1" style="stop-color:#F8D660"/>
		</linearGradient>
		<path class="st61" d="M756.7,414v0.6c0,38.8-10.5,78.3-26.9,114.7c-1.2,2.7-3.9,4.2-6.6,3.9l-276.1-35.4v0
			c-4.4-13.3-8-26.8-10.5-40.4c-0.2-0.9-0.3-1.8-0.5-2.8c-0.6-3.2-1.1-6.4-1.5-9.6c-0.1-0.9-0.2-1.7-0.4-2.6
			c-0.6-4.8-1.1-9.6-1.5-14.3c-0.1-0.9,0-1.9,0.3-2.7c0.4-1.5,1.4-2.9,2.6-3.7c1-0.7,2.1-1.1,3.3-1.1l5-0.2l22.3-1l5-0.2l3-0.1
			l219.8-9.5l21.2-0.9l25.7-1.1l9-0.4C753.7,406.9,756.7,410,756.7,414z"/>
		<linearGradient id="SVGID_6_" gradientUnits="userSpaceOnUse" x1="447.2316" y1="414.0561" x2="707.9645" y2="285.7811">
			<stop  offset="0" style="stop-color:#FFFFFF"/>
			<stop  offset="1" style="stop-color:#F8D660"/>
		</linearGradient>
		<path class="st62" d="M739.6,394c-0.3,0-0.6,0-0.9,0l-25.3-1.3l-8.1-0.4l-21.5-1.1l-250.2-12.5c-3.8-0.2-6.7-3.7-6-7.6
			c12.9-74.9,83.4-131.9,158.2-131.9c64.7,0,124.5,40.8,148.9,101.6c6,14.9,9.5,30.4,10.8,46C745.7,390.6,743,393.7,739.6,394z"/>
		<linearGradient id="SVGID_7_" gradientUnits="userSpaceOnUse" x1="495.7599" y1="630.2808" x2="706.8433" y2="526.4323">
			<stop  offset="0" style="stop-color:#FFFFFF"/>
			<stop  offset="1" style="stop-color:#F8D660"/>
		</linearGradient>
		<path class="st63" d="M717.2,554.9l-252.6-11.5c-5-0.2-8.4,5.6-6.2,10.5c15.9,35.1,36.9,67.5,60.1,94.3c1.2,1.4,3,2.2,4.7,2.2
			h139.9c1.8,0,3.5-0.8,4.7-2.2c20.2-23.3,39.4-51.6,54.9-82.5C725,560.9,722.1,555.1,717.2,554.9z"/>
	</g>
	<path class="st64" d="M575.3,648.4l3.3-277.8c0-3.8-3-6.9-6.8-6.9l0,0c-3.8,0-6.8,3-6.8,6.8v0.1c0,3.8,3,6.8,6.8,6.8h42
		c3.8,0,6.8-3,6.8-6.8v-0.1c0-3.8-3-6.8-6.8-6.8h-0.9c-3.8,0-6.8,3-6.8,6.8v285.6"/>
	<g>
		<g>
			<path class="st65" d="M620.1,763.8c0.7,0,0.7-1.1,0-1.1C619.4,762.7,619.4,763.8,620.1,763.8L620.1,763.8z"/>
		</g>
	</g>
	<path class="st66" d="M679.4,673.3H503.9c-4.2,0-7.6-3.4-7.6-7.6v-19.1c0-4.2,3.4-7.6,7.6-7.6h175.6c4.2,0,7.6,3.4,7.6,7.6v19.1
		C687.1,669.9,683.6,673.3,679.4,673.3z"/>
	<path class="st10" d="M679.8,707.7H504.3c-4.2,0-7.6-3.4-7.6-7.6v-19.1c0-4.2,3.4-7.6,7.6-7.6h175.6c4.2,0,7.6,3.4,7.6,7.6V700
		C687.4,704.3,684,707.7,679.8,707.7z"/>
	<path class="st43" d="M687.8,724.8c0,2.7-0.6,5.3-1.8,7.6c-0.8,1.7-1.9,3.2-3.3,4.5c-0.2,0.2-0.3,0.3-0.5,0.5
		c-3.1,2.8-7.1,4.5-11.6,4.5H514.2c-4.4,0-8.4-1.6-11.4-4.4c-1.7-1.5-3.1-3.4-4.1-5.5c-1-2.2-1.6-4.7-1.6-7.3c0-4.7,1.9-9,5-12.2
		c3.1-3.1,7.4-5,12.2-5h156.5C680.1,707.7,687.8,715.3,687.8,724.8z"/>
	<path class="st57" d="M687.8,724.8c0,2.7-0.6,5.3-1.8,7.6c-1.2,1.7-2.5,3.4-3.8,5c-21,26.5-53.8,41.3-90.3,41.3
		c-36.3,0-68.3-14.8-89.2-41.1c-1.4-1.8-2.8-3.6-4.1-5.5c-1-2.2-1.6-4.7-1.6-7.3c0-4.7,1.9-9,5-12.2c3.1-3.1,7.4-5,12.2-5h156.5
		C680.1,707.7,687.8,715.3,687.8,724.8z"/>
	<path class="st25" d="M748,359.4c0.4-0.2,0.9-0.2,1.3,0l0.3,0.1l5.7,2.6l7.4,3.4c1.6,0.7,3.4,1,5.2,0.6l0,0l3-0.6l3.5-0.7l2.9,8.4
		l-1.2,0.3l-5.1,1.3l-0.2,0.1l-11.5,6c-2.3,1.2-5.1,1.4-7.5,0.4l-10.5-4.1c-1.8-0.7-3.1-2.2-3.6-4.1l-0.2-0.7l-0.6-2.5l-0.5-2
		c-0.3-1.1,0.6-2.1,1.7-2l2.2,0.2c0,0,12.8,3,14.9,1.3l-7.2-5.4C746.8,361.3,747,359.9,748,359.4L748,359.4z"/>
	<path class="st25" d="M476.2,440.5l-0.8,3.1l-1,3.8l-0.3,1.1c-0.7,2.9-2.8,5.3-5.6,6.4l-11.8,4.6l-4.6,1.8
		c-3.8,1.5-8.1,1.3-11.7-0.6l-17.8-9.3l-0.4-0.1l-1.6-0.4l-6.3-1.6l-1.9-0.5l1-3l3.5-9.9l0-0.1l2.4,0.5l1,0.2l2,0.4l4.7,0.9
		c2.7,0.5,5.5,0.2,8-0.9l11.4-5.2l8.8-4l0.4-0.2c0.7-0.3,1.4-0.3,2.1,0c1.6,0.8,1.8,3,0.4,4.1l-11.2,8.3c3.3,2.7,23.2-2,23.2-2
		l3.3-0.3C475.3,437.3,476.6,438.8,476.2,440.5z"/>
	<g>
		<g>
			<path class="st25" d="M422.1,450.6c-0.4,0.1-0.9,0.2-1.3,0.2c-27.1,4.3-61.1,0.1-89.5-6c-0.3-0.1-0.7-0.2-1-0.2
				c-11.8-2.6-23-5.7-33-9.1c-2.9-1-5.6-1.9-8.2-2.9c-9.7-3.7-16.1-7.2-20.3-10.8c-1.6-2-3.1-4.2-4.2-6.8c-1.4-3.1-2.2-6.7-2.4-10.7
				c0-0.1,0-0.2,0-0.2c0.6-3.5,1.9-7.2,3.1-11.1c0.8-2.6,1.3-5.5,1.8-8.3c0-0.1,0.1-0.3,0.1-0.4c0.4-0.4,0.8-0.8,1.2-1.2
				c8-7.5,20-4.8,20-4.8l27.4,11.9c9.8,6.4,20.4,12.9,31.5,18.9c0.6,0.3,1.2,0.6,1.8,1c21.3,11.3,44.4,22.1,68.1,26
				c0.8,0.1,1.6,0.3,2.4,0.4c0.3,0,0.6,0.1,0.9,0.1l0,0l1.4,12.9L422.1,450.6z"/>
		</g>
	</g>
	<path class="st25" d="M771.8,365.5l94.2-41.9c0,0,17.7-3.9,18.3,15.9c0.6,19.8-19.8,22.4-19.8,22.4L771,374.4"/>
	<path class="st24" d="M834.2,366.8l30.3-4.9c0,0,20.4-2.6,19.8-22.4c-0.6-19.8-18.3-15.9-18.3-15.9l-40.4,17.5L834.2,366.8z"/>
	<g>
		<g class="st34">
			<path d="M884.3,339.5c0.6,19.8-19.8,22.4-19.8,22.4l-23.7,3.8c-0.7-0.8-1.4-1.6-2-2.4c-7.1-9-5.7-18.6-1.9-27.2l29.1-12.6
				C865.9,323.6,883.6,319.7,884.3,339.5z"/>
		</g>
	</g>
	<path class="st28" d="M810.1,387"/>
	<path class="st28" d="M809.6,366.7"/>
	<path class="st67" d="M877.1,325.1"/>
	<g class="st68">
		<path class="st5" d="M729.1,394c-0.3,0-0.6,0-0.9,0l-25.3-1.3c-2.8-18.5-8-35.7-15.4-51.2c-15.8-33.2-36.6-47.9-36.8-48.1
			c-5.9-4-7.4-11.9-3.4-17.8c4-5.9,12-7.4,17.8-3.4c1.1,0.7,25.9,17.8,44.7,56.5C719.5,348.5,725.9,370.4,729.1,394z"/>
		<path class="st5" d="M720.1,512.8c-1.4,5.7-6.4,9.5-12,9.7c-1.2,0-2.4-0.1-3.6-0.4c-6.9-1.7-11-8.7-9.3-15.6c8.8-35,12-68,9.5-98
			l25.7-1.1C733,439.8,729.5,475.3,720.1,512.8z"/>
	</g>
	<path class="st42" d="M821.9,405.4c0,4.7-2.7,8.7-6.7,10.6c-1.6,0.8-3.3,1.2-5.1,1.2c-0.5,0-1.1,0-1.6-0.1v-0.2l0-23.2
		c0.5-0.1,1-0.1,1.5-0.1c6.2,0,11.4,4.8,11.8,11C821.9,404.8,821.9,405.1,821.9,405.4z"/>
	<circle class="st42" cx="847.7" cy="427.5" r="5.9"/>
	<path class="st42" d="M909.3,422.7c-6.8-6.5-11.4-19.1-11.4-33.6c0-7.2,1.1-13.9,3.1-19.6C904.8,386.1,908.6,405.9,909.3,422.7z"/>
	<path class="st69" d="M329.2,273c-2.9,2.2-6.2,3.8-9.7,4.9c-6.7,2-13.5,1-19.3,5.8c-8,6.6-8.7,17.5-5.7,26.7
		c-0.2,0.1-0.4,0.1-0.7,0.2l-1.1-0.7c-1.9-1.2-4.3-0.4-5.3,1.6c-0.4,0.8-0.6,1.7-0.6,2.6c0,0.3,0,0.6,0.1,0.9l-0.1,0.2
		c0,0-2.7-16.4-1.4-29.7c0.8-8.3,7.9-14.6,16.2-14.3C309.5,271.6,320.2,272.6,329.2,273z"/>
	<path class="st26" d="M286.9,315.1c0.1,0.9,0.5,1.8,1,2.6c0.1,0.2,0.3,0.4,0.5,0.6l7.1,7.9c0.8,3.4,5.6,7.7,10.3,11.2
		c0,0,0.1,0,0.1,0.1c0,0,0,0,0-0.1c-1.3-8.3-10.1-24.2-11.7-26.9l-0.4,0.1l-1.1-0.7c-1.9-1.2-4.3-0.4-5.3,1.6
		c-0.4,0.8-0.6,1.7-0.6,2.6C286.9,314.5,286.9,314.8,286.9,315.1"/>
	<path class="st5" d="M305.4,384.1c-3.9,5.1-8.3,10-11.4,14.6c-6.2,9.4-13.7,20.1-14,31.7c-0.1,0-0.1-0.1-0.2-0.1
		c-0.4-0.2-0.9-0.5-1.4-0.7c-0.2-0.1-0.5-0.3-0.7-0.4c-3-1.8-6.3-4.2-9-7.5c-1.6-1.9-3.1-4.2-4.2-6.8c-4.4-10-3.2-25.2,4.9-33.2
		c5-4.9,12.5-6.3,19.1-4.8c4.4,1,8.5,2.9,12.6,4.9C302.5,382.6,304,383.4,305.4,384.1z"/>
	<path class="st51" d="M305.4,384.1c-3.9,5.1-8.3,10-11.4,14.6c-6.2,9.4-13.7,20.1-14,31.7c-0.1,0-0.1-0.1-0.2-0.1
		c-0.4-0.2-0.9-0.5-1.4-0.7c-0.2-0.1-0.5-0.3-0.7-0.4c-3-1.8-6.3-4.2-9-7.5c-1.6-1.9-3.1-4.2-4.2-6.8c-4.4-10-3.2-25.2,4.9-33.2
		c5-4.9,12.5-6.3,19.1-4.8c4.4,1,8.5,2.9,12.6,4.9C302.5,382.6,304,383.4,305.4,384.1z"/>
	<path class="st5" d="M349.2,409.3l-0.2,0.5l-1.9,3.8l-11.5,22.6c0,0-4.9,9.6-4.9,9.6l0,0l-34.1-9.9l-1.7-0.5l-6.7-1.8
		c0,0-2.1-0.5-5.1-1.7c-0.1,0-0.2-0.1-0.3-0.1c-0.2-0.1-0.5-0.2-0.7-0.3c-0.7-0.3-1.3-0.6-2-1c0.1-5,1.6-9.8,3.7-14.5l0,0
		c2.8-6.1,6.8-11.9,10.3-17.2c3.1-4.6,7.5-9.5,11.4-14.6C320.4,391.8,334.8,400.6,349.2,409.3z"/>
	<path class="st70" d="M288.9,406.6c-0.5,0.8-0.9,1.5-1.4,2.3C287.9,408.1,288.3,407.4,288.9,406.6z"/>
	<path class="st26" d="M331.3,444.8c12.2,2.6,24.4,4.7,36.8,6.1c9.7,1.1,19.6,1.7,29.4,1.7c4.7,0,9.4-0.2,14-0.6
		c4.3-0.4,8.9-2,12.8,0.1c3.7,2,7.5,4.1,11.2,6.1c3,1.6,6.1,3.3,9.5,3.8c4,0.6,8.1-0.5,11.7-2.5c0-1.7-1.1-3.2-2.6-4
		c-1.4-0.9-3.1-1.2-4.8-1.4c-3.3-0.3-6.7,0-10.1-0.5c-3.6-0.6-7-2.1-10.5-3.5c-3.8-1.4-7.7-2.6-11.6-3.5c-9.9-2.3-20-3.3-30-4.8
		c-10.2-1.5-20.3-2.9-30.6-3.8c-7-0.7-14-1.3-21-1.8L331.3,444.8z"/>
	<path class="st70" d="M276.5,423.4c0.4,0.2,0.8,0.4,1.2,0.7C277.3,423.9,276.9,423.7,276.5,423.4z"/>
	<path class="st70" d="M335.5,436.3c-0.3,0.5-3.5,6.9-4.8,9.5l-34.1-9.9l-1.7-0.5l-6.7-1.8c0,0-2.1-0.5-5.1-1.7
		c-0.1,0-0.2-0.1-0.3-0.1c-0.2-0.1-0.5-0.2-0.7-0.3c-0.7-0.3-1.3-0.6-2-1c0.1-5,1.6-9.8,3.7-14.5l0,0c0.9-1.7,1.8-3.3,2.8-4.9
		c-5.7,12.1,12.3,20.1,22.3,22.4c6.5,1.5,13.4,1.8,19.9,2.3C329.4,435.8,335.1,436.9,335.5,436.3z"/>
	<path class="st11" d="M854.9,266c-8.3-3.1-16.1-18.3-16.1-18.3s-4.2,9.1-21,7.7c-7.6-0.6-9.1-4.9-8.4-9.3c1.1-0.7,2.2-1.4,3.4-2
		c2.3-1.1,4.7-1.9,7.2-2.5c10.2-2.7,19.2-3.4,27.1,4.3c4.4,4.4,6.5,11,7.4,17C854.7,264,854.8,265,854.9,266z"/>
</g>
</svg>
