<?xml version="1.0" encoding="utf-8"?>
<!-- Generator: Adobe Illustrator 23.0.2, SVG Export Plug-In . SVG Version: 6.00 Build 0)  -->
<svg version="1.1" id="_x34_4583e6e-3c87-4cd0-878b-9f64620e8dae"
	 xmlns="http://www.w3.org/2000/svg" xmlns:xlink="http://www.w3.org/1999/xlink" x="0px" y="0px" viewBox="0 0 303.5 602.4"
	 style="enable-background:new 0 0 303.5 602.4;" xml:space="preserve">
<style type="text/css">
	.st0{fill:#292929;}
	.st1{clip-path:url(#SVGID_2_);}
	.st2{clip-path:url(#SVGID_4_);fill:#3C139B;}
	.st3{clip-path:url(#SVGID_6_);fill:url(#SVGID_7_);}
	.st4{clip-path:url(#SVGID_9_);fill:url(#SVGID_10_);}
	.st5{clip-path:url(#SVGID_12_);fill:url(#SVGID_13_);}
	.st6{clip-path:url(#SVGID_15_);fill:url(#SVGID_16_);}
	.st7{clip-path:url(#SVGID_18_);fill:url(#SVGID_19_);}
	.st8{clip-path:url(#SVGID_21_);fill:url(#SVGID_22_);}
	.st9{clip-path:url(#SVGID_24_);fill:none;stroke:#FFFFFF;stroke-width:0.7916;stroke-miterlimit:10;}
	.st10{clip-path:url(#SVGID_26_);fill:none;stroke:url(#SVGID_27_);stroke-width:0.7916;stroke-miterlimit:10;}
	.st11{clip-path:url(#SVGID_29_);fill:none;stroke:url(#SVGID_30_);stroke-width:0.7916;stroke-miterlimit:10;}
	.st12{clip-path:url(#SVGID_32_);fill:none;stroke:url(#SVGID_33_);stroke-width:0.7916;stroke-miterlimit:10;}
	.st13{clip-path:url(#SVGID_35_);fill:url(#SVGID_36_);}
	.st14{clip-path:url(#SVGID_38_);fill:none;stroke:url(#SVGID_39_);stroke-width:0.7916;stroke-miterlimit:10;}
	.st15{clip-path:url(#SVGID_41_);fill:none;stroke:url(#SVGID_42_);stroke-width:0.7916;stroke-miterlimit:10;}
	.st16{clip-path:url(#SVGID_44_);fill:none;stroke:url(#SVGID_45_);stroke-width:0.7916;stroke-miterlimit:10;}
	.st17{clip-path:url(#SVGID_47_);fill:none;stroke:url(#SVGID_48_);stroke-width:0.7916;stroke-miterlimit:10;}
	.st18{clip-path:url(#SVGID_50_);fill:none;stroke:url(#SVGID_51_);stroke-width:0.7916;stroke-miterlimit:10;}
	.st19{clip-path:url(#SVGID_53_);fill:none;stroke:url(#SVGID_54_);stroke-width:0.7916;stroke-miterlimit:10;}
	.st20{clip-path:url(#SVGID_56_);fill:none;stroke:url(#SVGID_57_);stroke-width:0.7916;stroke-miterlimit:10;}
	.st21{clip-path:url(#SVGID_59_);fill:url(#SVGID_60_);}
	.st22{clip-path:url(#SVGID_62_);fill:url(#SVGID_63_);}
	.st23{clip-path:url(#SVGID_65_);fill:url(#SVGID_66_);}
	.st24{opacity:0.4;fill:none;stroke:#FFFFFF;stroke-width:0.7916;stroke-miterlimit:10;enable-background:new    ;}
</style>
<g>
	<title>order confirmed</title>
	<path class="st0" d="M248.2,602.4H54.8c-25.6,0-46.3-20.7-46.3-46.3V46.3C8.5,20.7,29.3,0,54.8,0h193.4c25.6,0,46.3,20.7,46.3,46.3
		V556C294.5,581.5,273.7,602.4,248.2,602.4z"/>
	<g>
		<g>
			<g>
				<g>
					<defs>
						<path id="SVGID_1_" d="M246.4,593.2H56.6c-21.5,0-39-17.5-39-39V46.7c0-21.5,17.5-39,39-39h189.9c21.5,0,39,17.5,39,39v507.4
							C285.4,575.6,267.9,593.2,246.4,593.2z"/>
					</defs>
					<clipPath id="SVGID_2_">
						<use xlink:href="#SVGID_1_"  style="overflow:visible;"/>
					</clipPath>
					<g class="st1">
						<g>
							<g>
								<g>
									<g>
										<defs>
											<rect id="SVGID_3_" x="-37.8" y="0.4" width="395.8" height="593.7"/>
										</defs>
										<clipPath id="SVGID_4_">
											<use xlink:href="#SVGID_3_"  style="overflow:visible;"/>
										</clipPath>
										<rect x="-37.8" y="0.4" class="st2" width="395.8" height="593.7"/>
									</g>
								</g>
							</g>
							<g>
								<g>
									<g>
										<defs>
											<rect id="SVGID_5_" x="-37.8" y="0.4" width="395.8" height="593.7"/>
										</defs>
										<clipPath id="SVGID_6_">
											<use xlink:href="#SVGID_5_"  style="overflow:visible;"/>
										</clipPath>
										
											<linearGradient id="SVGID_7_" gradientUnits="userSpaceOnUse" x1="-1033.0925" y1="-428.7204" x2="-1332.6097" y2="342.5064" gradientTransform="matrix(6.123234e-17 -1 -1 -6.123234e-17 -140.95 -542.95)">
											<stop  offset="3.222830e-03" style="stop-color:#E7388B"/>
											<stop  offset="4.861193e-02" style="stop-color:#C83299;stop-opacity:0.9543"/>
											<stop  offset="0.1059" style="stop-color:#A92CA7;stop-opacity:0.8966"/>
											<stop  offset="0.1708" style="stop-color:#8D27B3;stop-opacity:0.8313"/>
											<stop  offset="0.2442" style="stop-color:#7723BD;stop-opacity:0.7574"/>
											<stop  offset="0.3299" style="stop-color:#6620C5;stop-opacity:0.6712"/>
											<stop  offset="0.4358" style="stop-color:#5B1ECA;stop-opacity:0.5646"/>
											<stop  offset="0.5843" style="stop-color:#541CCD;stop-opacity:0.4151"/>
											<stop  offset="0.9968" style="stop-color:#521CCE;stop-opacity:0"/>
										</linearGradient>
										<path class="st3" d="M135.2,779.3c86.4-18.1,159.5-89.1,180-175c4.1-17,5.9-36.4-3.9-50.9c-8.3-12.2-23.1-18.2-37.6-20.7
											c-14.5-2.4-29.3-2-43.9-4.3c-39.1-6.3-73.7-34.9-87.5-71.9c-6.7-18.2-8.6-37.9-13.8-56.6c-5.2-18.7-14.7-37.7-31.6-47.2
											c-20.4-11.5-46.7-6.5-66.4,6.2C11,371.3-3.7,390.3-18.5,408.4c-14.8,18-30.9,36.1-52.1,45.9c-17.1,7.9-38.4,11-48.8,26.8
											c-10.3,15.5-5.2,36.2,0.8,53.8c10,29.6,21.4,58.7,34.3,87.2c11.7,25.9,27.6,53.9,55.1,61.1c14.1,3.7,30,1.3,42.4,9
											c12.2,7.4,17.3,22.2,24.5,34.5c15.9,26.9,45.9,44.8,77.1,45.7s62.4-14.9,79.9-40.7"/>
									</g>
								</g>
							</g>
							<g>
								<g>
									<g>
										<defs>
											<rect id="SVGID_8_" x="-37.8" y="0.4" width="395.8" height="593.7"/>
										</defs>
										<clipPath id="SVGID_9_">
											<use xlink:href="#SVGID_8_"  style="overflow:visible;"/>
										</clipPath>
										
											<linearGradient id="SVGID_10_" gradientUnits="userSpaceOnUse" x1="-879.6453" y1="-295.2398" x2="-549.812" y2="26.1054" gradientTransform="matrix(6.123234e-17 -1 -1 -6.123234e-17 -140.95 -542.95)">
											<stop  offset="3.222150e-03" style="stop-color:#C4B0EE"/>
											<stop  offset="4.736898e-02" style="stop-color:#AD92E8;stop-opacity:0.9556"/>
											<stop  offset="0.1047" style="stop-color:#9573E1;stop-opacity:0.8979"/>
											<stop  offset="0.1698" style="stop-color:#8057DB;stop-opacity:0.8324"/>
											<stop  offset="0.2433" style="stop-color:#6F41D6;stop-opacity:0.7585"/>
											<stop  offset="0.3291" style="stop-color:#6230D2;stop-opacity:0.6721"/>
											<stop  offset="0.4352" style="stop-color:#5925D0;stop-opacity:0.5654"/>
											<stop  offset="0.584" style="stop-color:#531ECE;stop-opacity:0.4157"/>
											<stop  offset="0.9972" style="stop-color:#521CCE;stop-opacity:0"/>
										</linearGradient>
										<path class="st4" d="M-20.3,270.7c8.5-22.5,30.8-41.7,54.6-38.4c23.1,3.2,39.3,25.5,61.6,32.2
											c28.7,8.6,59.6-11.8,73.3-38.4c13.6-26.6,14.2-57.9,14.4-87.8c0.2-30,0.5-61.1,13.9-87.9c6.3-12.6,15.2-23.8,21.9-36.1
											c10.1-18.9,14.6-41.8,7.5-62.2c-9.5-27-38-43.8-66.4-47.6c-28.4-3.9-57,2.6-85,9.1c-18,4.3-36.1,8.4-54.1,12.6
											C-10.2-66.4-42-59-71.5-45.7C-201.7,12.6-227,153.6-235.2,282.1c-6.1,95.4,16.9,211.8,139.9,182.6
											c37-8.7,64.8-33.3,70.9-71.8C-18,352.5-35.3,310.3-20.3,270.7z"/>
									</g>
								</g>
							</g>
							<g>
								<g>
									<g>
										<defs>
											<rect id="SVGID_11_" x="-37.8" y="0.4" width="395.8" height="593.7"/>
										</defs>
										<clipPath id="SVGID_12_">
											<use xlink:href="#SVGID_11_"  style="overflow:visible;"/>
										</clipPath>
										
											<linearGradient id="SVGID_13_" gradientUnits="userSpaceOnUse" x1="-798.1848" y1="-347.2184" x2="-417.4225" y2="838.7245" gradientTransform="matrix(6.123234e-17 -1 -1 -6.123234e-17 -140.95 -542.95)">
											<stop  offset="3.222690e-03" style="stop-color:#55F8E1"/>
											<stop  offset="2.421127e-02" style="stop-color:#55E2DF;stop-opacity:0.9789"/>
											<stop  offset="6.870525e-02" style="stop-color:#54B9DC;stop-opacity:0.9341"/>
											<stop  offset="0.1186" style="stop-color:#5493D8;stop-opacity:0.8839"/>
											<stop  offset="0.1729" style="stop-color:#5373D5;stop-opacity:0.8292"/>
											<stop  offset="0.233" style="stop-color:#5357D3;stop-opacity:0.7687"/>
											<stop  offset="0.3008" style="stop-color:#5341D1;stop-opacity:0.7005"/>
											<stop  offset="0.38" style="stop-color:#5230D0;stop-opacity:0.6208"/>
											<stop  offset="0.478" style="stop-color:#5225CF;stop-opacity:0.5221"/>
											<stop  offset="0.6154" style="stop-color:#521ECE;stop-opacity:0.3839"/>
											<stop  offset="0.9968" style="stop-color:#521CCE;stop-opacity:0"/>
										</linearGradient>
										<path class="st5" d="M12,243.3c-6.7-16.3-4.4-37.9,10.1-48c14.1-9.9,33.8-6,49.2-13.5c19.7-9.8,26.2-36.2,20.1-57.4
											c-6-21.2-21.3-38.2-36.3-54.4C40.2,53.8,24.8,36.9,18.5,15.8c-3-10-3.8-20.5-6.4-30.5C8.1-30-1-44.5-14.9-51.8
											c-18.7-9.8-42.3-4.5-59.6,7.7c-17.2,12.1-29.3,30-41.1,47.4c-7.5,11.3-15.2,22.5-22.7,33.8
											c-13.3,19.7-26.6,39.6-35.8,61.5c-40.6,96.8,16.4,185.1,76.3,258.2C-53.3,411.3,17.4,462.2,68.9,385
											c15.4-23.2,18.1-50.3,2.2-74C54.1,286,23.7,272,12,243.3z"/>
									</g>
								</g>
							</g>
							<g>
								<g>
									<g>
										<defs>
											<rect id="SVGID_14_" x="-37.8" y="0.4" width="395.8" height="593.7"/>
										</defs>
										<clipPath id="SVGID_15_">
											<use xlink:href="#SVGID_14_"  style="overflow:visible;"/>
										</clipPath>
										
											<linearGradient id="SVGID_16_" gradientUnits="userSpaceOnUse" x1="-777.1078" y1="-238.7778" x2="-1077.8386" y2="-806.2855" gradientTransform="matrix(6.123234e-17 -1 -1 -6.123234e-17 -140.95 -542.95)">
											<stop  offset="3.222150e-03" style="stop-color:#C4B0EE"/>
											<stop  offset="4.736898e-02" style="stop-color:#AD92E8;stop-opacity:0.9556"/>
											<stop  offset="0.1047" style="stop-color:#9573E1;stop-opacity:0.8979"/>
											<stop  offset="0.1698" style="stop-color:#8057DB;stop-opacity:0.8324"/>
											<stop  offset="0.2433" style="stop-color:#6F41D6;stop-opacity:0.7585"/>
											<stop  offset="0.3291" style="stop-color:#6230D2;stop-opacity:0.6721"/>
											<stop  offset="0.4352" style="stop-color:#5925D0;stop-opacity:0.5654"/>
											<stop  offset="0.584" style="stop-color:#531ECE;stop-opacity:0.4157"/>
											<stop  offset="0.9972" style="stop-color:#521CCE;stop-opacity:0"/>
										</linearGradient>
										<path class="st6" d="M519.5,245.7c-15.2-27-41.9-47.4-71.9-54.6c-30.1-7.4-63.1-1.5-89,15.5
											c-24.5,16.1-45.1,42.9-74.4,44.2c-17.8,0.8-34.4-8.3-52.1-10.8c-31.7-4.5-65.1,15.4-76.2,45.4c-11.2,30,1,66.9,27.9,84.3
											c15.2,9.9,35.4,15.2,42.9,31.8c5,11.2,2.3,24.4-2.3,35.9c-4.7,11.4-11.1,22.2-13.7,34.3c-6.1,28,11.1,57.1,35.2,72.7
											c24,15.6,53.6,20.1,82.3,21.5c39,2,78.3-0.9,116.6-8.5c35-7,72.4-20.5,89.5-51.8c14.3-25.9,10.9-57.6,7.1-86.9
											c-7.4-57.9-15-115.9-22.4-173.8c-4.3-4.3-8.7-8.6-13-13"/>
									</g>
								</g>
							</g>
							<g>
								<g>
									<g>
										<defs>
											<rect id="SVGID_17_" x="-37.8" y="0.4" width="395.8" height="593.7"/>
										</defs>
										<clipPath id="SVGID_18_">
											<use xlink:href="#SVGID_17_"  style="overflow:visible;"/>
										</clipPath>
										
											<linearGradient id="SVGID_19_" gradientUnits="userSpaceOnUse" x1="-406.5442" y1="-739.9509" x2="-754.1622" y2="-288.8561" gradientTransform="matrix(6.123234e-17 -1 -1 -6.123234e-17 -140.95 -542.95)">
											<stop  offset="3.222960e-03" style="stop-color:#521CCE;stop-opacity:0"/>
											<stop  offset="0.1952" style="stop-color:#551DCE;stop-opacity:0.1932"/>
											<stop  offset="0.3485" style="stop-color:#5F20CE;stop-opacity:0.3475"/>
											<stop  offset="0.4885" style="stop-color:#7026CE;stop-opacity:0.4884"/>
											<stop  offset="0.6206" style="stop-color:#882ECE;stop-opacity:0.6214"/>
											<stop  offset="0.7472" style="stop-color:#A638CE;stop-opacity:0.7488"/>
											<stop  offset="0.8695" style="stop-color:#CC45CD;stop-opacity:0.8719"/>
											<stop  offset="0.9864" style="stop-color:#F854CD;stop-opacity:0.9895"/>
											<stop  offset="0.9968" style="stop-color:#FC55CD"/>
										</linearGradient>
										<path class="st7" d="M446.5,323.9c-40.1,34.4-97.8,50.7-147.9,33.7c-50.1-16.9-87.5-70.7-78.3-122.7
											c4.8-27.4,21.2-54.8,12.2-81.1c-8.2-23.9-34.2-36.3-58.2-44.2s-50.5-15-65.8-35.1c-14.9-19.5-15.2-47.1-7.4-70.3
											s22.9-43.3,37.1-63.3s28.2-41.1,33.5-65c2.2-9.6,2.9-19.7,7.6-28.3c7-12.8,22-20,36.6-20.3c14.6-0.3,28.8,5.5,41.1,13.4
											c76.2,49.1,80.5,168.3,156.2,218.1c16.8,11,36.1,17.8,52.5,29.4C552,149,513.2,266.8,446.5,323.9z"/>
									</g>
								</g>
							</g>
							<g>
								<g>
									<g>
										<defs>
											<rect id="SVGID_20_" x="-37.8" y="0.4" width="395.8" height="593.7"/>
										</defs>
										<clipPath id="SVGID_21_">
											<use xlink:href="#SVGID_20_"  style="overflow:visible;"/>
										</clipPath>
										
											<linearGradient id="SVGID_22_" gradientUnits="userSpaceOnUse" x1="-572.2913" y1="-458.3349" x2="-636.5604" y2="-350.4114" gradientTransform="matrix(6.123234e-17 -1 -1 -6.123234e-17 -140.95 -542.95)">
											<stop  offset="0" style="stop-color:#521CCE;stop-opacity:0"/>
											<stop  offset="9.029302e-02" style="stop-color:#571CCB;stop-opacity:0.1311"/>
											<stop  offset="0.1965" style="stop-color:#651CC4;stop-opacity:0.2853"/>
											<stop  offset="0.3108" style="stop-color:#7D1CB8;stop-opacity:0.4512"/>
											<stop  offset="0.4307" style="stop-color:#9E1CA7;stop-opacity:0.6253"/>
											<stop  offset="0.5552" style="stop-color:#C91C92;stop-opacity:0.806"/>
											<stop  offset="0.6817" style="stop-color:#FC1C78;stop-opacity:0.9896"/>
											<stop  offset="0.6888" style="stop-color:#FF1C76"/>
											<stop  offset="0.9078" style="stop-color:#FF6CA7"/>
											<stop  offset="0.9834" style="stop-color:#FCEC1A"/>
										</linearGradient>
										<path class="st8" d="M267.5,31.9c13.5,2.9,26.8,8.7,35.7,19.3c8.9,10.6,12.2,26.4,5.7,38.5c-6.5,12.1-24,17.8-35.2,9.7
											c-11.6-8.4-12.4-26.7-24.2-34.8c-6-4.1-13.8-4.7-21.1-4.4c-7.3,0.3-14.7,1.3-21.8-0.4c-5.7-1.3-17-7-13.2-14.4
											c3-5.8,17.1-9.2,23-11C232.9,29.2,250.5,28.3,267.5,31.9z"/>
									</g>
								</g>
							</g>
							<g>
								<g>
									<g>
										<defs>
											<rect id="SVGID_23_" x="-37.8" y="0.4" width="395.8" height="593.7"/>
										</defs>
										<clipPath id="SVGID_24_">
											<use xlink:href="#SVGID_23_"  style="overflow:visible;"/>
										</clipPath>
										<path class="st9" d="M305.7,511.3c2.1,0,3.8,1.7,3.8,3.8c0,2.1-1.7,3.8-3.8,3.8s-3.8-1.7-3.8-3.8
											C301.9,512.9,303.6,511.3,305.7,511.3z"/>
									</g>
								</g>
							</g>
							<g>
								<g>
									<g>
										<defs>
											<rect id="SVGID_25_" x="-37.8" y="0.4" width="395.8" height="593.7"/>
										</defs>
										<clipPath id="SVGID_26_">
											<use xlink:href="#SVGID_25_"  style="overflow:visible;"/>
										</clipPath>
										
											<linearGradient id="SVGID_27_" gradientUnits="userSpaceOnUse" x1="-1081.4095" y1="-272.4928" x2="-859.3474" y2="-272.4928" gradientTransform="matrix(6.123234e-17 -1 -1 -6.123234e-17 -140.95 -542.95)">
											<stop  offset="3.221680e-03" style="stop-color:#E862FF;stop-opacity:0"/>
											<stop  offset="6.836068e-02" style="stop-color:#D66CFF;stop-opacity:0.111"/>
											<stop  offset="0.199" style="stop-color:#A785FF;stop-opacity:0.3335"/>
											<stop  offset="0.3831" style="stop-color:#5CAFFF;stop-opacity:0.6473"/>
											<stop  offset="0.5901" style="stop-color:#00E1FF"/>
											<stop  offset="1" style="stop-color:#E862FF;stop-opacity:0"/>
										</linearGradient>
										<path class="st10" d="M-71,370.4c25.4-18.6,51.4-37.4,81.3-47.3s64.9-9.3,90.5,9c25,17.9,36.6,48.9,45,78.5
											c8.4,29.6,15.7,60.9,35.7,84.2c17.8,20.8,44.1,32.8,70.9,38.3c26.8,5.6,54.4,5.1,81.9,4.7"/>
									</g>
								</g>
							</g>
							<g>
								<g>
									<g>
										<defs>
											<rect id="SVGID_28_" x="-37.8" y="0.4" width="395.8" height="593.7"/>
										</defs>
										<clipPath id="SVGID_29_">
											<use xlink:href="#SVGID_28_"  style="overflow:visible;"/>
										</clipPath>
										
											<linearGradient id="SVGID_30_" gradientUnits="userSpaceOnUse" x1="-1089.1234" y1="-272.8516" x2="-867.0613" y2="-272.8516" gradientTransform="matrix(6.123234e-17 -1 -1 -6.123234e-17 -140.95 -542.95)">
											<stop  offset="3.221680e-03" style="stop-color:#E862FF;stop-opacity:0"/>
											<stop  offset="6.836068e-02" style="stop-color:#D66CFF;stop-opacity:0.111"/>
											<stop  offset="0.199" style="stop-color:#A785FF;stop-opacity:0.3335"/>
											<stop  offset="0.3831" style="stop-color:#5CAFFF;stop-opacity:0.6473"/>
											<stop  offset="0.5901" style="stop-color:#00E1FF"/>
											<stop  offset="1" style="stop-color:#E862FF;stop-opacity:0"/>
										</linearGradient>
										<path class="st11" d="M-70.7,378.2c25.4-18.6,51.4-37.5,81.3-47.3c29.9-9.9,64.9-9.3,90.5,9c25,17.9,36.6,48.9,45,78.5
											s15.7,60.9,35.7,84.2c17.8,20.8,44.1,32.8,70.9,38.3c26.8,5.6,54.4,5.1,81.9,4.7"/>
									</g>
								</g>
							</g>
							<g>
								<g>
									<g>
										<defs>
											<rect id="SVGID_31_" x="-37.8" y="0.4" width="395.8" height="593.7"/>
										</defs>
										<clipPath id="SVGID_32_">
											<use xlink:href="#SVGID_31_"  style="overflow:visible;"/>
										</clipPath>
										
											<linearGradient id="SVGID_33_" gradientUnits="userSpaceOnUse" x1="-1095.4918" y1="-272.8965" x2="-873.4297" y2="-272.8965" gradientTransform="matrix(6.123234e-17 -1 -1 -6.123234e-17 -140.95 -542.95)">
											<stop  offset="3.221680e-03" style="stop-color:#E862FF;stop-opacity:0"/>
											<stop  offset="6.836068e-02" style="stop-color:#D66CFF;stop-opacity:0.111"/>
											<stop  offset="0.199" style="stop-color:#A785FF;stop-opacity:0.3335"/>
											<stop  offset="0.3831" style="stop-color:#5CAFFF;stop-opacity:0.6473"/>
											<stop  offset="0.5901" style="stop-color:#00E1FF"/>
											<stop  offset="1" style="stop-color:#E862FF;stop-opacity:0"/>
										</linearGradient>
										<path class="st12" d="M-70.7,384.5c25.4-18.6,51.4-37.4,81.3-47.3c29.9-9.9,64.9-9.3,90.5,9c25,17.9,36.6,48.9,45,78.5
											c8.4,29.6,15.7,60.9,35.7,84.2c17.8,20.7,44.2,32.7,71,38.3c26.8,5.6,54.4,5.1,81.9,4.7"/>
									</g>
								</g>
							</g>
							<g>
								<g>
									<g>
										<defs>
											<rect id="SVGID_34_" x="-37.8" y="0.4" width="395.8" height="593.7"/>
										</defs>
										<clipPath id="SVGID_35_">
											<use xlink:href="#SVGID_34_"  style="overflow:visible;"/>
										</clipPath>
										
											<linearGradient id="SVGID_36_" gradientUnits="userSpaceOnUse" x1="-1113.6355" y1="-635.1074" x2="-836.9056" y2="-318.4465" gradientTransform="matrix(6.123234e-17 -1 -1 -6.123234e-17 -140.95 -542.95)">
											<stop  offset="0" style="stop-color:#521CCE;stop-opacity:0"/>
											<stop  offset="9.029302e-02" style="stop-color:#571CCB;stop-opacity:0.1311"/>
											<stop  offset="0.1965" style="stop-color:#651CC4;stop-opacity:0.2853"/>
											<stop  offset="0.3108" style="stop-color:#7D1CB8;stop-opacity:0.4512"/>
											<stop  offset="0.4307" style="stop-color:#9E1CA7;stop-opacity:0.6253"/>
											<stop  offset="0.5552" style="stop-color:#C91C92;stop-opacity:0.806"/>
											<stop  offset="0.6817" style="stop-color:#FC1C78;stop-opacity:0.9896"/>
											<stop  offset="0.6888" style="stop-color:#FF1C76"/>
											<stop  offset="0.8177" style="stop-color:#FF6CA7"/>
											<stop  offset="0.9834" style="stop-color:#FCEC1A"/>
										</linearGradient>
										<path class="st13" d="M269.5,655.5c-40.3-6.9-76.9-32.6-97.1-68.1c-7-12.3-12.2-25.9-12.7-40
											c-0.5-14.2,3.9-28.8,13.9-38.8c19.3-19.3,52.9-16.7,73-35.2c16.4-15.2,18.9-41.3,11-62.2c-7.9-20.9-24.2-37.5-41.3-51.7
											c-8.9-7.4-18.2-14.4-24.5-24c-6.3-9.6-9.1-22.5-3.6-32.6c6.5-11.8,22-15.9,35.3-14.1c13.4,1.9,25.7,8.2,38.6,12.2
											c12.9,4,27.8,5.5,39.2-1.9c12.6-8.2,17-24.8,16.1-39.9c-0.8-15.1-5.7-29.6-6.8-44.6c-1.3-15.8,1.8-32.5,11.3-45
											c9.6-12.6,26.5-20.2,41.8-16.1c12.6,3.3,22.3,13.8,27.4,25.8c5,12,5.8,25.3,5.2,38.3c-1.2,23.1-6.6,45.7-8.8,68.8
											c-5.5,57.2,9.5,114.2,17.4,171.2c6.9,49.8,7.7,103.2-14.5,149.4C369.7,649.8,313.8,663.1,269.5,655.5z"/>
									</g>
								</g>
							</g>
							<g>
								<g>
									<g>
										<defs>
											<rect id="SVGID_37_" x="-37.8" y="0.4" width="395.8" height="593.7"/>
										</defs>
										<clipPath id="SVGID_38_">
											<use xlink:href="#SVGID_37_"  style="overflow:visible;"/>
										</clipPath>
										
											<linearGradient id="SVGID_39_" gradientUnits="userSpaceOnUse" x1="-1104.91" y1="-274.1074" x2="-882.8478" y2="-274.1074" gradientTransform="matrix(6.123234e-17 -1 -1 -6.123234e-17 -140.95 -542.95)">
											<stop  offset="3.221680e-03" style="stop-color:#E862FF;stop-opacity:0"/>
											<stop  offset="6.836068e-02" style="stop-color:#D66CFF;stop-opacity:0.111"/>
											<stop  offset="0.199" style="stop-color:#A785FF;stop-opacity:0.3335"/>
											<stop  offset="0.3831" style="stop-color:#5CAFFF;stop-opacity:0.6473"/>
											<stop  offset="0.5901" style="stop-color:#00E1FF"/>
											<stop  offset="1" style="stop-color:#E862FF;stop-opacity:0"/>
										</linearGradient>
										<path class="st14" d="M-69.4,393.9c25.4-18.6,51.4-37.4,81.3-47.3s64.9-9.3,90.5,9c25,17.9,36.6,48.9,45,78.5
											c8.4,29.6,15.7,60.9,35.7,84.2c17.8,20.8,44.1,32.8,70.9,38.3c26.8,5.6,54.4,5.1,81.9,4.7"/>
									</g>
								</g>
							</g>
							<g>
								<g>
									<g>
										<defs>
											<rect id="SVGID_40_" x="-37.8" y="0.4" width="395.8" height="593.7"/>
										</defs>
										<clipPath id="SVGID_41_">
											<use xlink:href="#SVGID_40_"  style="overflow:visible;"/>
										</clipPath>
										
											<linearGradient id="SVGID_42_" gradientUnits="userSpaceOnUse" x1="-888.9304" y1="-309.7042" x2="-506.7039" y2="-309.7042" gradientTransform="matrix(6.123234e-17 -1 -1 -6.123234e-17 -140.95 -542.95)">
											<stop  offset="3.221680e-03" style="stop-color:#E862FF;stop-opacity:0"/>
											<stop  offset="0.1135" style="stop-color:#E663FF;stop-opacity:0.2858"/>
											<stop  offset="0.1679" style="stop-color:#DE67FF;stop-opacity:0.427"/>
											<stop  offset="0.2102" style="stop-color:#D16FFF;stop-opacity:0.5365"/>
											<stop  offset="0.2461" style="stop-color:#BE79FF;stop-opacity:0.6297"/>
											<stop  offset="0.2781" style="stop-color:#A686FF;stop-opacity:0.7126"/>
											<stop  offset="0.3072" style="stop-color:#8896FF;stop-opacity:0.7881"/>
											<stop  offset="0.3342" style="stop-color:#65AAFF;stop-opacity:0.8581"/>
											<stop  offset="0.3595" style="stop-color:#3BC1FF;stop-opacity:0.9236"/>
											<stop  offset="0.3826" style="stop-color:#0ED9FF;stop-opacity:0.9835"/>
											<stop  offset="0.389" style="stop-color:#00E1FF"/>
											<stop  offset="0.4542" style="stop-color:#32C5FF;stop-opacity:0.8932"/>
											<stop  offset="0.5257" style="stop-color:#62ABFF;stop-opacity:0.7762"/>
											<stop  offset="0.5995" style="stop-color:#8B95FF;stop-opacity:0.6554"/>
											<stop  offset="0.6744" style="stop-color:#AD82FF;stop-opacity:0.5329"/>
											<stop  offset="0.7507" style="stop-color:#C774FF;stop-opacity:0.408"/>
											<stop  offset="0.8289" style="stop-color:#D96AFF;stop-opacity:0.28"/>
											<stop  offset="0.9103" style="stop-color:#E464FF;stop-opacity:0.1468"/>
											<stop  offset="1" style="stop-color:#E862FF;stop-opacity:0"/>
										</linearGradient>
										<path class="st15" d="M78.3-36.1C64-9.5,62,23.4,73.1,51.4s35.1,50.7,63.7,60.2c13.2,4.4,27.4,6.2,39.4,13.3
											c16.5,9.8,26.2,28.3,29.8,47.1c3.7,18.8,2.2,38.2,1.2,57.3c-1,19.1-1.5,38.7,4.1,57c8.6,28.2,32.2,51.2,60.5,59.3"/>
									</g>
								</g>
							</g>
							<g>
								<g>
									<g>
										<defs>
											<rect id="SVGID_43_" x="-37.8" y="0.4" width="395.8" height="593.7"/>
										</defs>
										<clipPath id="SVGID_44_">
											<use xlink:href="#SVGID_43_"  style="overflow:visible;"/>
										</clipPath>
										
											<linearGradient id="SVGID_45_" gradientUnits="userSpaceOnUse" x1="-888.5679" y1="-312.8568" x2="-499.606" y2="-312.8568" gradientTransform="matrix(6.123234e-17 -1 -1 -6.123234e-17 -140.95 -542.95)">
											<stop  offset="3.221680e-03" style="stop-color:#E862FF;stop-opacity:0"/>
											<stop  offset="0.1135" style="stop-color:#E663FF;stop-opacity:0.2858"/>
											<stop  offset="0.1679" style="stop-color:#DE67FF;stop-opacity:0.427"/>
											<stop  offset="0.2102" style="stop-color:#D16FFF;stop-opacity:0.5365"/>
											<stop  offset="0.2461" style="stop-color:#BE79FF;stop-opacity:0.6297"/>
											<stop  offset="0.2781" style="stop-color:#A686FF;stop-opacity:0.7126"/>
											<stop  offset="0.3072" style="stop-color:#8896FF;stop-opacity:0.7881"/>
											<stop  offset="0.3342" style="stop-color:#65AAFF;stop-opacity:0.8581"/>
											<stop  offset="0.3595" style="stop-color:#3BC1FF;stop-opacity:0.9236"/>
											<stop  offset="0.3826" style="stop-color:#0ED9FF;stop-opacity:0.9835"/>
											<stop  offset="0.389" style="stop-color:#00E1FF"/>
											<stop  offset="0.4542" style="stop-color:#32C5FF;stop-opacity:0.8932"/>
											<stop  offset="0.5257" style="stop-color:#62ABFF;stop-opacity:0.7762"/>
											<stop  offset="0.5995" style="stop-color:#8B95FF;stop-opacity:0.6554"/>
											<stop  offset="0.6744" style="stop-color:#AD82FF;stop-opacity:0.5329"/>
											<stop  offset="0.7507" style="stop-color:#C774FF;stop-opacity:0.408"/>
											<stop  offset="0.8289" style="stop-color:#D96AFF;stop-opacity:0.28"/>
											<stop  offset="0.9103" style="stop-color:#E464FF;stop-opacity:0.1468"/>
											<stop  offset="1" style="stop-color:#E862FF;stop-opacity:0"/>
										</linearGradient>
										<path class="st16" d="M89.2-43.1c-15.2,26-18.4,58.8-8.3,87.3s33.3,51.9,61.5,62.4c13,4.8,27.2,7.2,38.8,14.7
											c16.1,10.3,25.1,29.2,28.2,48.2c3,18.9,0.8,38.2-0.9,57.3s-2.9,38.7,2.1,57.1c7.6,28.4,30.3,52.4,58.4,61.4"/>
									</g>
								</g>
							</g>
							<g>
								<g>
									<g>
										<defs>
											<rect id="SVGID_46_" x="-37.8" y="0.4" width="395.8" height="593.7"/>
										</defs>
										<clipPath id="SVGID_47_">
											<use xlink:href="#SVGID_46_"  style="overflow:visible;"/>
										</clipPath>
										
											<linearGradient id="SVGID_48_" gradientUnits="userSpaceOnUse" x1="-892.4177" y1="-314.9489" x2="-494.5655" y2="-314.9489" gradientTransform="matrix(6.123234e-17 -1 -1 -6.123234e-17 -140.95 -542.95)">
											<stop  offset="3.221680e-03" style="stop-color:#E862FF;stop-opacity:0"/>
											<stop  offset="0.1135" style="stop-color:#E663FF;stop-opacity:0.2858"/>
											<stop  offset="0.1679" style="stop-color:#DE67FF;stop-opacity:0.427"/>
											<stop  offset="0.2102" style="stop-color:#D16FFF;stop-opacity:0.5365"/>
											<stop  offset="0.2461" style="stop-color:#BE79FF;stop-opacity:0.6297"/>
											<stop  offset="0.2781" style="stop-color:#A686FF;stop-opacity:0.7126"/>
											<stop  offset="0.3072" style="stop-color:#8896FF;stop-opacity:0.7881"/>
											<stop  offset="0.3342" style="stop-color:#65AAFF;stop-opacity:0.8581"/>
											<stop  offset="0.3595" style="stop-color:#3BC1FF;stop-opacity:0.9236"/>
											<stop  offset="0.3826" style="stop-color:#0ED9FF;stop-opacity:0.9835"/>
											<stop  offset="0.389" style="stop-color:#00E1FF"/>
											<stop  offset="0.4542" style="stop-color:#32C5FF;stop-opacity:0.8932"/>
											<stop  offset="0.5257" style="stop-color:#62ABFF;stop-opacity:0.7762"/>
											<stop  offset="0.5995" style="stop-color:#8B95FF;stop-opacity:0.6554"/>
											<stop  offset="0.6744" style="stop-color:#AD82FF;stop-opacity:0.5329"/>
											<stop  offset="0.7507" style="stop-color:#C774FF;stop-opacity:0.408"/>
											<stop  offset="0.8289" style="stop-color:#D96AFF;stop-opacity:0.28"/>
											<stop  offset="0.9103" style="stop-color:#E464FF;stop-opacity:0.1468"/>
											<stop  offset="1" style="stop-color:#E862FF;stop-opacity:0"/>
										</linearGradient>
										<path class="st17" d="M103.2-48.2C86.6-23,81.7,9.6,90.3,38.6c8.6,28.9,30.5,53.5,58.1,65.6c12.7,5.6,26.7,8.6,38,16.7
											c15.5,11.2,23.6,30.5,25.6,49.6c2,19-1.3,38.2-3.9,57.1s-4.9,38.4-1,57.1c6.1,28.8,27.5,53.9,55.1,64.4"/>
									</g>
								</g>
							</g>
							<g>
								<g>
									<g>
										<defs>
											<rect id="SVGID_49_" x="-37.8" y="0.4" width="395.8" height="593.7"/>
										</defs>
										<clipPath id="SVGID_50_">
											<use xlink:href="#SVGID_49_"  style="overflow:visible;"/>
										</clipPath>
										
											<linearGradient id="SVGID_51_" gradientUnits="userSpaceOnUse" x1="-1188.3698" y1="-135.6234" x2="-651.7951" y2="-135.6234" gradientTransform="matrix(6.123234e-17 -1 -1 -6.123234e-17 -140.95 -542.95)">
											<stop  offset="3.221680e-03" style="stop-color:#E862FF;stop-opacity:0"/>
											<stop  offset="6.836068e-02" style="stop-color:#D66CFF;stop-opacity:0.111"/>
											<stop  offset="0.199" style="stop-color:#A785FF;stop-opacity:0.3335"/>
											<stop  offset="0.3831" style="stop-color:#5CAFFF;stop-opacity:0.6473"/>
											<stop  offset="0.5901" style="stop-color:#00E1FF"/>
											<stop  offset="1" style="stop-color:#E862FF;stop-opacity:0"/>
										</linearGradient>
										<path class="st18" d="M47.4,645.1c23.6-16.5,39.2-43.9,41.3-72.6c2.1-28.7-9.3-58.1-30.3-77.9
											c-11.5-10.8-26.2-19.7-31.2-34.6c-4.2-12.6-0.3-26.6,5.3-38.7c5.6-12.1,12.7-23.8,15.2-37c5.2-27.5-11.3-54.4-30-75.3
											c-18.7-20.9-40.7-40-50.9-66.1c-6.6-17-7.6-35.8-9.1-54c-1.5-18.3-3.9-37-13-53s-26.5-28.4-44.7-26.6"/>
									</g>
								</g>
							</g>
							<g>
								<g>
									<g>
										<defs>
											<rect id="SVGID_52_" x="-37.8" y="0.4" width="395.8" height="593.7"/>
										</defs>
										<clipPath id="SVGID_53_">
											<use xlink:href="#SVGID_52_"  style="overflow:visible;"/>
										</clipPath>
										
											<linearGradient id="SVGID_54_" gradientUnits="userSpaceOnUse" x1="-1050.332" y1="-271.7423" x2="-513.6365" y2="-271.7423" gradientTransform="matrix(0.1445 -0.9895 -0.9895 -0.1445 -161.2444 -437.9928)">
											<stop  offset="3.221680e-03" style="stop-color:#E862FF;stop-opacity:0"/>
											<stop  offset="6.836068e-02" style="stop-color:#D66CFF;stop-opacity:0.111"/>
											<stop  offset="0.199" style="stop-color:#A785FF;stop-opacity:0.3335"/>
											<stop  offset="0.3831" style="stop-color:#5CAFFF;stop-opacity:0.6473"/>
											<stop  offset="0.5901" style="stop-color:#00E1FF"/>
											<stop  offset="1" style="stop-color:#E862FF;stop-opacity:0"/>
										</linearGradient>
										<path class="st19" d="M8.1,647.9C33.8,635,53.3,610.1,59.5,582c6.2-28.1-0.9-58.8-18.7-81.4
											c-9.8-12.4-23.1-23.2-25.8-38.8c-2.3-13.2,3.6-26.4,10.9-37.6s16.1-21.7,20.4-34.4c9.1-26.5-3.3-55.4-18.7-78.8
											s-34.5-45.5-40.9-72.7c-4.1-17.8-2.3-36.5-1.3-54.8c1.2-18.3,1.5-37.2-5.2-54.3c-6.6-17-22.1-32-40.4-32.7"/>
									</g>
								</g>
							</g>
							<g>
								<g>
									<g>
										<defs>
											<rect id="SVGID_55_" x="-37.8" y="0.4" width="395.8" height="593.7"/>
										</defs>
										<clipPath id="SVGID_56_">
											<use xlink:href="#SVGID_55_"  style="overflow:visible;"/>
										</clipPath>
										
											<linearGradient id="SVGID_57_" gradientUnits="userSpaceOnUse" x1="-1120.3187" y1="-209.7492" x2="-583.7811" y2="-209.7492" gradientTransform="matrix(7.650000e-02 -0.9971 -0.9971 -7.650000e-02 -149.6718 -489.0354)">
											<stop  offset="3.221680e-03" style="stop-color:#E862FF;stop-opacity:0"/>
											<stop  offset="6.836068e-02" style="stop-color:#D66CFF;stop-opacity:0.111"/>
											<stop  offset="0.199" style="stop-color:#A785FF;stop-opacity:0.3335"/>
											<stop  offset="0.3831" style="stop-color:#5CAFFF;stop-opacity:0.6473"/>
											<stop  offset="0.5901" style="stop-color:#00E1FF"/>
											<stop  offset="1" style="stop-color:#E862FF;stop-opacity:0"/>
										</linearGradient>
										<path class="st20" d="M26.3,647.8c24.8-14.7,42.5-40.7,46.8-69.2c4.3-28.4-4.8-58.7-24.3-79.9
											C38.2,487,24.2,477,20.4,461.8c-3.2-12.9,1.8-26.6,8.3-38.2c6.5-11.7,14.5-22.8,18-35.7c7.3-27-7.1-55.1-24.1-77.3
											c-17-22.2-37.6-43.1-45.7-69.8c-5.4-17.6-4.8-36.2-5-54.5c-0.1-18.3-1.1-37.2-8.9-53.8s-24.1-30.4-42.5-30"/>
									</g>
								</g>
							</g>
							<g>
								<g>
									<g>
										<defs>
											<rect id="SVGID_58_" x="-37.8" y="0.4" width="395.8" height="593.7"/>
										</defs>
										<clipPath id="SVGID_59_">
											<use xlink:href="#SVGID_58_"  style="overflow:visible;"/>
										</clipPath>
										
											<linearGradient id="SVGID_60_" gradientUnits="userSpaceOnUse" x1="-816.3438" y1="-307.3136" x2="-433.1555" y2="114.6787" gradientTransform="matrix(6.123234e-17 -1 -1 -6.123234e-17 -140.95 -542.95)">
											<stop  offset="3.222150e-03" style="stop-color:#C4B0EE"/>
											<stop  offset="4.735005e-02" style="stop-color:#AD92E8"/>
											<stop  offset="0.1047" style="stop-color:#9573E1"/>
											<stop  offset="0.1697" style="stop-color:#8057DB"/>
											<stop  offset="0.2432" style="stop-color:#6F41D6"/>
											<stop  offset="0.329" style="stop-color:#6230D2"/>
											<stop  offset="0.435" style="stop-color:#5925D0"/>
											<stop  offset="0.5838" style="stop-color:#531ECE"/>
											<stop  offset="0.9968" style="stop-color:#521CCE"/>
										</linearGradient>
										<path class="st21" d="M-127.2,237.5c-2,22.6,11.3,46.6,32.6,54.2c22.8,8.1,49.2-3.7,63.5-23.1s18.6-44.6,18.1-68.7
											c-0.4-24.1-5.2-48-6.8-72c-1.3-20.1-0.2-41.3,9.8-58.8C0,51.6,20.8,38.9,40.4,44c14.3,3.6,25,15.6,38.9,20.5
											c20.1,7.3,44.4-2.6,55.3-21c10.9-18.4,8.7-43.1-3.9-60.5c-12.3-17-32.8-26.7-53.5-30.3c-20.7-3.6-42-1.8-62.9,0
											c-29.2,2.5-61.6,6.6-80.7,29c-13.2,15.4-17,36.5-19.8,56.6c-11.5,83.7-11.4,169,0.2,252.6"/>
									</g>
								</g>
							</g>
							<g>
								<g>
									<g>
										<defs>
											<rect id="SVGID_61_" x="-37.8" y="0.4" width="395.8" height="593.7"/>
										</defs>
										<clipPath id="SVGID_62_">
											<use xlink:href="#SVGID_61_"  style="overflow:visible;"/>
										</clipPath>
										
											<linearGradient id="SVGID_63_" gradientUnits="userSpaceOnUse" x1="-1217.2" y1="183.4739" x2="-899.512" y2="-209.3916" gradientTransform="matrix(-7.230000e-02 -0.9974 -0.9974 7.230000e-02 -139.4362 -597.4379)">
											<stop  offset="3.222420e-03" style="stop-color:#521CCE"/>
											<stop  offset="0.1952" style="stop-color:#551DCE"/>
											<stop  offset="0.3485" style="stop-color:#5F20CE"/>
											<stop  offset="0.4885" style="stop-color:#7026CE"/>
											<stop  offset="0.6206" style="stop-color:#882ECE"/>
											<stop  offset="0.7472" style="stop-color:#A638CE"/>
											<stop  offset="0.8695" style="stop-color:#CC45CD"/>
											<stop  offset="0.9864" style="stop-color:#F854CD"/>
											<stop  offset="0.9968" style="stop-color:#FC55CD"/>
										</linearGradient>
										<path class="st22" d="M-50.1,661.8c34.9,6.4,73.4,3,101.9-18c28.5-21.1,42.9-63.1,25.4-94c-15.4-27.1-50.4-40.5-61.4-69.6
											c-9.5-25.4,2.5-53.1,12.6-78.2s18-55.7,2.2-77.7C22.3,312.8,9,306.1-2.6,297.9c-35.9-25.4-57.1-70.1-54.1-114
											c-21.3,12.4-36,34.2-44.1,57.4s-10.6,48.1-12.2,72.7c-7.1,108.2-0.4,217.3,19.6,323.9c3,15.5,6.9,32.3,19.4,42
											c11.8,9.3,29.2,9.5,43.4,4.2c14.4-5.2,26.4-15.2,38.2-24.8"/>
									</g>
								</g>
							</g>
							<g>
								<g>
									<g>
										<defs>
											<rect id="SVGID_64_" x="-37.8" y="0.4" width="395.8" height="593.7"/>
										</defs>
										<clipPath id="SVGID_65_">
											<use xlink:href="#SVGID_64_"  style="overflow:visible;"/>
										</clipPath>
										
											<linearGradient id="SVGID_66_" gradientUnits="userSpaceOnUse" x1="-1078.3369" y1="-455.2082" x2="-863.6962" y2="-304.2318" gradientTransform="matrix(0.1752 -0.9845 -0.9845 -0.1752 -125.9014 -430.0978)">
											<stop  offset="0" style="stop-color:#521CCE;stop-opacity:0"/>
											<stop  offset="9.029302e-02" style="stop-color:#571CCB;stop-opacity:0.1311"/>
											<stop  offset="0.1965" style="stop-color:#651CC4;stop-opacity:0.2853"/>
											<stop  offset="0.3108" style="stop-color:#7D1CB8;stop-opacity:0.4512"/>
											<stop  offset="0.4307" style="stop-color:#9E1CA7;stop-opacity:0.6253"/>
											<stop  offset="0.5552" style="stop-color:#C91C92;stop-opacity:0.806"/>
											<stop  offset="0.6817" style="stop-color:#FC1C78;stop-opacity:0.9896"/>
											<stop  offset="0.6888" style="stop-color:#FF1C76"/>
											<stop  offset="0.9078" style="stop-color:#FF6CA7"/>
											<stop  offset="0.9834" style="stop-color:#FCEC1A"/>
										</linearGradient>
										<path class="st23" d="M99.9,630.1c14.1,0.1,27.9-7.3,35.9-18.8c6-8.9,8.3-21.4,1.9-30c-5.4-7.1-15.1-9.4-23.9-9.1
											s-17.6,2.9-26.5,3.2s-18.7-2-23.9-9.1c-8.7-11.7-1.6-29.8-9.9-41.7c-3.6-5.2-9.8-8.4-16.1-9c-6.4-0.5-12.7,1.4-18.1,4.8
											c-13.2,8.3-19.9,24.8-18.4,40.1c1.4,15.4,10.2,29.5,22,39.6s26.2,16.4,41.1,20.7c14.5,4.2,29.7,6.6,44.7,5"/>
									</g>
								</g>
							</g>
						</g>
						<path class="st24" d="M-15.5,443.4c2.1,0,3.8,1.7,3.8,3.8c0,2.1-1.7,3.8-3.8,3.8s-3.8-1.7-3.8-3.8
							C-19.3,445.1-17.6,443.4-15.5,443.4z"/>
					</g>
				</g>
			</g>
		</g>
	</g>
	<path class="st0" d="M81.7,1.9l1.2,11.6c0.8,7.6,8.1,13.4,16.7,13.4h104c8.7,0,15.9-5.8,16.7-13.4l1.2-11.6
		C221.3,1.9,81.7,1.9,81.7,1.9z"/>
</g>
</svg>
