<?xml version="1.0" encoding="utf-8"?>
<!-- Generator: Adobe Illustrator 23.0.2, SVG Export Plug-In . SVG Version: 6.00 Build 0)  -->
<svg version="1.1" id="e9df7128-f90d-48f2-af2a-c80f8452c1a7"
	 xmlns="http://www.w3.org/2000/svg" xmlns:xlink="http://www.w3.org/1999/xlink" x="0px" y="0px" viewBox="0 0 882.5 686.5"
	 style="enable-background:new 0 0 882.5 686.5;" xml:space="preserve">
<style type="text/css">
	.st0{fill:#75ACFC;}
	.st1{fill:#0129BE;}
	.st2{fill:#FFFFFF;}
	.st3{fill:#042CAA;}
	.st4{fill:#459DF4;}
	.st5{fill:#DFEFFE;}
	.st6{fill:#95C8FD;}
	.st7{fill:#F7C121;}
	.st8{fill:#FFA401;}
	.st9{fill:#FCD45B;}
	.st10{fill:#FEA996;}
	.st11{fill:#F98F7D;}
	.st12{fill:#E41601;}
	.st13{fill:#B40500;}
	.st14{fill:#FFC9C0;}
	.st15{fill:#16A550;}
	.st16{fill:#20B75D;}
	.st17{fill:#F27203;}
	.st18{fill:#FF3127;}
	.st19{fill:#C7DFF9;}
	.st20{fill:#E9F1FB;}
	.st21{fill:#0E59A5;}
	.st22{fill:#0054DB;}
	.st23{fill:#010F28;}
	.st24{fill:url(#SVGID_1_);}
	.st25{fill:#138E44;}
	.st26{fill:#0F1E55;}
	.st27{fill:#FF7101;}
	.st28{fill:#21D36D;}
</style>
<title>tabs</title>
<g>
	<path class="st0" d="M733.7,122.1v440.4c0,7.1-6.2,12.8-13.6,12.8H71.9c-7.4,0-13.4-5.7-13.4-12.8V122.1H733.7z"/>
	<path class="st1" d="M733.7,90.1v32H232.6l28.1-41.4h459.6C727.5,80.6,733.7,84.9,733.7,90.1z"/>
	<path class="st1" d="M262.9,80.6L237.2,122H58.5V90c0-5.2,5.5-9.4,12.3-9.4H262.9z"/>
	<g>
		<circle class="st2" cx="111.9" cy="101.3" r="8.1"/>
		<circle class="st2" cx="154.1" cy="101.3" r="8.1"/>
		<circle class="st2" cx="199.3" cy="101.3" r="8.1"/>
	</g>
</g>
<path class="st3" d="M733.7,90.1v32H563c-23.6-7.6-27.2-16-41.8-9.7c-4.6,2-5.6,5.4-4.8,9.7h-33.4c-5.1-13.3-8.4-27.8-8.3-41.4
	h245.4C727.5,80.6,733.7,84.9,733.7,90.1z"/>
<path class="st4" d="M525.8,170.5c0,0,0.3,7.9-19.7-11.1c-8.5-8.1-17.1-21.8-23.1-37.4h33.5C518.7,134.2,535.2,153.8,525.8,170.5z"
	/>
<path class="st4" d="M733.7,122.1v29.4c-13-11.5-25.9-26-35.4-22.2c-19.5,7.9-20.9,50.8-41.2,59s-21.7-10.7-15.9-37.8
	s-21.6-16.1-61.1-24.1c-6.6-1.3-12.2-2.8-16.9-4.4h170.5V122.1z"/>
<path class="st4" d="M733.7,240.3v322.2c0,7.1-6.2,12.8-13.6,12.8H414.7c-44.6-9.8-76-17.3-76-17.3c5.6-28.3,125-32.7,174.2-22.8
	s67.5,14.7,75.9,8c8.5-6.7,31.5-48.1,53.9-49.1c22.3-1-8.8-71.3-47.4-63.8c-38.6,7.4-54.4-36.1-61.2-40.8
	c-6.8-4.8-126.7-50.4-126.7-50.4s24.4-53.8,87.1-54.4c62.8-0.6,166.7,41.1,179.6,19.6s-1.4-64.3,1.7-74.9
	c3-10.6,28.2-12.8,33.3-10.7s3.4,18.9,19.8,21.2C730.5,240.1,732,240.3,733.7,240.3z"/>
<ellipse class="st5" cx="640" cy="638" rx="183.9" ry="41.8"/>
<g>
	<path class="st4" d="M214.9,191.7c0,5.2-0.8,10.3-2.3,15c-6.4,20.1-25.1,34.6-47.3,34.6c-19.2,0-35.9-11-44.2-27
		c-3.5-6.8-5.5-14.5-5.5-22.7c0-27.4,22.2-49.6,49.6-49.6C192.8,142,214.9,164.3,214.9,191.7z"/>
	<path class="st6" d="M211.8,189.4c0,5.2-0.8,10.3-2.3,15c-6.4,20.1-25.1,34.6-47.3,34.6c-19.2,0-35.9-11-44.2-27
		c-3.5-6.8-5.5-14.5-5.5-22.6c0-27.4,22.2-49.6,49.6-49.6C189.6,139.7,211.8,162,211.8,189.4z"/>
	<path class="st2" d="M209.4,204.4c-6.4,20.1-25.1,34.6-47.3,34.6c-19.2,0-35.9-11-44.2-27l14.6-16.4l26,16.5l29.9-42.9L209.4,204.4
		z"/>
	<circle class="st2" cx="154.4" cy="184" r="7.7"/>
</g>
<g>
	<g>
		<path class="st7" d="M671.5,80.4c-0.6,0.1-1.1,0.2-1.7,0.3c-20,4.1-31.4,24.9-31.4,24.9c-0.8-0.8-2.3-1.5-4.4-2.3
			c-8.8-3.1-27.5-6.2-42.2-12.2c-2.3-0.9-4.5-1.9-6.5-3c-2.9-1.5-5.5-3.3-7.7-5.2c0,0-5.8-31.5,26-32.8s79.7,25,79.7,25
			S692.5,77.1,671.5,80.4z"/>
		<path class="st8" d="M671.5,80.4c-0.6,0.1-1.1,0.2-1.7,0.3c-2-1.9-3.5-3-4.2-2.8c-2.5,0.5-30.3,4.8-37.3-2.1
			c-7.1-6.9-21.8-14.5-24.6-9.7c-2.3,4-8.1,20.2-18.4,22.1c-2.9-1.5-5.5-3.3-7.7-5.2c0,0-5.8-31.5,26-32.8c31.8-1.3,79.7,25,79.7,25
			S692.5,77.1,671.5,80.4z"/>
		<path class="st9" d="M634,103.3c-8.8-3.1-27.5-6.2-42.2-12.2c11.1-1.1,26-3,35.6,3.6C632.5,98.2,634,101.1,634,103.3z"/>
	</g>
	<path class="st7" d="M566.4,91.5c0,0-3.8-0.7-9.8-1.1c-0.6,0-1.2-0.1-1.9-0.1h-0.1l0,0c-1.5-0.1-3.2-0.2-4.9-0.2
		c-9.8-0.2-22.7,0.5-35.2,4.3c-0.9,0.3-1.8,0.6-2.7,0.9c0,0-18.4-12.1-30.4-17.4c-3.4-1.5-6.3-2.5-8.2-2.5c-8.3,0-13.9-4.3-13.9-4.3
		c8.5-6.9,19.9-12.6,32.7-17.2c17.2-6.2,37-10.5,55.6-13.1c0.3,0,0.5-0.1,0.8-0.1c0.2,0,0.4,0,0.5-0.1c9.2-0.9,14.5,3.3,17.3,9.6
		C573,65,566.4,91.5,566.4,91.5z"/>
	<path class="st8" d="M566.4,91.5c0,0-3.8-0.7-9.8-1.1c-0.6-0.1-1.2-0.1-1.9-0.1h-0.1l0,0c-13.4-8.4-20.3-25.2-25.2-29.7
		c-4.3-4-46,1.2-61.2,9.3c-3.4-1.5,6.9,5.4,5,5.4c-8.3,0-13.9-4.3-13.9-4.3c19.9-16.1,55.8-25.7,88.3-30.3c0.3,0,0.5-0.1,0.8-0.1
		c0.2,0,0.4,0,0.5-0.1c8.7-0.8,14.1,3.3,17.3,9.6C573,65,566.4,91.5,566.4,91.5z"/>
	<path class="st10" d="M591.5,67.8c-1.7,16.1-10.8,23.3-20.4,24.6c-7.9,1-16.1-2-20.6-7.3c-2.6-3.1-4.4-6.4-5.7-10.1
		c-1.8-5-2.6-10.5-3.1-16c-0.5-6-0.7-12.1-1.4-18c0,0,4.4-3.2,10.8-6.3c6.9-3.4,16.1-6.7,24.4-5.8C591.2,30.5,594.5,38.5,591.5,67.8
		z"/>
	<path class="st11" d="M582,53c0,0-0.6-1.3-1.1-6.6c-0.5-5.2-7.9-12.4-13-4.4c-5.1,8.1-22.5,9.1-23.7,8c-1-0.9-1.4,0.9-2.6,8.8
		c-0.5-6-0.7-12.1-1.4-18c0,0,4.4-3.2,10.8-6.3c4.6-0.5,9.9-1.1,15.3-2.4c14.6-3.4,16.8,1,17.4,6.2S582,53,582,53z"/>
	<path class="st12" d="M801.7,81.8c-3.6,8.3-18.4-0.6-41.2-3.2c-6.2-0.7-11.9-0.9-17.2-0.7c-14.2,0.6-25,4.3-31.7,8.9
		c-9.2,6.3-18.8-3.3-25.6-10.3c-6.8-7.1-33.9-1.1-46.4-2.4s-16.3-14-27-14.9s-21.2,4.9-26.8,1.4c-4.7-2.9-3.8-13.4-4.2-18.6
		c-0.1-1-0.2-1.9-0.4-2.4c-1.4-3.2-8.1-2-13.7,3.5c-5.7,5.6-22.7,8.1-33.2-1.6s-2.3-29.9,11.5-32.2c15.9-2.6,18.4,4.4,29,6.9
		s24-7.8,40.1-8.8s24.5,10.8,32.2,7.7c0.3-0.1,0.6-0.2,0.9-0.3c23.7-9.4,36.8-0.1,42.1,7.6c1,1.4,1.7,2.8,2.1,4
		c2.8,7.6,18.5,19.9,42.4,18s34.8,8.7,39.4,19.7S805.2,73.5,801.7,81.8z"/>
	<path class="st13" d="M743.2,77.9c-14.2,0.6-25,4.3-31.7,8.9c-9.2,6.3-18.8-3.3-25.6-10.3c-6.8-7.1-33.9-1.1-46.4-2.4
		s-16.3-14-27-14.9s-21.2,4.9-26.8,1.4c-4.7-2.9-3.8-13.4-4.2-18.6c0.7,2.8,0.2,7.1,1.6,6.1c1.9-1.3,11-0.7,11,3.5
		c-0.1,4.2,8.6,2.5,22.1-0.8s11.3,17.4,32.5,21.3s32.1-10,43.8-6s22.6,14.3,32,9.4C728.2,73.6,735.7,75.1,743.2,77.9z"/>
	<g>
		<path class="st10" d="M580.9,56.5c3.1-9.6,10.3-14.1,14.3-5.5s-7.8,14.5-7.8,14.5L580.9,56.5z"/>
		<path class="st11" d="M585.2,50.8c0,0,3.6-3.8,7-0.4c3.4,3.5,1.4,8.6-1.2,11c0,0,4.7-4.2,1.1-9C588.5,47.6,585.2,50.8,585.2,50.8z
			"/>
		<path class="st11" d="M592.2,55.2c0.3,2.7-2,5.6-3.9,4.7c-1.9-1-1.6-3-1.6-3s0.6,2.8,2.1,2.6C590.4,59.3,591.7,57.6,592.2,55.2z"
			/>
		<path class="st11" d="M588.8,53.8c1.5,0.9,2.3,3.2,0.6,3.2s-2.4-1.4-2.8-1.2s-1.8-1.3-0.6-2.1C587,53,588.8,53.8,588.8,53.8z"/>
	</g>
	<g>
		<g>
			<path class="st10" d="M529,183.2c-3.2,0.4-7.9-0.9-12.3-3.1c-9.7-4.7-26.6-18.9-41.6-34.2c-2.7-2.7-5.3-5.4-7.8-8.2
				c-1.8-1.9-3.4-4-4.9-6.2c-12.4-18.4-14.6-44.6-7.2-55.1c0,0,15.1-2.3,15.6-2.6c0.5-0.3,25.8,16.2,33.2,21c1.3,0.8,2,1.3,2,1.3
				c-0.1,0.3-0.2,0.6-0.3,1c-1,3.3-1.6,6.7-1.9,10c-1.1,13.4,3.4,26.7,9.7,38.7c1.9,3.7,4,7.2,6.2,10.5c2.4,3.8,4.9,7.3,7.3,10.6
				C535.3,178.2,534,182.7,529,183.2z"/>
			<path class="st11" d="M506.2,96.2c-0.1,0.3-0.2,0.6-0.3,1c-0.8-0.7-1.6-1.3-2.4-1.8c-8.6-5.8-25.5-10.8-35.6-10.3
				c-8.8,0.4-12.4,22.8-5.4,46.6c-12.4-18.4-14.6-44.6-7.2-55.1c0,0,15.1-2.3,15.6-2.6C471.5,73.5,506.2,96.2,506.2,96.2z"/>
			<g>
				<path class="st7" d="M508.2,102.9c-4.3-0.4-14.5-11.4-22-17c-6.5-4.9-14.7-4.9-24.1-3.3c-1.5,0.2-3,0.5-4.5,0.8
					c-3.3,0.7-5.6,0.1-7.1-1.2c-3.6-3.1-2.3-10.6,0.9-15.9c1.6-2.6,11-0.1,19.9,2.7c8.8,2.8,24.9,6.7,27.5,12.7
					c0.1,0.3,0.3,0.6,0.5,0.9c1.1,1.8,3,3.2,5.2,4.4c4.1,2.3,9.2,4.2,11.9,7.7C520.7,100.5,513.5,103.4,508.2,102.9z"/>
				<path class="st8" d="M499.2,82.7c-1.9-1.2-5.3-3.8-10.5-4.9c-7.1-1.4-29.4-7.9-31.5-7.9c-1.9,0-5.9,6.7-6.8,12.4
					c-3.6-3.1-2.3-10.6,0.9-15.9c1.6-2.6,11-0.1,19.9,2.7c8.8,2.8,24.9,6.7,27.5,12.7C499,82.1,499.1,82.4,499.2,82.7z"/>
				<path class="st9" d="M508.2,102.9c-4.3-0.4-14.5-11.4-22-17c-6.5-4.9-14.7-4.9-24.1-3.3c5.8-3.2,16.5-4.8,23.7-1.4
					c8.3,3.9,19.3,13.6,19.4,9.5c0-1-0.3-2.3-0.8-3.5c4.1,2.3,9.2,4.2,11.9,7.7C520.7,100.5,513.5,103.4,508.2,102.9z"/>
			</g>
		</g>
		<path class="st11" d="M529,183.2c-3.2,0.4-7.9-0.9-12.3-3.1c-9.7-4.7-26.6-18.9-41.6-34.2c15.4,6.5,29.7,9.4,44.7,10.4
			c2.4,3.8,4.9,7.3,7.3,10.6C535.3,178.2,534,182.7,529,183.2z"/>
		<path class="st14" d="M513.7,145.8c-17.1-9-19.6-26.4-18.7-33.6c0.5-4,4.4-5.5,9-5.1C502.9,120.5,507.4,133.8,513.7,145.8z"/>
		<path class="st14" d="M522.7,150.5v-1.3C522.7,150.1,522.7,150.5,522.7,150.5z"/>
	</g>
	<g>
		<g>
			<path class="st4" d="M670.7,192.7c0,3.9-0.9,7.6-2.6,10.9c-1.6,3.3-4,6.1-6.9,8.3c-4.1,3.1-9.2,5-14.7,5H518.2
				c5.4,0,10.4-1.8,14.4-4.7c3-2.2,5.4-5.1,7.1-8.4c1.7-3.3,2.7-7.1,2.7-11.1c0-6.7-2.7-12.7-7.1-17.1c-4.4-4.4-10.4-7.1-17.1-7.1
				h128.3c6.5,0,12.4,2.6,16.8,6.8C667.9,179.7,670.7,185.9,670.7,192.7z"/>
			<path class="st4" d="M542.3,192.7c0,4-1,7.8-2.7,11.1s-4.2,6.2-7.1,8.4c-4,3-9,4.7-14.4,4.7h-28.3c-0.2,0-0.5,0-0.7,0
				s-0.4,0-0.5,0s-0.2,0-0.3,0c-0.2,0-0.3,0-0.5,0c0,0,0,0-0.1,0c-0.2,0-0.4,0-0.6-0.1H487c-0.2,0-0.3,0-0.5-0.1
				c-0.1,0-0.3,0-0.4-0.1H486c-0.2,0-0.3-0.1-0.5-0.1s-0.4-0.1-0.5-0.1c-0.2,0-0.4-0.1-0.7-0.1l0,0c-0.2,0-0.4-0.1-0.6-0.2
				c-0.6-0.2-1.2-0.3-1.8-0.5c-0.1,0-0.2-0.1-0.3-0.1c-0.1,0-0.2-0.1-0.3-0.1c-0.1,0-0.1,0-0.2-0.1c-0.1,0-0.2-0.1-0.3-0.1
				c-0.1,0-0.2-0.1-0.3-0.1c-0.2-0.1-0.3-0.1-0.5-0.2c-0.2-0.1-0.4-0.2-0.6-0.3s-0.4-0.2-0.6-0.3s-0.4-0.2-0.6-0.3s-0.3-0.2-0.5-0.3
				c-0.1,0-0.2-0.1-0.3-0.2c-0.1-0.1-0.2-0.1-0.3-0.2c-0.2-0.1-0.3-0.2-0.5-0.3c-0.1-0.1-0.2-0.2-0.4-0.2c-0.1-0.1-0.3-0.2-0.4-0.3
				s-0.2-0.2-0.3-0.2c-1.3-1-2.6-2.1-3.7-3.3c-0.1-0.1-0.2-0.3-0.3-0.4c-0.1-0.1-0.2-0.3-0.3-0.4l0,0c-0.1-0.1-0.2-0.3-0.4-0.4
				c-0.1-0.2-0.3-0.3-0.4-0.5c-0.1-0.1-0.2-0.2-0.3-0.3l-0.1-0.1c-0.1-0.1-0.2-0.3-0.3-0.4c-0.1-0.2-0.2-0.3-0.3-0.5
				c-0.1-0.1-0.2-0.3-0.2-0.4c-0.2-0.4-0.5-0.8-0.7-1.2c-0.1-0.1-0.1-0.3-0.2-0.4c0,0,0,0,0-0.1c-0.1-0.1-0.1-0.3-0.2-0.4
				c-0.1-0.2-0.2-0.4-0.3-0.6c-0.1-0.2-0.1-0.3-0.2-0.5s-0.2-0.4-0.2-0.5c-0.1-0.4-0.3-0.7-0.4-1.1c-0.1-0.2-0.1-0.4-0.2-0.6
				c-0.1-0.2-0.1-0.4-0.2-0.6l0,0c0-0.2-0.1-0.3-0.1-0.5c-0.1-0.2-0.1-0.5-0.2-0.7c0-0.1-0.1-0.3-0.1-0.4c-0.1-0.3-0.1-0.6-0.2-0.8
				c0-0.2-0.1-0.3-0.1-0.5s0-0.3-0.1-0.5c0-0.1,0-0.3-0.1-0.4c0-0.1,0-0.3,0-0.4c0-0.1,0-0.2,0-0.3s0-0.3,0-0.4c0-0.1,0-0.3,0-0.4
				c0-0.1,0-0.3,0-0.4c0-0.1,0-0.2,0-0.3c0-0.2,0-0.4,0-0.5c0-0.2,0-0.4,0-0.6v-0.2c0-0.2,0-0.3,0-0.5c0-0.1,0-0.3,0-0.4
				c0-0.1,0-0.2,0-0.3l0.1-1.2c0-0.1,0-0.3,0.1-0.4l0.6-3c0-0.2,0.1-0.3,0.1-0.5v-0.1c0-0.2,0.1-0.3,0.2-0.5
				c0.4-1.2,0.9-2.3,1.4-3.3c0.1-0.2,0.2-0.3,0.3-0.5c0.1-0.2,0.2-0.4,0.3-0.5c0.1-0.2,0.2-0.3,0.3-0.5l0,0c0.1-0.2,0.2-0.3,0.3-0.4
				c0.2-0.3,0.4-0.6,0.6-0.9c0-0.1,0.1-0.1,0.1-0.2c0,0,0-0.1,0.1-0.1c0.1-0.1,0.2-0.3,0.3-0.4c0-0.1,0.1-0.1,0.1-0.2
				c0.1-0.1,0.1-0.2,0.2-0.3s0.2-0.2,0.3-0.3c0.1-0.1,0.2-0.3,0.4-0.4c0.1-0.1,0.3-0.3,0.4-0.4c0.1-0.1,0.2-0.2,0.3-0.3l0.1-0.1
				c0.1-0.1,0.3-0.3,0.4-0.4c0.1-0.1,0.3-0.3,0.4-0.4c0.1-0.1,0.3-0.3,0.4-0.4c0.3-0.3,0.6-0.5,0.9-0.8c0.2-0.1,0.3-0.3,0.5-0.4
				c0.2-0.1,0.3-0.2,0.5-0.3c0.1-0.1,0.3-0.2,0.4-0.3l0.1-0.1c0.1-0.1,0.3-0.2,0.4-0.3c0.6-0.4,1.2-0.8,1.8-1.1
				c0.1-0.1,0.2-0.1,0.3-0.2c0.1,0,0.2-0.1,0.2-0.1c0.2-0.1,0.4-0.2,0.5-0.3c0.4-0.2,0.8-0.4,1.2-0.5c0.1,0,0.2-0.1,0.3-0.1
				c0.1-0.1,0.3-0.1,0.4-0.2h0.1c0.2-0.1,0.3-0.1,0.5-0.2c0.1,0,0.1,0,0.2-0.1c0.2-0.1,0.4-0.1,0.6-0.2c0.3-0.1,0.6-0.2,0.8-0.3
				c0.2-0.1,0.4-0.1,0.6-0.2c0.2,0,0.4-0.1,0.6-0.1c0.1,0,0.2,0,0.2-0.1c0.2,0,0.4-0.1,0.6-0.1l0,0c0.1,0,0.3,0,0.4-0.1
				c0.1,0,0.2,0,0.3-0.1c0.1,0,0.2,0,0.2,0c0.2,0,0.3,0,0.5-0.1c0.2,0,0.4,0,0.6-0.1c0.1,0,0.2,0,0.3,0c0.2,0,0.3,0,0.5,0
				c0.1,0,0.2,0,0.3,0c0.2,0,0.4,0,0.6,0c0.3,0,0.5,0,0.8,0H518c6.7,0,12.7,2.7,17.1,7.1C539.5,180,542.3,186,542.3,192.7z"/>
			<path class="st15" d="M668.2,186.9c0,3.9-0.9,7.6-2.6,10.9c-1.6,3.3-4,6.1-6.9,8.3c-4.1,3.1-9.2,5-14.7,5H515.8
				c5.4,0,10.4-1.8,14.4-4.7c3-2.2,5.4-5.1,7.1-8.4c1.7-3.3,2.7-7.1,2.7-11.1c0-6.7-2.7-12.7-7.1-17.1c-4.4-4.4-10.4-7.1-17.1-7.1
				h128.4c6.5,0,12.4,2.6,16.8,6.8C665.5,173.9,668.2,180.1,668.2,186.9z"/>
			<path class="st2" d="M536.8,206.5c1.8-1.9,3.3-4.1,4.5-6.4c2.1-4,3.2-8.6,3.2-13.2c0-7.3-2.7-14.2-7.7-19.6H644
				c5.1,0,9.9,1.9,13.6,5.5c3.9,3.7,6,8.7,6,14.1c0,3.1-0.7,6.1-2.1,8.8c-1.3,2.6-3.2,4.9-5.6,6.7c-3.4,2.6-7.6,4.1-11.9,4.1
				L536.8,206.5L536.8,206.5z"/>
			<path class="st16" d="M540,186.9c0,4-1,7.8-2.7,11.1s-4.2,6.2-7.1,8.4c-4,3-9,4.7-14.4,4.7h-28.3c-0.2,0-0.5,0-0.7,0
				s-0.4,0-0.5,0s-0.2,0-0.3,0c-0.2,0-0.3,0-0.5,0c0,0,0,0-0.1,0c-0.2,0-0.4,0-0.6-0.1h-0.1c-0.2,0-0.3,0-0.5-0.1
				c-0.1,0-0.3,0-0.4-0.1h-0.1c-0.2,0-0.3-0.1-0.5-0.1s-0.4-0.1-0.5-0.1c-0.2,0-0.4-0.1-0.7-0.1l0,0c-0.2,0-0.4-0.1-0.6-0.2
				c-0.6-0.2-1.2-0.3-1.8-0.5c-0.1,0-0.2-0.1-0.3-0.1c-0.1,0-0.2-0.1-0.3-0.1c-0.1,0-0.1,0-0.2-0.1c-0.1,0-0.2-0.1-0.3-0.1
				c-0.1,0-0.2-0.1-0.3-0.1c-0.2-0.1-0.3-0.1-0.5-0.2c-0.2-0.1-0.4-0.2-0.6-0.3s-0.4-0.2-0.6-0.3s-0.4-0.2-0.6-0.3s-0.3-0.2-0.5-0.3
				c-0.1,0-0.2-0.1-0.3-0.2c-0.1-0.1-0.2-0.1-0.3-0.2c-0.2-0.1-0.3-0.2-0.5-0.3c-0.1-0.1-0.2-0.2-0.4-0.2c-0.1-0.1-0.3-0.2-0.4-0.3
				s-0.2-0.2-0.3-0.2c-1.3-1-2.6-2.1-3.7-3.3c-0.1-0.1-0.2-0.3-0.3-0.4c-0.1-0.1-0.2-0.3-0.3-0.4l0,0c-0.1-0.1-0.2-0.3-0.4-0.4
				c-0.1-0.2-0.3-0.3-0.4-0.5c-0.1-0.1-0.2-0.2-0.3-0.3l-0.1-0.1c-0.1-0.1-0.2-0.3-0.3-0.4c-0.1-0.2-0.2-0.3-0.3-0.5
				c-0.1-0.1-0.2-0.3-0.2-0.4c-0.2-0.4-0.5-0.8-0.7-1.2c-0.1-0.1-0.1-0.3-0.2-0.4c0,0,0,0,0-0.1c-0.1-0.1-0.1-0.3-0.2-0.4
				c-0.1-0.2-0.2-0.4-0.3-0.6c-0.1-0.2-0.1-0.3-0.2-0.5s-0.2-0.4-0.2-0.5c-0.1-0.4-0.3-0.7-0.4-1.1c-0.1-0.2-0.1-0.4-0.2-0.6
				c-0.1-0.2-0.1-0.4-0.2-0.6l0,0c0-0.2-0.1-0.3-0.1-0.5c-0.1-0.2-0.1-0.5-0.2-0.7c0-0.1-0.1-0.3-0.1-0.4c-0.1-0.3-0.1-0.6-0.2-0.8
				c0-0.2-0.1-0.3-0.1-0.5s0-0.3-0.1-0.5c0-0.1,0-0.3-0.1-0.4c0-0.1,0-0.3,0-0.4c0-0.1,0-0.2,0-0.3s0-0.3,0-0.4c0-0.1,0-0.3,0-0.4
				c0-0.1,0-0.3,0-0.4c0-0.1,0-0.2,0-0.3c0-0.2,0-0.4,0-0.5c0-0.2,0-0.4,0-0.6v-0.2c0-0.2,0-0.3,0-0.5c0-0.1,0-0.3,0-0.4
				c0-0.1,0-0.2,0-0.3l0.1-1.2c0-0.1,0-0.3,0.1-0.4l0.6-3c0-0.2,0.1-0.3,0.1-0.5v-0.1c0-0.2,0.1-0.3,0.2-0.5
				c0.4-1.2,0.9-2.3,1.4-3.3c0.1-0.2,0.2-0.3,0.3-0.5c0.1-0.2,0.2-0.4,0.3-0.5c0.1-0.2,0.2-0.3,0.3-0.5l0,0c0.1-0.2,0.2-0.3,0.3-0.4
				c0.2-0.3,0.4-0.6,0.6-0.9c0-0.1,0.1-0.1,0.1-0.2c0,0,0-0.1,0.1-0.1c0.1-0.1,0.2-0.3,0.3-0.4c0-0.1,0.1-0.1,0.1-0.2
				c0.1-0.1,0.1-0.2,0.2-0.3s0.2-0.2,0.3-0.3c0.1-0.1,0.2-0.3,0.4-0.4c0.1-0.1,0.3-0.3,0.4-0.4c0.1-0.1,0.2-0.2,0.3-0.3l0.1-0.1
				c0.1-0.1,0.3-0.3,0.4-0.4c0.1-0.1,0.3-0.3,0.4-0.4c0.1-0.1,0.3-0.3,0.4-0.4c0.3-0.3,0.6-0.5,0.9-0.8c0.2-0.1,0.3-0.3,0.5-0.4
				c0.2-0.1,0.3-0.2,0.5-0.3c0.1-0.1,0.3-0.2,0.4-0.3l0.1-0.1c0.1-0.1,0.3-0.2,0.4-0.3c0.6-0.4,1.2-0.8,1.8-1.1
				c0.1-0.1,0.2-0.1,0.3-0.2c0.1,0,0.2-0.1,0.2-0.1c0.2-0.1,0.4-0.2,0.5-0.3c0.4-0.2,0.8-0.4,1.2-0.5c0.1,0,0.2-0.1,0.3-0.1
				c0.1-0.1,0.3-0.1,0.4-0.2h0.1c0.2-0.1,0.3-0.1,0.5-0.2c0.1,0,0.1,0,0.2-0.1c0.2-0.1,0.4-0.1,0.6-0.2c0.3-0.1,0.6-0.2,0.8-0.3
				c0.2-0.1,0.4-0.1,0.6-0.2c0.2,0,0.4-0.1,0.6-0.1c0.1,0,0.2,0,0.2-0.1c0.2,0,0.4-0.1,0.6-0.1l0,0c0.1,0,0.3,0,0.4-0.1
				c0.1,0,0.2,0,0.3-0.1c0.1,0,0.2,0,0.2,0c0.2,0,0.3,0,0.5-0.1c0.2,0,0.4,0,0.6-0.1c0.1,0,0.2,0,0.3,0c0.2,0,0.3,0,0.5,0
				c0.1,0,0.2,0,0.3,0c0.2,0,0.4,0,0.6,0c0.3,0,0.5,0,0.8,0h28.3c6.7,0,12.7,2.7,17.1,7.1C537.2,174.2,540,180.2,540,186.9z"/>
			<path class="st2" d="M464.5,179.2c-0.1,0.2-0.1,0.3-0.2,0.5c0-0.1,0.1-0.2,0.1-0.4C464.5,179.3,464.5,179.3,464.5,179.2z"/>
		</g>
		<g>
			<g>
				<g>
					<g>
						<polygon class="st2" points="497,186.4 499.4,188.1 503.6,191.2 516.5,200.6 514.8,202.4 502.2,193.1 498,190 495.6,188.3 
							495.9,187.9 496.8,186.6 						"/>
					</g>
					<g>
						<path class="st2" d="M482.2,176c-3.4,4.7-2.4,11.3,2.3,14.7c4.3,3.2,10.2,2.6,13.8-1.2c0.3-0.3,0.6-0.7,0.9-1
							c0.2-0.3,0.5-0.7,0.7-1c2.6-4.6,1.4-10.5-2.9-13.7C492.2,170.3,485.6,171.3,482.2,176z M495,176.4c3,2.2,3.8,6.3,2,9.4
							c-0.1,0.3-0.3,0.5-0.5,0.7s-0.3,0.4-0.5,0.6c-2.5,2.7-6.6,3.1-9.6,0.9c-3.2-2.4-3.9-6.9-1.6-10.1
							C487.2,174.7,491.7,174,495,176.4z"/>
					</g>
				</g>
			</g>
			<path class="st2" d="M519.5,202.5l-1.6,2.2c-0.1,0.2-0.4,0.3-0.6,0.4c-0.3,0.1-0.7,0-1-0.2L501,193.8c-0.3-0.2-0.4-0.5-0.5-0.7
				s0-0.6,0.2-0.8l1.6-2.2c0.2-0.2,0.4-0.4,0.7-0.4c0.3,0,0.6,0,0.9,0.2l15.4,11.1c0.3,0.2,0.4,0.5,0.5,0.7
				C519.8,202,519.8,202.3,519.5,202.5z"/>
		</g>
	</g>
	<g>
		<path class="st17" d="M692.5,85.4c-0.3,4.7-3.9,9-12.7,18.8s-39.7,16.9-42.6,15.5s18.7-28.5,30.1-33.6
			C678.7,81.2,692.5,85.4,692.5,85.4z"/>
		<g>
			<path class="st10" d="M677.2,134.9c-5.7,12.9-13.7,24.3-22.1,33.4c-11.3,12.2-23.4,20.1-31.6,21.9c-2.2,0.5-3.6,0.2-4.5-0.6
				c-4.7-4.7,9.3-27.9,16.8-46.3c2.3-5.5,4-10.1,5.2-13.9c2.6-7.8,3.3-12.4,3.1-15.8c-0.1-1.4-0.3-2.7-0.5-3.9
				c-1.3-5.6,17.9-25.7,25.5-27.8c7.6-2,14.1-1.3,14.1-1.3C689.5,86.7,690.7,104.6,677.2,134.9z"/>
			<path class="st14" d="M641.2,129.4c-1.5,12.9-8.3,36.6-11.6,44c-3,6.6-8.2,12.7-10.4,16.1c-4.7-4.7,9.3-27.9,16.8-46.3
				C638.2,137.7,639.9,133.1,641.2,129.4z"/>
			<path class="st11" d="M677.2,134.9c-5.7,12.9-13.7,24.3-22.1,33.4c12.6-20.9,22-51.8,21.8-59.2c-0.2-10.4-4.1-2.3-14.3,0
				c-9.9,2.2-15.4,1.4-18.4,4.5c-0.1-1.4-0.3-2.7-0.5-3.9c-1.3-5.6,17.9-25.7,25.5-27.8c7.6-2,14.1-1.3,14.1-1.3
				C689.5,86.7,690.7,104.6,677.2,134.9z"/>
		</g>
		<path class="st7" d="M692.5,85.4c-0.1,0.2-0.1,0.3-0.2,0.5c-0.7,1.2-2.1,0.9-4.2,0.5c-3.9-0.9-10.4-2.5-19.8,2.5
			c-15.1,8-21.2,29.6-30.3,31.4s-5.7-7.8-1.5-15.6c1-1.9,2.8-7.6,6.6-13.9c1.3-2.2,4.6-5.3,9-8.3c1.2-0.9,2.6-1.7,3.9-2.6
			c7.7-4.7,17.3-8.7,24.9-8.6C694.8,71.6,694,80.9,692.5,85.4z"/>
		<path class="st9" d="M688,86.4c-3.9-0.9-10.4-2.5-19.8,2.5c-15.1,8-21.2,29.6-30.3,31.4s-5.7-7.8-1.5-15.6c1-1.9,2.8-7.6,6.6-13.9
			c1.3-2.2,4.6-5.3,9-8.3c-5.2,6.2-9.2,16.3-6.1,17.2c3.1,0.9,13.1-13.6,23.4-15.9C677,82,684.2,84.8,688,86.4z"/>
		<path class="st8" d="M692.5,85.4c-0.1,0.2-0.1,0.3-0.2,0.5c-0.4-0.2-0.7-0.5-1.1-0.9c-1.9-1.8-9.1-2.6-9.7-4c-0.6-1.4,9-3,0-5.3
			c-7.8-2-19.8,2.3-25.6,4.1c7.7-4.7,17.3-8.7,24.9-8.6C694.8,71.6,694,80.9,692.5,85.4z"/>
	</g>
	<path class="st18" d="M546.2,44.1c-3-0.5-6-1.6-8.6-3.4c-1.3-0.9-2.5-1.9-3.6-3.2c-1-1.2-1.9-2.6-2.5-4.2c-0.6-1.5-0.8-3.2-0.8-4.8
		c0.1-1.6,0.4-3.2,0.9-4.7c1.1-3,2.9-5.6,5-7.9c-1.5,2.7-2.8,5.4-3.6,8.3c-0.3,1.4-0.6,2.9-0.5,4.3c0,1.4,0.3,2.8,0.7,4.2
		c1,2.7,2.9,4.9,5.2,6.8C540.8,41.3,543.5,42.8,546.2,44.1z"/>
	<path class="st18" d="M567.4,40.5c-2.6,1.7-5.5,2.8-8.7,3.3c-1.6,0.3-3.2,0.3-4.8,0.1c-1.6-0.2-3.2-0.7-4.7-1.4
		c-1.5-0.8-2.8-1.8-3.8-3c-1.1-1.2-1.9-2.6-2.5-4.1c-1.2-2.9-1.7-6.1-1.6-9.1c0.7,3,1.6,5.9,3,8.5c0.7,1.3,1.5,2.5,2.5,3.5
		s2.1,1.9,3.4,2.6c2.5,1.3,5.5,1.7,8.4,1.5C561.5,42.2,564.5,41.5,567.4,40.5z"/>
	<path class="st13" d="M757.8,55.2c-6.3-5-5.3-0.3-32.5,0.7s-34.8-25.2-44.9-37.1c-9.2-10.8-24.1-0.8-32.6-4
		c23.7-9.4,36.8-0.1,42.1,7.6c0,1.3,0,2.6,0.3,3.8c2,8.4,13.4,29.9,38.9,23.8C754.2,44,757.7,54.9,757.8,55.2z"/>
	<path class="st14" d="M571,92.3c-7.9,1-16.1-2-20.6-7.3c-2.6-3.1-4.4-6.4-5.7-10.1C551.7,86.5,561.8,91.2,571,92.3z"/>
</g>
<g>
	<path class="st19" d="M574.2,606.2l-224.4-18.4c-4.8-0.4-9-2.3-12.1-5.1c-3.7-3.3-5.8-7.9-5.4-12.8l1.4-17.2
		c0.4-4.5,2.8-8.4,6.5-11.1c3.6-2.7,8.5-4.1,13.7-3.7l224.4,18.4c4.4,0.4,8.4,2,11.4,4.5c4.1,3.3,6.4,8.2,6,13.3l-1.4,17.2
		c-0.4,5-3.4,9.3-7.7,12C583.2,605.4,578.9,606.5,574.2,606.2z"/>
	<path class="st20" d="M574.8,602.5l-224.4-18.4c-4.8-0.4-9-2.3-12.1-5.1c-3.7-3.3-5.8-7.9-5.4-12.8l1.4-17.2
		c0.4-4.5,2.8-8.4,6.5-11.1c3.6-2.7,8.5-4.1,13.7-3.7l224.4,18.4c4.4,0.4,8.4,2,11.4,4.5c4.1,3.3,6.4,8.2,6,13.3l-1.4,17.2
		c-0.4,5-3.4,9.3-7.7,12C583.7,601.8,579.4,602.9,574.8,602.5z"/>
	<circle class="st19" cx="363.1" cy="561.6" r="17.2"/>
	<circle class="st19" cx="413.5" cy="565.9" r="17.2"/>
	<circle class="st19" cx="463.9" cy="570.2" r="17.2"/>
	<circle class="st21" cx="514.2" cy="574.5" r="17.2"/>
	<circle class="st19" cx="564.7" cy="578.8" r="17.2"/>
	<g>
		<circle class="st22" cx="360.5" cy="561" r="17.2"/>
		<path class="st2" d="M357.8,549.2c-0.9-1.1-1.5,7-1.7,7.5s-3.2,0.4-3.9,3.3s-0.8,7.9,0.4,8.2c1.2,0.4,4.5-0.1,7.4-0.1
			s8.1,1.4,8.5,0.9s1.4-9,0.7-10.1s-9-0.9-10.3-2.3C357.5,555.2,359,550.6,357.8,549.2z"/>
	</g>
	<g>
		<circle class="st18" cx="410.9" cy="565.3" r="17.2"/>
		<path class="st2" d="M409.2,561.7c-1.9-6.2-8.4-6.2-7.3,1.7s8.6,13,8.6,13s-1-4.5,3.9-6.1c4.9-1.5,9.3-10.1,3.6-11.9
			C412.2,556.5,409.2,561.7,409.2,561.7z"/>
	</g>
	<g>
		<circle class="st8" cx="461.2" cy="569.6" r="17.2"/>
		<g>
			<g>
				<path class="st23" d="M466.5,572c0,0,0.3,2.9,0,5.9c-0.4,3.1-1.5,6.4-4.6,6.9c-6,1-8.9-2.7-9.2-4.3c-0.1-0.7-0.2-1.8-0.3-3.1
					c-0.1-2-0.1-4.4,0.4-6.3L466.5,572z"/>
				<path class="st18" d="M466.5,577.9c-0.4,3.1-1.5,6.4-4.6,6.9c-6,1-8.9-2.7-9.2-4.3c-0.1-0.7-0.2-1.8-0.3-3.1
					C456.9,575.7,463.1,576,466.5,577.9z"/>
			</g>
			<g>
				<g>
					<path class="st23" d="M449.2,558.9c0.5,1.5,2.1,2.7,3.3,3.6c0.3,0.2,1.1,0.6,1.2,0.8c0.1,0.1,0.2,0.2,0.2,0.2
						c-0.4,0.2-0.7,0.4-1.1,0.6c-0.9,0.5-1.9,0.9-2.9,1.3c-0.8,0.3-0.3,1.6,0.6,1.3c1.3-0.5,2.6-1.1,3.8-1.8c0.6-0.4,1.1-0.8,1-1.6
						c-0.1-0.9-1.2-1.3-1.9-1.8c-1.1-0.8-2.6-1.9-3-3.2C450.2,557.5,449,558.1,449.2,558.9L449.2,558.9z"/>
				</g>
			</g>
			<g>
				<g>
					<path class="st23" d="M475.7,561.8c-0.9,1.3-2.8,2-4.2,2.5c-0.3,0.1-1.2,0.2-1.4,0.4c-0.1,0.1-0.2,0.1-0.3,0.2
						c0.3,0.3,0.6,0.6,0.9,0.9c0.8,0.7,1.6,1.4,2.4,2.1c0.7,0.6-0.2,1.6-0.9,1c-1.1-0.9-2.2-1.8-3.1-2.8c-0.5-0.5-0.8-1.1-0.5-1.8
						c0.4-0.8,1.6-0.9,2.4-1.2c1.3-0.4,3-1,3.8-2.2C475.1,560.1,476.2,561.1,475.7,561.8L475.7,561.8z"/>
				</g>
			</g>
		</g>
	</g>
	<g>
		<circle class="st8" cx="511.7" cy="573.9" r="17.2"/>
		<g>
			<g>
				<path class="st23" d="M511.1,584.9c-4.2-0.2-7.5-3.8-7.3-8c0-0.5,0.4-0.8,0.9-0.8s0.8,0.4,0.8,0.9c-0.1,3.3,2.4,6,5.7,6.2
					c3.3,0.2,6.1-2.4,6.3-5.7c0-0.5,0.4-0.8,0.9-0.8s0.8,0.4,0.8,0.9C519,581.8,515.3,585.1,511.1,584.9z"/>
			</g>
			<g>
				<path class="st23" d="M508.7,570.8c-0.5,0-0.8-0.4-0.8-0.9c0.1-1.4-1-2.6-2.4-2.7c-1.4-0.1-2.6,1-2.7,2.4c0,0.5-0.4,0.8-0.9,0.8
					l0,0c-0.5,0-0.8-0.4-0.8-0.9c0.2-2.3,2.2-4.1,4.5-4c2.4,0.1,4.2,2.1,4,4.5C509.6,570.5,509.2,570.8,508.7,570.8z"/>
			</g>
			<g>
				<path class="st23" d="M522,571.5c-0.5,0-0.8-0.4-0.8-0.9c0.1-1.4-1-2.6-2.4-2.7c-1.4-0.1-2.6,1-2.7,2.4c0,0.5-0.4,0.8-0.9,0.8
					l0,0c-0.5,0-0.8-0.4-0.8-0.9c0.2-2.3,2.2-4.1,4.5-4c2.4,0.1,4.2,2.1,4,4.5C523,571.2,522.5,571.5,522,571.5z"/>
			</g>
		</g>
	</g>
	<g>
		
			<linearGradient id="SVGID_1_" gradientUnits="userSpaceOnUse" x1="-242.7956" y1="290.6283" x2="-250.174" y2="260.2951" gradientTransform="matrix(0.9871 -0.1603 -0.1603 -0.9871 849.1688 814.9646)">
			<stop  offset="0" style="stop-color:#D82A2A"/>
			<stop  offset="1" style="stop-color:#FEAD00"/>
		</linearGradient>
		<circle class="st24" cx="562" cy="578.2" r="17.2"/>
		<g>
			<g>
				<path class="st23" d="M566.4,573.8C566.4,573.8,566.5,573.8,566.4,573.8c2.1,0.6,8.6,1.5,11.4-1.9c0.2-0.3,0.2-0.7-0.1-0.9
					s-0.7-0.2-0.9,0.1c-2.1,2.6-7.6,2.1-9.9,1.5c-0.4-0.1-0.7,0.1-0.8,0.5C565.9,573.3,566,573.6,566.4,573.8z"/>
			</g>
			<g>
				<path class="st23" d="M555,585C555,585,555.2,584.9,555,585c2.3-0.8,9.4-2.1,12.6,1.5c0.3,0.3,0.3,0.8-0.1,1
					c-0.3,0.3-0.8,0.3-1-0.1c-2.5-2.7-8.5-1.9-11-1.1c-0.4,0.1-0.8-0.1-0.9-0.5C554.5,585.5,554.8,585.1,555,585z"/>
			</g>
			
				<ellipse transform="matrix(9.883475e-02 -0.9951 0.9951 9.883475e-02 -57.6561 1089.501)" class="st23" cx="572.7" cy="576.6" rx="3.2" ry="2.3"/>
			<g>
				<path class="st23" d="M558.8,573C558.8,573,558.7,573,558.8,573c-2.2,0.2-8.8-0.3-10.8-4.1c-0.2-0.3,0-0.7,0.3-0.9
					s0.7,0,0.9,0.3c1.6,3,7,3.6,9.4,3.4c0.4,0,0.7,0.3,0.7,0.6C559.4,572.6,559,572.9,558.8,573z"/>
			</g>
			
				<ellipse transform="matrix(9.883475e-02 -0.9951 0.9951 9.883475e-02 -74.5192 1066.7229)" class="st23" cx="551.7" cy="574.5" rx="3.2" ry="2.3"/>
		</g>
	</g>
</g>
<g>
	<g>
		<g>
			<path class="st4" d="M224.6,276l-115.2-0.4c-3.1,0-5.9-0.6-8-1.7c-2.3-1.1-3.7-2.8-3.7-4.5v-11.3c0-1.8,1.4-3.4,3.7-4.5
				c2.1-1,4.9-1.7,8-1.7l115.2,0.4c3,0,5.8,0.6,7.9,1.6c2.4,1.1,3.8,2.8,3.8,4.6v11.3c0,1.3-0.7,2.5-2,3.5
				C232.1,275,228.6,276,224.6,276z"/>
		</g>
	</g>
</g>
<g>
	<path class="st2" d="M221.2,274l-115.2-0.4c-3.1,0-5.9-0.6-8-1.7c-2.3-1.1-3.7-2.8-3.7-4.5v-11.3c0-1.8,1.4-3.4,3.7-4.5
		c2.1-1,4.9-1.7,8-1.7l115.2,0.4c3,0,5.8,0.6,7.9,1.6c2.4,1.1,3.8,2.8,3.8,4.6v11.3c0,1.3-0.7,2.5-2,3.5
		C228.9,273,225.3,274.1,221.2,274z"/>
</g>
<g>
	<path class="st4" d="M157.6,522c-5,0-9.6-1.9-13.2-5.5c-3.5-3.5-5.5-8.2-5.5-13.2v-149c0-5,1.9-9.6,5.4-13.1s8.2-5.5,13.2-5.5
		h149.1c5,0,9.6,1.9,13.2,5.5c3.5,3.5,5.5,8.2,5.5,13.2v149.1c0,4.4-1.5,8.6-4.4,12c-3.5,4.2-8.7,6.7-14.3,6.7h-149V522z"/>
	<path class="st2" d="M137.6,512.8c-5,0-9.6-1.9-13.2-5.5c-3.5-3.5-5.5-8.2-5.5-13.2v-149c0-5,1.9-9.6,5.4-13.1s8.2-5.5,13.2-5.5
		h149.1c5,0,9.6,1.9,13.2,5.5c3.5,3.5,5.5,8.2,5.5,13.2v149.1c0,4.4-1.5,8.6-4.4,12c-3.5,4.2-8.7,6.7-14.3,6.7h-149V512.8z"/>
	<circle class="st22" cx="164.9" cy="369.3" r="24.8"/>
	<path class="st0" d="M283.5,351h-78.8c-0.4,0-0.7-0.3-0.7-0.7v-0.4c0-0.4,0.3-0.7,0.7-0.7h78.8c0.4,0,0.7,0.3,0.7,0.7v0.4
		C284.1,350.7,283.9,351,283.5,351z"/>
	<path class="st0" d="M283.5,364.3h-78.8c-0.4,0-0.7-0.3-0.7-0.7v-0.4c0-0.4,0.3-0.7,0.7-0.7h78.8c0.4,0,0.7,0.3,0.7,0.7v0.4
		C284.1,364,283.9,364.3,283.5,364.3z"/>
	<path class="st0" d="M283.5,377.7h-78.8c-0.4,0-0.7-0.3-0.7-0.7v-0.4c0-0.4,0.3-0.7,0.7-0.7h78.8c0.4,0,0.7,0.3,0.7,0.7v0.4
		C284.1,377.4,283.9,377.7,283.5,377.7z"/>
	<path class="st0" d="M283.5,391.1h-78.8c-0.4,0-0.7-0.3-0.7-0.7V390c0-0.4,0.3-0.7,0.7-0.7h78.8c0.4,0,0.7,0.3,0.7,0.7v0.4
		C284.1,390.7,283.9,391.1,283.5,391.1z"/>
	<path class="st0" d="M283.5,404.4H143.9c-0.4,0-0.7-0.3-0.7-0.7v-0.4c0-0.4,0.3-0.7,0.7-0.7h139.5c0.4,0,0.7,0.3,0.7,0.7v0.4
		C284.1,404.1,283.9,404.4,283.5,404.4z"/>
	<path class="st0" d="M283.5,417.8H143.9c-0.4,0-0.7-0.3-0.7-0.7v-0.4c0-0.4,0.3-0.7,0.7-0.7h139.5c0.4,0,0.7,0.3,0.7,0.7v0.4
		C284.1,417.5,283.9,417.8,283.5,417.8z"/>
	<path class="st0" d="M279.4,497.2H147.9c-1.1,0-2-0.3-2.8-0.9c-1.1-0.8-1.9-2.2-1.9-3.7v-59.2c0-1.2,0.5-2.3,1.3-3.1
		c0.9-0.9,2.1-1.4,3.4-1.4h131.4c1.8,0,3.4,1,4.2,2.5c0.3,0.6,0.5,1.3,0.5,2.1v59.2c0,1.3-0.5,2.4-1.4,3.2
		C281.9,496.6,280.6,497.2,279.4,497.2z"/>
</g>
<g>
	<path class="st25" d="M667.5,311.4c-11.4-0.5-23.6-19.3-23.6-19.3s-10.7,19.8-12.2,22s14.8,18.1,17.9,19.5
		C652.7,335.1,667.5,311.4,667.5,311.4z"/>
	<path class="st2" d="M654.7,288c6.2,4.3-27,102.9-29.2,106.2c-2.2,3.3-216.4-53.4-218.2-55.3c-1.8-1.8,23.8-107.2,31.1-108.7
		S652.2,286.4,654.7,288z"/>
	<path class="st8" d="M558.2,290.3c2.1,0.8-14.5,51.3-17.9,52.2c-3.4,0.9-36.6-37.1-36.1-40.9S553,288.3,558.2,290.3z"/>
	<g>
		<path class="st10" d="M587.5,284.5c4,0.8,8-3.4,10.5-7.5c1.6-2.6,2.5-5.2,2.4-6.4c-0.5-6.2-12.5-7.5-15.5-5.3
			c-1.1,0.8-1.9,3.4-2.2,6.4C582.2,277,583.4,283.7,587.5,284.5z"/>
		<path class="st14" d="M587.5,284.5c4,0.8,8-3.4,10.5-7.5c-4.4,4-9.1,7-11.2,5.1c-2.2-1.9-2-10.1-4-10.4
			C582.2,277,583.4,283.7,587.5,284.5z"/>
	</g>
	<g>
		<path class="st8" d="M602.8,375.8c0.4,0,0.8-0.3,1-0.7c0.1-0.5-0.2-1.1-0.7-1.2l-167.7-44.4c-0.5-0.1-1.1,0.2-1.2,0.7
			s0.2,1.1,0.7,1.2l167.7,44.3C602.7,375.7,602.8,375.8,602.8,375.8z"/>
	</g>
	<g>
		<path class="st26" d="M538,641.5c1.9-0.4,4,0,2.9,1c-1.1,1-46.5,1.6-53,1.8c-6.5,0.1-10.9-1.9-6.8-2.7
			C485.1,640.8,538,641.5,538,641.5z"/>
		<path class="st10" d="M496.4,642.5c15.8,0.1,38.6-0.5,41.6-1c4-0.6,12.8-53.6,15.4-72c0.5-3.4,0.8-5.6,0.8-6.2c0-1.5-7-1.1-15-0.1
			c-10.6,1.3-23,3.5-23,3.5c-1.1,3.1-2.6,10-4.2,18c-1.1,5.3-2.2,11.1-3.2,16.8c-2.3,12.7-4.4,24.3-4.8,26.6c-0.8,3.9-14,9-20,11.8
			c-1.6,0.7-2.6,1.3-2.8,1.7C480.7,642.2,487.5,642.5,496.4,642.5z"/>
		<path class="st11" d="M496.4,642.5c15.8,0.1,38.6-0.5,41.6-1c4-0.6,12.8-53.6,15.4-72c-4.2-2.6-9.3-4.8-14.2-6.3
			c-10.6,1.3-23,3.5-23,3.5c-1.1,3.1-2.6,10-4.2,18c3.1,3.3,17.9,2.3,21.1,5.7c3.9,4.1-3.9,40.5-9,45.6
			C521.2,638.9,508.2,641.1,496.4,642.5z"/>
		<path class="st14" d="M483.9,639.9c6,1.2,19.2-2.8,22.2-6.5c3.3-4,3.6-18.7,2.6-32c-2.3,12.7-4.4,24.3-4.8,26.6
			C503.1,632,489.9,637.1,483.9,639.9z"/>
		<path class="st26" d="M496.4,634.1c-2-0.6,5.8,7.8,16.5,8.3l-6.6,0.1c0,0-12.2-4.2-12-7.3S496.4,634.1,496.4,634.1z"/>
	</g>
	<g>
		<path class="st11" d="M722.2,574.7c3.5,4,14.7,13.9,25.4,23c10.2,8.7,19.8,16.7,21.7,18.3c3.7,3.3-0.7,24.8,0.3,26.5
			c0.4,0.7,5.1-7,10.6-16.6c7.6-13.3,16.7-30.1,17.7-32.7c1.7-4.4-56.7-51.4-59.6-53.1C735.4,538.4,722.2,574.7,722.2,574.7z"/>
		<path class="st10" d="M769.7,642.5c0.4,0.7,5.1-7,10.6-16.6c2.1-9.7,4.5-21.9,2-26c-3.6-6-20.9-4.5-34.6-2.2
			c10.2,8.7,19.8,16.7,21.7,18.3C773,619.3,768.7,640.8,769.7,642.5z"/>
		<path class="st26" d="M798,593.2c0.6-1.9,2-3.5,2.3-2s-21.8,41.1-25,46.8c-3.1,5.7-7.1,8.4-5.7,4.6S798,593.2,798,593.2z"/>
		<path class="st26" d="M770.8,625.5c-1.5,1.4,9.7-1.1,15.4-10.1l-3.2,5.8c0,0-9.8,8.4-12.4,6.7C768,626.2,770.8,625.5,770.8,625.5z
			"/>
	</g>
	<g>
		<path class="st7" d="M624.7,472.6c2.6,10.1,5.9,18.7,8.5,23.1c2.2,3.7,11.1,13.3,22.2,24.5c18,18.1,41.8,40.2,52,47.7
			c2,1.4,3.7,3.1,5.4,4.8c12.1,13.1,15.6,32.8,19,29.3c3.9-3.9,10.3-22,13.7-26.9s25.7-8.8,25.7-12.2s-82.9-71.2-85.9-74.1
			c-2.7-2.6-5.1-35-12.5-64.8c-0.9-3.5-1.8-7-2.9-10.4c0,0-13.5,0.1-26.4,3.3c-8,1.9-15.8,5-20.1,10c-1.9,2.2-3.1,4.8-3.4,7.7
			C619.2,445.9,621.5,460.3,624.7,472.6z"/>
		<path class="st8" d="M623.2,425.2c0,0.5,0.1,1.1,0.3,1.7c3.2,11.6,32.1,35.9,32.1,35.9c-2.6,26.7,47.2,81.2,53.4,96.9
			c2.1,5.4,3.3,9.5,3.9,13.1c12.1,13.1,15.6,32.8,19,29.3c3.9-3.9,10.3-22,13.7-26.9s25.7-8.8,25.7-12.2s-82.9-71.2-85.9-74.1
			c-2.7-2.6-5.1-35-12.5-64.8c-4.5-2.7-9.2-4.5-14.2-5.2c-5.8-0.8-10.8-1.5-15.1-1.9C628.4,415.4,622.8,416.8,623.2,425.2z"/>
		<g>
			<g>
				<path class="st2" d="M744.2,576.3c0.1,0,0.1,0,0.2-0.1c0.1-0.1,0.1-0.2,0-0.3c-0.4-0.4-0.7-0.8-1.1-1.3c-0.1-0.1-0.2-0.1-0.3,0
					s-0.1,0.2,0,0.3C743.4,575.3,743.8,575.8,744.2,576.3C744,576.3,744.2,576.3,744.2,576.3z M741.9,573.8c0.1,0,0.1,0,0.2-0.1
					c0.1-0.1,0.1-0.2,0-0.3c-0.4-0.4-0.8-0.8-1.2-1.3c-0.1-0.1-0.2-0.1-0.3,0s-0.1,0.2,0,0.3C741,572.8,741.4,573.3,741.9,573.8
					C741.8,573.8,741.9,573.8,741.9,573.8z M739.5,571.3c0.1,0,0.1,0,0.2-0.1c0.1-0.1,0.1-0.2,0-0.3c-0.4-0.4-0.8-0.8-1.2-1.3
					c-0.1-0.1-0.2-0.1-0.3,0s-0.1,0.2,0,0.3C738.7,570.3,739,570.7,739.5,571.3C739.5,571.3,739.5,571.3,739.5,571.3z M737.2,568.8
					c0.1,0,0.1,0,0.2-0.1c0.1-0.1,0.1-0.2,0-0.3c-0.4-0.4-0.8-0.8-1.2-1.2c-0.1-0.1-0.2-0.1-0.3,0s-0.1,0.2,0,0.3
					C736.4,567.9,736.8,568.3,737.2,568.8C737,568.8,737.2,568.8,737.2,568.8z M734.9,566.3c0.1,0,0.1,0,0.2-0.1
					c0.1-0.1,0.1-0.2,0-0.3c-0.4-0.4-0.8-0.8-1.2-1.2c-0.1-0.1-0.2-0.1-0.3,0s-0.1,0.2,0,0.3C734,565.4,734.4,565.8,734.9,566.3
					C734.8,566.3,734.9,566.3,734.9,566.3z M732.5,563.8c0.1,0,0.1,0,0.2-0.1c0.1-0.1,0.1-0.2,0-0.3c-0.4-0.4-0.8-0.8-1.2-1.2
					c-0.1-0.1-0.2-0.1-0.3,0s-0.1,0.2,0,0.3C731.7,562.9,732,563.3,732.5,563.8C732.4,563.8,732.5,563.8,732.5,563.8z M730.2,561.4
					c0.1,0,0.1,0,0.2-0.1c0.1-0.1,0.1-0.2,0-0.3c-0.4-0.4-0.8-0.8-1.2-1.2c-0.1-0.1-0.2-0.1-0.3,0s-0.1,0.2,0,0.3
					C729.3,560.5,729.7,560.9,730.2,561.4C730,561.3,730,561.4,730.2,561.4z M727.8,558.9c0.1,0,0.1,0,0.2-0.1
					c0.1-0.1,0.1-0.2,0-0.3c-0.4-0.4-0.8-0.8-1.2-1.2c-0.1-0.1-0.2-0.1-0.3,0s-0.1,0.2,0,0.3C726.9,558,727.2,558.4,727.8,558.9
					C727.7,558.9,727.7,558.9,727.8,558.9z M725.4,556.5c0.1,0,0.1,0,0.2-0.1c0.1-0.1,0.1-0.3,0-0.3c-0.4-0.4-0.8-0.8-1.2-1.2
					c-0.1-0.1-0.3-0.1-0.3,0c-0.1,0.1-0.1,0.3,0,0.3C724.5,555.6,724.9,556,725.4,556.5C725.2,556.5,725.2,556.5,725.4,556.5z
					 M722.9,554.1c0.1,0,0.1,0,0.2-0.1c0.1-0.1,0.1-0.3,0-0.3c-0.4-0.4-0.8-0.8-1.2-1.2c-0.1-0.1-0.3-0.1-0.3,0
					c-0.1,0.1-0.1,0.3,0,0.3C722,553.2,722.4,553.6,722.9,554.1C722.8,554.1,722.9,554.1,722.9,554.1z M720.5,551.7
					c0.1,0,0.1,0,0.2-0.1c0.1-0.1,0.1-0.3,0-0.3c-0.4-0.4-0.8-0.8-1.2-1.2c-0.1-0.1-0.3-0.1-0.3,0c-0.1,0.1-0.1,0.3,0,0.3
					C719.6,550.8,720,551.2,720.5,551.7C720.4,551.7,720.4,551.7,720.5,551.7z M718,549.4c0.1,0,0.1,0,0.2-0.1
					c0.1-0.1,0.1-0.3,0-0.3c-0.4-0.4-0.8-0.8-1.3-1.2c-0.1-0.1-0.3-0.1-0.3,0c-0.1,0.1-0.1,0.3,0,0.3c0.4,0.4,0.8,0.8,1.2,1.2
					C717.9,549.3,717.9,549.4,718,549.4z M715.5,547c0.1,0,0.1,0,0.2-0.1c0.1-0.1,0.1-0.3,0-0.3c-0.4-0.4-0.8-0.8-1.3-1.2
					c-0.1-0.1-0.3-0.1-0.3,0c-0.1,0.1-0.1,0.3,0,0.3C714.5,546.1,714.9,546.5,715.5,547C715.4,547,715.4,547,715.5,547z M713,544.7
					c0.1,0,0.1,0,0.2-0.1c0.1-0.1,0.1-0.3,0-0.3c-0.4-0.4-0.8-0.8-1.3-1.1c-0.1-0.1-0.3-0.1-0.3,0c-0.1,0.1-0.1,0.3,0,0.3
					C712,543.9,712.4,544.3,713,544.7C712.9,544.7,712.9,544.7,713,544.7z M710.4,542.4c0.1,0,0.1,0,0.2-0.1c0.1-0.1,0.1-0.3,0-0.3
					c-0.4-0.4-0.9-0.8-1.3-1.1c-0.1-0.1-0.3-0.1-0.3,0c-0.1,0.1-0.1,0.3,0,0.3C709.4,541.6,709.9,541.9,710.4,542.4
					C710.2,542.4,710.4,542.4,710.4,542.4z M707.8,540.2c0.1,0,0.1,0,0.2-0.1c0.1-0.1,0.1-0.3,0-0.3c-0.4-0.4-0.9-0.7-1.3-1.1
					c-0.1-0.1-0.3-0.1-0.3,0c-0.1,0.1-0.1,0.3,0,0.3C706.8,539.4,707.3,539.7,707.8,540.2C707.7,540.2,707.8,540.2,707.8,540.2z
					 M705.2,538c0.1,0,0.1,0,0.2-0.1c0.1-0.1,0.1-0.3,0-0.3c-0.4-0.4-0.9-0.7-1.3-1.1c-0.1-0.1-0.3-0.1-0.3,0
					c-0.1,0.1-0.1,0.3,0,0.3C704.2,537.2,704.7,537.5,705.2,538C705,538,705.2,538,705.2,538z M702.5,535.9c0.1,0,0.1,0,0.2-0.1
					c0.1-0.1,0.1-0.3,0-0.3c-0.4-0.3-0.8-0.6-1.2-1l-0.1-0.1c-0.1-0.1-0.3-0.1-0.3,0c-0.1,0.1-0.1,0.3,0,0.3l0.1,0.1
					c0.4,0.3,0.8,0.6,1.2,0.9C702.4,535.8,702.5,535.9,702.5,535.9z M699.8,533.8c0.1,0,0.1,0,0.2-0.1c0.1-0.1,0.1-0.3,0-0.3
					c-0.5-0.3-0.9-0.7-1.4-1c-0.1-0.1-0.3-0.1-0.3,0c-0.1,0.1-0.1,0.3,0,0.3C698.8,533.1,699.2,533.4,699.8,533.8
					C699.7,533.8,699.8,533.8,699.8,533.8z M697,531.7c0.1,0,0.1,0,0.2-0.1c0.1-0.1,0.1-0.3,0-0.3c-0.4-0.4-0.9-0.7-1.3-1.1
					c-0.1-0.1-0.3-0.1-0.3,0c-0.1,0.1-0.1,0.3,0,0.3C696.1,530.9,696.6,531.2,697,531.7C697,531.6,697,531.7,697,531.7z
					 M694.5,529.5c0.1,0,0.1,0,0.2-0.1c0.1-0.1,0.1-0.3,0-0.3c-0.4-0.4-0.9-0.7-1.3-1.1c-0.1-0.1-0.3-0.1-0.3,0
					c-0.1,0.1-0.1,0.3,0,0.3C693.5,528.7,694,529,694.5,529.5C694.2,529.5,694.4,529.5,694.5,529.5z M691.8,527.4
					c0.1,0,0.1,0,0.2-0.1c0.1-0.1,0.1-0.3,0-0.3c-0.4-0.4-0.9-0.7-1.3-1.1c-0.1-0.1-0.3-0.1-0.3,0c-0.1,0.1-0.1,0.3,0,0.3
					C690.8,526.6,691.3,526.9,691.8,527.4C691.7,527.4,691.7,527.4,691.8,527.4z M689,525.2c0.1,0,0.1,0,0.2-0.1
					c0.1-0.1,0.1-0.3,0-0.3c-0.4-0.4-0.9-0.7-1.3-1.1c-0.1-0.1-0.3-0.1-0.3,0c-0.1,0.1-0.1,0.3,0,0.3
					C688.1,524.4,688.6,524.7,689,525.2C689,525.2,689,525.2,689,525.2z M686.5,523c0.1,0,0.1,0,0.2-0.1c0.1-0.1,0.1-0.3,0-0.3
					c-0.4-0.4-0.9-0.7-1.3-1.1c-0.1-0.1-0.3-0.1-0.3,0c-0.1,0.1-0.1,0.3,0,0.3C685.5,522.2,686,522.6,686.5,523
					C686.4,523,686.5,523,686.5,523z M684,520.7c0.1,0,0.1,0,0.2-0.1c0.1-0.1,0.1-0.3,0-0.3c-0.4-0.4-0.8-0.8-1.3-1.1
					c-0.1-0.1-0.3-0.1-0.3,0c-0.1,0.1-0.1,0.3,0,0.3C683,519.9,683.4,520.3,684,520.7C683.8,520.7,683.9,520.7,684,520.7z
					 M681.4,518.4c0.1,0,0.1,0,0.2-0.1c0.1-0.1,0.1-0.3,0-0.3c-0.4-0.4-0.8-0.8-1.2-1.2c-0.1-0.1-0.3-0.1-0.3,0
					c-0.1,0.1-0.1,0.3,0,0.3C680.5,517.5,680.9,517.9,681.4,518.4C681.2,518.4,681.4,518.4,681.4,518.4z M679,516.1
					c0.1,0,0.1,0,0.2-0.1c0.1-0.1,0.1-0.3,0-0.3c-0.4-0.4-0.8-0.8-1.2-1.2c-0.1-0.1-0.2-0.1-0.3,0s-0.1,0.2,0,0.3
					C678.1,515.2,678.5,515.6,679,516.1C678.8,516,678.9,516.1,679,516.1z M676.5,513.6c0.1,0,0.1,0,0.2-0.1c0.1-0.1,0.1-0.2,0-0.3
					c-0.4-0.4-0.8-0.8-1.2-1.2c-0.1-0.1-0.2-0.1-0.3,0s-0.1,0.2,0,0.3C675.7,512.7,676,513.1,676.5,513.6
					C676.4,513.6,676.5,513.6,676.5,513.6z M674.2,511.1c0.1,0,0.1,0,0.2-0.1c0.1-0.1,0.1-0.2,0-0.3c-0.4-0.4-0.8-0.8-1.1-1.3
					c-0.1-0.1-0.2-0.1-0.3,0s-0.1,0.2,0,0.3C673.4,510.1,673.8,510.6,674.2,511.1C674,511.1,674.2,511.1,674.2,511.1z M672,508.6
					c0.1,0,0.1,0,0.2-0.1c0.1-0.1,0.1-0.2,0-0.3c-0.4-0.4-0.7-0.9-1.1-1.3c-0.1-0.1-0.2-0.1-0.3,0s-0.1,0.2,0,0.3
					C671.2,507.6,671.5,508.1,672,508.6C671.8,508.5,671.9,508.6,672,508.6z M669.8,505.9c0.1,0,0.1,0,0.2-0.1
					c0.1-0.1,0.1-0.2,0-0.3c-0.4-0.4-0.7-0.9-1.1-1.3c-0.1-0.1-0.2-0.1-0.3,0s-0.1,0.2,0,0.3C668.9,505,669.3,505.4,669.8,505.9
					C669.5,505.9,669.7,505.9,669.8,505.9z M667.7,503.2C667.8,503.2,667.8,503.2,667.7,503.2c0.2-0.1,0.2-0.2,0.2-0.3
					c-0.3-0.5-0.7-0.9-1-1.4c-0.1-0.1-0.2-0.1-0.3-0.1c-0.1,0.1-0.1,0.2-0.1,0.3c0.3,0.5,0.7,0.9,1,1.4
					C667.5,503.2,667.5,503.2,667.7,503.2z M665.7,500.4L665.7,500.4c0.2-0.1,0.2-0.2,0.2-0.3c-0.3-0.5-0.6-0.9-0.9-1.4
					c-0.1-0.1-0.2-0.1-0.3-0.1c-0.1,0.1-0.1,0.2-0.1,0.3c0.3,0.5,0.6,1,1,1.4C665.5,500.4,665.5,500.4,665.7,500.4z M663.8,497.6
					L663.8,497.6c0.2-0.1,0.2-0.2,0.2-0.3c-0.3-0.5-0.6-1-0.9-1.5c-0.1-0.1-0.2-0.2-0.3-0.1c-0.1,0.1-0.2,0.2-0.1,0.3
					c0.3,0.5,0.6,1,0.9,1.5C663.7,497.5,663.8,497.6,663.8,497.6z M662,494.6L662,494.6c0.2-0.1,0.3-0.2,0.2-0.3
					c-0.3-0.5-0.6-1-0.8-1.5c-0.1-0.1-0.2-0.2-0.3-0.1c-0.1,0.1-0.2,0.2-0.1,0.3c0.3,0.5,0.5,1,0.8,1.5
					C661.9,494.6,662,494.6,662,494.6z M660.5,491.6L660.5,491.6c0.2-0.1,0.3-0.2,0.2-0.3c-0.3-0.5-0.5-1-0.8-1.5
					c-0.1-0.1-0.2-0.2-0.3-0.1c-0.1,0.1-0.2,0.2-0.1,0.3c0.2,0.5,0.5,1,0.8,1.5C660.2,491.6,660.4,491.6,660.5,491.6z M659,488.5
					L659,488.5c0.2-0.1,0.3-0.2,0.2-0.3c-0.2-0.5-0.5-1-0.7-1.6c-0.1-0.1-0.2-0.2-0.3-0.1c-0.1,0.1-0.2,0.2-0.1,0.3
					c0.2,0.5,0.5,1.1,0.7,1.6C658.8,488.5,658.9,488.5,659,488.5z M657.5,485.4C657.7,485.4,657.7,485.4,657.5,485.4
					c0.2-0.1,0.3-0.2,0.2-0.3c-0.2-0.5-0.4-1.1-0.6-1.6c0-0.1-0.2-0.2-0.3-0.1c-0.1,0-0.2,0.2-0.1,0.3c0.2,0.5,0.4,1.1,0.6,1.6
					C657.4,485.3,657.5,485.4,657.5,485.4z M656.4,482.2C656.5,482.2,656.5,482.2,656.4,482.2c0.2-0.1,0.3-0.2,0.2-0.3
					c-0.2-0.5-0.4-1.1-0.5-1.6c0-0.1-0.2-0.2-0.3-0.2s-0.2,0.2-0.2,0.3c0.2,0.5,0.4,1.1,0.6,1.6
					C656.2,482.1,656.2,482.2,656.4,482.2z M655.4,479L655.4,479c0.2,0,0.3-0.2,0.2-0.3c-0.2-0.5-0.3-1.1-0.5-1.6
					c0-0.1-0.2-0.2-0.3-0.2s-0.2,0.2-0.2,0.3c0.2,0.5,0.3,1.1,0.5,1.6C655.2,478.9,655.2,479,655.4,479z M654.4,475.7
					C654.5,475.7,654.5,475.7,654.4,475.7c0.2,0,0.3-0.2,0.2-0.3c-0.1-0.5-0.3-1.1-0.4-1.7c0-0.1-0.2-0.2-0.3-0.2s-0.2,0.2-0.2,0.3
					c0.1,0.6,0.3,1.1,0.4,1.7C654.2,475.6,654.2,475.7,654.4,475.7z M653.7,472.3L653.7,472.3c0.2,0,0.3-0.2,0.2-0.3
					c-0.1-0.6-0.2-1.1-0.3-1.7c0-0.1-0.2-0.2-0.3-0.2s-0.2,0.2-0.2,0.3c0.1,0.6,0.2,1.1,0.3,1.7
					C653.4,472.3,653.5,472.3,653.7,472.3z M653,469L653,469c0.2,0,0.3-0.2,0.2-0.3c-0.1-0.6-0.2-1.1-0.3-1.7c0-0.1-0.1-0.2-0.3-0.2
					c-0.1,0-0.2,0.1-0.2,0.3c0.1,0.6,0.2,1.1,0.3,1.7C652.8,468.9,652.9,469,653,469z"/>
			</g>
		</g>
		<g>
			<g>
				<path class="st2" d="M657,527.2L657,527.2L657,527.2z M656.7,520.7L656.7,520.7c0.2,0,0.3-0.1,0.2-0.3c-0.1-0.6-0.1-1.1-0.2-1.7
					c0-0.1-0.1-0.2-0.3-0.2c-0.1,0-0.2,0.1-0.2,0.3c0.1,0.6,0.1,1.1,0.2,1.7C656.5,520.6,656.5,520.7,656.7,520.7z M656.2,517.3
					L656.2,517.3c0.2,0,0.3-0.2,0.2-0.3c-0.1-0.6-0.2-1.1-0.3-1.7c0-0.1-0.2-0.2-0.3-0.2s-0.2,0.2-0.2,0.3c0.1,0.5,0.2,1.1,0.3,1.7
					C656,517.2,656,517.3,656.2,517.3z M655.5,513.9L655.5,513.9c0.2,0,0.3-0.2,0.2-0.3c-0.1-0.6-0.3-1.1-0.5-1.7
					c0-0.1-0.2-0.2-0.3-0.2s-0.2,0.2-0.2,0.3c0.2,0.5,0.3,1.1,0.5,1.6C655.2,513.9,655.4,513.9,655.5,513.9z M654.5,510.7
					C654.5,510.7,654.5,510.7,654.5,510.7c0.2-0.1,0.3-0.2,0.2-0.3c-0.2-0.5-0.4-1.1-0.6-1.6c-0.1-0.1-0.2-0.2-0.3-0.1
					c-0.1,0-0.2,0.2-0.1,0.3c0.2,0.5,0.4,1.1,0.6,1.6C654.2,510.6,654.4,510.7,654.5,510.7z M653.2,507.5L653.2,507.5
					c0.2-0.1,0.3-0.2,0.2-0.3c-0.2-0.5-0.5-1-0.7-1.5c-0.1-0.1-0.2-0.2-0.3-0.1c-0.1,0.1-0.2,0.2-0.1,0.3c0.3,0.5,0.5,1,0.7,1.5
					C653,507.4,653,507.5,653.2,507.5z M651.7,504.5L651.7,504.5c0.2-0.1,0.3-0.2,0.2-0.3c-0.3-0.5-0.6-1-0.9-1.5
					c-0.1-0.1-0.2-0.1-0.3-0.1c-0.1,0.1-0.1,0.2-0.1,0.3c0.3,0.5,0.6,1,0.9,1.4C651.5,504.4,651.5,504.5,651.7,504.5z M649.8,501.6
					L649.8,501.6c0.2-0.1,0.2-0.2,0.2-0.3c-0.3-0.5-0.7-0.9-1.1-1.4c-0.1-0.1-0.2-0.1-0.3,0s-0.1,0.2,0,0.3c0.4,0.4,0.7,0.9,1,1.3
					C649.7,501.6,649.7,501.6,649.8,501.6z M647.5,499c0.1,0,0.1,0,0.2-0.1c0.1-0.1,0.1-0.2,0-0.3c-0.4-0.4-0.8-0.8-1.2-1.2
					c-0.1-0.1-0.3-0.1-0.3,0c-0.1,0.1-0.1,0.3,0,0.3C646.7,498.1,647,498.5,647.5,499L647.5,499z M645,496.6c0.1,0,0.1,0,0.2-0.1
					c0.1-0.1,0.1-0.3,0-0.3c-0.4-0.3-0.8-0.7-1.2-1.2c-0.1-0.1-0.2-0.1-0.3,0s-0.1,0.2,0,0.3C644.2,495.8,644.5,496.2,645,496.6
					C645,496.6,645,496.6,645,496.6z M642.8,494.1C642.8,494.1,642.8,494.1,642.8,494.1c0.2-0.2,0.2-0.3,0.1-0.4
					c-0.3-0.4-0.7-0.9-1-1.4c-0.1-0.1-0.2-0.1-0.3-0.1s-0.1,0.2-0.1,0.3c0.3,0.5,0.7,1,1,1.4C642.7,494.1,642.8,494.1,642.8,494.1z
					 M640.9,491.3L640.9,491.3c0.2-0.1,0.2-0.2,0.2-0.3c-0.3-0.4-0.6-0.9-0.9-1.4c-0.1-0.1-0.2-0.2-0.3-0.1
					c-0.1,0.1-0.2,0.2-0.1,0.3c0.3,0.5,0.6,1,0.9,1.5C640.7,491.2,640.8,491.3,640.9,491.3z M639,488.4L639,488.4
					c0.2-0.1,0.3-0.2,0.2-0.3c-0.3-0.5-0.6-1-0.9-1.5c-0.1-0.1-0.2-0.2-0.3-0.1c-0.1,0.1-0.2,0.2-0.1,0.3c0.3,0.5,0.6,1,0.9,1.5
					C638.9,488.3,639,488.4,639,488.4z M637.2,485.4L637.2,485.4c0.2-0.1,0.3-0.2,0.2-0.3c-0.3-0.5-0.6-1-0.9-1.5
					c-0.1-0.1-0.2-0.2-0.3-0.1c-0.1,0.1-0.2,0.2-0.1,0.3c0.3,0.5,0.6,1,0.9,1.5C637.2,485.4,637.2,485.4,637.2,485.4z M635.5,482.5
					L635.5,482.5c0.2-0.1,0.3-0.2,0.2-0.3c-0.3-0.5-0.6-1-0.9-1.5c-0.1-0.1-0.2-0.1-0.3-0.1c-0.1,0.1-0.1,0.2-0.1,0.3
					c0.3,0.5,0.6,1,0.9,1.5C635.4,482.4,635.5,482.5,635.5,482.5z M633.8,479.6L633.8,479.6c0.2-0.1,0.2-0.2,0.2-0.3
					c-0.3-0.5-0.7-1-1-1.4c-0.1-0.1-0.2-0.1-0.3-0.1c-0.1,0.1-0.1,0.2-0.1,0.3c0.3,0.4,0.6,0.9,1,1.4
					C633.5,479.5,633.7,479.6,633.8,479.6z M631.8,476.8C631.8,476.8,631.8,476.8,631.8,476.8c0.2-0.1,0.2-0.2,0.1-0.3
					c-0.4-0.5-0.7-0.9-1.1-1.3c-0.1-0.1-0.2-0.1-0.3,0s-0.1,0.2,0,0.3c0.3,0.4,0.7,0.8,1.1,1.3C631.7,476.7,631.7,476.8,631.8,476.8
					z M629.5,474.2c0.1,0,0.1,0,0.2-0.1c0.1-0.1,0.1-0.3,0-0.3c-0.4-0.4-0.9-0.8-1.3-1.1c-0.1-0.1-0.3-0.1-0.3,0
					c-0.1,0.1-0.1,0.3,0,0.3c0.4,0.3,0.8,0.7,1.3,1.1C629.5,474.2,629.5,474.2,629.5,474.2z M626.9,472.2c0.1,0,0.2-0.1,0.2-0.1
					c0.1-0.1,0-0.3-0.1-0.3c-0.6-0.3-1.1-0.5-1.7-0.6c-0.1,0-0.3,0.1-0.3,0.2s0.1,0.3,0.2,0.3c0.5,0.1,1,0.3,1.5,0.5
					C626.8,472.2,626.8,472.2,626.9,472.2z"/>
			</g>
		</g>
		<path class="st9" d="M624.7,472.6c2.6,10.1,5.9,18.7,8.5,23.1c2.2,3.7,11.1,13.3,22.2,24.5c-1.1-9.6-4.9-17.7-10.8-22.6
			c-2.8-2.3-5.4-6.8-8.2-11.5C632.8,479.8,628.7,472.8,624.7,472.6z"/>
	</g>
	<g>
		<path class="st7" d="M508.2,580.9c1.5,5.9,11.2-1,20-1.5c4.2-0.2,10.7,1.3,16.7,2.9c6.4,1.7,12.3,3.2,14,2.5
			c3.4-1.5-8.8-13.2,9.4-58.1s66.3-39.5,93.1-53.7c26.9-14.2,40.5-33.7,25.3-74.8c0,0-52.2-39.9-64.9-3.7c-1.3,3.6-2.9,6.9-4.9,10
			c-8.9,14.1-24.3,23.6-38.8,33.2c-14.3,9.5-27.8,19.2-33.5,33.9c-1.9,4.8-4,10.4-6.2,16.4C525.2,523.5,507,575.9,508.2,580.9z"/>
		<path class="st8" d="M545,582.3c6.4,1.7,12.3,3.2,14,2.5c3.4-1.5-8.8-13.2,9.4-58.1s66.3-39.5,93.1-53.7
			c26.9-14.2,40.5-33.7,25.3-74.8c0,0-52.2-39.9-64.9-3.7c-1.3,3.6-2.9,6.9-4.9,10c19,3.3,36.5,22.2,27,42.3
			c-10.2,21.6-62.3,21.7-77.4,49.6C555.7,516.9,548.2,560.6,545,582.3z"/>
		<g>
			<path class="st27" d="M691,416.6c1.8,13.7-0.1,27.3-6.1,35.9s-19.9-8.8-20.9-11s6.6-28.2,7.1-29.9
				C671.7,409.9,690.8,414.4,691,416.6z"/>
			<g>
				<path class="st2" d="M680.8,453.4L680.8,453.4c0.5,0,0.9-0.1,1.3-0.3c0.1-0.1,0.2-0.2,0.1-0.3c-0.1-0.1-0.2-0.2-0.3-0.1
					c-0.3,0.1-0.7,0.2-1.1,0.2c-0.1,0-0.2,0.1-0.2,0.3C680.5,453.3,680.7,453.4,680.8,453.4z M679.5,453.3c0.1,0,0.2-0.1,0.2-0.2
					s-0.1-0.3-0.2-0.3c-0.4-0.1-0.7-0.2-1.1-0.3c-0.1,0-0.3,0-0.3,0.1s0,0.3,0.1,0.3C678.8,453.1,679.2,453.2,679.5,453.3
					L679.5,453.3z M683,452.4c0.1,0,0.1,0,0.2-0.1c0.2-0.2,0.4-0.4,0.6-0.7c0.1-0.1,0.1-0.2,0.2-0.3c0.1-0.1,0-0.3-0.1-0.3
					c-0.1-0.1-0.3,0-0.3,0.1c-0.1,0.1-0.1,0.2-0.2,0.3c-0.2,0.2-0.4,0.5-0.5,0.7C682.8,452.2,682.8,452.3,683,452.4
					C682.9,452.4,682.9,452.4,683,452.4z M677.2,452.4c0.1,0,0.2,0,0.2-0.1c0.1-0.1,0-0.3-0.1-0.3c-0.3-0.2-0.7-0.4-1-0.6
					c-0.1-0.1-0.3,0-0.3,0.1c-0.1,0.1,0,0.3,0.1,0.3C676.6,452,676.9,452.2,677.2,452.4L677.2,452.4z M675.2,451.1
					c0.1,0,0.2,0,0.2-0.1c0.1-0.1,0.1-0.3-0.1-0.3c-0.3-0.2-0.6-0.5-1-0.7c-0.1-0.1-0.3-0.1-0.3,0c-0.1,0.1-0.1,0.3,0,0.3
					c0.3,0.3,0.7,0.5,1,0.7C675.2,451.1,675.2,451.1,675.2,451.1z M684.4,450.4c0.1,0,0.2,0,0.2-0.1c0.2-0.3,0.4-0.7,0.6-1.1
					c0.1-0.1,0-0.3-0.1-0.3c-0.1-0.1-0.3,0-0.3,0.1c-0.2,0.4-0.4,0.7-0.6,1c-0.1,0.1,0,0.3,0.1,0.3
					C684.2,450.4,684.4,450.4,684.4,450.4z M673.2,449.6c0.1,0,0.1,0,0.2-0.1c0.1-0.1,0.1-0.3,0-0.3c-0.3-0.3-0.6-0.5-0.9-0.8
					c-0.1-0.1-0.3-0.1-0.3,0c-0.1,0.1-0.1,0.3,0,0.3c0.3,0.3,0.6,0.6,0.9,0.8C673.2,449.6,673.2,449.6,673.2,449.6z M685.5,448.3
					c0.1,0,0.2,0,0.2-0.1c0.2-0.4,0.4-0.7,0.5-1.1c0.1-0.1,0-0.3-0.1-0.3c-0.1-0.1-0.3,0-0.3,0.1c-0.2,0.4-0.3,0.7-0.5,1.1
					C685.3,448.1,685.4,448.3,685.5,448.3L685.5,448.3z M671.5,448c0.1,0,0.1,0,0.2-0.1c0.1-0.1,0.1-0.3,0-0.3
					c-0.3-0.3-0.6-0.6-0.9-0.9c-0.1-0.1-0.2-0.1-0.3,0s-0.1,0.2,0,0.3c0.3,0.3,0.6,0.6,0.9,0.9C671.4,448,671.5,448,671.5,448z
					 M669.8,446.2c0.1,0,0.1,0,0.2-0.1c0.1-0.1,0.1-0.2,0-0.3c-0.3-0.3-0.6-0.6-0.8-0.9c-0.1-0.1-0.2-0.1-0.3,0s-0.1,0.2,0,0.3
					c0.3,0.3,0.5,0.6,0.8,0.9C669.7,446.2,669.7,446.2,669.8,446.2z M686.5,446.1c0.1,0,0.2-0.1,0.2-0.2c0.2-0.4,0.3-0.8,0.4-1.1
					c0-0.1,0-0.3-0.1-0.3s-0.3,0-0.3,0.1c-0.1,0.4-0.3,0.8-0.4,1.1C686.2,445.9,686.4,446,686.5,446.1
					C686.5,446.1,686.5,446.1,686.5,446.1z M668.2,444.4c0.1,0,0.1,0,0.2-0.1c0.1-0.1,0.1-0.2,0-0.3c-0.3-0.3-0.5-0.6-0.8-0.9
					c-0.1-0.1-0.2-0.1-0.3,0s-0.1,0.2,0,0.3c0.2,0.3,0.5,0.6,0.8,0.9C668,444.4,668,444.4,668.2,444.4z M687.5,443.8
					c0.1,0,0.2-0.1,0.2-0.2c0.1-0.4,0.3-0.8,0.4-1.2c0-0.1,0-0.3-0.2-0.3c-0.1,0-0.3,0-0.3,0.2c-0.1,0.4-0.2,0.8-0.4,1.2
					C687.2,443.6,687.2,443.7,687.5,443.8C687.4,443.8,687.4,443.8,687.5,443.8z M666.5,442.5C666.6,442.5,666.6,442.5,666.5,442.5
					c0.2-0.1,0.2-0.2,0.1-0.3c-0.3-0.4-0.5-0.7-0.7-1c-0.1-0.1-0.2-0.1-0.3-0.1c-0.1,0.1-0.1,0.2-0.1,0.3c0.2,0.3,0.4,0.6,0.7,1
					C666.5,442.5,666.5,442.5,666.5,442.5z M688.2,441.5c0.1,0,0.2-0.1,0.2-0.2c0.1-0.4,0.2-0.8,0.3-1.2c0-0.1,0-0.3-0.2-0.3
					c-0.1,0-0.3,0-0.3,0.2c-0.1,0.4-0.2,0.8-0.3,1.2C687.9,441.3,688,441.4,688.2,441.5C688,441.5,688.2,441.5,688.2,441.5z
					 M665.8,440.4c0.1,0,0.2-0.1,0.2-0.2c0-0.3,0.1-0.7,0.2-1.2c0-0.1-0.1-0.3-0.2-0.3c-0.1,0-0.3,0.1-0.3,0.2
					c-0.1,0.5-0.1,0.9-0.2,1.2C665.5,440.2,665.5,440.3,665.8,440.4C665.7,440.4,665.7,440.4,665.8,440.4z M688.8,439.1
					c0.1,0,0.2-0.1,0.2-0.2c0.1-0.4,0.2-0.8,0.2-1.2c0-0.1-0.1-0.3-0.2-0.3c-0.1,0-0.3,0.1-0.3,0.2c-0.1,0.4-0.2,0.8-0.2,1.2
					C688.5,438.9,688.5,439.1,688.8,439.1C688.7,439.1,688.7,439.1,688.8,439.1z M666,437.9c0.1,0,0.2-0.1,0.2-0.2
					c0.1-0.4,0.2-0.8,0.2-1.2c0-0.1-0.1-0.3-0.2-0.3c-0.1,0-0.3,0.1-0.3,0.2c-0.1,0.4-0.2,0.8-0.2,1.2
					C665.9,437.8,666,437.9,666,437.9L666,437.9z M689.2,436.7c0.1,0,0.2-0.1,0.2-0.2c0.1-0.4,0.1-0.8,0.2-1.2
					c0-0.1-0.1-0.3-0.2-0.3c-0.1,0-0.3,0.1-0.3,0.2c-0.1,0.4-0.1,0.8-0.2,1.2C689,436.6,689,436.7,689.2,436.7L689.2,436.7z
					 M666.5,435.6c0.1,0,0.2-0.1,0.2-0.2c0.1-0.4,0.2-0.8,0.3-1.2c0-0.1-0.1-0.3-0.2-0.3c-0.1,0-0.3,0.1-0.3,0.2
					c-0.1,0.4-0.2,0.8-0.3,1.2C666.4,435.4,666.5,435.5,666.5,435.6L666.5,435.6z M689.5,434.3c0.1,0,0.2-0.1,0.2-0.2
					c0-0.4,0.1-0.8,0.1-1.2c0-0.1-0.1-0.3-0.2-0.3c-0.1,0-0.3,0.1-0.3,0.2c0,0.4-0.1,0.8-0.1,1.2
					C689.2,434.1,689.4,434.3,689.5,434.3L689.5,434.3z M667.2,433.2c0.1,0,0.2-0.1,0.2-0.2c0.1-0.4,0.2-0.8,0.3-1.2
					c0-0.1,0-0.3-0.2-0.3c-0.1,0-0.3,0-0.3,0.2c-0.1,0.4-0.2,0.8-0.3,1.2C666.9,433,667,433.1,667.2,433.2L667.2,433.2z
					 M689.8,431.9c0.1,0,0.2-0.1,0.2-0.2c0-0.4,0.1-0.8,0.1-1.2c0-0.1-0.1-0.3-0.2-0.3c-0.1,0-0.3,0.1-0.3,0.2
					c0,0.4-0.1,0.8-0.1,1.2C689.5,431.7,689.7,431.8,689.8,431.9L689.8,431.9z M667.8,430.8c0.1,0,0.2-0.1,0.2-0.2
					c0.1-0.4,0.2-0.8,0.3-1.2c0-0.1,0-0.3-0.2-0.3c-0.1,0-0.3,0-0.3,0.2c-0.1,0.4-0.2,0.8-0.3,1.2
					C667.5,430.6,667.5,430.8,667.8,430.8C667.7,430.8,667.8,430.8,667.8,430.8z M690,429.4c0.1,0,0.2-0.1,0.2-0.2
					c0-0.4,0-0.8,0-1.2c0-0.1-0.1-0.2-0.2-0.2c-0.1,0-0.2,0.1-0.2,0.2c0,0.4,0,0.8,0,1.2C689.7,429.3,689.8,429.4,690,429.4
					L690,429.4z M668.4,428.4c0.1,0,0.2-0.1,0.2-0.2c0.1-0.4,0.2-0.8,0.3-1.2c0-0.1,0-0.3-0.2-0.3c-0.1,0-0.3,0-0.3,0.2
					c-0.1,0.4-0.2,0.8-0.3,1.2C668,428.3,668.2,428.4,668.4,428.4C668.2,428.4,668.4,428.4,668.4,428.4z M690,427
					c0.1,0,0.2-0.1,0.2-0.2v-0.4c0-0.3,0-0.6,0-0.9c0-0.1-0.1-0.2-0.2-0.2c-0.1,0-0.2,0.1-0.2,0.2c0,0.3,0,0.6,0,0.9v0.4
					C689.8,426.9,689.9,427,690,427L690,427z M669,426.1c0.1,0,0.2-0.1,0.2-0.2c0.1-0.4,0.2-0.8,0.3-1.2c0-0.1,0-0.3-0.2-0.3
					c-0.1,0-0.3,0-0.3,0.2c-0.1,0.4-0.2,0.8-0.3,1.2C668.7,425.9,668.8,426,669,426.1C668.9,426.1,669,426.1,669,426.1z M690,424.5
					L690,424.5c0.1,0,0.2-0.1,0.2-0.3c0-0.4,0-0.8,0-1.2c0-0.1-0.1-0.2-0.3-0.2c-0.1,0-0.2,0.1-0.2,0.3c0,0.4,0,0.8,0,1.2
					C689.8,424.4,689.9,424.5,690,424.5z M669.5,423.7c0.1,0,0.2-0.1,0.2-0.2c0.1-0.4,0.2-0.8,0.3-1.2c0-0.1,0-0.3-0.2-0.3
					c-0.1,0-0.3,0-0.3,0.2c-0.1,0.4-0.2,0.8-0.3,1.2C669.4,423.5,669.4,423.7,669.5,423.7L669.5,423.7z M689.9,422.1L689.9,422.1
					c0.2,0,0.3-0.1,0.2-0.3c0-0.4-0.1-0.8-0.1-1.2c0-0.1-0.1-0.2-0.3-0.2c-0.1,0-0.2,0.1-0.2,0.3c0,0.4,0.1,0.8,0.1,1.2
					C689.5,422,689.8,422.1,689.9,422.1z M670.2,421.4c0.1,0,0.2-0.1,0.2-0.2c0.1-0.4,0.2-0.8,0.3-1.2c0-0.1,0-0.3-0.2-0.3
					c-0.1,0-0.3,0-0.3,0.2c-0.1,0.4-0.2,0.8-0.3,1.2C670,421.2,670,421.3,670.2,421.4C670.2,421.4,670.2,421.4,670.2,421.4z
					 M689.7,419.7L689.7,419.7c0.2,0,0.3-0.1,0.2-0.3c0-0.4-0.1-0.8-0.1-1.2c0-0.1-0.1-0.2-0.3-0.2c-0.1,0-0.2,0.1-0.2,0.3
					c0,0.4,0.1,0.8,0.1,1.2C689.5,419.6,689.5,419.7,689.7,419.7z M670.9,419c0.1,0,0.2-0.1,0.2-0.2l0.3-1.2c0-0.1,0-0.3-0.2-0.3
					c-0.1,0-0.3,0-0.3,0.2l-0.3,1.2C670.5,418.8,670.7,419,670.9,419L670.9,419z M671.5,416.7c0.1,0,0.2-0.1,0.2-0.2l0.3-1.2
					c0-0.1,0-0.3-0.2-0.3c-0.1,0-0.3,0-0.3,0.2l-0.3,1.2C671.2,416.5,671.4,416.6,671.5,416.7C671.5,416.7,671.5,416.7,671.5,416.7z
					 M672.2,414.3c0.1,0,0.2-0.1,0.2-0.2l0.3-1.1v-0.1c0-0.1-0.1-0.2-0.2-0.2l0,0c-0.1,0-0.2,0.1-0.2,0.2l-0.3,1.2
					C672,414.1,672,414.3,672.2,414.3L672.2,414.3z"/>
			</g>
		</g>
		<g>
			<path class="st2" d="M566.4,462.8c0.1-0.1,0.3-0.1,0.3,0c0.1,0.1,0.1,0.3,0,0.3c-0.3,0.3-0.6,0.5-1,0.8l-0.1,0.1
				c-0.1,0-0.1,0-0.2-0.1c0-0.1-0.1-0.1,0-0.2c0-0.1,0-0.1,0.1-0.2C565.7,463.4,566,463.1,566.4,462.8z"/>
			<path class="st2" d="M574.5,454c0.1-0.1,0.2-0.1,0.3-0.1s0.1,0.1,0.1,0.2s0,0.1,0,0.2c-0.2,0.3-0.4,0.7-0.7,1
				c0,0.1-0.1,0.1-0.2,0.1h-0.1c-0.1,0-0.1-0.1-0.1-0.2s0-0.1,0-0.2C574,454.7,574.4,454.3,574.5,454z"/>
			<path class="st2" d="M573.2,456c0.1-0.1,0.2-0.1,0.3,0s0.1,0.2,0,0.3c-0.2,0.3-0.5,0.7-0.8,1c0,0.1-0.1,0.1-0.2,0.1
				c-0.1,0-0.1,0-0.2-0.1c-0.1,0-0.1-0.1-0.1-0.2s0-0.1,0.1-0.2C572.7,456.6,573,456.3,573.2,456z"/>
			<path class="st2" d="M568.2,461.3c0,0,0.1-0.1,0.2-0.1c0.1,0,0.1,0,0.2,0.1c0,0,0.1,0.1,0.1,0.2s0,0.1-0.1,0.2
				c-0.3,0.3-0.6,0.5-0.9,0.8c0,0-0.1,0.1-0.2,0.1c-0.1,0-0.1,0-0.2-0.1c-0.1-0.1-0.1-0.3,0-0.3
				C567.5,461.8,567.9,461.6,568.2,461.3z"/>
			<path class="st2" d="M564.2,464.6l0.3-0.2c0.1-0.1,0.3-0.1,0.3,0c0.1,0.1,0.1,0.3,0,0.3l-0.3,0.2c-0.2,0.2-0.5,0.4-0.7,0.5
				l-0.1,0.1c-0.1,0-0.1,0-0.2-0.1c0-0.1-0.1-0.1,0-0.2c0-0.1,0-0.1,0.1-0.2C563.7,464.9,563.9,464.7,564.2,464.6z"/>
			<path class="st2" d="M570,459.6c0.1-0.1,0.3-0.1,0.3,0c0.1,0.1,0.1,0.3,0,0.3c-0.3,0.3-0.6,0.6-0.9,0.9c0,0-0.1,0.1-0.2,0.1
				c-0.1,0-0.1,0-0.2-0.1c-0.1-0.1-0.1-0.3,0-0.3C569.4,460.2,569.7,459.9,570,459.6z"/>
			<path class="st2" d="M571.7,457.9c0,0,0.1-0.1,0.2-0.1c0.1,0,0.1,0,0.2,0.1c0.1,0.1,0.1,0.2,0,0.3c-0.3,0.3-0.5,0.6-0.8,0.9
				c0,0-0.1,0.1-0.2,0.1c-0.1,0-0.1,0-0.2-0.1c-0.1-0.1-0.1-0.2,0-0.3C571,458.5,571.4,458.2,571.7,457.9z"/>
			<path class="st2" d="M578.7,444c0.1-0.4,0.2-0.8,0.3-1.2c0-0.1,0.2-0.2,0.3-0.2s0.1,0.1,0.2,0.1c0,0.1,0,0.1,0,0.2
				c-0.1,0.4-0.2,0.8-0.3,1.2c0,0.1-0.1,0.2-0.2,0.2c0,0,0,0-0.1,0C578.8,444.2,578.7,444.1,578.7,444z"/>
			<path class="st2" d="M579.4,441.9c-0.1,0-0.2-0.2-0.2-0.3c0.1-0.4,0.1-0.8,0.2-1.2c0-0.1,0-0.1,0.1-0.2c0.1,0,0.1-0.1,0.2,0
				c0.1,0,0.2,0.1,0.2,0.3c-0.1,0.4-0.1,0.8-0.2,1.2C579.7,441.8,579.5,441.9,579.4,441.9L579.4,441.9z"/>
			<path class="st2" d="M579.8,439.5c-0.1,0-0.2-0.1-0.2-0.3c0-0.4,0.1-0.8,0.1-1.2c0-0.1,0.1-0.2,0.3-0.2c0.1,0,0.2,0.1,0.2,0.3
				c0,0.4-0.1,0.8-0.1,1.2C580,439.4,580,439.5,579.8,439.5L579.8,439.5z"/>
			<path class="st2" d="M576.8,449.7c0-0.1,0.1-0.1,0.1-0.1c0.1,0,0.1,0,0.2,0c0.1,0.1,0.2,0.2,0.1,0.3c-0.2,0.4-0.3,0.8-0.5,1.1
				c0,0.1-0.1,0.1-0.2,0.1h-0.1c-0.1,0-0.1-0.1-0.1-0.1c0-0.1,0-0.1,0-0.2C576.5,450.5,576.7,450.1,576.8,449.7z"/>
			<path class="st2" d="M575.8,451.9c0.1-0.1,0.2-0.2,0.3-0.1c0.1,0,0.1,0.1,0.1,0.1c0,0.1,0,0.1,0,0.2c-0.2,0.4-0.4,0.7-0.6,1.1
				c0,0.1-0.1,0.1-0.2,0.1h-0.1c-0.1,0-0.1-0.1-0.1-0.1c0-0.1,0-0.1,0-0.2C575.4,452.6,575.5,452.2,575.8,451.9z"/>
			<path class="st2" d="M577.2,448.6c0.1-0.4,0.3-0.8,0.4-1.1c0-0.1,0.1-0.1,0.1-0.1c0.1,0,0.1,0,0.2,0c0.1,0,0.2,0.2,0.1,0.3
				c-0.1,0.4-0.3,0.8-0.4,1.2c0,0.1-0.1,0.2-0.2,0.2h-0.1C577.2,448.9,577.2,448.7,577.2,448.6z"/>
			<path class="st2" d="M578,446.3c0.1-0.4,0.2-0.8,0.3-1.2c0-0.1,0.2-0.2,0.3-0.2s0.1,0.1,0.1,0.1c0,0.1,0,0.1,0,0.2
				c-0.1,0.4-0.2,0.8-0.3,1.2c0,0.1-0.1,0.2-0.2,0.2c0,0,0,0-0.1,0S578,446.4,578,446.3z"/>
			<path class="st2" d="M554,474.7c0.1-0.1,0.2-0.1,0.3,0c0.1,0,0.1,0.1,0.1,0.2s0,0.1,0,0.2c-0.2,0.3-0.5,0.7-0.7,1
				c0,0.1-0.1,0.1-0.2,0.1s-0.1,0-0.1,0c-0.1-0.1-0.1-0.2-0.1-0.3C553.5,475.3,553.8,475,554,474.7z M553.5,475.9L553.5,475.9
				L553.5,475.9L553.5,475.9z"/>
			<path class="st2" d="M548.2,485.4c0-0.1,0.1-0.1,0.2-0.1c0.1,0,0.1,0,0.2,0c0.1,0,0.1,0.1,0.1,0.2c0,0.1,0,0.1,0,0.2
				c-0.2,0.3-0.5,0.7-0.8,1c0,0-0.1,0.1-0.2,0.1c-0.1,0-0.1,0-0.2-0.1c-0.1-0.1-0.1-0.2,0-0.3C547.8,486,548,485.7,548.2,485.4z"/>
			<path class="st2" d="M545.5,487.7c0.4-0.2,0.7-0.4,1-0.6c0.1-0.1,0.3-0.1,0.3,0c0.1,0.1,0.1,0.3,0,0.3c-0.3,0.2-0.7,0.5-1.1,0.7
				h-0.1c-0.1,0-0.2,0-0.2-0.1C545.5,487.9,545.5,487.8,545.5,487.7z"/>
			<path class="st2" d="M548.8,484c0.1-0.3,0.2-0.5,0.3-0.8c0-0.1,0.1-0.1,0.1-0.1c0.1,0,0.1,0,0.2,0c0.1,0,0.2,0.2,0.1,0.3
				c-0.1,0.3-0.2,0.5-0.3,0.7c0,0.1-0.1,0.3-0.2,0.4c0,0.1-0.1,0.1-0.2,0.1h-0.1c-0.1-0.1-0.2-0.2-0.1-0.3
				C548.8,484.2,548.8,484.1,548.8,484z"/>
			<path class="st2" d="M562.5,465.8c0.1,0,0.1-0.1,0.2-0.1c0.1,0,0.1,0,0.2,0.1c0,0.1,0.1,0.1,0.1,0.2s0,0.1-0.1,0.2
				c-0.3,0.3-0.6,0.5-0.9,0.8c0,0-0.1,0.1-0.2,0.1c-0.1,0-0.1,0-0.2-0.1c0,0-0.1-0.1-0.1-0.2s0-0.1,0.1-0.2
				C561.9,466.4,562.2,466.1,562.5,465.8z"/>
			<path class="st2" d="M538.5,489.5c0,0,0.1-0.1,0.2-0.1c0.4,0,0.8,0,1.2-0.1c0.1,0,0.1,0,0.2,0.1c0.1,0,0.1,0.1,0.1,0.2
				c0,0.1-0.1,0.3-0.2,0.3c-0.4,0-0.8,0.1-1.2,0.1l0,0c-0.1,0-0.2-0.1-0.2-0.2C538.3,489.6,538.5,489.5,538.5,489.5z"/>
			<path class="st2" d="M549.7,482.1c0.2-0.4,0.3-0.7,0.5-1.1c0.1-0.1,0.2-0.2,0.3-0.1s0.2,0.2,0.1,0.3c-0.2,0.4-0.4,0.7-0.5,1.1
				c0,0.1-0.1,0.1-0.2,0.1h-0.1C549.7,482.3,549.5,482.2,549.7,482.1z"/>
			<path class="st2" d="M541,489.2c0.4-0.1,0.8-0.1,1.2-0.2c0.1,0,0.1,0,0.2,0c0.1,0,0.1,0.1,0.1,0.2c0,0.1,0,0.1,0,0.2
				c0,0.1-0.1,0.1-0.2,0.1c-0.4,0.1-0.8,0.2-1.2,0.2l0,0c-0.1,0-0.2-0.1-0.2-0.2C541,489.4,541,489.4,541,489.2
				C541,489.2,541,489.2,541,489.2z"/>
			<path class="st2" d="M543.3,488.6c0.4-0.1,0.8-0.3,1.1-0.4c0.1-0.1,0.3,0,0.3,0.1c0.1,0.1,0,0.3-0.1,0.3
				c-0.4,0.2-0.8,0.3-1.2,0.4c0,0,0,0-0.1,0c-0.1,0-0.2-0.1-0.2-0.2C543.2,488.8,543.2,488.7,543.3,488.6z"/>
			<path class="st2" d="M558.9,469.1c0.1-0.1,0.3-0.1,0.3,0c0.1,0.1,0.1,0.3,0,0.3c-0.3,0.3-0.6,0.6-0.9,0.9c0,0-0.1,0.1-0.2,0.1
				c-0.1,0-0.1,0-0.2-0.1c-0.1-0.1-0.1-0.2,0-0.3C558.2,469.7,558.5,469.4,558.9,469.1z"/>
			<path class="st2" d="M557.2,470.9c0.1-0.1,0.2-0.1,0.3,0c0,0,0.1,0.1,0.1,0.2s0,0.1-0.1,0.2c-0.3,0.3-0.5,0.6-0.8,0.9
				c0,0.1-0.1,0.1-0.2,0.1c-0.1,0-0.1,0-0.2-0.1c-0.1-0.1-0.1-0.2,0-0.3C556.5,471.5,556.9,471.2,557.2,470.9z"/>
			<path class="st2" d="M560.7,467.4c0,0,0.1-0.1,0.2-0.1c0.1,0,0.1,0,0.2,0.1c0,0,0.1,0.1,0.1,0.2s0,0.1-0.1,0.2
				c-0.3,0.3-0.6,0.5-0.9,0.8c0,0-0.1,0.1-0.2,0.1c-0.1,0-0.1,0-0.2-0.1c-0.1-0.1-0.1-0.3,0-0.3C560,468,560.2,467.7,560.7,467.4z"
				/>
			<path class="st2" d="M555.5,472.7c0.1-0.1,0.2-0.1,0.3,0s0.1,0.2,0,0.3c-0.3,0.3-0.5,0.6-0.8,0.9c0,0.1-0.1,0.1-0.2,0.1
				c-0.1,0-0.1,0-0.2-0.1c-0.1-0.1-0.1-0.2,0-0.3C555,473.4,555.2,473.1,555.5,472.7z"/>
			<path class="st2" d="M551.2,478.8c0.1-0.1,0.2-0.2,0.3-0.1s0.2,0.2,0.1,0.3c-0.2,0.4-0.4,0.7-0.6,1.1c0,0.1-0.1,0.1-0.2,0.1h-0.1
				c-0.1,0-0.1-0.1-0.1-0.1c0-0.1,0-0.1,0-0.2C550.8,479.5,551,479.1,551.2,478.8z"/>
			<path class="st2" d="M552.5,476.7c0-0.1,0.1-0.1,0.2-0.1c0.1,0,0.1,0,0.2,0c0.1,0,0.1,0.1,0.1,0.2s0,0.1,0,0.2
				c-0.2,0.3-0.4,0.7-0.7,1c0,0.1-0.1,0.1-0.2,0.1H552c-0.1-0.1-0.1-0.2-0.1-0.3C552.2,477.4,552.3,477,552.5,476.7z"/>
		</g>
		<path class="st9" d="M538.5,488c4.1-0.2,7.9-1.4,8.9-4.5c2.4-7.1,8.5-14.4,14.4-19c5.4-4.3,14.8-10,16.4-26.8
			c-14.3,9.5-27.8,19.2-33.5,33.9C543,476.3,540.8,481.9,538.5,488z"/>
		<g>
			<path class="st2" d="M533.2,579.5c0.1,0,0.2-0.1,0.2-0.2c0.1-0.5,0.2-1.1,0.2-1.7c0-0.1-0.1-0.3-0.2-0.3c-0.1,0-0.3,0.1-0.3,0.2
				c-0.1,0.6-0.2,1.2-0.2,1.7C533,579.4,533,579.5,533.2,579.5L533.2,579.5z M533.7,576.1c0.1,0,0.2-0.1,0.2-0.2
				c0.1-0.5,0.2-1.1,0.3-1.7c0-0.1-0.1-0.3-0.2-0.3c-0.1,0-0.3,0.1-0.3,0.2c-0.1,0.6-0.2,1.2-0.3,1.7
				C533.5,576,533.5,576.1,533.7,576.1L533.7,576.1z M534.2,572.8c0.1,0,0.2-0.1,0.2-0.2c0.1-0.5,0.2-1.1,0.3-1.7
				c0-0.1-0.1-0.3-0.2-0.3c-0.1,0-0.3,0.1-0.3,0.2c-0.1,0.6-0.2,1.1-0.3,1.7C534,572.6,534,572.7,534.2,572.8
				C534.2,572.8,534.2,572.8,534.2,572.8z M534.8,569.4c0.1,0,0.2-0.1,0.2-0.2c0.1-0.6,0.2-1.1,0.3-1.7c0-0.1-0.1-0.3-0.2-0.3
				c-0.1,0-0.3,0.1-0.3,0.2c-0.1,0.6-0.2,1.1-0.3,1.7C534.5,569.2,534.7,569.4,534.8,569.4L534.8,569.4z M535.3,566
				c0.1,0,0.2-0.1,0.2-0.2c0.1-0.6,0.2-1.1,0.3-1.7c0-0.1-0.1-0.3-0.2-0.3c-0.1,0-0.3,0.1-0.3,0.2c-0.1,0.6-0.2,1.1-0.3,1.7
				C535,565.9,535.2,566,535.3,566L535.3,566z M536,562.6c0.1,0,0.2-0.1,0.2-0.2c0.1-0.6,0.2-1.1,0.3-1.7c0-0.1-0.1-0.3-0.2-0.3
				c-0.1,0-0.3,0.1-0.3,0.2c-0.1,0.6-0.2,1.1-0.3,1.7C535.8,562.5,535.8,562.6,536,562.6L536,562.6z M536.7,559.3
				c0.1,0,0.2-0.1,0.2-0.2c0.1-0.6,0.2-1.1,0.3-1.7c0-0.1-0.1-0.3-0.2-0.3c-0.1,0-0.3,0.1-0.3,0.2c-0.1,0.6-0.2,1.1-0.3,1.7
				C536.3,559.1,536.5,559.2,536.7,559.3C536.5,559.3,536.7,559.3,536.7,559.3z M537.2,555.9c0.1,0,0.2-0.1,0.2-0.2
				c0.1-0.6,0.2-1.1,0.3-1.7c0-0.1-0.1-0.3-0.2-0.3c-0.1,0-0.3,0.1-0.3,0.2c-0.1,0.6-0.2,1.1-0.3,1.7
				C537,555.8,537.2,555.9,537.2,555.9L537.2,555.9z M538,552.6c0.1,0,0.2-0.1,0.2-0.2c0.1-0.6,0.2-1.1,0.4-1.7
				c0-0.1-0.1-0.3-0.2-0.3c-0.1,0-0.3,0.1-0.3,0.2c-0.1,0.6-0.2,1.1-0.4,1.7C537.8,552.4,537.8,552.5,538,552.6L538,552.6z
				 M538.8,549.2c0.1,0,0.2-0.1,0.2-0.2c0.1-0.6,0.2-1.1,0.4-1.7c0-0.1-0.1-0.3-0.2-0.3c-0.1,0-0.3,0.1-0.3,0.2
				c-0.1,0.6-0.3,1.1-0.4,1.7C538.5,549.1,538.5,549.2,538.8,549.2C538.7,549.2,538.7,549.2,538.8,549.2z M539.5,545.9
				c0.1,0,0.2-0.1,0.2-0.2c0.1-0.6,0.3-1.1,0.4-1.7c0-0.1,0-0.3-0.2-0.3c-0.1,0-0.3,0-0.3,0.2c-0.1,0.6-0.3,1.1-0.4,1.7
				C539.2,545.7,539.2,545.9,539.5,545.9L539.5,545.9z M540.2,542.6c0.1,0,0.2-0.1,0.2-0.2c0.1-0.6,0.3-1.1,0.4-1.7
				c0-0.1,0-0.3-0.2-0.3c-0.1,0-0.3,0-0.3,0.2c-0.1,0.6-0.3,1.1-0.4,1.7C540,542.4,540,542.5,540.2,542.6L540.2,542.6z M541,539.2
				c0.1,0,0.2-0.1,0.2-0.2c0.1-0.6,0.3-1.1,0.4-1.7c0-0.1,0-0.3-0.2-0.3c-0.1,0-0.3,0-0.3,0.2c-0.1,0.6-0.3,1.1-0.4,1.7
				C540.8,539.1,540.8,539.2,541,539.2L541,539.2z M542,535.9c0.1,0,0.2-0.1,0.2-0.2c0.1-0.5,0.3-1.1,0.4-1.7c0-0.1,0-0.3-0.2-0.3
				c-0.1,0-0.3,0-0.3,0.2c-0.1,0.6-0.3,1.1-0.4,1.7C541.7,535.8,541.8,535.9,542,535.9L542,535.9z M542.8,532.6
				c0.1,0,0.2-0.1,0.2-0.2c0.2-0.5,0.3-1.1,0.5-1.6c0-0.1,0-0.3-0.2-0.3c-0.1,0-0.3,0-0.3,0.2c-0.2,0.6-0.3,1.1-0.5,1.6
				C542.5,532.4,542.7,532.6,542.8,532.6C542.8,532.6,542.8,532.6,542.8,532.6z M543.8,529.3c0.1,0,0.2-0.1,0.2-0.2
				c0.2-0.5,0.3-1.1,0.5-1.6c0-0.1,0-0.3-0.2-0.3c-0.1,0-0.3,0-0.3,0.2c-0.2,0.5-0.3,1.1-0.5,1.6
				C543.5,529.2,543.5,529.3,543.8,529.3L543.8,529.3z M544.8,526.1c0.1,0,0.2-0.1,0.2-0.2c0.2-0.5,0.3-1.1,0.5-1.6
				c0-0.1,0-0.3-0.2-0.3c-0.1,0-0.3,0-0.3,0.2c-0.2,0.5-0.3,1.1-0.5,1.6C544.5,525.9,544.5,526,544.8,526.1
				C544.7,526.1,544.8,526.1,544.8,526.1z M545.8,522.8c0.1,0,0.2-0.1,0.2-0.2c0.2-0.5,0.3-1.1,0.5-1.6c0-0.1,0-0.3-0.2-0.3
				c-0.1,0-0.3,0-0.3,0.2c-0.2,0.5-0.3,1.1-0.5,1.6C545.5,522.6,545.5,522.7,545.8,522.8C545.7,522.8,545.8,522.8,545.8,522.8z
				 M546.8,519.5c0.1,0,0.2-0.1,0.2-0.2c0.2-0.5,0.4-1.1,0.5-1.6c0-0.1,0-0.3-0.2-0.3c-0.1,0-0.3,0-0.3,0.2
				c-0.2,0.5-0.4,1.1-0.5,1.6C546.5,519.3,546.5,519.5,546.8,519.5L546.8,519.5z M548,516.3c0.1,0,0.2-0.1,0.2-0.2
				c0.2-0.5,0.4-1.1,0.6-1.6c0-0.1,0-0.3-0.1-0.3c-0.1,0-0.3,0-0.3,0.1c-0.2,0.5-0.4,1.1-0.6,1.6C547.7,516.1,547.7,516.2,548,516.3
				C547.8,516.3,547.8,516.3,548,516.3z M549,513.1c0.1,0,0.2-0.1,0.2-0.2c0.2-0.5,0.4-1.1,0.6-1.6c0-0.1,0-0.3-0.1-0.3
				c-0.1,0-0.3,0-0.3,0.1c-0.2,0.5-0.4,1.1-0.6,1.6C548.8,512.9,548.8,513,549,513.1C549,513.1,549,513.1,549,513.1z M550.2,509.9
				c0.1,0,0.2-0.1,0.2-0.2c0.2-0.5,0.4-1.1,0.6-1.6c0-0.1,0-0.3-0.1-0.3c-0.1,0-0.3,0-0.3,0.1c-0.2,0.5-0.4,1.1-0.6,1.6
				C550,509.7,550,509.8,550.2,509.9C550.2,509.9,550.2,509.9,550.2,509.9z M551.5,506.7c0.1,0,0.2-0.1,0.2-0.2
				c0.2-0.5,0.4-1.1,0.7-1.6c0.1-0.1,0-0.3-0.1-0.3c-0.1-0.1-0.3,0-0.3,0.1c-0.2,0.5-0.4,1.1-0.7,1.6
				C551.2,506.5,551.3,506.6,551.5,506.7C551.5,506.7,551.5,506.7,551.5,506.7z M552.8,503.5c0.1,0,0.2-0.1,0.2-0.1
				c0.2-0.5,0.5-1,0.7-1.6c0.1-0.1,0-0.3-0.1-0.3c-0.1-0.1-0.3,0-0.3,0.1c-0.2,0.5-0.5,1-0.7,1.6
				C552.5,503.3,552.7,503.5,552.8,503.5C552.8,503.5,552.8,503.5,552.8,503.5z M554.2,500.4c0.1,0,0.2-0.1,0.2-0.1
				c0.2-0.5,0.5-1,0.7-1.5c0.1-0.1,0-0.3-0.1-0.3c-0.1-0.1-0.3,0-0.3,0.1c-0.2,0.5-0.5,1-0.7,1.6C554,500.3,554.1,500.5,554.2,500.4
				C554.2,500.4,554.2,500.4,554.2,500.4z M555.8,497.3c0.1,0,0.2-0.1,0.2-0.1c0.3-0.5,0.5-1,0.8-1.5c0.1-0.1,0-0.3-0.1-0.3
				c-0.1-0.1-0.3,0-0.3,0.1c-0.3,0.5-0.5,1-0.8,1.5C555.5,497.1,555.6,497.3,555.8,497.3C555.7,497.3,555.7,497.3,555.8,497.3z
				 M557.2,494.3c0.1,0,0.2,0,0.2-0.1c0.3-0.5,0.5-1,0.8-1.5c0.1-0.1,0-0.3-0.1-0.3c-0.1-0.1-0.3,0-0.3,0.1c-0.3,0.5-0.5,1-0.8,1.5
				C557,494.1,557.1,494.3,557.2,494.3L557.2,494.3z M558.9,491.3c0.1,0,0.2,0,0.2-0.1c0.3-0.5,0.6-1,0.9-1.5c0.1-0.1,0-0.3-0.1-0.3
				c-0.1-0.1-0.3,0-0.3,0.1c-0.3,0.5-0.6,1-0.9,1.5C558.6,491.1,558.7,491.3,558.9,491.3C558.9,491.3,558.9,491.3,558.9,491.3z
				 M560.7,488.3c0.1,0,0.2,0,0.2-0.1c0.3-0.5,0.6-1,0.9-1.4c0.1-0.1,0-0.3-0.1-0.3c-0.1-0.1-0.3,0-0.3,0.1c-0.3,0.5-0.6,1-0.9,1.5
				C560.4,488.2,560.5,488.4,560.7,488.3C560.5,488.3,560.5,488.3,560.7,488.3z M562.5,485.4c0.1,0,0.2,0,0.2-0.1
				c0.3-0.5,0.6-0.9,1-1.4c0.1-0.1,0.1-0.3-0.1-0.3c-0.1-0.1-0.3,0-0.3,0.1c-0.3,0.5-0.6,0.9-1,1.4
				C562.2,485.2,562.3,485.4,562.5,485.4L562.5,485.4z M564.5,482.6c0.1,0,0.1,0,0.2-0.1c0.3-0.5,0.7-0.9,1-1.4
				c0.1-0.1,0.1-0.3,0-0.3c-0.1-0.1-0.3-0.1-0.3,0c-0.3,0.4-0.7,0.9-1,1.4c-0.1,0.1-0.1,0.3,0.1,0.3
				C564.4,482.6,564.4,482.6,564.5,482.6z M566.5,479.9c0.1,0,0.1,0,0.2-0.1c0.4-0.4,0.7-0.9,1.1-1.3c0.1-0.1,0.1-0.3,0-0.3
				c-0.1-0.1-0.3-0.1-0.3,0c-0.4,0.4-0.7,0.9-1.1,1.3c-0.1,0.1-0.1,0.3,0,0.3C566.4,479.9,566.5,479.9,566.5,479.9z M568.8,477.3
				c0.1,0,0.1,0,0.2-0.1c0.4-0.4,0.8-0.8,1.2-1.2c0.1-0.1,0.1-0.3,0-0.3c-0.1-0.1-0.3-0.1-0.3,0c-0.4,0.4-0.8,0.8-1.2,1.2
				c-0.1,0.1-0.1,0.3,0,0.3C568.7,477.3,568.7,477.3,568.8,477.3z M571.2,474.9c0.1,0,0.1,0,0.2-0.1c0.4-0.4,0.8-0.8,1.3-1.1
				c0.1-0.1,0.1-0.2,0-0.3c-0.1-0.1-0.2-0.1-0.3,0c-0.4,0.4-0.8,0.8-1.3,1.2C571,474.7,571,474.8,571.2,474.9
				C571,474.9,571,474.9,571.2,474.9z M573.7,472.7c0.1,0,0.1,0,0.2-0.1c0.4-0.4,0.9-0.7,1.3-1c0.1-0.1,0.1-0.2,0.1-0.3
				c-0.1-0.1-0.2-0.1-0.3-0.1c-0.5,0.3-0.9,0.7-1.4,1.1c-0.1,0.1-0.1,0.2,0,0.3L573.7,472.7z M576.5,470.6L576.5,470.6
				c0.6-0.3,1.1-0.6,1.5-0.9c0.1-0.1,0.2-0.2,0.1-0.3c-0.1-0.1-0.2-0.2-0.3-0.1c-0.5,0.3-1,0.6-1.5,0.9c-0.1,0.1-0.1,0.2-0.1,0.3
				C576.2,470.6,576.4,470.6,576.5,470.6z M579.4,468.9L579.4,468.9c0.6-0.3,1.1-0.5,1.6-0.7c0.1-0.1,0.2-0.2,0.1-0.3
				c-0.1-0.1-0.2-0.2-0.3-0.1c-0.5,0.2-1,0.5-1.5,0.8c-0.1,0.1-0.2,0.2-0.1,0.3C579.2,468.8,579.2,468.9,579.4,468.9z M582.5,467.5
				C582.5,467.5,582.5,467.5,582.5,467.5c0.6-0.2,1.1-0.4,1.7-0.6c0.1,0,0.2-0.2,0.2-0.3c0-0.1-0.2-0.2-0.3-0.2
				c-0.5,0.2-1.1,0.4-1.6,0.6c-0.1,0-0.2,0.2-0.1,0.3C582.2,467.4,582.4,467.5,582.5,467.5z M585.8,466.4L585.8,466.4
				c0.6-0.2,1.2-0.3,1.7-0.5c0.1,0,0.2-0.2,0.2-0.3c0-0.1-0.2-0.2-0.3-0.2c-0.5,0.2-1.1,0.3-1.6,0.5c-0.1,0-0.2,0.2-0.2,0.3
				C585.5,466.4,585.7,466.4,585.8,466.4z M589,465.5C589,465.5,589,465.5,589,465.5c0.6-0.2,1.2-0.4,1.7-0.5c0.1,0,0.2-0.2,0.2-0.3
				c0-0.1-0.2-0.2-0.3-0.2c-0.5,0.2-1.1,0.3-1.6,0.5c-0.1,0-0.2,0.2-0.2,0.3C588.8,465.4,588.9,465.5,589,465.5z M592.2,464.4
				L592.2,464.4c0.6-0.2,1.2-0.4,1.7-0.6c0.1,0,0.2-0.2,0.1-0.3c0-0.1-0.2-0.2-0.3-0.1c-0.5,0.2-1.1,0.4-1.6,0.6
				c-0.1,0-0.2,0.2-0.2,0.3C592,464.3,592.2,464.4,592.2,464.4z M595.5,463.3C595.5,463.3,595.5,463.2,595.5,463.3
				c0.6-0.2,1.2-0.4,1.7-0.6c0.1,0,0.2-0.2,0.1-0.3s-0.2-0.2-0.3-0.1c-0.5,0.2-1.1,0.4-1.6,0.6c-0.1,0-0.2,0.2-0.1,0.3
				C595.2,463.2,595.4,463.3,595.5,463.3z M598.7,462L598.7,462c0.6-0.2,1.1-0.5,1.7-0.7c0.1-0.1,0.2-0.2,0.1-0.3
				c-0.1-0.1-0.2-0.2-0.3-0.1c-0.5,0.2-1,0.4-1.6,0.7c-0.1,0.1-0.2,0.2-0.1,0.3C598.5,462,598.5,462,598.7,462z M601.8,460.7
				C601.8,460.7,601.9,460.7,601.8,460.7c0.6-0.3,1.1-0.5,1.7-0.7c0.1-0.1,0.2-0.2,0.1-0.3c-0.1-0.1-0.2-0.2-0.3-0.1
				c-0.5,0.2-1,0.5-1.6,0.7c-0.1,0.1-0.2,0.2-0.1,0.3C601.5,460.6,601.7,460.7,601.8,460.7z M604.9,459.3L604.9,459.3
				c0.6-0.2,1.1-0.5,1.6-0.7c0.1-0.1,0.2-0.2,0.1-0.3c-0.1-0.1-0.2-0.2-0.3-0.1c-0.5,0.3-1,0.5-1.5,0.7c-0.1,0.1-0.2,0.2-0.1,0.3
				C604.7,459.2,604.8,459.3,604.9,459.3z M608,457.7L608,457.7c0.6-0.3,1.1-0.5,1.6-0.8c0.1-0.1,0.2-0.2,0.1-0.3
				c-0.1-0.1-0.2-0.2-0.3-0.1c-0.5,0.3-1,0.5-1.5,0.8c-0.1,0.1-0.2,0.2-0.1,0.3C607.8,457.7,607.9,457.7,608,457.7z M611,456.1
				L611,456.1c0.6-0.3,1.1-0.6,1.6-0.8c0.1-0.1,0.2-0.2,0.1-0.3c-0.1-0.1-0.2-0.2-0.3-0.1c-0.5,0.3-1,0.6-1.5,0.8
				c-0.1,0.1-0.2,0.2-0.1,0.3C610.8,456.1,610.9,456.1,611,456.1z M613.9,454.4L613.9,454.4c0.6-0.3,1.1-0.6,1.6-0.9
				c0.1-0.1,0.2-0.2,0.1-0.3c-0.1-0.1-0.2-0.2-0.3-0.1c-0.5,0.3-1,0.6-1.5,0.9c-0.1,0.1-0.2,0.2-0.1,0.3
				C613.8,454.4,613.9,454.4,613.9,454.4z M616.9,452.7L616.9,452.7c0.6-0.3,1.1-0.6,1.5-0.9c0.1-0.1,0.1-0.2,0.1-0.3
				c-0.1-0.1-0.2-0.1-0.3-0.1c-0.5,0.3-0.9,0.6-1.4,0.9c-0.1,0.1-0.1,0.2-0.1,0.3C616.7,452.6,616.8,452.7,616.9,452.7z
				 M619.7,450.8L619.7,450.8c0.6-0.3,1-0.7,1.5-1c0.1-0.1,0.1-0.2,0.1-0.3c-0.1-0.1-0.2-0.1-0.3-0.1c-0.5,0.3-0.9,0.7-1.4,1
				c-0.1,0.1-0.1,0.2-0.1,0.3C619.5,450.7,619.5,450.8,619.7,450.8z M622.5,448.8C622.5,448.8,622.5,448.8,622.5,448.8
				c0.6-0.3,1-0.7,1.5-1c0.1-0.1,0.1-0.2,0-0.3c-0.1-0.1-0.2-0.1-0.3,0c-0.5,0.3-0.9,0.7-1.4,1c-0.1,0.1-0.1,0.2-0.1,0.3
				C622.2,448.8,622.4,448.8,622.5,448.8z M625.2,446.7c0.1,0,0.1,0,0.2-0.1c0.4-0.4,0.9-0.7,1.3-1.1c0.1-0.1,0.1-0.2,0-0.3
				c-0.1-0.1-0.2-0.1-0.3,0c-0.4,0.4-0.9,0.7-1.3,1.1c-0.1,0.1-0.1,0.2,0,0.3C625,446.7,625,446.7,625.2,446.7z M627.8,444.5
				c0.1,0,0.1,0,0.2-0.1c0.4-0.4,0.9-0.7,1.3-1.1c0.1-0.1,0.1-0.2,0-0.3c-0.1-0.1-0.2-0.1-0.3,0c-0.4,0.4-0.9,0.7-1.3,1.1
				c-0.1,0.1-0.1,0.2,0,0.3C627.7,444.5,627.8,444.5,627.8,444.5z M630.4,442.3c0.1,0,0.1,0,0.2-0.1c0.4-0.4,0.8-0.8,1.3-1.2
				c0.1-0.1,0.1-0.2,0-0.3c-0.1-0.1-0.2-0.1-0.3,0c-0.4,0.4-0.8,0.8-1.2,1.2c-0.1,0.1-0.1,0.2,0,0.3
				C630.2,442.3,630.2,442.3,630.4,442.3z M632.9,439.9c0.1,0,0.1,0,0.2-0.1c0.4-0.4,0.8-0.8,1.2-1.2c0.1-0.1,0.1-0.3,0-0.3
				c-0.1-0.1-0.3-0.1-0.3,0c-0.4,0.4-0.8,0.8-1.2,1.2c-0.1,0.1-0.1,0.2,0,0.3C632.7,439.9,632.8,439.9,632.9,439.9z M635.2,437.5
				c0.1,0,0.1,0,0.2-0.1c0.4-0.4,0.8-0.8,1.2-1.3c0.1-0.1,0.1-0.3,0-0.3c-0.1-0.1-0.3-0.1-0.3,0c-0.4,0.4-0.8,0.8-1.1,1.3
				c-0.1,0.1-0.1,0.3,0,0.3C635,437.4,635.2,437.5,635.2,437.5z M637.5,434.9c0.1,0,0.1,0,0.2-0.1c0.4-0.4,0.7-0.9,1.1-1.3
				c0.1-0.1,0.1-0.3,0-0.3c-0.1-0.1-0.3-0.1-0.3,0c-0.4,0.4-0.7,0.9-1.1,1.3c-0.1,0.1-0.1,0.3,0,0.3
				C637.4,434.9,637.5,434.9,637.5,434.9z M639.7,432.3c0.1,0,0.1,0,0.2-0.1c0.4-0.4,0.7-0.9,1-1.4c0.1-0.1,0.1-0.3,0-0.3
				c-0.1-0.1-0.3-0.1-0.3,0c-0.3,0.4-0.7,0.9-1,1.3c-0.1,0.1-0.1,0.3,0,0.3C639.5,432.3,639.5,432.3,639.7,432.3z M641.7,429.6
				c0.1,0,0.2,0,0.2-0.1c0.3-0.5,0.7-0.9,1-1.4c0.1-0.1,0-0.3-0.1-0.3c-0.1-0.1-0.3,0-0.3,0.1c-0.3,0.5-0.6,0.9-1,1.4
				C641.4,429.4,641.4,429.6,641.7,429.6C641.5,429.6,641.7,429.6,641.7,429.6z M643.7,426.8c0.1,0,0.2,0,0.2-0.1
				c0.3-0.5,0.6-1,0.9-1.4c0.1-0.1,0-0.3-0.1-0.3c-0.1-0.1-0.3,0-0.3,0.1c-0.3,0.5-0.6,1-0.9,1.4
				C643.4,426.6,643.5,426.8,643.7,426.8C643.5,426.8,643.5,426.8,643.7,426.8z M645.5,423.9c0.1,0,0.2,0,0.2-0.1
				c0.3-0.5,0.6-1,0.9-1.5c0.1-0.1,0-0.3-0.1-0.3c-0.1-0.1-0.3,0-0.3,0.1c-0.3,0.5-0.6,1-0.9,1.5
				C645.2,423.7,645.3,423.9,645.5,423.9L645.5,423.9z M647.2,420.9c0.1,0,0.2,0,0.2-0.1c0.3-0.5,0.5-1,0.8-1.5
				c0.1-0.1,0-0.3-0.1-0.3c-0.1-0.1-0.3,0-0.3,0.1c-0.3,0.5-0.5,1-0.8,1.5C646.9,420.7,647,420.9,647.2,420.9
				C647,420.9,647,420.9,647.2,420.9z M648.7,417.9c0.1,0,0.2-0.1,0.2-0.1c0.2-0.5,0.5-1,0.7-1.6c0.1-0.1,0-0.3-0.1-0.3
				c-0.1-0.1-0.3,0-0.3,0.1c-0.2,0.5-0.5,1-0.7,1.5c-0.1,0.1,0,0.3,0.1,0.3C648.5,417.9,648.7,417.9,648.7,417.9z M650,414.7
				c0.1,0,0.2-0.1,0.2-0.1c0.2-0.5,0.4-1.1,0.6-1.6c0-0.1,0-0.3-0.1-0.3s-0.3,0-0.3,0.1c-0.2,0.5-0.4,1.1-0.6,1.6
				C649.8,414.5,649.9,414.7,650,414.7C650,414.7,650,414.7,650,414.7z M651.4,411.5c0.1,0,0.2-0.1,0.2-0.2c0.2-0.5,0.4-1.1,0.6-1.6
				c0-0.1,0-0.3-0.2-0.3c-0.1,0-0.3,0-0.3,0.2c-0.2,0.5-0.4,1.1-0.6,1.6C651,411.3,651,411.5,651.4,411.5
				C651.2,411.5,651.2,411.5,651.4,411.5z M652.4,408.3c0.1,0,0.2-0.1,0.2-0.2c0.2-0.5,0.3-1.1,0.5-1.6c0-0.1,0-0.3-0.2-0.3
				c-0.1,0-0.3,0-0.3,0.2c-0.2,0.5-0.3,1.1-0.5,1.6C652.2,408.1,652.2,408.2,652.4,408.3L652.4,408.3z M653.4,405
				c0.1,0,0.2-0.1,0.2-0.2c0.1-0.5,0.3-1.1,0.4-1.7c0-0.1-0.1-0.3-0.2-0.3c-0.1,0-0.3,0.1-0.3,0.2c-0.1,0.6-0.3,1.1-0.4,1.7
				C653,404.8,653.2,405,653.4,405C653.2,405,653.4,405,653.4,405z M654,401.7c0.1,0,0.2-0.1,0.2-0.2c0.1-0.6,0.2-1.1,0.3-1.7
				c0-0.1-0.1-0.3-0.2-0.3c-0.1,0-0.3,0.1-0.3,0.2c-0.1,0.6-0.2,1.1-0.3,1.7C653.9,401.5,654,401.6,654,401.7L654,401.7z
				 M654.7,398.3c0.1,0,0.2-0.1,0.2-0.2c0.1-0.6,0.2-1.1,0.2-1.7c0-0.1-0.1-0.3-0.2-0.3c-0.1,0-0.3,0.1-0.3,0.2
				c-0.1,0.6-0.2,1.1-0.2,1.7C654.5,398.2,654.5,398.3,654.7,398.3L654.7,398.3z M655.2,394.9c0.1,0,0.2-0.1,0.2-0.2
				c0.1-0.6,0.1-1.1,0.2-1.7c0-0.1-0.1-0.3-0.2-0.3c-0.1,0-0.3,0.1-0.3,0.2c0,0.6-0.1,1.1-0.2,1.7
				C654.9,394.8,655,394.9,655.2,394.9L655.2,394.9z M655.5,391.5c0.1,0,0.2-0.1,0.2-0.2c0-0.6,0.1-1.1,0.1-1.7
				c0-0.1-0.1-0.2-0.2-0.3c-0.1,0-0.2,0.1-0.3,0.2c0,0.6,0,1.1-0.1,1.7C655.2,391.4,655.2,391.5,655.5,391.5L655.5,391.5z
				 M655.5,388.1c0.1,0,0.2-0.1,0.2-0.2c0-0.3,0-0.7,0-1c0-0.2,0-0.4,0-0.7c0-0.1-0.1-0.2-0.2-0.2c-0.1,0-0.2,0.1-0.2,0.2
				c0,0.2,0,0.4,0,0.7c0,0.3,0,0.7,0,1C655.2,388,655.5,388.1,655.5,388.1L655.5,388.1z M655.5,384.7L655.5,384.7
				c0.1,0,0.2-0.1,0.2-0.3c0-0.6,0-1.1-0.1-1.7c0-0.1-0.1-0.2-0.3-0.2c-0.1,0-0.2,0.1-0.2,0.3c0,0.6,0.1,1.1,0.1,1.7
				C655.2,384.6,655.4,384.7,655.5,384.7z"/>
		</g>
		<g>
			<g>
				<path class="st2" d="M628.5,429.9c0.1,0,0.3-0.1,0.4-0.2c0.2-0.2,0.1-0.5-0.1-0.7c-1.6-1.3-6.1-8.8-7-21.8
					c0-0.3-0.3-0.5-0.5-0.5c-0.3,0-0.5,0.2-0.5,0.5c0.8,13.1,5.4,21,7.3,22.5C628.2,429.9,628.4,429.9,628.5,429.9z"/>
			</g>
		</g>
	</g>
	<path class="st10" d="M669.2,301.3c6.3-0.2,17.6,0.7,21.4,1.7c0.6-8.2,1.5-16.5,2.7-24.6l-17.5-1.8c0,0-1,5.4-2.8,12.2
		c-0.9,3.4-1.9,7.1-3.2,10.7C669.7,300.1,669.4,300.7,669.2,301.3z"/>
	<path class="st11" d="M669.9,299.5c3-0.9,8.1-2.8,10.8-7.4c0,0-4-2.1-7.6-3.3C672.2,292.2,671,295.9,669.9,299.5z"/>
	<path class="st15" d="M610.8,401.2c3.2,0.7,32.2-7.1,54.7-1.5s33.7,15.6,30.5,8.1c-2.6-6.2-8.4-51-5.8-98.2
		c0.1-2.2,0.3-4.4,0.4-6.6c-3.7-1-15.1-1.9-21.4-1.7c-0.9,2.5-1.9,4.8-2.9,7c0,0.1-0.1,0.1-0.1,0.2c-2.9,5.9-12,20.2-21,34.6
		c-9.5,15.3-18.8,30.8-20.3,36.4c-1.4,5.1-5.2,10-8.5,13.8C612.4,397.7,609,400.8,610.8,401.2z"/>
	<path class="st12" d="M677.5,250.7c-8.2-4.2-14.4-13.2-12-15.5c2.4-2.2,7.1-3.1,8.7-5.7c1.7-2.6,9.7,8,7.2,13.8
		C679,249.1,677.5,250.7,677.5,250.7z"/>
	<path class="st10" d="M672.5,242.6c-0.7,0.9-1.3,1.9-1.8,2.9c-1.1,2.1-1.9,4.3-2.4,5.9c-1.6,5.2-8,6.4-10.1,7.8
		c-1,0.7-0.6,1.5-0.1,2.7c0.5,1.1,1.2,2.6,0.7,4.5c-0.2,1-1.1,2.8-2,4.9c-2.6,6.3-5.2,16.1,8.1,20.3c4.7,1.5,8.7,2.1,12,2.2l0,0
		c2.6,0.1,4.9-0.1,6.7-0.5c4.6-1,6.7-2.9,6.7-2.9s-0.3-9.3-0.7-18.3c-0.3-7.3-0.8-14.4-1.3-16.2c0-0.2-0.1-0.4-0.1-0.6
		c-1.1-4.3-3.2-16.4-3.6-18.4c0-0.2-0.1-0.3-0.1-0.3h-0.1C678.8,236.4,675,239.2,672.5,242.6z"/>
	<path class="st11" d="M672.5,242.6c2.2,4.7,7.3,3.2,9.2,8.5c2,5.6,6.9,8.9,6.9,8.9s-0.1-1.9-0.4-4.6c-1.1-4.3-3.2-16.4-3.6-18.4
		c0-0.1-0.1-0.2-0.1-0.3C678.8,236.4,675,239.2,672.5,242.6z"/>
	<path class="st12" d="M669.4,235.8c3.5,3.1,7,2.8,9.1,2.4c1.3-0.2,2-0.5,2,0c-0.1,1,1,14.5,6.5,22.7c0.9,1.4,2,2.7,3.2,3.7
		c0.5,0.4,0.9,0.7,1.4,1l0,0c0,0-2.3,3.7-3,8.7s-3.5,11.6-1.4,15.2c2,3.6,23.1,11.4,29.4-4.9c0.5-1.2,0.9-2.4,1.2-3.5
		c3.9-13.3-3.6-16.9-6-24.7c-2.6-8.5,7.2-3.3,2.3-18.8s-22.5-8-24-9.6s-1-5.7-4.3-4.3c-0.8,0.3-1.3,0.3-1.6,0
		c-1.1-0.9-0.9-4.1-5.5-5.1C672.5,217.5,663.8,230.8,669.4,235.8z"/>
	<path class="st13" d="M691.7,265.7L691.7,265.7c0,0-2.3,3.8-3,8.7c-0.7,5-3.5,11.6-1.4,15.2c2,3.6,23.1,11.4,29.4-4.9
		c0.5-1.2,0.9-2.4,1.2-3.5c-0.7,1-1.6,2.4-2.7,3.6c-2.5,2.7-12,2.7-15.8-4.9s-2.1-7.7-3.2-13.1C696,266.8,694.2,266.3,691.7,265.7z"
		/>
	<path class="st14" d="M658,259.2c-1,0.7-0.6,1.5-0.1,2.7c0.8-0.7,1.9-1.3,3.2-1.6c3.8-0.8,9.5-5.1,9.5-13.3c0-0.6,0-1.1-0.1-1.5
		c-1.1,2.1-1.9,4.3-2.4,5.9C666.5,256.6,660.2,257.8,658,259.2z"/>
	<path class="st18" d="M669.4,235.8c3.5,3.1,7,2.8,9.1,2.4c-6.1-2.3-7-8.7-2.8-8.9c4.3-0.2,5-0.2,3.8-3.7c-1.2-3.5,2.9-2.9,3.8-1.7
		c0.3,0.4,0.7,0.3,0.9-0.2c-1.1-0.9-0.9-4.1-5.5-5.1C672.5,217.5,663.8,230.8,669.4,235.8z"/>
	<g>
		<path class="st10" d="M682.9,266c6.8-6.2,14.3-6.6,13.7,2c-0.6,8.5-12.6,8-12.6,8L682.9,266z"/>
		<path class="st11" d="M688.9,263.4c0,0,4.5-1.4,5.7,2.8c1.1,4.2-2.7,7.4-5.8,8.2c0,0,5.6-1.2,4.8-6.6
			C692.8,262.4,688.9,263.4,688.9,263.4z"/>
		<path class="st11" d="M692.4,270c-1,2.3-4.1,3.5-5.1,1.9s0-3.1,0-3.1s-0.8,2.5,0.5,3C689,272.4,690.9,271.7,692.4,270z"/>
		<path class="st11" d="M690.2,267.4c0.8,1.4,0.4,3.6-1,2.8c-1.3-0.8-1.2-2.2-1.7-2.2s-0.8-1.8,0.5-1.9
			C689.4,266,690.2,267.4,690.2,267.4z"/>
	</g>
	<path class="st25" d="M616.4,393.3c5.7-2.3,14.1-3.9,26.8-12.1c14.6-9.4,37.8-32.4,39.4-46.7c0,0-1-2.3-7.8-5.4
		c-3.4-1.6-16.5,5.3-29.5,14c-9.5,15.3-18.8,30.8-20.3,36.4C623.5,384.6,619.8,389.4,616.4,393.3z"/>
	<g>
		<path class="st16" d="M663.8,307.1c0,1.1,0.4,1.8,1.5,1.5c0.2-0.1,0.6-0.1,1-0.1c4.4-0.2,19.1,1.2,23.9,1.1c1,0,1.6-0.1,1.6-0.3
			c0.1-1.1,0.6-5.4,0-5.9c-0.2-0.1-0.6-0.3-1.1-0.4c-2.8-0.7-10.1-1.4-16.2-1.6c-1.9-0.1-3.7-0.1-5.2,0c-2.4,0.1-4.1,0.3-4.3,0.8
			C664.5,303.2,663.8,305.5,663.8,307.1z"/>
		<path class="st28" d="M663.8,307.1c4-1.6,12.1-5,10.7-5.7l0,0c-1.9-0.1-3.7-0.1-5.2,0c-2.4,0.1-4.1,0.3-4.3,0.8
			C664.5,303.2,663.8,305.5,663.8,307.1z"/>
	</g>
	<g>
		<path class="st16" d="M629.2,335.4c1.3,0.9,2.6,1.8,3.8,2.8c5.7,4.8,10.4,11.2,14.1,17.5c1.8,3,3.3,6,4.7,8.9
			c13.9-9.4,26.1-18.9,31.1-26.1c0.7-1,1.2-1.9,1.7-2.9c6.9-13.9-3.6-29.3-16.9-27.5c-1.6,0.2-3.2,0.7-4.8,1.4
			C651.2,314.7,642.2,321.2,629.2,335.4z"/>
		<path class="st10" d="M536.8,375.6c0.1,1.1,1.1,3,3.1,6.1c4.7,7.1,14.4,12.5,25.7,14.9c11.9,2.6,25.4,2,36.5-3.2
			c12-5.7,32.2-17.1,49.7-28.8c-1.3-2.8-2.9-5.8-4.7-8.9c-3.7-6.3-8.4-12.8-14.1-17.5c-1.2-1-2.5-2-3.8-2.8c-2.7,3-5.6,6.3-8.8,10.1
			c-18.1,21.5-47.6,34.6-61.6,33.8C547.8,378.6,536.3,371.5,536.8,375.6z"/>
		<path class="st14" d="M536.8,375.6c4.3,4.2,16.3,4.9,28.6,5.2c15.1,0.3,47.2-17.5,59.4-33.7c2.1-2.8,5-5.8,8.1-8.9
			c-1.2-1-2.5-2-3.8-2.8c-2.7,3-5.6,6.3-8.8,10.1c-18.1,21.5-47.6,34.6-61.6,33.8C547.8,378.6,536.3,371.5,536.8,375.6z"/>
		<path class="st28" d="M629.2,335.4c1.3,0.9,2.6,1.8,3.8,2.8c14.4-13.8,36.1-28.1,34.7-30.2c-1.6,0.2-3.2,0.7-4.8,1.4
			C651.2,314.7,642.2,321.2,629.2,335.4z"/>
		<path class="st11" d="M565.5,396.6c11.9,2.6,25.4,2,36.5-3.2c12-5.7,32.2-17.1,49.7-28.8c-1.3-2.8-2.9-5.8-4.7-8.9
			c-10.6,7-17,13.3-21.9,17C592.2,397,586,396.2,565.5,396.6z"/>
		<path class="st15" d="M647.2,355.7c1.8,3,3.3,6,4.7,8.9c13.9-9.4,26.1-18.9,31.1-26.1c0.7-1,1.2-1.9,1.7-2.9
			C678.5,340.5,662.2,348.5,647.2,355.7z"/>
	</g>
</g>
<g>
	<path class="st4" d="M351.2,192.4h-97.4c-2.4,0-4.6-0.9-6.2-2.5c-1.7-1.7-2.8-4-2.8-6.6l0,0c0-3.1,1.6-5.9,4-7.5
		c1.5-1,3.2-1.6,5.1-1.6h97.4c2.5,0,4.8,1,6.4,2.7c1.6,1.6,2.7,3.9,2.7,6.4l0,0c0,2-0.7,3.9-1.8,5.4
		C356.9,190.9,354.2,192.4,351.2,192.4z"/>
	<path class="st4" d="M415.7,211.3H248.8c-1,0-2-0.4-2.7-1.1c-0.8-0.7-1.3-1.8-1.3-3l0,0c0-1.4,0.7-2.6,1.7-3.3
		c0.7-0.5,1.5-0.7,2.3-0.7h166.9c1.1,0,2.1,0.5,2.9,1.2c0.7,0.7,1.2,1.7,1.2,2.9l0,0c0,1.1-0.5,2.1-1.2,2.9S416.8,211.3,415.7,211.3
		z"/>
</g>
<g>
	<path class="st2" d="M350.5,189h-97.4c-2.4,0-4.6-0.9-6.2-2.5c-1.7-1.7-2.8-4-2.8-6.6l0,0c0-3.1,1.6-5.9,4-7.5
		c1.5-1,3.2-1.6,5.1-1.6h97.3c2.5,0,4.8,1,6.4,2.7c1.6,1.6,2.7,3.9,2.7,6.4l0,0c0,2-0.7,3.9-1.8,5.4
		C356.1,187.6,353.5,189,350.5,189z"/>
	<path class="st2" d="M414.9,207.9H247.9c-1,0-2-0.4-2.7-1.1c-0.8-0.7-1.3-1.8-1.3-3l0,0c0-1.4,0.7-2.6,1.7-3.3
		c0.7-0.5,1.5-0.7,2.3-0.7h166.9c1.1,0,2.1,0.5,2.9,1.2s1.2,1.7,1.2,2.9l0,0c0,1.1-0.5,2.1-1.2,2.9
		C417.1,207.4,416.1,207.9,414.9,207.9z"/>
</g>
</svg>
