<?xml version="1.0" encoding="UTF-8"?>
<svg width="175px" height="69px" viewBox="0 0 175 69" version="1.1" xmlns="http://www.w3.org/2000/svg" xmlns:xlink="http://www.w3.org/1999/xlink">
    <!-- Generator: sketchtool 63.1 (101010) - https://sketch.com -->
    <title>C7F940C1-6FE3-480F-9FB0-D1A304928F42</title>
    <desc>Created with sketchtool.</desc>
    <defs>
        <polygon id="path-1" points="0 0.2006 40.2844582 0.2006 40.2844582 43.9528727 0 43.9528727"></polygon>
        <polygon id="path-3" points="0 68.7179782 174.654055 68.7179782 174.654055 0.000250909091 0 0.000250909091"></polygon>
    </defs>
    <g id="Page-1" stroke="none" stroke-width="1" fill="none" fill-rule="evenodd">
        <g id="01_ad_light" transform="translate(-120.000000, -48.000000)">
            <g id="Logos-/-Gigtel_Color" transform="translate(120.000000, 48.000000)">
                <g id="Group-12">
                    <g id="Group-3" transform="translate(0.000000, 13.263433)">
                        <mask id="mask-2" fill="white">
                            <use xlink:href="#path-1"></use>
                        </mask>
                        <g id="Clip-2"></g>
                        <path d="M10.4977855,1.84405455 C8.32742182,2.93927273 6.68396727,4.0646 5.56742182,5.22129091 C4.45213091,6.37798182 3.48864,7.72661818 2.67820364,9.2672 C1.86525818,10.8102909 1.21791273,12.4926364 0.729894545,14.318 C0.243130909,16.1433636 -0.000250909091,18.1318182 -0.000250909091,20.2821091 L-0.000250909091,22.8990909 C-0.000250909091,26.3478364 0.515367273,29.5519455 1.54660364,32.5126727 C2.57784,35.4746545 4.01304,37.7466364 5.85471273,39.3286182 C7.69513091,40.9106 9.22191273,41.9255273 10.4350582,42.3708909 C11.6482036,42.8187636 12.5991491,43.1324 13.28664,43.3143091 C13.9741309,43.4974727 14.5913673,43.6191636 15.1370945,43.6793818 C15.6828218,43.7408545 16.3389491,43.8311818 17.10924,43.9528727 L19.9608218,43.9528727 L20.6269855,43.9528727 L40.2844582,43.9528727 L40.2844582,18.0302 L18.6811855,18.0302 L18.6811855,25.7582 L30.9117491,25.7582 L30.9117491,35.9814909 L20.5680218,35.9814909 C16.5522218,35.9814909 13.8223309,34.7859091 12.3833673,32.3922364 C10.9431491,29.9985636 10.22304,26.6715091 10.22304,22.4123273 L10.22304,21.7424 C10.22304,19.1467455 10.52664,16.7944727 11.1363491,14.6843273 C11.7448036,12.5741818 12.7986218,10.9018727 14.3003127,9.66363636 C15.8007491,8.42665455 17.8908218,7.80690909 20.5680218,7.80690909 L40.2844582,7.80690909 L40.2844582,0.2006 L20.5680218,0.2006 C16.0240582,0.2006 12.6668945,0.748836364 10.4977855,1.84405455" id="Fill-1" fill="#909191" mask="url(#mask-2)"></path>
                    </g>
                    <mask id="mask-4" fill="white">
                        <use xlink:href="#path-3"></use>
                    </mask>
                    <g id="Clip-5"></g>
                    <polygon id="Fill-4" fill="#909191" mask="url(#mask-4)" points="47.2198364 57.2163055 55.9828364 57.2163055 55.9828364 25.1476145 47.2198364 25.1476145"></polygon>
                    <polygon id="Fill-6" fill="#909191" mask="url(#mask-4)" points="47.2198364 21.4354145 55.9828364 21.4354145 55.9828364 13.4640327 47.2198364 13.4640327"></polygon>
                    <path d="M86.1564109,32.02428 L86.1564109,50.5840255 L81.7755382,50.5840255 L80.7405382,50.5840255 C79.3203927,50.5840255 78.1335927,50.50248 77.1813927,50.3406436 C76.2266836,50.1788073 75.3861382,49.8137345 74.6547382,49.2454255 C72.4655564,47.7048436 71.3703382,45.1280073 71.3703382,41.5174255 L71.3703382,39.6305891 C71.3703382,38.5767709 71.5221382,37.6333527 71.8269927,36.8015891 C72.1331018,35.9698255 72.6324109,35.1380618 73.3236655,34.3062982 C74.0161745,33.4757891 75.0975927,32.8761164 76.5629018,32.5110436 C78.0282109,32.1459709 79.7406655,31.9628073 81.6965018,31.9628073 L86.1564109,32.02428 Z M77.6367927,25.1782255 C76.9467927,25.1995527 75.9531927,25.2911345 74.6547382,25.4529709 C73.3562836,25.6148073 72.0590836,25.97988 70.7618836,26.5469345 C69.4621745,27.1164982 67.7585018,28.4136982 65.6496109,30.4422982 C63.5394655,32.4708982 62.4856473,36.08148 62.4856473,41.2740436 C62.4856473,43.7894073 62.8808291,46.1015345 63.6711927,48.2104255 C64.4628109,50.3205709 65.5367018,52.0242436 66.8966291,53.3226982 C68.2553018,54.6211527 69.5637927,55.5344618 70.8208473,56.0601164 C72.0779018,56.58828 73.2458836,56.9119527 74.3197745,57.0348982 C75.39492,57.1565891 76.7849564,57.2168073 78.4898836,57.2168073 L79.2802473,57.2168073 L86.1564109,57.2168073 C86.1564109,60.5426073 84.4527382,62.2073891 81.0453927,62.2073891 L65.9532109,62.2073891 L65.9532109,68.71848 L82.5671564,68.71848 C85.3647927,68.71848 87.6982473,68.2505345 89.5637564,67.3184073 C91.3489745,66.30348 92.6574655,64.8532255 93.4892291,62.9676436 C94.3197382,61.0808073 94.7362473,58.7586436 94.7362473,55.9998982 L94.7362473,25.1481164 L79.2802473,25.1481164 C78.8737745,25.1481164 78.3267927,25.1581527 77.6367927,25.1782255 L77.6367927,25.1782255 Z" id="Fill-7" fill="#909191" mask="url(#mask-4)"></path>
                    <polygon id="Fill-8" fill="#19D4D8" mask="url(#mask-4)" points="162.097309 57.2163055 170.860309 57.2163055 170.860309 13.4640327 162.097309 13.4640327"></polygon>
                    <path d="M111.075824,38.2326491 C111.075824,17.5075582 139.485005,0.687867273 174.653678,0.494667273 C171.351715,0.179776364 167.970715,-0.000878181818 164.514442,-0.000878181818 C144.878296,-0.000878181818 127.367351,5.25441273 115.92966,13.4641582 L94.2611509,13.4641582 L94.2611509,21.43554 L107.505387,21.43554 C104.049115,25.9243036 102.120878,30.8935582 102.120878,36.1262673 C102.120878,50.0379218 115.706351,62.1053945 135.609715,68.1422673 C133.168369,66.9466855 130.882587,65.6407036 128.764915,64.2381218 C117.80646,57.4698491 111.075824,48.3154309 111.075824,38.2326491" id="Fill-9" fill="#19D4D8" mask="url(#mask-4)"></path>
                    <path d="M121.141544,21.4360418 L135.016816,21.4360418 L135.016816,13.46466 L131.569325,13.46466 C127.47198,15.8206964 123.95298,18.5041691 121.141544,21.4360418" id="Fill-10" fill="#19D4D8" mask="url(#mask-4)"></path>
                    <path d="M130.344764,39.7659545 L130.344764,38.9994273 C130.344764,37.9368273 130.496564,36.9871364 130.802673,36.1503545 C131.107527,35.3135727 131.606836,34.4755364 132.299345,33.6387545 C132.9906,32.8019727 134.072018,32.1985364 135.538582,31.8309545 C137.003891,31.4633727 138.715091,31.2802091 140.670927,31.2802091 L143.898873,31.3241182 C145.889836,31.9827545 145.916182,33.2749364 145.916182,33.8143909 L130.344764,39.7659545 Z M154.611436,33.4217182 C154.611436,27.8076273 151.215382,24.7929545 144.512345,24.4467 L144.512345,24.4191 L143.606564,24.4191 C143.461036,24.4165909 143.316764,24.4128273 143.168727,24.4128273 L139.373727,24.4128273 L139.373727,24.4191 L138.254673,24.4191 C137.8482,24.4191 137.301218,24.4291364 136.611218,24.4492091 C135.921218,24.4705364 134.927618,24.5621182 133.630418,24.7252091 C132.331964,24.8883 131.033509,25.2558818 129.736309,25.8279545 C128.4366,26.4000273 126.732927,27.7072636 124.624036,29.7484091 C122.515145,31.7908091 121.460073,35.4264818 121.460073,40.6529182 C121.460073,43.1858455 121.855255,45.5130273 122.645618,47.6357182 C123.437236,49.7596636 124.512382,51.4758818 125.872309,52.7818636 C127.230982,54.0891 128.539473,55.0086818 129.796527,55.5393545 C131.053582,56.0700273 132.220309,56.3962091 133.295455,56.5191545 C134.369345,56.6421 135.759382,56.7023182 137.464309,56.7023182 L138.254673,56.7023182 L138.789109,56.7023182 L144.512345,56.7023182 L154.527382,56.7023182 L154.527382,52.7216455 L154.528636,52.7216455 L154.528636,50.0243727 L139.624636,50.0243727 C139.045036,50.0231182 138.508091,50.0055545 138.006273,49.9767 C137.977418,49.9716818 137.946055,49.9679182 137.9172,49.9616455 L137.9172,49.9716818 C137.263582,49.9315364 136.672691,49.8688091 136.155818,49.7797364 C135.202364,49.6179 134.360564,49.2503182 133.630418,48.6782455 C132.656891,47.9882455 131.899145,47.0899909 131.359691,45.9885 L154.611436,37.7737364 L154.611436,33.4217182 Z" id="Fill-11" fill="#19D4D8" mask="url(#mask-4)"></path>
                </g>
            </g>
        </g>
    </g>
</svg>