<?xml version="1.0" encoding="UTF-8"?>
<svg width="174px" height="69px" viewBox="0 0 174 69" version="1.1" xmlns="http://www.w3.org/2000/svg" xmlns:xlink="http://www.w3.org/1999/xlink">
    <!-- Generator: sketchtool 63.1 (101010) - https://sketch.com -->
    <title>01D9C060-AC08-4C6A-BE99-54FFD3E9A249</title>
    <desc>Created with sketchtool.</desc>
    <g id="Page-1" stroke="none" stroke-width="1" fill="none" fill-rule="evenodd">
        <g id="01_ad_dark" transform="translate(-81.000000, -52.000000)">
            <g id="Logos-/-Gigtel_Knocked-Out" transform="translate(81.000000, 52.000000)">
                <g>
                    <path d="M10.4194,14.9957 C8.2634,16.0837 6.6344,17.1997 5.5264,18.3487 C4.4194,19.4957 3.4634,20.8337 2.6574,22.3647 C1.8524,23.8967 1.2064,25.5647 0.7254,27.3777 C0.2404,29.1897 0.0004,31.1627 0.0004,33.2977 L0.0004,35.8957 C0.0004,39.3177 0.5124,42.4997 1.5354,45.4387 C2.5594,48.3787 3.9824,50.6337 5.8104,52.2037 C7.6384,53.7727 9.1524,54.7817 10.3574,55.2237 C11.5624,55.6677 12.5044,55.9777 13.1884,56.1597 C13.8704,56.3417 14.4814,56.4617 15.0244,56.5217 C15.5654,56.5827 16.2184,56.6737 16.9824,56.7937 L19.8124,56.7937 L20.4744,56.7937 L39.9854,56.7937 L39.9854,31.0617 L18.5424,31.0617 L18.5424,38.7327 L30.6844,38.7327 L30.6844,48.8817 L20.4164,48.8817 C16.4304,48.8817 13.7214,47.6947 12.2914,45.3177 C10.8614,42.9427 10.1474,39.6397 10.1474,35.4117 L10.1474,34.7467 C10.1474,32.1697 10.4484,29.8357 11.0534,27.7407 C11.6574,25.6477 12.7034,23.9857 14.1944,22.7577 C15.6834,21.5297 17.7584,20.9147 20.4164,20.9147 L39.9854,20.9147 L39.9854,13.3647 L20.4164,13.3647 C15.9044,13.3647 12.5734,13.9077 10.4194,14.9957" id="Fill-1" fill="#FFFFFF"></path>
                    <polygon id="Fill-3" fill="#FFFFFF" points="46.872 56.7936 55.569 56.7936 55.569 24.9606 46.872 24.9606"></polygon>
                    <polygon id="Fill-5" fill="#FFFFFF" points="46.872 21.2776 55.569 21.2776 55.569 13.3656 46.872 13.3656"></polygon>
                    <path d="M85.519,31.7872 L85.519,50.2112 L81.169,50.2112 L80.145,50.2112 C78.733,50.2112 77.556,50.1302 76.611,49.9682 C75.663,49.8082 74.828,49.4452 74.103,48.8802 C71.929,47.3522 70.841,44.7952 70.841,41.2092 L70.841,39.3382 C70.841,38.2912 70.993,37.3552 71.296,36.5302 C71.599,35.7042 72.096,34.8792 72.783,34.0522 C73.469,33.2282 74.542,32.6322 75.997,32.2712 C77.453,31.9082 79.151,31.7262 81.092,31.7262 L85.519,31.7872 Z M77.063,24.9912 C76.377,25.0132 75.392,25.1032 74.103,25.2642 C72.814,25.4252 71.526,25.7872 70.237,26.3512 C68.948,26.9162 67.257,28.2042 65.165,30.2172 C63.07,32.2312 62.023,35.8152 62.023,40.9692 C62.023,43.4662 62.415,45.7612 63.2,47.8532 C63.986,49.9492 65.054,51.6392 66.402,52.9282 C67.751,54.2172 69.05,55.1232 70.298,55.6472 C71.546,56.1702 72.704,56.4922 73.771,56.6142 C74.837,56.7332 76.217,56.7942 77.91,56.7942 L78.694,56.7942 L85.519,56.7942 C85.519,60.0962 83.829,61.7462 80.445,61.7462 L65.466,61.7462 L65.466,68.2102 L81.956,68.2102 C84.734,68.2102 87.049,67.7462 88.902,66.8212 C90.673,65.8132 91.972,64.3742 92.797,62.5022 C93.623,60.6292 94.038,58.3242 94.038,55.5862 L94.038,24.9612 L78.694,24.9612 C78.29,24.9612 77.748,24.9732 77.063,24.9912 L77.063,24.9912 Z" id="Fill-6" fill="#FFFFFF"></path>
                    <polygon id="Fill-7" fill="#2DFEFE" points="160.899 56.7936 169.598 56.7936 169.598 13.3646 160.899 13.3646"></polygon>
                    <path d="M110.2543,37.9503 C110.2543,17.3793 138.4533,0.6833 173.3633,0.4923 C170.0853,0.1783 166.7293,0.0003 163.2973,0.0003 C143.8073,0.0003 126.4253,5.2143 115.0723,13.3643 L93.5643,13.3643 L93.5643,21.2783 L106.7123,21.2783 C103.2793,25.7333 101.3663,30.6653 101.3663,35.8583 C101.3663,49.6673 114.8523,61.6463 134.6083,67.6383 C132.1843,66.4513 129.9143,65.1563 127.8133,63.7623 C116.9373,57.0463 110.2543,47.9583 110.2543,37.9503" id="Fill-8" fill="#2DFEFE"></path>
                    <path d="M120.2465,21.2774 L134.0185,21.2774 L134.0185,13.3654 L130.5975,13.3654 C126.5305,15.7034 123.0365,18.3674 120.2465,21.2774" id="Fill-9" fill="#2DFEFE"></path>
                    <path d="M129.3813,39.4718 L129.3813,38.7108 C129.3813,37.6568 129.5313,36.7138 129.8353,35.8838 C130.1393,35.0528 130.6343,34.2208 131.3203,33.3888 C132.0073,32.5598 133.0803,31.9608 134.5363,31.5968 C135.9903,31.2318 137.6893,31.0488 139.6323,31.0488 L142.8343,31.0928 C144.8113,31.7468 144.8373,33.0278 144.8373,33.5638 L129.3813,39.4718 Z M153.4693,33.1748 C153.4693,27.6018 150.0983,24.6108 143.4443,24.2668 L143.4443,24.2378 L142.5453,24.2378 C142.4013,24.2358 142.2573,24.2328 142.1103,24.2328 L138.3433,24.2328 L138.3433,24.2378 L137.2323,24.2378 C136.8293,24.2378 136.2863,24.2488 135.6033,24.2688 C134.9173,24.2888 133.9313,24.3808 132.6433,24.5428 C131.3543,24.7048 130.0673,25.0698 128.7773,25.6378 C127.4873,26.2048 125.7963,27.5028 123.7023,29.5278 C121.6103,31.5568 120.5633,35.1638 120.5633,40.3518 C120.5633,42.8658 120.9563,45.1768 121.7393,47.2838 C122.5263,49.3928 123.5923,51.0968 124.9413,52.3918 C126.2893,53.6898 127.5883,54.6028 128.8363,55.1288 C130.0843,55.6558 131.2433,55.9788 132.3103,56.1008 C133.3763,56.2238 134.7563,56.2828 136.4473,56.2828 L137.2323,56.2828 L137.7643,56.2828 L143.4443,56.2828 L153.3863,56.2828 L153.3863,52.3328 L153.3883,52.3328 L153.3883,49.6538 L138.5943,49.6538 C138.0183,49.6518 137.4853,49.6358 136.9853,49.6078 C136.9583,49.6028 136.9253,49.5978 136.8993,49.5928 L136.8993,49.6028 C136.2503,49.5628 135.6623,49.4998 135.1493,49.4128 C134.2023,49.2508 133.3673,48.8858 132.6433,48.3188 C131.6763,47.6338 130.9253,46.7418 130.3883,45.6488 L153.4693,37.4938 L153.4693,33.1748 Z" id="Fill-10" fill="#2DFEFE"></path>
                </g>
            </g>
        </g>
    </g>
</svg>