<?xml version="1.0" encoding="utf-8"?>
<!-- Generator: Adobe Illustrator 23.0.2, SVG Export Plug-In . SVG Version: 6.00 Build 0)  -->
<svg version="1.1" id="Layer_3" xmlns="http://www.w3.org/2000/svg" xmlns:xlink="http://www.w3.org/1999/xlink" x="0px" y="0px"
	 viewBox="0 0 1419.1 794.7" style="enable-background:new 0 0 1419.1 794.7;" xml:space="preserve">
<style type="text/css">
	.st0{fill:url(#SVGID_1_);}
	.st1{fill:url(#SVGID_2_);}
	.st2{fill:url(#SVGID_3_);}
	.st3{fill:url(#SVGID_4_);}
	.st4{fill:url(#SVGID_5_);}
	.st5{fill:url(#SVGID_6_);}
	.st6{fill:url(#SVGID_7_);}
	.st7{fill:url(#SVGID_8_);}
	.st8{fill:url(#SVGID_9_);}
	.st9{fill:url(#SVGID_10_);}
	.st10{fill:url(#SVGID_11_);}
	.st11{fill:url(#SVGID_12_);}
	.st12{fill:url(#SVGID_13_);}
	.st13{fill:url(#SVGID_14_);}
	.st14{fill:url(#SVGID_15_);}
	.st15{fill:url(#SVGID_16_);}
	.st16{fill:url(#SVGID_17_);}
	.st17{fill:url(#SVGID_18_);}
	.st18{fill:url(#SVGID_19_);}
	.st19{fill:url(#SVGID_20_);}
	.st20{fill:url(#SVGID_21_);}
	.st21{fill:url(#SVGID_22_);}
	.st22{fill:url(#SVGID_23_);}
	.st23{fill:url(#SVGID_24_);}
	.st24{fill:url(#SVGID_25_);}
	.st25{fill:url(#SVGID_26_);}
	.st26{fill:url(#SVGID_27_);}
	.st27{fill:url(#SVGID_28_);}
	.st28{fill:url(#SVGID_29_);}
	.st29{fill:url(#SVGID_30_);}
	.st30{fill:url(#SVGID_31_);}
	.st31{fill:url(#SVGID_32_);}
	.st32{fill:url(#SVGID_33_);}
	.st33{fill:url(#SVGID_34_);}
	.st34{fill:url(#SVGID_35_);}
</style>
<g>
	<g>
		
			<linearGradient id="SVGID_1_" gradientUnits="userSpaceOnUse" x1="1292.084" y1="1283.4052" x2="-156.7007" y2="237.9454" gradientTransform="matrix(1 0 0 -1 0 1274)">
			<stop  offset="0" style="stop-color:#0BD2D3"/>
			<stop  offset="0.513" style="stop-color:#736AEA"/>
			<stop  offset="1" style="stop-color:#D607FF"/>
		</linearGradient>
		<path class="st0" d="M1038.3,295.1c-5.4,0.3-116,6.5-191.1-103.8c-61.1-89.6-125.8,61.3-306,22.8
			c-91.5-19.8-291.9-81.9-377.2,34.2C78.8,364.5,306.1,448.7,355.8,482.4c49.7,33.5,105.7,72.4,161.9,174.3
			c56.2,101.8,57,118,104.7,132.9c26.1,8.2,62.3,25.6,231.7-127.6s400-14.4,472.7-143.4C1352.1,473.7,1367.4,278.3,1038.3,295.1z"/>
		
			<linearGradient id="SVGID_2_" gradientUnits="userSpaceOnUse" x1="1578.6166" y1="1030.6653" x2="71.4286" y2="-56.939" gradientTransform="matrix(1 0 0 -1 0 1274)">
			<stop  offset="0" style="stop-color:#0BD2D3"/>
			<stop  offset="0.513" style="stop-color:#736AEA"/>
			<stop  offset="1" style="stop-color:#D607FF"/>
		</linearGradient>
		<path class="st1" d="M990.5,629.3c-40.5,9.5-73.9,34.9-60.2,51.5c11.1,13.5,39.8-9.4,82.1-8c41.2,1.4,68.1-8.4,64.6-26.3
			C1073,626.9,1030.8,619.8,990.5,629.3z"/>
	</g>
	<g>
		
			<linearGradient id="SVGID_3_" gradientUnits="userSpaceOnUse" x1="5793.1333" y1="1100.208" x2="7794.4355" y2="-94.8435" gradientTransform="matrix(-1 0 0 1 5890.6841 -621.8662)">
			<stop  offset="0" style="stop-color:#0BD2D3"/>
			<stop  offset="0.513" style="stop-color:#736AEA"/>
			<stop  offset="1" style="stop-color:#D607FF"/>
		</linearGradient>
		<path class="st2" d="M472.4,738.1l49.9-39.1c1.9-2.7,3.5-5.4,5.1-8.3L463.1,741C466.5,740.2,469.5,739.1,472.4,738.1z"/>
		
			<linearGradient id="SVGID_4_" gradientUnits="userSpaceOnUse" x1="5789.3057" y1="1094.2805" x2="7820.668" y2="-118.7212" gradientTransform="matrix(-1 0 0 1 5890.6841 -621.8662)">
			<stop  offset="0" style="stop-color:#0BD2D3"/>
			<stop  offset="0.513" style="stop-color:#736AEA"/>
			<stop  offset="1" style="stop-color:#D607FF"/>
		</linearGradient>
		<path class="st3" d="M433.6,746.1l106.9-83.5c0.8-2,1.4-4,2.1-5.9l-114.8,89.8C429.7,746.4,431.8,746.3,433.6,746.1z"/>
		
			<linearGradient id="SVGID_5_" gradientUnits="userSpaceOnUse" x1="5781.772" y1="1090.3162" x2="7826.9248" y2="-130.9202" gradientTransform="matrix(-1 0 0 1 5890.6841 -621.8662)">
			<stop  offset="0" style="stop-color:#0BD2D3"/>
			<stop  offset="0.513" style="stop-color:#736AEA"/>
			<stop  offset="1" style="stop-color:#D607FF"/>
		</linearGradient>
		<path class="st4" d="M404.3,746.8L549.8,633c0.5-1.8,1-3.7,1.4-5.4l-152.3,119C400.7,746.7,402.5,746.8,404.3,746.8z"/>
		
			<linearGradient id="SVGID_6_" gradientUnits="userSpaceOnUse" x1="5772.5962" y1="1086.5322" x2="7825.5288" y2="-139.3505" gradientTransform="matrix(-1 0 0 1 5890.6841 -621.8662)">
			<stop  offset="0" style="stop-color:#0BD2D3"/>
			<stop  offset="0.513" style="stop-color:#736AEA"/>
			<stop  offset="1" style="stop-color:#D607FF"/>
		</linearGradient>
		<path class="st5" d="M377.7,745.3L557.3,605c0.4-1.8,0.9-3.5,1.3-5.3L372.8,744.8C374.3,745,376,745.1,377.7,745.3z"/>
		
			<linearGradient id="SVGID_7_" gradientUnits="userSpaceOnUse" x1="5762.1064" y1="1081.9266" x2="7819.9683" y2="-146.8984" gradientTransform="matrix(-1 0 0 1 5890.6841 -621.8662)">
			<stop  offset="0" style="stop-color:#0BD2D3"/>
			<stop  offset="0.513" style="stop-color:#736AEA"/>
			<stop  offset="1" style="stop-color:#D607FF"/>
		</linearGradient>
		<path class="st6" d="M352.7,742.3l212.1-165.7c0.5-1.9,1-3.7,1.5-5.5L348.2,741.6C349.8,741.9,351.2,742.1,352.7,742.3z"/>
		
			<linearGradient id="SVGID_8_" gradientUnits="userSpaceOnUse" x1="5750.3696" y1="1075.7803" x2="7812.2676" y2="-155.4556" gradientTransform="matrix(-1 0 0 1 5890.6841 -621.8662)">
			<stop  offset="0" style="stop-color:#0BD2D3"/>
			<stop  offset="0.513" style="stop-color:#736AEA"/>
			<stop  offset="1" style="stop-color:#D607FF"/>
		</linearGradient>
		<path class="st7" d="M329.4,738.2l244.6-191c0.8-2,1.4-4,2.2-5.9L325.2,737.2C326.6,737.6,328,737.9,329.4,738.2z"/>
		
			<linearGradient id="SVGID_9_" gradientUnits="userSpaceOnUse" x1="5736.4414" y1="1066.4097" x2="7801.6094" y2="-166.7784" gradientTransform="matrix(-1 0 0 1 5890.6841 -621.8662)">
			<stop  offset="0" style="stop-color:#0BD2D3"/>
			<stop  offset="0.513" style="stop-color:#736AEA"/>
			<stop  offset="1" style="stop-color:#D607FF"/>
		</linearGradient>
		<path class="st8" d="M307.4,733l280.2-218.8c1.1-2.4,2.4-4.8,3.6-7.1L303.3,732C304.7,732.3,306.1,732.7,307.4,733z"/>
		
			<linearGradient id="SVGID_10_" gradientUnits="userSpaceOnUse" x1="5718.6768" y1="1050.7465" x2="7787.3687" y2="-184.5461" gradientTransform="matrix(-1 0 0 1 5890.6841 -621.8662)">
			<stop  offset="0" style="stop-color:#0BD2D3"/>
			<stop  offset="0.513" style="stop-color:#736AEA"/>
			<stop  offset="1" style="stop-color:#D607FF"/>
		</linearGradient>
		<path class="st9" d="M286.8,727l330-257.7l0.8-4.9L282.9,725.6C284.2,726.1,285.4,726.5,286.8,727z"/>
		
			<linearGradient id="SVGID_11_" gradientUnits="userSpaceOnUse" x1="5685.5005" y1="1009.3617" x2="7758.4233" y2="-228.4572" gradientTransform="matrix(-1 0 0 1 5890.6841 -621.8662)">
			<stop  offset="0" style="stop-color:#0BD2D3"/>
			<stop  offset="0.513" style="stop-color:#736AEA"/>
			<stop  offset="1" style="stop-color:#D607FF"/>
		</linearGradient>
		<path class="st10" d="M267.1,720l424-331.1c0.9-2.1,1.8-4.2,2.6-6.1L263.5,718.7C264.6,719,265.8,719.5,267.1,720z"/>
		
			<linearGradient id="SVGID_12_" gradientUnits="userSpaceOnUse" x1="5673.4302" y1="1004.088" x2="7747.2705" y2="-234.2789" gradientTransform="matrix(-1 0 0 1 5890.6841 -621.8662)">
			<stop  offset="0" style="stop-color:#0BD2D3"/>
			<stop  offset="0.513" style="stop-color:#736AEA"/>
			<stop  offset="1" style="stop-color:#D607FF"/>
		</linearGradient>
		<path class="st11" d="M248.4,712.1l449.2-350.7c0-1.4,0-2.8,0-4.2L244.9,710.6C246.1,711.1,247.4,711.7,248.4,712.1z"/>
		
			<linearGradient id="SVGID_13_" gradientUnits="userSpaceOnUse" x1="5663.3843" y1="1002.3428" x2="7737.6909" y2="-236.3025" gradientTransform="matrix(-1 0 0 1 5890.6841 -621.8662)">
			<stop  offset="0" style="stop-color:#0BD2D3"/>
			<stop  offset="0.513" style="stop-color:#736AEA"/>
			<stop  offset="1" style="stop-color:#D607FF"/>
		</linearGradient>
		<path class="st12" d="M230.7,703.6L695,341.1c-0.4-1.1-0.8-2.3-1.1-3.3L227.5,701.9C228.5,702.5,229.6,703.2,230.7,703.6z"/>
		
			<linearGradient id="SVGID_14_" gradientUnits="userSpaceOnUse" x1="5654.314" y1="1002.3016" x2="7728.9219" y2="-236.5233" gradientTransform="matrix(-1 0 0 1 5890.6841 -621.8662)">
			<stop  offset="0" style="stop-color:#0BD2D3"/>
			<stop  offset="0.513" style="stop-color:#736AEA"/>
			<stop  offset="1" style="stop-color:#D607FF"/>
		</linearGradient>
		<path class="st13" d="M214,694.4l473.7-369.9c-0.5-0.9-1.1-2-1.8-2.9L210.8,692.5C211.9,693.2,212.9,693.7,214,694.4z"/>
		
			<linearGradient id="SVGID_15_" gradientUnits="userSpaceOnUse" x1="5645.9751" y1="1003.5116" x2="7720.769" y2="-235.4249" gradientTransform="matrix(-1 0 0 1 5890.6841 -621.8662)">
			<stop  offset="0" style="stop-color:#0BD2D3"/>
			<stop  offset="0.513" style="stop-color:#736AEA"/>
			<stop  offset="1" style="stop-color:#D607FF"/>
		</linearGradient>
		<path class="st14" d="M198.2,684.6l479.2-374.2c-0.8-0.9-1.4-1.7-2.3-2.5L195.2,682.6C196.2,683.2,197.2,683.8,198.2,684.6z"/>
		
			<linearGradient id="SVGID_16_" gradientUnits="userSpaceOnUse" x1="5637.8394" y1="1005.0837" x2="7712.6172" y2="-233.8428" gradientTransform="matrix(-1 0 0 1 5890.6841 -621.8662)">
			<stop  offset="0" style="stop-color:#0BD2D3"/>
			<stop  offset="0.513" style="stop-color:#736AEA"/>
			<stop  offset="1" style="stop-color:#D607FF"/>
		</linearGradient>
		<path class="st15" d="M183.1,673.9l481.8-376.3c-0.9-0.8-1.8-1.4-2.6-2.2L180.4,671.7C181.3,672.5,182.1,673.2,183.1,673.9z"/>
		
			<linearGradient id="SVGID_17_" gradientUnits="userSpaceOnUse" x1="5630.0039" y1="1007.165" x2="7704.7817" y2="-231.7614" gradientTransform="matrix(-1 0 0 1 5890.6841 -621.8662)">
			<stop  offset="0" style="stop-color:#0BD2D3"/>
			<stop  offset="0.513" style="stop-color:#736AEA"/>
			<stop  offset="1" style="stop-color:#D607FF"/>
		</linearGradient>
		<path class="st16" d="M168.9,662.6l481.8-376.2c-0.9-0.7-2-1.3-2.8-2l-481.5,376C167.2,661.2,168.1,661.9,168.9,662.6z"/>
		
			<linearGradient id="SVGID_18_" gradientUnits="userSpaceOnUse" x1="5622.3013" y1="1009.5029" x2="7696.9849" y2="-229.3678" gradientTransform="matrix(-1 0 0 1 5890.6841 -621.8662)">
			<stop  offset="0" style="stop-color:#0BD2D3"/>
			<stop  offset="0.513" style="stop-color:#736AEA"/>
			<stop  offset="1" style="stop-color:#D607FF"/>
		</linearGradient>
		<path class="st17" d="M155.7,650.7l479.4-374.4c-1-0.7-2.1-1.2-3.1-1.8L153.3,648.3C154,649.1,154.9,649.8,155.7,650.7z"/>
		
			<linearGradient id="SVGID_19_" gradientUnits="userSpaceOnUse" x1="5614.6343" y1="1011.8618" x2="7689.2402" y2="-226.9627" gradientTransform="matrix(-1 0 0 1 5890.6841 -621.8662)">
			<stop  offset="0" style="stop-color:#0BD2D3"/>
			<stop  offset="0.513" style="stop-color:#736AEA"/>
			<stop  offset="1" style="stop-color:#D607FF"/>
		</linearGradient>
		<path class="st18" d="M143.4,638l474.9-370.9c-1.1-0.6-2.2-1.1-3.3-1.7L141.1,635.5C141.9,636.3,142.5,637.2,143.4,638z"/>
		
			<linearGradient id="SVGID_20_" gradientUnits="userSpaceOnUse" x1="5607.0864" y1="1014.4359" x2="7681.5342" y2="-224.2934" gradientTransform="matrix(-1 0 0 1 5890.6841 -621.8662)">
			<stop  offset="0" style="stop-color:#0BD2D3"/>
			<stop  offset="0.513" style="stop-color:#736AEA"/>
			<stop  offset="1" style="stop-color:#D607FF"/>
		</linearGradient>
		<path class="st19" d="M131.8,624.7l468.4-365.8c-1.1-0.6-2.4-0.9-3.5-1.4l-467,364.6C130.4,622.9,131,623.8,131.8,624.7z"/>
		
			<linearGradient id="SVGID_21_" gradientUnits="userSpaceOnUse" x1="5599.5347" y1="1017.0123" x2="7673.7148" y2="-221.5577" gradientTransform="matrix(-1 0 0 1 5890.6841 -621.8662)">
			<stop  offset="0" style="stop-color:#0BD2D3"/>
			<stop  offset="0.513" style="stop-color:#736AEA"/>
			<stop  offset="1" style="stop-color:#D607FF"/>
		</linearGradient>
		<path class="st20" d="M121.3,610.6l460-359.1c-1.2-0.4-2.6-0.9-3.8-1.3L119.2,607.9C119.9,608.9,120.5,609.7,121.3,610.6z"/>
		
			<linearGradient id="SVGID_22_" gradientUnits="userSpaceOnUse" x1="5592.0327" y1="1019.6385" x2="7665.7822" y2="-218.6741" gradientTransform="matrix(-1 0 0 1 5890.6841 -621.8662)">
			<stop  offset="0" style="stop-color:#0BD2D3"/>
			<stop  offset="0.513" style="stop-color:#736AEA"/>
			<stop  offset="1" style="stop-color:#D607FF"/>
		</linearGradient>
		<path class="st21" d="M111.7,595.8l449.4-351c-1.3-0.4-2.6-0.9-4-1.1L110,592.9C110.4,593.8,111,594.8,111.7,595.8z"/>
		
			<linearGradient id="SVGID_23_" gradientUnits="userSpaceOnUse" x1="5584.5747" y1="1022.3386" x2="7657.9824" y2="-215.7701" gradientTransform="matrix(-1 0 0 1 5890.6841 -621.8662)">
			<stop  offset="0" style="stop-color:#0BD2D3"/>
			<stop  offset="0.513" style="stop-color:#736AEA"/>
			<stop  offset="1" style="stop-color:#D607FF"/>
		</linearGradient>
		<path class="st22" d="M103.1,580.2l436.8-341.1c-1.3-0.3-2.7-0.8-4.2-1L101.5,577C101.9,578.1,102.6,579.1,103.1,580.2z"/>
		
			<linearGradient id="SVGID_24_" gradientUnits="userSpaceOnUse" x1="5577.0508" y1="1024.9043" x2="7649.8354" y2="-212.8321" gradientTransform="matrix(-1 0 0 1 5890.6841 -621.8662)">
			<stop  offset="0" style="stop-color:#0BD2D3"/>
			<stop  offset="0.513" style="stop-color:#736AEA"/>
			<stop  offset="1" style="stop-color:#D607FF"/>
		</linearGradient>
		<path class="st23" d="M95.6,563.6L517.5,234c-1.4-0.3-2.8-0.6-4.3-0.9L94.4,560.4C94.9,561.5,95.2,562.6,95.6,563.6z"/>
		
			<linearGradient id="SVGID_25_" gradientUnits="userSpaceOnUse" x1="5569.5161" y1="1027.4176" x2="7641.5942" y2="-209.8969" gradientTransform="matrix(-1 0 0 1 5890.6841 -621.8662)">
			<stop  offset="0" style="stop-color:#0BD2D3"/>
			<stop  offset="0.513" style="stop-color:#736AEA"/>
			<stop  offset="1" style="stop-color:#D607FF"/>
		</linearGradient>
		<path class="st24" d="M89.4,546.1L494.3,230c-1.5-0.2-3.1-0.4-4.5-0.7L88.5,542.6C88.8,543.8,89.1,544.9,89.4,546.1z"/>
		
			<linearGradient id="SVGID_26_" gradientUnits="userSpaceOnUse" x1="5561.9346" y1="1029.8088" x2="7633.1523" y2="-206.9919" gradientTransform="matrix(-1 0 0 1 5890.6841 -621.8662)">
			<stop  offset="0" style="stop-color:#0BD2D3"/>
			<stop  offset="0.513" style="stop-color:#736AEA"/>
			<stop  offset="1" style="stop-color:#D607FF"/>
		</linearGradient>
		<path class="st25" d="M84.7,527.5l384.9-300.7c-1.7-0.2-3.2-0.3-4.9-0.6L83.9,523.9C84.1,525,84.5,526.3,84.7,527.5z"/>
		
			<linearGradient id="SVGID_27_" gradientUnits="userSpaceOnUse" x1="5554.3799" y1="1032.1813" x2="7624.5352" y2="-203.9853" gradientTransform="matrix(-1 0 0 1 5890.6841 -621.8662)">
			<stop  offset="0" style="stop-color:#0BD2D3"/>
			<stop  offset="0.513" style="stop-color:#736AEA"/>
			<stop  offset="1" style="stop-color:#D607FF"/>
		</linearGradient>
		<path class="st26" d="M81.5,507.7l362.1-282.8c-1.8-0.1-3.4-0.2-5.1-0.2l-357.3,279C81.3,504.9,81.5,506.3,81.5,507.7z"/>
		
			<linearGradient id="SVGID_28_" gradientUnits="userSpaceOnUse" x1="5546.6274" y1="1034.1393" x2="7615.3589" y2="-201.1768" gradientTransform="matrix(-1 0 0 1 5890.6841 -621.8662)">
			<stop  offset="0" style="stop-color:#0BD2D3"/>
			<stop  offset="0.513" style="stop-color:#736AEA"/>
			<stop  offset="1" style="stop-color:#D607FF"/>
		</linearGradient>
		<path class="st27" d="M80.3,486.2l335.8-262.3c-0.4,0-0.8,0-1,0c-1.4,0-3,0-4.4,0l-330.3,258c0,1.1-0.1,2.3-0.1,3.5
			C80.3,485.8,80.3,485.9,80.3,486.2z"/>
		
			<linearGradient id="SVGID_29_" gradientUnits="userSpaceOnUse" x1="5538.9136" y1="1035.9949" x2="7605.4062" y2="-197.9846" gradientTransform="matrix(-1 0 0 1 5890.6841 -621.8662)">
			<stop  offset="0" style="stop-color:#0BD2D3"/>
			<stop  offset="0.513" style="stop-color:#736AEA"/>
			<stop  offset="1" style="stop-color:#D607FF"/>
		</linearGradient>
		<path class="st28" d="M380.4,225.4L82.2,458.2c-0.2,1.5-0.4,3.1-0.5,4.6l304.7-238C384.3,225,382.4,225.3,380.4,225.4z"/>
		
			<linearGradient id="SVGID_30_" gradientUnits="userSpaceOnUse" x1="5531.4487" y1="1038.0546" x2="7595.0024" y2="-194.1696" gradientTransform="matrix(-1 0 0 1 5890.6841 -621.8662)">
			<stop  offset="0" style="stop-color:#0BD2D3"/>
			<stop  offset="0.513" style="stop-color:#736AEA"/>
			<stop  offset="1" style="stop-color:#D607FF"/>
		</linearGradient>
		<path class="st29" d="M346.4,229.5l-259,202.4c-0.5,1.8-0.9,3.5-1.3,5.3l267-208.7C351,228.8,348.8,229.1,346.4,229.5z"/>
		
			<linearGradient id="SVGID_31_" gradientUnits="userSpaceOnUse" x1="5524.1084" y1="1039.7372" x2="7582.2988" y2="-189.2842" gradientTransform="matrix(-1 0 0 1 5890.6841 -621.8662)">
			<stop  offset="0" style="stop-color:#0BD2D3"/>
			<stop  offset="0.513" style="stop-color:#736AEA"/>
			<stop  offset="1" style="stop-color:#D607FF"/>
		</linearGradient>
		<path class="st30" d="M307.2,237.9l-209,163.2c-0.9,2.1-1.8,4.2-2.7,6.3l219.8-171.5C312.6,236.4,309.8,237.2,307.2,237.9z"/>
		
			<linearGradient id="SVGID_32_" gradientUnits="userSpaceOnUse" x1="5516.6948" y1="1041.6223" x2="7574.5854" y2="-187.2204" gradientTransform="matrix(-1 0 0 1 5890.6841 -621.8662)">
			<stop  offset="0" style="stop-color:#0BD2D3"/>
			<stop  offset="0.513" style="stop-color:#736AEA"/>
			<stop  offset="1" style="stop-color:#D607FF"/>
		</linearGradient>
		<path class="st31" d="M256.5,255.1L120.2,361.5c-2,2.9-4,5.9-5.9,8.7l153.2-119.5C264,252.1,260.1,253.6,256.5,255.1z"/>
	</g>
	<g>
		
			<linearGradient id="SVGID_33_" gradientUnits="userSpaceOnUse" x1="280.7461" y1="845.6608" x2="1399.0236" y2="1213.314" gradientTransform="matrix(1 0 0 -1 0 1274)">
			<stop  offset="0" style="stop-color:#0BD2D3"/>
			<stop  offset="0.513" style="stop-color:#736AEA"/>
			<stop  offset="1" style="stop-color:#D607FF"/>
		</linearGradient>
		<path class="st32" d="M1338.7,314.7c5.9-202.9-232.2-91.3-510.5-244.3C507.8-105.8,287.8,124,325.2,351
			C353.7,524.5,619,674.6,854.5,565.1C1124.6,439.7,1334.5,456.1,1338.7,314.7z"/>
	</g>
	
		<linearGradient id="SVGID_34_" gradientUnits="userSpaceOnUse" x1="1070.9752" y1="1485.9895" x2="1310.4832" y2="1485.9895" gradientTransform="matrix(1 0 0 -1 -133.6442 1642.1895)">
		<stop  offset="0" style="stop-color:#0BD2D3"/>
		<stop  offset="0.513" style="stop-color:#736AEA"/>
		<stop  offset="1" style="stop-color:#D607FF"/>
	</linearGradient>
	<path class="st33" d="M938.9,248.4L938.9,248.4c2.2,1.7,5.8,1.7,7.8,0l228.4-178.3c2.2-1.7,2.2-4.4,0-6.1l0,0
		c-2.2-1.7-5.8-1.7-7.8,0L938.9,242.3C936.8,244,936.8,246.7,938.9,248.4z"/>
	
		<linearGradient id="SVGID_35_" gradientUnits="userSpaceOnUse" x1="1232.9086" y1="1548.7395" x2="1472.4164" y2="1548.7395" gradientTransform="matrix(1 0 0 -1 -133.6442 1642.1895)">
		<stop  offset="0" style="stop-color:#0BD2D3"/>
		<stop  offset="0.513" style="stop-color:#736AEA"/>
		<stop  offset="1" style="stop-color:#D607FF"/>
	</linearGradient>
	<path class="st34" d="M1100.9,185.7L1100.9,185.7c2.2,1.7,5.8,1.7,7.8,0L1337.1,7.3c2.2-1.7,2.2-4.4,0-6.1l0,0
		c-2.2-1.7-5.8-1.7-7.8,0l-228.4,178.4C1098.7,181.3,1098.7,184,1100.9,185.7z"/>
</g>
</svg>
