<?xml version="1.0" encoding="utf-8"?>
<!-- Generator: Adobe Illustrator 23.0.2, SVG Export Plug-In . SVG Version: 6.00 Build 0)  -->
<svg version="1.1" id="Layer_3" xmlns="http://www.w3.org/2000/svg" xmlns:xlink="http://www.w3.org/1999/xlink" x="0px" y="0px"
	 viewBox="0 0 1419.1 794.7" style="enable-background:new 0 0 1419.1 794.7;" xml:space="preserve">
<style type="text/css">
	.st0{fill:url(#SVGID_1_);}
	.st1{fill:url(#SVGID_2_);}
	.st2{fill:url(#SVGID_3_);}
	.st3{fill:url(#SVGID_4_);}
	.st4{fill:url(#SVGID_5_);}
	.st5{fill:url(#SVGID_6_);}
	.st6{fill:url(#SVGID_7_);}
	.st7{fill:url(#SVGID_8_);}
	.st8{fill:url(#SVGID_9_);}
	.st9{fill:url(#SVGID_10_);}
	.st10{fill:url(#SVGID_11_);}
	.st11{fill:url(#SVGID_12_);}
	.st12{fill:url(#SVGID_13_);}
	.st13{fill:url(#SVGID_14_);}
	.st14{fill:url(#SVGID_15_);}
	.st15{fill:url(#SVGID_16_);}
	.st16{fill:url(#SVGID_17_);}
	.st17{fill:url(#SVGID_18_);}
	.st18{fill:url(#SVGID_19_);}
	.st19{fill:url(#SVGID_20_);}
	.st20{fill:url(#SVGID_21_);}
	.st21{fill:url(#SVGID_22_);}
	.st22{fill:url(#SVGID_23_);}
	.st23{fill:url(#SVGID_24_);}
	.st24{fill:url(#SVGID_25_);}
	.st25{fill:url(#SVGID_26_);}
	.st26{fill:url(#SVGID_27_);}
	.st27{fill:url(#SVGID_28_);}
	.st28{fill:url(#SVGID_29_);}
	.st29{fill:url(#SVGID_30_);}
	.st30{fill:url(#SVGID_31_);}
	.st31{fill:url(#SVGID_32_);}
</style>
<g>
	<g>
		
			<linearGradient id="SVGID_1_" gradientUnits="userSpaceOnUse" x1="1298.3811" y1="-970.7027" x2="166.5102" y2="-303.1301" gradientTransform="matrix(1 0 0 1 0 960)">
			<stop  offset="4.192073e-04" style="stop-color:#FF4085"/>
			<stop  offset="0.5141" style="stop-color:#B54AB0"/>
			<stop  offset="1" style="stop-color:#7A2DDF"/>
		</linearGradient>
		<path class="st0" d="M1105.1,130.2C991,90.2,893.7,274,645,199.6c-293.9-87.8-482.5,19.1-484.7,132.3
			c-5,248.2,448.8,322.4,760.6,250.3C1232.6,510.2,1325.4,207.5,1105.1,130.2z"/>
		
			<linearGradient id="SVGID_2_" gradientUnits="userSpaceOnUse" x1="1224.5889" y1="-1068.9476" x2="67.8621" y2="-386.7148" gradientTransform="matrix(1 0 0 1 0 960)">
			<stop  offset="4.192073e-04" style="stop-color:#FF4085"/>
			<stop  offset="0.5141" style="stop-color:#B54AB0"/>
			<stop  offset="1" style="stop-color:#7A2DDF"/>
		</linearGradient>
		<path class="st1" d="M870.3,147.7c-2.4-21-43.9-9.4-96.3-6.6c-52.5,2.7-96-4.3-93.7,16.6c2.4,21,46.9,35.7,99.4,33
			C832.1,187.8,872.6,168.6,870.3,147.7z"/>
	</g>
	
		<linearGradient id="SVGID_3_" gradientUnits="userSpaceOnUse" x1="615.788" y1="-112.5305" x2="1273.5223" y2="-716.8962" gradientTransform="matrix(1 0 0 1 0 960)">
		<stop  offset="4.192073e-04" style="stop-color:#FF4085"/>
		<stop  offset="0.5141" style="stop-color:#B54AB0"/>
		<stop  offset="1" style="stop-color:#7A2DDF"/>
	</linearGradient>
	<path class="st2" d="M1028.9,512.2c-92.7,66.3-304.2,1.6-322.9,84.5c-20.8,92.3-123.7,73.8-119.4,118.6
		c3,31.4,56.9,57.1,128.5,41.5c155.3-33.7,149-133.9,400.3-234.8C1361,423.3,1217.9,376.9,1028.9,512.2z"/>
	<g>
		
			<linearGradient id="SVGID_4_" gradientUnits="userSpaceOnUse" x1="-2063.8823" y1="-3931.8987" x2="-2657.6289" y2="-3348.3193" gradientTransform="matrix(1 0 0 1 2584.6606 3760.3928)">
			<stop  offset="0" style="stop-color:#7A2DDF"/>
			<stop  offset="0.2343" style="stop-color:#B54AB0"/>
			<stop  offset="0.7587" style="stop-color:#FF4085"/>
		</linearGradient>
		<path class="st3" d="M250.8,85.8c-3,2.8-5.9,5.9-8.5,8.8l58.2-41.5c-4.1,1.9-8.4,3.9-12.3,6L250.8,85.8z"/>
		
			<linearGradient id="SVGID_5_" gradientUnits="userSpaceOnUse" x1="-2054.1431" y1="-3924.9102" x2="-2647.8767" y2="-3341.3425" gradientTransform="matrix(1 0 0 1 2584.6606 3760.3928)">
			<stop  offset="0" style="stop-color:#7A2DDF"/>
			<stop  offset="0.2343" style="stop-color:#B54AB0"/>
			<stop  offset="0.7587" style="stop-color:#FF4085"/>
		</linearGradient>
		<path class="st4" d="M226.2,117.9c-0.7,1.5-1.5,2.8-2.1,4.3l115.3-82.2c-2,0.5-4.1,0.9-6.1,1.6L226.2,117.9z"/>
		
			<linearGradient id="SVGID_6_" gradientUnits="userSpaceOnUse" x1="-2044.0868" y1="-3917.6113" x2="-2637.8101" y2="-3334.0544" gradientTransform="matrix(1 0 0 1 2584.6606 3760.3928)">
			<stop  offset="0" style="stop-color:#7A2DDF"/>
			<stop  offset="0.2343" style="stop-color:#B54AB0"/>
			<stop  offset="0.7587" style="stop-color:#FF4085"/>
		</linearGradient>
		<path class="st5" d="M218.1,138.3c-0.4,1.2-0.6,2.3-1,3.4L366.6,35.2c-1.6,0.2-3.2,0.4-4.8,0.6L218.1,138.3z"/>
		
			<linearGradient id="SVGID_7_" gradientUnits="userSpaceOnUse" x1="-2034.0739" y1="-3910.3743" x2="-2627.8018" y2="-3326.8127" gradientTransform="matrix(1 0 0 1 2584.6606 3760.3928)">
			<stop  offset="0" style="stop-color:#7A2DDF"/>
			<stop  offset="0.2343" style="stop-color:#B54AB0"/>
			<stop  offset="0.7587" style="stop-color:#FF4085"/>
		</linearGradient>
		<path class="st6" d="M215,154.9c-0.1,0.9-0.2,1.9-0.4,3L389.4,33.4c-1.4,0-2.7,0.1-4.1,0.2L215,154.9z"/>
		
			<linearGradient id="SVGID_8_" gradientUnits="userSpaceOnUse" x1="-2023.9722" y1="-3903.0486" x2="-2617.7107" y2="-3319.4771" gradientTransform="matrix(1 0 0 1 2584.6606 3760.3928)">
			<stop  offset="0" style="stop-color:#7A2DDF"/>
			<stop  offset="0.2343" style="stop-color:#B54AB0"/>
			<stop  offset="0.7587" style="stop-color:#FF4085"/>
		</linearGradient>
		<path class="st7" d="M214.8,169.8c0.1,0.8,0.1,1.7,0.2,2.6L409.5,33.5c-1.1-0.1-2.5-0.1-3.6-0.1L214.8,169.8z"/>
		
			<linearGradient id="SVGID_9_" gradientUnits="userSpaceOnUse" x1="-2013.9048" y1="-3895.7378" x2="-2607.6274" y2="-3312.1812" gradientTransform="matrix(1 0 0 1 2584.6606 3760.3928)">
			<stop  offset="0" style="stop-color:#7A2DDF"/>
			<stop  offset="0.2343" style="stop-color:#B54AB0"/>
			<stop  offset="0.7587" style="stop-color:#FF4085"/>
		</linearGradient>
		<path class="st8" d="M216.5,183c0.2,0.7,0.4,1.6,0.5,2.4L427.8,35.1c-1.1-0.1-2.2-0.3-3.4-0.4L216.5,183z"/>
		
			<linearGradient id="SVGID_10_" gradientUnits="userSpaceOnUse" x1="-2003.8223" y1="-3888.4414" x2="-2597.5725" y2="-3304.8582" gradientTransform="matrix(1 0 0 1 2584.6606 3760.3928)">
			<stop  offset="0" style="stop-color:#7A2DDF"/>
			<stop  offset="0.2343" style="stop-color:#B54AB0"/>
			<stop  offset="0.7587" style="stop-color:#FF4085"/>
		</linearGradient>
		<path class="st9" d="M219.8,195.2c0.4,0.7,0.5,1.5,0.9,2.2L444.5,37.6c-1-0.2-2-0.4-3.1-0.5L219.8,195.2z"/>
		
			<linearGradient id="SVGID_11_" gradientUnits="userSpaceOnUse" x1="-1993.7574" y1="-3881.1326" x2="-2587.4885" y2="-3297.5686" gradientTransform="matrix(1 0 0 1 2584.6606 3760.3928)">
			<stop  offset="0" style="stop-color:#7A2DDF"/>
			<stop  offset="0.2343" style="stop-color:#B54AB0"/>
			<stop  offset="0.7587" style="stop-color:#FF4085"/>
		</linearGradient>
		<path class="st10" d="M224.4,206.3c0.4,0.6,0.6,1.4,1,2L460.1,41c-1-0.3-1.9-0.5-2.9-0.7L224.4,206.3z"/>
		
			<linearGradient id="SVGID_12_" gradientUnits="userSpaceOnUse" x1="-1983.6394" y1="-3873.7847" x2="-2577.3774" y2="-3290.2139" gradientTransform="matrix(1 0 0 1 2584.6606 3760.3928)">
			<stop  offset="0" style="stop-color:#7A2DDF"/>
			<stop  offset="0.2343" style="stop-color:#B54AB0"/>
			<stop  offset="0.7587" style="stop-color:#FF4085"/>
		</linearGradient>
		<path class="st11" d="M230.1,216.9c0.4,0.6,0.9,1.3,1.1,1.9L474.5,45.2c-1-0.3-1.7-0.5-2.6-0.8L230.1,216.9z"/>
		
			<linearGradient id="SVGID_13_" gradientUnits="userSpaceOnUse" x1="-1973.5463" y1="-3866.4604" x2="-2567.2859" y2="-3282.8884" gradientTransform="matrix(1 0 0 1 2584.6606 3760.3928)">
			<stop  offset="0" style="stop-color:#7A2DDF"/>
			<stop  offset="0.2343" style="stop-color:#B54AB0"/>
			<stop  offset="0.7587" style="stop-color:#FF4085"/>
		</linearGradient>
		<path class="st12" d="M236.9,226.5c0.4,0.5,1,1.2,1.4,1.8L488,50.2c-0.9-0.3-1.6-0.6-2.5-0.9L236.9,226.5z"/>
		
			<linearGradient id="SVGID_14_" gradientUnits="userSpaceOnUse" x1="-1963.4337" y1="-3859.1074" x2="-2557.1614" y2="-3275.5464" gradientTransform="matrix(1 0 0 1 2584.6606 3760.3928)">
			<stop  offset="0" style="stop-color:#7A2DDF"/>
			<stop  offset="0.2343" style="stop-color:#B54AB0"/>
			<stop  offset="0.7587" style="stop-color:#FF4085"/>
		</linearGradient>
		<path class="st13" d="M244.5,235.6c0.5,0.5,1,1.1,1.6,1.6L500.6,55.8c-0.7-0.4-1.6-0.7-2.3-1.2L244.5,235.6z"/>
		
			<linearGradient id="SVGID_15_" gradientUnits="userSpaceOnUse" x1="-1953.2981" y1="-3851.8684" x2="-2547.302" y2="-3268.0359" gradientTransform="matrix(1 0 0 1 2584.6606 3760.3928)">
			<stop  offset="0" style="stop-color:#7A2DDF"/>
			<stop  offset="0.2343" style="stop-color:#B54AB0"/>
			<stop  offset="0.7587" style="stop-color:#FF4085"/>
		</linearGradient>
		<path class="st14" d="M252.9,244.1c0.5,0.5,1.1,1.1,1.7,1.6L512.3,61.9c-0.7-0.4-1.5-0.8-2.2-1.3L252.9,244.1z"/>
		
			<linearGradient id="SVGID_16_" gradientUnits="userSpaceOnUse" x1="-1943.1274" y1="-3844.6182" x2="-2537.4705" y2="-3260.4519" gradientTransform="matrix(1 0 0 1 2584.6606 3760.3928)">
			<stop  offset="0" style="stop-color:#7A2DDF"/>
			<stop  offset="0.2343" style="stop-color:#B54AB0"/>
			<stop  offset="0.7587" style="stop-color:#FF4085"/>
		</linearGradient>
		<path class="st15" d="M262.3,251.9c0.6,0.5,1.3,0.9,1.9,1.5l259-184.7c-0.6-0.5-1.4-0.8-2-1.4L262.3,251.9z"/>
		
			<linearGradient id="SVGID_17_" gradientUnits="userSpaceOnUse" x1="-1933.099" y1="-3837.2737" x2="-2527.4558" y2="-3253.094" gradientTransform="matrix(1 0 0 1 2584.6606 3760.3928)">
			<stop  offset="0" style="stop-color:#7A2DDF"/>
			<stop  offset="0.2343" style="stop-color:#B54AB0"/>
			<stop  offset="0.7587" style="stop-color:#FF4085"/>
		</linearGradient>
		<path class="st16" d="M272.4,259.3c0.6,0.5,1.4,0.8,2,1.4L533.2,75.9c-0.6-0.5-1.3-0.9-1.9-1.5L272.4,259.3z"/>
		
			<linearGradient id="SVGID_18_" gradientUnits="userSpaceOnUse" x1="-1923.1923" y1="-3829.718" x2="-2517.2036" y2="-3245.8782" gradientTransform="matrix(1 0 0 1 2584.6606 3760.3928)">
			<stop  offset="0" style="stop-color:#7A2DDF"/>
			<stop  offset="0.2343" style="stop-color:#B54AB0"/>
			<stop  offset="0.7587" style="stop-color:#FF4085"/>
		</linearGradient>
		<path class="st17" d="M283.3,266.1c0.7,0.4,1.5,0.8,2.2,1.3L542.6,83.9c-0.5-0.5-1.1-1.1-1.7-1.6L283.3,266.1z"/>
		
			<linearGradient id="SVGID_19_" gradientUnits="userSpaceOnUse" x1="-1913.2294" y1="-3822.1746" x2="-2506.9568" y2="-3238.6135" gradientTransform="matrix(1 0 0 1 2584.6606 3760.3928)">
			<stop  offset="0" style="stop-color:#7A2DDF"/>
			<stop  offset="0.2343" style="stop-color:#B54AB0"/>
			<stop  offset="0.7587" style="stop-color:#FF4085"/>
		</linearGradient>
		<path class="st18" d="M295,272.3c0.7,0.4,1.6,0.7,2.3,1.2L551.1,92.4c-0.5-0.5-1-1.1-1.6-1.6L295,272.3z"/>
		
			<linearGradient id="SVGID_20_" gradientUnits="userSpaceOnUse" x1="-1903.1694" y1="-3814.907" x2="-2496.9119" y2="-3231.3311" gradientTransform="matrix(1 0 0 1 2584.6606 3760.3928)">
			<stop  offset="0" style="stop-color:#7A2DDF"/>
			<stop  offset="0.2343" style="stop-color:#B54AB0"/>
			<stop  offset="0.7587" style="stop-color:#FF4085"/>
		</linearGradient>
		<path class="st19" d="M307.6,277.8c0.9,0.3,1.6,0.6,2.5,0.9l248.6-177.3c-0.4-0.5-1-1.2-1.4-1.8L307.6,277.8z"/>
		
			<linearGradient id="SVGID_21_" gradientUnits="userSpaceOnUse" x1="-1893.1001" y1="-3807.6001" x2="-2486.8384" y2="-3224.0288" gradientTransform="matrix(1 0 0 1 2584.6606 3760.3928)">
			<stop  offset="0" style="stop-color:#7A2DDF"/>
			<stop  offset="0.2343" style="stop-color:#B54AB0"/>
			<stop  offset="0.7587" style="stop-color:#FF4085"/>
		</linearGradient>
		<path class="st20" d="M321,282.7c1,0.3,1.7,0.5,2.6,0.8l241.8-172.5c-0.4-0.6-0.9-1.3-1.1-1.9L321,282.7z"/>
		
			<linearGradient id="SVGID_22_" gradientUnits="userSpaceOnUse" x1="-1882.9816" y1="-3800.2549" x2="-2476.7273" y2="-3216.6768" gradientTransform="matrix(1 0 0 1 2584.6606 3760.3928)">
			<stop  offset="0" style="stop-color:#7A2DDF"/>
			<stop  offset="0.2343" style="stop-color:#B54AB0"/>
			<stop  offset="0.7587" style="stop-color:#FF4085"/>
		</linearGradient>
		<path class="st21" d="M335.5,286.9c1,0.3,1.9,0.5,2.9,0.7l232.7-166.2c-0.4-0.6-0.6-1.4-1-2L335.5,286.9z"/>
		
			<linearGradient id="SVGID_23_" gradientUnits="userSpaceOnUse" x1="-1872.8887" y1="-3792.9258" x2="-2466.6326" y2="-3209.3491" gradientTransform="matrix(1 0 0 1 2584.6606 3760.3928)">
			<stop  offset="0" style="stop-color:#7A2DDF"/>
			<stop  offset="0.2343" style="stop-color:#B54AB0"/>
			<stop  offset="0.7587" style="stop-color:#FF4085"/>
		</linearGradient>
		<path class="st22" d="M351,290.4c1,0.2,2,0.4,3.1,0.5l221.8-158.2c-0.4-0.7-0.5-1.5-0.9-2.2L351,290.4z"/>
		
			<linearGradient id="SVGID_24_" gradientUnits="userSpaceOnUse" x1="-1862.7582" y1="-3785.5471" x2="-2456.4871" y2="-3201.9846" gradientTransform="matrix(1 0 0 1 2584.6606 3760.3928)">
			<stop  offset="0" style="stop-color:#7A2DDF"/>
			<stop  offset="0.2343" style="stop-color:#B54AB0"/>
			<stop  offset="0.7587" style="stop-color:#FF4085"/>
		</linearGradient>
		<path class="st23" d="M367.8,293c1.1,0.1,2.2,0.3,3.4,0.4l208-148.4c-0.2-0.7-0.4-1.6-0.5-2.4L367.8,293z"/>
		
			<linearGradient id="SVGID_25_" gradientUnits="userSpaceOnUse" x1="-1852.767" y1="-3778.3367" x2="-2446.5056" y2="-3194.7646" gradientTransform="matrix(1 0 0 1 2584.6606 3760.3928)">
			<stop  offset="0" style="stop-color:#7A2DDF"/>
			<stop  offset="0.2343" style="stop-color:#B54AB0"/>
			<stop  offset="0.7587" style="stop-color:#FF4085"/>
		</linearGradient>
		<path class="st24" d="M386,294.4c1.1,0.1,2.5,0.1,3.6,0.1l191.1-136.4c-0.1-0.8-0.1-1.7-0.2-2.6L386,294.4z"/>
		
			<linearGradient id="SVGID_26_" gradientUnits="userSpaceOnUse" x1="-1842.6078" y1="-3770.9355" x2="-2436.3396" y2="-3187.3699" gradientTransform="matrix(1 0 0 1 2584.6606 3760.3928)">
			<stop  offset="0" style="stop-color:#7A2DDF"/>
			<stop  offset="0.2343" style="stop-color:#B54AB0"/>
			<stop  offset="0.7587" style="stop-color:#FF4085"/>
		</linearGradient>
		<path class="st25" d="M406.2,294.6c1.4,0,2.7-0.1,4.1-0.2L580.7,173c0.1-0.9,0.2-1.9,0.4-3L406.2,294.6z"/>
		
			<linearGradient id="SVGID_27_" gradientUnits="userSpaceOnUse" x1="-1832.5723" y1="-3763.677" x2="-2426.3137" y2="-3180.1023" gradientTransform="matrix(1 0 0 1 2584.6606 3760.3928)">
			<stop  offset="0" style="stop-color:#7A2DDF"/>
			<stop  offset="0.2343" style="stop-color:#B54AB0"/>
			<stop  offset="0.7587" style="stop-color:#FF4085"/>
		</linearGradient>
		<path class="st26" d="M429.1,292.8c1.6-0.2,3.2-0.4,4.8-0.6l143.6-102.5c0.4-1.2,0.6-2.3,1-3.4L429.1,292.8z"/>
		
			<linearGradient id="SVGID_28_" gradientUnits="userSpaceOnUse" x1="-1822.5466" y1="-3756.4399" x2="-2416.3037" y2="-3172.8501" gradientTransform="matrix(1 0 0 1 2584.6606 3760.3928)">
			<stop  offset="0" style="stop-color:#7A2DDF"/>
			<stop  offset="0.2343" style="stop-color:#B54AB0"/>
			<stop  offset="0.7587" style="stop-color:#FF4085"/>
		</linearGradient>
		<path class="st27" d="M456.4,287.9c2-0.5,4.1-0.9,6.1-1.6l107-76.4c0.7-1.5,1.5-2.8,2.1-4.3L456.4,287.9z"/>
		
			<linearGradient id="SVGID_29_" gradientUnits="userSpaceOnUse" x1="-1812.8318" y1="-3749.4807" x2="-2406.5784" y2="-3165.9014" gradientTransform="matrix(1 0 0 1 2584.6606 3760.3928)">
			<stop  offset="0" style="stop-color:#7A2DDF"/>
			<stop  offset="0.2343" style="stop-color:#B54AB0"/>
			<stop  offset="0.7587" style="stop-color:#FF4085"/>
		</linearGradient>
		<path class="st28" d="M553.2,233.4l-58.2,41.5c4.1-1.9,8.4-3.9,12.3-6l37.3-26.6C547.7,239.3,550.6,236.3,553.2,233.4z"/>
	</g>
	
		<linearGradient id="SVGID_30_" gradientUnits="userSpaceOnUse" x1="552.4597" y1="-614.3408" x2="207.2865" y2="-269.1676" gradientTransform="matrix(1 0 0 1 0 960)">
		<stop  offset="0" style="stop-color:#7A2DDF"/>
		<stop  offset="0.5141" style="stop-color:#B54AB0"/>
		<stop  offset="1" style="stop-color:#FF4085"/>
	</linearGradient>
	<path class="st29" d="M249.3,627.1L435,494.8c1.6-1.2,1.6-3,0-4.1l0,0c-1.6-1.2-4.1-1.2-5.9,0L243.6,622.9c-1.6,1.2-1.6,3,0,4.1
		l0,0C245.1,628.2,247.7,628.2,249.3,627.1z"/>
	
		<linearGradient id="SVGID_31_" gradientUnits="userSpaceOnUse" x1="7849.1436" y1="2357.875" x2="7491.4248" y2="2680.8157" gradientTransform="matrix(-1 0 0 -1 8822.9238 2676.6887)">
		<stop  offset="0" style="stop-color:#7A2DDF"/>
		<stop  offset="0.5141" style="stop-color:#B54AB0"/>
		<stop  offset="1" style="stop-color:#FF4085"/>
	</linearGradient>
	<path class="st30" d="M1251.8,83.8l-220.6,157.5c-1.6,1.2-1.6,3,0,4.1l0,0c1.6,1.2,4.1,1.2,5.9,0L1257.8,88c1.6-1.2,1.6-3,0-4.1
		l0,0C1256.1,82.7,1253.4,82.7,1251.8,83.8z"/>
	
		<linearGradient id="SVGID_32_" gradientUnits="userSpaceOnUse" x1="1256.053" y1="-849.9951" x2="1055.5007" y2="-668.9409" gradientTransform="matrix(1 0 0 1 0 960)">
		<stop  offset="0" style="stop-color:#F44F7F"/>
		<stop  offset="0.5141" style="stop-color:#B54AB0"/>
		<stop  offset="1" style="stop-color:#7A45DF"/>
	</linearGradient>
	<path class="st31" d="M1096.9,237.6c-1.6,1.2-1.6,3,0,4.1l0,0c1.6,1.2,4.1,1.2,5.9,0l121-86.5c1.6-1.2,1.6-3,0-4.1l0,0
		c-1.6-1.2-4.1-1.2-5.9,0L1096.9,237.6z"/>
</g>
</svg>
