<?xml version="1.0" encoding="utf-8"?>
<!-- Generator: Adobe Illustrator 23.0.2, SVG Export Plug-In . SVG Version: 6.00 Build 0)  -->
<svg version="1.1" id="Ebene_1" xmlns="http://www.w3.org/2000/svg" xmlns:xlink="http://www.w3.org/1999/xlink" x="0px" y="0px"
	 viewBox="0 0 183.1 62" style="enable-background:new 0 0 183.1 62;" xml:space="preserve">
<style type="text/css">
	.st0{fill:#A6A8AB;}
</style>
<g>
	<g>
		<g>
			<g>
				<path class="st0" d="M12.6,19.3L12.6,19.3c0.8,0,1.5,0.3,2.1,0.9l8.3,8.7c0.2,0.3,0.6,0.3,0.9,0l7.9-8.2
					c-2.9-3.7-7.5-6.1-12.5-6.1c-8.8,0-16,7.2-16,16c0,8.8,7.2,16,16,16c4.2,0,7.9-1.6,10.8-4.2V31.3c0-0.3-0.3-0.4-0.5-0.2L24.4,37
					c-0.5,0.5-1.3,0.5-1.8,0l-5.1-5.9c-0.2-0.2-0.5-0.1-0.5,0.2v11.5c-3.2,0-5.8-2.1-5.8-5.3V20.8C11.1,20,11.8,19.3,12.6,19.3z"/>
				<path class="st0" d="M38.1,34.5h-3.8c-0.5,0-0.9,0.4-0.9,0.9v3.8c0,0.5,0.4,0.9,0.9,0.9h3.8c0.5,0,0.9-0.4,0.9-0.9v-3.8
					C39,34.9,38.6,34.5,38.1,34.5z"/>
				<path class="st0" d="M35.3,29.9h2.6c0.5,0,0.8-0.4,0.8-0.8v-2.6c0-0.5-0.4-0.8-0.8-0.8h-2.6c-0.5,0-0.8,0.4-0.8,0.8V29
					C34.5,29.5,34.8,29.9,35.3,29.9z"/>
				<path class="st0" d="M41.8,30.3h-2.1c-0.3,0-0.6,0.3-0.6,0.6v2.1c0,0.3,0.3,0.6,0.6,0.6h2.1c0.3,0,0.6-0.3,0.6-0.6v-2.1
					C42.3,30.6,42.1,30.3,41.8,30.3z"/>
				<path class="st0" d="M39.1,24.8h1.5c0.2,0,0.4-0.2,0.4-0.4v-1.5c0-0.2-0.2-0.4-0.4-0.4h-1.5c-0.2,0-0.4,0.2-0.4,0.4v1.5
					C38.7,24.6,38.9,24.8,39.1,24.8z"/>
			</g>
			<g>
				<path class="st0" d="M23.5,38.2c-0.1,0-0.1,0-0.2,0c0.8,2.1,1.4,4.3,1.6,6.6c1.6-0.6,3.1-1.5,4.4-2.7v-9.6l-4.3,5
					C24.6,37.9,24,38.2,23.5,38.2z"/>
				<path class="st0" d="M19.2,15.3c-5.9,0-11,3.3-13.5,8.2c1.6,0.3,3.2,0.8,4.7,1.4v-4.2c0-1.2,1-2.2,2.2-2.2c1,0,1.9,0.4,2.6,1.1
					l8.2,8.6l7.3-7.6C27.9,17.2,23.7,15.3,19.2,15.3z"/>
				<path class="st0" d="M38.1,35h-3.8c-0.2,0-0.4,0.2-0.4,0.4v3.8c0,0.2,0.2,0.4,0.4,0.4h3.8c0.2,0,0.4-0.2,0.4-0.4v-3.8
					C38.6,35.1,38.4,35,38.1,35z"/>
				<path class="st0" d="M35.3,29.4h2.6c0.2,0,0.3-0.2,0.3-0.3v-2.6c0-0.2-0.1-0.3-0.3-0.3h-2.6c-0.2,0-0.3,0.2-0.3,0.3V29
					C34.9,29.2,35.1,29.4,35.3,29.4z"/>
				<path class="st0" d="M41.8,30.8h-2.1c-0.1,0-0.1,0-0.1,0.1v2.1c0,0.1,0,0.1,0.1,0.1h2.1c0.1,0,0.1,0,0.1-0.1L41.8,30.8
					C41.9,30.9,41.8,30.8,41.8,30.8z"/>
				<rect x="39.1" y="22.8" class="st0" width="1.5" height="1.5"/>
			</g>
		</g>
	</g>
	<g>
		<path class="st0" d="M66.5,38.5c-0.7,1.3-1.5,1.9-2.4,1.9c-0.9,0-1.7-0.7-2.4-2l-4.5-9.2v14.6h-4.8V19.4h4.7l6.9,14.1l6.9-14.1
			h4.7v24.5h-4.8V29.2L66.5,38.5z"/>
		<path class="st0" d="M90.8,43.8l-1.4-2.4L84.7,44c-5.5,0-6.6-4.3-6.6-9.9c0-4.8,0.3-9.8,6.5-9.8h4.7l4.5-0.3v19.8H90.8z
			 M89.3,28.4h-3.4c-2.7,0-3.4,2.2-3.4,5.8c0,3.6,0.7,5.2,3.4,5.2l3.4-1.8V28.4z"/>
		<path class="st0" d="M108.7,43.8l-3.5-6l-3.3,6h-5.4l6.4-10l-6.1-9.6h5l3.4,5.7l3.3-5.7h5l-6.1,9.6l6.2,10H108.7z"/>
		<path class="st0" d="M128,43.8l-1.4-2.4l-4.8,2.6c-5.5,0-6.6-4.3-6.6-9.9c0-4.8,0.3-9.8,6.5-9.8h4.7V18h4.5v25.8H128z M126.6,28.4
			h-3.4c-2.7,0-3.4,2.2-3.4,5.8c0,3.6,0.7,5.2,3.4,5.2l3.4-1.8V28.4z"/>
		<path class="st0" d="M138.3,21.9c-2.1,0-2.6-0.5-2.6-2.6c0-2.1,0.5-2.6,2.6-2.6c2.1,0,2.6,0.4,2.6,2.6
			C140.9,21.4,140.4,21.9,138.3,21.9z M136,43.8V24.9h4.5v18.9H136z"/>
		<path class="st0" d="M156.3,43.8V31.3c0-2.4-1.2-2.9-2.6-2.9l-4,1.7v13.8h-4.5V24.2h3.3l1,2.3L155,24c1.8,0,2.9,0.6,3.9,1.6
			c1.4,1.4,1.8,3.1,1.8,5.1v13.2H156.3z"/>
		<path class="st0" d="M172,44.3c-6.7,0-8.2-4.2-8.2-10.4c0-5.7,1.5-10,8.2-10c6.5,0,8.3,3.9,8.3,10C180.3,40.2,178.8,44.3,172,44.3
			z M175.8,33.2c0-2.8-0.4-5.2-3.8-5.2c-3,0-3.8,2.5-3.8,5.1v1.8c0,2.5,0.7,5.5,3.8,5.5c3.4,0,3.8-3,3.8-5.3V33.2z"/>
	</g>
</g>
</svg>
