<?xml version="1.0" encoding="utf-8"?>
<!-- Generator: Adobe Illustrator 23.0.2, SVG Export Plug-In . SVG Version: 6.00 Build 0)  -->
<svg version="1.1" id="Ebene_1" xmlns="http://www.w3.org/2000/svg" xmlns:xlink="http://www.w3.org/1999/xlink" x="0px" y="0px"
	 viewBox="0 0 183.1 62" style="enable-background:new 0 0 183.1 62;" xml:space="preserve">
<style type="text/css">
	.st0{fill:#E6E6E7;}
	.st1{fill:#272525;}
</style>
<g>
	<g id="XMLID_2230_">
		<g id="XMLID_2249_">
			<path id="XMLID_2250_" class="st0" d="M45.8,29.4c0-1.9-0.3-3.8-1-5.5c-0.7-1.7-1.7-3.3-2.8-4.5c0.1-0.7,0.1-1.8-0.7-2.8
				c-1.1-1.5-2.7-3-4.5-4c-1.8-1-3.8-1.4-5.2-1c-0.5-0.4-1.1-0.6-1.7-0.7c-0.6-0.1-1.1-0.1-1.4,0c-0.5,0.1-1.1,0.2-1.6,0.4
				c-0.4,0.1-0.8,0.1-1.1,0.2c-0.1,0-0.1,0-0.2,0c-0.9,0-1.8,0-2.7,0c-0.5,0-0.9,0-1.3,0.1c-0.5,0.1-1.1,0.2-1.6,0.3
				c0,0,0.1,0,0.1,0c-0.2,0-0.5,0-0.7,0.1c-1.2,0.2-2.3,0.4-3.3,0.9c-2.3,1.2-4.9,2.7-6,4.4c-0.7,1.1-1.3,2.1-1.9,3.1
				c0,0,0,0.1-0.1,0.1c-0.1,0.1-0.3,0.3-0.4,0.4c0,0,0,0,0,0l0,0c-0.1,0.2-0.3,0.4-0.4,0.6c0.1-0.2,0.3-0.4,0.4-0.6L7.8,21
				c-0.1,0.2-0.2,0.5-0.3,0.7c-0.9,1.2-1.5,2.9-2.1,3.3c0.4,0.7,0.6-0.4,1-1.4c-0.2,0.5-0.3,1.1-0.4,1.7c-0.1,0.6-0.2,1.2-0.3,1.8
				c0,0.1,0,0.1,0,0.2c0-0.5-0.2-0.9,0.2-1.4c-0.1-0.3-0.3-0.2-0.5,0.1c-0.2,1.1-0.6,3.3-0.1,3.4C5.1,29.6,5,29.8,4.9,30l0.4,0.6
				c0,0.1-0.1,0.2-0.1,0.3c0.1-0.1,0.1-0.1,0.2-0.2c0.2,1.5,0.3,3.1,1,4c0.1,0.1,0.3,0.1,0.4,0.2c-0.1,0.4-0.3-0.1-0.5-0.2
				c0.3,1,0.6,1.7,1.1,1.9c-0.2-0.5-0.3-1.1-0.5-1.6c0.2,0,0.3,0.1,0.3,0c0.4,0.5,0.8,0.8,0.8,1c0.2,0.7,0.3,1.3,0.4,1.9
				c0,0,0,0,0,0c0,0,0,0,0,0c0.1,0.5,0.2,1,0.3,1.4c0,0-0.1,0-0.1,0c-0.3-0.6-0.8-1.5-0.9-1.9c0,0.4,0.1,0.9,0.2,1.3l0.4,0.2
				c0.1,0.2,0.1,0.3,0,0.3c0,0,0,0,0,0c0,0-0.1,0.1-0.1,0.1c0,0,0,0,0.1,0.1c0,0,0,0.1,0,0.2l0.1,0c0.1,0.1,0.2,0.3,0.4,0.4
				c0,0,0.1,0,0.1-0.1c0,0.6,0,1.3,0.7,2.3c0,0,0,0,0.1,0c0.3,0.6,0.6,1.1,1.1,1.7c0.1,0.1,0.6,0.4,1.1,0.5c0,0,0.1,0.1,0.1,0.1
				c0.4,0.1,0.6,0.1,0.8,0.1c0.2,0,0.3,0,0.4,0c-0.1-0.5-0.5-1.2-1-2c0.1,0,0.1,0.1,0.2,0.1L12,42.6c0,0-0.1,0-0.1,0
				c-0.4-0.6-0.8-1.2-0.9-1.7c0.1-0.5,0.1-0.7,0.1-1.2c0-0.7,1,0.1,1.2,0.2c0-0.7-0.2-1.4-0.6-2.2c0.6,0.8,1.2,1.5,1.9,2.1L13.5,40
				c0.7,0.5,0.5,1,1.4,1.4l0,0l0,0c0.1-0.5-0.3-0.8-0.6-1.2c2,1.6,4.5,2.7,7.3,3.1l4.2,0.5c0.7,0.1,1.4,0.1,2,0.1
				c-0.7,0.3-1.4,0.6-2.1,0.8c0.1,0.7,0.2,1.5,0.7,2.2c0.5,0.7,1.5,1.3,3.4,1.3c0.6,0,1.1-0.1,1.7-0.2c0.8,0,1.8,0,2.7-0.2
				c0.2-0.2,0.5-0.4,0.7-0.6c0.3-0.2,0.5-0.4,0.8-0.6c0.6-0.4,1.2-0.9,1.8-1.3c0.2-0.2,0.4-0.4,0.6-0.5c0.1,0,0.3-0.1,0.4-0.1
				c0.2-0.3,0.6-0.7,0.9-1.1c0,0,0,0,0,0c0.4-0.4,0.7-0.7,1-1c2-1.7,3.5-3.8,4.4-6.1c0.2-0.6,0.4-1.2,0.6-1.8
				c0.2-0.6,0.3-1.2,0.4-1.8c0.1-0.6,0.1-1.2,0.2-1.8C45.9,30.3,45.8,30,45.8,29.4z M8.6,39.4L8.6,39.4c0.1,0.1,0.1,0.1,0.1,0.2
				C8.6,39.6,8.6,39.5,8.6,39.4z"/>
		</g>
		<g id="XMLID_2247_">
			<path id="XMLID_540_" class="st0" d="M24.8,48.7c-0.3,0-0.8-0.1-0.7-0.3l-0.5,0.2l1.4,0.2c-0.2-0.3-0.7-0.5-0.6-0.8l-0.6-0.1
				C24.4,48.1,24.6,48.4,24.8,48.7z"/>
		</g>
		<g id="XMLID_2245_">
			<path id="XMLID_539_" class="st0" d="M25.1,48.1c0.3-0.2-0.1-0.4-0.6-0.5c-0.6,0.2,0.8,0,0.3,0.4C24.9,48,25,48,25.1,48.1z"/>
		</g>
		<g id="XMLID_2243_">
			<path id="XMLID_538_" class="st0" d="M24.8,48c-0.1,0-0.2,0-0.3-0.1c0,0,0,0,0,0L24.8,48C24.8,48,24.8,48,24.8,48z"/>
		</g>
		<g id="XMLID_2241_">
			<path id="XMLID_537_" class="st0" d="M21.3,47.8c0,0.1,0.1,0.2,0.2,0.3C21.6,48,21.5,47.9,21.3,47.8z"/>
		</g>
		<g id="XMLID_2239_">
			<path id="XMLID_536_" class="st0" d="M20.9,46.8c0.4,0.2,0.6,0.4,0.4,0.6L21,47.3c-0.1,0.1,0.2,0.3,0.4,0.4
				C21.3,47.5,21.9,47.3,20.9,46.8z"/>
		</g>
		<g id="XMLID_2237_">
			<path id="XMLID_535_" class="st0" d="M22.8,46.5l-0.2,0.1l1.4,0.7C23.9,46.7,23.3,47.1,22.8,46.5z"/>
		</g>
		<g id="XMLID_2235_">
			<path id="XMLID_534_" class="st0" d="M6.6,38l0.1-0.1c0,0-0.1-0.1-0.2-0.1C6.5,37.8,6.6,37.9,6.6,38z"/>
		</g>
		<g id="XMLID_2233_">
			<path id="XMLID_533_" class="st0" d="M6.1,36.2c0,0.4,0.1,0.9,0.2,1.3c0.1,0.1,0.2,0.1,0.2,0.2C6.2,36.9,6.6,37.1,6.1,36.2z"/>
		</g>
		<g id="XMLID_2231_">
			<path id="XMLID_532_" class="st0" d="M6.7,37.9c0.4,0.4,0.5,0.8,0.7,1.3c0.1,0.5,0.3,1,0.9,1.6c-0.4-1.1-1-2.2-1.5-3L6.7,37.9z"
				/>
		</g>
	</g>
	<g id="XMLID_2659_">
		<g id="XMLID_2687_">
			<path id="XMLID_2688_" class="st1" d="M32.2,20.2h4.3v0.2c-0.9,0-0.8,0.2-0.8,1.3V31c0,1.2,0.1,1.5,1,1.5v0.2h-5.4v-0.2
				c0.8,0,0.9-0.3,0.9-1.5V20.7l-4.6,12.1h-0.2l-5.7-10.6V28c0,2.3,0.7,4.5,2.7,4.5v0.2h-5.5v-0.2c1.9,0,2.6-2.2,2.6-4.5v-6
				c-0.7-1.2-1.3-1.5-1.7-1.5v-0.2h5l4.3,8.1L32.2,20.2z"/>
		</g>
		<g id="XMLID_2684_">
			<path id="XMLID_2685_" class="st1" d="M48.3,20.2v0.1c-0.7,0-1.1,0-1.1,1.6v8.7c0,1.7,0.4,1.8,1.1,1.8v0.2h-5.8v-0.2
				c0.7,0,1.1-0.2,1.1-1.8V22c0-1.6-0.4-1.6-1.1-1.6v-0.1H48.3z"/>
		</g>
		<g id="XMLID_2681_">
			<path id="XMLID_2682_" class="st1" d="M65.6,28.4l0.2,3.6c-0.5,0.3-2.3,0.8-4.1,0.8c-3.8,0-7.1-2.4-7.1-6.4c0-4,3.3-6.4,7.1-6.4
				c2.3,0,3.7,0.5,4.1,0.8l-0.2,3.6h-0.1c-0.5-3.6-2.5-4.2-3.8-4.2c-2,0-2.8,1.4-2.8,6.2c0,4.8,0.9,6.2,2.8,6.2
				c1.2,0,3.2-0.7,3.8-4.2H65.6z"/>
		</g>
		<g id="XMLID_2677_">
			<path id="XMLID_2678_" class="st1" d="M84.9,32.5v0.2h-3.5c-1.3,0-1.6-0.8-2.1-4.1c-0.2-1.8-2.3-1.7-2.3-1.7h-0.8v3.7
				c0,1.7,0.1,1.8,0.8,1.8v0.2h-5.3v-0.2c0.8,0,0.9,0,0.9-1.8V22c0-1.1-0.1-1.6-0.9-1.6v-0.1h5c3.5,0,6.7,0.4,6.7,3.4
				c0,2.6-2.4,3.2-4.1,3.2c2,0,3,0.4,3.9,3.6C83.5,31.8,84.5,32.5,84.9,32.5z M79.3,23.6c0-3.4-0.5-3.2-2.5-3.2h-0.5v6.4h0.5
				C79,26.8,79.3,26.8,79.3,23.6z"/>
		</g>
		<g id="XMLID_2673_">
			<path id="XMLID_2674_" class="st1" d="M103.2,26.5c0,3.5-2.6,6.3-6.4,6.3c-3.9,0-6.4-2.8-6.4-6.3c0-3.5,2.6-6.5,6.4-6.5
				C100.6,20.1,103.2,23,103.2,26.5z M98.9,26.5c0-4.8-0.1-6.3-2.2-6.3c-2.1,0-2.2,1.5-2.2,6.3c0,4.8,0.1,6.1,2.2,6.1
				C98.8,32.7,98.9,31.4,98.9,26.5z"/>
		</g>
		<g id="XMLID_2670_">
			<path id="XMLID_2671_" class="st1" d="M127.7,20.2v0.1c-0.7,0-1.8,0.5-3.1,3.6l-3.1,8.6h-0.6c-1.6-3.8-2.7-6.3-3.4-7.9l-2.8,7.9
				H114c-4.4-10.4-4.7-10.8-4.7-10.8c-0.6-1.4-0.8-1.4-1.3-1.4v-0.1h5.5v0.1c-1.1,0-0.2,2-0.2,2l2.7,6l1.4-3.9
				c-1.1-2.5-1.2-2.7-1.2-2.7c-0.6-1.4-0.8-1.4-1.3-1.4v-0.1h5.5v0.1c-1.1,0-0.2,2-0.2,2l2.6,6.1l1.6-4.5c0.4-1.3,0.1-3.6-1.7-3.6
				v-0.1H127.7z"/>
		</g>
		<g id="XMLID_2666_">
			<path id="XMLID_2667_" class="st1" d="M137.9,20.2L137.9,20.2c4.5,10.2,4.8,10.8,4.8,10.8c0.6,1.4,1.2,1.4,1.6,1.5v0.1h-6.2v-0.1
				c1.4,0,0.4-2.1,0.4-2.1l-0.6-1.2h-3.5c-0.4,0.8,0,3.3,2.1,3.3v0.1h-5.1v-0.1c0.5,0,1.5-0.2,2.8-3.3L137.9,20.2z M136.1,25.1
				l-1.6,4h3.3L136.1,25.1z"/>
		</g>
		<g id="XMLID_2663_">
			<path id="XMLID_2664_" class="st1" d="M161.6,20.2v0.1c-0.8,0-1.9,0.5-3.3,3.6l-3.5,8.6h-0.5c-4.7-10.4-5-10.8-5-10.8
				c-0.6-1.4-0.9-1.4-1.4-1.4v-0.1h5.9v0.1c-1.2,0-0.2,2-0.2,2l2.7,6.1l1.8-4.5c0.5-1.3,0.2-3.6-1.9-3.6v-0.1H161.6z"/>
		</g>
		<g id="XMLID_2660_">
			<path id="XMLID_2661_" class="st1" d="M177.7,29.2v3.5h-10.3v-0.2c0.7,0,1-1.1,1-2.3v-7.6c0-1.1-0.2-2.3-1-2.3v-0.1h10.1v3.6
				h-0.2c0-3.4-4.8-3.5-4.8-3.5h-0.6v5.9h1.4c0,0,1.9,0.1,2.1-2.1h0.2v4.3h-0.2c-0.2-2.1-2.1-2.1-2.1-2.1h-1.4v6h0.6
				c0,0,5,0.2,5-3.3H177.7z"/>
		</g>
	</g>
	<g id="XMLID_2627_">
		<g id="XMLID_2656_">
			<path id="XMLID_2657_" d="M61.4,39.4h1.2v4.9h-1.2v-2h-1.9v2h-1.2v-4.9h1.2v2h1.9V39.4z"/>
		</g>
		<g id="XMLID_2652_">
			<path id="XMLID_2653_" d="M70.8,44.3l-0.3-0.8h-1.8l-0.3,0.8h-1.3l1.7-4.9h1.4l1.7,4.9H70.8z M69.1,42.6h1.2l-0.6-1.7L69.1,42.6z
				"/>
		</g>
		<g id="XMLID_2649_">
			<path id="XMLID_2650_" d="M76.8,44.3v-4.9H78v4.9H76.8z"/>
		</g>
		<g id="XMLID_2645_">
			<path id="XMLID_2646_" d="M84.3,42.4v1.9h-1.2v-4.9H85c0.6,0,1,0.1,1.3,0.4c0.3,0.3,0.5,0.6,0.5,1.1c0,0.3-0.1,0.6-0.3,0.8
				c-0.2,0.3-0.5,0.5-0.8,0.6l1.2,2h-1.4l-1.1-1.9H84.3z M84.3,40.3v1.2H85c0.2,0,0.3-0.1,0.4-0.2c0.1-0.1,0.2-0.2,0.2-0.4
				c0-0.2-0.1-0.3-0.2-0.4c-0.1-0.1-0.2-0.2-0.4-0.2H84.3z"/>
		</g>
		<g id="XMLID_2642_">
			<path id="XMLID_2643_" d="M99.7,40.3c-0.1,0-0.3,0-0.4,0.1c-0.1,0.1-0.1,0.2-0.1,0.3c0,0.1,0,0.3,0.1,0.4
				c0.1,0.1,0.2,0.2,0.3,0.2c0.1,0,0.3,0.1,0.5,0.1c0.2,0,0.3,0.1,0.5,0.2c0.2,0.1,0.3,0.1,0.5,0.2c0.1,0.1,0.3,0.2,0.3,0.4
				c0.1,0.2,0.1,0.4,0.1,0.6c0,0.4-0.2,0.8-0.5,1.1c-0.3,0.3-0.8,0.4-1.3,0.4c-0.6,0-1-0.1-1.3-0.4c-0.3-0.3-0.5-0.6-0.5-1.1h1.3
				c0,0.4,0.2,0.6,0.6,0.6c0.2,0,0.3,0,0.4-0.1c0.1-0.1,0.1-0.2,0.1-0.3c0-0.1,0-0.3-0.1-0.3c-0.1-0.1-0.2-0.2-0.3-0.2
				c-0.1-0.1-0.3-0.1-0.5-0.1c-0.2,0-0.3-0.1-0.5-0.2c-0.2-0.1-0.3-0.1-0.5-0.2c-0.1-0.1-0.3-0.2-0.3-0.4c-0.1-0.2-0.1-0.4-0.1-0.6
				c0-0.5,0.2-0.8,0.5-1.1c0.3-0.3,0.8-0.4,1.3-0.4c0.5,0,1,0.1,1.3,0.4c0.3,0.2,0.5,0.6,0.5,1.1h-1.3c0-0.2-0.1-0.3-0.2-0.4
				C100,40.4,99.9,40.3,99.7,40.3z"/>
		</g>
		<g id="XMLID_2638_">
			<path id="XMLID_2639_" d="M109.8,44.3l-0.3-0.8h-1.8l-0.3,0.8h-1.3l1.7-4.9h1.5l1.7,4.9H109.8z M108,42.6h1.2l-0.6-1.7L108,42.6z
				"/>
		</g>
		<g id="XMLID_2635_">
			<path id="XMLID_2636_" d="M115.7,39.4h1.2v4h1.5v0.9h-2.7V39.4z"/>
		</g>
		<g id="XMLID_2631_">
			<path id="XMLID_2632_" d="M123.6,43.7c-0.5-0.5-0.7-1.1-0.7-1.8c0-0.7,0.2-1.3,0.7-1.8c0.5-0.5,1.1-0.7,1.8-0.7
				c0.7,0,1.3,0.2,1.8,0.7c0.5,0.5,0.7,1.1,0.7,1.8c0,0.7-0.2,1.3-0.7,1.8c-0.5,0.5-1.1,0.7-1.8,0.7
				C124.7,44.4,124.1,44.1,123.6,43.7z M126.3,42.9c0.2-0.3,0.4-0.6,0.4-1c0-0.4-0.1-0.8-0.4-1c-0.2-0.3-0.5-0.4-0.9-0.4
				c-0.4,0-0.7,0.1-0.9,0.4c-0.2,0.3-0.4,0.6-0.4,1c0,0.4,0.1,0.8,0.4,1c0.2,0.3,0.5,0.4,0.9,0.4C125.8,43.3,126.1,43.2,126.3,42.9z
				"/>
		</g>
		<g id="XMLID_2628_">
			<path id="XMLID_2629_" d="M135.9,39.4h1.2v4.9h-1.2l-2-3.1v3.1h-1.2v-4.9h1.2l2,3.1V39.4z"/>
		</g>
	</g>
</g>
</svg>
