<?xml version="1.0" encoding="utf-8"?>
<!-- Generator: Adobe Illustrator 23.0.2, SVG Export Plug-In . SVG Version: 6.00 Build 0)  -->
<svg version="1.1"
	 id="svg1936" xmlns:cc="http://creativecommons.org/ns#" xmlns:dc="http://purl.org/dc/elements/1.1/" xmlns:inkscape="http://www.inkscape.org/namespaces/inkscape" xmlns:rdf="http://www.w3.org/1999/02/22-rdf-syntax-ns#" xmlns:sodipodi="http://sodipodi.sourceforge.net/DTD/sodipodi-0.dtd" xmlns:svg="http://www.w3.org/2000/svg"
	 xmlns="http://www.w3.org/2000/svg" xmlns:xlink="http://www.w3.org/1999/xlink" x="0px" y="0px" viewBox="0 0 928.4 266.8"
	 style="enable-background:new 0 0 928.4 266.8;" xml:space="preserve">
<style type="text/css">
	.st0{fill:#A6A8AB;}
	.st1{font-family:'AvantGarGotItcLOT-Boo';}
	.st2{font-size:132.7536px;}
	.st3{letter-spacing:11;}
</style>
<sodipodi:namedview  bordercolor="#666666" borderopacity="1" gridtolerance="10" guidetolerance="10" id="namedview19" inkscape:current-layer="svg1936" inkscape:cx="515.8293" inkscape:cy="60.382118" inkscape:pageopacity="0" inkscape:pageshadow="2" inkscape:window-height="706" inkscape:window-maximized="1" inkscape:window-width="1280" inkscape:window-x="-8" inkscape:window-y="-8" inkscape:zoom="0.72245926" objecttolerance="10" pagecolor="#ffffff" showgrid="false">
	</sodipodi:namedview>
<g>
	<g>
		<path class="st0" d="M182.1,109.6c-24.9-31-51.9-35.1-86.5-35.1H18.8l0.9,2c8.5,19.9,27.5,32.3,50.7,33.1h47.8
			c23.4,0,45.1,6,63.2,17.6l23.9,15.2C205.2,142.4,188.4,117.4,182.1,109.6z"/>
		<g>
			<path class="st0" d="M203.4,139.7L203.4,139.7C203.4,139.7,203.4,139.7,203.4,139.7C203.4,139.7,203.4,139.7,203.4,139.7z"/>
			<path class="st0" d="M119.5,95.7H33.6c0.5,0.5,1.1,0.9,1.6,1.3h84.1c24.7,0,45.5,2.1,64.5,14.6c5.6,7.3,15.4,21.8,19.6,27.9
				c-0.1-0.2-0.3-0.4-0.4-0.6c0-0.1-0.1-0.1-0.1-0.2c-0.4-0.6-0.9-1.3-1.4-2c-0.1-0.1-0.1-0.2-0.2-0.3c-0.1-0.2-0.3-0.4-0.4-0.6
				c-0.1-0.2-0.2-0.3-0.3-0.5c-0.1-0.2-0.2-0.3-0.3-0.5c-0.2-0.2-0.3-0.5-0.5-0.7c-0.1-0.1-0.2-0.2-0.2-0.4
				c-0.3-0.4-0.5-0.7-0.8-1.1c0,0,0,0,0-0.1c-0.2-0.3-0.5-0.7-0.7-1.1c-0.1-0.1-0.2-0.2-0.3-0.4c-0.2-0.3-0.5-0.7-0.7-1
				c0,0-0.1-0.1-0.1-0.1c-0.3-0.4-0.5-0.8-0.8-1.2c0,0-0.1-0.1-0.1-0.1c-0.6-0.9-1.2-1.8-1.8-2.6c0-0.1-0.1-0.1-0.1-0.2
				c-0.3-0.4-0.6-0.8-0.8-1.2c0,0-0.1-0.1-0.1-0.1c-0.6-0.9-1.3-1.8-1.9-2.7c0,0,0,0,0-0.1c-0.3-0.4-0.6-0.8-0.8-1.2
				c-0.1-0.1-0.1-0.2-0.2-0.3c-0.2-0.3-0.5-0.7-0.7-1c-0.1-0.1-0.1-0.2-0.2-0.3c-0.6-0.8-1.2-1.6-1.7-2.4c-0.1-0.1-0.1-0.2-0.2-0.2
				c-0.2-0.3-0.4-0.6-0.6-0.9c-0.1-0.1-0.2-0.2-0.2-0.3c-0.2-0.3-0.4-0.6-0.6-0.8c-0.1-0.1-0.1-0.2-0.2-0.3c-0.2-0.3-0.5-0.7-0.7-1
				c0,0,0,0,0,0c-0.2-0.3-0.5-0.6-0.7-1c-0.1-0.1-0.1-0.2-0.2-0.2c-0.2-0.2-0.3-0.4-0.5-0.7c-0.1-0.1-0.1-0.2-0.2-0.3
				c-0.2-0.2-0.3-0.4-0.4-0.6c-0.1-0.1-0.1-0.2-0.2-0.2c-0.2-0.3-0.4-0.5-0.6-0.7c-0.2-0.3-0.5-0.6-0.7-0.9
				C163.1,97.7,143.1,95.7,119.5,95.7z"/>
		</g>
		<path class="st0" d="M121.3,173.6c-13.1-0.5-23.8-7.4-28.6-18.7l-0.5-1.1h58c19.5,0,36.8,7.1,48.8,19.8H121.3z"/>
		<path class="st0" d="M93.4,156.6c5.4,4.7,12.6,7.4,20.6,7.7h73.7c-0.8-0.5-1.5-1-2.3-1.4h-71.1c-8.8-0.3-16.6-3.6-22.1-9.1h0
			l0.5,1.1C92.9,155.5,93.2,156.1,93.4,156.6z"/>
		<path class="st0" d="M204,140.8c-24.9-31-51.9-35.1-86.5-35.1H14.6l0.9,2c8.5,19.9,27.5,32.3,50.7,33.1H140
			c23.4,0,45.1,6,63.2,17.6l23.9,15.2C227.1,173.6,210.3,148.6,204,140.8z"/>
		<path class="st0" d="M127,121.7c34.6,0,61.5,4.1,86.5,35.1c1.9,2.3,4.6,6.1,7.6,10.3c1.2,1.7,2.3,3.3,3.1,4.6l2.9,1.8
			c0,0-2.4-3.5-5.6-8.3c-3-4.2-5.8-8-7.6-10.3c-24.9-31-51.9-35.1-86.5-35.1H22.6c0.5,0.6,1,1.3,1.6,1.9H127z"/>
	</g>
	<text transform="matrix(1 0 0 1 237.6719 173.9414)" class="st0 st1 st2 st3">DELIVERY</text>
</g>
</svg>
