<?xml version="1.0" encoding="utf-8"?>
<!-- Generator: Adobe Illustrator 23.0.2, SVG Export Plug-In . SVG Version: 6.00 Build 0)  -->
<svg version="1.1"
	 id="svg1936" xmlns:cc="http://creativecommons.org/ns#" xmlns:dc="http://purl.org/dc/elements/1.1/" xmlns:inkscape="http://www.inkscape.org/namespaces/inkscape" xmlns:rdf="http://www.w3.org/1999/02/22-rdf-syntax-ns#" xmlns:sodipodi="http://sodipodi.sourceforge.net/DTD/sodipodi-0.dtd" xmlns:svg="http://www.w3.org/2000/svg"
	 xmlns="http://www.w3.org/2000/svg" xmlns:xlink="http://www.w3.org/1999/xlink" x="0px" y="0px" viewBox="0 0 928.4 266.8"
	 style="enable-background:new 0 0 928.4 266.8;" xml:space="preserve">
<style type="text/css">
	.st0{fill:#C3D8CC;}
	.st1{fill:#D0D2D3;}
	.st2{fill:#272525;}
</style>
<sodipodi:namedview  bordercolor="#666666" borderopacity="1" gridtolerance="10" guidetolerance="10" id="namedview19" inkscape:current-layer="svg1936" inkscape:cx="515.8293" inkscape:cy="60.382118" inkscape:pageopacity="0" inkscape:pageshadow="2" inkscape:window-height="706" inkscape:window-maximized="1" inkscape:window-width="1280" inkscape:window-x="-8" inkscape:window-y="-8" inkscape:zoom="0.72245926" objecttolerance="10" pagecolor="#ffffff" showgrid="false">
	</sodipodi:namedview>
<g id="XMLID_2253_">
	<g id="XMLID_2330_">
		<g id="XMLID_2347_">
			<path id="XMLID_589_" class="st0" d="M141.8,87.5c0.5-0.1,1-0.3,1.4-0.4c-0.4-0.1-0.8-0.1-1.2-0.2c-0.3,0.1-0.6,0.3-0.9,0.5
				C141.4,87.4,141.6,87.4,141.8,87.5z"/>
		</g>
		<g id="XMLID_2345_">
			<path id="XMLID_588_" class="st0" d="M123.6,91.6c-1.6-0.4-3.1-0.9-5.4-0.8c-0.5,0.2-0.8,0.4-1,0.4c0.8,0.3,2,0.6,3.1,0.9
				C122.5,92.9,123.7,92.4,123.6,91.6z"/>
		</g>
		<g id="XMLID_2343_">
			<path id="XMLID_587_" class="st0" d="M117.2,91.3c-0.8-0.2-1.3-0.4-1.3-0.4c0.3,0.2,0.6,0.4,0.9,0.5c0.2,0,0.3,0,0.3,0
				S117,91.4,117.2,91.3z"/>
		</g>
		<g id="XMLID_2341_">
			<path id="XMLID_586_" class="st0" d="M545,81.2c30.3,1.2,60.7,1.9,91.1,2.5c1,0,1.9-0.2,1.9-0.6c0.1-0.3-0.7-0.6-1.7-0.6
				c-30.4-0.6-60.7-1.4-91-2.6c-1,0-1.9,0.2-2,0.6C543.3,80.9,544,81.2,545,81.2z"/>
		</g>
		<g id="XMLID_2339_">
			<path id="XMLID_585_" class="st0" d="M772,115c-0.7,0.3-0.7,0.6,0.1,0.9c0.6,0.2,1.8,0.2,2.5,0c0.6-0.2,0.6-0.6-0.1-0.9
				C773.8,114.8,772.6,114.8,772,115z"/>
		</g>
		<g id="XMLID_2331_">
			<path id="XMLID_2332_" class="st1" d="M790.9,129.7c-21.9-0.9-44-1.8-66.1-2.5c1.5-0.3,3.1-0.6,4.6-0.9c1.5-0.1,3.1-0.2,4.6-0.3
				c14.2-0.1,28.4-0.3,42.7-0.6c5.3,0.1,9.7-1.4,10-3.2c0.1-1.8-3.9-3.3-9-3.4c0.8-0.1,1.7-0.2,2.5-0.3c0.8-0.1,1.4-0.4,1.2-0.7
				c-0.3-0.3-1.4-0.5-2.2-0.4c-3,0.4-5.9,0.9-8.9,1.3c-27.1-0.7-54.2-0.5-81.3-0.1c29.2-2.1,58.7-3.6,88.5-4.2
				c-0.6,0.2-0.7,0.6,0.1,0.8c0.6,0.2,1.9,0.2,2.5,0c0.7-0.3,0.6-0.6-0.1-0.9c0,0,0,0-0.1,0c16-0.3,32-0.3,48.1-0.1
				c0.9,0,1.7-0.3,1.7-0.6c0-0.4-0.9-0.6-1.9-0.6c-53.3-0.8-106.1,1.5-157.7,5.8c-2.8,0-5.6,0.1-8.5,0.1c0,0,0,0,0,0
				c-0.9-1.4-2.8-2.6-5.3-3.6c18.3-0.6,36.4-1.3,54.7-2.2c15.2,0.1,30.4,0.2,45.6,0.3c2.2,0,4-0.6,4.1-1.4c0.1-0.8-1.7-1.3-4.1-1.4
				c-3.7-0.1-7.5-0.1-11.2-0.1c3.1-1,5.1-2.3,5.3-3.8c0.2-1.5-1.3-2.8-3.9-3.8c16.5-1.4,32.8-2.9,48.7-5c0.9-0.1,1.4-0.4,1.1-0.8
				c-0.3-0.3-1.3-0.5-2.2-0.4c-23.1,0.9-46,2.2-68.9,3.2c-18.1-1.8-35.8-3.8-55.3-4.5c-28.5-1-55.2,0.9-81.9,2.8
				c-9.6-0.5-19.2-0.8-28.7-1.1c1.3-0.7,2.1-1.5,2.1-2.4c0-0.2-0.1-0.4-0.2-0.7c8.4,0.1,16.8,0.2,25.3,0.3
				c79.2,0.8,153.6-5.4,229.4-10.5c4.8-0.2,8.4-1.7,7.8-3.4c-0.6-1.7-5-2.9-9.9-2.7c-36.3,0-69.8,2.9-106.6,5.7
				c-26.2,2-49.2,3.5-75.5,4.9c-30.8,1.6-59.4,1.3-89.6,1.2c-3-0.3-5.9-0.4-8.9-0.3c-3,0.1-6.1,0.2-9.1,0.3
				c-23.6-0.2-46.8-1.3-69.8-2.4c27.6-1,55.1-2.2,82.2-4.5c2-0.1,3.2-0.7,3-1.4c-0.3-0.6-2.1-1.1-4.1-1
				c-37.8,1.4-75.8,1.9-113.7,2.6c-10.3-5.7-32.2-9.1-51.8-9.3c-7.2-0.1-13.9,0.5-20.7,1.5c3.2,0.2,6.2,0.5,9.4,0.7
				c-9.3,0.2-17.2,1.7-25.1,3.2c-0.7-0.1-1.4-0.2-2.1-0.2c-18.2-3.2-39.5-2.5-59.1-3.9c0.4,0.7,0.9,1.5,1.3,2.2
				c-3.6-0.6-5.8-1.9-9.7-2.3c1.1,0.5,2.2,1.1,3.3,1.6c-0.1,0-0.2,0-0.2,0c-4.3-1.2-9.4-1.7-14.7-1.8c-12.1-3.4-26.9-5.4-42.4-6.3
				c-2-0.9-5-1.5-8.5-1.6c-1.5-0.3-3.2-0.5-4.3-0.8c-9.6-3.6-21.4-6-34.3-7.8c2.5,0.7,5.1,1.4,7.6,2c-3.7-0.6-7.4-1.1-11.6-1.2
				c0.4,0.4,1,0.8,1.4,1.3c-12.9-3.1-30.6-2-39.5,2.4c-8.9,4.4-5.8,10.4,7.1,13.5l1.9,0.5c-6.6,0.7-12.3,2.1-15.6,4.6
				c-1.7,1.4-0.2,3.2,0.2,4.8c-0.5,2.3,4.7,4.4,11.6,4.6c1.9,0,3.7-0.1,5.3-0.3c8,0.9,16.1,1.6,23.8,2.6c1.5,0.3,3.4,0,4.2-0.5
				c0.7-0.5,0-1.2-1.6-1.4c-5.6-1.1-11-2.3-16.4-3.4c-0.4,0.1-0.9,0.3-1.3,0.4c0.2-0.2,0.5-0.4,0.7-0.5c-0.5-0.1-1-0.2-1.5-0.3
				c0.4-0.1,0.7-0.2,1.1-0.3c0.4,0.1,0.8,0.1,1.2,0.2c0.7-0.3,1.5-0.6,2.4-0.8c9.7,0.8,19.2,1.7,28.2,3.3c0.5,0.1-0.4,1.1,0.6,1.5
				c0.5,0.2,1,0.4,1.5,0.5c-1.6-0.2-3.3-0.4-5.2-0.6c-6.9,1.5-9.5,2-11.3,2.4c0,0,0,0,0,0c0,0,0,0-0.5,0.1c-0.8,0.2-1.6,0.3-2.6,0.6
				c0,0,0,0,0,0.1c-0.2,0.1-0.4,0.1-0.7,0.2c-1-0.1-2.1-0.1-3.1-0.2c-1.2-0.1-2.3,0.1-2.9,0.4c-0.4-0.3-0.8-0.5-1.4-0.8
				c-5.9-0.5-5.9-0.5-12-1c0,0,0,0.3,0.2,0.6c-0.2,0-2.3,0.3-4.6,0.2c-2.3,0-2.3,0-7.9-0.4c0,0,0,0,2.7,1.1c0,0,0,0-2.4-0.7
				c0,0,0,0,0.6,1.2c0,0,0,0-1.1-1.3c0,0,0,0-1,1c0,0,0,0-4.8-2.8c-0.4,0.1-1.3,0.2-3.5,0.6c0,0-0.6,0.3-1.1,0.6
				c-0.1,0.3-0.1,0.3-1.9,1.6c0,0,0,0.4,0.1,0.8c0.6,0.4,0.6,0.4,0.7,1.5c0,0,0.7,0.4,1.6,0.8c0.9,0.2,1.1,0.3,4.5,0.9
				c-0.3,0.2-0.6,0.4-0.8,0.6c-0.7,2-0.7,2,3.6,6.8c0,0,2.4,1.3,6.2,2.2c4.4,0.5,4.4,0.5,9.5,0.9c0,0,1.1,0.2,3,0.4
				c1.4,0.8,1.7,1,2.8,1.7c0,0,0,0,0,0c-1,0-1.9,0.2-2.7,0.4c-2.3,0.7-2.6,1.8-0.7,2.6c-2.5,3.1-1,6,2.2,8.7c-1,1-1.4,2.1-1.3,3.3
				c-3.8,2.7-6.1,5.5-7.1,8.6l-0.5,2.6c1.1,2.2,4.3,4.3,8.9,5.9l1.4,0.6l-1.3,2.2c6,5.8,17.9,10.5,25.3,16l5.5,2.9
				c4,2.4,10.4,4.1,17.8,4.9l7.9,0.8c1.7,0,3.3,0.1,5,0.1c-8.4,2.7-13,6.7-11.5,10.9c2.6,6.9,21.3,11.9,41.7,10.9
				c54.5-0.3,107.1-0.7,162.7-3.6c41.2-2.1,78.6-5,119-4.9c38.6-3,75.9-6.9,113.6-11.5c31.7-3.9,55.9-11.7,83.9-17.6
				c0.8-0.2,0.9-0.5,0.5-0.8c-0.6-0.3-1.8-0.3-2.5-0.1c-44.5,5.2-89.3,9.6-136.9,10.7c-5.5,0.1-10.8,0.1-16.1,0.1
				c-0.6-0.1-1.2-0.2-1.9-0.2c-4.8-0.3-9.7-0.6-14.5-0.9c1.7,0,3.4,0,5.1-0.1c3.3,0,6.2-0.8,6.5-2c0-0.5-0.5-1-1.2-1.3
				c12.4-1.2,24.5-2.9,36.6-4.6c3.6-0.1,6.9-0.5,9.8-1.2c14,0.9,28,1.5,42,2.3l3.5,0.3c4.6,0.2,9.1-0.5,11.3-1.8
				c0.7-0.4,1.1-0.8,1.4-1.3c32-2.4,64.5-4.2,94.7-8.8c1.5-0.2,2.3-0.7,2.1-1.3c0.6,0.1,1.3,0.2,2,0c3.6-0.9,7.6-1.5,11.9-2
				c0.9-0.2,1.4-0.5,1-0.8c-0.4-0.4-1.5-0.5-2.3-0.3c-4.3,0.5-8.6,1.2-12.5,2.1c-0.4,0.1-0.7,0.3-0.8,0.5c-0.9-0.3-2.2-0.5-3.6-0.3
				c-31.2,1.5-61.4,5-92.9,5.7c15.4-2.1,31.2-3.6,47.8-5.1c20-1.9,38.4-4.6,58.6-5.7c1.1,0,1.8-0.3,1.6-0.7c-0.1-0.3-1-0.6-2-0.5
				c-41.3,1.6-77.6,9.6-120.3,9.6c-1.7,0-3.4,0-5-0.1c13.2-2.8,26.1-5.6,39-8.4c39.3-1.2,78.4-2.9,117-5.5c1.9,0,3.4-0.6,3.4-1.2
				C794.4,130.2,792.8,129.7,790.9,129.7z M133.6,100.5c0.5,0.1,0.9,0.4,1.6,0.7C135.2,101.3,135.1,101.3,133.6,100.5z M228.7,99.1
				c-7.8-0.5-15.8-0.8-23.9-1c-3-0.1-6,0-8.9,0.4c-3.2-1.7-6.6-3.4-11-4.8c7.3,1,15.6,1.4,23.3,2.1c8.5,0.8,16.9,1.5,25.2,2.2
				c-1,0.1-2,0.1-2.9,0.2C229.6,98.3,227.7,98.2,228.7,99.1z M246.2,81.4c1.5,0.6,3,1.3,4.5,1.9c-0.2,0-0.4,0-0.6,0
				c-2-0.3-4-0.5-6-0.8c0.4,0.2,0.7,0.4,1.1,0.5c-7.7-0.4-15.4-0.9-23-1.5c-11-1.7-22.8-2.9-34.8-3.4c3.5-0.7,6.8-1.5,9.8-2.4
				c15.2,1.9,29.9,4.3,45.8,5C244.1,81,245.1,81.2,246.2,81.4z M169.1,113.2C169,113.2,169,113.2,169.1,113.2
				c-0.6-0.4-1.3-0.9-2.2-1.5C166.8,111.8,167.8,112.4,169.1,113.2z M142.9,142l-0.4-0.3l4.7-6.6L142.9,142z"/>
		</g>
	</g>
	<g id="XMLID_2294_">
		<g id="XMLID_2322_">
			<path id="XMLID_2323_" class="st2" d="M231.3,182.2c-0.1-0.7-1.2-1.6-1.5-2.2c0.5-0.9,1.3-1.3,1.6-2c0.5-2,0.5-4.2,0.9-6.2
				c0.1-0.9,0.2-1.6,0.3-2.4c1.4-2.9,2-5.5,1.6-8.4c0.1-0.4,0.8-1.5,0.9-2.4c0.3-0.4,0.8-1.1,0.6-1.5c-0.6-0.9,0-2,1.3-3.5
				c0.8-1.1,0.9-2.2,1.5-3.3c1.9-4.9,3.1-9.7,5-14.4c-1.1-8.5,20.6-37.3,4.2-33.1c-1,0.7-2.4,1.1-3.5,1.3
				c-17.2,7.3-15.8,6.2-22,21.7c-0.5,2.2-1.1,4.2-1.8,6.4c-0.3,0.9-0.2,1.8-0.8,2.9c-3.5,7.3-4.8,14.6-10.1,22.1
				c-0.5,0.2-0.5,0.4-0.8,0.9c-4.9,5.3-4.2,5-9.7,4.7c-0.9,0-1.7-0.5-2.5,0c-2.5,0.4-3.7-0.9-3.8-2.5c0-2.2,0.3-4.4,1-6.9
				c3.2-10.2,7.3-20.8,11.6-31.2c5.2-10.1-5.4-3.6-5.2-12.1c-0.1-1.3-0.3-2.9,0.2-4.2c1-2.7,1.3-5.1,2.2-7.5
				c0.7-1.8,0.8-3.1,0.2-3.8c1.9-3.1,3.6-5.9,5.5-9.2c3,1.4,6.5-0.1,11.1-0.7c3-0.6,6.4-4.6,7.1-7.2c3.7-9.3,7.2-14.3,12.6-23.6
				c3.4-6,7.9-12.1,12-18.3c1.1-1.5,2.2-2,3.8-1.7c1.8,0.3,3.1,0.5,4.9,0.7c2.2,0.7,2.2,2,1.3,4c-1.7,3.5-3.9,6.6-5.1,9.7
				c-1.7,3.5-3.4,6.6-5.2,9.9c-15.4,20.7-1.3,19.5,16.2,13.6c0.6-1.1,1.3-1.5,1.6-2.4c2.8-6.4,5-10.2,8.4-16.8
				c0.7-1.8,2.3-4,2.5-5.7c0.3-2.9,2.6-5.3,4.3-7.9c1.1-1.8,2-3.5,2.4-5.7c0.2-1.6,1.6-3.8,2.4-5.5c2.7-4,5.6-7.9,8.3-12.1
				c3.1,0,6.3,0.1,9.2,0.1c4.7,0.1,8.9,1.2,12.2,3.3c3.2,1.8,4.7,4.5,3.3,8.7c-1.4,2.6-1.9,5.3-4,7.7c-5.4,8.4-9.6,17-13.4,25.4
				c-4.7,9.7,7.1,6.6,13.1,5.3c1.1-0.2,2.5-0.4,2.8,0.9c-4.3,0.6-9.2,1.6-13.1,2.5c-2.3,0.4-3.9,1.1-5.8,1.9c-2.6,1.3-4,3.5-5,6.1
				c1.1,0,2.9,0.3,4.2,0.3c0.7,0,1.8-0.2,2.5-0.6c2.7-0.2,5.5-0.8,8.1-0.3c1.1,0.2,3.6,0.1,5.2-0.4c1.8-0.2,3.4-0.2,5.4-0.1
				c-0.5-1.1-1.1-2-1.4-3.1c-0.1-1.1,0.7-2.4,1.4-4.2c0.4,0,1.1,0,1.6,0c0.3-0.2,0.3-0.2,0.5-0.4c-0.6-0.9-1.6-1.8-1.9-2.7
				c3,1.2,5.3,3.2,5.8,6.3l0-0.4c-0.5,0.4-1,0.7-1.9,0.6c-2,3.5,0.7,3.6,3.6,3.6c-3.4,2.4-5.3,0.8-7.8,1c1.5,0.9,2.3,1.6,3.5,2.5
				c-1.6,0.4-3.4,0.2-4.6,2.6c1.1,0.2,2.4,0.3,4.2,0.5c-1.6,0.4-2.8,1.1-3.7,1.3c-0.9,0.2-2.1,0.4-3.1,1.7c0.9,0,1.7,0.5,2.8,0.7
				c-5.6,1.5-11.1,2.9-16.8,5.1c-3.7,1.1-7.9,2.1-11.8,3.4c-3.2,0.8-5.3,2.8-6.5,5.5c-2.2,4-3.4,8-4.5,11.9c-1,2.9-1.8,5.8-3.2,8.6
				c-2.1,4.9-2.9,9.7-4.8,14.4c-1.4,4.4-2.8,8.9-4.7,13.3c0,0.4-0.8,0.9-1.3,1.5c-0.1,0.4-0.6,1.1-0.4,1.3c1,3.1-1,6.9-2.3,10.2
				c-0.1,0.7-0.4,1.3-0.4,1.8c0.3,3.1-1.8,6-3.2,8.8c-0.4,1.3-2.5,2.6-4.1,4.2c-1.1,0-2.3,0.2-3,0.4c-0.7,0-1.3,0-1.8,0.2
				c-3.2,2.6-6.5,1.9-9.7,4.5c-1.2,0.6-0.5-1.1-1.5-0.5c-0.7,0.7-1.3,1.3-1.5,1.3c-0.9,0-1.3-0.5-2.2-0.7c-0.5,0.4-1.5,1.3-2,1.8
				C232.2,184.5,232,184.2,231.3,182.2z M216.7,86.6c-2.8,0.6-3.5,1.5-5,4.4c1.1,0,2.4,0.5,3.8,0.5c1.3,0.2,1.5,0.9,1.8,2
				c-2.1,0.9-4.1,0.8-6.2,3c2.7-0.4,4.8-0.8,7.1-1.5c1.7-3.1,3.1-6,4.9-9.5C220.6,86.2,219,86.4,216.7,86.6z M243.9,80.8
				c-1.4,0.2-2.5,0.6-2.7,2c0.7,0,1.1,0.2,1.3,0c3.8-1.5,6.9-3,10.4-4.3c1.6-0.2,2.9-0.2,4.5-0.2c0-0.2,0.5-0.7,0.5-0.9
				c-1.8,0.2-3.5,0.8-5.1,1C249.9,79.3,246.9,79.9,243.9,80.8z M246.3,85.3c-1.4,0.2-2.8,0.6-4.2,1.3C243.4,87,245,86.8,246.3,85.3z
				 M261,84.6c-2.2-0.3-4.8,0.4-7.8,1.2c-1.6,0.6-3.3,1.1-5.1,1c-1.6,0-3,0.4-4.4,1.5c5.6-0.1,11.3-0.9,18.3-2.6
				C261.6,85.3,261.4,85.1,261,84.6z M260.4,88.2c-1.5-0.2-2.8-1.4-5.7,1C257.2,88.8,258.4,89.7,260.4,88.2z"/>
		</g>
		<g id="XMLID_2318_">
			<path id="XMLID_2319_" class="st2" d="M329.9,93.9c0,0,0,0,0.3-0.2c0.8-0.9,1.2-1.1,2-1.5c2.5-0.4,8.6-4.3,10.7-2.9
				c0.6,0.9,2.7,2,3.5,2.9c0.8,1.1,0.8,2.7-0.1,4.9c-1.7,2.9-3.5,5.5-5.7,9c-0.6,1.3-1.2,2.4-1.5,3.3c-1.1,2-2.3,4.6-3.7,6.6
				c-1.2,2.7,3.8-5.7,3.1-3.5c-0.1,0.7-0.6,1.3-0.9,1.8c-2.3,4.4-2.2,3.5-2.9,7.5c-0.3,2.2-2.4,13.5-2.4,15.5c0,1.6,0.8,2.5,1.4,3.4
				c0.8,0.5,1.9,1.4,3.2,1.8c1,0.9,2.2,0.5,3.6,0.3c19.4-6.4,12.9-8.9,25-20.1c2.3-2.9,5.1-5.5,6.6-9c0-0.2,0-0.2,0.8-1.3
				c0.9,2.2-1.9,5.3,1.1,6c-5.7,8.4-10.4,20.5-18.5,24.9c-2.6,2.8-19.3,15.9-28.8,12c-3.3,1.1-5.8-2.1-9.1-3.5c-2.1-0.9-4.2-2.7-6-5
				c-0.8-2.9-1.6-6-1.2-8.9c-0.3-1.3-0.1-2.9,0-4c1-2.7,1.1-7.8,2.2-9.5c0.4-1.1,0.9-2.2,1.1-3.5c0.5-0.2,0.2-1.3,1.7-1.5
				c0.2,0,0.5-0.9,0.8-1.1c1.3-1.5,1.7-2.9,3-4.4c0,0-5.2,4.6-2,0.2c2.3-4.4,6.9-9.2,8.6-12.3c0.1-0.4,0.6-1.1,0.6-1.1
				c0.8-1.3,1.6-2.2,1.3-3.8c-0.1-0.9,0.2-1.8,1-3.1C329,93.9,329.2,94.1,329.9,93.9z M353.3,70c-0.5,0.7-1,1.1-1.4,2
				c0,0.2-0.1,0.7-0.6,1.1c-0.7,0.7-1.5,1.5-2.5,2.6c-0.5,0.7-2.4,1.5-3.6,1.7c-0.4-0.2-1.1,0.2-1.6,0.6c-1.4,0.9-2.3,0.6-3.2,0.2
				c-0.6-0.5-1.1-0.5-1.7-0.5c-0.9,0-1.6,0-2.4-0.3c0.3-0.2,0.5-0.7,0.8-0.9c0.1-0.7,0.6-1.3,0.9-2.2c0.6-1.1,1.1-1.8,1.9-2.9
				c0.1-0.4,0.8-0.9,0.8-1.1c0.2-1.3,1.4-2.4,2.2-3.8c0.5-0.7,1-1.3,1.6-2c0.5-0.4,1-0.9,1.4-0.9c0.5-0.2,0.9-0.2,1.1,0
				c-0.1,0.4,0.4,0.5,0.9,0.2c0.5-0.2,0.7-0.4,0.9-0.2c0.8,0.5,1.9,0.7,2.8,0.9c1.5,0.7,2.5,1.8,3.2,3.4
				C354.1,68.9,353.8,69.6,353.3,70z"/>
		</g>
		<g id="XMLID_2314_">
			<path id="XMLID_2315_" class="st2" d="M440.5,121.8c-0.4,5.5,1.6,3.6,10.1,2.4c2.7-0.4,6.9-1.5,11.4-5.4c2.2-2,4.4,0.5,5.4,1.6
				c-0.1,0.9-3.5,5.3-4,5.7c-10.1,5.4-15,5.3-22,6.1c-5.8,1.2-6.5,4.1-9.1,8.5l-1.1,1.8c-1,2.7-2.8,4.6-4.1,6.6
				c-0.5,0.4-1,1.1-1.5,1.3l-2.5,2.6c-1.1,1.5-2.6,3.3-4.3,4.4l-1.8,1.8l-2.5,2c-0.7,0.2-1.4,0.2-2,0c-0.6-0.5-1.4-1.1-2.1-1.4
				c-0.1-0.7-0.1-1.3,0-2c-0.2-2-0.7-3.8-2.7-4c-0.8-0.5-1.4-1.4-2-2c-0.8-1.4-1.4-1.8-2.4-2.5c-1.9-1.4-1.9-4.9,0.2-7.8
				c1.1-2,2.4-3.1,3.8-3.9c1.5-1.1,3.1-2,4.8-2.6c2.9-1.7,5.4-1.7,8.4-3c1.7-0.9,3-2.4,4.1-4.8c2.2-5.8,5-14.2,6.3-20.1l0.9-7.6
				c0.1-0.4,0.1-0.9-0.1-1.3c-0.1-1.1-1.2-1.6-1.9-0.7c-0.5,0.2-0.7,0.4-1,1.1c-1.8,2.4-3.7,4.8-5.1,7.5c-4.1,6.4-8,13.2-12.1,19.4
				c-3,4.6-5.7,8.8-8.3,13.7c-4.3,7.9-12.8,15.8-16.7,24.4c-0.8,1.5-1.5,3.1-2.9,4c-1.2,0.4-1.8,2.2-2,3.5c-0.2,1.6-0.6,3.3-1.2,4.6
				c-0.5,0.9-1.1,1.8-1.6,2.2c-1.5,1.5-2.1,2.6-2.9,3.7c-2.9,5.5-5.3,11-6.4,17c-0.5,2.7-0.8,5.3-1.8,8c-0.5,2-1.5,3.5-3.2,4.2
				c-1.2,0.7-2.2,1.5-3.1,3.3c-0.2,0.2-1,1.1-1.2,1.1c-0.7,0-1.1,1.5-1.6,2.2l-0.2,0c-3.7,0.6-5.6-2.1-6.5-6.3
				c-0.9-4.2-0.8-8.9-0.5-13.3c0.8-10.7,2.6-20.9,5.1-31.5c0.9-4.2,2.3-8.6,3.5-12.6c1.7-6.9,4-13.7,6.5-20.1
				c3.6-9.7,7.3-19.2,11.3-28.5c0.9-2.2,2-4.2,3-6.9c3.4-6.6,6.5-13.7,10-20.5c1.5-3.3,3.7-7.1,5.7-10.4c1.2-0.9,2.3-0.9,3.4,0.1
				l5,3.4l0.2,0.2c2.9,4.1,4.4,9,4.3,15.6c0.1,3.3-0.6,7.1-1.9,10.9c-2,5.3-4.2,11.1-6.8,16.6c-1.8,3.5-3.6,8-5.4,11.9
				c-5,12.4,2.4,10.9,4.4,7.2c0.9-1.8,4.7-6.2,5.7-8.4l9.1-15c1.4-2.9,2.8-4.8,4.8-7c1.8-1.8,3.6-3.9,5.6-5.7
				c1.5-1.3,3.6-2.4,5.2-2.4l3.8,0.1c2.1-0.4,3.7,1.4,5.3,3c1,0.7,1.7,2.5,1.8,4.2c0,1.8,0.3,3.8,0.1,5.3l0.2,6.5L440.5,121.8z
				 M412.3,138.9c-1.4,0.7-2.5,2.2-2.8,4.9c0.1,1.1,0.7,2,1.3,2c0.5-0.4,1.2-0.4,1.7-0.9c1.2-0.7,2.4-1.5,3.2-2.6
				c2.8-3.3,4.1-6.8,3.3-5.5C416.4,137.9,414.5,137.4,412.3,138.9z"/>
		</g>
		<g id="XMLID_2310_">
			<path id="XMLID_2311_" class="st2" d="M465.7,189.3c-0.9,0-0.9,0-3.1,1.3c0,0,0-0.4,0.1-0.7c-0.4-0.2-0.4-0.2-0.6-0.7
				c-0.5,0.4-1.2,0.4-1.5,1.1c-1.2,0.9-2.4,1.1-3.8,1.5c-0.5,0.2-0.5,0.2-1.5-0.2c0.3-0.4,0.3-0.7,0.6-1.1c-0.7,0-1.2,0.4-1.8,0.4
				c-0.3,0.4-0.7,0.7-1.2,0.7c-1.9,1.1-2.8,0.6-3.5-1.2c-0.3-1.3-0.4-2.7-1.2-3.6c-1.1-1.8-1.1-4-1.3-6.5c0.1-0.9,0.5-2.4,1.1-3.5
				c1-2.9,2.6-5.3,4.7-7.9c4.2-5.1,8.5-9.4,13.2-13.1c9.4-7.6,8.3-9.9,6.4-16.6c-0.8-5.1-2.6-8.9-4.4-13c-0.1-0.9-0.7-1.6-0.8-2.5
				c-1.7-2.9-4.1-19.2-3.7-23.2c0.5-0.4,0.3-0.9,0.9-1.8c-0.1-1.3,0.5-2.7,1.6-4c0.3-0.7,1.1-2,0.6-3.1c0.8-1.1,1.2-2.7,2-3.8
				c0.6-1.1,1.1-1.8,1.7-3.1c0.5-0.7,0.8-1.3,1.6-2c0.8-1.3,1.6-2.6,2.5-4c1.1-1.8,2.6-3.1,3.7-4.6c0.3-0.4,0.5-0.4,1-0.7
				c0.7-0.4,1-0.7,1.5-1.5c0.8-0.9,1.3-1.3,1.7-0.9c1.5,0.7,2.5,1.4,3.7,2.7c0,0,0.2,0,0.4,0.2c1.9,0.9,4.6,9.2,4.5,12.1
				c-0.1,0.7-0.2,1.3,0.3,1.8c-0.2,1.3-0.3,2.7-0.9,4c-0.6,1.8-1.3,4-2.4,5.7c-0.6,0.9-0.9,1.5-1.8,1.8c-0.7,0.4-1.5,1.3-2,2.2
				c-0.3,0.7-1.3,1.3-1.2,2.4c0,0-0.1,0.4-0.3,0.7c-0.8,1.1-1.6,2.4-2.2,3.5c-1.2,2.2-1.6,6.2-1.1,8c0.3,1.1,1.3,2.2,1.9,2.9
				c2.6,2.5,4.2,11,6.4,13.4c1,0.9,0.7,3.3,1.5,4.3c1.5,4.9,9.3-1,15.3-2.4c3.6-2.4,7.3-4.8,11-7.4c2.7-1.7,5.4-3.7,7.8-5.7
				c1.7-1.3,3.2-2.8,4.8-4.4c1.2-1.1,2.5-2.4,3.8-3.7c0.3,0.9,0.5,1.6,0.6,2.2c0.3,1.3,0.4,2.7-0.7,4c-0.3,0.7-0.8,1.1-0.9,1.8
				c-0.6,1.5-1.4,2.9-2.5,4.2c-1.3,1.3-2.1,3.1-3.4,4.4c-1.2,0.9-2.2,1.8-3.2,2.6c-1.7,1.3-3.4,2.6-5.2,3.9c-0.2,0.2-0.7,0.7-1,0.9
				c-2.6,1.3-5.1,3.5-7.8,5.2c-0.8,0.7-1.7,1.3-2.7,2c-4.9,3.3-11.6,3.2-12.3,9.2c0.4,4.5,0.5,3.6-1.4,8.9c0.1,0.7-0.4,1.1-0.2,1.8
				c-0.5,0.7-0.3,0.9-0.3,0.9c-1.1,1.3-0.9,3.8-1.5,5.1c-0.3,0.4-0.8,0.9-1.2,1.1c-0.3,0.2-0.5,0.2-0.7,0.4c-1,1.3-2.3,2.6-3.2,4.2
				c-1.4,2.4-8.2,8.5-10.2,10.3c-0.8,0.9-1.3,1.5-2,2.2c-1.1,1.3-3.1,2-4.6,2.6c-0.3,0.2-0.5,0.2-0.5,0.4c-1.5,1.5-3.2,2.2-4.5,2.4
				c-0.5,0.2-0.5,0.4-1,0.7C462.6,192.6,464.1,191.1,465.7,189.3z M459,170.8c-1.4,0.4-2.9,1.7-3.7,3.3c-0.8,1.3-1.6,2.2-2.6,2.8
				c-1,0.9-2,1.8-2.6,2.8c-0.4,1.3-0.5,2.4-1.1,3.5c-0.6,1.3-0.5,2.2,0.1,2.9c0.8,1.1,1.6,2,2.3,3.1c0.6,0.5,1.5,0.7,2.5-0.2
				c1-0.7,1.7-1.3,2.9-2.2c1-0.9,2-2,3-2.8c2.2-1.5,4-3.3,5.6-5.9c0.5-0.4,0.8-1.1,1.1-1.5c1.3-1.8,2.4-3.7,3.3-5.7
				c1.4-2,1.4-4.2,2.5-6.4c0.2,0,0.3-0.4,0.3-0.7c0.8-7.1-8.4,3-11.4,5.6C460.7,170.1,459.9,170.6,459,170.8z"/>
		</g>
		<g id="XMLID_2305_">
			<path id="XMLID_2306_" class="st2" d="M598.5,116.6c-0.2,1.3-0.8,1.3-0.7,2.4c0.1,0.9-3.1,7.3-3.6,8.2c-1.7,3.5-3.7,7.1-5.5,10.6
				c-2.5,4-4.9,7.5-7.3,11.2c-1.1,1.5-13.1,14.7-14.4,15.6c-3.1,2-8.7,7.7-11.6,9.4c-1.9,1.1-8.9,3.4-10.5,3.6
				c-2.9,0.2-6.1,0.3-8.7-0.4c-4.6-0.7-10.8-7.7-12.6-12.2c-0.9-2-2-3.8-2.5-6c-0.6-2.9-0.7-7.6-0.6-10.9
				c2.1-18.6,4.7-21.3,12.1-39.2c0.6-1.5,1-2.9,1.6-4.4c0.4-1.6,1.2-3.1,1.8-4.4c1-2.4,1.9-4.9,2.8-7.1c1.7-4.9,8.5-13.2,3.2-14.4
				c-1.5-0.3-2.9,0-4.1-1.2c-1.2-0.9-2.5-1.6-3.8-2.5c-0.4-0.4-1-0.9-1.1-2c0.5-0.2,0.9-0.4,1.2-0.4c3.2-0.6,6.2-1.2,9.4-1.9
				c2.1-0.4,4.3-0.6,6.6-0.8c0.9-0.2,1.9-0.6,2.4-1.7c0.9-1.8,2.2-3.3,2.8-5.3c2.7-4.2,4.8-8.6,7.7-12.6c2.6-3.5,5.2-6.6,8.5-9.2
				c0.5-0.7,1.3-1.3,1.8-1.8c1-0.7,1.9-1.1,3-0.8c1.3,0.5,2.7-0.2,4.3-0.2c0.2,0,0.2,0,0.5-0.2c3.2-0.6,4.2,0.7,4.8,3.2
				c0.9,2.2,1.1,4.5,0.8,7.1c-0.1,1.3-0.1,2.4,0,3.6c0.1,0.9,0,2-0.4,3.1c-0.3,1.1-0.7,2.2-1.1,3.5c-0.7,1.8-1.3,3.5-2,5.3
				c-0.1,0.7-0.1,1.1-0.4,1.8c0.6,0.5,1.3,0.5,2.2,0.5c2.7-0.2,5.7-0.4,8.4-0.5c3.8,0.1,7.9,0.1,11.7,0.2c1.3,0,2.6,0.5,4.2,0.7
				c-0.5,0.7-0.8,1.1-1.1,1.3c-0.5,0.4-1.2,0.9-1.7,1.1c-1.6,0.6-3.5,1.5-5.2,2.1c0,0.2-0.2,0.2-0.2,0.2c-2.5,0.2-5.3,1.3-8,1
				c-1.6,0-3.2,0.2-4.8,0.6c-0.9,0.4-2.1,0.4-3,0.6c-1.8,0.2-3.4,0.4-5.2,0.6c-0.9,0.2-1.4,0.9-2,1.8c-0.3,0.2-0.3,0.4-0.5,0.7
				c-3.5,7.5-7.9,14.6-11.7,21.8c-0.5,0.9-1.1,1.8-1.4,2.4c-1.4,2.2-2.5,4.2-3.4,6.6c-0.9,2-2.2,4-3.6,5.7c-1.1,1.5-1.1,3.5-2.4,5.1
				c-3.1,5.5-7.9,22.3-8.4,30.8c-0.2,3.6,0.3,6.9,1.1,10.2c0.3,1.1,1.1,1.8,1.7,2.7c0.2,0,0.4,0.2,0.9,0.2c2,0,6,0.3,8.2-1
				c1.4-0.9,8.8-6.1,10.3-7.2c3.7-3.3,12.3-11.4,15.1-15.8c2.4-3.7,4.1-8.6,6.5-12.1c1.1-2.2,3.9-7.1,5.3-9.5
				C597.1,116.8,598.8,116,598.5,116.6z M567.4,83.2c2.9-5.5,4.1-9.9-3.9-5.4c-3.3,7.3-4.8,12.4-7.6,19.2c-7,18.4,1.7,4.7,5.8-3.5
				C563.8,89.4,564.9,87.2,567.4,83.2z M577.2,57.8c0.3-0.9,0.7-2,1-3.1c0.4-1.8,1.1-3.5,1.5-5.3c0.5-2,0.5-4,0.5-6
				c-0.1-0.9-0.8-1.1-1.3-0.7c-1,0.7-1.7,1.1-2.3,2.2c-1.1,1.8-2.2,3.7-2.9,5.7c-0.3,0.7-0.8,1.3-1.1,2c-0.6,0.9-1.1,1.8-1.7,2.9
				c-0.7,2.2-1.4,4.6-2.4,7.1c-1.6,5.8,4.7,6.1,6.5,2.1C575.8,62.5,576.5,60.3,577.2,57.8z"/>
		</g>
		<g id="XMLID_2298_">
			<path id="XMLID_2299_" class="st2" d="M618.8,117.6c-0.1,0.4-0.5,0.9-1,1.1c-0.3,0.2-0.7,0.4-0.8,1.1c-0.3,0.9-0.6,1.1-1.3,1.3
				c-0.5,0.2-0.5,0.4-0.9,1.8c0.4,0,0.7,0,0.9,0.2c0,0,0,0,0,0.2c-0.4,0-0.9,0-1.6,0c0.3-0.7,0.4-1.3,0.4-1.8c-0.2,0-0.4,0-0.4,0
				c-0.4,1.5-0.8,3.1-1.2,4.6c0.4,0.2,0.6,0.5,0.8,0.5c0,1.6-0.1,2.9-0.3,4.4c-0.2,1.6,0.1,2.9,0.4,4c0.6,0.9,1.8,5.8,2.4,6.7
				c2.8,3.1,6.2,7.2,9.7,7.5c1.1,0.2,7.7-0.8,8.9-1c5.6-1.5,11-4.3,16.4-8c4.1-2.8,8.1-6.1,12.3-9.2c0.3-0.2,0.5-0.4,0.8-0.7
				c1.5-1.5,3-2.8,4.5-4.4c2.7-2.4,5.3-4.8,7.6-7.7c0.8-1.1,1.6-2.2,3-2.6c-0.7,2-1.3,3.8-2.4,5.5c-0.3,0.7-0.8,1.3-1.3,1.8
				c-1.5,1.5-2.8,2.8-3.9,4.6c-0.8,0.9-1.8,1.8-2.5,2.6c-0.2,0.2-0.5,0.7-1,1.3c0.7-0.2,1.2-0.4,1.9-0.6c-0.4,1.3-1.5,1.5-1.9,2.6
				c0.2,0.2,0.2,0.4,0.6,0.7c-0.8,1.1-1.6,1.8-2.6,2.6c-1.5,1.1-3,2.4-4.2,3.7c-2.3,2.2-4.7,3.9-7.2,5.7c-1.2,0.9-2.2,1.7-3.4,2.4
				c-1,0.7-1.9,1.1-2.9,1.7c-1.4,0.6-2.8,1.3-4.3,2.2c-2.4,1.3-5,2.4-7.5,2.8c-0.7,0.2-1.4,0.4-2.1,0.6c-2.8,0.8-5.5,1.2-8.3,1.4
				c-3.2,0.4-16.2-2.2-19-3.4c-7.5-3.2-8.6-7-11.9-10.2c-1.2-1.1-2.1-2.9-2.6-4.7c-0.8-2.9-0.7-6-0.5-9.3c0.8-6.9,3.3-13.5,7-19.7
				c0.8-1.3,0.8-1.3,0.8-3.3c-1.2,0.7-1.9,1.1-2.5,2.4c-0.9,2-2,3.8-3.3,5.7c0.2-2,1.3-3.3,2.1-4.9c2.2-4,4.7-7.7,7.6-11.2
				c2.9-3.7,6-7,9.5-10.1c3.5-3.3,7.2-6.1,11.1-8.3c0.9-0.4,1.6-0.6,2.4-1.1c1.2-0.4,2.3-0.6,2.9,0.5c0.6,0.7,1.5,0.5,1.9,0.9
				c0.6,0.5,0.7,1.3,1.1,1.8c2.1,1.1,10.4,3.5,12.3,4.9c0.6,0.5,1,1.4,1.3,2.2c0.9,2,1.5,4.3,3,5.6c0.4,0.4,0.5,1.3,0.7,2
				c0.1,2.7,0.1,5.1-0.9,8c-0.8,3.1-2.5,6-4.3,8.6c-1.1,1.5-2.1,2.9-3,4.6c-0.6,1.5-1.7,2.9-2.7,4.4c-1.1,1.8-2.8,2.8-4.4,3.3
				c-1.4,0.6-3,0.8-4.3,0.6c-0.6-0.2-1.3,0-1.7-0.9c0-0.2-0.2-0.2-0.2-0.2c-1.8,0.2-2.7-1.8-4-2.5c-0.2-0.2-0.4-0.9-0.3-1.1
				c0.6-0.9,0.2-1.3,0-2c-0.7-1.8-1.4-3.8-2.3-5.6c-0.1-0.7-0.8-0.9-1.5-0.3C620,115.4,619,116.3,618.8,117.6z M595.2,137.3
				c0.1,0.7,0.3,1.1,0.5,1.8c-0.1,0.7,0.5,1.1,0,2c-0.2-0.2-0.4-0.2-0.4-0.4c-0.9-2.2-1-5.1-1.1-8c-0.2-0.2,0.1-0.4,0.1-0.7
				c0.4-3.3,0.7-6.4,2-9.8c0.3-0.7,0.6-1.3,0.7-2c0-0.4,0.1-0.7,0.2-1.6c-0.8,1.3-1.4,2.2-1.7,3.1c-0.3,1.1-0.7,2-1,3.1
				c-1.6,5.8-1.9,11.1,0,15.8c0.4,0.9,0.9,1.6,1.5,2.5c0.4,0.5,0.8,0.7,1.5,0.9c0,0.2,0.2,0,0.7,0c-0.5-1.1-1.1-2-1.4-3.1
				c-0.5-1.3-0.4-2.7-0.9-3.8C595.5,137,595.2,137.3,595.2,137.3z M596.8,123c-1.5,3.5-1.7,6.9-1.6,10.2c0,0.2,0.2,0.2,0.4,0.4
				c0.5-2.4,1-4.7,1.4-6.9c0.4-1.6,0.8-3.1,0.3-4.4C597.1,122.6,596.9,122.8,596.8,123z M612.2,128.8c0,0.2,0,0.2-0.1,0.4
				C612.1,129.1,612.1,129.1,612.2,128.8z M627.1,105.7c-0.5,0.7-1.3,1.5-1.8,2.4c-1.1,1.5-1,2.7,0.1,3.3c0.6,0.5,1.5,0.9,1.8,1.6
				c1.2,1.6,3,1.4,4.8,1.2c1.6-0.4,2.9-2,4-3.5c2-3.8,3-4.4,4.7-8.2c4.5-8.4-2.9-6.5-6.5-3.9C631.5,100.4,629.4,103.3,627.1,105.7z"
				/>
		</g>
		<g id="XMLID_2295_">
			<path id="XMLID_2296_" class="st2" d="M703.5,126c1.3-3.3,10.9-19,12.8-21.6c1.6-2,3.1-4,4.5-6.2c1.5-1.8,3.1-3.7,4.2-5.5
				c1.1-1.5,2.5-2.4,3.9-2.6c1.6,0,2.9-0.2,4.3-0.2c2.7,0,4,2.1,5.1,5c0,0.2,0,0.4-0.1,0.9c0.1,2.9,0.4,6,0.5,9.1
				c0.1,2.9-0.5,6-0.8,8.9c-0.2,2-0.2,4-0.7,6c1,0.7,0.7,1.6,1,1.3c0.5-0.4,2,0.3,2.5-0.2c0.3-0.4,0.7-0.7,1-1.1c1-0.7,2-1.3,3-2.4
				c0.8-1.1,1.5-1.1,2.2,0c-0.1,0.7-0.4,1.3-1.1,1.8c-0.3,0.2-0.5,0.7-0.8,1.1c-0.3,0.7-0.8,1.3-1.5,1.5c-0.2,0.2-0.5,0.4-0.7,0.7
				c-0.3,0.2-0.7,0.4-0.7,0.7c-0.2,0.2-0.5,0.2-0.7,0.4c-1,0.9-1.7,1.1-2.6,1.1c-0.2,0-1.1,0.2-2.1,0.9c-0.7,0.4-1.4,0.4-1.8,0
				c-1.5-0.9-3-1.2-4.5-1.8c-2.6-0.7-4.4-3.2-5.1-6.3c-0.9-4-0.4-8.5,0.8-12.7c0.7-2,0.9-3.8,1.3-5.5c0.4-1.3,0.8-2.7,1.1-4
				c0.5-0.9,0.6-1.5,0.5-2.4c-0.2,0-0.6-0.2-0.7,0.2c-0.2,0.2-0.7,0.7-1,1.1c-1.1,1.8-2.4,3.5-3.8,5.5c-0.8,1.1-1.4,2.4-1.8,4
				c0.1,0.9-0.6,1.5-0.9,2.2c-2.4,3.7-4.6,7.3-6.5,11.5c-1.5,3.1-3.3,5.7-5,8.8c-2.5,4.6-5.5,8.8-7.6,13.7c-0.6,1.5-1.7,3.3-2.6,5.1
				c-0.6,1.3-7.4,11.9-8.9,13c-0.1,0.4-0.7,0.7-1.2,1.1c-3.1,3.7-6.2,3.5-9.7,2.5c-0.5,0.4-0.9,0-1.3-0.5c-3.5-0.9-4.9-4.3-5.3-8.8
				c-0.2-3.8,0.2-7.8,0.6-11.6c0.9-5.8,1.8-11.5,2.9-17.3c1.8-6.4,0.9-6,3.4-12c2.6-8.6,1.5-7.3,5.6-15.9c0.4-1.6,1.4-2.6,2-4.2
				c2-4,3.8-7.5,6-11c1.2-2.9,2.2-3.3,4.4-2.8c1.6,0,3.5,0.5,5.5,1c1.3,0.2,2.6,0.7,4.2,2.3c1.2,2.9,3.3,4.9,5.2,7.6
				c1.6,3.6,1.8,6.3-0.1,10.5c-1.6,4.4-1.7,1.1-3.3,5.7c-4,9.3-10.2,16.5-13.6,24.9C690.7,140,702.2,129.8,703.5,126z"/>
		</g>
	</g>
	<g id="XMLID_2254_">
		<g id="XMLID_2290_">
			<path id="XMLID_2291_" class="st2" d="M279.3,235.1c3,0,5.6,0.9,7.5,2.7c2,1.8,2.9,4.1,2.9,6.9c0,2.8-1,5.1-2.9,6.9
				c-2,1.8-4.5,2.7-7.5,2.7h-6.7v-19.1H279.3z M277.2,250.7h2.1c1.8,0,3.2-0.5,4.2-1.6c1-1.1,1.5-2.6,1.5-4.4c0-1.8-0.5-3.3-1.5-4.4
				c-1-1.1-2.4-1.6-4.2-1.6h-2.1V250.7z"/>
		</g>
		<g id="XMLID_2287_">
			<path id="XMLID_2288_" class="st2" d="M316.7,235.1v3.5h-6.9v4.1h6.1v3.5h-6.1v4.4h6.9v3.5h-11.6v-19.2H316.7z"/>
		</g>
		<g id="XMLID_2284_">
			<path id="XMLID_2285_" class="st2" d="M339.7,238.5c-0.6,0-1.1,0.2-1.4,0.5c-0.4,0.3-0.6,0.8-0.6,1.3s0.2,1.1,0.5,1.4
				c0.3,0.4,0.8,0.6,1.3,0.8c0.6,0.2,1.2,0.4,1.8,0.5c0.7,0.2,1.4,0.4,2,0.6c0.7,0.2,1.3,0.5,1.8,0.9c0.6,0.4,1,0.9,1.4,1.5
				c0.3,0.7,0.5,1.5,0.5,2.4c0,1.6-0.7,3-2,4.2c-1.3,1.2-3,1.7-5.2,1.7c-2.2,0-3.9-0.5-5.2-1.6c-1.3-1-2-2.5-2-4.4h5
				c0.1,1.5,0.9,2.3,2.3,2.3c0.7,0,1.2-0.2,1.6-0.5c0.4-0.4,0.6-0.8,0.6-1.3c0-0.5-0.2-1-0.5-1.3c-0.3-0.3-0.8-0.6-1.3-0.8
				c-0.6-0.2-1.2-0.4-1.9-0.6c-0.7-0.2-1.4-0.4-2-0.6c-0.7-0.3-1.3-0.6-1.8-0.9c-0.6-0.4-1-0.9-1.4-1.5c-0.3-0.7-0.5-1.4-0.5-2.4
				c0-1.8,0.7-3.2,2-4.3c1.3-1.1,3-1.6,5.1-1.6c2.1,0,3.7,0.5,5,1.4c1.3,0.9,1.9,2.4,2,4.4h-5.1c-0.1-0.7-0.3-1.2-0.7-1.6
				C340.7,238.7,340.3,238.5,339.7,238.5z"/>
		</g>
		<g id="XMLID_2281_">
			<path id="XMLID_2282_" class="st2" d="M363.3,254.2v-19.1h4.7v19.1H363.3z"/>
		</g>
		<g id="XMLID_2278_">
			<path id="XMLID_2279_" class="st2" d="M386.2,251.7c-1.9-1.8-2.8-4.2-2.8-7c0-2.8,0.9-5.2,2.8-7c1.9-1.8,4.2-2.8,7-2.8
				c2.1,0,4,0.6,5.7,1.7c1.7,1.1,2.8,2.7,3.5,4.7h-5.6c-0.7-1.4-1.9-2.1-3.5-2.1c-1.6,0-2.9,0.5-3.8,1.5c-0.9,1-1.4,2.3-1.4,4
				c0,1.7,0.5,3,1.4,4c0.9,1,2.1,1.5,3.7,1.5c1.1,0,2-0.3,2.7-0.8c0.7-0.6,1.2-1.3,1.4-2.2h-5.4v-3.5h10.4v3.5
				c-0.3,1.7-1.3,3.4-2.9,4.9c-0.7,0.7-1.7,1.3-2.8,1.8c-1.1,0.5-2.3,0.7-3.5,0.7C390.5,254.4,388.1,253.5,386.2,251.7z"/>
		</g>
		<g id="XMLID_2275_">
			<path id="XMLID_2276_" class="st2" d="M430.2,235.1h4.7v19.2h-4.7l-7.8-12.1v12.1h-4.7v-19.2h4.7l7.8,12.1V235.1z"/>
		</g>
		<g id="XMLID_2272_">
			<path id="XMLID_2273_" class="st2" d="M478.6,238.5c-0.6,0-1.1,0.2-1.4,0.5c-0.4,0.3-0.6,0.8-0.6,1.3s0.2,1.1,0.5,1.4
				c0.3,0.4,0.8,0.6,1.3,0.8c0.6,0.2,1.2,0.4,1.8,0.5c0.7,0.2,1.4,0.4,2,0.6c0.7,0.2,1.3,0.5,1.8,0.9c0.6,0.4,1,0.9,1.4,1.5
				c0.3,0.7,0.5,1.5,0.5,2.4c0,1.6-0.7,3-2,4.2c-1.3,1.2-3,1.7-5.2,1.7c-2.2,0-3.9-0.5-5.2-1.6c-1.3-1-2-2.5-2-4.4h5
				c0.1,1.5,0.9,2.3,2.3,2.3c0.7,0,1.2-0.2,1.6-0.5c0.4-0.4,0.6-0.8,0.6-1.3c0-0.5-0.2-1-0.5-1.3c-0.3-0.3-0.8-0.6-1.3-0.8
				c-0.6-0.2-1.2-0.4-1.9-0.6c-0.7-0.2-1.4-0.4-2-0.6c-0.7-0.3-1.3-0.6-1.8-0.9c-0.6-0.4-1-0.9-1.4-1.5c-0.3-0.7-0.5-1.4-0.5-2.4
				c0-1.8,0.7-3.2,2-4.3c1.3-1.1,3-1.6,5.1-1.6c2.1,0,3.7,0.5,5,1.4c1.3,0.9,1.9,2.4,2,4.4h-5.1c-0.1-0.7-0.3-1.2-0.7-1.6
				C479.6,238.7,479.2,238.5,478.6,238.5z"/>
		</g>
		<g id="XMLID_2269_">
			<path id="XMLID_2270_" class="st2" d="M500.9,238.7v-3.5H516v3.5h-5.2v15.6h-4.7v-15.6H500.9z"/>
		</g>
		<g id="XMLID_2266_">
			<path id="XMLID_2267_" class="st2" d="M531.1,246.5v-11.4h4.7v11.4c0,1.1,0.3,2,0.8,2.6c0.6,0.6,1.4,0.9,2.5,0.9
				c1.1,0,1.9-0.3,2.5-0.9c0.6-0.6,0.9-1.5,0.9-2.6v-11.4h4.7v11.4c0,1.7-0.4,3.1-1.2,4.4c-0.8,1.2-1.8,2.1-3,2.7
				c-1.2,0.6-2.5,0.8-3.9,0.8c-2.2,0-4.1-0.7-5.6-2.1C531.9,251,531.1,249.1,531.1,246.5z"/>
		</g>
		<g id="XMLID_2262_">
			<path id="XMLID_2263_" class="st2" d="M570.3,235.1c3,0,5.6,0.9,7.5,2.7c2,1.8,2.9,4.1,2.9,6.9c0,2.8-1,5.1-2.9,6.9
				c-2,1.8-4.5,2.7-7.5,2.7h-6.7v-19.1H570.3z M568.3,250.7h2.1c1.8,0,3.2-0.5,4.2-1.6c1-1.1,1.5-2.6,1.5-4.4c0-1.8-0.5-3.3-1.5-4.4
				c-1-1.1-2.4-1.6-4.2-1.6h-2.1V250.7z"/>
		</g>
		<g id="XMLID_2259_">
			<path id="XMLID_2260_" class="st2" d="M596.2,254.2v-19.1h4.7v19.1H596.2z"/>
		</g>
		<g id="XMLID_2255_">
			<path id="XMLID_2256_" class="st2" d="M619.2,251.7c-1.9-1.9-2.8-4.2-2.8-7c0-2.8,0.9-5.2,2.8-7c1.9-1.8,4.2-2.8,7-2.8
				c2.8,0,5.1,0.9,6.9,2.8c1.9,1.8,2.8,4.2,2.8,7c0,2.8-0.9,5.2-2.8,7c-1.9,1.9-4.2,2.8-6.9,2.8
				C623.4,254.4,621.1,253.5,619.2,251.7z M629.8,248.6c0.9-1,1.4-2.3,1.4-4c0-1.7-0.5-3-1.4-4c-0.9-1-2.1-1.5-3.7-1.5
				c-1.5,0-2.8,0.5-3.7,1.5c-0.9,1-1.4,2.3-1.4,4c0,1.7,0.5,3,1.4,4c0.9,1,2.1,1.5,3.7,1.5C627.6,250.1,628.9,249.6,629.8,248.6z"/>
		</g>
	</g>
</g>
</svg>
