<?xml version="1.0" encoding="utf-8"?>
<!-- Generator: Adobe Illustrator 23.0.2, SVG Export Plug-In . SVG Version: 6.00 Build 0)  -->
<svg version="1.1" id="Layer_1" xmlns="http://www.w3.org/2000/svg" xmlns:xlink="http://www.w3.org/1999/xlink" x="0px" y="0px"
	 viewBox="0 0 170 170" style="enable-background:new 0 0 170 170;" xml:space="preserve">
<style type="text/css">
	.st0{fill:#2D2D2D;}
	.st1{font-family:'Montserrat-ExtraBold';}
	.st2{font-size:25.3244px;}
	.st3{font-family:'Montserrat-ExtraLight';}
	.st4{font-size:15.3292px;}
	.st5{fill:#6D6E70;}
	.st6{fill:#A6A8AB;}
</style>
<g id="XMLID_168_">
	<g id="XMLID_58_">
		<text id="XMLID_10_" transform="matrix(1 0 0 1 37.6553 133.6328)" class="st0 st1 st2">LOREM</text>
		<text id="XMLID_8_" transform="matrix(1 0 0 1 37.7109 153.1787)" class="st0 st3 st4">Your Tagline</text>
	</g>
	<g id="XMLID_60_">
		<g id="XMLID_102_">
			<path id="XMLID_11_" class="st5" d="M107.8,61.2c-4.8-0.9-7.9-5.5-7-10.3l0.9-4.6C104,34,96.3,21.8,84,19.3
				C71.5,16.7,59.4,25,57.2,37.5c-2.2,12.3,6.3,24,18.6,26.4l4.6,0.9c4.8,0.9,7.9,5.5,7,10.3c-1.9,9.8,4.3,19.6,14.1,21.5
				c9.8,1.9,19.3-4.5,21.1-14.3C124.4,72.5,117.6,63.1,107.8,61.2z"/>
			<circle id="XMLID_12_" class="st6" cx="64.9" cy="84.3" r="12.6"/>
		</g>
	</g>
</g>
</svg>
