<?xml version="1.0" encoding="utf-8"?>
<!-- Generator: Adobe Illustrator 23.0.2, SVG Export Plug-In . SVG Version: 6.00 Build 0)  -->
<svg version="1.1" id="Layer_1" xmlns="http://www.w3.org/2000/svg" xmlns:xlink="http://www.w3.org/1999/xlink" x="0px" y="0px"
	 viewBox="0 0 170 170" style="enable-background:new 0 0 170 170;" xml:space="preserve">
<style type="text/css">
	.st0{fill:#A6A8AB;}
	.st1{font-family:'Montserrat-ExtraBold';}
	.st2{font-size:29.8076px;}
	.st3{font-family:'Montserrat-ExtraLight';}
	.st4{font-size:18.0429px;}
</style>
<g id="XMLID_168_">
	<g id="XMLID_58_">
		<text id="XMLID_10_" transform="matrix(1 0 0 1 30.502 138.708)" class="st0 st1 st2">LOREM</text>
		<text id="XMLID_8_" transform="matrix(1 0 0 1 30.5674 161.7139)" class="st0 st3 st4">Your Tagline</text>
	</g>
	<g id="XMLID_60_">
		<g id="XMLID_102_">
			<path id="XMLID_11_" class="st0" d="M113.1,53.5c-5.6-1.1-9.3-6.5-8.3-12.2l1-5.4C108.6,21.5,99.5,7,85.1,4.1
				c-14.7-3-29,6.7-31.6,21.5c-2.6,14.5,7.5,28.3,21.9,31l5.4,1c5.6,1.1,9.3,6.5,8.3,12.2c-2.2,11.5,5.1,23.1,16.6,25.3
				c11.5,2.3,22.7-5.3,24.8-16.9C132.6,66.7,124.6,55.7,113.1,53.5z"/>
			<circle id="XMLID_12_" class="st0" cx="62.6" cy="80.7" r="14.8"/>
		</g>
	</g>
</g>
</svg>
