<?xml version="1.0" encoding="utf-8"?>
<!-- Generator: Adobe Illustrator 23.0.2, SVG Export Plug-In . SVG Version: 6.00 Build 0)  -->
<svg version="1.1"
	 id="svg3358" xmlns:cc="http://creativecommons.org/ns#" xmlns:dc="http://purl.org/dc/elements/1.1/" xmlns:rdf="http://www.w3.org/1999/02/22-rdf-syntax-ns#" xmlns:svg="http://www.w3.org/2000/svg"
	 xmlns="http://www.w3.org/2000/svg" xmlns:xlink="http://www.w3.org/1999/xlink" x="0px" y="0px" viewBox="0 0 800 450"
	 style="enable-background:new 0 0 800 450;" xml:space="preserve">
<style type="text/css">
	.st0{fill:#A6A8AB;}
</style>
<g>
	<g>
		<g>
			<path class="st0" d="M106.4,370.7c-1.5,1.1-3.1,2-4.8,2.8c-1.7,0.8-3.6,1.4-5.7,1.8c-2.1,0.4-4.3,0.6-6.8,0.6
				c-3.9,0-7.5-0.7-10.8-2c-3.3-1.4-6.2-3.2-8.6-5.5c-2.4-2.3-4.3-5.1-5.7-8.3c-1.4-3.2-2.1-6.6-2.1-10.3c0-3.6,0.7-7,2-10.2
				c1.3-3.2,3.2-6,5.7-8.4c2.4-2.4,5.3-4.3,8.7-5.7c3.4-1.4,7.1-2.1,11.1-2.1c2.4,0,4.7,0.2,6.7,0.6c2,0.4,3.8,0.9,5.5,1.6
				s3.2,1.5,4.6,2.5c1.4,1,2.8,2,4,3.2l-6,6.6c-2.1-1.9-4.4-3.4-6.8-4.6c-2.4-1.2-5.1-1.7-8.2-1.7c-2.5,0-4.9,0.5-7.1,1.4
				c-2.2,0.9-4,2.2-5.6,3.8c-1.6,1.6-2.8,3.5-3.7,5.7c-0.9,2.2-1.3,4.5-1.3,7c0,2.5,0.4,4.9,1.3,7.1c0.9,2.2,2.1,4.1,3.7,5.8
				c1.6,1.6,3.4,2.9,5.6,3.9c2.2,0.9,4.5,1.4,7.1,1.4c3.3,0,6-0.6,8.4-1.8c2.3-1.2,4.6-2.8,6.9-4.8l6,5.8
				C109.4,368.4,107.9,369.6,106.4,370.7z"/>
			<path class="st0" d="M195.9,375.1l-13.1-17.7H171v17.7h-9.3v-50.8h23.8c3,0,5.8,0.4,8.3,1.1c2.5,0.8,4.5,1.8,6.2,3.2
				c1.7,1.4,3,3.1,3.9,5.1c0.9,2,1.4,4.2,1.4,6.7c0,2.1-0.3,4-1,5.7c-0.6,1.7-1.5,3.1-2.6,4.4c-1.1,1.3-2.5,2.4-4,3.3
				c-1.5,0.9-3.3,1.6-5.1,2.1l14.4,19.2H195.9z M192.9,334.5c-1.9-1.4-4.7-2.2-8.2-2.2H171v17.1h13.8c3.4,0,6-0.8,8-2.3
				c2-1.6,3-3.6,3-6.3C195.8,338.1,194.8,335.9,192.9,334.5z"/>
			<path class="st0" d="M297.4,332.4h-30.2v13.1H294v8.1h-26.7V367h30.6v8.1H258v-50.8h39.5V332.4z"/>
			<path class="st0" d="M401.2,375.1h-9.9l-5.4-12.3h-25.2l-5.5,12.3h-9.6l23.5-51.2h8.7L401.2,375.1z M373.3,334.6l-9.1,20.3h18.4
				L373.3,334.6z"/>
			<path class="st0" d="M467.2,375.1h-9.4v-42.5h-16.9v-8.3h43.3v8.3h-16.9V375.1z"/>
			<path class="st0" d="M545,324.3v50.8h-9.3v-50.8H545z"/>
			<path class="st0" d="M638.4,324.3h10.1l-22.2,51.2h-8.2l-22.2-51.2h10.4l16.1,39L638.4,324.3z"/>
			<path class="st0" d="M738.3,332.4h-30.2v13.1h26.7v8.1h-26.7V367h30.6v8.1h-39.9v-50.8h39.5V332.4z"/>
		</g>
	</g>
	<g>
		<polygon class="st0" points="345.9,100.1 391,74.4 391,267 345.9,241.3 		"/>
		<polygon class="st0" points="454.7,100.5 454.7,240.4 409.6,266.1 409.6,74.9 		"/>
		<path class="st0" d="M330.9,111.5v130.9h-15V121.8C321.8,117.9,326.8,114.5,330.9,111.5z"/>
		<path class="st0" d="M300.9,131.4v111h-15V140.3C291.2,137.2,296.2,134.2,300.9,131.4z"/>
		<path class="st0" d="M270.9,148.8v93.6h-15v-85.7C261.1,154,266.1,151.3,270.9,148.8z"/>
		<path class="st0" d="M240.8,164.2v78.1h-15v-71C231,169,236,166.6,240.8,164.2z"/>
		<path class="st0" d="M210.8,178.2v64.2h-15v-57.8C200.9,182.5,205.9,180.3,210.8,178.2z"/>
		<path class="st0" d="M180.8,190.7v51.7h-15v-45.9C170.9,194.6,175.9,192.7,180.8,190.7z"/>
		<path class="st0" d="M150.7,202v40.4h-15v-35.2C140.8,205.5,145.8,203.8,150.7,202z"/>
		<path class="st0" d="M120.7,212.1v30.3h-15v-25.6C110.8,215.2,115.8,213.7,120.7,212.1z"/>
		<path class="st0" d="M90.7,221.2v21.2h-15v-17.1C80.7,223.9,85.7,222.6,90.7,221.2z"/>
		<path class="st0" d="M60.7,229.2v13.2h-15v-9.6C50.7,231.7,55.7,230.4,60.7,229.2z"/>
		<path class="st0" d="M30.6,236.3v6.1h-15v-3C20.7,238.4,25.7,237.3,30.6,236.3z"/>
		<path class="st0" d="M484.7,122.2v120.6h-15V111.9C473.8,114.9,478.8,118.4,484.7,122.2z"/>
		<path class="st0" d="M514.7,140.7v102.1h-15v-111C504.4,134.6,509.4,137.6,514.7,140.7z"/>
		<path class="st0" d="M544.8,157.1v85.7h-15v-93.6C534.5,151.8,539.5,154.4,544.8,157.1z"/>
		<path class="st0" d="M574.8,171.8v71h-15v-78.1C564.6,167.1,569.6,169.4,574.8,171.8z"/>
		<path class="st0" d="M604.8,185v57.8h-15v-64.2C594.7,180.8,599.7,182.9,604.8,185z"/>
		<path class="st0" d="M634.9,196.9v45.9h-15v-51.7C624.7,193.1,629.7,195,634.9,196.9z"/>
		<path class="st0" d="M664.9,207.6v35.2h-15v-40.4C654.8,204.2,659.8,205.9,664.9,207.6z"/>
		<path class="st0" d="M694.9,217.2v25.6h-15v-30.3C684.8,214.1,689.8,215.7,694.9,217.2z"/>
		<path class="st0" d="M724.9,225.7v17.1h-15v-21.2C714.9,223,719.9,224.4,724.9,225.7z"/>
		<path class="st0" d="M755,233.3v9.6h-15v-13.2C744.9,230.8,749.9,232.1,755,233.3z"/>
		<path class="st0" d="M785,239.9v3h-15v-6.1C774.9,237.8,779.9,238.8,785,239.9z"/>
	</g>
</g>
</svg>
