<?xml version="1.0" encoding="utf-8"?>
<!-- Generator: Adobe Illustrator 23.0.2, SVG Export Plug-In . SVG Version: 6.00 Build 0)  -->
<svg version="1.1"
	 id="svg3358" xmlns:cc="http://creativecommons.org/ns#" xmlns:dc="http://purl.org/dc/elements/1.1/" xmlns:rdf="http://www.w3.org/1999/02/22-rdf-syntax-ns#" xmlns:svg="http://www.w3.org/2000/svg"
	 xmlns="http://www.w3.org/2000/svg" xmlns:xlink="http://www.w3.org/1999/xlink" x="0px" y="0px" viewBox="0 0 800 450"
	 style="enable-background:new 0 0 800 450;" xml:space="preserve">
<style type="text/css">
	.st0{fill:#818991;}
	.st1{fill:#58595B;}
	.st2{fill:url(#SVGID_1_);}
	.st3{fill:url(#SVGID_2_);}
	.st4{fill:url(#SVGID_3_);}
</style>
<g>
	<g>
		<g>
			<path class="st0" d="M128.8,332.4c-1.4,1-2.9,1.9-4.5,2.6c-1.6,0.7-3.3,1.3-5.2,1.7c-1.9,0.4-4,0.6-6.3,0.6
				c-3.6,0-6.9-0.6-10-1.9c-3-1.2-5.7-3-7.9-5.1c-2.2-2.2-4-4.7-5.2-7.7c-1.3-2.9-1.9-6.1-1.9-9.5c0-3.3,0.6-6.5,1.9-9.4
				c1.2-2.9,3-5.5,5.2-7.7c2.2-2.2,4.9-3.9,8-5.2c3.1-1.3,6.5-1.9,10.2-1.9c2.2,0,4.3,0.2,6.1,0.5c1.8,0.4,3.5,0.9,5.1,1.5
				s3,1.4,4.3,2.3c1.3,0.9,2.5,1.9,3.7,2.9l-5.5,6.1c-2-1.7-4-3.1-6.2-4.2c-2.2-1.1-4.7-1.6-7.5-1.6c-2.3,0-4.5,0.4-6.5,1.3
				c-2,0.9-3.7,2-5.2,3.5c-1.5,1.5-2.6,3.2-3.4,5.2c-0.8,2-1.2,4.2-1.2,6.5c0,2.3,0.4,4.5,1.2,6.5c0.8,2,1.9,3.8,3.4,5.3
				c1.4,1.5,3.2,2.7,5.2,3.6c2,0.9,4.2,1.3,6.5,1.3c3,0,5.6-0.5,7.7-1.6c2.2-1.1,4.3-2.6,6.4-4.4l5.5,5.3
				C131.5,330.2,130.1,331.4,128.8,332.4z"/>
			<path class="st0" d="M211.2,336.4l-12.1-16.3h-10.8v16.3h-8.6v-46.8h21.9c2.8,0,5.3,0.3,7.6,1c2.3,0.7,4.2,1.7,5.8,2.9
				c1.6,1.3,2.8,2.8,3.6,4.7c0.8,1.8,1.3,3.9,1.3,6.2c0,2-0.3,3.7-0.9,5.2c-0.6,1.5-1.4,2.9-2.4,4.1c-1,1.2-2.3,2.2-3.7,3
				c-1.4,0.8-3,1.5-4.7,1.9l13.3,17.7H211.2z M208.4,299.1c-1.8-1.3-4.3-2-7.5-2h-12.6v15.8h12.7c3.1,0,5.6-0.7,7.4-2.1
				c1.8-1.4,2.7-3.4,2.7-5.8C211.1,302.3,210.2,300.4,208.4,299.1z"/>
			<path class="st0" d="M304.7,297.1h-27.8v12h24.6v7.4h-24.6V329H305v7.4h-36.7v-46.8h36.4V297.1z"/>
			<path class="st0" d="M400.3,336.4h-9.1l-5-11.3h-23.2l-5.1,11.3H349l21.6-47.1h8L400.3,336.4z M374.5,299.1l-8.4,18.7H383
				L374.5,299.1z"/>
			<path class="st0" d="M461.1,336.4h-8.7v-39.2h-15.6v-7.6h39.9v7.6h-15.6V336.4z"/>
			<path class="st0" d="M532.7,289.7v46.8h-8.6v-46.8H532.7z"/>
			<path class="st0" d="M618.7,289.7h9.3l-20.4,47.1H600l-20.4-47.1h9.5l14.8,36L618.7,289.7z"/>
			<path class="st0" d="M710.7,297.1h-27.8v12h24.6v7.4h-24.6V329h28.1v7.4h-36.7v-46.8h36.4V297.1z"/>
		</g>
		<g>
			<path class="st0" d="M215.4,383.8c-0.7,1.6-1.7,2.9-3.1,4.1c-1.3,1.2-2.9,2.1-4.7,2.7c-1.8,0.7-3.8,1-6,1h-9.3v-25.8h9.3
				c2.2,0,4.2,0.3,6,1c1.8,0.7,3.4,1.6,4.7,2.7c1.3,1.2,2.3,2.5,3.1,4.1c0.7,1.6,1.1,3.2,1.1,5.1v0.1
				C216.5,380.6,216.1,382.3,215.4,383.8z M214.3,378.8c0-1.5-0.3-3-0.9-4.3c-0.6-1.4-1.5-2.5-2.5-3.6c-1.1-1-2.4-1.8-4-2.4
				c-1.6-0.6-3.3-0.9-5.3-0.9h-7.3v22.3h7.3c2,0,3.7-0.3,5.3-0.9c1.6-0.6,2.9-1.4,4-2.4c1.1-1,1.9-2.2,2.5-3.5
				C214,381.8,214.3,380.4,214.3,378.8L214.3,378.8z"/>
			<path class="st0" d="M276.6,391.7v-25.8h20v1.7h-17.9v10.2h16.1v1.7h-16.1v10.4h18.1v1.7H276.6z"/>
			<path class="st0" d="M374.5,387.8c-0.5,0.9-1.1,1.6-1.9,2.2c-0.8,0.6-1.8,1.1-2.9,1.4c-1.1,0.3-2.4,0.5-3.8,0.5
				c-2.2,0-4.3-0.3-6.1-1c-1.8-0.7-3.5-1.7-5.2-3.1l1.4-1.4c0.8,0.7,1.5,1.2,2.3,1.7c0.8,0.5,1.5,0.9,2.3,1.2
				c0.8,0.3,1.6,0.5,2.5,0.7c0.9,0.2,1.8,0.2,2.9,0.2c1,0,2-0.1,2.9-0.4c0.9-0.3,1.6-0.6,2.2-1.1c0.6-0.5,1.1-1,1.4-1.6
				c0.3-0.6,0.5-1.3,0.5-2v-0.1c0-0.7-0.1-1.3-0.3-1.8c-0.2-0.5-0.6-1-1.2-1.5c-0.6-0.4-1.4-0.8-2.4-1.2c-1-0.4-2.3-0.7-3.9-1
				c-1.7-0.3-3.1-0.7-4.3-1.1c-1.2-0.4-2.2-0.9-3-1.5c-0.8-0.6-1.3-1.2-1.7-2c-0.3-0.8-0.5-1.6-0.5-2.6v-0.1c0-1,0.2-1.8,0.7-2.7
				c0.5-0.8,1.1-1.5,1.9-2.2c0.8-0.6,1.8-1.1,2.8-1.4c1.1-0.3,2.3-0.5,3.6-0.5c2,0,3.8,0.3,5.3,0.8c1.5,0.5,2.9,1.3,4.4,2.4
				l-1.3,1.5c-1.3-1.1-2.7-1.8-4-2.2c-1.4-0.4-2.8-0.7-4.4-0.7c-1,0-2,0.1-2.8,0.4c-0.8,0.3-1.6,0.6-2.2,1c-0.6,0.4-1.1,1-1.4,1.5
				c-0.3,0.6-0.5,1.2-0.5,1.9v0.1c0,0.7,0.1,1.3,0.3,1.9c0.2,0.6,0.6,1.1,1.2,1.5c0.6,0.5,1.4,0.9,2.5,1.2c1.1,0.4,2.4,0.7,4.1,1
				c3.3,0.6,5.6,1.5,7.1,2.6c1.4,1.1,2.2,2.6,2.2,4.5v0.1C375.2,386,374.9,387,374.5,387.8z"/>
			<path class="st0" d="M435.3,391.7v-25.8h2.1v25.8H435.3z"/>
			<path class="st0" d="M518.1,390.9c-1.9,0.8-4,1.2-6.3,1.2c-2.2,0-4.2-0.4-6-1.1c-1.8-0.7-3.2-1.7-4.4-2.9
				c-1.2-1.2-2.1-2.6-2.8-4.2c-0.6-1.6-1-3.3-1-5.1v-0.1c0-1.7,0.3-3.4,1-5c0.7-1.6,1.6-3,2.8-4.3c1.2-1.2,2.7-2.2,4.4-2.9
				c1.7-0.7,3.6-1.1,5.7-1.1c1.1,0,2.2,0.1,3.1,0.2c0.9,0.1,1.8,0.4,2.6,0.7c0.8,0.3,1.6,0.6,2.3,1.1c0.7,0.4,1.4,0.9,2.1,1.4
				l-1.4,1.4c-1.1-0.9-2.3-1.6-3.8-2.2c-1.4-0.6-3.2-0.9-5.3-0.9c-1.7,0-3.3,0.3-4.7,0.9c-1.4,0.6-2.6,1.4-3.7,2.5
				c-1,1.1-1.8,2.3-2.4,3.7c-0.6,1.4-0.8,2.9-0.8,4.4v0.1c0,1.7,0.3,3.2,0.8,4.6c0.5,1.4,1.3,2.6,2.4,3.7c1,1,2.3,1.8,3.8,2.4
				c1.5,0.6,3.2,0.9,5,0.9c0.9,0,1.8-0.1,2.6-0.2c0.9-0.2,1.7-0.4,2.4-0.6c0.8-0.3,1.5-0.6,2.1-0.9c0.7-0.4,1.3-0.7,1.8-1.1V380
				h-9.4v-1.7h11.4v9.9C521.5,389.3,520,390.2,518.1,390.9z"/>
			<path class="st0" d="M605.1,391.7l-19.8-22.9v22.9h-2v-25.8h2l19.4,22.4v-22.4h2v25.8H605.1z"/>
		</g>
	</g>
	<g>
		<polygon class="st1" points="349.4,83.1 390.9,59.5 390.9,236.9 349.4,213.2 		"/>
		<polygon class="st1" points="449.5,83.5 449.5,212.4 408,236.1 408,59.9 		"/>
		<path class="st1" d="M335.5,93.7v120.5h-13.8V103.1C327.1,99.6,331.7,96.4,335.5,93.7z"/>
		<path class="st1" d="M307.9,111.9v102.3h-13.8v-94C299,117.3,303.6,114.6,307.9,111.9z"/>
		<path class="st1" d="M280.2,128v86.3h-13.8v-78.9C271.2,132.8,275.8,130.3,280.2,128z"/>
		<path class="st1" d="M252.6,142.2v72h-13.8v-65.4C243.5,146.6,248.1,144.4,252.6,142.2z"/>
		<path class="st1" d="M224.9,155.1v59.1h-13.8V161C215.8,159,220.4,157.1,224.9,155.1z"/>
		<path class="st1" d="M197.2,166.6v47.6h-13.8V172C188.1,170.2,192.7,168.4,197.2,166.6z"/>
		<path class="st1" d="M169.6,177v37.2h-13.8v-32.4C160.5,180.2,165.1,178.6,169.6,177z"/>
		<path class="st1" d="M141.9,186.3v27.9h-13.8v-23.6C132.8,189.2,137.4,187.8,141.9,186.3z"/>
		<path class="st1" d="M114.3,194.7v19.5h-13.8v-15.7C105.1,197.2,109.7,196,114.3,194.7z"/>
		<path class="st1" d="M86.6,202.1v12.2H72.8v-8.8C77.4,204.3,82.1,203.2,86.6,202.1z"/>
		<linearGradient id="SVGID_1_" gradientUnits="userSpaceOnUse" x1="57.9332" y1="513.0692" x2="45.2024" y2="-138.3476">
			<stop  offset="0" style="stop-color:#000000"/>
			<stop  offset="1" style="stop-color:#FFEAA7"/>
		</linearGradient>
		<path class="st2" d="M58.9,208.6v5.7H45.1v-2.7C49.8,210.5,54.4,209.6,58.9,208.6z"/>
		<path class="st1" d="M477.2,103.5v111.1h-13.8V94.1C467.2,96.8,471.8,100,477.2,103.5z"/>
		<path class="st1" d="M504.8,120.6v94H491V112.3C495.3,115,499.9,117.7,504.8,120.6z"/>
		<path class="st1" d="M532.5,135.7v78.9h-13.8v-86.2C523.1,130.7,527.7,133.2,532.5,135.7z"/>
		<path class="st1" d="M560.2,149.2v65.4h-13.8v-72C550.8,144.8,555.4,147,560.2,149.2z"/>
		<path class="st1" d="M587.8,161.4v53.2H574v-59.1C578.5,157.4,583.1,159.4,587.8,161.4z"/>
		<path class="st1" d="M615.5,172.4v42.2h-13.8V167C606.2,168.8,610.8,170.6,615.5,172.4z"/>
		<path class="st1" d="M643.1,182.2v32.4h-13.8v-37.2C633.8,179,638.4,180.6,643.1,182.2z"/>
		<path class="st1" d="M670.8,191v23.6H657v-27.9C661.5,188.2,666.1,189.6,670.8,191z"/>
		<path class="st1" d="M698.4,198.8v15.7h-13.8V195C689.2,196.3,693.8,197.6,698.4,198.8z"/>
		<linearGradient id="SVGID_2_" gradientUnits="userSpaceOnUse" x1="724.8591" y1="500.0241" x2="712.1288" y2="-151.3685">
			<stop  offset="0" style="stop-color:#000000"/>
			<stop  offset="1" style="stop-color:#FFEAA7"/>
		</linearGradient>
		<path class="st3" d="M726.1,205.8v8.8h-13.8v-12.2C716.8,203.6,721.4,204.7,726.1,205.8z"/>
		<linearGradient id="SVGID_3_" gradientUnits="userSpaceOnUse" x1="752.4484" y1="499.4948" x2="739.7177" y2="-151.921">
			<stop  offset="0" style="stop-color:#000000"/>
			<stop  offset="1" style="stop-color:#FFEAA7"/>
		</linearGradient>
		<path class="st4" d="M753.8,211.9v2.7h-13.8v-5.7C744.5,209.9,749.1,210.9,753.8,211.9z"/>
	</g>
</g>
</svg>
