<?xml version="1.0" encoding="utf-8"?>
<!-- Generator: Adobe Illustrator 23.0.2, SVG Export Plug-In . SVG Version: 6.00 Build 0)  -->
<svg version="1.1" id="Layer_1" xmlns:rdf="http://www.w3.org/1999/02/22-rdf-syntax-ns#" xmlns:svg="http://www.w3.org/2000/svg"
	 xmlns="http://www.w3.org/2000/svg" xmlns:xlink="http://www.w3.org/1999/xlink" x="0px" y="0px" viewBox="0 0 300 120.3"
	 style="enable-background:new 0 0 300 120.3;" xml:space="preserve">
<style type="text/css">
	.st0{fill:#0B0B0B;}
	.st1{fill:#6D6E70;}
</style>
<g id="XMLID_1528_">
	<g id="XMLID_1587_">
		<g id="XMLID_1592_">
			<path id="XMLID_1607_" class="st0" d="M41.5,36l-2.3,8c2.9,0.5,6,1.6,9,3.5l2.3-8.1C47.5,37.6,44.5,36.5,41.5,36l2.3-7.9
				c-3.5-0.6-7-0.4-10.1,0.5l-2.2,7.9C34.5,35.7,38,35.4,41.5,36z"/>
			<path id="XMLID_1606_" class="st0" d="M39.2,44.1c-3.5-0.6-7-0.4-10.1,0.5l-2.3,8.1c3.1-0.9,6.5-1.1,10.1-0.5l-2.3,8
				c2.9,0.5,6,1.6,9,3.5l2.3-8.1c-3-1.8-6-2.9-9-3.4L39.2,44.1z"/>
			<path id="XMLID_1605_" class="st0" d="M53.9,62.4l2.3-8.1c-2.6-2.9-5.3-5.2-8-6.8l-2.3,8.1C48.6,57.2,51.3,59.5,53.9,62.4z"/>
			<path id="XMLID_1604_" class="st0" d="M58.5,46.2l2.2-7.9c-2.6-2.9-5.3-5.2-8-6.8l-2.2,7.9C53.2,41.1,55.9,43.3,58.5,46.2z"/>
			<path id="XMLID_1603_" class="st0" d="M54.4,63c-0.1-0.2-0.3-0.3-0.4-0.5l-2.3,8.1c0.1,0.2,0.3,0.3,0.4,0.5
				c2.6,3,5.1,5.1,7.5,6.7l2.3-8.1C59.5,68.1,57,66,54.4,63z"/>
			<path id="XMLID_1602_" class="st0" d="M15.3,60.4L13,68.5c2.9-3.5,6.9-6.3,11.6-7.6l2.3-8.1C22.2,54.1,18.1,56.8,15.3,60.4z"/>
			<path id="XMLID_1601_" class="st0" d="M19.8,44.2l-2.3,8.1c2.9-3.5,6.9-6.3,11.6-7.6l2.3-8.1C26.7,37.9,22.7,40.7,19.8,44.2z"/>
			<path id="XMLID_1600_" class="st0" d="M58.9,46.8c-0.1-0.2-0.3-0.3-0.4-0.5l-2.3,8.1c0.1,0.2,0.3,0.3,0.4,0.5
				c2.6,3,5.1,5.1,7.5,6.7l2.3-8.1C64,51.9,61.5,49.8,58.9,46.8z"/>
			<path id="XMLID_1599_" class="st0" d="M24.4,28.1l-2.3,8.1c2.9-3.5,6.9-6.3,11.6-7.6l2.3-8.1C31.3,21.8,27.2,24.6,24.4,28.1z"/>
			<path id="XMLID_1598_" class="st0" d="M46,19.9L43.7,28c2.9,0.5,6,1.6,9,3.5l2.3-8.1C52,21.5,49,20.4,46,19.9z"/>
			<path id="XMLID_1597_" class="st0" d="M68.7,45.4l2.3-8.1c-2.4-1.5-4.9-3.7-7.5-6.7c-0.1-0.2-0.3-0.3-0.4-0.5l-2.3,8.1
				c0.1,0.2,0.3,0.3,0.4,0.5C63.8,41.8,66.3,43.9,68.7,45.4z"/>
			<path id="XMLID_1596_" class="st0" d="M74.4,60.7l-2.3,8.1c2.6,2.9,5.3,5.2,8,6.8l2.3-8.1C79.7,65.9,77,63.6,74.4,60.7z"/>
			<path id="XMLID_1595_" class="st0" d="M69.8,76.9l-2.2,7.9c2.6,2.9,5.3,5.2,8,6.8l2.2-7.9C75.1,82.1,72.4,79.8,69.8,76.9z"/>
			<path id="XMLID_1594_" class="st0" d="M66.5,53.5c2.4,1.5,4.9,3.7,7.5,6.7c0.1,0.2,0.3,0.3,0.4,0.5l2.3-8.1
				c-0.1-0.2-0.3-0.3-0.4-0.5c-2.6-3-5.1-5.1-7.5-6.7L66.5,53.5z"/>
			<path id="XMLID_1593_" class="st0" d="M69.8,76.8l2.3-8.1c-0.1-0.2-0.3-0.3-0.4-0.5c-2.6-3-5.1-5.1-7.5-6.7l-2.3,8.1
				c2.4,1.5,4.9,3.7,7.5,6.7C69.6,76.5,69.7,76.7,69.8,76.8z"/>
		</g>
		<g id="XMLID_1588_">
			<path id="XMLID_1591_" class="st0" d="M87.6,51.5c-2.7-1.7-5.4-3.9-8-6.8l-2.3,8.1c2.6,2.9,5.3,5.2,8,6.8L87.6,51.5z"/>
			<g id="XMLID_1589_">
				<path id="XMLID_1590_" class="st1" d="M118.7,45.6H82.4l11.9,3.7h24.4h167.6c0.1-1.2,0.1-2.5,0.1-3.7l0,0H118.7z"/>
			</g>
		</g>
	</g>
	<g id="XMLID_1529_">
		<g id="XMLID_1574_">
			<path id="XMLID_1583_" class="st1" d="M170.7,78.7l5.7-19.8l4.2-3.3h10l-1.9,6.6h-6.7l-1,3.3h6.7L186,72h-6.7l-1,3.3h6.6
				l-1.9,6.6h-10L170.7,78.7z M186.4,81.9l1.9-6.6h13.3l-1.9,6.6H186.4z M193.9,55.6h10l2.4,3.3l-3.8,13.2h-13.4l1.9-6.6h6.7l0,0
				l0.9-3.3H192L193.9,55.6z"/>
			<path id="XMLID_1579_" class="st1" d="M205.2,78.7l5.7-19.8l4.2-3.3h10l-1.9,6.6h-6.7l-1,3.3h6.7l-1.8,6.5h-6.7l-1,3.3h6.6
				l-1.9,6.6h-10L205.2,78.7z M220.8,81.9l1.9-6.6h13.3l-1.9,6.6H220.8z M228.3,55.6h10l2.4,3.3l-3.8,13.2h-13.4l1.9-6.6h6.7l0,0
				l0.9-3.3h-6.7L228.3,55.6z"/>
			<path id="XMLID_1575_" class="st1" d="M238.6,81.9l1.9-6.6h13.3l-1.9,6.6H238.6z M241.4,72.1l4.7-16.5h13.3l-1.9,6.6h-6.6
				l-2.9,9.9H241.4z M265.2,81.9h-10l1.9-6.6h6.7l3.8-13.2h-6.7l1.9-6.6h10l2.4,3.3l-5.7,19.8L265.2,81.9z"/>
		</g>
		<g id="XMLID_1536_">
			<path id="XMLID_1570_" d="M116.7,100.7h-4.8l0.7-2.4h4.8L116.7,100.7z M114.6,91h3.6l-0.7,2.4h-1.2l0,0l-0.3,1.2h2.5l-0.7,2.4
				h-3.7l-0.8-1.2L114.6,91z M125.5,91l-2.4,8.4l-2.8,1.2h-2.4l0.7-2.4h2.4l0.3-1.2h-2.4l0.7-2.4h2.4l1-3.6H125.5z"/>
			<path id="XMLID_1567_" d="M126.8,92.2l1.5-1.2h3.6l-0.7,2.4h-2.4l-1.4,4.8h2.4l-0.7,2.4h-3.6l-0.9-1.2L126.8,92.2z M135,93.5
				h-2.4l0.7-2.4h3.6l0.9,1.2l-2.1,7.2l-1.5,1.2h-3.6l0.7-2.4h2.4L135,93.5z"/>
			<path id="XMLID_1564_" d="M137.3,99.5l2.4-8.4h3.6l-0.7,2.4h-1.2l-1.4,4.8h2.4l-0.7,2.4h-3.6L137.3,99.5z M147.5,93.5h-1.2
				l0.7-2.4h3.6l-2.4,8.4l-1.5,1.2H143l0.7-2.4h2.4L147.5,93.5z"/>
			<path id="XMLID_1561_" d="M153.9,98.3l-0.7,2.4h-3.6h0l2.8-9.6h4.8l-0.7,2.4H154l-1.4,4.8H153.9z M154.9,94.7h4.9l0.3-1.2h-2.4
				l0.7-2.4h3.6l0.9,1.2l-1,3.6l-1.6,1.2h-1.5l1.7,3.6h-2.9L154.9,94.7z"/>
			<path id="XMLID_1558_" d="M171.4,93.5l-0.7,2.4h-2.4l1.4-4.8h6l-2.8,9.6h-2.4l2.1-7.2H171.4z M176.2,93.5l0.7-2.4h3.6l-1.4,4.8
				h-2.4l0.7-2.4H176.2z"/>
			<path id="XMLID_1555_" d="M183.1,100.7h-3.6l0.7-2.4l5.7-7.2h1.2l-0.7,2.4l-1,1.2h0.6l-0.7,2.4h-1.8l-1,1.2h1.2L183.1,100.7z
				 M187.4,98.3h1.2l-0.3-1.2h-1.8l0.7-2.4h0.6l-0.3-1.2l0.7-2.4h1.2l1.6,7.2l-0.7,2.4h-3.6L187.4,98.3z"/>
			<path id="XMLID_1551_" d="M196,91h3.6l-0.7,2.4h-2.4l-1.4,4.8h2.4l-0.7,2.4h-3.6l-0.9-1.2l2.1-7.2L196,91z M204.6,94.6l-1.7,6
				H198l0.7-2.4h2.4l1-3.6H204.6z M205.7,91l-0.7,2.4h-4.8l0.7-2.4H205.7z"/>
			<path id="XMLID_1548_" d="M204.9,99.5l2.4-8.4h2.4l-2.1,7.2h2.4l-0.7,2.4h-3.6L204.9,99.5z M211.3,98.3h2.4l0.4-1.2h2.4l-0.7,2.4
				l-1.5,1.2h-3.6L211.3,98.3z"/>
			<path id="XMLID_1544_" d="M221.4,98.3l1.4-4.8h-3.6l0.7-2.4h6l-2.8,9.6h-6l0.7-2.4H221.4z M228.7,98.3l-0.7,2.4h-3.7l0.7-2.4
				H228.7z M226.4,93.5l0.7-2.4h3.7l-0.7,2.4H226.4z"/>
			<path id="XMLID_1541_" d="M236.5,93.5l-1,3.6l-1.4-3.6l-1.4,4.8h1.2l-0.7,2.4h-3.6l2.7-9.6h3.6L236.5,93.5z M236.4,98.3l1-3.6
				l1.4,3.6l1.4-4.8H239l0.7-2.4h3.6l-2.7,9.6h-3.6L236.4,98.3z"/>
			<path id="XMLID_1537_" d="M242.6,99.5l2.1-7.2l1.5-1.2h3.6l-0.7,2.4h-2.4l-0.4,1.2h2.5l-0.7,2.4h-2.4l-0.4,1.2h2.4l-0.7,2.4h-3.6
				L242.6,99.5z M248.3,100.7l0.7-2.4h4.8l-0.7,2.4H248.3z M251,91.1h3.6l0.9,1.2l-1.4,4.8h-4.9l0.7-2.4h2.5l0,0l0.3-1.2h-2.4
				L251,91.1z"/>
		</g>
		<polygon id="XMLID_1535_" class="st0" points="112.8,75.4 116.1,75.4 114.2,81.9 100.9,81.9 102.8,75.4 		"/>
		<polygon id="XMLID_1534_" class="st0" points="107.5,58.8 111.8,55.6 121.8,55.6 119.8,62.2 113.2,62.2 112.2,65.5 118.9,65.5 
			117,72 107.1,72 104.7,68.7 		"/>
		<polygon id="XMLID_1533_" class="st0" points="127,72 120.3,72 122.2,65.5 132.2,65.5 134.6,68.7 131.7,78.6 127.5,81.9 
			117.5,81.9 119.4,75.4 126,75.4 		"/>
		<polygon id="XMLID_1532_" class="st0" points="131.7,55.6 138.3,55.6 136.4,62.2 123.1,62.2 125.1,55.6 		"/>
		<polygon id="XMLID_1531_" class="st0" points="135.3,81.9 135.4,81.9 142.9,55.6 156.2,55.6 154.3,62.2 147.6,62.2 143.8,75.4 
			147.2,75.4 145.3,81.9 		"/>
		<polygon id="XMLID_1530_" class="st0" points="163.4,65.5 164.3,62.2 157.6,62.2 159.5,55.6 169.5,55.6 171.9,58.8 169,68.7 
			164.7,72.1 148.1,72.1 150,65.5 		"/>
	</g>
</g>
</svg>
