<?xml version="1.0" encoding="utf-8"?>
<!-- Generator: Adobe Illustrator 23.0.2, SVG Export Plug-In . SVG Version: 6.00 Build 0)  -->
<svg version="1.1" id="Layer_1" xmlns:rdf="http://www.w3.org/1999/02/22-rdf-syntax-ns#" xmlns:svg="http://www.w3.org/2000/svg"
	 xmlns="http://www.w3.org/2000/svg" xmlns:xlink="http://www.w3.org/1999/xlink" x="0px" y="0px" viewBox="0 0 300 120.3"
	 style="enable-background:new 0 0 300 120.3;" xml:space="preserve">
<style type="text/css">
	.st0{fill:#A6A8AB;}
</style>
<g>
	<path class="st0" d="M6,95.9c8.6,0,16.8,0.1,25,0c10.6-0.1,19.1-4.2,26.4-12.2c11.9-13.1,10.2-40.7-7.3-51.3
		C36,23.7,20.8,27.7,6,26.6C6,50,6,72.7,6,95.9z M196,68.4c1-0.5,1.7-0.8,2.4-1.2c3.9-2.2,9.2-3.5,11.4-6.9
		c8.1-11.9,5.6-29.1-11.9-32.3c-12-2.2-24.7-0.4-37.3-0.4c0,22.4,0,45.2,0,68.1c18.4,0,36.4,0,55.2,0C209,86.3,202.5,77.5,196,68.4z
		 M265.9,61.3c9.4-11.5,18.5-22.7,28-34.4c-19.1,0-37.6,0-55.8,0c0,23.2,0,46,0,68.6c19.1,0,37.7,0,56.5,0
		C284.9,84,275.5,72.8,265.9,61.3z M107.8,26C96.3,49.6,85.2,72.5,73.9,95.5c22.8,0,45.1,0,67.8,0C130.3,72.3,119.2,49.5,107.8,26z"
		/>
	<path class="st0" d="M6,95.9C6,72.7,6,50,6,26.6c14.8,1.1,29.9-2.8,44.1,5.8c17.5,10.6,19.1,38.2,7.3,51.3
		c-7.3,8.1-15.7,12.2-26.4,12.2C22.9,96,14.6,95.9,6,95.9z"/>
	<path class="st0" d="M196,68.4c6.6,9.1,13,17.9,19.8,27.3c-18.8,0-36.8,0-55.2,0c0-22.9,0-45.7,0-68.1c12.5,0,25.3-1.8,37.3,0.4
		c17.5,3.3,19.9,20.4,11.9,32.3c-2.3,3.3-7.5,4.6-11.4,6.9C197.6,67.6,196.9,67.9,196,68.4z"/>
	<path class="st0" d="M265.9,61.3c9.7,11.5,19.1,22.7,28.7,34.3c-18.8,0-37.5,0-56.5,0c0-22.6,0-45.4,0-68.6c18.3,0,36.8,0,55.8,0
		C284.4,38.6,275.2,49.8,265.9,61.3z"/>
	<path class="st0" d="M107.8,26c11.4,23.4,22.5,46.2,33.9,69.5c-22.7,0-44.9,0-67.8,0C85.2,72.5,96.3,49.6,107.8,26z"/>
</g>
</svg>
