<?xml version="1.0" encoding="utf-8"?>
<!-- Generator: Adobe Illustrator 23.0.2, SVG Export Plug-In . SVG Version: 6.00 Build 0)  -->
<svg version="1.1" id="Layer_1" xmlns="http://www.w3.org/2000/svg" xmlns:xlink="http://www.w3.org/1999/xlink" x="0px" y="0px"
	 viewBox="0 0 1000 400" style="enable-background:new 0 0 1000 400;" xml:space="preserve">
<style type="text/css">
	.st0{fill:#A6A8AB;}
</style>
<g>
	<g>
		<path class="st0" d="M881,276.3l-102.4-84.2l-65.2,49.3L611,80.1L484.1,240.3c0,0-12.5-25.8-23.7-48.8
			c-8.9-18.4-16.9-34.9-16.9-35.2l-27.1,21.2l-116.8,91.6l-56.4-42.4L123,276.3l118-73.9c0,0,52.4,31,53.6,31l103.7-71.6l42.9-29.7
			l33.4,52.4l75.4-72.2l61.6-58.9l119.2,154.9l50.4-38.5L881,276.3z"/>
		<path class="st0" d="M881,276.3l-102.4-84.2l-65.2,49.3L611,80.1L484.1,240.3c0,0-12.5-25.8-23.7-48.8
			c-8.9-18.4-16.9-34.9-16.9-35.2l-27.1,21.2l-116.8,91.6l-56.4-42.4L123,276.3l118-73.9c0,0,52.4,31,53.6,31l103.7-71.6l42.9-29.7
			l33.4,52.4l75.4-72.2l61.6-58.9l119.2,154.9l50.4-38.5L881,276.3z"/>
		<path class="st0" d="M550,112.3c-3.7,44.4-40.9,79.3-86.3,79.3c-1.1,0-2.2,0-3.3-0.1c-8.9-18.4-16.9-34.9-16.9-35.2l-27.1,21.2
			c-6.8-4.4-12.9-9.8-18.2-15.9l42.9-29.7l33.4,52.4L550,112.3z"/>
		<path class="st0" d="M444.2,117.5L392,153.5c-9.4-13.8-14.9-30.6-14.9-48.5c0-47.8,38.8-86.6,86.6-86.6
			c45.5,0,82.8,35.1,86.3,79.7l-73.5,70.3L444.2,117.5z"/>
	</g>
	<g>
		<path class="st0" d="M229.2,286.2h14.3v10.1h-11.1v69.4h11.1v10.1h-31v-10.1h9.2v-50c0.1-0.7,0.1-1.4,0.2-2c0-0.7,0.1-1.4,0.2-2
			c-0.7,0.9-1.4,1.9-2.1,2.9c-0.7,1-1.4,2-2.1,2.9c-5.1,7.3-10.5,14.4-16.1,21.3c-5.6,7-11.1,14-16.5,21L151.2,315l-2.3-3.5
			c0.1,0.7,0.1,1.4,0.2,2c0,0.7,0.1,1.4,0.2,2v50h9.2v10.1h-31v-10.1h11.1v-69.4h-11.1v-10.1h14.3c7.3,9.5,14.6,18.9,21.8,28.3
			c7.2,9.4,14.5,18.9,21.8,28.3c7.3-9.5,14.6-18.9,21.8-28.3C214.5,305.1,221.8,295.7,229.2,286.2z"/>
		<path class="st0" d="M252.3,331.1c0-6.2,1.2-12.1,3.6-17.7c2.4-5.6,5.7-10.5,9.8-14.7c4.1-4.2,9-7.5,14.5-9.9
			c5.5-2.4,11.5-3.6,17.8-3.6c6.2,0,12.1,1.2,17.7,3.6c5.6,2.4,10.5,5.7,14.7,9.9c4.2,4.2,7.5,9.1,9.9,14.7
			c2.4,5.6,3.6,11.5,3.6,17.7c0,6.3-1.2,12.2-3.6,17.8c-2.4,5.5-5.7,10.4-9.9,14.5c-4.2,4.1-9.1,7.4-14.7,9.8
			c-5.6,2.4-11.5,3.6-17.7,3.6c-6.3,0-12.2-1.2-17.8-3.6c-5.5-2.4-10.4-5.6-14.5-9.8c-4.1-4.1-7.4-9-9.8-14.5
			C253.5,343.4,252.3,337.4,252.3,331.1z M262.9,331.1c0,4.9,0.9,9.5,2.8,13.8c1.8,4.3,4.4,8,7.5,11.2c3.2,3.2,6.9,5.7,11.2,7.6
			c4.3,1.9,8.8,2.8,13.7,2.8s9.4-0.9,13.7-2.8c4.3-1.9,8-4.4,11.2-7.6c3.2-3.2,5.7-6.9,7.5-11.2c1.8-4.3,2.8-8.9,2.8-13.8
			c0-4.9-0.9-9.5-2.8-13.8c-1.8-4.3-4.4-8-7.5-11.3c-3.2-3.2-6.9-5.8-11.2-7.6c-4.3-1.9-8.8-2.8-13.7-2.8s-9.4,0.9-13.7,2.8
			c-4.3,1.9-8,4.4-11.2,7.6c-3.2,3.2-5.7,7-7.5,11.3C263.9,321.5,262.9,326.1,262.9,331.1z"/>
		<path class="st0" d="M352.9,286.2h31v10.1h-10.5v50.2c0,3.2,0.5,6.1,1.6,8.6c1.1,2.5,2.6,4.6,4.5,6.3c1.9,1.7,4.2,3,6.8,3.9
			c2.6,0.9,5.5,1.3,8.7,1.3c3.2,0,6.1-0.4,8.7-1.3c2.6-0.9,4.9-2.2,6.8-3.9c1.9-1.7,3.4-3.8,4.5-6.3c1.1-2.5,1.7-5.4,1.7-8.6v-50.2
			h-10.5v-10.1h31v10.1h-9.9v50.5c0,4.9-0.8,9.2-2.5,12.9c-1.7,3.8-3.9,6.9-6.8,9.4c-2.9,2.5-6.3,4.4-10.2,5.7
			c-3.9,1.3-8.2,1.9-12.8,1.9c-4.6,0-8.9-0.6-12.8-1.9c-3.9-1.3-7.3-3.2-10.2-5.7c-2.9-2.5-5.2-5.7-6.8-9.4
			c-1.6-3.8-2.4-8.1-2.4-12.9v-50.5h-9.9V286.2z"/>
		<path class="st0" d="M446.2,365.7h11.1v-69.4h-11.1v-10.1H461l61.8,66.9l2.4,3.3l-0.4-4.1v-56h-9.2v-10.1h31v10.1h-11.1v83.6
			L470,310.3l-2.4-3.3l0.4,4.1v54.6h9.2v10.1h-31V365.7z"/>
		<path class="st0" d="M574.8,365.7h11v-69.4h-20.1v9.6h-10.1v-19.7h70.8v19.7h-10.1v-9.6h-19.8v69.4h9.3v10.1h-31V365.7z"/>
		<path class="st0" d="M635.4,365.7h10.4c5.9-14.1,11.8-28,17.7-41.8c5.9-13.8,11.8-27.7,17.7-41.8c5.9,14.1,11.8,28,17.7,41.8
			c5.9,13.8,11.8,27.7,17.7,41.8h10.6v10.1H699v-10.1h7.1c-1.8-4.3-3.6-8.5-5.3-12.7c-1.8-4.2-3.5-8.4-5.3-12.7h-28.2l-10.7,25.3
			h7.4v10.1h-28.4V365.7z M682.4,309.9l-1.3-4.2c-0.1,0.2-0.2,0.5-0.3,0.9c-0.1,0.4-0.2,0.9-0.4,1.4c-0.2,0.6-0.4,1.2-0.6,1.9
			c-1.1,2.5-2.1,4.9-3.1,7.3c-0.9,2-1.7,4.3-2.7,6.7c-0.9,2.4-1.8,4.5-2.6,6.4h19.5L682.4,309.9z"/>
		<path class="st0" d="M736.1,365.7h10.1v-69.4h-10.1v-10.1h31v10.1h-10.2v69.4h10.2v10.1h-31V365.7z"/>
		<path class="st0" d="M776,365.7h11.1v-69.4H776v-10.1h14.8l61.8,66.9l2.4,3.3l-0.4-4.1v-56h-9.2v-10.1h31v10.1h-11.1v83.6
			l-65.5-69.6l-2.4-3.3l0.4,4.1v54.6h9.2v10.1h-31V365.7z"/>
	</g>
</g>
</svg>
