<?xml version="1.0" encoding="utf-8"?>
<!-- Generator: Adobe Illustrator 23.0.2, SVG Export Plug-In . SVG Version: 6.00 Build 0)  -->
<svg version="1.1" id="Layer_1" xmlns="http://www.w3.org/2000/svg" xmlns:xlink="http://www.w3.org/1999/xlink" x="0px" y="0px"
	 viewBox="0 0 1000 400" style="enable-background:new 0 0 1000 400;" xml:space="preserve">
<style type="text/css">
	.st0{fill:#4D4D4D;}
</style>
<g>
	<g>
		<path class="st0" d="M811.3,227l-84.3-69.3l-53.7,40.6L588.8,65.4l-104.5,132c0,0-10.3-21.3-19.5-40.2
			c-7.3-15.1-13.9-28.8-13.9-29l-22.3,17.5l-96.2,75.5l-46.5-34.9L186.8,227l97.2-60.9c0,0,43.2,25.5,44.2,25.5l85.4-59l35.4-24.4
			l27.5,43.2l62.2-59.5l50.8-48.6L687.5,171l41.6-31.7L811.3,227z"/>
		<path class="st0" d="M811.3,227l-84.3-69.3l-53.7,40.6L588.8,65.4l-104.5,132c0,0-10.3-21.3-19.5-40.2
			c-7.3-15.1-13.9-28.8-13.9-29l-22.3,17.5l-96.2,75.5l-46.5-34.9L186.8,227l97.2-60.9c0,0,43.2,25.5,44.2,25.5l85.4-59l35.4-24.4
			l27.5,43.2l62.2-59.5l50.8-48.6L687.5,171l41.6-31.7L811.3,227z"/>
		<path class="st0" d="M538.6,91.9c-3.1,36.6-33.7,65.3-71.1,65.3c-0.9,0-1.8,0-2.7-0.1c-7.3-15.1-13.9-28.8-13.9-29l-22.3,17.5
			c-5.6-3.6-10.7-8.1-15-13.1l35.4-24.4l27.5,43.2L538.6,91.9z"/>
		<path class="st0" d="M451.4,96.2l-43,29.7c-7.7-11.4-12.2-25.2-12.2-40c0-39.4,31.9-71.4,71.4-71.4c37.5,0,68.2,28.9,71.1,65.6
			L478,138.1L451.4,96.2z"/>
	</g>
	<g>
		<path class="st0" d="M274.2,235.2H286v8.3h-9.2v57.1h9.2v8.3h-25.5v-8.3h7.6v-41.2c0.1-0.6,0.1-1.1,0.2-1.7c0-0.6,0.1-1.1,0.2-1.7
			c-0.6,0.8-1.1,1.6-1.7,2.4c-0.6,0.8-1.1,1.7-1.7,2.4c-4.2,6-8.6,11.8-13.3,17.6c-4.6,5.7-9.1,11.5-13.6,17.3L210,258.9l-1.9-2.8
			c0.1,0.6,0.1,1.1,0.2,1.7c0,0.6,0.1,1.1,0.2,1.7v41.2h7.6v8.3h-25.5v-8.3h9.2v-57.1h-9.2v-8.3h11.8c6,7.8,12,15.6,17.9,23.3
			c5.9,7.8,11.9,15.5,17.9,23.3c6.1-7.8,12.1-15.6,18-23.3C262.2,250.8,268.2,243,274.2,235.2z"/>
		<path class="st0" d="M293.3,272.2c0-5.1,1-10,3-14.6c2-4.6,4.7-8.6,8.1-12.1c3.4-3.4,7.4-6.2,12-8.2c4.6-2,9.5-3,14.7-3
			c5.1,0,10,1,14.6,3c4.6,2,8.6,4.7,12.1,8.2c3.4,3.4,6.2,7.5,8.2,12.1c2,4.6,3,9.5,3,14.6c0,5.2-1,10.1-3,14.7
			c-2,4.6-4.7,8.6-8.2,12c-3.4,3.4-7.5,6.1-12.1,8.1c-4.6,2-9.5,3-14.6,3c-5.2,0-10.1-1-14.7-3c-4.6-2-8.6-4.7-12-8.1
			c-3.4-3.4-6.1-7.4-8.1-12C294.3,282.3,293.3,277.4,293.3,272.2z M302.1,272.1c0,4.1,0.8,7.8,2.3,11.4c1.5,3.5,3.6,6.6,6.2,9.2
			c2.6,2.6,5.7,4.7,9.2,6.2c3.5,1.5,7.3,2.3,11.3,2.3s7.8-0.8,11.3-2.3c3.5-1.5,6.6-3.6,9.2-6.2c2.6-2.6,4.7-5.7,6.2-9.2
			c1.5-3.5,2.3-7.3,2.3-11.4c0-4.1-0.8-7.8-2.3-11.4c-1.5-3.5-3.6-6.6-6.2-9.3c-2.6-2.7-5.7-4.8-9.2-6.3c-3.5-1.5-7.3-2.3-11.3-2.3
			s-7.8,0.8-11.3,2.3c-3.5,1.5-6.6,3.6-9.2,6.3c-2.6,2.7-4.7,5.7-6.2,9.3C302.8,264.3,302.1,268.1,302.1,272.1z"/>
		<path class="st0" d="M376.2,235.2h25.5v8.3H393v41.3c0,2.7,0.4,5,1.3,7.1c0.9,2.1,2.1,3.8,3.7,5.2c1.6,1.4,3.5,2.5,5.6,3.2
			c2.2,0.7,4.6,1.1,7.2,1.1c2.6,0,5-0.4,7.2-1.1c2.2-0.7,4.1-1.8,5.6-3.2c1.6-1.4,2.8-3.1,3.7-5.2c0.9-2.1,1.4-4.4,1.4-7.1v-41.3
			h-8.6v-8.3h25.5v8.3h-8.1v41.6c0,4-0.7,7.6-2.1,10.6c-1.4,3.1-3.3,5.7-5.6,7.7c-2.4,2.1-5.2,3.6-8.4,4.7
			c-3.2,1.1-6.7,1.6-10.5,1.6c-3.8,0-7.3-0.5-10.5-1.6c-3.2-1.1-6-2.6-8.4-4.7c-2.4-2.1-4.3-4.7-5.6-7.7c-1.3-3.1-2-6.6-2-10.6
			v-41.6h-8.1V235.2z"/>
		<path class="st0" d="M453,300.7h9.2v-57.1H453v-8.3h12.2l50.9,55.1l2,2.7l-0.3-3.4v-46.2h-7.6v-8.3h25.5v8.3h-9.2v68.8l-54-57.3
			l-2-2.7l0.3,3.4v45h7.6v8.3H453V300.7z"/>
		<path class="st0" d="M559,300.7h9.1v-57.1h-16.5v7.9h-8.3v-16.2h58.3v16.2h-8.3v-7.9h-16.3v57.1h7.7v8.3H559V300.7z"/>
		<path class="st0" d="M608.9,300.7h8.6c4.8-11.6,9.7-23.1,14.6-34.4c4.9-11.3,9.8-22.8,14.6-34.4c4.8,11.6,9.7,23.1,14.6,34.4
			c4.9,11.4,9.8,22.8,14.6,34.4h8.7v8.3h-23.3v-8.3h5.9c-1.5-3.5-2.9-7-4.4-10.4c-1.4-3.4-2.9-6.9-4.4-10.4h-23.3l-8.9,20.9h6.1v8.3
			h-23.4V300.7z M647.7,254.7l-1.1-3.5c-0.1,0.1-0.1,0.4-0.2,0.7c-0.1,0.4-0.2,0.7-0.3,1.2c-0.1,0.5-0.3,1-0.5,1.6
			c-0.9,2-1.8,4-2.5,6c-0.7,1.7-1.4,3.5-2.2,5.5c-0.8,2-1.5,3.7-2.1,5.3h16.1L647.7,254.7z"/>
		<path class="st0" d="M691.9,300.7h8.3v-57.1h-8.3v-8.3h25.5v8.3H709v57.1h8.4v8.3h-25.5V300.7z"/>
		<path class="st0" d="M724.8,300.7h9.2v-57.1h-9.2v-8.3H737l50.9,55.1l2,2.7l-0.3-3.4v-46.2H782v-8.3h25.5v8.3h-9.2v68.8l-54-57.3
			l-2-2.7l0.3,3.4v45h7.6v8.3h-25.5V300.7z"/>
	</g>
	<g>
		<path class="st0" d="M344.2,369.7c1.8,0,3.5-2,5.2-6h2c-3.6,9.3-7.2,10.2-9.4,10.2c-3.8,0-5.3-2.7-5.3-6.2
			c0-4.9,2.7-10.8,2.7-14.8c0-1.8-0.6-3-2.4-3c-2.3,0-4.4,1.9-6.1,5.9l-3.8,17.8h-5.5l8.1-37.9l5.7-0.8L332,350
			c2.9-3.9,5.6-4.4,7.5-4.4c4.5,0,5.7,2.9,5.7,6.2c0,4.9-2.7,10.7-2.7,15.1C342.5,368.5,342.9,369.7,344.2,369.7z"/>
		<path class="st0" d="M358.7,345.9l-4,18.8c-0.2,0.7-0.3,1.6-0.3,2.5c0,1.3,0.3,2.5,1.7,2.5c1.8,0,3.6-2.3,5.2-6h2
			c-3.6,9.2-7.2,10.2-9.6,10.2c-3.8,0-4.9-2.8-4.9-6.1c0-1.3,0.2-2.8,0.5-4.1l3.8-17.7H358.7z M357.2,334.2c2,0,3.7,1.7,3.7,3.7
			c0,2-1.7,3.6-3.7,3.6c-2,0-3.6-1.6-3.6-3.6C353.6,335.9,355.2,334.2,357.2,334.2z"/>
		<path class="st0" d="M373,334.8l-4.3,20l11.4-9h5.4l-10.9,7.5c0.3,0,0.6-0.1,0.8-0.1c4.5,0,5.6,2.9,5.6,6.2c0,2.6-1.2,5.2-1.2,7.3
			c0,1.5,0.3,2.7,1.7,2.7c1.8,0,3.5-2,5.2-6h2c-3.6,9.3-7.2,10.2-9.4,10.2c-3.8,0-5.3-2.7-5.3-6.2c0-2.4,1.2-5.2,1.2-7
			c0-1.8-0.4-3-2.3-3c-2,0-3.9,1.4-5.6,4.3l-2.5,11.7h-5.5l8.1-37.9L373,334.8z"/>
		<path class="st0" d="M396,345.9l-4,18.8c-0.2,0.7-0.3,1.6-0.3,2.5c0,1.3,0.3,2.5,1.7,2.5c1.8,0,3.6-2.3,5.2-6h2
			c-3.6,9.2-7.2,10.2-9.6,10.2c-3.8,0-4.9-2.8-4.9-6.1c0-1.3,0.2-2.8,0.5-4.1l3.8-17.7H396z M394.5,334.2c2,0,3.7,1.7,3.7,3.7
			c0,2-1.7,3.6-3.7,3.6c-2,0-3.6-1.6-3.6-3.6C390.8,335.9,392.4,334.2,394.5,334.2z"/>
		<path class="st0" d="M407.9,345.9L407,350c2.9-3.9,5.6-4.4,7.5-4.4c4.5,0,5.7,2.9,5.7,6.2c0,4.9-2.7,10.7-2.7,15.1
			c0,1.5,0.3,2.7,1.7,2.7c1.8,0,3.5-2,5.2-6h2c-3.6,9.3-7.2,10.2-9.4,10.2c-3.8,0-5.3-2.7-5.3-6.2c0-4.9,2.7-10.8,2.7-14.8
			c0-1.8-0.6-3-2.4-3c-2.3,0-4.3,1.9-6.1,5.9l-3.8,17.8h-5.5l5.9-27.6H407.9z"/>
		<path class="st0" d="M436.9,374.2l1.1-5c-1.9,2-4.5,3.4-7.2,3.4c-3.6,0-7.1-2.4-7.1-8.9c0-6.9,4.9-18.1,14.1-18.1
			c1.8,0,4,0.7,4.5,2.9l0.6-2.7h5.5l-6.8,32.1c-1.7,7.9-3.9,9.4-7.5,9.4c-3.4,0-6.1-1.4-6.1-5C428.1,378.7,432.8,375.9,436.9,374.2z
			 M439.3,363.3l2.6-12.3c-0.2-1.2-1.1-2.4-2.8-2.4c-6.1,0-9.4,9.2-9.4,14.3c0,4.2,1.4,5.5,3.5,5.5
			C435.2,368.4,438.2,366.2,439.3,363.3z M436.1,378.1l0.4-1.8c-4,1.8-6.2,4-6.2,6c0,1.2,0.7,2.2,2,2.2
			C434.4,384.5,435.3,381.9,436.1,378.1z"/>
		<path class="st0" d="M497.2,350.7c0,2.8-4,6.3-8.7,6.7c-1.8,9.3-8.2,17.1-17.1,17.1c-7.1,0-10.2-4.5-10.2-9.7
			c0-5.8,3.9-11.7,10.2-14.3c-2.4-1.7-3.4-4.1-3.4-6.6c0-5.7,5-11.9,12.1-11.9c4.4,0,7.9,2.4,7.9,6.9c0,3.3-1.9,5.7-4.1,5.7
			c-0.9,0-1.8-0.4-2.6-1.5c1.4-0.5,3.2-2.2,3.2-5.1c0-3.3-2-4-3.7-4c-3.3,0-7.6,3.3-7.6,9.5c0,3,0.9,6.1,4.4,6.9
			c-6.5,1.4-10,7.1-10,12.8c0,4.3,2.2,6.9,7,6.9c7.3,0,10.8-6.1,12.3-12.8c-1.4-0.1-2.8-0.3-4-0.3c-2.4,0-4.1,0.8-5.2,2.5l-0.4-0.1
			c1-3.9,4.7-6.7,10.1-6.7c1.5,0,2.8,0.3,4.2,0.3c2,0,4.3-0.7,5.2-2.4H497.2z"/>
		<path class="st0" d="M525.8,350.8c0-1.3-0.8-2.2-2.5-2.2c-5.2,0-8.5,9.4-8.5,15.6c0,3.8,1.3,5.5,4.9,5.5c3.9,0,7.3-1.9,9.7-6h1.9
			c-2.9,5.4-8.4,10.2-14.3,10.2c-4.3,0-8.2-2.5-8.2-8.9c0-6.2,3.6-19.3,14.3-19.3c3.8,0,5.8,1.7,5.8,5.2c0,2.5-1.1,4.6-2.9,4.6
			c-0.9,0-1.4-0.4-1.8-1.2C525.1,353.7,525.8,352,525.8,350.8z"/>
		<path class="st0" d="M541.1,334.8l-6.5,29.8c-0.2,0.7-0.3,1.6-0.3,2.5c0,1.3,0.3,2.5,1.7,2.5c1.8,0,3.6-2.3,5.2-6h2
			c-3.6,9.2-7.2,10.2-9.6,10.2c-3.8,0-4.9-2.8-4.9-6.1c0-1.3,0.2-2.8,0.5-4.1l6-28L541.1,334.8z"/>
		<path class="st0" d="M550.7,345.9l-4,18.8c-0.2,0.7-0.3,1.6-0.3,2.5c0,1.3,0.3,2.5,1.7,2.5c1.8,0,3.6-2.3,5.2-6h2
			c-3.6,9.2-7.2,10.2-9.6,10.2c-3.8,0-4.9-2.8-4.9-6.1c0-1.3,0.2-2.8,0.5-4.1l3.8-17.7H550.7z M549.2,334.2c2,0,3.7,1.7,3.7,3.7
			c0,2-1.7,3.6-3.7,3.6c-2,0-3.6-1.6-3.6-3.6C545.6,335.9,547.2,334.2,549.2,334.2z"/>
		<path class="st0" d="M586.5,369.7c1.8,0,3.5-2,5.2-6h2c-3.6,9.3-7.2,10.2-9.4,10.2c-3.8,0-5.3-2.7-5.3-6.2
			c0-4.9,2.7-10.8,2.7-14.8c0-1.8-0.6-3-2.4-3c-2.3,0-3.8,1.9-5.6,5.9l-3.8,17.8h-5.6l3.9-18.5c0.2-1,0.3-1.8,0.3-2.5
			c0-2-0.9-2.8-2.3-2.8c-2.3,0-3.8,1.9-5.6,5.9l-3.8,17.8h-5.5l5.9-27.6h5.6l-0.8,3.5c2.5-3.3,5-3.8,6.9-3.8c3.7,0,5.2,2,5.6,4.6
			c2.7-4.1,5.5-4.6,7.5-4.6c4.5,0,5.7,2.9,5.7,6.2c0,4.9-2.7,10.7-2.7,15.1C584.8,368.5,585.1,369.7,586.5,369.7z"/>
		<path class="st0" d="M597.7,335.6l5.6-0.8l-2.8,13.1c1.5-1.3,3.1-2.2,5.2-2.2c3.5,0,7.4,1.2,7.4,9c0,8.6-6.2,19.1-15.4,19.1
			c-3.9,0-6.5-1.4-6.5-6.2c0-1.2,0.2-2.6,0.4-4L597.7,335.6z M604,348.7c-1.4,0-2.7,0.8-4,1.9l-3.3,14.5c-0.2,0.8-0.3,1.4-0.3,2.1
			c0,1.9,0.9,2.9,2.8,2.9c4.9,0,8.7-7.5,8.7-14.6C608,351.2,606.7,348.7,604,348.7z"/>
		<path class="st0" d="M624.1,345.9l-4,18.8c-0.2,0.7-0.3,1.6-0.3,2.5c0,1.3,0.3,2.5,1.7,2.5c1.8,0,3.6-2.3,5.2-6h2
			c-3.6,9.2-7.2,10.2-9.6,10.2c-3.8,0-4.9-2.8-4.9-6.1c0-1.3,0.2-2.8,0.5-4.1l3.8-17.7H624.1z M622.6,334.2c2,0,3.7,1.7,3.7,3.7
			c0,2-1.7,3.6-3.7,3.6c-2,0-3.6-1.6-3.6-3.6C618.9,335.9,620.5,334.2,622.6,334.2z"/>
		<path class="st0" d="M636,345.9l-0.9,4.1c2.9-3.9,5.6-4.4,7.5-4.4c4.5,0,5.7,2.9,5.7,6.2c0,4.9-2.7,10.7-2.7,15.1
			c0,1.5,0.3,2.7,1.7,2.7c1.8,0,3.5-2,5.2-6h2c-3.6,9.3-7.2,10.2-9.4,10.2c-3.8,0-5.3-2.7-5.3-6.2c0-4.9,2.7-10.8,2.7-14.8
			c0-1.8-0.6-3-2.4-3c-2.3,0-4.3,1.9-6.1,5.9l-3.8,17.8h-5.5l5.9-27.6H636z"/>
		<path class="st0" d="M665,374.2l1.1-5c-1.9,2-4.5,3.4-7.2,3.4c-3.6,0-7.1-2.4-7.1-8.9c0-6.9,4.9-18.1,14.1-18.1
			c1.8,0,4,0.7,4.5,2.9l0.6-2.7h5.5l-6.8,32.1c-1.7,7.9-3.9,9.4-7.5,9.4c-3.4,0-6.1-1.4-6.1-5C656.2,378.7,660.9,375.9,665,374.2z
			 M667.4,363.3L670,351c-0.2-1.2-1.1-2.4-2.8-2.4c-6.1,0-9.4,9.2-9.4,14.3c0,4.2,1.4,5.5,3.5,5.5
			C663.3,368.4,666.4,366.2,667.4,363.3z M664.3,378.1l0.4-1.8c-4,1.8-6.2,4-6.2,6c0,1.2,0.7,2.2,2,2.2
			C662.5,384.5,663.4,381.9,664.3,378.1z"/>
	</g>
</g>
</svg>
