<?xml version="1.0" encoding="utf-8"?>
<!-- Generator: Adobe Illustrator 23.0.2, SVG Export Plug-In . SVG Version: 6.00 Build 0)  -->
<svg version="1.1"
	 id="svg4419" xmlns:cc="http://creativecommons.org/ns#" xmlns:dc="http://purl.org/dc/elements/1.1/" xmlns:rdf="http://www.w3.org/1999/02/22-rdf-syntax-ns#" xmlns:svg="http://www.w3.org/2000/svg"
	 xmlns="http://www.w3.org/2000/svg" xmlns:xlink="http://www.w3.org/1999/xlink" x="0px" y="0px" viewBox="0 0 300 198.5"
	 style="enable-background:new 0 0 300 198.5;" xml:space="preserve">
<style type="text/css">
	.st0{fill:#A6A8AB;}
</style>
<g>
	<g id="XMLID_1992_">
		<g id="XMLID_2005_">
			<path id="XMLID_2006_" class="st0" d="M75.4,86.7c-5.1,5.8-13.7,6.4-19.7,1.5c-2.8-2.7-4.8-5.8-4.8-9.3c0-1.9-4.8-0.9-10.9,8.4
				V117c0,8.2,0.7,14.2,6.1,15.7v1.2H8.7v-1.2c5.7-1.6,5.8-8.1,5.8-15.7V80.5c0-5.2-1.8-7.3-7.9-9.6v-1.2l33.3-6.3v20.9
				c10.6-16,15.1-17.8,19.6-19.9c4.2-1.9,10.5-1,14.3,2.4C79.7,72,80.4,81,75.4,86.7z"/>
		</g>
		<g id="XMLID_2001_">
			<path id="XMLID_2002_" class="st0" d="M158.1,99.4c0,19.6-11.8,35.9-38.6,35.9c-26.7,0-38.6-16.3-38.6-35.9
				c0-19.7,11.8-35.9,38.6-35.9C146.3,63.5,158.1,79.6,158.1,99.4z M127.8,99.4c0-27-0.1-34.5-8.2-34.5c-8.2,0-8.4,7.5-8.4,34.5
				c0,27,0.1,34.5,8.4,34.5C127.6,133.9,127.8,126.4,127.8,99.4z"/>
		</g>
		<g id="XMLID_1998_">
			<path id="XMLID_1999_" class="st0" d="M213.1,127.2c0,0-5.7,8.1-23,8.1c-18.1,0-26.6-5.1-26.6-5.1v-19.6h1.3
				c3,13.9,15.4,23.3,25.3,23.3c10.6,0,13-12.4,1.6-19.9l-15.1-9.1c-14-9.3-17.8-24.1-8.7-34.2c0,0,5.5-7.2,22.6-7.2
				c17.2,0,24.4,4.2,24.4,4.2v15.2h-1.3c-2.7-13.4-14.3-18.1-23-18.1c-9.7,0-14.3,9.7-1.3,17.9l15.1,9.4
				C217.9,100.4,221.3,117.3,213.1,127.2z"/>
		</g>
		<g id="XMLID_1993_">
			<path id="XMLID_1994_" class="st0" d="M291.9,97.9h-40.6c0,22.7,7.2,28.7,17.2,30.9c7.5,1.6,17.5-2.8,20.5-15.5l1.3,0.3
				c-1.9,11.1-12.9,21.7-31.5,21.7c-19.6,0-35.4-15.5-35.4-35.7c0-25.4,19.3-36,37.7-36C276.8,63.5,291.9,69.8,291.9,97.9z
				 M267.8,28.7l24.2,7.5L246.6,53h-12.3L267.8,28.7z M270.2,96.5c0-18.8-1.9-31.7-8.7-31.7c-6.9,0-10.3,17.3-10.3,31.7H270.2z"/>
		</g>
	</g>
	<g id="XMLID_1963_">
		<g id="XMLID_1987_">
			<path id="XMLID_1988_" class="st0" d="M47.3,148.6h7.8c1.8,0,3.3,0.4,4.3,1.3c1.1,0.9,1.6,2,1.6,3.4c0,2-1.2,3.4-3.5,4.1
				c1.2,0.2,2.2,0.7,2.9,1.5c0.7,0.8,1.1,1.8,1.1,2.9c0,1.4-0.5,2.6-1.6,3.4s-2.5,1.3-4.4,1.3h-8.2V148.6z M51.7,151.9v3.9h2.9
				c0.6,0,1.1-0.2,1.5-0.5c0.4-0.3,0.6-0.8,0.6-1.4c0-0.6-0.2-1.1-0.6-1.5c-0.4-0.3-0.9-0.5-1.5-0.5H51.7z M51.7,163.2H55
				c0.6,0,1.1-0.2,1.5-0.5c0.4-0.4,0.6-0.9,0.6-1.5c0-0.6-0.2-1.1-0.6-1.5c-0.4-0.4-0.9-0.6-1.5-0.6h-3.3V163.2z"/>
		</g>
		<g id="XMLID_1984_">
			<path id="XMLID_1985_" class="st0" d="M87.1,148.5v3.3h-6.5v3.9h5.7v3.3h-5.7v4.2h6.5v3.3H76.2v-18H87.1z"/>
		</g>
		<g id="XMLID_1981_">
			<path id="XMLID_1982_" class="st0" d="M107.1,166.5l-6.3-17.9h4.6l4.4,13.6l4.4-13.6h4.6l-6.4,17.9H107.1z"/>
		</g>
		<g id="XMLID_1978_">
			<path id="XMLID_1979_" class="st0" d="M143.5,148.5v3.3H137v3.9h5.7v3.3H137v4.2h6.5v3.3h-10.8v-18H143.5z"/>
		</g>
		<g id="XMLID_1974_">
			<path id="XMLID_1975_" class="st0" d="M163.3,159.5v7H159v-17.9h7.1c2.1,0,3.7,0.5,4.8,1.6c1.2,1.1,1.7,2.4,1.7,3.9
				c0,1-0.3,2-0.9,3c-0.6,1-1.7,1.7-3.1,2.1l4.4,7.3h-5.1l-4-7H163.3z M163.3,151.9v4.3h2.7c0.7,0,1.2-0.2,1.6-0.6
				c0.4-0.4,0.6-0.9,0.6-1.5c0-0.6-0.2-1.2-0.6-1.6c-0.4-0.4-0.9-0.6-1.6-0.6H163.3z"/>
		</g>
		<g id="XMLID_1970_">
			<path id="XMLID_1971_" class="st0" d="M199.1,166.5l-1-3h-6.4l-1,3H186l6.2-18h5.3l6.2,18H199.1z M192.7,160.2h4.2l-2.1-6.4
				L192.7,160.2z"/>
		</g>
		<g id="XMLID_1967_">
			<path id="XMLID_1968_" class="st0" d="M219.2,164.1c-1.8-1.7-2.7-3.9-2.7-6.6c0-2.7,0.9-4.8,2.7-6.6c1.8-1.7,4-2.6,6.5-2.6
				c2,0,3.8,0.5,5.3,1.6c1.5,1.1,2.6,2.5,3.2,4.4H229c-0.7-1.3-1.8-2-3.3-2c-1.5,0-2.7,0.5-3.5,1.4c-0.9,0.9-1.3,2.2-1.3,3.7
				c0,1.6,0.4,2.8,1.3,3.8c0.9,0.9,2,1.4,3.5,1.4c1,0,1.9-0.3,2.5-0.8c0.7-0.5,1.1-1.2,1.3-2.1h-5v-3.3h9.7v3.3
				c-0.3,1.6-1.2,3.2-2.7,4.6c-0.7,0.7-1.6,1.2-2.6,1.7c-1,0.4-2.1,0.6-3.3,0.6C223.1,166.6,220.9,165.8,219.2,164.1z"/>
		</g>
		<g id="XMLID_1964_">
			<path id="XMLID_1965_" class="st0" d="M259.6,148.5v3.3h-6.5v3.9h5.7v3.3h-5.7v4.2h6.5v3.3h-10.8v-18H259.6z"/>
		</g>
	</g>
</g>
</svg>
