<?xml version="1.0" encoding="utf-8"?>
<!-- Generator: Adobe Illustrator 23.0.2, SVG Export Plug-In . SVG Version: 6.00 Build 0)  -->
<svg version="1.1"
	 id="svg4419" xmlns:cc="http://creativecommons.org/ns#" xmlns:dc="http://purl.org/dc/elements/1.1/" xmlns:rdf="http://www.w3.org/1999/02/22-rdf-syntax-ns#" xmlns:svg="http://www.w3.org/2000/svg"
	 xmlns="http://www.w3.org/2000/svg" xmlns:xlink="http://www.w3.org/1999/xlink" x="0px" y="0px" viewBox="0 0 300 198.5"
	 style="enable-background:new 0 0 300 198.5;" xml:space="preserve">
<style type="text/css">
	.st0{fill:#BBBDBF;}
	.st1{fill:#272525;}
</style>
<g id="XMLID_1962_">
	<g id="XMLID_2011_">
		<g id="XMLID_2012_">
			<path id="XMLID_453_" class="st0" d="M115.8,53.1c0.6,0,1.2-0.6,1.4,0.4c0.6,2.9-1.4,5.3-0.8,8.2c0.3,0.1,0.6,0.1,0.9,0.2
				c-0.4,2.3-0.9,4.6-1.4,7.1c0.1,4.4,0.4,8.9,0.7,13.3c0.3-0.1,0.7-0.2,0.8,0.3c0.3,1.8-0.1,4.4-0.2,7c0.1,0.4,0.1,0.8,0.2,1.2
				c0.2,0.3,0.5,0.4,0.7,0.4c0,1.2-0.1,2.2-0.2,3.2c1.8,12.9,4,26,6.2,40.2c0.9,3,1.7,6,2.1,8.9c0.4,4.3-0.3,9.8-0.4,13.9
				c3.3-0.6,4.9,9.6,8.3,7.5c-0.1,2.8-0.2,7,0.8,7.2c2.8,0.6,6.1,2.8,7.8,10.2c0.4,2.9-0.8,7.3-0.2,8.4c0.9,1.6,2-3.8,2.9-2.1
				c1-21.5-0.2-42.3-0.2-64c-1.5-7.4-2.1-57.2-1.5-70c0-0.4,0-0.8,0-1.2c0.2-7-0.1-15.5-1.3-21.4c-0.8-2.7-1.7-5.5-2.6-8.2
				c-0.5,1.3-1.1,2.5-1.6,3.5c0.1-2.8,0.1-5.6-0.5-6.7c-1.4-5.9-3.1-2.6-5.3-0.3c-1,1.6-2.5-0.6-3.5,2c0-1.9,0.1-2.8,0.1-4.7
				c-0.9-0.2,0.5,5.7-1.1,4.4c0.4-1.8-0.2-3.8-0.2-5.7c-1.3,0.6-0.5,6.4-1.7,6.2c-0.3-1,1.7-5.2,0.1-5.6c-0.3-0.1-0.4,1.8-0.4,2.7
				c-0.5-5.7-2-8.9-3.7-3.7c0-1.8,0.7-4.4,0.5-6.3c0,0,0,0,0,0c-0.1,1-0.4,2.6-0.4,3.5c0-1.1,0.1-2.2,0.1-3.3
				c-0.2,0.2-0.4,0.4-0.7,0.6c-0.2,0.8-0.3,1.6-0.4,2.5c0-0.7,0-1.4,0.1-2.2c-0.5,0.5-1,1.2-1.5,1.8c-1,2.6-2.5,5-2.5,6.4
				C116.4,30.6,115.9,41.9,115.8,53.1z"/>
		</g>
	</g>
	<g id="XMLID_2008_">
		<g id="XMLID_2009_">
			<path id="XMLID_452_" class="st0" d="M157.4,53.1c0.6,0,1.2-0.6,1.4,0.4c0.6,2.9-1.4,5.3-0.8,8.2c0.3,0.1,0.6,0.1,0.9,0.2
				c-0.4,2.3-0.9,4.6-1.4,7.1c0.1,4.4,0.4,8.9,0.7,13.3c0.3-0.1,0.7-0.2,0.8,0.3c0.3,1.8-0.1,4.4-0.2,7c0.1,0.4,0.1,0.8,0.2,1.2
				c0.2,0.3,0.5,0.4,0.7,0.4c0,1.2-0.1,2.2-0.2,3.2c1.8,12.9,4,26,6.2,40.2c0.9,3,1.7,6,2.1,8.9c0.4,4.3-0.3,9.8-0.4,13.9
				c3.3-0.6,4.9,9.6,8.3,7.5c-0.1,2.8-0.2,7,0.8,7.2c2.8,0.6,6.1,2.8,7.8,10.2c0.4,2.9-0.8,7.3-0.2,8.4c0.9,1.6,2-3.8,2.9-2.1
				c1-21.5-0.2-42.3-0.2-64c-1.5-7.4-2.1-57.2-1.5-70c0-0.4,0-0.8,0-1.2c0.2-7-0.1-15.5-1.3-21.4c-0.8-2.7-1.7-5.5-2.6-8.2
				c-0.5,1.3-1.1,2.5-1.6,3.5c0.1-2.8,0.1-5.6-0.5-6.7c-1.4-5.9-3.1-2.6-5.3-0.3c-1,1.6-2.5-0.6-3.5,2c0-1.9,0.1-2.8,0.1-4.7
				c-0.9-0.2,0.5,5.7-1.1,4.4c0.4-1.8-0.2-3.8-0.2-5.7c-1.3,0.6-0.5,6.4-1.7,6.2c-0.3-1,1.7-5.2,0.1-5.6c-0.3-0.1-0.4,1.8-0.4,2.7
				c-0.5-5.7-2-8.9-3.7-3.7c0-1.8,0.7-4.4,0.5-6.3c0,0,0,0,0,0c-0.1,1-0.4,2.6-0.4,3.5c0-1.1,0.1-2.2,0.1-3.3
				c-0.2,0.2-0.4,0.4-0.7,0.6c-0.2,0.8-0.3,1.6-0.4,2.5c0-0.7,0-1.4,0.1-2.2c-0.5,0.5-1,1.2-1.5,1.8c-1,2.6-2.5,5-2.5,6.4
				C158.1,30.6,157.5,41.9,157.4,53.1z"/>
		</g>
	</g>
	<g id="XMLID_1992_">
		<g id="XMLID_2005_">
			<path id="XMLID_2006_" class="st1" d="M90.8,70.6c-4.1,4.7-11,5.1-15.8,1.2c-2.3-2.2-3.8-4.7-3.8-7.4c0-1.6-3.8-0.7-8.7,6.7v23.8
				c0,6.6,0.6,11.4,4.9,12.6v1H37.5v-1c4.5-1.3,4.7-6.5,4.7-12.6V65.7c0-4.2-1.4-5.9-6.3-7.7v-1l26.7-5v16.8
				C71,56,74.6,54.6,78.2,52.9c3.4-1.6,8.4-0.8,11.5,1.9C94.3,58.9,94.9,66,90.8,70.6z"/>
		</g>
		<g id="XMLID_2001_">
			<path id="XMLID_2002_" class="st1" d="M157.1,80.8c0,15.7-9.5,28.7-30.9,28.7c-21.4,0-30.9-13-30.9-28.7
				c0-15.8,9.5-28.7,30.9-28.7C147.7,52,157.1,65,157.1,80.8z M132.8,80.8c0-21.7-0.1-27.6-6.6-27.6c-6.6,0-6.7,6-6.7,27.6
				c0,21.7,0.1,27.6,6.7,27.6C132.7,108.4,132.8,102.4,132.8,80.8z"/>
		</g>
		<g id="XMLID_1998_">
			<path id="XMLID_1999_" class="st1" d="M201.2,103c0,0-4.5,6.5-18.4,6.5c-14.5,0-21.3-4.1-21.3-4.1V89.7h1.1
				c2.4,11.1,12.3,18.7,20.2,18.7c8.5,0,10.4-9.9,1.3-15.9L172,85.2c-11.2-7.4-14.2-19.3-6.9-27.4c0,0,4.4-5.7,18.1-5.7
				c13.8,0,19.5,3.3,19.5,3.3v12.2h-1.1c-2.2-10.8-11.5-14.5-18.4-14.5c-7.8,0-11.5,7.8-1.1,14.4l12.1,7.5
				C205,81.6,207.7,95.1,201.2,103z"/>
		</g>
		<g id="XMLID_1993_">
			<path id="XMLID_1994_" class="st1" d="M264.2,79.6h-32.5c0,18.2,5.7,23,13.8,24.8c6,1.3,14-2.3,16.4-12.4l1.1,0.2
				c-1.6,8.9-10.3,17.4-25.2,17.4c-15.7,0-28.4-12.4-28.4-28.6c0-20.3,15.4-28.8,30.2-28.8C252.1,52,264.2,57.1,264.2,79.6z
				 M244.9,24.2l19.4,6L228,43.7h-9.8L244.9,24.2z M246.9,78.5c0-15.1-1.6-25.4-6.9-25.4c-5.5,0-8.3,13.9-8.3,25.4H246.9z"/>
		</g>
	</g>
	<g id="XMLID_1963_">
		<g id="XMLID_1987_">
			<path id="XMLID_1988_" class="st1" d="M68.4,120.2h6.2c1.5,0,2.6,0.4,3.5,1.1c0.9,0.7,1.3,1.6,1.3,2.7c0,1.6-0.9,2.7-2.8,3.3
				c1,0.1,1.7,0.5,2.3,1.2c0.6,0.7,0.9,1.4,0.9,2.3c0,1.1-0.4,2.1-1.3,2.7c-0.8,0.7-2,1-3.5,1h-6.6V120.2z M71.9,122.8v3.1h2.3
				c0.5,0,0.9-0.1,1.2-0.4c0.3-0.3,0.5-0.6,0.5-1.2c0-0.5-0.2-0.9-0.5-1.2c-0.3-0.3-0.7-0.4-1.2-0.4H71.9z M71.9,131.9h2.6
				c0.5,0,0.9-0.1,1.2-0.4c0.3-0.3,0.5-0.7,0.5-1.2c0-0.5-0.1-0.9-0.4-1.2c-0.3-0.3-0.7-0.4-1.2-0.4h-2.7V131.9z"/>
		</g>
		<g id="XMLID_1984_">
			<path id="XMLID_1985_" class="st1" d="M100.2,120.1v2.7H95v3.1h4.6v2.7H95v3.3h5.2v2.7h-8.7v-14.4H100.2z"/>
		</g>
		<g id="XMLID_1981_">
			<path id="XMLID_1982_" class="st1" d="M116.3,134.5l-5.1-14.3h3.7l3.6,10.9l3.6-10.9h3.7l-5.1,14.3H116.3z"/>
		</g>
		<g id="XMLID_1978_">
			<path id="XMLID_1979_" class="st1" d="M145.4,120.1v2.7h-5.2v3.1h4.6v2.7h-4.6v3.3h5.2v2.7h-8.7v-14.4H145.4z"/>
		</g>
		<g id="XMLID_1974_">
			<path id="XMLID_1975_" class="st1" d="M161.3,128.9v5.6h-3.5v-14.3h5.7c1.7,0,3,0.4,3.9,1.3c0.9,0.9,1.4,1.9,1.4,3.1
				c0,0.8-0.3,1.6-0.8,2.4c-0.5,0.8-1.3,1.3-2.5,1.7l3.5,5.8h-4.1l-3.2-5.6H161.3z M161.3,122.8v3.5h2.2c0.5,0,0.9-0.2,1.3-0.5
				c0.3-0.3,0.5-0.7,0.5-1.2c0-0.5-0.2-0.9-0.5-1.3c-0.3-0.3-0.7-0.5-1.2-0.5H161.3z"/>
		</g>
		<g id="XMLID_1970_">
			<path id="XMLID_1971_" class="st1" d="M189.9,134.5l-0.8-2.4H184l-0.8,2.4h-3.7l5-14.4h4.2l5,14.4H189.9z M184.8,129.5h3.4
				l-1.7-5.1L184.8,129.5z"/>
		</g>
		<g id="XMLID_1967_">
			<path id="XMLID_1968_" class="st1" d="M206,132.6c-1.4-1.4-2.1-3.1-2.1-5.3s0.7-3.9,2.1-5.3c1.4-1.4,3.2-2.1,5.2-2.1
				c1.6,0,3,0.4,4.2,1.3c1.2,0.8,2.1,2,2.6,3.5h-4.2c-0.5-1-1.4-1.6-2.6-1.6c-1.2,0-2.1,0.4-2.8,1.1c-0.7,0.7-1,1.7-1,3
				c0,1.3,0.3,2.3,1,3c0.7,0.7,1.6,1.1,2.8,1.1c0.8,0,1.5-0.2,2-0.6c0.5-0.4,0.9-1,1.1-1.7h-4v-2.7h7.8v2.7c-0.3,1.3-1,2.5-2.1,3.7
				c-0.6,0.5-1.2,1-2.1,1.3c-0.8,0.3-1.7,0.5-2.6,0.5C209.2,134.6,207.4,134,206,132.6z"/>
		</g>
		<g id="XMLID_1964_">
			<path id="XMLID_1965_" class="st1" d="M238.3,120.1v2.7h-5.2v3.1h4.6v2.7h-4.6v3.3h5.2v2.7h-8.7v-14.4H238.3z"/>
		</g>
	</g>
</g>
</svg>
