<?xml version="1.0" encoding="utf-8"?>
<!-- Generator: Adobe Illustrator 23.0.2, SVG Export Plug-In . SVG Version: 6.00 Build 0)  -->
<svg version="1.1" id="Layer_1" xmlns="http://www.w3.org/2000/svg" xmlns:xlink="http://www.w3.org/1999/xlink" x="0px" y="0px"
	 viewBox="0 0 350 350" style="enable-background:new 0 0 350 350;" xml:space="preserve">
<style type="text/css">
	.st0{fill:#2D2D2D;}
	.st1{font-family:'Montserrat-ExtraBold';}
	.st2{font-size:55.9768px;}
	.st3{font-family:'Montserrat-ExtraLight';}
	.st4{font-size:33.8834px;}
	.st5{fill:#929497;}
	.st6{fill:#808184;}
	.st7{fill:#E6E7E8;}
	.st8{fill:#D0D2D3;}
</style>
<g id="XMLID_124_">
	<g id="XMLID_98_">
		<text id="XMLID_20_" transform="matrix(1 0 0 1 75.2803 282.0039)" class="st0 st1 st2">LOREM</text>
		<text id="XMLID_19_" transform="matrix(1 0 0 1 75.4033 325.207)" class="st0 st3 st4">Your Tagline</text>
	</g>
	<g id="XMLID_62_">
		<g id="XMLID_107_">
			<path id="XMLID_48_" class="st5" d="M179.3,112.5v92.4l0,0c-51,0-92.4-41.4-92.4-92.4l0,0H179.3z"/>
			<path id="XMLID_50_" class="st6" d="M179.3,112.5L179.3,112.5H86.9V20.1l0,0C137.9,20.1,179.3,61.5,179.3,112.5z"/>
			<path id="XMLID_52_" class="st7" d="M271.7,112.5L271.7,112.5c0,51-41.4,92.4-92.4,92.4l0,0l0,0
				C179.3,153.9,220.6,112.5,271.7,112.5L271.7,112.5z"/>
			<path id="XMLID_51_" class="st8" d="M271.7,112.5L271.7,112.5L271.7,112.5c-51,0-92.4-41.4-92.4-92.4l0,0l0,0
				C230.3,20.1,271.7,61.5,271.7,112.5z"/>
		</g>
	</g>
</g>
</svg>
