<?xml version="1.0" encoding="utf-8"?>
<!-- Generator: Adobe Illustrator 23.0.2, SVG Export Plug-In . SVG Version: 6.00 Build 0)  -->
<svg version="1.1"
	 id="svg24499" xmlns:cc="http://web.resource.org/cc/" xmlns:dc="http://purl.org/dc/elements/1.1/" xmlns:inkscape="http://www.inkscape.org/namespaces/inkscape" xmlns:rdf="http://www.w3.org/1999/02/22-rdf-syntax-ns#" xmlns:sodipodi="http://sodipodi.sourceforge.net/DTD/sodipodi-0.dtd" xmlns:svg="http://www.w3.org/2000/svg"
	 xmlns="http://www.w3.org/2000/svg" xmlns:xlink="http://www.w3.org/1999/xlink" x="0px" y="0px" viewBox="0 0 752.7 132.9"
	 style="enable-background:new 0 0 752.7 132.9;" xml:space="preserve">
<style type="text/css">
	.st0{fill:#505255;}
	.st1{fill:#BABCBC;}
	.st2{fill:#7A7E80;}
	.st3{fill:#353839;}
</style>
<sodipodi:namedview  bordercolor="#666666" borderopacity="1.0" height="37.5mm" id="base" inkscape:current-layer="layer1" inkscape:cx="350" inkscape:cy="520" inkscape:document-units="px" inkscape:pageopacity="0.0" inkscape:pageshadow="2" inkscape:window-height="574" inkscape:window-width="925" inkscape:window-x="242" inkscape:window-y="242" inkscape:zoom="0.35" pagecolor="#ffffff" units="mm" width="212.42809mm">
	</sodipodi:namedview>
<g>
	<g>
		<path class="st0" d="M363.3,73.5c-0.7,1.2-1.9,1.6-3,1.6c-1,0-2.1-0.3-2.8-1.6l-5.4-9.9v21.9c0,1.8-2.2,2.7-4.4,2.7
			c-2.2,0-4.4-0.9-4.4-2.7V51.1c0-3.2,2.2-4.4,4.4-4.4c3.2,0,4.5,0.3,6.9,4.4l5.9,10.2l5.8-10.2c2.3-4.1,3.7-4.4,6.9-4.4
			c2.3,0,4.4,1.2,4.4,4.4v34.4c0,1.8-2.2,2.7-4.4,2.7c-2.2,0-4.4-0.9-4.4-2.7V64.2L363.3,73.5z"/>
		<path class="st0" d="M392.6,64h8.5c1.7,0,2.7,1.6,2.7,3.5c0,1.5-0.8,3.4-2.7,3.4h-8.5v9.7h15.2c1.7,0,2.7,1.8,2.7,3.9
			c0,1.8-0.8,3.8-2.7,3.8h-20.2c-1.9,0-3.9-0.9-3.9-2.7V49.4c0-1.8,1.9-2.7,3.9-2.7h20.2c1.9,0,2.7,2,2.7,3.8c0,2.1-1,3.9-2.7,3.9
			h-15.2V64z"/>
		<path class="st0" d="M428.3,46.7c7.8,0,14,3.6,14,13.4v14.7c0,9.8-6.1,13.4-14,13.4h-10.1c-2.3,0-3.9-1.2-3.9-2.7V49.3
			c0-1.4,1.5-2.7,3.9-2.7H428.3z M423.2,54.4v26.1h5.1c3.2,0,5.1-1.8,5.1-5.7V60.1c0-3.9-1.9-5.7-5.1-5.7H423.2z"/>
		<path class="st0" d="M447.9,49.3c0-1.9,2.2-2.7,4.4-2.7c2.2,0,4.4,0.8,4.4,2.7v36.1c0,1.8-2.2,2.7-4.4,2.7c-2.2,0-4.4-0.9-4.4-2.7
			V49.3z"/>
		<path class="st0" d="M460.1,84.6c0-0.2,0.1-0.4,0.1-0.6l10.6-34.6c0.6-2,3.2-3,5.8-3s5.2,1,5.8,3l10.6,34.6
			c0.1,0.2,0.1,0.5,0.1,0.6c0,2.1-3.2,3.6-5.7,3.6c-1.4,0-2.6-0.5-2.9-1.6l-1.9-7.1h-12l-1.9,7.1c-0.3,1.2-1.5,1.6-2.9,1.6
			C463.3,88.2,460.1,86.7,460.1,84.6z M480.7,72.6l-4.1-15.2l-4.1,15.2H480.7z"/>
		<path class="st0" d="M496.3,49.3c0-1.9,2.2-2.7,4.4-2.7c2.2,0,4.4,0.8,4.4,2.7v36.1c0,1.8-2.2,2.7-4.4,2.7c-2.2,0-4.4-0.9-4.4-2.7
			V49.3z"/>
		<path class="st0" d="M531,85.8l-10.8-19.7v19.3c0,1.8-2.2,2.7-4.4,2.7s-4.4-0.9-4.4-2.7V49.4c0-1.9,2.2-2.7,4.4-2.7
			c3.2,0,4.4,0.3,6.5,4.4l9.2,17.6V49.3c0-1.9,2.2-2.7,4.4-2.7c2.2,0,4.4,0.8,4.4,2.7v36.1c0,1.8-2.2,2.7-4.4,2.7
			C533.9,88.2,532.1,87.8,531,85.8z"/>
		<path class="st0" d="M546.5,49.4c0-1.8,1.9-2.7,3.9-2.7h19.7c1.9,0,2.7,2,2.7,3.8c0,2.1-1,3.9-2.7,3.9h-14.7V64h8.6
			c1.7,0,2.7,1.6,2.7,3.5c0,1.5-0.8,3.4-2.7,3.4h-8.6v14.7c0,1.8-2.2,2.7-4.4,2.7s-4.4-0.9-4.4-2.7V49.4z"/>
		<path class="st0" d="M575.7,49.3c0-1.9,2.2-2.7,4.4-2.7c2.2,0,4.4,0.8,4.4,2.7v36.1c0,1.8-2.2,2.7-4.4,2.7c-2.2,0-4.4-0.9-4.4-2.7
			V49.3z"/>
		<path class="st0" d="M610.4,85.8l-10.8-19.7v19.3c0,1.8-2.2,2.7-4.4,2.7s-4.4-0.9-4.4-2.7V49.4c0-1.9,2.2-2.7,4.4-2.7
			c3.2,0,4.4,0.3,6.5,4.4l9.2,17.6V49.3c0-1.9,2.2-2.7,4.4-2.7c2.2,0,4.4,0.8,4.4,2.7v36.1c0,1.8-2.2,2.7-4.4,2.7
			C613.3,88.2,611.5,87.8,610.4,85.8z"/>
		<path class="st0" d="M625.9,49.3c0-1.9,2.2-2.7,4.4-2.7c2.2,0,4.4,0.8,4.4,2.7v36.1c0,1.8-2.2,2.7-4.4,2.7c-2.2,0-4.4-0.9-4.4-2.7
			V49.3z"/>
	</g>
	<g>
		<path class="st1" d="M355.1,108.6c0-2.1-5.5-1.7-5.5-5.8c0-2.6,2.3-3.6,4.5-3.6c0.9,0,3.5,0.2,3.5,1.5c0,0.5-0.3,1.4-1.1,1.4
			c-0.6,0-1-0.7-2.4-0.7c-1.2,0-1.7,0.5-1.7,1c0,1.7,5.5,1.4,5.5,5.8c0,2.5-1.8,3.9-4.4,3.9c-2.3,0-4.2-1.1-4.2-2.3
			c0-0.6,0.5-1.5,1.2-1.5c0.8,0,1.3,1.3,3,1.3C354.3,109.7,355.1,109.4,355.1,108.6z"/>
		<path class="st1" d="M370.8,112c-0.6,0-1.2-0.3-1.2-0.8v-11.1c0-0.6,0.7-0.8,1.4-0.8c0.7,0,1.4,0.2,1.4,0.8v9.5h4
			c0.5,0,0.8,0.6,0.8,1.2c0,0.6-0.3,1.2-0.8,1.2H370.8z"/>
		<path class="st1" d="M388.5,108v-4.6c0-3,1.9-4.1,4.3-4.1c2.4,0,4.3,1.1,4.3,4.1v4.6c0,3-1.9,4.1-4.3,4.1
			C390.4,112.1,388.5,111,388.5,108z M394.3,103.4c0-1.2-0.6-1.7-1.6-1.7c-1,0-1.5,0.5-1.5,1.7v4.6c0,1.2,0.6,1.7,1.5,1.7
			c1,0,1.6-0.5,1.6-1.7V103.4z"/>
		<path class="st1" d="M413.4,101.6c-1,0-1.6,0.6-1.6,1.7v4.6c0,1.2,0.6,1.7,1.5,1.7c1,0,1.6-0.6,1.6-1.7v-0.6h-1
			c-0.5,0-0.8-0.5-0.8-1c0-0.5,0.3-1,0.8-1h2.9c0.5,0,0.8,0.4,0.8,0.9v1.8c0,3-1.9,4.1-4.3,4.1c-2.4,0-4.3-1.1-4.3-4.1v-4.6
			c0-3,1.9-4.1,4.2-4.1c2.5,0,4.4,1.3,4.4,3.5c0,1-0.4,1.3-1.4,1.3c-0.7,0-1.3-0.2-1.4-0.8C414.9,102.6,414.8,101.6,413.4,101.6z"/>
		<path class="st1" d="M428.8,110.9c0-0.1,0-0.1,0-0.2L432,100c0.2-0.6,1-0.9,1.8-0.9c0.8,0,1.6,0.3,1.8,0.9l3.3,10.6
			c0,0.1,0,0.1,0,0.2c0,0.6-1,1.1-1.7,1.1c-0.4,0-0.8-0.1-0.9-0.5l-0.6-2.2H432l-0.6,2.2c-0.1,0.4-0.5,0.5-0.9,0.5
			C429.8,112,428.8,111.5,428.8,110.9z M435.1,107.2l-1.3-4.7l-1.3,4.7H435.1z"/>
		<path class="st1" d="M456.3,111.2l-3.3-6v5.9c0,0.6-0.7,0.8-1.4,0.8c-0.7,0-1.4-0.3-1.4-0.8v-11c0-0.6,0.7-0.8,1.4-0.8
			c1,0,1.3,0.1,2,1.4l2.8,5.4v-5.9c0-0.6,0.7-0.8,1.4-0.8c0.7,0,1.4,0.2,1.4,0.8v11.1c0,0.6-0.7,0.8-1.4,0.8
			C457.2,112,456.7,111.8,456.3,111.2z"/>
		<path class="st1" d="M479.2,101.6c-1,0-1.6,0.6-1.6,1.7v4.6c0,1.2,0.6,1.7,1.5,1.7c1,0,1.6-0.6,1.6-1.7v-0.6h-1
			c-0.5,0-0.8-0.5-0.8-1c0-0.5,0.3-1,0.8-1h2.9c0.5,0,0.8,0.4,0.8,0.9v1.8c0,3-1.9,4.1-4.3,4.1s-4.3-1.1-4.3-4.1v-4.6
			c0-3,1.9-4.1,4.2-4.1c2.5,0,4.4,1.3,4.4,3.5c0,1-0.4,1.3-1.4,1.3c-0.7,0-1.3-0.2-1.4-0.8C480.7,102.6,480.6,101.6,479.2,101.6z"/>
		<path class="st1" d="M495.3,108v-4.6c0-3,1.9-4.1,4.3-4.1s4.3,1.1,4.3,4.1v4.6c0,3-1.9,4.1-4.3,4.1S495.3,111,495.3,108z
			 M501.1,103.4c0-1.2-0.6-1.7-1.6-1.7s-1.5,0.5-1.5,1.7v4.6c0,1.2,0.6,1.7,1.5,1.7s1.6-0.5,1.6-1.7V103.4z"/>
		<path class="st1" d="M518.7,104.6h2.6c0.5,0,0.8,0.5,0.8,1.1c0,0.5-0.2,1-0.8,1h-2.6v3h4.7c0.5,0,0.8,0.6,0.8,1.2
			c0,0.6-0.2,1.2-0.8,1.2h-6.2c-0.6,0-1.2-0.3-1.2-0.8v-11c0-0.6,0.6-0.8,1.2-0.8h6.2c0.6,0,0.8,0.6,0.8,1.2c0,0.6-0.3,1.2-0.8,1.2
			h-4.7V104.6z"/>
		<path class="st1" d="M541.1,108.6c0-2.1-5.5-1.7-5.5-5.8c0-2.6,2.3-3.6,4.5-3.6c0.9,0,3.5,0.2,3.5,1.5c0,0.5-0.3,1.4-1.1,1.4
			c-0.6,0-1-0.7-2.4-0.7c-1.2,0-1.7,0.5-1.7,1c0,1.7,5.5,1.4,5.5,5.8c0,2.5-1.8,3.9-4.3,3.9c-2.3,0-4.2-1.1-4.2-2.3
			c0-0.6,0.5-1.5,1.2-1.5c0.8,0,1.3,1.3,3,1.3C540.2,109.7,541.1,109.4,541.1,108.6z"/>
		<path class="st1" d="M565.2,106.4h-3.5v4.7c0,0.6-0.7,0.8-1.4,0.8c-0.7,0-1.4-0.3-1.4-0.8v-11.1c0-0.6,0.7-0.8,1.4-0.8
			c0.7,0,1.4,0.2,1.4,0.8v4.3h3.5v-4.3c0-0.6,0.7-0.8,1.4-0.8c0.7,0,1.4,0.2,1.4,0.8v11.1c0,0.6-0.7,0.8-1.4,0.8
			c-0.7,0-1.4-0.3-1.4-0.8V106.4z"/>
		<path class="st1" d="M583,104.6h2.6c0.5,0,0.8,0.5,0.8,1.1c0,0.5-0.2,1-0.8,1H583v3h4.7c0.5,0,0.8,0.6,0.8,1.2
			c0,0.6-0.2,1.2-0.8,1.2h-6.2c-0.6,0-1.2-0.3-1.2-0.8v-11c0-0.6,0.6-0.8,1.2-0.8h6.2c0.6,0,0.8,0.6,0.8,1.2c0,0.6-0.3,1.2-0.8,1.2
			H583V104.6z"/>
		<path class="st1" d="M600.1,100.1c0-0.4,0.3-0.8,0.8-0.8h3.6c2.4,0,4.3,0.9,4.3,3.7c0,1.9-0.9,3.1-2.1,3.5l2.1,3.8
			c0.1,0.1,0.1,0.2,0.1,0.3c0,0.7-0.9,1.4-1.7,1.4c-0.3,0-0.7-0.1-0.9-0.5l-2.4-4.6h-1.1v4.2c0,0.6-0.7,0.8-1.4,0.8
			c-0.7,0-1.4-0.3-1.4-0.8V100.1z M602.8,101.6v3.2h1.7c1,0,1.6-0.4,1.6-1.6c0-1.2-0.6-1.6-1.6-1.6H602.8z"/>
		<path class="st1" d="M623.4,104.6h2.6c0.5,0,0.8,0.5,0.8,1.1c0,0.5-0.2,1-0.8,1h-2.6v3h4.7c0.5,0,0.8,0.6,0.8,1.2
			c0,0.6-0.2,1.2-0.8,1.2h-6.2c-0.6,0-1.2-0.3-1.2-0.8v-11c0-0.6,0.6-0.8,1.2-0.8h6.2c0.6,0,0.8,0.6,0.8,1.2c0,0.6-0.3,1.2-0.8,1.2
			h-4.7V104.6z"/>
	</g>
	<g>
		<path class="st2" d="M257.2,60.2l-79.7-46c-14.6-8.4-28.7-9.5-39.9-3.1c-11.2,6.4-17.3,19.3-17.3,36.1v40.5
			c0,16.9,6.1,29.7,17.3,36.2c4.8,2.8,10.1,4.1,15.8,4.1c7.5,0,15.6-2.4,23.8-7.1l40.2-23.2L200.7,88l-31.8,18.3
			c-8.9,5.2-17.3,6.2-22.9,3c-5.7-3.3-8.9-11.2-8.9-21.6V47.2c0-10.4,3.2-18.3,8.9-21.5c5.7-3.3,14.1-2.2,23.1,3.1l79.7,46
			c4,2.3,9.2,0.9,11.5-3.1C262.6,67.6,261.2,62.5,257.2,60.2z"/>
		<polygon class="st2" points="200.7,88 183.9,97.7 200.7,107.4 217.5,97.7 		"/>
		<path class="st3" d="M297.3,11c-11.1-6.4-25.2-5.3-39.7,3l-40.2,23.2l16.8,9.7L266,28.6c8.9-5.2,17.3-6.2,22.9-3
			c5.7,3.3,8.9,11.2,8.9,21.6v40.5c0,10.4-3.2,18.3-8.9,21.5c-5.7,3.3-14.1,2.2-23.1-3.1l-79.7-46c-4-2.3-9.2-0.9-11.5,3.1
			c-2.3,4-0.9,9.2,3.1,11.5l79.7,46c8.3,4.8,16.5,7.2,24,7.2c5.7,0,11.1-1.4,15.9-4.2c11.2-6.4,17.3-19.3,17.3-36.1V47.2
			C314.6,30.3,308.5,17.5,297.3,11z"/>
		<polygon class="st2" points="251.1,37.2 234.3,27.5 217.5,37.2 234.3,46.9 		"/>
	</g>
</g>
</svg>
