<?xml version="1.0" encoding="utf-8"?>
<!-- Generator: Adobe Illustrator 23.0.2, SVG Export Plug-In . SVG Version: 6.00 Build 0)  -->
<svg version="1.1"
	 id="svg24499" xmlns:cc="http://web.resource.org/cc/" xmlns:dc="http://purl.org/dc/elements/1.1/" xmlns:inkscape="http://www.inkscape.org/namespaces/inkscape" xmlns:rdf="http://www.w3.org/1999/02/22-rdf-syntax-ns#" xmlns:sodipodi="http://sodipodi.sourceforge.net/DTD/sodipodi-0.dtd" xmlns:svg="http://www.w3.org/2000/svg"
	 xmlns="http://www.w3.org/2000/svg" xmlns:xlink="http://www.w3.org/1999/xlink" x="0px" y="0px" viewBox="0 0 752.7 132.9"
	 style="enable-background:new 0 0 752.7 132.9;" xml:space="preserve">
<style type="text/css">
	.st0{fill:#A6A8AB;}
</style>
<sodipodi:namedview  bordercolor="#666666" borderopacity="1.0" height="37.5mm" id="base" inkscape:current-layer="layer1" inkscape:cx="350" inkscape:cy="520" inkscape:document-units="px" inkscape:pageopacity="0.0" inkscape:pageshadow="2" inkscape:window-height="574" inkscape:window-width="925" inkscape:window-x="242" inkscape:window-y="242" inkscape:zoom="0.35" pagecolor="#ffffff" units="mm" width="212.42809mm">
	</sodipodi:namedview>
<g>
	<g>
		<g>
			<g>
				<g>
					<path class="st0" d="M100.9,119.4c-3.9,0-7.5-1.5-10.3-4.2c-2.7-2.7-4.2-6.4-4.2-10.3c0-3.9,1.5-7.5,4.2-10.2
						c2.7-2.7,6.4-4.2,10.3-4.2c3.9,0,7.5,1.5,10.2,4.2c5.7,5.7,5.7,14.9,0,20.5C108.4,117.9,104.7,119.4,100.9,119.4z"/>
				</g>
				<g>
					<path class="st0" d="M22.1,42.1c-3.9,0-7.5-1.5-10.3-4.2c-2.7-2.7-4.2-6.4-4.2-10.2c0-3.9,1.5-7.5,4.2-10.2
						c2.7-2.7,6.4-4.3,10.3-4.3c3.9,0,7.5,1.5,10.2,4.2c2.7,2.7,4.2,6.4,4.2,10.3c0,3.9-1.5,7.5-4.2,10.3
						C29.6,40.6,26,42.1,22.1,42.1z"/>
				</g>
				<path class="st0" d="M100.2,41.7c-3.9,0-7.5-1.5-10.3-4.2c-5.6-5.7-5.7-14.8,0-20.5c2.7-2.7,6.4-4.3,10.3-4.3
					c3.9,0,7.5,1.5,10.2,4.2c5.6,5.6,5.6,14.8,0,20.5C107.7,40.2,104.1,41.7,100.2,41.7z"/>
				<g>
					<path class="st0" d="M22.5,119.4c-3.9,0-7.5-1.5-10.3-4.2c-2.7-2.7-4.2-6.4-4.2-10.2c0-3.9,1.5-7.5,4.2-10.2
						c0.6-0.6,1.2-1.1,2-1.7c0.2-0.2,0.5-0.3,0.7-0.5c0.5-0.3,1.1-0.6,1.6-0.8c0.3-0.1,0.6-0.2,0.8-0.4c0.5-0.2,1.1-0.4,1.8-0.5
						c0.1,0,0.2-0.1,0.4-0.1c0.1,0,0.1,0,0.2-0.1l3.2-0.2c0.4,0,0.8,0.1,1.3,0.1l0.2,0c0.1,0,0.3,0,0.4,0l0.1,0l0.1,0h0.1
						c0.2,0,0.5,0,0.7,0c5.6,0,11.1-2.4,15.1-6.5c4-4.1,6.2-9.6,6-15.2l0-0.2l0-0.2c0-0.2,0-0.3,0-0.5c0-0.2,0-0.4-0.1-0.6l0-0.3
						c0-0.3-0.1-0.6-0.1-0.8l0.2-3.2c0-0.1,0-0.2,0.1-0.2l0.1-0.2c0.1-0.6,0.3-1.2,0.5-1.8c0.1-0.3,0.2-0.6,0.4-0.8
						c0.3-0.6,0.5-1.1,0.8-1.6c0.1-0.2,0.3-0.5,0.4-0.7c0.6-0.9,1.1-1.5,1.7-2.1c2.7-2.7,6.4-4.2,10.3-4.2c3.9,0,7.5,1.5,10.3,4.2
						c5.6,5.7,5.6,14.8,0,20.5c-0.6,0.6-1.2,1.1-2,1.7c-0.2,0.2-0.5,0.3-0.7,0.4c-0.5,0.3-1,0.6-1.6,0.8c-0.3,0.1-0.6,0.3-0.8,0.4
						c-0.6,0.2-1.1,0.4-1.8,0.5l-0.3,0.1c-0.1,0-0.2,0-0.2,0.1l-3.3,0.2c-0.4,0-0.8-0.1-1.2-0.1l-0.3,0c-0.1,0-0.2,0-0.4,0l-0.1,0
						l-0.2,0h-0.1c-0.2,0-0.5,0-0.7,0c-5.6,0-11.1,2.4-15.1,6.5c-4,4.1-6.2,9.6-6,15.2l0,0.2l0,0.2c0,0.2,0,0.3,0.1,0.5
						c0,0.2,0,0.4,0.1,0.6c0,0.1,0,0.3,0.1,0.5c0,0.2,0.1,0.4,0.1,0.7v0.1l-0.2,3.1c0,0.1-0.1,0.4-0.1,0.5c-0.2,0.7-0.3,1.3-0.5,1.8
						c-0.1,0.3-0.2,0.6-0.3,0.8c-0.3,0.6-0.5,1.1-0.8,1.6c-0.1,0.2-0.3,0.5-0.5,0.7c-0.5,0.8-1.1,1.4-1.6,2
						C30,117.9,26.4,119.4,22.5,119.4L22.5,119.4z"/>
				</g>
				<path class="st0" d="M61.6,119.4c-3.9,0-7.5-1.5-10.3-4.2c-2.7-2.7-4.2-6.4-4.2-10.2c0-3.9,1.5-7.5,4.2-10.2
					c0.6-0.6,1.2-1.1,2.1-1.7c0.2-0.1,0.4-0.3,0.7-0.4c0.5-0.3,1-0.6,1.6-0.8c0.3-0.1,0.6-0.3,0.8-0.4c0.5-0.2,1.1-0.4,1.7-0.5
					c0,0,0.5-0.1,0.6-0.2l3.3-0.2c0.4,0,0.8,0.1,1.2,0.1l0.2,0c0.2,0,0.3,0,0.4,0c0.1,0,0.1,0,0.2,0l0.1,0l0.1,0c0.2,0,0.5,0,0.7,0
					c5.6,0,11-2.4,15-6.5c4-4.1,6.2-9.6,6-15.2l0-0.7l-0.1-0.1c0,0,0,0,0-0.1c0-0.2,0-0.3,0-0.5l-0.1-0.5c0-0.3-0.1-0.5-0.1-0.8
					l0.2-3.1c0-0.1,0.1-0.5,0.2-0.6c0.2-0.7,0.3-1.3,0.5-1.8c0.1-0.3,0.2-0.6,0.4-0.8c0.2-0.5,0.5-1,0.8-1.6l0.1-0.1
					c0.1-0.2,0.2-0.4,0.4-0.6c0.6-0.9,1.1-1.5,1.7-2.1c2.7-2.7,6.4-4.2,10.3-4.2c3.9,0,7.5,1.5,10.2,4.2c5.6,5.6,5.6,14.9,0,20.5
					c-0.5,0.5-1.2,1.1-2.1,1.7c-0.2,0.1-0.3,0.2-0.5,0.3l-0.3,0.2c-0.5,0.3-1,0.6-1.5,0.8c-0.3,0.1-0.6,0.3-0.9,0.4
					c-0.5,0.2-1.1,0.4-1.8,0.5c-0.1,0-0.3,0.1-0.4,0.1c-0.1,0-0.2,0-0.2,0.1l-3.2,0.2c-0.5,0-1-0.1-1.5-0.2c-0.2,0-0.3,0-0.4,0
					c0,0-0.1,0-0.1,0l-0.3,0c-0.2,0-0.5,0-0.7,0c-5.6,0-11,2.4-15,6.5c-4,4.1-6.2,9.6-6,15.2l0,0.2l0,0.2c0,0.2,0,0.3,0,0.5
					c0,0.2,0,0.3,0,0.5c0,0.1,0,0.3,0,0.5c0,0.2,0.1,0.5,0.1,0.7l-0.2,3.2c0,0.1-0.1,0.5-0.1,0.5c-0.2,0.7-0.3,1.3-0.5,1.8
					c-0.1,0.3-0.2,0.5-0.3,0.8l0,0.1c-0.2,0.5-0.5,1-0.8,1.5c-0.1,0.2-0.3,0.5-0.4,0.7c-0.6,0.8-1.1,1.5-1.7,2.1
					C69.1,117.9,65.5,119.4,61.6,119.4L61.6,119.4z"/>
				<path class="st0" d="M22.5,80.3c-3.9,0-7.5-1.5-10.3-4.2C9.5,73.3,8,69.6,8,65.8c0-3.9,1.5-7.5,4.2-10.2
					c0.6-0.6,1.2-1.1,2.1-1.7c0.2-0.1,0.5-0.3,0.7-0.4c0.5-0.3,1-0.6,1.6-0.8c0.3-0.1,0.6-0.3,0.9-0.4c0.5-0.2,1.1-0.4,1.7-0.5
					l0.4-0.1c0.1,0,0.1,0,0.2-0.1l3.3-0.2c0.4,0,0.9,0.1,1.4,0.1l0.1,0c0.2,0,0.3,0,0.4,0c0,0,0.1,0,0.1,0l0.1,0l0.1,0
					c0.2,0,0.5,0,0.7,0c5.5,0,11-2.4,15-6.5c4-4.1,6.2-9.6,6-15.2l0-0.2l0-0.2c0-0.2,0-0.4,0-0.5c0-0.1,0-0.3,0-0.4l0-0.4
					c0-0.3-0.1-0.5-0.1-0.8l0.2-3l0-0.1v-0.1c0-0.1,0.1-0.5,0.1-0.5c0.2-0.8,0.3-1.3,0.5-1.8c0.1-0.3,0.2-0.5,0.4-0.8
					c0.2-0.5,0.5-1,0.8-1.6l0-0.1c0.1-0.2,0.2-0.4,0.4-0.6c0.6-0.8,1.1-1.5,1.7-2c2.7-2.7,6.4-4.2,10.3-4.2c3.9,0,7.5,1.5,10.3,4.2
					c5.6,5.7,5.6,14.9,0,20.5c-0.6,0.6-1.2,1.1-2,1.7c-0.2,0.2-0.4,0.3-0.6,0.4l-0.1,0.1c-0.5,0.3-1.1,0.6-1.5,0.8
					c-0.3,0.1-0.6,0.3-0.8,0.4c-0.5,0.2-1.1,0.4-1.8,0.5c-0.1,0-0.3,0.1-0.4,0.1c-0.1,0-0.2,0-0.2,0.1l-3.2,0.2
					c-0.4,0-0.8-0.1-1.3-0.1l-0.2,0c-0.1,0-0.3,0-0.4,0c-0.1,0-0.1,0-0.2,0l-0.1,0l-0.1,0c-0.2,0-0.5,0-0.7,0c-5.6,0-11,2.4-15,6.5
					c-4,4.1-6.2,9.6-6,15.2l0,0.2l0,0.2c0,0.2,0,0.3,0.1,0.5c0,0.2,0,0.3,0,0.5c0,0.1,0,0.3,0.1,0.5c0,0.2,0.1,0.5,0.1,0.7l-0.2,3.2
					c0,0.1,0,0.2-0.1,0.2L36.6,69c-0.2,0.7-0.3,1.3-0.5,1.8c-0.1,0.3-0.2,0.6-0.4,0.8c-0.2,0.5-0.5,1-0.8,1.6
					c-0.1,0.3-0.3,0.5-0.4,0.7c-0.6,0.9-1.1,1.5-1.7,2C30,78.8,26.4,80.3,22.5,80.3L22.5,80.3z"/>
			</g>
		</g>
	</g>
	<g>
		<path class="st0" d="M171.3,44.6h-22.8v-16h64.8v16h-23v68.3h-19V44.6z"/>
		<path class="st0" d="M273.6,77.2h-31v20h34.6v15.6h-53.6V28.6h51.9v15.6h-32.9v17.5h31V77.2z"/>
		<path class="st0" d="M352,110.6c-3.4,1.6-11.4,3.6-21.5,3.6c-29.1,0-44.1-18.3-44.1-42.3c0-28.8,20.5-44.6,46-44.6
			c9.9,0,17.4,1.9,20.8,3.8l-4,15c-3.8-1.6-9.1-3.1-16-3.1c-15,0-26.8,9.1-26.8,27.9c0,16.9,10,27.5,26.9,27.5
			c5.9,0,12.1-1.1,16-2.8L352,110.6z"/>
		<path class="st0" d="M383.7,28.6V61h31.4V28.6h19v84.3h-19V77.6h-31.4v35.3h-19V28.6H383.7z"/>
		<path class="st0" d="M451.9,28.6h11v75.1h36v9.1h-47V28.6z"/>
		<path class="st0" d="M578.1,69.9c0,28.9-17.6,44.4-39.1,44.4c-22.4,0-37.9-17.4-37.9-42.9c0-26.8,16.5-44.3,39-44.3
			C563.2,27.1,578.1,44.7,578.1,69.9z M512.6,71.1c0,18.1,9.8,34.3,27,34.3c17.3,0,27-15.9,27-35c0-16.9-8.8-34.4-26.9-34.4
			C521.6,36,512.6,52.7,512.6,71.1z"/>
		<path class="st0" d="M656.5,109.1c-4.9,1.9-14.6,4.6-26,4.6c-12.8,0-23.3-3.2-31.5-11.1c-7.3-7-11.8-18.3-11.8-31.4
			c0-25.1,17.4-43.5,45.6-43.5c9.8,0,17.5,2.1,21.1,3.9l-2.8,8.9c-4.5-2.1-10.1-3.6-18.6-3.6c-20.5,0-33.9,12.8-33.9,33.9
			c0,21.4,12.8,34,32.5,34c7.1,0,12-1,14.5-2.2V77.4h-17v-8.8h27.8V109.1z"/>
		<path class="st0" d="M745,69.9c0,28.9-17.6,44.4-39.1,44.4c-22.4,0-37.9-17.4-37.9-42.9c0-26.8,16.5-44.3,39-44.3
			C730.1,27.1,745,44.7,745,69.9z M679.5,71.1c0,18.1,9.8,34.3,27,34.3c17.3,0,27-15.9,27-35c0-16.9-8.8-34.4-26.9-34.4
			S679.5,52.7,679.5,71.1z"/>
	</g>
</g>
</svg>
