<?xml version="1.0" encoding="utf-8"?>
<!-- Generator: Adobe Illustrator 23.0.2, SVG Export Plug-In . SVG Version: 6.00 Build 0)  -->
<svg version="1.1"
	 id="svg3671" xmlns:cc="http://creativecommons.org/ns#" xmlns:dc="http://purl.org/dc/elements/1.1/" xmlns:inkscape="http://www.inkscape.org/namespaces/inkscape" xmlns:rdf="http://www.w3.org/1999/02/22-rdf-syntax-ns#" xmlns:sodipodi="http://sodipodi.sourceforge.net/DTD/sodipodi-0.dtd" xmlns:svg="http://www.w3.org/2000/svg"
	 xmlns="http://www.w3.org/2000/svg" xmlns:xlink="http://www.w3.org/1999/xlink" x="0px" y="0px" viewBox="0 0 1000 700.2"
	 style="enable-background:new 0 0 1000 700.2;" xml:space="preserve">
<style type="text/css">
	.st0{fill:#303030;}
	.st1{font-family:'AvantGarGotItcLOT-Boo';}
	.st2{font-size:241.1249px;}
	.st3{letter-spacing:-6;}
	.st4{fill:#666666;}
	.st5{font-family:'Montserrat-Light';}
	.st6{font-size:46.207px;}
	.st7{letter-spacing:2;}
	.st8{fill:#808080;}
</style>
<sodipodi:namedview  bordercolor="#666666" borderopacity="1.0" fit-margin-bottom="0.5" fit-margin-left="0.5" fit-margin-right="0.5" fit-margin-top="0.5" id="base" inkscape:current-layer="layer1" inkscape:cx="621.35281" inkscape:cy="283.29076" inkscape:document-units="px" inkscape:pageopacity="0.0" inkscape:pageshadow="2" inkscape:window-height="1041" inkscape:window-maximized="0" inkscape:window-width="1256" inkscape:window-x="657" inkscape:window-y="-21" inkscape:zoom="0.57695313" pagecolor="#ffffff" showgrid="false">
	</sodipodi:namedview>
<g>
	<text transform="matrix(1 0 0 1 27.7832 539.8691)" class="st0 st1 st2 st3">Abstract</text>
	<text transform="matrix(1 0 0 1 324.3027 626.0703)" class="st4 st5 st6 st7">TAGLINE HERE</text>
	<g>
		<path class="st8" d="M376.4,260.5c-14.8,20.6-4,45.9,19,55.3c-0.7,0.7-1.4,1.4-2.2,2.1c-27-7.1-41.1-35-25.1-57.3l146-203.3
			c1.7-2.4,3.7-4.7,6.1-6.7c2.1,0.5,4.2,1.2,6.1,2.1c-1.4,1.5-2.7,3-3.9,4.6L376.4,260.5z"/>
		<path class="st8" d="M552.1,87.7c0,6.8-2.1,13.8-6.8,20.3l-146,203.2c-1.1,1.6-2.5,3.2-3.9,4.6c-23-9.4-33.8-34.7-19-55.3
			l146-203.3c1.2-1.6,2.5-3.2,3.9-4.6C542,59,552.1,73,552.1,87.7z"/>
		<path class="st8" d="M501.5,260.5c-14.8,20.6-4,45.8,19,55.3c-0.7,0.7-1.4,1.4-2.2,2.1c-27.1-7.1-41.2-35-25.1-57.3l71.6-100.1
			c1.7-2.5,3.7-4.7,6.1-6.7c2.1,0.5,4.2,1.2,6.1,2.1c-1.5,1.5-2.7,3-3.9,4.6L501.5,260.5z"/>
		<path class="st8" d="M602.8,190.8c0,6.8-2.1,13.8-6.8,20.2l-71.5,100.1c-1.2,1.6-2.5,3.2-3.9,4.6c-23-9.4-33.8-34.7-19-55.3
			l71.6-100.1c1.1-1.6,2.4-3.2,3.9-4.6C592.7,162.3,602.8,176.2,602.8,190.8z"/>
		<path class="st8" d="M623.2,315.3c-1.2,0.9-2.6,1.7-3.9,2.5c-24.8-12.3-32-42.3-11.1-60.9l13-12.9c2.2-2,4.7-3.8,7.5-5.3
			c1.5,0.7,3,1.6,4.4,2.5c-1.2,0.9-2.4,1.8-3.5,2.8l-13,12.9C596.8,274.4,602,301.8,623.2,315.3z"/>
		<path class="st8" d="M651.2,281.2c-1.6,6.6-5.3,13-11.4,18.4l-13,12.9c-1.1,1-2.3,2-3.6,2.8c-21.2-13.5-26.4-41-6.7-58.4l13-12.9
			c1.1-1,2.3-2,3.5-2.8c0,0,0,0,0,0C647.8,250.5,654.8,266.5,651.2,281.2z"/>
	</g>
</g>
</svg>
