<?xml version="1.0" encoding="utf-8"?>
<!-- Generator: Adobe Illustrator 23.0.2, SVG Export Plug-In . SVG Version: 6.00 Build 0)  -->
<svg version="1.1" id="Layer_1" xmlns="http://www.w3.org/2000/svg" xmlns:xlink="http://www.w3.org/1999/xlink" x="0px" y="0px"
	 viewBox="0 0 91 30.2" style="enable-background:new 0 0 91 30.2;" xml:space="preserve">
<style type="text/css">
	.st0{fill:#505255;}
	.st1{fill:#929291;}
</style>
<g>
	<g>
		<path class="st0" d="M35.4,13.2c-0.7,0-1,0.4-1,1.2v3.1c0,0.8,0.4,1.2,1,1.2c0.9,0,1-0.7,1-1.2c0-0.4,0.4-0.5,0.9-0.5
			c0.6,0,0.9,0.2,0.9,0.9c0,1.5-1.2,2.4-2.9,2.4c-1.5,0-2.8-0.7-2.8-2.7v-3.1c0-2,1.3-2.7,2.8-2.7c1.6,0,2.9,0.8,2.9,2.3
			c0,0.7-0.3,0.9-0.9,0.9c-0.5,0-0.9-0.1-0.9-0.5C36.4,13.9,36.4,13.2,35.4,13.2z"/>
		<path class="st0" d="M41,15.2h1.7c0.3,0,0.5,0.3,0.5,0.7c0,0.3-0.2,0.7-0.5,0.7H41v2h3.1c0.3,0,0.5,0.4,0.5,0.8
			c0,0.4-0.2,0.8-0.5,0.8H40c-0.4,0-0.8-0.2-0.8-0.6v-7.3c0-0.4,0.4-0.6,0.8-0.6h4.1c0.4,0,0.5,0.4,0.5,0.8c0,0.4-0.2,0.8-0.5,0.8
			H41V15.2z"/>
		<path class="st0" d="M45.4,12.2c0-0.3,0.3-0.5,0.7-0.5h2.4c1.5,0,2.7,0.7,2.7,2.7v0.1c0,1.9-1.2,2.7-2.8,2.7h-1.1v2.5
			c0,0.4-0.4,0.6-0.9,0.6c-0.4,0-0.9-0.2-0.9-0.6V12.2z M47.2,13.2v2.4h1.1c0.6,0,1-0.4,1-1.2v-0.1c0-0.8-0.4-1.2-1-1.2H47.2z"/>
		<path class="st0" d="M51.9,12.2c0-0.4,0.4-0.5,0.9-0.5c0.4,0,0.9,0.2,0.9,0.5v7.3c0,0.4-0.4,0.6-0.9,0.6c-0.4,0-0.9-0.2-0.9-0.6
			V12.2z"/>
		<path class="st0" d="M57.8,17.1L56.1,20c-0.1,0.1-0.2,0.2-0.4,0.2c-0.5,0-1.2-0.4-1.2-0.9c0-0.1,0-0.2,0.1-0.3l2-3.1l-1.9-3.1
			c-0.1-0.1-0.1-0.2-0.1-0.4c0-0.5,0.7-0.9,1.2-0.9c0.3,0,0.4,0.1,0.5,0.3l1.5,2.7l1.5-2.7c0.1-0.2,0.3-0.3,0.5-0.3
			c0.5,0,1.2,0.4,1.2,0.9c0,0.1,0,0.2-0.1,0.4L59,15.8l2,3.1c0.1,0.1,0.1,0.2,0.1,0.3c0,0.5-0.7,0.9-1.2,0.9c-0.2,0-0.4-0.1-0.4-0.2
			L57.8,17.1z"/>
		<path class="st0" d="M61.2,19.3c0,0,0-0.1,0-0.1l2.1-7c0.1-0.4,0.6-0.6,1.2-0.6c0.5,0,1,0.2,1.2,0.6l2.2,7c0,0,0,0.1,0,0.1
			c0,0.4-0.7,0.7-1.2,0.7c-0.3,0-0.5-0.1-0.6-0.3l-0.4-1.4h-2.4L63,19.7c-0.1,0.2-0.3,0.3-0.6,0.3C61.9,20.1,61.2,19.8,61.2,19.3z
			 M65.4,16.9l-0.8-3.1l-0.8,3.1H65.4z"/>
		<path class="st0" d="M69.4,20.1c-0.4,0-0.8-0.2-0.8-0.6v-7.3c0-0.4,0.4-0.5,0.9-0.5c0.4,0,0.9,0.2,0.9,0.5v6.3H73
			c0.3,0,0.5,0.4,0.5,0.8c0,0.4-0.2,0.8-0.5,0.8H69.4z"/>
		<path class="st0" d="M78.2,11.6c0.4,0,0.5,0.4,0.5,0.8c0,0.4-0.2,0.8-0.5,0.8h-1.6v6.3c0,0.4-0.4,0.6-0.9,0.6
			c-0.4,0-0.9-0.2-0.9-0.6v-6.3h-1.6c-0.3,0-0.5-0.4-0.5-0.8c0-0.4,0.2-0.8,0.5-0.8H78.2z"/>
		<path class="st0" d="M79.2,17.4v-3.1c0-2,1.2-2.7,2.8-2.7c1.6,0,2.8,0.7,2.8,2.7v3.1c0,2-1.2,2.7-2.8,2.7
			C80.4,20.1,79.2,19.4,79.2,17.4z M83.1,14.4c0-0.8-0.4-1.2-1-1.2s-1,0.4-1,1.2v3.1c0,0.8,0.4,1.2,1,1.2s1-0.4,1-1.2V14.4z"/>
	</g>
	<g>
		<path class="st1" d="M34.7,23.8c0-0.4-1-0.3-1-1c0-0.5,0.4-0.6,0.8-0.6c0.2,0,0.6,0,0.6,0.3c0,0.1-0.1,0.3-0.2,0.3
			c-0.1,0-0.2-0.1-0.4-0.1c-0.2,0-0.3,0.1-0.3,0.2c0,0.3,1,0.3,1,1c0,0.5-0.3,0.7-0.8,0.7c-0.4,0-0.8-0.2-0.8-0.4
			c0-0.1,0.1-0.3,0.2-0.3c0.1,0,0.2,0.2,0.5,0.2C34.5,24.1,34.7,24,34.7,23.8z"/>
		<path class="st1" d="M37.5,24.5c-0.1,0-0.2-0.1-0.2-0.1v-2c0-0.1,0.1-0.1,0.2-0.1c0.1,0,0.2,0,0.2,0.1V24h0.7
			c0.1,0,0.1,0.1,0.1,0.2c0,0.1,0,0.2-0.1,0.2H37.5z"/>
		<path class="st1" d="M40.7,23.7v-0.8c0-0.5,0.3-0.7,0.8-0.7c0.4,0,0.8,0.2,0.8,0.7v0.8c0,0.5-0.3,0.7-0.8,0.7
			C41,24.5,40.7,24.3,40.7,23.7z M41.7,22.9c0-0.2-0.1-0.3-0.3-0.3c-0.2,0-0.3,0.1-0.3,0.3v0.8c0,0.2,0.1,0.3,0.3,0.3
			c0.2,0,0.3-0.1,0.3-0.3V22.9z"/>
		<path class="st1" d="M45.1,22.6c-0.2,0-0.3,0.1-0.3,0.3v0.8c0,0.2,0.1,0.3,0.3,0.3c0.2,0,0.3-0.1,0.3-0.3v-0.1h-0.2
			c-0.1,0-0.1-0.1-0.1-0.2c0-0.1,0.1-0.2,0.1-0.2h0.5c0.1,0,0.1,0.1,0.1,0.2v0.3c0,0.5-0.3,0.7-0.8,0.7c-0.4,0-0.8-0.2-0.8-0.7v-0.8
			c0-0.5,0.3-0.7,0.8-0.7c0.4,0,0.8,0.2,0.8,0.6c0,0.2-0.1,0.2-0.2,0.2c-0.1,0-0.2,0-0.2-0.1C45.4,22.8,45.4,22.6,45.1,22.6z"/>
		<path class="st1" d="M47.9,24.3C47.9,24.2,47.9,24.2,47.9,24.3l0.6-1.9c0-0.1,0.2-0.2,0.3-0.2c0.1,0,0.3,0.1,0.3,0.2l0.6,1.9
			c0,0,0,0,0,0c0,0.1-0.2,0.2-0.3,0.2c-0.1,0-0.1,0-0.2-0.1L49.1,24h-0.7l-0.1,0.4c0,0.1-0.1,0.1-0.2,0.1
			C48.1,24.5,47.9,24.4,47.9,24.3z M49,23.6l-0.2-0.8l-0.2,0.8H49z"/>
		<path class="st1" d="M52.8,24.3l-0.6-1.1v1.1c0,0.1-0.1,0.1-0.2,0.1c-0.1,0-0.2-0.1-0.2-0.1v-2c0-0.1,0.1-0.2,0.2-0.2
			c0.2,0,0.2,0,0.4,0.2l0.5,1v-1.1c0-0.1,0.1-0.1,0.2-0.1c0.1,0,0.2,0,0.2,0.1v2c0,0.1-0.1,0.1-0.2,0.1C53,24.5,52.9,24.4,52.8,24.3
			z"/>
		<path class="st1" d="M56.9,22.6c-0.2,0-0.3,0.1-0.3,0.3v0.8c0,0.2,0.1,0.3,0.3,0.3c0.2,0,0.3-0.1,0.3-0.3v-0.1H57
			c-0.1,0-0.1-0.1-0.1-0.2c0-0.1,0.1-0.2,0.1-0.2h0.5c0.1,0,0.1,0.1,0.1,0.2v0.3c0,0.5-0.3,0.7-0.8,0.7c-0.4,0-0.8-0.2-0.8-0.7v-0.8
			c0-0.5,0.3-0.7,0.8-0.7c0.4,0,0.8,0.2,0.8,0.6c0,0.2-0.1,0.2-0.2,0.2c-0.1,0-0.2,0-0.2-0.1C57.2,22.8,57.2,22.6,56.9,22.6z"/>
		<path class="st1" d="M59.8,23.7v-0.8c0-0.5,0.3-0.7,0.8-0.7c0.4,0,0.8,0.2,0.8,0.7v0.8c0,0.5-0.3,0.7-0.8,0.7
			C60.2,24.5,59.8,24.3,59.8,23.7z M60.9,22.9c0-0.2-0.1-0.3-0.3-0.3c-0.2,0-0.3,0.1-0.3,0.3v0.8c0,0.2,0.1,0.3,0.3,0.3
			c0.2,0,0.3-0.1,0.3-0.3V22.9z"/>
		<path class="st1" d="M64.1,23.1h0.5c0.1,0,0.1,0.1,0.1,0.2c0,0.1,0,0.2-0.1,0.2h-0.5V24h0.8c0.1,0,0.1,0.1,0.1,0.2
			c0,0.1,0,0.2-0.1,0.2h-1.1c-0.1,0-0.2-0.1-0.2-0.1v-2c0-0.1,0.1-0.2,0.2-0.2h1.1c0.1,0,0.1,0.1,0.1,0.2c0,0.1-0.1,0.2-0.1,0.2
			h-0.8V23.1z"/>
		<path class="st1" d="M68.1,23.8c0-0.4-1-0.3-1-1c0-0.5,0.4-0.6,0.8-0.6c0.2,0,0.6,0,0.6,0.3c0,0.1-0.1,0.3-0.2,0.3
			c-0.1,0-0.2-0.1-0.4-0.1c-0.2,0-0.3,0.1-0.3,0.2c0,0.3,1,0.3,1,1c0,0.5-0.3,0.7-0.8,0.7c-0.4,0-0.8-0.2-0.8-0.4
			c0-0.1,0.1-0.3,0.2-0.3c0.1,0,0.2,0.2,0.5,0.2C67.9,24.1,68.1,24,68.1,23.8z"/>
		<path class="st1" d="M72.4,23.5h-0.6v0.8c0,0.1-0.1,0.1-0.2,0.1c-0.1,0-0.2-0.1-0.2-0.1v-2c0-0.1,0.1-0.1,0.2-0.1
			c0.1,0,0.2,0,0.2,0.1v0.8h0.6v-0.8c0-0.1,0.1-0.1,0.2-0.1s0.2,0,0.2,0.1v2c0,0.1-0.1,0.1-0.2,0.1s-0.2-0.1-0.2-0.1V23.5z"/>
		<path class="st1" d="M75.6,23.1h0.5c0.1,0,0.1,0.1,0.1,0.2c0,0.1,0,0.2-0.1,0.2h-0.5V24h0.8c0.1,0,0.1,0.1,0.1,0.2
			c0,0.1,0,0.2-0.1,0.2h-1.1c-0.1,0-0.2-0.1-0.2-0.1v-2c0-0.1,0.1-0.2,0.2-0.2h1.1c0.1,0,0.1,0.1,0.1,0.2c0,0.1-0.1,0.2-0.1,0.2
			h-0.8V23.1z"/>
		<path class="st1" d="M78.7,22.3c0-0.1,0.1-0.1,0.2-0.1h0.6c0.4,0,0.8,0.2,0.8,0.7c0,0.4-0.2,0.6-0.4,0.6l0.4,0.7c0,0,0,0,0,0.1
			c0,0.1-0.2,0.3-0.3,0.3c-0.1,0-0.1,0-0.2-0.1l-0.4-0.8h-0.2v0.8c0,0.1-0.1,0.1-0.2,0.1c-0.1,0-0.2-0.1-0.2-0.1V22.3z M79.2,22.6
			v0.6h0.3c0.2,0,0.3-0.1,0.3-0.3c0-0.2-0.1-0.3-0.3-0.3H79.2z"/>
		<path class="st1" d="M82.9,23.1h0.5c0.1,0,0.1,0.1,0.1,0.2c0,0.1,0,0.2-0.1,0.2h-0.5V24h0.8c0.1,0,0.1,0.1,0.1,0.2
			c0,0.1,0,0.2-0.1,0.2h-1.1c-0.1,0-0.2-0.1-0.2-0.1v-2c0-0.1,0.1-0.2,0.2-0.2h1.1c0.1,0,0.1,0.1,0.1,0.2c0,0.1-0.1,0.2-0.1,0.2
			h-0.8V23.1z"/>
	</g>
	<g>
		<path class="st1" d="M9.6,14.9c0.9,0,1.6-0.7,1.6-1.6c0-0.9-0.7-1.6-1.6-1.6c-0.9,0-1.6,0.7-1.6,1.6C8,14.2,8.7,14.9,9.6,14.9z"/>
		<path class="st1" d="M5.2,12.7c0.7,0.4,1.7,0.2,2.1-0.6c0.4-0.7,0.2-1.7-0.6-2.1C6,9.5,5.1,9.8,4.6,10.5
			C4.2,11.3,4.5,12.2,5.2,12.7z"/>
		<path class="st1" d="M22.8,19.2c-1,1-2.4,1.6-3.8,1.6c-1.4,0-2.8-0.6-3.8-1.6c-1-1-1.6-2.4-1.6-3.8c0-1.4,0.6-2.8,1.6-3.8
			c1-1,2.4-1.6,3.8-1.6c1.4,0,2.8,0.6,3.8,1.6c1.1,1.1,2.8,1.1,3.8,0c1.1-1.1,1.1-2.8,0-3.8c-2-2-4.7-3.2-7.6-3.2
			c-1.4,0-2.8,0.3-4,0.8c0.2,0.4,0.4,0.9,0.4,1.5c0,1.6-1.3,2.9-2.9,2.9c-0.2,0-0.5,0-0.7-0.1c0,0.5-0.2,1.1-0.6,1.5c0,0,0,0,0,0
			c0.7,0.5,1.1,1.2,1.1,2.1c0,0.7-0.3,1.3-0.8,1.8c-0.1,0.1-0.1,0.1-0.2,0.2c1,0.6,1.7,1.6,1.7,2.9c0,0.9-0.3,1.7-1,2.3
			c-0.5,0.5-1.1,0.8-1.8,0.9c0.4,0.5,0.8,1.1,1.3,1.5c2,2,4.7,3.2,7.6,3.2c2.9,0,5.6-1.1,7.6-3.2c1.1-1.1,1.1-2.8,0-3.8
			C25.6,18.2,23.8,18.2,22.8,19.2z"/>
		<path class="st1" d="M9.6,20.5c1.3,0,2.3-1,2.3-2.3c0-1.3-1-2.3-2.3-2.3c-1.3,0-2.3,1-2.3,2.3C7.3,19.5,8.3,20.5,9.6,20.5z"/>
		<path class="st1" d="M14.3,6.9c0-1-0.9-1.9-1.9-1.9c-1,0-1.9,0.9-1.9,1.9c0,1,0.9,1.9,1.9,1.9C13.5,8.8,14.3,7.9,14.3,6.9z"/>
		<path class="st1" d="M10.3,10.5c0.4-0.4,0.4-1.1,0-1.5c-0.4-0.4-1.1-0.4-1.5,0c-0.4,0.4-0.4,1.1,0,1.5
			C9.2,10.9,9.9,10.9,10.3,10.5z"/>
		<path class="st1" d="M8.1,7.1c-0.3-0.3-0.8-0.3-1.2,0c-0.3,0.3-0.3,0.8,0,1.2c0.3,0.3,0.8,0.3,1.2,0C8.4,7.9,8.4,7.4,8.1,7.1z"/>
		<path class="st1" d="M8.1,5.2c0-0.3-0.3-0.6-0.6-0.6c-0.3,0-0.6,0.3-0.6,0.6c0,0.3,0.3,0.6,0.6,0.6C7.8,5.8,8.1,5.5,8.1,5.2z"/>
	</g>
</g>
</svg>
