<?xml version="1.0" encoding="utf-8"?>
<!-- Generator: Adobe Illustrator 23.0.2, SVG Export Plug-In . SVG Version: 6.00 Build 0)  -->
<svg version="1.1" id="Layer_1" xmlns="http://www.w3.org/2000/svg" xmlns:xlink="http://www.w3.org/1999/xlink" x="0px" y="0px"
	 viewBox="0 0 91 30.2" style="enable-background:new 0 0 91 30.2;" xml:space="preserve">
<style type="text/css">
	.st0{fill:#A6A8AB;}
</style>
<g>
	<g>
		<path class="st0" d="M27.8,10.1c-0.8,0-1.3,0.5-1.3,1.4v3.8c0,1,0.5,1.4,1.3,1.4c1.2,0,1.2-0.9,1.3-1.4c0-0.5,0.5-0.7,1.1-0.7
			c0.8,0,1.1,0.2,1.1,1.1c0,1.9-1.6,3-3.6,3c-1.9,0-3.5-0.9-3.5-3.4v-3.8c0-2.5,1.6-3.4,3.5-3.4c2.1,0,3.6,1,3.6,2.9
			c0,0.9-0.4,1.1-1.1,1.1c-0.6,0-1.1-0.2-1.1-0.7C29.1,11.1,29,10.1,27.8,10.1z"/>
		<path class="st0" d="M34.7,12.6h2.2c0.4,0,0.7,0.4,0.7,0.9c0,0.4-0.2,0.8-0.7,0.8h-2.2v2.4h3.9c0.4,0,0.7,0.5,0.7,1
			c0,0.5-0.2,1-0.7,1h-5.1c-0.5,0-1-0.2-1-0.7V8.9c0-0.5,0.5-0.7,1-0.7h5.1c0.5,0,0.7,0.5,0.7,1c0,0.5-0.2,1-0.7,1h-3.9V12.6z"/>
		<path class="st0" d="M40.2,8.9c0-0.4,0.3-0.7,0.8-0.7h3c1.9,0,3.4,0.9,3.4,3.3v0.1c0,2.4-1.6,3.3-3.5,3.3h-1.4V18
			c0,0.5-0.6,0.7-1.1,0.7c-0.6,0-1.1-0.2-1.1-0.7V8.9z M42.5,10.1v3h1.4c0.8,0,1.3-0.5,1.3-1.4v-0.2c0-1-0.5-1.4-1.3-1.4H42.5z"/>
		<path class="st0" d="M48.4,8.9c0-0.5,0.6-0.7,1.1-0.7c0.6,0,1.1,0.2,1.1,0.7V18c0,0.5-0.6,0.7-1.1,0.7c-0.6,0-1.1-0.2-1.1-0.7V8.9
			z"/>
		<path class="st0" d="M55.7,15l-2.1,3.6c-0.1,0.2-0.3,0.2-0.5,0.2c-0.6,0-1.5-0.5-1.5-1.1c0-0.1,0-0.3,0.1-0.4l2.5-3.8l-2.4-3.8
			c-0.1-0.2-0.1-0.3-0.1-0.4c0-0.6,0.8-1.1,1.5-1.1c0.3,0,0.5,0.1,0.7,0.4l1.9,3.3l1.9-3.3c0.1-0.3,0.4-0.4,0.7-0.4
			c0.6,0,1.5,0.5,1.5,1.1c0,0.1,0,0.3-0.1,0.4l-2.4,3.8l2.5,3.8c0.1,0.1,0.1,0.3,0.1,0.4c0,0.6-0.9,1.1-1.5,1.1
			c-0.2,0-0.4-0.1-0.5-0.2L55.7,15z"/>
		<path class="st0" d="M60,17.8c0,0,0-0.1,0-0.2l2.7-8.8c0.2-0.5,0.8-0.7,1.5-0.7c0.7,0,1.3,0.2,1.5,0.7l2.7,8.8c0,0.1,0,0.1,0,0.2
			c0,0.5-0.8,0.9-1.4,0.9c-0.4,0-0.6-0.1-0.7-0.4l-0.5-1.8h-3l-0.5,1.8c-0.1,0.3-0.4,0.4-0.7,0.4C60.8,18.7,60,18.3,60,17.8z
			 M65.2,14.8l-1.1-3.9l-1.1,3.9H65.2z"/>
		<path class="st0" d="M70.2,18.7c-0.5,0-1-0.2-1-0.7V8.9c0-0.5,0.6-0.7,1.1-0.7c0.6,0,1.1,0.2,1.1,0.7v7.9h3.3c0.4,0,0.6,0.5,0.6,1
			c0,0.5-0.2,1-0.6,1H70.2z"/>
		<path class="st0" d="M81.2,8.2c0.5,0,0.7,0.5,0.7,1c0,0.5-0.2,1-0.7,1h-2V18c0,0.5-0.6,0.7-1.1,0.7c-0.6,0-1.1-0.2-1.1-0.7v-7.8
			h-2c-0.4,0-0.7-0.5-0.7-1c0-0.5,0.2-1,0.7-1H81.2z"/>
		<path class="st0" d="M82.5,15.4v-3.8c0-2.5,1.5-3.4,3.5-3.4c2,0,3.5,0.9,3.5,3.4v3.8c0,2.5-1.6,3.4-3.5,3.4
			C84,18.8,82.5,17.9,82.5,15.4z M87.3,11.6c0-1-0.5-1.4-1.3-1.4c-0.8,0-1.3,0.4-1.3,1.4v3.8c0,1,0.5,1.4,1.3,1.4
			c0.8,0,1.3-0.4,1.3-1.4V11.6z"/>
	</g>
	<g>
		<path class="st0" d="M26.9,23.4c0-0.5-1.2-0.4-1.2-1.3c0-0.6,0.5-0.8,1-0.8c0.2,0,0.8,0,0.8,0.3c0,0.1-0.1,0.3-0.2,0.3
			c-0.1,0-0.2-0.1-0.5-0.1c-0.3,0-0.4,0.1-0.4,0.2c0,0.4,1.2,0.3,1.2,1.3c0,0.6-0.4,0.9-1,0.9c-0.5,0-0.9-0.2-0.9-0.5
			c0-0.1,0.1-0.3,0.3-0.3c0.2,0,0.3,0.3,0.7,0.3C26.7,23.7,26.9,23.6,26.9,23.4z"/>
		<path class="st0" d="M30.4,24.2c-0.1,0-0.3-0.1-0.3-0.2v-2.5c0-0.1,0.2-0.2,0.3-0.2c0.2,0,0.3,0.1,0.3,0.2v2.1h0.9
			c0.1,0,0.2,0.1,0.2,0.3c0,0.1-0.1,0.3-0.2,0.3H30.4z"/>
		<path class="st0" d="M34.3,23.3v-1c0-0.7,0.4-0.9,1-0.9c0.5,0,1,0.2,1,0.9v1c0,0.7-0.4,0.9-1,0.9C34.8,24.2,34.3,24,34.3,23.3z
			 M35.6,22.3c0-0.3-0.1-0.4-0.4-0.4c-0.2,0-0.3,0.1-0.3,0.4v1c0,0.3,0.1,0.4,0.3,0.4c0.2,0,0.4-0.1,0.4-0.4V22.3z"/>
		<path class="st0" d="M39.9,21.9c-0.2,0-0.4,0.1-0.4,0.4v1c0,0.3,0.1,0.4,0.3,0.4c0.2,0,0.4-0.1,0.4-0.4v-0.1H40
			c-0.1,0-0.2-0.1-0.2-0.2c0-0.1,0.1-0.2,0.2-0.2h0.7c0.1,0,0.2,0.1,0.2,0.2v0.4c0,0.7-0.4,0.9-1,0.9c-0.5,0-1-0.2-1-0.9v-1
			c0-0.7,0.4-0.9,0.9-0.9c0.6,0,1,0.3,1,0.8c0,0.2-0.1,0.3-0.3,0.3c-0.2,0-0.3,0-0.3-0.2C40.3,22.1,40.2,21.9,39.9,21.9z"/>
		<path class="st0" d="M43.4,24C43.4,23.9,43.4,23.9,43.4,24l0.7-2.4c0-0.1,0.2-0.2,0.4-0.2c0.2,0,0.4,0.1,0.4,0.2l0.7,2.4
			c0,0,0,0,0,0c0,0.1-0.2,0.2-0.4,0.2c-0.1,0-0.2,0-0.2-0.1l-0.1-0.5h-0.8L44,24.1c0,0.1-0.1,0.1-0.2,0.1
			C43.6,24.2,43.4,24.1,43.4,24z M44.8,23.1l-0.3-1l-0.3,1H44.8z"/>
		<path class="st0" d="M49.6,24l-0.7-1.4V24c0,0.1-0.2,0.2-0.3,0.2c-0.2,0-0.3-0.1-0.3-0.2v-2.5c0-0.1,0.2-0.2,0.3-0.2
			c0.2,0,0.3,0,0.4,0.3l0.6,1.2v-1.3c0-0.1,0.2-0.2,0.3-0.2c0.2,0,0.3,0.1,0.3,0.2V24c0,0.1-0.2,0.2-0.3,0.2
			C49.8,24.2,49.6,24.2,49.6,24z"/>
		<path class="st0" d="M54.7,21.9c-0.2,0-0.4,0.1-0.4,0.4v1c0,0.3,0.1,0.4,0.3,0.4c0.2,0,0.4-0.1,0.4-0.4v-0.1h-0.2
			c-0.1,0-0.2-0.1-0.2-0.2c0-0.1,0.1-0.2,0.2-0.2h0.7c0.1,0,0.2,0.1,0.2,0.2v0.4c0,0.7-0.4,0.9-1,0.9c-0.5,0-1-0.2-1-0.9v-1
			c0-0.7,0.4-0.9,0.9-0.9c0.6,0,1,0.3,1,0.8c0,0.2-0.1,0.3-0.3,0.3c-0.2,0-0.3,0-0.3-0.2C55,22.1,55,21.9,54.7,21.9z"/>
		<path class="st0" d="M58.3,23.3v-1c0-0.7,0.4-0.9,1-0.9c0.5,0,1,0.2,1,0.9v1c0,0.7-0.4,0.9-1,0.9C58.7,24.2,58.3,24,58.3,23.3z
			 M59.6,22.3c0-0.3-0.1-0.4-0.4-0.4c-0.2,0-0.3,0.1-0.3,0.4v1c0,0.3,0.1,0.4,0.3,0.4c0.2,0,0.4-0.1,0.4-0.4V22.3z"/>
		<path class="st0" d="M63.6,22.5h0.6c0.1,0,0.2,0.1,0.2,0.2c0,0.1-0.1,0.2-0.2,0.2h-0.6v0.7h1c0.1,0,0.2,0.1,0.2,0.3
			c0,0.1-0.1,0.3-0.2,0.3h-1.4c-0.1,0-0.3-0.1-0.3-0.2v-2.5c0-0.1,0.1-0.2,0.3-0.2h1.4c0.1,0,0.2,0.1,0.2,0.3c0,0.1-0.1,0.3-0.2,0.3
			h-1V22.5z"/>
		<path class="st0" d="M68.6,23.4c0-0.5-1.2-0.4-1.2-1.3c0-0.6,0.5-0.8,1-0.8c0.2,0,0.8,0,0.8,0.3c0,0.1-0.1,0.3-0.2,0.3
			c-0.1,0-0.2-0.1-0.5-0.1c-0.3,0-0.4,0.1-0.4,0.2c0,0.4,1.2,0.3,1.2,1.3c0,0.6-0.4,0.9-1,0.9c-0.5,0-0.9-0.2-0.9-0.5
			c0-0.1,0.1-0.3,0.3-0.3c0.2,0,0.3,0.3,0.7,0.3C68.4,23.7,68.6,23.6,68.6,23.4z"/>
		<path class="st0" d="M74,23h-0.8V24c0,0.1-0.2,0.2-0.3,0.2c-0.2,0-0.3-0.1-0.3-0.2v-2.5c0-0.1,0.2-0.2,0.3-0.2
			c0.2,0,0.3,0.1,0.3,0.2v1H74v-1c0-0.1,0.2-0.2,0.3-0.2s0.3,0.1,0.3,0.2V24c0,0.1-0.2,0.2-0.3,0.2S74,24.1,74,24V23z"/>
		<path class="st0" d="M78,22.5h0.6c0.1,0,0.2,0.1,0.2,0.2c0,0.1-0.1,0.2-0.2,0.2H78v0.7h1c0.1,0,0.2,0.1,0.2,0.3
			c0,0.1-0.1,0.3-0.2,0.3h-1.4c-0.1,0-0.3-0.1-0.3-0.2v-2.5c0-0.1,0.1-0.2,0.3-0.2H79c0.1,0,0.2,0.1,0.2,0.3c0,0.1-0.1,0.3-0.2,0.3
			h-1V22.5z"/>
		<path class="st0" d="M81.8,21.5c0-0.1,0.1-0.2,0.2-0.2h0.8c0.5,0,1,0.2,1,0.8c0,0.4-0.2,0.7-0.5,0.8l0.5,0.9c0,0,0,0.1,0,0.1
			c0,0.2-0.2,0.3-0.4,0.3c-0.1,0-0.2,0-0.2-0.1l-0.5-1h-0.3V24c0,0.1-0.2,0.2-0.3,0.2c-0.2,0-0.3-0.1-0.3-0.2V21.5z M82.4,21.9v0.7
			h0.4c0.2,0,0.4-0.1,0.4-0.4c0-0.3-0.1-0.4-0.4-0.4H82.4z"/>
		<path class="st0" d="M87,22.5h0.6c0.1,0,0.2,0.1,0.2,0.2c0,0.1-0.1,0.2-0.2,0.2H87v0.7h1c0.1,0,0.2,0.1,0.2,0.3
			c0,0.1-0.1,0.3-0.2,0.3h-1.4c-0.1,0-0.3-0.1-0.3-0.2v-2.5c0-0.1,0.1-0.2,0.3-0.2h1.4c0.1,0,0.2,0.1,0.2,0.3c0,0.1-0.1,0.3-0.2,0.3
			h-1V22.5z"/>
	</g>
	<g>
		<path class="st0" d="M6.3,14.7c0.7,0,1.3-0.6,1.3-1.3c0-0.7-0.6-1.3-1.3-1.3c-0.7,0-1.3,0.6-1.3,1.3C5,14.1,5.6,14.7,6.3,14.7z"/>
		<path class="st0" d="M2.7,12.8c0.6,0.4,1.4,0.1,1.7-0.5c0.4-0.6,0.1-1.4-0.5-1.7c-0.6-0.4-1.4-0.1-1.7,0.5
			C1.9,11.7,2.1,12.4,2.7,12.8z"/>
		<path class="st0" d="M17.1,18.1c-0.8,0.8-1.9,1.3-3.1,1.3c-1.2,0-2.3-0.5-3.1-1.3C10,17.3,9.6,16.2,9.6,15c0-1.2,0.5-2.3,1.3-3.1
			c0.8-0.8,1.9-1.3,3.1-1.3c1.2,0,2.3,0.5,3.1,1.3c0.9,0.9,2.3,0.9,3.1,0c0.9-0.9,0.9-2.3,0-3.1c-1.7-1.7-3.9-2.6-6.2-2.6
			c-1.1,0-2.3,0.2-3.3,0.6C10.9,7.2,11,7.6,11,8.1c0,1.3-1.1,2.4-2.4,2.4c-0.2,0-0.4,0-0.6-0.1c0,0.4-0.2,0.9-0.5,1.2c0,0,0,0,0,0
			c0.6,0.4,0.9,1,0.9,1.7c0,0.6-0.2,1.1-0.6,1.5c0,0-0.1,0.1-0.2,0.1C8.4,15.5,9,16.4,9,17.4c0,0.7-0.3,1.4-0.8,1.9
			c-0.4,0.4-0.9,0.7-1.5,0.8c0.3,0.4,0.7,0.9,1,1.3c1.7,1.7,3.9,2.6,6.2,2.6c2.4,0,4.6-0.9,6.2-2.6c0.9-0.9,0.9-2.3,0-3.1
			C19.4,17.3,18,17.3,17.1,18.1z"/>
		<path class="st0" d="M6.3,19.2c1,0,1.9-0.8,1.9-1.9c0-1-0.8-1.9-1.9-1.9c-1,0-1.9,0.8-1.9,1.9C4.4,18.4,5.3,19.2,6.3,19.2z"/>
		<path class="st0" d="M10.2,8.1c0-0.9-0.7-1.6-1.6-1.6c-0.9,0-1.6,0.7-1.6,1.6c0,0.9,0.7,1.6,1.6,1.6C9.5,9.6,10.2,8.9,10.2,8.1z"
			/>
		<path class="st0" d="M6.9,11c0.3-0.3,0.3-0.9,0-1.3C6.6,9.4,6,9.4,5.7,9.7c-0.3,0.3-0.3,0.9,0,1.3C6,11.4,6.6,11.4,6.9,11z"/>
		<path class="st0" d="M5.1,8.2C4.8,8,4.4,8,4.1,8.2c-0.3,0.3-0.3,0.7,0,0.9c0.3,0.3,0.7,0.3,0.9,0C5.3,8.9,5.3,8.5,5.1,8.2z"/>
		<path class="st0" d="M5.1,6.7c0-0.3-0.2-0.5-0.5-0.5c-0.3,0-0.5,0.2-0.5,0.5c0,0.3,0.2,0.5,0.5,0.5C4.9,7.2,5.1,7,5.1,6.7z"/>
	</g>
</g>
</svg>
