<?xml version="1.0" encoding="utf-8"?>
<!-- Generator: Adobe Illustrator 23.0.2, SVG Export Plug-In . SVG Version: 6.00 Build 0)  -->
<svg version="1.1" id="Layer_2_1_" xmlns="http://www.w3.org/2000/svg" xmlns:xlink="http://www.w3.org/1999/xlink" x="0px" y="0px"
	 viewBox="0 0 1067.7 1056.3" style="enable-background:new 0 0 1067.7 1056.3;" xml:space="preserve">
<style type="text/css">
	.st0{fill:url(#SVGID_1_);}
	.st1{fill:url(#SVGID_2_);}
	.st2{fill:url(#SVGID_3_);}
	.st3{fill:url(#SVGID_4_);}
	.st4{fill:url(#SVGID_5_);}
	.st5{fill:url(#SVGID_6_);}
	.st6{fill:url(#SVGID_7_);}
	.st7{fill:url(#SVGID_8_);}
	.st8{fill:url(#SVGID_9_);}
	.st9{fill:url(#SVGID_10_);}
	.st10{fill:url(#SVGID_11_);}
	.st11{fill:url(#SVGID_12_);}
	.st12{fill:url(#SVGID_13_);}
	.st13{fill:url(#SVGID_14_);}
	.st14{fill:url(#SVGID_15_);}
	.st15{fill:url(#SVGID_16_);}
	.st16{fill:url(#SVGID_17_);}
	.st17{fill:url(#SVGID_18_);}
	.st18{fill:url(#SVGID_19_);}
	.st19{fill:url(#SVGID_20_);}
	.st20{fill:url(#SVGID_21_);}
	.st21{fill:url(#SVGID_22_);}
	.st22{fill:url(#SVGID_23_);}
	.st23{fill:url(#SVGID_24_);}
	.st24{fill:url(#SVGID_25_);}
	.st25{fill:url(#SVGID_26_);}
	.st26{fill:url(#SVGID_27_);}
	.st27{fill:url(#SVGID_28_);}
	.st28{fill:url(#SVGID_29_);}
	.st29{fill:url(#SVGID_30_);}
	.st30{fill:url(#SVGID_31_);}
	.st31{fill:url(#SVGID_32_);}
	.st32{fill:url(#SVGID_33_);}
	.st33{fill:url(#SVGID_34_);}
</style>
<g>
	<g>
		
			<linearGradient id="SVGID_1_" gradientUnits="userSpaceOnUse" x1="701.6853" y1="833.3251" x2="993.2891" y2="585.1518" gradientTransform="matrix(1 0 0 -1 3.9975 989.0119)">
			<stop  offset="0" style="stop-color:#F3D906"/>
			<stop  offset="0.495" style="stop-color:#E97B1A"/>
			<stop  offset="1" style="stop-color:#DF1A2E"/>
		</linearGradient>
		<path class="st0" d="M763.1,164.5l-38.9,43.5c-1.4,3-2.7,6-4,9.2l50-55.9C767.7,162.3,765.3,163.3,763.1,164.5z"/>
		
			<linearGradient id="SVGID_2_" gradientUnits="userSpaceOnUse" x1="710.8423" y1="816.5913" x2="950.7176" y2="612.4422" gradientTransform="matrix(1 0 0 -1 3.9975 989.0119)">
			<stop  offset="0" style="stop-color:#F3D906"/>
			<stop  offset="0.495" style="stop-color:#E97B1A"/>
			<stop  offset="1" style="stop-color:#DF1A2E"/>
		</linearGradient>
		<path class="st1" d="M793.2,155.6l-83,92.9c-0.6,2.1-1.1,4.4-1.6,6.5l89.3-99.9C796.3,155.3,794.7,155.5,793.2,155.6z"/>
		
			<linearGradient id="SVGID_3_" gradientUnits="userSpaceOnUse" x1="716.003" y1="802.4409" x2="937.9144" y2="613.5801" gradientTransform="matrix(1 0 0 -1 3.9975 989.0119)">
			<stop  offset="0" style="stop-color:#F3D906"/>
			<stop  offset="0.495" style="stop-color:#E97B1A"/>
			<stop  offset="1" style="stop-color:#DF1A2E"/>
		</linearGradient>
		<path class="st2" d="M816,154.9L702.9,281.6c-0.4,2-0.8,4-1.2,6l118.4-132.5C818.7,155.1,817.4,155,816,154.9z"/>
		
			<linearGradient id="SVGID_4_" gradientUnits="userSpaceOnUse" x1="720.6172" y1="788.1819" x2="929.9165" y2="610.0549" gradientTransform="matrix(1 0 0 -1 3.9975 989.0119)">
			<stop  offset="0" style="stop-color:#F3D906"/>
			<stop  offset="0.495" style="stop-color:#E97B1A"/>
			<stop  offset="1" style="stop-color:#DF1A2E"/>
		</linearGradient>
		<path class="st3" d="M836.7,156.6L697.1,312.9c-0.4,2-0.7,4-1.1,6l144.5-161.8C839.3,156.9,838,156.7,836.7,156.6z"/>
		
			<linearGradient id="SVGID_5_" gradientUnits="userSpaceOnUse" x1="723.3872" y1="773.8996" x2="927.6076" y2="600.095" gradientTransform="matrix(1 0 0 -1 3.9975 989.0119)">
			<stop  offset="0" style="stop-color:#F3D906"/>
			<stop  offset="0.495" style="stop-color:#E97B1A"/>
			<stop  offset="1" style="stop-color:#DF1A2E"/>
		</linearGradient>
		<path class="st4" d="M856.1,159.8L691.3,344.3c-0.4,2.1-0.8,4.1-1.2,6.1l169.5-189.7C858.4,160.3,857.2,160.1,856.1,159.8z"/>
		
			<linearGradient id="SVGID_6_" gradientUnits="userSpaceOnUse" x1="725.2104" y1="757.6377" x2="923.6825" y2="588.7253" gradientTransform="matrix(1 0 0 -1 3.9975 989.0119)">
			<stop  offset="0" style="stop-color:#F3D906"/>
			<stop  offset="0.495" style="stop-color:#E97B1A"/>
			<stop  offset="1" style="stop-color:#DF1A2E"/>
		</linearGradient>
		<path class="st5" d="M874.2,164.5l-190,212.7c-0.5,2.2-1.1,4.4-1.7,6.6l195-218.2C876.4,165.1,875.3,164.8,874.2,164.5z"/>
		
			<linearGradient id="SVGID_7_" gradientUnits="userSpaceOnUse" x1="724.3841" y1="738.554" x2="918.4838" y2="573.3627" gradientTransform="matrix(1 0 0 -1 3.9975 989.0119)">
			<stop  offset="0" style="stop-color:#F3D906"/>
			<stop  offset="0.495" style="stop-color:#E97B1A"/>
			<stop  offset="1" style="stop-color:#DF1A2E"/>
		</linearGradient>
		<path class="st6" d="M891.3,170.2L673.5,413.9c-0.9,2.6-1.8,5.3-2.8,7.9l223.7-250.4C893.3,171,892.3,170.6,891.3,170.2z"/>
		
			<linearGradient id="SVGID_8_" gradientUnits="userSpaceOnUse" x1="719.4312" y1="713.5724" x2="908.4835" y2="552.6769" gradientTransform="matrix(1 0 0 -1 3.9975 989.0119)">
			<stop  offset="0" style="stop-color:#F3D906"/>
			<stop  offset="0.495" style="stop-color:#E97B1A"/>
			<stop  offset="1" style="stop-color:#DF1A2E"/>
		</linearGradient>
		<path class="st7" d="M907.4,177L651,464l-0.6,5.4l260-290.9C909.4,177.9,908.4,177.4,907.4,177z"/>
		
			<linearGradient id="SVGID_9_" gradientUnits="userSpaceOnUse" x1="696.2252" y1="665.1949" x2="877.9641" y2="510.5236" gradientTransform="matrix(1 0 0 -1 3.9975 989.0119)">
			<stop  offset="0" style="stop-color:#F3D906"/>
			<stop  offset="0.495" style="stop-color:#E97B1A"/>
			<stop  offset="1" style="stop-color:#DF1A2E"/>
		</linearGradient>
		<path class="st8" d="M922.6,184.7L593.2,553.5c-0.7,2.3-1.3,4.6-1.9,6.8l334.2-374C924.5,185.8,923.6,185.3,922.6,184.7z"/>
		
			<linearGradient id="SVGID_10_" gradientUnits="userSpaceOnUse" x1="698.1083" y1="649.7368" x2="877.9492" y2="496.6807" gradientTransform="matrix(1 0 0 -1 3.9975 989.0119)">
			<stop  offset="0" style="stop-color:#F3D906"/>
			<stop  offset="0.495" style="stop-color:#E97B1A"/>
			<stop  offset="1" style="stop-color:#DF1A2E"/>
		</linearGradient>
		<path class="st9" d="M937.1,193.4L588.1,584c0,1.6,0,3.2,0,4.7l351.6-393.6C938.9,194.6,938,194,937.1,193.4z"/>
		
			<linearGradient id="SVGID_11_" gradientUnits="userSpaceOnUse" x1="702.2069" y1="637.6827" x2="881.8098" y2="484.8291" gradientTransform="matrix(1 0 0 -1 3.9975 989.0119)">
			<stop  offset="0" style="stop-color:#F3D906"/>
			<stop  offset="0.495" style="stop-color:#E97B1A"/>
			<stop  offset="1" style="stop-color:#DF1A2E"/>
		</linearGradient>
		<path class="st10" d="M950.9,202.9L590.2,606.5c0.3,1.3,0.6,2.5,0.9,3.7l362.3-405.5C952.6,204.2,951.7,203.5,950.9,202.9z"/>
		
			<linearGradient id="SVGID_12_" gradientUnits="userSpaceOnUse" x1="707.5368" y1="627.0573" x2="886.8205" y2="474.4754" gradientTransform="matrix(1 0 0 -1 3.9975 989.0119)">
			<stop  offset="0" style="stop-color:#F3D906"/>
			<stop  offset="0.495" style="stop-color:#E97B1A"/>
			<stop  offset="1" style="stop-color:#DF1A2E"/>
		</linearGradient>
		<path class="st11" d="M963.9,213.2l-368,411.9c0.4,1.1,0.9,2.1,1.4,3.2l369-413C965.5,214.6,964.7,213.9,963.9,213.2z"/>
		
			<linearGradient id="SVGID_13_" gradientUnits="userSpaceOnUse" x1="713.6192" y1="617.308" x2="892.3975" y2="465.1563" gradientTransform="matrix(1 0 0 -1 3.9975 989.0119)">
			<stop  offset="0" style="stop-color:#F3D906"/>
			<stop  offset="0.495" style="stop-color:#E97B1A"/>
			<stop  offset="1" style="stop-color:#DF1A2E"/>
		</linearGradient>
		<path class="st12" d="M976.2,224.3L603.8,641c0.6,1,1.1,1.8,1.7,2.8l372.9-417.3C977.7,225.7,977,225,976.2,224.3z"/>
		
			<linearGradient id="SVGID_14_" gradientUnits="userSpaceOnUse" x1="719.7583" y1="608.5884" x2="899.3902" y2="455.7103" gradientTransform="matrix(1 0 0 -1 3.9975 989.0119)">
			<stop  offset="0" style="stop-color:#F3D906"/>
			<stop  offset="0.495" style="stop-color:#E97B1A"/>
			<stop  offset="1" style="stop-color:#DF1A2E"/>
		</linearGradient>
		<path class="st13" d="M987.9,236.1L613.5,655c0.7,0.8,1.3,1.7,2,2.5l374.5-419C989.3,237.6,988.6,236.9,987.9,236.1z"/>
		
			<linearGradient id="SVGID_15_" gradientUnits="userSpaceOnUse" x1="726.9766" y1="599.3991" x2="905.3771" y2="447.5689" gradientTransform="matrix(1 0 0 -1 3.9975 989.0119)">
			<stop  offset="0" style="stop-color:#F3D906"/>
			<stop  offset="0.495" style="stop-color:#E97B1A"/>
			<stop  offset="1" style="stop-color:#DF1A2E"/>
		</linearGradient>
		<path class="st14" d="M998.8,248.6L624.5,667.6c0.7,0.7,1.5,1.5,2.2,2.2l374.1-418.7C1000.2,250.3,999.5,249.4,998.8,248.6z"/>
		
			<linearGradient id="SVGID_16_" gradientUnits="userSpaceOnUse" x1="733.5121" y1="591.3737" x2="912.9192" y2="438.6869" gradientTransform="matrix(1 0 0 -1 3.9975 989.0119)">
			<stop  offset="0" style="stop-color:#F3D906"/>
			<stop  offset="0.495" style="stop-color:#E97B1A"/>
			<stop  offset="1" style="stop-color:#DF1A2E"/>
		</linearGradient>
		<path class="st15" d="M1009.2,261.9L636.7,678.8c0.8,0.7,1.6,1.4,2.4,2l372-416.2C1010.4,263.7,1009.8,262.8,1009.2,261.9z"/>
		
			<linearGradient id="SVGID_17_" gradientUnits="userSpaceOnUse" x1="740.3516" y1="583.0866" x2="920.0001" y2="430.1943" gradientTransform="matrix(1 0 0 -1 3.9975 989.0119)">
			<stop  offset="0" style="stop-color:#F3D906"/>
			<stop  offset="0.495" style="stop-color:#E97B1A"/>
			<stop  offset="1" style="stop-color:#DF1A2E"/>
		</linearGradient>
		<path class="st16" d="M1018.8,276l-369,413c0.9,0.6,1.7,1.3,2.6,1.8l368.2-412C1020,277.8,1019.4,276.9,1018.8,276z"/>
		
			<linearGradient id="SVGID_18_" gradientUnits="userSpaceOnUse" x1="747.3088" y1="574.9003" x2="927.1456" y2="421.8477" gradientTransform="matrix(1 0 0 -1 3.9975 989.0119)">
			<stop  offset="0" style="stop-color:#F3D906"/>
			<stop  offset="0.495" style="stop-color:#E97B1A"/>
			<stop  offset="1" style="stop-color:#DF1A2E"/>
		</linearGradient>
		<path class="st17" d="M1027.8,290.9l-364,407.3c0.9,0.6,1.8,1.1,2.8,1.7l362.8-406C1028.8,292.8,1028.3,291.8,1027.8,290.9z"/>
		
			<linearGradient id="SVGID_19_" gradientUnits="userSpaceOnUse" x1="754.2017" y1="566.9276" x2="934.3965" y2="413.5703" gradientTransform="matrix(1 0 0 -1 3.9975 989.0119)">
			<stop  offset="0" style="stop-color:#F3D906"/>
			<stop  offset="0.495" style="stop-color:#E97B1A"/>
			<stop  offset="1" style="stop-color:#DF1A2E"/>
		</linearGradient>
		<path class="st18" d="M1036,306.5L678.6,706.4c1,0.5,2,1,2.9,1.4l355.9-398.3C1037,308.5,1036.5,307.5,1036,306.5z"/>
		
			<linearGradient id="SVGID_20_" gradientUnits="userSpaceOnUse" x1="761.2124" y1="558.8178" x2="941.6522" y2="405.2521" gradientTransform="matrix(1 0 0 -1 3.9975 989.0119)">
			<stop  offset="0" style="stop-color:#F3D906"/>
			<stop  offset="0.495" style="stop-color:#E97B1A"/>
			<stop  offset="1" style="stop-color:#DF1A2E"/>
		</linearGradient>
		<path class="st19" d="M1043.4,323L694.3,713.8c1,0.5,2,0.9,3.1,1.3l347.4-388.8C1044.3,325.2,1043.9,324.1,1043.4,323z"/>
		
			<linearGradient id="SVGID_21_" gradientUnits="userSpaceOnUse" x1="768.12" y1="550.8781" x2="948.9546" y2="396.9763" gradientTransform="matrix(1 0 0 -1 3.9975 989.0119)">
			<stop  offset="0" style="stop-color:#F3D906"/>
			<stop  offset="0.495" style="stop-color:#E97B1A"/>
			<stop  offset="1" style="stop-color:#DF1A2E"/>
		</linearGradient>
		<path class="st20" d="M1050.1,340.4L710.8,720.2c1.1,0.4,2.1,0.8,3.2,1.1l337.3-377.5C1050.9,342.7,1050.5,341.5,1050.1,340.4z"/>
		
			<linearGradient id="SVGID_22_" gradientUnits="userSpaceOnUse" x1="774.378" y1="543.4061" x2="956.4504" y2="388.4509" gradientTransform="matrix(1 0 0 -1 3.9975 989.0119)">
			<stop  offset="0" style="stop-color:#F3D906"/>
			<stop  offset="0.495" style="stop-color:#E97B1A"/>
			<stop  offset="1" style="stop-color:#DF1A2E"/>
		</linearGradient>
		<path class="st21" d="M1055.9,358.8L728,725.7c1.1,0.3,2.3,0.6,3.4,1l325.4-364.2C1056.5,361.3,1056.2,360,1055.9,358.8z"/>
		
			<linearGradient id="SVGID_23_" gradientUnits="userSpaceOnUse" x1="780.7775" y1="535.6092" x2="963.7242" y2="379.9099" gradientTransform="matrix(1 0 0 -1 3.9975 989.0119)">
			<stop  offset="0" style="stop-color:#F3D906"/>
			<stop  offset="0.495" style="stop-color:#E97B1A"/>
			<stop  offset="1" style="stop-color:#DF1A2E"/>
		</linearGradient>
		<path class="st22" d="M1060.6,378.3l-314.5,352c1.2,0.2,2.4,0.5,3.6,0.7l311.7-348.8C1061.2,380.9,1060.9,379.7,1060.6,378.3z"/>
		
			<linearGradient id="SVGID_24_" gradientUnits="userSpaceOnUse" x1="787.0589" y1="527.8333" x2="970.894" y2="371.3779" gradientTransform="matrix(1 0 0 -1 3.9975 989.0119)">
			<stop  offset="0" style="stop-color:#F3D906"/>
			<stop  offset="0.495" style="stop-color:#E97B1A"/>
			<stop  offset="1" style="stop-color:#DF1A2E"/>
		</linearGradient>
		<path class="st23" d="M1064.3,399.1L765.2,733.8c1.2,0.2,2.5,0.4,3.7,0.6l295.9-331.2C1064.7,401.8,1064.5,400.4,1064.3,399.1z"/>
		
			<linearGradient id="SVGID_25_" gradientUnits="userSpaceOnUse" x1="792.2996" y1="520.821" x2="978.4254" y2="362.4161" gradientTransform="matrix(1 0 0 -1 3.9975 989.0119)">
			<stop  offset="0" style="stop-color:#F3D906"/>
			<stop  offset="0.495" style="stop-color:#E97B1A"/>
			<stop  offset="1" style="stop-color:#DF1A2E"/>
		</linearGradient>
		<path class="st24" d="M1066.8,421.2l-281.4,315c1.3,0.1,2.6,0.2,4,0.3l277.7-310.8C1067,424.1,1066.9,422.7,1066.8,421.2z"/>
		
			<linearGradient id="SVGID_26_" gradientUnits="userSpaceOnUse" x1="797.2726" y1="513.7071" x2="985.5979" y2="353.4303" gradientTransform="matrix(1 0 0 -1 3.9975 989.0119)">
			<stop  offset="0" style="stop-color:#F3D906"/>
			<stop  offset="0.495" style="stop-color:#E97B1A"/>
			<stop  offset="1" style="stop-color:#DF1A2E"/>
		</linearGradient>
		<path class="st25" d="M1067.7,445L806.8,737c0.3,0,0.5,0,0.8,0c1.2,0,2.3,0,3.5-0.1l256.6-287.2c0-1.3,0-2.6,0-3.9
			C1067.7,445.6,1067.7,445.3,1067.7,445z"/>
		
			<linearGradient id="SVGID_27_" gradientUnits="userSpaceOnUse" x1="801.3285" y1="507.2092" x2="992.8328" y2="344.2268" gradientTransform="matrix(1 0 0 -1 3.9975 989.0119)">
			<stop  offset="0" style="stop-color:#F3D906"/>
			<stop  offset="0.495" style="stop-color:#E97B1A"/>
			<stop  offset="1" style="stop-color:#DF1A2E"/>
		</linearGradient>
		<path class="st26" d="M834.6,735.5l231.7-259.3c0.2-1.8,0.3-3.5,0.4-5.2L829.9,736C831.5,735.8,833.1,735.7,834.6,735.5z"/>
		
			<linearGradient id="SVGID_28_" gradientUnits="userSpaceOnUse" x1="804.3585" y1="501.6667" x2="1000.2419" y2="334.9575" gradientTransform="matrix(1 0 0 -1 3.9975 989.0119)">
			<stop  offset="0" style="stop-color:#F3D906"/>
			<stop  offset="0.495" style="stop-color:#E97B1A"/>
			<stop  offset="1" style="stop-color:#DF1A2E"/>
		</linearGradient>
		<path class="st27" d="M860.9,730.9l201.3-225.3c0.4-2,0.7-3.9,1-5.9L855.6,732.1C857.4,731.7,859.2,731.3,860.9,730.9z"/>
		
			<linearGradient id="SVGID_29_" gradientUnits="userSpaceOnUse" x1="804.1166" y1="498.954" x2="1008.2313" y2="325.2395" gradientTransform="matrix(1 0 0 -1 3.9975 989.0119)">
			<stop  offset="0" style="stop-color:#F3D906"/>
			<stop  offset="0.495" style="stop-color:#E97B1A"/>
			<stop  offset="1" style="stop-color:#DF1A2E"/>
		</linearGradient>
		<path class="st28" d="M891.5,721.6l162.4-181.8c0.7-2.3,1.4-4.7,2.1-7L885.2,723.9C887.3,723.1,889.4,722.4,891.5,721.6z"/>
		
			<linearGradient id="SVGID_30_" gradientUnits="userSpaceOnUse" x1="794.0676" y1="504.5427" x2="1017.7915" y2="314.1394" gradientTransform="matrix(1 0 0 -1 3.9975 989.0119)">
			<stop  offset="0" style="stop-color:#F3D906"/>
			<stop  offset="0.495" style="stop-color:#E97B1A"/>
			<stop  offset="1" style="stop-color:#DF1A2E"/>
		</linearGradient>
		<path class="st29" d="M930.9,702.3L1036.7,584c1.5-3.2,3-6.4,4.5-9.8l-119,133.2C925.1,705.7,928,704,930.9,702.3z"/>
	</g>
	<g>
		<g>
			
				<linearGradient id="SVGID_31_" gradientUnits="userSpaceOnUse" x1="69.2237" y1="-57.753" x2="940.0875" y2="580.5878" gradientTransform="matrix(1 0 0 -1 0 1056)">
				<stop  offset="0" style="stop-color:#F3D906"/>
				<stop  offset="1" style="stop-color:#DF1A2E"/>
			</linearGradient>
			<path class="st30" d="M385.2,625.3C192.1,668.2,92.9,839.2,216.7,928.9c64.1,46.5,140.3-118,281.3-28.8
				c166.6,105.3,289.6,20,302.1-85.6C827.7,582.6,578.3,582.4,385.2,625.3z"/>
		</g>
		
			<linearGradient id="SVGID_32_" gradientUnits="userSpaceOnUse" x1="-30.9939" y1="1026.9957" x2="1094.3052" y2="164.3305" gradientTransform="matrix(1 0 0 -1 0 1056)">
			<stop  offset="5.375373e-02" style="stop-color:#F3D906"/>
			<stop  offset="0.5492" style="stop-color:#E97B1A"/>
			<stop  offset="1" style="stop-color:#DF1A2E"/>
		</linearGradient>
		<path class="st31" d="M913.4,269.5c-100.5-77.2-154.6,163-374.4,21.2C314,145.4,86.7,205.5,86.8,394.8
			c0.2,281.2,270.8,471,522.8,430.4C861.5,784.7,1086.9,402.8,913.4,269.5z"/>
	</g>
	
		<linearGradient id="SVGID_33_" gradientUnits="userSpaceOnUse" x1="434.8401" y1="1011.2034" x2="60.5514" y2="554.7537" gradientTransform="matrix(1 0 0 -1 0 1056)">
		<stop  offset="5.375373e-02" style="stop-color:#F3D906"/>
		<stop  offset="0.5492" style="stop-color:#E97B1A"/>
		<stop  offset="1" style="stop-color:#DF1A2E"/>
	</linearGradient>
	<path class="st32" d="M114.3,421.7L114.3,421.7c-1.2-1.4-1.2-3.6,0-4.9l275-307.7c1.2-1.4,3.2-1.4,4.4,0l0,0c1.2,1.4,1.2,3.6,0,4.9
		l-275,307.7C117.6,423.1,115.6,423.1,114.3,421.7z"/>
	
		<linearGradient id="SVGID_34_" gradientUnits="userSpaceOnUse" x1="-5.960464e-08" y1="651.7633" x2="147.9" y2="651.7633" gradientTransform="matrix(1 0 0 -1 0 1056)">
		<stop  offset="5.375373e-02" style="stop-color:#F3D906"/>
		<stop  offset="0.5492" style="stop-color:#E97B1A"/>
		<stop  offset="1" style="stop-color:#DF1A2E"/>
	</linearGradient>
	<path class="st33" d="M142.6,322.5L0.9,481c-1.2,1.4-1.2,3.6,0,4.9l0,0c1.2,1.4,3.2,1.4,4.4,0L147,327.5c1.2-1.4,1.2-3.6,0-4.9l0,0
		C145.8,321.2,143.8,321.2,142.6,322.5z"/>
</g>
</svg>
