<?xml version="1.0" encoding="utf-8"?>
<!-- Generator: Adobe Illustrator 23.0.2, SVG Export Plug-In . SVG Version: 6.00 Build 0)  -->
<svg version="1.1" id="Layer_3" xmlns="http://www.w3.org/2000/svg" xmlns:xlink="http://www.w3.org/1999/xlink" x="0px" y="0px"
	 viewBox="0 0 1419.1 794.7" style="enable-background:new 0 0 1419.1 794.7;" xml:space="preserve">
<style type="text/css">
	.st0{fill:url(#SVGID_1_);}
	.st1{fill:url(#SVGID_2_);}
	.st2{fill:url(#SVGID_3_);}
	.st3{fill:url(#SVGID_4_);}
	.st4{fill:url(#SVGID_5_);}
	.st5{fill:url(#SVGID_6_);}
	.st6{fill:url(#SVGID_7_);}
	.st7{fill:url(#SVGID_8_);}
	.st8{fill:url(#SVGID_9_);}
	.st9{fill:url(#SVGID_10_);}
	.st10{fill:url(#SVGID_11_);}
	.st11{fill:url(#SVGID_12_);}
	.st12{fill:url(#SVGID_13_);}
	.st13{fill:url(#SVGID_14_);}
	.st14{fill:url(#SVGID_15_);}
	.st15{fill:url(#SVGID_16_);}
	.st16{fill:url(#SVGID_17_);}
	.st17{fill:url(#SVGID_18_);}
	.st18{fill:url(#SVGID_19_);}
	.st19{fill:url(#SVGID_20_);}
	.st20{fill:url(#SVGID_21_);}
	.st21{fill:url(#SVGID_22_);}
	.st22{fill:url(#SVGID_23_);}
	.st23{fill:url(#SVGID_24_);}
	.st24{fill:url(#SVGID_25_);}
	.st25{fill:url(#SVGID_26_);}
	.st26{fill:url(#SVGID_27_);}
	.st27{fill:url(#SVGID_28_);}
	.st28{fill:url(#SVGID_29_);}
	.st29{fill:url(#SVGID_30_);}
	.st30{fill:url(#SVGID_31_);}
	.st31{fill:url(#SVGID_32_);}
</style>
<g>
	<g>
		
			<linearGradient id="SVGID_1_" gradientUnits="userSpaceOnUse" x1="1349.259" y1="-145.6678" x2="665.5414" y2="486.2155" gradientTransform="matrix(1 0 0 1 0 480)">
			<stop  offset="0" style="stop-color:#D1F412"/>
			<stop  offset="1" style="stop-color:#32A794"/>
		</linearGradient>
		<path class="st0" d="M1143.2,397.1c-120,2.4-124.4,135-274.3,177.9c-153.3,44-74.7,211.2,76.8,219.1
			c196.5,10.2,96.1-118.1,256.5-143.6C1399.4,619.4,1367.6,392.6,1143.2,397.1z"/>
		
			<linearGradient id="SVGID_2_" gradientUnits="userSpaceOnUse" x1="1472.3302" y1="-54.0455" x2="770.1926" y2="594.8613" gradientTransform="matrix(1 0 0 1 0 480)">
			<stop  offset="0" style="stop-color:#D1F412"/>
			<stop  offset="1" style="stop-color:#32A794"/>
		</linearGradient>
		<path class="st1" d="M1159.7,690.4c-10.3,7.1-10.9,19-1.4,26.7c9.5,7.6,19.1,2.7,29.4-4.4c10.3-7.1,17.3-13.5,7.8-21.2
			C1185.9,683.8,1169.9,683.4,1159.7,690.4z"/>
	</g>
	
		<linearGradient id="SVGID_3_" gradientUnits="userSpaceOnUse" x1="113.1779" y1="382.6147" x2="1439.3291" y2="-484.3477" gradientTransform="matrix(1 0 0 1 0 480)">
		<stop  offset="5.676956e-02" style="stop-color:#D1F412"/>
		<stop  offset="0.6034" style="stop-color:#7ECC56"/>
		<stop  offset="0.9584" style="stop-color:#32A794"/>
	</linearGradient>
	<path class="st2" d="M1224.8,369.1c-72.6-187.2-344.7-241.4-594.5-199.8c-272.5,45.3-480.8,206-383.9,387.3
		c89.2,166.8,369.1,32.1,585.1,106.7C1081.9,749.9,1297.4,556.3,1224.8,369.1z"/>
	
		<linearGradient id="SVGID_4_" gradientUnits="userSpaceOnUse" x1="844.0504" y1="-699.5394" x2="1079.5592" y2="-699.5394" gradientTransform="matrix(1 0 0 1 -133.6442 848.1895)">
		<stop  offset="0" style="stop-color:#D1F412"/>
		<stop  offset="1" style="stop-color:#32A794"/>
	</linearGradient>
	<path class="st3" d="M712.1,235.3L712.1,235.3c2.1,1.6,5.5,1.6,7.7,0L944.3,67.8c2.1-1.6,2.1-4.2,0-5.8l0,0c-2.1-1.6-5.5-1.6-7.7,0
		L712.1,229.5C709.9,231.2,709.9,233.8,712.1,235.3z"/>
	
		<linearGradient id="SVGID_5_" gradientUnits="userSpaceOnUse" x1="961.7938" y1="-695.4395" x2="1123.2052" y2="-695.4395" gradientTransform="matrix(1 0 0 1 -133.6442 848.1895)">
		<stop  offset="0" style="stop-color:#D1F412"/>
		<stop  offset="1" style="stop-color:#32A794"/>
	</linearGradient>
	<path class="st4" d="M829.7,211.8L829.7,211.8c2.1,1.6,5.5,1.6,7.7,0L988,99.5c2.1-1.6,2.1-4.2,0-5.8l0,0c-2.1-1.6-5.5-1.6-7.7,0
		L829.7,206.1C827.6,207.7,827.6,210.3,829.7,211.8z"/>
	
		<linearGradient id="SVGID_6_" gradientUnits="userSpaceOnUse" x1="313.0963" y1="-271.9395" x2="474.6614" y2="-271.9395" gradientTransform="matrix(1 0 0 1 -133.6442 848.1895)">
		<stop  offset="0" style="stop-color:#D1F412"/>
		<stop  offset="1" style="stop-color:#32A794"/>
	</linearGradient>
	<path class="st5" d="M181.1,635.3L181.1,635.3c2.1,1.6,5.5,1.6,7.7,0L339.4,523c2.1-1.6,2.1-4.2,0-5.8l0,0c-2.1-1.6-5.5-1.6-7.7,0
		L181.1,629.5C178.9,631.1,178.9,633.7,181.1,635.3z"/>
	<g>
		
			<linearGradient id="SVGID_7_" gradientUnits="userSpaceOnUse" x1="3626.1414" y1="-1217.5088" x2="2854.813" y2="-459.3882" gradientTransform="matrix(-1 0 0 -1 3783.2117 -604.4698)">
			<stop  offset="0" style="stop-color:#D1F412"/>
			<stop  offset="0.5262" style="stop-color:#38AA8F"/>
			<stop  offset="1" style="stop-color:#32A794"/>
		</linearGradient>
		<path class="st6" d="M507.2,278.3c3.9-3.9,7.5-7.7,10.8-11.8l-74.1,55.3c5.4-2.5,10.6-5.3,15.8-8.1L507.2,278.3z"/>
		
			<linearGradient id="SVGID_8_" gradientUnits="userSpaceOnUse" x1="3638.5273" y1="-1208.2288" x2="2867.2124" y2="-450.1211" gradientTransform="matrix(-1 0 0 -1 3783.2117 -604.4698)">
			<stop  offset="0" style="stop-color:#D1F412"/>
			<stop  offset="0.5262" style="stop-color:#38AA8F"/>
			<stop  offset="1" style="stop-color:#32A794"/>
		</linearGradient>
		<path class="st7" d="M538.6,235.5c1-1.9,1.8-3.8,2.7-5.7L394.5,339.3c2.5-0.6,5.1-1.3,7.6-2L538.6,235.5z"/>
		
			<linearGradient id="SVGID_9_" gradientUnits="userSpaceOnUse" x1="3651.2998" y1="-1198.5778" x2="2879.9702" y2="-440.4557" gradientTransform="matrix(-1 0 0 -1 3783.2117 -604.4698)">
			<stop  offset="0" style="stop-color:#D1F412"/>
			<stop  offset="0.5262" style="stop-color:#38AA8F"/>
			<stop  offset="1" style="stop-color:#32A794"/>
		</linearGradient>
		<path class="st8" d="M549,208.4c0.4-1.5,0.8-3,1.1-4.5l-190.3,142c2-0.2,4-0.5,6.1-0.9L549,208.4z"/>
		
			<linearGradient id="SVGID_10_" gradientUnits="userSpaceOnUse" x1="3664.1257" y1="-1188.8408" x2="2892.812" y2="-430.7346" gradientTransform="matrix(-1 0 0 -1 3783.2117 -604.4698)">
			<stop  offset="0" style="stop-color:#D1F412"/>
			<stop  offset="0.5262" style="stop-color:#38AA8F"/>
			<stop  offset="1" style="stop-color:#32A794"/>
		</linearGradient>
		<path class="st9" d="M553,186.1c0.1-1.3,0.2-2.6,0.3-3.9l-222.6,166c1.8-0.1,3.5-0.1,5.3-0.2L553,186.1z"/>
		
			<linearGradient id="SVGID_11_" gradientUnits="userSpaceOnUse" x1="3677.0596" y1="-1178.9945" x2="2905.7522" y2="-420.8942" gradientTransform="matrix(-1 0 0 -1 3783.2117 -604.4698)">
			<stop  offset="0" style="stop-color:#D1F412"/>
			<stop  offset="0.5262" style="stop-color:#38AA8F"/>
			<stop  offset="1" style="stop-color:#32A794"/>
		</linearGradient>
		<path class="st10" d="M553.3,166.4c-0.1-1.2-0.2-2.4-0.3-3.5l-248.2,185c1.5,0.1,3.2,0.1,4.7,0.2L553.3,166.4z"/>
		
			<linearGradient id="SVGID_12_" gradientUnits="userSpaceOnUse" x1="3689.8228" y1="-1169.3665" x2="2918.4949" y2="-411.2462" gradientTransform="matrix(-1 0 0 -1 3783.2117 -604.4698)">
			<stop  offset="0" style="stop-color:#D1F412"/>
			<stop  offset="0.5262" style="stop-color:#38AA8F"/>
			<stop  offset="1" style="stop-color:#32A794"/>
		</linearGradient>
		<path class="st11" d="M551.1,148.8c-0.2-1.1-0.4-2.1-0.7-3.2L281.7,346.1c1.4,0.2,2.9,0.3,4.3,0.5L551.1,148.8z"/>
		
			<linearGradient id="SVGID_13_" gradientUnits="userSpaceOnUse" x1="3702.6831" y1="-1159.6045" x2="2931.3635" y2="-401.4925" gradientTransform="matrix(-1 0 0 -1 3783.2117 -604.4698)">
			<stop  offset="0" style="stop-color:#D1F412"/>
			<stop  offset="0.5262" style="stop-color:#38AA8F"/>
			<stop  offset="1" style="stop-color:#32A794"/>
		</linearGradient>
		<path class="st12" d="M546.9,132.6c-0.3-1-0.7-1.9-1.1-2.9l-285.6,213c1.3,0.2,2.5,0.5,4,0.8L546.9,132.6z"/>
		
			<linearGradient id="SVGID_14_" gradientUnits="userSpaceOnUse" x1="3715.5876" y1="-1149.7999" x2="2944.27" y2="-391.6895" gradientTransform="matrix(-1 0 0 -1 3783.2117 -604.4698)">
			<stop  offset="0" style="stop-color:#D1F412"/>
			<stop  offset="0.5262" style="stop-color:#38AA8F"/>
			<stop  offset="1" style="stop-color:#32A794"/>
		</linearGradient>
		<path class="st13" d="M540.9,117.6c-0.4-0.9-0.9-1.8-1.2-2.7L240.4,338.1c1.2,0.3,2.4,0.6,3.6,1L540.9,117.6z"/>
		
			<linearGradient id="SVGID_15_" gradientUnits="userSpaceOnUse" x1="3728.4316" y1="-1140.0719" x2="2957.1001" y2="-381.948" gradientTransform="matrix(-1 0 0 -1 3783.2117 -604.4698)">
			<stop  offset="0" style="stop-color:#D1F412"/>
			<stop  offset="0.5262" style="stop-color:#38AA8F"/>
			<stop  offset="1" style="stop-color:#32A794"/>
		</linearGradient>
		<path class="st14" d="M533.6,103.7c-0.4-0.9-1.1-1.7-1.5-2.6L222,332.5c1.1,0.4,2.3,0.8,3.4,1.2L533.6,103.7z"/>
		
			<linearGradient id="SVGID_16_" gradientUnits="userSpaceOnUse" x1="3741.2939" y1="-1130.312" x2="2969.9644" y2="-372.1898" gradientTransform="matrix(-1 0 0 -1 3783.2117 -604.4698)">
			<stop  offset="0" style="stop-color:#D1F412"/>
			<stop  offset="0.5262" style="stop-color:#38AA8F"/>
			<stop  offset="1" style="stop-color:#32A794"/>
		</linearGradient>
		<path class="st15" d="M525.1,90.7c-0.6-0.8-1.1-1.6-1.8-2.4L204.9,325.9c1.1,0.4,2.1,0.9,3.2,1.3L525.1,90.7z"/>
		
			<linearGradient id="SVGID_17_" gradientUnits="userSpaceOnUse" x1="3754.2112" y1="-1120.5265" x2="2982.8074" y2="-362.3316" gradientTransform="matrix(-1 0 0 -1 3783.2117 -604.4698)">
			<stop  offset="0" style="stop-color:#D1F412"/>
			<stop  offset="0.5262" style="stop-color:#38AA8F"/>
			<stop  offset="1" style="stop-color:#32A794"/>
		</linearGradient>
		<path class="st16" d="M515.3,78.6c-0.7-0.8-1.3-1.5-2-2.3L188.7,318.5c1,0.5,2,1,3,1.5L515.3,78.6z"/>
		
			<linearGradient id="SVGID_18_" gradientUnits="userSpaceOnUse" x1="3767.1072" y1="-1110.7997" x2="2995.5591" y2="-352.4629" gradientTransform="matrix(-1 0 0 -1 3783.2117 -604.4698)">
			<stop  offset="0" style="stop-color:#D1F412"/>
			<stop  offset="0.5262" style="stop-color:#38AA8F"/>
			<stop  offset="1" style="stop-color:#32A794"/>
		</linearGradient>
		<path class="st17" d="M504.5,67.3c-0.8-0.6-1.4-1.4-2.2-2L173.9,310.2c1,0.5,1.8,1.1,2.8,1.6L504.5,67.3z"/>
		
			<linearGradient id="SVGID_19_" gradientUnits="userSpaceOnUse" x1="3780.0911" y1="-1101.123" x2="3008.0981" y2="-342.3487" gradientTransform="matrix(-1 0 0 -1 3783.2117 -604.4698)">
			<stop  offset="0" style="stop-color:#D1F412"/>
			<stop  offset="0.5262" style="stop-color:#38AA8F"/>
			<stop  offset="1" style="stop-color:#32A794"/>
		</linearGradient>
		<path class="st18" d="M492.6,56.8c-0.8-0.6-1.5-1.3-2.4-1.9L160,301.2c0.9,0.6,1.8,1.2,2.5,1.8L492.6,56.8z"/>
		
			<linearGradient id="SVGID_20_" gradientUnits="userSpaceOnUse" x1="3792.9087" y1="-1091.2756" x2="3020.9209" y2="-332.5069" gradientTransform="matrix(-1 0 0 -1 3783.2117 -604.4698)">
			<stop  offset="0" style="stop-color:#D1F412"/>
			<stop  offset="0.5262" style="stop-color:#38AA8F"/>
			<stop  offset="1" style="stop-color:#32A794"/>
		</linearGradient>
		<path class="st19" d="M479.8,47c-0.9-0.6-1.8-1.2-2.5-1.8L147.1,291.4c0.8,0.6,1.5,1.3,2.4,1.9L479.8,47z"/>
		
			<linearGradient id="SVGID_21_" gradientUnits="userSpaceOnUse" x1="3805.52" y1="-1081.2327" x2="3033.9775" y2="-322.9015" gradientTransform="matrix(-1 0 0 -1 3783.2117 -604.4698)">
			<stop  offset="0" style="stop-color:#D1F412"/>
			<stop  offset="0.5262" style="stop-color:#38AA8F"/>
			<stop  offset="1" style="stop-color:#32A794"/>
		</linearGradient>
		<path class="st20" d="M465.9,38c-1-0.5-1.8-1.1-2.8-1.6L135.2,280.9c0.8,0.6,1.4,1.4,2.2,2L465.9,38z"/>
		
			<linearGradient id="SVGID_22_" gradientUnits="userSpaceOnUse" x1="3818.2637" y1="-1071.413" x2="3046.8787" y2="-313.2366" gradientTransform="matrix(-1 0 0 -1 3783.2117 -604.4698)">
			<stop  offset="0" style="stop-color:#D1F412"/>
			<stop  offset="0.5262" style="stop-color:#38AA8F"/>
			<stop  offset="1" style="stop-color:#32A794"/>
		</linearGradient>
		<path class="st21" d="M451,29.9c-1-0.5-2-1-3-1.5L124.4,269.6c0.7,0.8,1.3,1.5,2,2.3L451,29.9z"/>
		
			<linearGradient id="SVGID_23_" gradientUnits="userSpaceOnUse" x1="3831.0854" y1="-1061.6201" x2="3059.7556" y2="-303.4979" gradientTransform="matrix(-1 0 0 -1 3783.2117 -604.4698)">
			<stop  offset="0" style="stop-color:#D1F412"/>
			<stop  offset="0.5262" style="stop-color:#38AA8F"/>
			<stop  offset="1" style="stop-color:#32A794"/>
		</linearGradient>
		<path class="st22" d="M434.9,22.4c-1.1-0.4-2.1-0.9-3.2-1.3l-317,236.5c0.6,0.8,1.1,1.6,1.8,2.4L434.9,22.4z"/>
		
			<linearGradient id="SVGID_24_" gradientUnits="userSpaceOnUse" x1="3843.967" y1="-1051.8359" x2="3072.6426" y2="-293.7189" gradientTransform="matrix(-1 0 0 -1 3783.2117 -604.4698)">
			<stop  offset="0" style="stop-color:#D1F412"/>
			<stop  offset="0.5262" style="stop-color:#38AA8F"/>
			<stop  offset="1" style="stop-color:#32A794"/>
		</linearGradient>
		<path class="st23" d="M417.8,15.8c-1.1-0.4-2.3-0.8-3.4-1.2l-308.2,230c0.4,0.9,1.1,1.7,1.5,2.6L417.8,15.8z"/>
		
			<linearGradient id="SVGID_25_" gradientUnits="userSpaceOnUse" x1="3856.8245" y1="-1042.071" x2="3085.5105" y2="-283.9644" gradientTransform="matrix(-1 0 0 -1 3783.2117 -604.4698)">
			<stop  offset="0" style="stop-color:#D1F412"/>
			<stop  offset="0.5262" style="stop-color:#38AA8F"/>
			<stop  offset="1" style="stop-color:#32A794"/>
		</linearGradient>
		<path class="st24" d="M399.3,10.2c-1.2-0.3-2.4-0.6-3.6-1L98.9,230.6c0.4,0.9,0.9,1.8,1.2,2.7L399.3,10.2z"/>
		
			<linearGradient id="SVGID_26_" gradientUnits="userSpaceOnUse" x1="3869.7065" y1="-1032.2875" x2="3098.3987" y2="-274.1867" gradientTransform="matrix(-1 0 0 -1 3783.2117 -604.4698)">
			<stop  offset="0" style="stop-color:#D1F412"/>
			<stop  offset="0.5262" style="stop-color:#38AA8F"/>
			<stop  offset="1" style="stop-color:#32A794"/>
		</linearGradient>
		<path class="st25" d="M379.6,5.6c-1.3-0.2-2.5-0.5-4-0.8L92.9,215.6c0.3,1,0.7,1.9,1.1,2.9L379.6,5.6z"/>
		
			<linearGradient id="SVGID_27_" gradientUnits="userSpaceOnUse" x1="3882.5681" y1="-1022.5403" x2="3111.2524" y2="-264.432" gradientTransform="matrix(-1 0 0 -1 3783.2117 -604.4698)">
			<stop  offset="0" style="stop-color:#D1F412"/>
			<stop  offset="0.5262" style="stop-color:#38AA8F"/>
			<stop  offset="1" style="stop-color:#32A794"/>
		</linearGradient>
		<path class="st26" d="M358.1,2.3c-1.4-0.2-2.9-0.3-4.3-0.5L88.6,199.5c0.2,1.1,0.4,2.1,0.7,3.2L358.1,2.3z"/>
		
			<linearGradient id="SVGID_28_" gradientUnits="userSpaceOnUse" x1="3895.4407" y1="-1012.7769" x2="3124.1145" y2="-254.6581" gradientTransform="matrix(-1 0 0 -1 3783.2117 -604.4698)">
			<stop  offset="0" style="stop-color:#D1F412"/>
			<stop  offset="0.5262" style="stop-color:#38AA8F"/>
			<stop  offset="1" style="stop-color:#32A794"/>
		</linearGradient>
		<path class="st27" d="M334.8,0.2c-1.5-0.1-3.2-0.1-4.7-0.2L86.4,181.8c0.1,1.2,0.2,2.4,0.3,3.5L334.8,0.2z"/>
		
			<linearGradient id="SVGID_29_" gradientUnits="userSpaceOnUse" x1="3908.2869" y1="-1003.0307" x2="3136.9673" y2="-244.9181" gradientTransform="matrix(-1 0 0 -1 3783.2117 -604.4698)">
			<stop  offset="0" style="stop-color:#D1F412"/>
			<stop  offset="0.5262" style="stop-color:#38AA8F"/>
			<stop  offset="1" style="stop-color:#32A794"/>
		</linearGradient>
		<path class="st28" d="M309.1,0c-1.8,0.1-3.5,0.1-5.3,0.2l-217.2,162c-0.1,1.3-0.2,2.6-0.3,3.9L309.1,0z"/>
		
			<linearGradient id="SVGID_30_" gradientUnits="userSpaceOnUse" x1="3921.1123" y1="-993.2933" x2="3149.8098" y2="-235.1978" gradientTransform="matrix(-1 0 0 -1 3783.2117 -604.4698)">
			<stop  offset="0" style="stop-color:#D1F412"/>
			<stop  offset="0.5262" style="stop-color:#38AA8F"/>
			<stop  offset="1" style="stop-color:#32A794"/>
		</linearGradient>
		<path class="st29" d="M280,2.4c-2,0.2-4,0.5-6.1,0.9L90.7,139.8c-0.4,1.5-0.8,3-1.1,4.5L280,2.4z"/>
		
			<linearGradient id="SVGID_31_" gradientUnits="userSpaceOnUse" x1="3933.8821" y1="-983.6465" x2="3162.5642" y2="-225.536" gradientTransform="matrix(-1 0 0 -1 3783.2117 -604.4698)">
			<stop  offset="0" style="stop-color:#D1F412"/>
			<stop  offset="0.5262" style="stop-color:#38AA8F"/>
			<stop  offset="1" style="stop-color:#32A794"/>
		</linearGradient>
		<path class="st30" d="M245.2,9c-2.5,0.6-5.1,1.3-7.6,2L101.1,112.8c-1,1.9-1.8,3.8-2.7,5.7L245.2,9z"/>
		
			<linearGradient id="SVGID_32_" gradientUnits="userSpaceOnUse" x1="3946.314" y1="-974.3114" x2="3175.0144" y2="-216.2188" gradientTransform="matrix(-1 0 0 -1 3783.2117 -604.4698)">
			<stop  offset="0" style="stop-color:#D1F412"/>
			<stop  offset="0.5262" style="stop-color:#38AA8F"/>
			<stop  offset="1" style="stop-color:#32A794"/>
		</linearGradient>
		<path class="st31" d="M121.7,81.7l74.2-55.3c-5.4,2.5-10.6,5.3-15.8,8.1l-47.7,35.4C128.7,73.8,125.1,77.6,121.7,81.7z"/>
	</g>
</g>
</svg>
