<?xml version="1.0" encoding="utf-8"?>
<!-- Generator: Adobe Illustrator 23.0.2, SVG Export Plug-In . SVG Version: 6.00 Build 0)  -->
<svg version="1.1" id="Layer_5" xmlns="http://www.w3.org/2000/svg" xmlns:xlink="http://www.w3.org/1999/xlink" x="0px" y="0px"
	 viewBox="0 0 647.2 421.3" style="enable-background:new 0 0 647.2 421.3;" xml:space="preserve">
<style type="text/css">
	.st0{fill:url(#SVGID_1_);}
	.st1{fill:url(#SVGID_2_);}
	.st2{fill:url(#SVGID_3_);}
	.st3{fill:url(#SVGID_4_);}
	.st4{fill:url(#SVGID_5_);}
	.st5{fill:url(#SVGID_6_);}
	.st6{fill:url(#SVGID_7_);}
	.st7{fill:url(#SVGID_8_);}
	.st8{fill:url(#SVGID_9_);}
	.st9{fill:url(#SVGID_10_);}
	.st10{fill:url(#SVGID_11_);}
	.st11{fill:url(#SVGID_12_);}
	.st12{fill:url(#SVGID_13_);}
	.st13{fill:url(#SVGID_14_);}
	.st14{fill:url(#SVGID_15_);}
	.st15{fill:url(#SVGID_16_);}
	.st16{fill:url(#SVGID_17_);}
	.st17{fill:url(#SVGID_18_);}
	.st18{fill:url(#SVGID_19_);}
	.st19{fill:url(#SVGID_20_);}
	.st20{fill:url(#SVGID_21_);}
	.st21{fill:url(#SVGID_22_);}
	.st22{fill:url(#SVGID_23_);}
	.st23{fill:url(#SVGID_24_);}
	.st24{fill:url(#SVGID_25_);}
	.st25{fill:url(#SVGID_26_);}
	.st26{fill:url(#SVGID_27_);}
	.st27{fill:url(#SVGID_28_);}
	.st28{fill:url(#SVGID_29_);}
</style>
<g>
	
		<linearGradient id="SVGID_1_" gradientUnits="userSpaceOnUse" x1="78.5416" y1="-48.7076" x2="879.4863" y2="348.1731" gradientTransform="matrix(1 0 0 -1 0 422)">
		<stop  offset="0" style="stop-color:#FC3F6F"/>
		<stop  offset="0.6112" style="stop-color:#FC7F87"/>
		<stop  offset="0.8843" style="stop-color:#FBB89D"/>
	</linearGradient>
	<path class="st0" d="M589.7,209.5c35.8-56.8-90.6-130.1-137.2-56.1c-42.9,68.1-103.5,46.1-133.6,74.9
		c-31.2,29.8,48.2,50.2-52.5,113.1c-15.8,9.9-48.7,29.4-34.3,51.5c28,43.1,87,32.7,110.1-0.8c59.5-86.4,84.6-54.2,148.8-25.1
		c83,37.6,110.8-23.7,95.6-53.3C571.4,284.2,562.9,252.1,589.7,209.5z"/>
	
		<linearGradient id="SVGID_2_" gradientUnits="userSpaceOnUse" x1="506.812" y1="390.8845" x2="-10.7982" y2="-126.7257" gradientTransform="matrix(1 0 0 -1 0 422)">
		<stop  offset="5.971201e-02" style="stop-color:#FBB89D"/>
		<stop  offset="0.4811" style="stop-color:#FC7985"/>
		<stop  offset="0.8786" style="stop-color:#FC3F6F"/>
	</linearGradient>
	<path class="st1" d="M344,83.9C235.3,75.5,97.3,118.4,64.3,209.6c-39.1,107.8,37.6,205.8,183.4,163.8
		c72.6-20.9,124.3-82.2,245.1-68.5C575.5,314.4,573.5,101.7,344,83.9z"/>
	<g>
		
			<linearGradient id="SVGID_3_" gradientUnits="userSpaceOnUse" x1="2396.7773" y1="-821.7195" x2="2164.3147" y2="-1054.182" gradientTransform="matrix(-1 0 0 1 2644.6978 1068.4624)">
			<stop  offset="0.1193" style="stop-color:#FC3F6F"/>
			<stop  offset="0.5146" style="stop-color:#FC7985"/>
			<stop  offset="1" style="stop-color:#FBB89D"/>
		</linearGradient>
		<path class="st2" d="M338.6,154.7l42.9-36.8c1-1.6,2-3.2,2.9-4.9l-52.3,44.9C334.3,156.9,336.5,155.8,338.6,154.7z"/>
		
			<linearGradient id="SVGID_4_" gradientUnits="userSpaceOnUse" x1="2404.0903" y1="-828.0066" x2="2171.6321" y2="-1060.465" gradientTransform="matrix(-1 0 0 1 2644.6978 1068.4624)">
			<stop  offset="0.1193" style="stop-color:#FC3F6F"/>
			<stop  offset="0.5146" style="stop-color:#FC7985"/>
			<stop  offset="1" style="stop-color:#FBB89D"/>
		</linearGradient>
		<path class="st3" d="M310.5,166.4l80.4-69c0.3-1.1,0.6-2.1,0.9-3.2l-85.6,73.5C307.6,167.3,309,166.8,310.5,166.4z"/>
		
			<linearGradient id="SVGID_5_" gradientUnits="userSpaceOnUse" x1="2411.3826" y1="-834.2671" x2="2178.9368" y2="-1066.7129" gradientTransform="matrix(-1 0 0 1 2644.6978 1068.4624)">
			<stop  offset="0.1193" style="stop-color:#FC3F6F"/>
			<stop  offset="0.5146" style="stop-color:#FC7985"/>
			<stop  offset="1" style="stop-color:#FBB89D"/>
		</linearGradient>
		<path class="st4" d="M289.3,172.1l105-90c0.1-0.9,0.3-1.8,0.3-2.6l-108.9,93.4C286.9,172.6,288.2,172.3,289.3,172.1z"/>
		
			<linearGradient id="SVGID_6_" gradientUnits="userSpaceOnUse" x1="2418.7468" y1="-840.6057" x2="2186.2979" y2="-1073.0547" gradientTransform="matrix(-1 0 0 1 2644.6978 1068.4624)">
			<stop  offset="0.1193" style="stop-color:#FC3F6F"/>
			<stop  offset="0.5146" style="stop-color:#FC7985"/>
			<stop  offset="1" style="stop-color:#FBB89D"/>
		</linearGradient>
		<path class="st5" d="M271.1,175.3l124-106.4c0-0.8,0-1.5-0.1-2.3L267.9,175.7C269,175.5,270.1,175.4,271.1,175.3z"/>
		
			<linearGradient id="SVGID_7_" gradientUnits="userSpaceOnUse" x1="2426.0867" y1="-846.9108" x2="2193.6379" y2="-1079.3593" gradientTransform="matrix(-1 0 0 1 2644.6978 1068.4624)">
			<stop  offset="0.1193" style="stop-color:#FC3F6F"/>
			<stop  offset="0.5146" style="stop-color:#FC7985"/>
			<stop  offset="1" style="stop-color:#FBB89D"/>
		</linearGradient>
		<path class="st6" d="M254.7,176.9L394.1,57.3c-0.1-0.7-0.3-1.4-0.3-2l-142,121.8C252.7,177,253.7,177,254.7,176.9z"/>
		
			<linearGradient id="SVGID_8_" gradientUnits="userSpaceOnUse" x1="2433.4587" y1="-853.2596" x2="2201.0122" y2="-1085.7063" gradientTransform="matrix(-1 0 0 1 2644.6978 1068.4624)">
			<stop  offset="0.1193" style="stop-color:#FC3F6F"/>
			<stop  offset="0.5146" style="stop-color:#FC7985"/>
			<stop  offset="1" style="stop-color:#FBB89D"/>
		</linearGradient>
		<path class="st7" d="M239.7,177.4L391.6,47c-0.2-0.6-0.4-1.2-0.6-1.8L237,177.3C237.9,177.4,238.7,177.4,239.7,177.4z"/>
		
			<linearGradient id="SVGID_9_" gradientUnits="userSpaceOnUse" x1="2440.7842" y1="-859.5475" x2="2208.3357" y2="-1091.9961" gradientTransform="matrix(-1 0 0 1 2644.6978 1068.4624)">
			<stop  offset="0.1193" style="stop-color:#FC3F6F"/>
			<stop  offset="0.5146" style="stop-color:#FC7985"/>
			<stop  offset="1" style="stop-color:#FBB89D"/>
		</linearGradient>
		<path class="st8" d="M224,176.8c0.6,0,1.2,0.1,1.8,0.1L387.9,37.8c-0.3-0.6-0.6-1.1-0.8-1.6L223.2,176.7
			C223.5,176.7,223.7,176.7,224,176.8z"/>
		
			<linearGradient id="SVGID_10_" gradientUnits="userSpaceOnUse" x1="2448.1421" y1="-865.879" x2="2215.6965" y2="-1098.3247" gradientTransform="matrix(-1 0 0 1 2644.6978 1068.4624)">
			<stop  offset="0.1193" style="stop-color:#FC3F6F"/>
			<stop  offset="0.5146" style="stop-color:#FC7985"/>
			<stop  offset="1" style="stop-color:#FBB89D"/>
		</linearGradient>
		<path class="st9" d="M212.8,175.6L383,29.6c-0.3-0.5-0.7-1-1-1.5L210.4,175.2C211.2,175.4,212,175.5,212.8,175.6z"/>
		
			<linearGradient id="SVGID_11_" gradientUnits="userSpaceOnUse" x1="2455.5156" y1="-872.2215" x2="2223.0759" y2="-1104.661" gradientTransform="matrix(-1 0 0 1 2644.6978 1068.4624)">
			<stop  offset="0.1193" style="stop-color:#FC3F6F"/>
			<stop  offset="0.5146" style="stop-color:#FC7985"/>
			<stop  offset="1" style="stop-color:#FBB89D"/>
		</linearGradient>
		<path class="st10" d="M200.6,173.6L377.1,22.2c-0.4-0.4-0.8-0.9-1.3-1.3L198.4,173.1C199.2,173.3,199.8,173.4,200.6,173.6z"/>
		
			<linearGradient id="SVGID_12_" gradientUnits="userSpaceOnUse" x1="2462.925" y1="-878.5883" x2="2230.3425" y2="-1111.1707" gradientTransform="matrix(-1 0 0 1 2644.6978 1068.4624)">
			<stop  offset="0.1193" style="stop-color:#FC3F6F"/>
			<stop  offset="0.5146" style="stop-color:#FC7985"/>
			<stop  offset="1" style="stop-color:#FBB89D"/>
		</linearGradient>
		<path class="st11" d="M189.2,170.9L370.1,15.8c-0.5-0.4-1-0.7-1.4-1.1L187.1,170.3C187.9,170.5,188.6,170.7,189.2,170.9z"/>
		
			<linearGradient id="SVGID_13_" gradientUnits="userSpaceOnUse" x1="2470.3152" y1="-884.9505" x2="2237.7341" y2="-1117.5316" gradientTransform="matrix(-1 0 0 1 2644.6978 1068.4624)">
			<stop  offset="0.1193" style="stop-color:#FC3F6F"/>
			<stop  offset="0.5146" style="stop-color:#FC7985"/>
			<stop  offset="1" style="stop-color:#FBB89D"/>
		</linearGradient>
		<path class="st12" d="M178.5,167.6L362,10.3c-0.6-0.3-1.1-0.6-1.7-0.9L176.6,166.9C177.3,167.2,178,167.4,178.5,167.6z"/>
		
			<linearGradient id="SVGID_14_" gradientUnits="userSpaceOnUse" x1="2477.7097" y1="-891.3113" x2="2245.1265" y2="-1123.8944" gradientTransform="matrix(-1 0 0 1 2644.6978 1068.4624)">
			<stop  offset="0.1193" style="stop-color:#FC3F6F"/>
			<stop  offset="0.5146" style="stop-color:#FC7985"/>
			<stop  offset="1" style="stop-color:#FBB89D"/>
		</linearGradient>
		<path class="st13" d="M168.6,163.7l184-157.8c-0.6-0.2-1.3-0.5-1.9-0.7L166.8,162.9C167.4,163.2,168,163.4,168.6,163.7z"/>
		
			<linearGradient id="SVGID_15_" gradientUnits="userSpaceOnUse" x1="2485.1682" y1="-897.7444" x2="2252.5825" y2="-1130.3304" gradientTransform="matrix(-1 0 0 1 2644.6978 1068.4624)">
			<stop  offset="0.1193" style="stop-color:#FC3F6F"/>
			<stop  offset="0.5146" style="stop-color:#FC7985"/>
			<stop  offset="1" style="stop-color:#FBB89D"/>
		</linearGradient>
		<path class="st14" d="M159.3,159.2L342,2.5c-0.8-0.2-1.4-0.3-2.2-0.5L157.7,158.3C158.3,158.6,158.8,158.9,159.3,159.2z"/>
		
			<linearGradient id="SVGID_16_" gradientUnits="userSpaceOnUse" x1="2492.5952" y1="-904.1381" x2="2260.0107" y2="-1136.7225" gradientTransform="matrix(-1 0 0 1 2644.6978 1068.4624)">
			<stop  offset="0.1193" style="stop-color:#FC3F6F"/>
			<stop  offset="0.5146" style="stop-color:#FC7985"/>
			<stop  offset="1" style="stop-color:#FBB89D"/>
		</linearGradient>
		<path class="st15" d="M150.8,154.2L330,0.5c-0.8-0.1-1.7-0.2-2.5-0.2L149.2,153.2C149.8,153.5,150.3,153.8,150.8,154.2z"/>
		
			<linearGradient id="SVGID_17_" gradientUnits="userSpaceOnUse" x1="2500.1326" y1="-910.6528" x2="2267.5454" y2="-1143.24" gradientTransform="matrix(-1 0 0 1 2644.6978 1068.4624)">
			<stop  offset="0.1193" style="stop-color:#FC3F6F"/>
			<stop  offset="0.5146" style="stop-color:#FC7985"/>
			<stop  offset="1" style="stop-color:#FBB89D"/>
		</linearGradient>
		<path class="st16" d="M142.8,148.6L316,0c-0.9,0-1.9,0.1-2.9,0.1L141.3,147.4C141.8,147.8,142.3,148.2,142.8,148.6z"/>
		
			<linearGradient id="SVGID_18_" gradientUnits="userSpaceOnUse" x1="2507.615" y1="-917.2142" x2="2275.104" y2="-1149.7252" gradientTransform="matrix(-1 0 0 1 2644.6978 1068.4624)">
			<stop  offset="0.1193" style="stop-color:#FC3F6F"/>
			<stop  offset="0.5146" style="stop-color:#FC7985"/>
			<stop  offset="1" style="stop-color:#FBB89D"/>
		</linearGradient>
		<path class="st17" d="M135.5,142.4L299.7,1.6c-1.2,0.2-2.3,0.4-3.5,0.6l-162.1,139C134.7,141.6,135.1,142,135.5,142.4z"/>
		
			<linearGradient id="SVGID_19_" gradientUnits="userSpaceOnUse" x1="2515.2102" y1="-923.9099" x2="2282.7974" y2="-1156.3229" gradientTransform="matrix(-1 0 0 1 2644.6978 1068.4624)">
			<stop  offset="0.1193" style="stop-color:#FC3F6F"/>
			<stop  offset="0.5146" style="stop-color:#FC7985"/>
			<stop  offset="1" style="stop-color:#FBB89D"/>
		</linearGradient>
		<path class="st18" d="M129,135.6L279.9,6.1c-1.5,0.4-2.9,0.9-4.4,1.4L127.8,134.3C128.1,134.7,128.5,135.2,129,135.6z"/>
		
			<linearGradient id="SVGID_20_" gradientUnits="userSpaceOnUse" x1="2523.1687" y1="-930.7885" x2="2290.7188" y2="-1163.2386" gradientTransform="matrix(-1 0 0 1 2644.6978 1068.4624)">
			<stop  offset="0.1193" style="stop-color:#FC3F6F"/>
			<stop  offset="0.5146" style="stop-color:#FC7985"/>
			<stop  offset="1" style="stop-color:#FBB89D"/>
		</linearGradient>
		<path class="st19" d="M123,128.3L252,17.6c-2.2,1.1-4.5,2.2-6.7,3.4L122,126.8C122.3,127.3,122.6,127.8,123,128.3z"/>
		
			<linearGradient id="SVGID_21_" gradientUnits="userSpaceOnUse" x1="2531.2847" y1="-937.8776" x2="2298.8367" y2="-1170.3253" gradientTransform="matrix(-1 0 0 1 2644.6978 1068.4624)">
			<stop  offset="0.1193" style="stop-color:#FC3F6F"/>
			<stop  offset="0.5146" style="stop-color:#FC7985"/>
			<stop  offset="1" style="stop-color:#FBB89D"/>
		</linearGradient>
		<path class="st20" d="M117.8,120.3l100.5-86.2c-1.8,0.8-3.5,1.5-5.3,2.2l-96.1,82.4C117.2,119.2,117.5,119.8,117.8,120.3z"/>
		
			<linearGradient id="SVGID_22_" gradientUnits="userSpaceOnUse" x1="2539.0508" y1="-944.6151" x2="2306.6055" y2="-1177.0602" gradientTransform="matrix(-1 0 0 1 2644.6978 1068.4624)">
			<stop  offset="0.1193" style="stop-color:#FC3F6F"/>
			<stop  offset="0.5146" style="stop-color:#FC7985"/>
			<stop  offset="1" style="stop-color:#FBB89D"/>
		</linearGradient>
		<path class="st21" d="M113.4,111.6l80.5-69c-1.3,0.3-2.5,0.6-3.9,1l-77.4,66.3C112.9,110.5,113.1,111.1,113.4,111.6z"/>
		
			<linearGradient id="SVGID_23_" gradientUnits="userSpaceOnUse" x1="2546.5422" y1="-951.0678" x2="2314.0857" y2="-1183.5243" gradientTransform="matrix(-1 0 0 1 2644.6978 1068.4624)">
			<stop  offset="0.1193" style="stop-color:#FC3F6F"/>
			<stop  offset="0.5146" style="stop-color:#FC7985"/>
			<stop  offset="1" style="stop-color:#FBB89D"/>
		</linearGradient>
		<path class="st22" d="M109.9,102.2l65.2-56c-1.1,0.1-2.1,0.3-3.2,0.4l-62.6,53.7C109.5,100.9,109.7,101.6,109.9,102.2z"/>
		
			<linearGradient id="SVGID_24_" gradientUnits="userSpaceOnUse" x1="2553.9116" y1="-957.4062" x2="2321.4636" y2="-1189.8541" gradientTransform="matrix(-1 0 0 1 2644.6978 1068.4624)">
			<stop  offset="0.1193" style="stop-color:#FC3F6F"/>
			<stop  offset="0.5146" style="stop-color:#FC7985"/>
			<stop  offset="1" style="stop-color:#FBB89D"/>
		</linearGradient>
		<path class="st23" d="M107.6,91.8l51.8-44.4c-0.9,0-1.9,0-2.8,0l-49.3,42.3C107.3,90.4,107.4,91.1,107.6,91.8z"/>
		
			<linearGradient id="SVGID_25_" gradientUnits="userSpaceOnUse" x1="2561.1504" y1="-963.6153" x2="2328.7004" y2="-1196.0653" gradientTransform="matrix(-1 0 0 1 2644.6978 1068.4624)">
			<stop  offset="0.1193" style="stop-color:#FC3F6F"/>
			<stop  offset="0.5146" style="stop-color:#FC7985"/>
			<stop  offset="1" style="stop-color:#FBB89D"/>
		</linearGradient>
		<path class="st24" d="M106.8,80l38.5-33c-0.8-0.1-1.7-0.1-2.6-0.2l-35.8,30.8C106.8,78.4,106.8,79.2,106.8,80z"/>
		
			<linearGradient id="SVGID_26_" gradientUnits="userSpaceOnUse" x1="2568.2107" y1="-969.6458" x2="2335.7732" y2="-1202.0833" gradientTransform="matrix(-1 0 0 1 2644.6978 1068.4624)">
			<stop  offset="0.1193" style="stop-color:#FC3F6F"/>
			<stop  offset="0.5146" style="stop-color:#FC7985"/>
			<stop  offset="1" style="stop-color:#FBB89D"/>
		</linearGradient>
		<path class="st25" d="M110.6,62c-0.5,1.1-0.9,2.3-1.3,3.5l22.6-19.4c-1.1,0.1-2.2,0.2-3.2,0.4L110.6,62z"/>
	</g>
	
		<linearGradient id="SVGID_27_" gradientUnits="userSpaceOnUse" x1="2373.6279" y1="-1114.392" x2="2175.8484" y2="-1292.9429" gradientTransform="matrix(-1 0 0 1 2393.3096 1550.7529)">
		<stop  offset="0.1193" style="stop-color:#FC3F6F"/>
		<stop  offset="0.5146" style="stop-color:#FC7985"/>
		<stop  offset="1" style="stop-color:#FBB89D"/>
	</linearGradient>
	<path class="st26" d="M169.1,301.4L56,398.4c-0.8,0.7-0.8,1.9,0,2.6l0,0c0.8,0.7,2.2,0.7,2.9,0l113.1-97c0.8-0.7,0.8-1.9,0-2.6l0,0
		C171.2,300.7,170,300.7,169.1,301.4z"/>
	
		<linearGradient id="SVGID_28_" gradientUnits="userSpaceOnUse" x1="2465.2759" y1="-1076.9413" x2="2149.6646" y2="-1337.8156" gradientTransform="matrix(-1 0 0 1 2393.3096 1550.7529)">
		<stop  offset="0.1193" style="stop-color:#FC3F6F"/>
		<stop  offset="0.5146" style="stop-color:#FC7985"/>
		<stop  offset="1" style="stop-color:#FBB89D"/>
	</linearGradient>
	<path class="st27" d="M51.8,370c-0.8,0.7-0.8,1.9,0,2.6l0,0c0.8,0.7,2.2,0.7,2.9,0l62.1-53.3c0.8-0.7,0.8-1.9,0-2.6l0,0
		c-0.8-0.7-2.2-0.7-2.9,0L51.8,370z"/>
	
		<linearGradient id="SVGID_29_" gradientUnits="userSpaceOnUse" x1="2420.3525" y1="-1048.4999" x2="2104.748" y2="-1309.3685" gradientTransform="matrix(-1 0 0 1 2393.3096 1550.7529)">
		<stop  offset="0.1193" style="stop-color:#FC3F6F"/>
		<stop  offset="0.5146" style="stop-color:#FC7985"/>
		<stop  offset="1" style="stop-color:#FBB89D"/>
	</linearGradient>
	<path class="st28" d="M96.7,398.4c-0.8,0.7-0.8,1.9,0,2.6l0,0c0.8,0.7,2.2,0.7,2.9,0l62-53.2c0.8-0.7,0.8-1.9,0-2.6l0,0
		c-0.8-0.7-2.2-0.7-2.9,0L96.7,398.4z"/>
</g>
</svg>
