<?xml version="1.0" encoding="utf-8"?>
<!-- Generator: Adobe Illustrator 23.0.2, SVG Export Plug-In . SVG Version: 6.00 Build 0)  -->
<svg version="1.1" id="Layer_6" xmlns="http://www.w3.org/2000/svg" xmlns:xlink="http://www.w3.org/1999/xlink" x="0px" y="0px"
	 viewBox="0 0 746.2 626.2" style="enable-background:new 0 0 746.2 626.2;" xml:space="preserve">
<style type="text/css">
	.st0{fill:url(#SVGID_1_);}
	.st1{fill:url(#SVGID_2_);}
	.st2{fill:url(#SVGID_3_);}
	.st3{fill:url(#SVGID_4_);}
	.st4{fill:url(#SVGID_5_);}
	.st5{fill:url(#SVGID_6_);}
	.st6{fill:url(#SVGID_7_);}
	.st7{fill:url(#SVGID_8_);}
	.st8{fill:url(#SVGID_9_);}
	.st9{fill:url(#SVGID_10_);}
	.st10{fill:url(#SVGID_11_);}
	.st11{fill:url(#SVGID_12_);}
	.st12{fill:url(#SVGID_13_);}
	.st13{fill:url(#SVGID_14_);}
	.st14{fill:url(#SVGID_15_);}
	.st15{fill:url(#SVGID_16_);}
	.st16{fill:url(#SVGID_17_);}
	.st17{fill:url(#SVGID_18_);}
	.st18{fill:url(#SVGID_19_);}
	.st19{fill:url(#SVGID_20_);}
	.st20{fill:url(#SVGID_21_);}
	.st21{fill:url(#SVGID_22_);}
	.st22{fill:url(#SVGID_23_);}
	.st23{fill:url(#SVGID_24_);}
	.st24{fill:url(#SVGID_25_);}
	.st25{fill:url(#SVGID_26_);}
	.st26{fill:url(#SVGID_27_);}
	.st27{fill:url(#SVGID_28_);}
	.st28{fill:url(#SVGID_29_);}
	.st29{fill:url(#SVGID_30_);}
	.st30{fill:url(#SVGID_31_);}
	.st31{fill:url(#SVGID_32_);}
</style>
<g>
	<g>
		
			<linearGradient id="SVGID_1_" gradientUnits="userSpaceOnUse" x1="753.8015" y1="-911.9162" x2="21.4811" y2="-479.9968" gradientTransform="matrix(1 0 0 1 0 960)">
			<stop  offset="4.192073e-04" style="stop-color:#FF4085"/>
			<stop  offset="0.5141" style="stop-color:#B54AB0"/>
			<stop  offset="1" style="stop-color:#7A2DDF"/>
		</linearGradient>
		<path class="st0" d="M625.5,129.7c-73.2-27.6-135.6,99-295.1,47.8C141.8,117,20.8,190.7,19.4,268.6
			c-3.2,170.9,287.9,222,487.9,172.4C707.3,391.4,766.8,182.9,625.5,129.7z"/>
		
			<linearGradient id="SVGID_2_" gradientUnits="userSpaceOnUse" x1="703.6401" y1="-983.2149" x2="-41.9676" y2="-543.4584" gradientTransform="matrix(1 0 0 1 0 960)">
			<stop  offset="4.192073e-04" style="stop-color:#FF4085"/>
			<stop  offset="0.5141" style="stop-color:#B54AB0"/>
			<stop  offset="1" style="stop-color:#7A2DDF"/>
		</linearGradient>
		<path class="st1" d="M474.8,141.7c-1.5-14.4-28.2-6.5-61.8-4.5c-33.7,1.9-61.6-3-60.1,11.4c1.5,14.4,30.1,24.6,63.8,22.7
			C450.4,169.4,476.3,156.1,474.8,141.7z"/>
	</g>
	
		<linearGradient id="SVGID_3_" gradientUnits="userSpaceOnUse" x1="305.7896" y1="-346.6659" x2="737.0402" y2="-742.9247" gradientTransform="matrix(1 0 0 1 0 960)">
		<stop  offset="4.192073e-04" style="stop-color:#FF4085"/>
		<stop  offset="0.5141" style="stop-color:#B54AB0"/>
		<stop  offset="1" style="stop-color:#7A2DDF"/>
	</linearGradient>
	<path class="st2" d="M576.6,392.7c-59.5,45.7-195.1,1.1-207.1,58.2c-13.3,63.6-79.3,50.8-76.6,81.7c1.9,21.6,36.5,39.3,82.4,28.6
		c99.6-23.2,95.6-92.2,256.8-161.7C789.6,331.5,697.8,299.6,576.6,392.7z"/>
	<g>
		
			<linearGradient id="SVGID_4_" gradientUnits="userSpaceOnUse" x1="-2329.2781" y1="-3831.7659" x2="-2721.689" y2="-3446.0745" gradientTransform="matrix(1 0 0 1 2584.6606 3760.3928)">
			<stop  offset="0" style="stop-color:#7A2DDF"/>
			<stop  offset="0.2343" style="stop-color:#B54AB0"/>
			<stop  offset="0.7587" style="stop-color:#FF4085"/>
		</linearGradient>
		<path class="st3" d="M77.5,99.1c-1.9,2-3.8,4-5.5,6.1l37.3-28.6c-2.7,1.3-5.4,2.7-7.9,4.2L77.5,99.1z"/>
		
			<linearGradient id="SVGID_5_" gradientUnits="userSpaceOnUse" x1="-2322.9875" y1="-3826.8843" x2="-2715.3843" y2="-3441.2063" gradientTransform="matrix(1 0 0 1 2584.6606 3760.3928)">
			<stop  offset="0" style="stop-color:#7A2DDF"/>
			<stop  offset="0.2343" style="stop-color:#B54AB0"/>
			<stop  offset="0.7587" style="stop-color:#FF4085"/>
		</linearGradient>
		<path class="st4" d="M61.6,121.2c-0.5,1-1,2-1.4,3l74-56.6c-1.3,0.3-2.6,0.6-3.9,1.1L61.6,121.2z"/>
		
			<linearGradient id="SVGID_6_" gradientUnits="userSpaceOnUse" x1="-2316.5281" y1="-3821.8459" x2="-2708.9155" y2="-3436.1772" gradientTransform="matrix(1 0 0 1 2584.6606 3760.3928)">
			<stop  offset="0" style="stop-color:#7A2DDF"/>
			<stop  offset="0.2343" style="stop-color:#B54AB0"/>
			<stop  offset="0.7587" style="stop-color:#FF4085"/>
		</linearGradient>
		<path class="st5" d="M56.5,135.2c-0.2,0.8-0.4,1.6-0.6,2.3l95.8-73.3c-1,0.1-2,0.3-3.1,0.4L56.5,135.2z"/>
		
			<linearGradient id="SVGID_7_" gradientUnits="userSpaceOnUse" x1="-2310.1006" y1="-3816.8579" x2="-2702.4939" y2="-3431.1836" gradientTransform="matrix(1 0 0 1 2584.6606 3760.3928)">
			<stop  offset="0" style="stop-color:#7A2DDF"/>
			<stop  offset="0.2343" style="stop-color:#B54AB0"/>
			<stop  offset="0.7587" style="stop-color:#FF4085"/>
		</linearGradient>
		<path class="st6" d="M54.5,146.7c-0.1,0.6-0.1,1.3-0.2,2.1L166.4,63c-0.9,0-1.8,0.1-2.7,0.1L54.5,146.7z"/>
		
			<linearGradient id="SVGID_8_" gradientUnits="userSpaceOnUse" x1="-2303.6128" y1="-3811.8147" x2="-2696.0237" y2="-3426.1233" gradientTransform="matrix(1 0 0 1 2584.6606 3760.3928)">
			<stop  offset="0" style="stop-color:#7A2DDF"/>
			<stop  offset="0.2343" style="stop-color:#B54AB0"/>
			<stop  offset="0.7587" style="stop-color:#FF4085"/>
		</linearGradient>
		<path class="st7" d="M54.3,156.9c0.1,0.6,0.1,1.2,0.1,1.8l124.8-95.6c-0.7-0.1-1.6-0.1-2.3-0.1L54.3,156.9z"/>
		
			<linearGradient id="SVGID_9_" gradientUnits="userSpaceOnUse" x1="-2297.1575" y1="-3806.7747" x2="-2689.5493" y2="-3421.1016" gradientTransform="matrix(1 0 0 1 2584.6606 3760.3928)">
			<stop  offset="0" style="stop-color:#7A2DDF"/>
			<stop  offset="0.2343" style="stop-color:#B54AB0"/>
			<stop  offset="0.7587" style="stop-color:#FF4085"/>
		</linearGradient>
		<path class="st8" d="M55.4,166c0.1,0.5,0.2,1.1,0.3,1.6L191,64.2c-0.7-0.1-1.4-0.2-2.2-0.3L55.4,166z"/>
		
			<linearGradient id="SVGID_10_" gradientUnits="userSpaceOnUse" x1="-2290.6851" y1="-3801.7512" x2="-2683.1035" y2="-3416.0522" gradientTransform="matrix(1 0 0 1 2584.6606 3760.3928)">
			<stop  offset="0" style="stop-color:#7A2DDF"/>
			<stop  offset="0.2343" style="stop-color:#B54AB0"/>
			<stop  offset="0.7587" style="stop-color:#FF4085"/>
		</linearGradient>
		<path class="st9" d="M57.6,174.4c0.2,0.5,0.3,1,0.6,1.5l143.6-110c-0.6-0.1-1.3-0.3-2-0.4L57.6,174.4z"/>
		
			<linearGradient id="SVGID_11_" gradientUnits="userSpaceOnUse" x1="-2284.2314" y1="-3796.7168" x2="-2676.6292" y2="-3411.0383" gradientTransform="matrix(1 0 0 1 2584.6606 3760.3928)">
			<stop  offset="0" style="stop-color:#7A2DDF"/>
			<stop  offset="0.2343" style="stop-color:#B54AB0"/>
			<stop  offset="0.7587" style="stop-color:#FF4085"/>
		</linearGradient>
		<path class="st10" d="M60.5,182.1c0.2,0.4,0.4,0.9,0.6,1.4L211.7,68.3c-0.6-0.2-1.2-0.3-1.9-0.5L60.5,182.1z"/>
		
			<linearGradient id="SVGID_12_" gradientUnits="userSpaceOnUse" x1="-2277.7385" y1="-3791.6582" x2="-2670.146" y2="-3405.9702" gradientTransform="matrix(1 0 0 1 2584.6606 3760.3928)">
			<stop  offset="0" style="stop-color:#7A2DDF"/>
			<stop  offset="0.2343" style="stop-color:#B54AB0"/>
			<stop  offset="0.7587" style="stop-color:#FF4085"/>
		</linearGradient>
		<path class="st11" d="M64.2,189.4c0.2,0.4,0.6,0.9,0.7,1.3L221,71.2c-0.6-0.2-1.1-0.4-1.7-0.6L64.2,189.4z"/>
		
			<linearGradient id="SVGID_13_" gradientUnits="userSpaceOnUse" x1="-2271.2654" y1="-3786.615" x2="-2663.6736" y2="-3400.9268" gradientTransform="matrix(1 0 0 1 2584.6606 3760.3928)">
			<stop  offset="0" style="stop-color:#7A2DDF"/>
			<stop  offset="0.2343" style="stop-color:#B54AB0"/>
			<stop  offset="0.7587" style="stop-color:#FF4085"/>
		</linearGradient>
		<path class="st12" d="M68.5,196c0.3,0.4,0.6,0.8,0.9,1.3L229.6,74.6c-0.6-0.2-1-0.4-1.6-0.6L68.5,196z"/>
		
			<linearGradient id="SVGID_14_" gradientUnits="userSpaceOnUse" x1="-2264.7834" y1="-3781.5457" x2="-2657.1604" y2="-3395.8877" gradientTransform="matrix(1 0 0 1 2584.6606 3760.3928)">
			<stop  offset="0" style="stop-color:#7A2DDF"/>
			<stop  offset="0.2343" style="stop-color:#B54AB0"/>
			<stop  offset="0.7587" style="stop-color:#FF4085"/>
		</linearGradient>
		<path class="st13" d="M73.4,202.3c0.3,0.4,0.6,0.8,1,1.1l163.3-125c-0.5-0.3-1-0.5-1.5-0.8L73.4,202.3z"/>
		
			<linearGradient id="SVGID_15_" gradientUnits="userSpaceOnUse" x1="-2258.2949" y1="-3776.5459" x2="-2650.7937" y2="-3390.7681" gradientTransform="matrix(1 0 0 1 2584.6606 3760.3928)">
			<stop  offset="0" style="stop-color:#7A2DDF"/>
			<stop  offset="0.2343" style="stop-color:#B54AB0"/>
			<stop  offset="0.7587" style="stop-color:#FF4085"/>
		</linearGradient>
		<path class="st14" d="M78.8,208.1c0.3,0.3,0.7,0.8,1.1,1.1L245.2,82.6c-0.5-0.3-1-0.6-1.4-0.9L78.8,208.1z"/>
		
			<linearGradient id="SVGID_16_" gradientUnits="userSpaceOnUse" x1="-2251.7734" y1="-3771.5469" x2="-2644.4756" y2="-3385.5686" gradientTransform="matrix(1 0 0 1 2584.6606 3760.3928)">
			<stop  offset="0" style="stop-color:#7A2DDF"/>
			<stop  offset="0.2343" style="stop-color:#B54AB0"/>
			<stop  offset="0.7587" style="stop-color:#FF4085"/>
		</linearGradient>
		<path class="st15" d="M84.8,213.5c0.4,0.3,0.8,0.6,1.2,1L252.2,87.3c-0.4-0.3-0.9-0.6-1.3-0.9L84.8,213.5z"/>
		
			<linearGradient id="SVGID_17_" gradientUnits="userSpaceOnUse" x1="-2245.3391" y1="-3766.4934" x2="-2638.0562" y2="-3380.501" gradientTransform="matrix(1 0 0 1 2584.6606 3760.3928)">
			<stop  offset="0" style="stop-color:#7A2DDF"/>
			<stop  offset="0.2343" style="stop-color:#B54AB0"/>
			<stop  offset="0.7587" style="stop-color:#FF4085"/>
		</linearGradient>
		<path class="st16" d="M91.3,218.6c0.4,0.3,0.9,0.6,1.3,0.9l166-127.2c-0.4-0.3-0.8-0.6-1.2-1L91.3,218.6z"/>
		
			<linearGradient id="SVGID_18_" gradientUnits="userSpaceOnUse" x1="-2238.9761" y1="-3761.3071" x2="-2631.4819" y2="-3375.5222" gradientTransform="matrix(1 0 0 1 2584.6606 3760.3928)">
			<stop  offset="0" style="stop-color:#7A2DDF"/>
			<stop  offset="0.2343" style="stop-color:#B54AB0"/>
			<stop  offset="0.7587" style="stop-color:#FF4085"/>
		</linearGradient>
		<path class="st17" d="M98.3,223.2c0.5,0.3,1,0.6,1.4,0.9L264.6,97.8c-0.3-0.3-0.7-0.8-1.1-1.1L98.3,223.2z"/>
		
			<linearGradient id="SVGID_19_" gradientUnits="userSpaceOnUse" x1="-2232.5527" y1="-3756.1523" x2="-2624.9294" y2="-3370.4941" gradientTransform="matrix(1 0 0 1 2584.6606 3760.3928)">
			<stop  offset="0" style="stop-color:#7A2DDF"/>
			<stop  offset="0.2343" style="stop-color:#B54AB0"/>
			<stop  offset="0.7587" style="stop-color:#FF4085"/>
		</linearGradient>
		<path class="st18" d="M105.8,227.5c0.5,0.3,1,0.5,1.5,0.8l162.8-124.7c-0.3-0.4-0.6-0.8-1-1.1L105.8,227.5z"/>
		
			<linearGradient id="SVGID_20_" gradientUnits="userSpaceOnUse" x1="-2226.0845" y1="-3751.1641" x2="-2618.498" y2="-3365.4697" gradientTransform="matrix(1 0 0 1 2584.6606 3760.3928)">
			<stop  offset="0" style="stop-color:#7A2DDF"/>
			<stop  offset="0.2343" style="stop-color:#B54AB0"/>
			<stop  offset="0.7587" style="stop-color:#FF4085"/>
		</linearGradient>
		<path class="st19" d="M113.9,231.3c0.6,0.2,1,0.4,1.6,0.6L275,109.8c-0.3-0.4-0.6-0.8-0.9-1.3L113.9,231.3z"/>
		
			<linearGradient id="SVGID_21_" gradientUnits="userSpaceOnUse" x1="-2219.6267" y1="-3746.1299" x2="-2612.0342" y2="-3360.4417" gradientTransform="matrix(1 0 0 1 2584.6606 3760.3928)">
			<stop  offset="0" style="stop-color:#7A2DDF"/>
			<stop  offset="0.2343" style="stop-color:#B54AB0"/>
			<stop  offset="0.7587" style="stop-color:#FF4085"/>
		</linearGradient>
		<path class="st20" d="M122.5,234.7c0.6,0.2,1.1,0.4,1.7,0.6l155.1-118.8c-0.2-0.4-0.6-0.9-0.7-1.3L122.5,234.7z"/>
		
			<linearGradient id="SVGID_22_" gradientUnits="userSpaceOnUse" x1="-2213.1357" y1="-3741.0728" x2="-2605.5493" y2="-3355.3789" gradientTransform="matrix(1 0 0 1 2584.6606 3760.3928)">
			<stop  offset="0" style="stop-color:#7A2DDF"/>
			<stop  offset="0.2343" style="stop-color:#B54AB0"/>
			<stop  offset="0.7587" style="stop-color:#FF4085"/>
		</linearGradient>
		<path class="st21" d="M131.8,237.6c0.6,0.2,1.2,0.3,1.9,0.5l149.3-114.4c-0.2-0.4-0.4-0.9-0.6-1.4L131.8,237.6z"/>
		
			<linearGradient id="SVGID_23_" gradientUnits="userSpaceOnUse" x1="-2206.6594" y1="-3736.0256" x2="-2599.0723" y2="-3350.3325" gradientTransform="matrix(1 0 0 1 2584.6606 3760.3928)">
			<stop  offset="0" style="stop-color:#7A2DDF"/>
			<stop  offset="0.2343" style="stop-color:#B54AB0"/>
			<stop  offset="0.7587" style="stop-color:#FF4085"/>
		</linearGradient>
		<path class="st22" d="M141.7,240c0.6,0.1,1.3,0.3,2,0.4l142.3-108.9c-0.2-0.5-0.3-1-0.6-1.5L141.7,240z"/>
		
			<linearGradient id="SVGID_24_" gradientUnits="userSpaceOnUse" x1="-2200.1636" y1="-3730.9421" x2="-2592.561" y2="-3345.2639" gradientTransform="matrix(1 0 0 1 2584.6606 3760.3928)">
			<stop  offset="0" style="stop-color:#7A2DDF"/>
			<stop  offset="0.2343" style="stop-color:#B54AB0"/>
			<stop  offset="0.7587" style="stop-color:#FF4085"/>
		</linearGradient>
		<path class="st23" d="M152.5,241.8c0.7,0.1,1.4,0.2,2.2,0.3l133.4-102.2c-0.1-0.5-0.2-1.1-0.3-1.6L152.5,241.8z"/>
		
			<linearGradient id="SVGID_25_" gradientUnits="userSpaceOnUse" x1="-2193.7495" y1="-3725.9763" x2="-2586.1606" y2="-3340.2847" gradientTransform="matrix(1 0 0 1 2584.6606 3760.3928)">
			<stop  offset="0" style="stop-color:#7A2DDF"/>
			<stop  offset="0.2343" style="stop-color:#B54AB0"/>
			<stop  offset="0.7587" style="stop-color:#FF4085"/>
		</linearGradient>
		<path class="st24" d="M164.2,242.8c0.7,0.1,1.6,0.1,2.3,0.1l122.6-93.9c-0.1-0.6-0.1-1.2-0.1-1.8L164.2,242.8z"/>
		
			<linearGradient id="SVGID_26_" gradientUnits="userSpaceOnUse" x1="-2187.2322" y1="-3720.875" x2="-2579.6331" y2="-3335.1931" gradientTransform="matrix(1 0 0 1 2584.6606 3760.3928)">
			<stop  offset="0" style="stop-color:#7A2DDF"/>
			<stop  offset="0.2343" style="stop-color:#B54AB0"/>
			<stop  offset="0.7587" style="stop-color:#FF4085"/>
		</linearGradient>
		<path class="st25" d="M177.2,242.9c0.9,0,1.8-0.1,2.7-0.1L289,159.2c0.1-0.6,0.1-1.3,0.2-2.1L177.2,242.9z"/>
		
			<linearGradient id="SVGID_27_" gradientUnits="userSpaceOnUse" x1="-2180.791" y1="-3715.8728" x2="-2573.2002" y2="-3330.1829" gradientTransform="matrix(1 0 0 1 2584.6606 3760.3928)">
			<stop  offset="0" style="stop-color:#7A2DDF"/>
			<stop  offset="0.2343" style="stop-color:#B54AB0"/>
			<stop  offset="0.7587" style="stop-color:#FF4085"/>
		</linearGradient>
		<path class="st26" d="M191.9,241.7c1-0.1,2-0.3,3.1-0.4l92.1-70.6c0.2-0.8,0.4-1.6,0.6-2.3L191.9,241.7z"/>
		
			<linearGradient id="SVGID_28_" gradientUnits="userSpaceOnUse" x1="-2174.3484" y1="-3710.8809" x2="-2566.7734" y2="-3325.1755" gradientTransform="matrix(1 0 0 1 2584.6606 3760.3928)">
			<stop  offset="0" style="stop-color:#7A2DDF"/>
			<stop  offset="0.2343" style="stop-color:#B54AB0"/>
			<stop  offset="0.7587" style="stop-color:#FF4085"/>
		</linearGradient>
		<path class="st27" d="M209.3,238.2c1.3-0.3,2.6-0.6,3.9-1.1l68.6-52.6c0.5-1,1-2,1.4-3L209.3,238.2z"/>
		
			<linearGradient id="SVGID_29_" gradientUnits="userSpaceOnUse" x1="-2168.0662" y1="-3706.011" x2="-2560.4771" y2="-3320.3198" gradientTransform="matrix(1 0 0 1 2584.6606 3760.3928)">
			<stop  offset="0" style="stop-color:#7A2DDF"/>
			<stop  offset="0.2343" style="stop-color:#B54AB0"/>
			<stop  offset="0.7587" style="stop-color:#FF4085"/>
		</linearGradient>
		<path class="st28" d="M271.5,200.7l-37.3,28.6c2.7-1.3,5.4-2.7,7.9-4.2l23.9-18.3C267.9,204.8,269.8,202.7,271.5,200.7z"/>
	</g>
	
		<linearGradient id="SVGID_30_" gradientUnits="userSpaceOnUse" x1="275.1161" y1="-676.0642" x2="46.961" y2="-447.9091" gradientTransform="matrix(1 0 0 1 0 960)">
		<stop  offset="0" style="stop-color:#7A2DDF"/>
		<stop  offset="0.5141" style="stop-color:#B54AB0"/>
		<stop  offset="1" style="stop-color:#FF4085"/>
	</linearGradient>
	<path class="st29" d="M76.5,471.9l119.1-91.1c1-0.8,1-2.1,0-2.8l0,0c-1-0.8-2.7-0.8-3.8,0L72.8,469c-1,0.8-1,2.1,0,2.8l0,0
		C73.8,472.6,75.5,472.6,76.5,471.9z"/>
	
		<linearGradient id="SVGID_31_" gradientUnits="userSpaceOnUse" x1="7610.8193" y1="2253.5603" x2="7374.7876" y2="2466.6445" gradientTransform="matrix(-1 0 0 -1 8148.9238 2508.6887)">
		<stop  offset="0" style="stop-color:#7A2DDF"/>
		<stop  offset="0.5141" style="stop-color:#B54AB0"/>
		<stop  offset="1" style="stop-color:#FF4085"/>
	</linearGradient>
	<path class="st30" d="M719.6,97.7L578.1,206.2c-1,0.8-1,2.1,0,2.8l0,0c1,0.8,2.7,0.8,3.8,0l141.6-108.4c1-0.8,1-2.1,0-2.8l0,0
		C722.3,97,720.6,97,719.6,97.7z"/>
	
		<linearGradient id="SVGID_32_" gradientUnits="userSpaceOnUse" x1="724.0574" y1="-841.7286" x2="591.7439" y2="-722.279" gradientTransform="matrix(1 0 0 1 0 960)">
		<stop  offset="0" style="stop-color:#F44F7F"/>
		<stop  offset="0.5141" style="stop-color:#B54AB0"/>
		<stop  offset="1" style="stop-color:#7A45DF"/>
	</linearGradient>
	<path class="st31" d="M620.2,203.6c-1,0.8-1,2.1,0,2.8l0,0c1,0.8,2.7,0.8,3.8,0l77.6-59.5c1-0.8,1-2.1,0-2.8l0,0
		c-1-0.8-2.7-0.8-3.8,0L620.2,203.6z"/>
</g>
</svg>
